<?xml version="1.0" encoding="UTF-8"?>
<svg width="34px" height="32px" viewBox="0 0 34 32" version="1.1" xmlns="http://www.w3.org/2000/svg" xmlns:xlink="http://www.w3.org/1999/xlink">
    <!-- Generator: Sketch 44.1 (41455) - http://www.bohemiancoding.com/sketch -->
    <title>100nt</title>
    <desc>Created with Sketch.</desc>
    <defs></defs>
    <g id="Main-Core-Mattress" stroke="none" stroke-width="1" fill="none" fill-rule="evenodd">
        <g id="1366-Mattress-PDP-EN-Copy" transform="translate(-70.000000, -590.000000)" fill="#00237E">
            <g id="Group-4" transform="translate(70.000000, 590.000000)">
                <g id="100nt">
                    <path d="M14.2367018,1.62121262 C12.8104523,1.95275153 10.6619918,2.60062651 8.53639345,3.79872743 C3.74412478,6.5007403 1.31428335,10.6055077 1.31428335,16.0007626 C1.31428335,24.0997845 7.9202865,30.6890472 16.0398845,30.6890472 C19.0963846,30.6890472 21.8334002,29.8727715 24.1758963,28.2630244 C24.9344524,27.7408652 25.5265247,27.2151977 25.9550444,26.7860098 C17.7580667,26.0820013 11.3033058,19.2015456 11.3033058,10.8458296 C11.3033058,7.52342381 12.3344496,4.30743792 14.2367018,1.62121262 M16.0398845,32 C7.19514443,32 0,24.8225042 0,16.0007626 C0,10.1663795 2.74111906,5.54530013 7.92732102,2.63629471 C11.7957224,0.466381329 15.6090199,0.0225752773 15.7696416,0.00386408671 C16.0392983,-0.0253721486 16.300748,0.113207607 16.4256108,0.35469891 C16.5510598,0.595605489 16.5141286,0.888552567 16.3335758,1.09145204 C13.9371484,3.78001624 12.6170029,7.24451012 12.6170029,10.8458296 C12.6170029,18.9454362 19.2230061,25.5346989 27.3431902,25.5346989 C27.5870537,25.5346989 27.810986,25.6697703 27.9247108,25.884949 C28.0378494,26.1001277 28.0226079,26.3609149 27.8848485,26.5608908 C27.7318476,26.7830862 24.0475163,32 16.0398845,32" id="Fill-56"></path>
                    <path d="M24.5006528,9.5 C25.8035208,10.1368303 26.8634911,11.1962629 27.5002926,12.4997749 C28.1370942,11.1962629 29.1964792,10.1368303 30.4999325,9.5 C29.1964792,8.86316974 28.1370942,7.80373706 27.5002926,6.50022512 C26.8634911,7.80373706 25.8035208,8.86316974 24.5006528,9.5 M27.5002926,16 C27.1379947,16 26.8441763,15.7067537 26.8441763,15.3438541 C26.8441763,12.4833859 24.5164558,10.1561459 21.6561163,10.1561459 C21.2938184,10.1561459 21,9.86231427 21,9.5 C21,9.13768573 21.2938184,8.84385412 21.6561163,8.84385412 C24.5164558,8.84385412 26.8441763,6.51602882 26.8441763,3.65556056 C26.8441763,3.29324629 27.1379947,3 27.5002926,3 C27.8625906,3 28.156409,3.29324629 28.156409,3.65556056 C28.156409,6.51602882 30.4835442,8.84385412 33.3438837,8.84385412 C33.7067669,8.84385412 34,9.13768573 34,9.5 C34,9.86231427 33.7067669,10.1561459 33.3438837,10.1561459 C30.4835442,10.1561459 28.156409,12.4833859 28.156409,15.3438541 C28.156409,15.7067537 27.8625906,16 27.5002926,16" id="Fill-58"></path>
                </g>
            </g>
        </g>
    </g>
</svg>