<?xml version="1.0" encoding="UTF-8"?>
<svg width="19px" height="21px" viewBox="0 0 19 21" version="1.1" xmlns="http://www.w3.org/2000/svg" xmlns:xlink="http://www.w3.org/1999/xlink">
    <!-- Generator: Sketch 48.2 (47327) - http://www.bohemiancoding.com/sketch -->
    <title>Account</title>
    <g id="nav1" stroke="none" stroke-width="1" fill-rule="evenodd" transform="translate(-293.000000, -14.000000)">
        <g id="nav">
            <g id="account" transform="translate(293.000000, 14.000000)">
                <path d="M9.585,2 C7.583,2 5.953,3.63 5.953,5.633 C5.953,7.636 7.583,9.265 9.585,9.265 C11.588,9.265 13.218,7.636 13.218,5.633 C13.218,3.63 11.588,2 9.585,2 M9.585,11.265 C6.48,11.265 3.953,8.738 3.953,5.633 C3.953,2.527 6.48,-3.55271368e-15 9.585,-3.55271368e-15 C12.69,-3.55271368e-15 15.218,2.527 15.218,5.633 C15.218,8.738 12.69,11.265 9.585,11.265" id="Fill-4"></path>
                <path d="M18.8369,20.0947 L0.3339,20.0947 L0.3339,15.9097 C0.3339,13.1727 3.8119,10.4857 4.2079,10.1887 L5.4089,11.7877 C4.2199,12.6827 2.3339,14.5927 2.3339,15.9097 L2.3339,18.0947 L16.8369,18.0947 L16.8369,15.9097 C16.8369,14.4277 14.5599,12.3867 13.7629,11.7877 L14.9619,10.1887 C15.3579,10.4857 18.8369,13.1727 18.8369,15.9097 L18.8369,20.0947 Z" id="Fill-13"></path>
            </g>
        </g>
    </g>
</svg>
