<?xml version="1.0" encoding="utf-8"?>
<!-- Generator: Adobe Illustrator 19.2.1, SVG Export Plug-In . SVG Version: 6.00 Build 0)  -->
<svg version="1.1" id="Layer_1" xmlns="http://www.w3.org/2000/svg" xmlns:xlink="http://www.w3.org/1999/xlink" x="0px" y="0px"
	 width="115px" height="23px" viewBox="0 0 115 23" style="enable-background:new 0 0 115 23;" xml:space="preserve">

<title>Affirm Logo</title>
<desc>Affirm Logo</desc>

<g>
	<circle cx="79.5" cy="3.7" r="2.3"/>
	<rect x="77.5" y="7.5" width="3.9" height="15.5"/>
	<path d="M93.1,7.1c-1.9,0-4.2,1.4-4.9,3.2V7.5h-3.7V23h3.9v-7.2c0-3.1,1.2-4.8,3.7-4.8l2.2-3.8
		C94.1,7.1,93.3,7.1,93.1,7.1z"/>
	<path d="M108.8,7.1c-1.7,0-3.2,0.6-4.2,1.8l-0.1,0.1l-0.1-0.1c-1-1.1-2.5-1.8-4.2-1.8c-3.6,0-6.2,2.6-6.2,6.2V23h3.8
		v-9.8c0-1.5,0.9-2.5,2.4-2.5c1.4,0,2.4,1,2.4,2.5V23h3.8v-9.8c0-1.5,0.9-2.5,2.4-2.5s2.4,1,2.4,2.5V23h3.8v-9.7
		C115,9.7,112.4,7.1,108.8,7.1z"/>
	<path d="M73.3,4.6c0.5-0.4,1.2-0.3,1.8-0.3l0.8-2.8l-0.4,0c-1.6-0.1-3.3-0.2-4.8,0.7c-1.2,0.8-1.7,2.2-1.7,3.6v1.7
		h-4.7V6.1c0-0.5,0.1-1.1,0.5-1.5c0.5-0.4,1.2-0.3,1.8-0.3l0.8-2.8l-0.4,0c-1.6-0.1-3.4-0.2-4.8,0.8c-1.2,0.8-1.7,2.2-1.7,3.6v1.7
		h-1.8v2.8h1.8V23h3.9V10.3h4.7V23h3.9V10.3h2.7V7.5h-2.7V6.1C72.8,5.5,72.8,4.9,73.3,4.6z"/>
	<path d="M54.6,7.1c-0.7,0-1.5,0.2-2,0.8L40.6,23h2.9c1.2,0,2.1-0.6,2.8-1.5l6.6-8.4V23h3.6l0-13.7
		C56.6,8.2,55.7,7.2,54.6,7.1z"/>
</g>
</svg>
