<?xml version="1.0" encoding="utf-8"?>
<!DOCTYPE svg PUBLIC "-//W3C//DTD SVG 1.1//EN" "http://www.w3.org/Graphics/SVG/1.1/DTD/svg11.dtd">
<svg version="1.1" id="affirm" xmlns="http://www.w3.org/2000/svg" xmlns:xlink="http://www.w3.org/1999/xlink" x="0px" y="0px"
   viewBox="0 0 576 170" xml:space="preserve">
  <title>Affirm Logo</title>
  <desc>Affirm Logo</desc>
  <path d="M300.6 2C290.9 2 283 9.9 283 19.6c0 9.7 7.9 17.6 17.6 17.6 9.7 0 17.6-7.9 17.6-17.6-.1-9.7-7.9-17.6-17.6-17.6zM285.5 48.7h30V168h-30zM405.7 45.6c-15 0-32.2 10.8-37.9 24.3V48.7h-28.5V168h30v-55.4c0-23.5 9-36.5 28.6-36.9l16.7-29.4c-1.7-.4-7.4-.7-8.9-.7zM526.2 45.7c-12.9 0-24.4 4.8-32.5 13.6l-.4.5-.4-.5c-8-8.8-19.5-13.6-32.4-13.6-27.6 0-47.6 20.1-47.6 47.8V168h29.5V92.8c0-11.6 7.1-19.1 18.1-19.1 11 0 18.1 7.5 18.1 19.1V168h29.5V92.8c0-11.6 7.1-19.1 18.1-19.1s18.1 7.5 18.1 19.1V168h29.5V93.5c0-27.7-20-47.8-47.6-47.8zM249.2 37.7c0-3.9.5-8.7 3.9-11.2 3.7-2.9 9.1-2.3 13.5-2.1l5.8-21.7-3.1-.2c-12.5-.7-25.7-1.6-36.7 5.7-9.3 6.2-13.5 16.7-13.5 27.6v13h-35.8v-11c0-3.9.5-8.6 3.8-11.2 3.7-2.9 9.2-2.4 13.5-2.2l5.8-21.7-3.1-.2c-12.6-.7-25.9-1.6-36.9 5.9-9.1 6.2-13.2 16.7-13.2 27.4v13h-13.5v21.7h13.5V168h30V70.4H219V168h30V70.4h20.8V48.7h-20.7v-11zM124.6 168V62.6c-.1-8.8-6.8-16-15.3-17-5.7-.4-11.8 1.7-15.4 6.4L2.2 168h22.6c9 0 16.2-4.7 21.6-11.7l50.8-64.2V168h27.4z" />
</svg>
