<?xml version="1.0" encoding="utf-8"?>
<!-- Generator: Adobe Illustrator 19.2.1, SVG Export Plug-In . SVG Version: 6.00 Build 0)  -->
<svg version="1.1" id="Layer_1" xmlns="http://www.w3.org/2000/svg" xmlns:xlink="http://www.w3.org/1999/xlink" x="0px" y="0px"
	 viewBox="0 0 576 170" style="enable-background:new 0 0 576 170;" xml:space="preserve">
<title>Affirm Logo</title>
<desc>Affirm Logo</desc>
<g>
	<path d="M300.6,2C290.9,2,283,9.9,283,19.6c0,9.7,7.9,17.6,17.6,17.6c9.7,0,17.6-7.9,17.6-17.6C318.1,9.9,310.3,2,300.6,2z"/>
	<rect x="285.5" y="48.7" width="30" height="119.3"/>
	<path d="M405.7,45.6c-15,0-32.2,10.8-37.9,24.3V48.7h-28.5V168h30v-55.4c0-23.5,9-36.5,28.6-36.9l16.7-29.4
		C412.9,45.9,407.2,45.6,405.7,45.6z"/>
	<path d="M526.2,45.7c-12.9,0-24.4,4.8-32.5,13.6l-0.4,0.5l-0.4-0.5c-8-8.8-19.5-13.6-32.4-13.6c-27.6,0-47.6,20.1-47.6,47.8V168
		h29.5V92.8c0-11.6,7.1-19.1,18.1-19.1c11,0,18.1,7.5,18.1,19.1V168h29.5V92.8c0-11.6,7.1-19.1,18.1-19.1s18.1,7.5,18.1,19.1V168
		h29.5V93.5C573.8,65.8,553.8,45.7,526.2,45.7z"/>
	<path d="M249.2,37.7c0-3.9,0.5-8.7,3.9-11.2c3.7-2.9,9.1-2.3,13.5-2.1l5.8-21.7l-3.1-0.2c-12.5-0.7-25.7-1.6-36.7,5.7
		c-9.3,6.2-13.5,16.7-13.5,27.6v13h-35.8v-11c0-3.9,0.5-8.6,3.8-11.2c3.7-2.9,9.2-2.4,13.5-2.2l5.8-21.7l-3.1-0.2
		c-12.6-0.7-25.9-1.6-36.9,5.9c-9.1,6.2-13.2,16.7-13.2,27.4v13h-13.5v21.7h13.5V168h30V70.4h35.8V168h30V70.4h20.8V48.7h-20.7V37.7
		z"/>
	<path d="M124.6,168l0-105.4c-0.1-8.8-6.8-16-15.3-17c-5.7-0.4-11.8,1.7-15.4,6.4L2.2,168h22.6c9,0,16.2-4.7,21.6-11.7l50.8-64.2
		V168H124.6z"/>
</g>
</svg>
