<svg xmlns="http://www.w3.org/2000/svg" viewBox="0 0 64 44.9"><title>Amex Card</title><desc>Amex Card</desc><path d="M45.5 24.7V22l-.7.3-.3-.8 1.6-.6h.3v3.8h-.9zM47.6 24.7v-.5c.5-.4.9-.8 1.2-1.1.3-.3.4-.6.4-.8 0-.3-.2-.5-.6-.5-.2 0-.4.1-.7.2l-.3-.7c.4-.2.7-.4 1.1-.4.8 0 1.3.5 1.3 1.2 0 .3-.1.7-.4 1-.2.2-.4.5-.8.7h1.3v.8l-2.5.1zM52.5 22.5c.8.1 1.1.5 1.1 1 0 .6-.6 1.3-1.5 1.3-.4 0-.8-.1-1.1-.2l.2-.8c.3.1.5.1.8.1s.6-.1.6-.4c0-.2-.2-.4-.6-.4-.2 0-.3 0-.5.1l-.2-.4 1-1h-1.2V21h2.4v.6l-1 .9zM55.9 22.4l-.6.8h.6v-.8zm.9 1.5v.8h-.9v-.8h-1.6v-.6l1.9-2.4h.6v2.3h.5v.7h-.5zM32.1 11.1c-5.2 0-9.4 5.1-9.4 11.4s4.2 11.4 9.4 11.4c5.1 0 9.4-5.1 9.4-11.4s-4.3-11.4-9.4-11.4z"/><path d="M7.7 2.5c-2.9 0-5.2 2.3-5.2 5.2v29.5c0 2.9 2.3 5.2 5.2 5.2h48.6c2.9 0 5.2-2.3 5.2-5.2V7.7c0-2.9-2.3-5.2-5.2-5.2H7.7zm48.6 42.4H7.7c-4.2 0-7.7-3.4-7.7-7.7V7.7C0 3.5 3.4 0 7.7 0h48.6C60.5 0 64 3.4 64 7.7v29.5c0 4.3-3.4 7.8-7.7 7.7z"/></svg>