<?xml version="1.0" encoding="utf-8"?>
<!-- Generator: Adobe Illustrator 18.0.0, SVG Export Plug-In . SVG Version: 6.00 Build 0)  -->
<svg version="1.1" id="Layer_1" xmlns="http://www.w3.org/2000/svg" xmlns:xlink="http://www.w3.org/1999/xlink" x="0px" y="0px"
	 viewBox="0 0 29.1 33.3" enable-background="new 0 0 29.1 33.3" xml:space="preserve">
<title>Anchor</title>
<desc>Boat anchor</desc>

<path d="M29.1,21.8c0-0.1-0.1-0.3-0.1-0.4c-0.1-0.1-0.2-0.2-0.3-0.3C28.5,21,28.3,21,28.2,21c-0.1,0-0.3,0-0.4,0
	c-0.1,0-0.2,0.1-0.3,0.1l-5.4,2.8c-0.1,0-0.2,0.1-0.2,0.2c-0.1,0.1-0.2,0.2-0.2,0.3c-0.1,0.1-0.1,0.3-0.1,0.4c0,0,0,0,0,0.1
	c0,0.1,0,0.3,0.1,0.4c0,0.1,0.1,0.2,0.2,0.3c0.1,0.1,0.2,0.1,0.2,0.2l1.6,1c-2,2.5-4.8,4-7.9,4.3V13h9.4c0.6,0,1.1-0.5,1.1-1.1
	c0-0.6-0.5-1.1-1.1-1.1h-9.4V8.4c1.8-0.5,3.2-2.1,3.2-4.1c0-2.3-1.9-4.2-4.2-4.2c-2.3,0-4.2,1.9-4.2,4.2c0,2,1.3,3.6,3.2,4.1v2.5H4
	c-0.6,0-1.1,0.5-1.1,1.1C2.9,12.5,3.4,13,4,13h9.4v18.1c-3.3-0.3-6.2-2-8.2-4.6l1.8-1.2c0.1-0.1,0.2-0.1,0.2-0.2
	c0.1-0.1,0.2-0.2,0.2-0.3c0.1-0.1,0.1-0.3,0.1-0.4c0,0,0,0,0-0.1c0-0.2,0-0.3-0.1-0.4c-0.1-0.1-0.1-0.2-0.2-0.3
	c-0.1-0.1-0.2-0.1-0.3-0.2l-5.4-2.8c-0.1,0-0.2-0.1-0.3-0.1c-0.1,0-0.3,0-0.4,0c-0.2,0-0.3,0.1-0.4,0.2c-0.1,0.1-0.2,0.2-0.3,0.3
	c-0.1,0.1-0.1,0.2-0.2,0.4c0,0.1,0,0.2,0,0.2c0,0,0,0.1,0,0.1l0.3,6.1c0,0.1,0,0.2,0.1,0.3c0,0.1,0.1,0.2,0.2,0.4
	c0.1,0.1,0.2,0.2,0.4,0.3c0.1,0.1,0.3,0.1,0.4,0.1c0,0,0,0,0.1,0c0.1,0,0.2,0,0.3-0.1c0.1,0,0.2-0.1,0.3-0.1l1.4-0.9
	c2.6,3.6,6.7,5.7,11.1,5.7c4.3,0,8.3-2,10.9-5.4l1.7,1.1c0.1,0.1,0.2,0.1,0.3,0.1c0.1,0,0.2,0.1,0.3,0.1c0,0,0,0,0.1,0
	c0.2,0,0.3,0,0.4-0.1c0.1-0.1,0.3-0.2,0.4-0.3c0.1-0.1,0.1-0.2,0.2-0.3c0-0.1,0.1-0.2,0.1-0.3l0.3-6.1c0,0,0-0.1,0-0.1
	C29.1,22,29.1,21.9,29.1,21.8z M12.5,4.2c0-1.1,0.9-2.1,2.1-2.1c1.1,0,2.1,0.9,2.1,2.1s-0.9,2.1-2.1,2.1C13.4,6.3,12.5,5.4,12.5,4.2
	z M2.3,23.4l2.1,1l-1.9,1.3L2.3,23.4z M26.7,26.2l-1.9-1.3l2.1-1L26.7,26.2z"/>
</svg>
