<?xml version="1.0" encoding="utf-8"?>
<!-- Generator: Adobe Illustrator 19.2.1, SVG Export Plug-In . SVG Version: 6.00 Build 0)  -->
<svg version="1.1" id="Layer_1" xmlns="http://www.w3.org/2000/svg" xmlns:xlink="http://www.w3.org/1999/xlink" x="0px" y="0px"
	 viewBox="0 0 16 16" enable-background="new 0 0 16 16" xml:space="preserve">
   <title>Arrow</title>
   <desc>Arrow inside a circle</desc>
<g>
	<path d="M8,0C3.6,0,0,3.6,0,8c0,4.5,3.5,7.9,8,7.9c4.5,0,8-3.5,8-7.9C16,3.6,12.4,0,8,0z M8,15.1C4,15.1,0.8,12,0.8,8
		c0-3.9,3.2-7.2,7.2-7.2s7.2,3.2,7.2,7.2C15.2,12,12,15.1,8,15.1z"/>
	<path d="M7.1,5.1C6.9,4.9,6.6,4.9,6.4,5c-0.2,0.2-0.2,0.5,0,0.7l2.3,2.3l-2.3,2.3c-0.2,0.2-0.2,0.5,0,0.7c0.1,0.1,0.2,0.1,0.4,0.1
		s0.3,0,0.4-0.1l2.6-2.6c0.2-0.2,0.2-0.5,0-0.7L7.1,5.1z"/>
</g>
</svg>
