<svg id="Layer_1" xmlns="http://www.w3.org/2000/svg" xmlns:xlink="http://www.w3.org/1999/xlink" viewBox="0 0 42 42"><title>Circular Arrow CTA</title><desc>Circle arrow typically used to auto-scroll the window below the fold.</desc><style>.st0{clip-path:url(#SVGID_2_);} .st1{clip-path:url(#SVGID_4_);fill:#FFFFFF;} .st2{clip-path:url(#SVGID_6_);fill:none;stroke:#D9D9D8;stroke-miterlimit:10;} .st3{clip-path:url(#SVGID_6_);fill:none;stroke:#CBCBCB;stroke-width:2;stroke-linecap:round;stroke-miterlimit:10;} .st4{fill:#FFFFFF;stroke:#DAD9D9;stroke-width:1.2942;stroke-miterlimit:10;} .st5{clip-path:url(#SVGID_8_);fill:none;stroke:#D9D9D8;stroke-miterlimit:10;} .st6{clip-path:url(#SVGID_8_);fill:none;stroke:#CBCBCB;stroke-width:2;stroke-linecap:round;stroke-miterlimit:10;} .st7{fill:none;stroke:#CBCBCB;stroke-width:2;stroke-linecap:round;stroke-linejoin:round;stroke-miterlimit:10;} .st8{fill:#FFFFFF;} .st9{fill:#DAD9D9;} .st10{clip-path:url(#SVGID_10_);fill:none;stroke:#D9D9D8;stroke-miterlimit:10;} .st11{clip-path:url(#SVGID_10_);fill:none;stroke:#CBCBCB;stroke-width:2;stroke-linecap:round;stroke-miterlimit:10;} .st12{fill:#CBCBCB;}</style><defs><circle id="SVGID_1_" cx="27.9" cy="290" r="21"/></defs><clipPath id="SVGID_2_"><use xlink:href="#SVGID_1_" overflow="visible"/></clipPath><g class="st0"><defs><path id="SVGID_3_" d="M-612.1-453h1280v946h-1280z"/></defs><clipPath id="SVGID_4_"><use xlink:href="#SVGID_3_" overflow="visible"/></clipPath></g><defs><path id="SVGID_5_" d="M-612.1-453h1280v946h-1280z"/></defs><clipPath id="SVGID_6_"><use xlink:href="#SVGID_5_" overflow="visible"/></clipPath><defs><path id="SVGID_7_" d="M-732.4-453h1280v946h-1280z"/></defs><clipPath id="SVGID_8_"><use xlink:href="#SVGID_7_" overflow="visible"/></clipPath><ellipse class="st8" cx="21" cy="21" rx="20.3" ry="20.3"/><path class="st9" d="M21 42C9.4 42 0 32.6 0 21S9.4 0 21 0s21 9.4 21 21-9.4 21-21 21zm0-40.7C10.1 1.3 1.3 10.1 1.3 21S10.1 40.7 21 40.7c10.9 0 19.7-8.8 19.7-19.7S31.9 1.3 21 1.3z"/><defs><path id="SVGID_9_" d="M-617-453H663v946H-617z"/></defs><clipPath id="SVGID_10_"><use xlink:href="#SVGID_9_" overflow="visible"/></clipPath><path class="st12" d="M21 27c-.3 0-.5-.1-.7-.3L13 19.5c-.4-.4-.4-1 0-1.4s1-.4 1.4 0l6.5 6.5 6.5-6.5c.4-.4 1-.4 1.4 0s.4 1 0 1.4l-7.2 7.2c-.1.2-.3.3-.6.3z"/></svg>
