<svg id="Layer_1" data-name="Layer 1" xmlns="http://www.w3.org/2000/svg" viewBox="0 0 40 40"><title>Arrow Circle Down</title><desc>Arrow Circle Down</desc><path d="M19.94,34.822A14.544,14.544,0,1,1,34.484,20.278,14.56,14.56,0,0,1,19.94,34.822Zm0-28A13.456,13.456,0,1,0,33.4,20.278,13.471,13.471,0,0,0,19.94,6.822Z"/><path d="M19.927,24.861a0.54,0.54,0,0,1-.386-0.16L13.7,18.835a0.544,0.544,0,1,1,.771-0.768l5.461,5.479,5.484-5.46a0.544,0.544,0,0,1,.768.771L20.311,24.7A0.544,0.544,0,0,1,19.927,24.861Z"/></svg>
