<?xml version="1.0" encoding="UTF-8"?>
<svg width="35px" height="32px" viewBox="0 0 35 32" version="1.1" xmlns="http://www.w3.org/2000/svg" xmlns:xlink="http://www.w3.org/1999/xlink">
    <!-- Generator: Sketch 45.2 (43514) - http://www.bohemiancoding.com/sketch -->
    <title>Automatic Card Payments</title>
    <desc>Automatic Card Payments icon for PayBright callout</desc>
    <defs>
        <path d="M6.24915825,12.4160907 C4.67042353,12.4160907 3.09168882,11.8076201 1.89119263,10.6071239 C-0.509799752,8.20613149 -0.509799752,4.29218501 1.89119263,1.89119263 C4.29218501,-0.509799752 8.20613149,-0.509799752 10.6071239,1.89119263 C13.0081163,4.29218501 13.0081163,8.20613149 10.6071239,10.6071239 C9.40662768,11.8076201 7.82789296,12.4160907 6.24915825,12.4160907 Z" id="path-1"></path>
    </defs>
    <g id="Page-1" stroke="none" stroke-width="1" fill="none" fill-rule="evenodd">
        <g id="Financing-exapnded" transform="translate(-247.000000, -544.000000)">
            <g id="Group-2" transform="translate(248.000000, 546.000000)">
                <g id="noun_649713_cc-(1)" transform="translate(0.000000, 5.485714)" stroke="#FFFFFF" stroke-width="2" stroke-linecap="round" stroke-linejoin="round">
                    <path d="M32,18.2857143 C32,20.8 29.9428571,22.8571429 27.4276571,22.8571429 L4.57188571,22.8571429 C2.05805714,22.8571429 0,20.8 0,18.2857143 L0,4.57142857 C0,2.0576 2.05805714,0 4.57188571,0 L27.4276571,0 C29.9428571,0 32,2.0576 32,4.57142857 L32,18.2857143 Z" id="Shape"></path>
                    <rect id="Rectangle-path" x="0" y="4.57142857" width="32" height="4.57188571"></rect>
                    <path d="M4.57188571,13.7133714 L9.14377143,13.7133714 L4.57188571,13.7133714 Z" id="Shape"></path>
                    <path d="M4.57188571,16.5705143 L16.0004571,16.5705143 L4.57188571,16.5705143 Z" id="Shape"></path>
                    <path d="M4.57188571,19.4267429 L13.7142857,19.4267429 L4.57188571,19.4267429 Z" id="Shape"></path>
                    <rect id="Rectangle-path" x="22.8580571" y="13.7133714" width="4.5696" height="4.57234286"></rect>
                </g>
                <g id="noun_1014400_cc" transform="translate(19.200000, 0.000000)" fill-rule="nonzero">
                    <g id="Group">
                        <g id="Shape">
                            <use stroke="#FFFFFF" stroke-width="1" fill="#FFFFFF" fill-rule="evenodd" xlink:href="#path-1"></use>
                            <path stroke="#616161" stroke-width="2" d="M6.24915825,13.4160907 C4.36510159,13.4160907 2.54465675,12.6748016 1.18408585,11.3142307 C-1.60743082,8.52271398 -1.60743082,3.97560252 1.18408585,1.18408585 C3.97560252,-1.60743082 8.52271398,-1.60743082 11.3142307,1.18408585 C14.1057473,3.97560252 14.1057473,8.52271398 11.3142307,11.3142307 C9.95365974,12.6748016 8.1332149,13.4160907 6.24915825,13.4160907 Z"></path>
                        </g>
                        <path d="M4.19351409,9.94722393 C4.2592947,9.94722393 4.32507531,9.91433362 4.37441077,9.86499816 L6.5122807,7.54623155 C6.56161616,7.49689609 6.57806131,7.44756063 6.57806131,7.38178001 L6.57806131,4.27364604 C6.57806131,4.14208482 6.46294524,4.02696874 6.33138402,4.02696874 C6.19982279,4.02696874 6.08470672,4.14208482 6.08470672,4.27364604 L6.08470672,7.28310909 L4.0126174,9.53609509 C3.91394648,9.63476601 3.93039164,9.79921755 4.02906256,9.88144331 C4.06195286,9.93077877 4.12773348,9.94722393 4.19351409,9.94722393 Z" id="Shape" stroke="#616161" fill="#616161"></path>
                    </g>
                </g>
            </g>
        </g>
    </g>
</svg>
