<?xml version="1.0" encoding="utf-8"?>
<!-- Generator: Adobe Illustrator 19.2.0, SVG Export Plug-In . SVG Version: 6.00 Build 0)  -->
<svg version="1.1" id="Layer_1" xmlns="http://www.w3.org/2000/svg" xmlns:xlink="http://www.w3.org/1999/xlink" x="0px" y="0px"
	 viewBox="0 0 90 70.6" enable-background="new 0 0 90 70.6" xml:space="preserve">
<title>Fastcompany</title>
<desc>Fastcompany Award Icon</desc>
<g>
	<path d="M44.6,35.2c0.6,0.4,1,0.7,1.5,1.1c1,0.9,1.6,1.9,1.6,3.2c0,7.2,0,14.4,0,21.6c0,0.3-0.3,0.7-0.5,0.9
		c-2.1,1.3-2.1,1.3-4.2,0.1c-3.6-2.1-7.2-4.2-10.7-6.2c-0.6-0.3-0.7-0.7-0.7-1.3c0-12.8,0-25.6,0-38.3c0-0.9,0.3-1.3,1-1.7
		c4.1-2.3,8.1-4.6,12.1-6.9c0.3-0.2,0.7-0.1,1.1,0c1.7,0.5,2.2,1.7,2.1,3.5c-0.1,6.1-0.1,12.2,0,18.3C47.7,32,47.1,34,44.6,35.2z
		 M42.3,15.2c-1.7,1-3.1,1.8-4.6,2.7c-0.6,0.3-0.9,0.7-0.9,1.5c0,10.4,0.1,20.7,0,31.1c0,1.4,0.3,2.2,1.6,2.8
		c1.3,0.6,2.5,1.4,3.9,2.2c0-0.5,0-0.8,0-1.1c0-4.8,0-9.6,0-14.3c0-1.8-0.7-3.1-2.1-4.1c-0.3-0.2-0.6-0.4-1-0.7
		c2.4-1.3,3.2-3.1,3.1-5.6c-0.1-4.4,0-8.9,0-13.3C42.3,16,42.3,15.7,42.3,15.2z"/>
	<path d="M53.1,12c2.9,1.6,5.6,3.2,8.4,4.8c2.4,1.4,4.8,2.7,7.2,4.1c0.5,0.3,0.7,0.6,0.7,1.2c0,8.9,0,17.7,0,26.6
		c0,0.4-0.2,0.9-0.5,1c-5.1,3-10.2,5.9-15.3,8.8c-0.1,0-0.2,0.1-0.4,0.1C53.1,43,53.1,27.6,53.1,12z M58.5,21.4c0,9.3,0,18.5,0,27.8
		c1.7-1,3.3-1.9,4.9-2.9c0.2-0.1,0.4-0.5,0.4-0.8c0-6.8,0-13.6,0-20.5c0-0.2-0.1-0.6-0.3-0.7C61.9,23.3,60.2,22.4,58.5,21.4z"/>
	<path d="M26,18.3c0,11.4,0,22.6,0,34c-1.8-1-3.4-1.9-5.1-2.9c-0.2-0.1-0.3-0.5-0.3-0.7c0-8.9,0-17.8,0-26.8c0-0.2,0.1-0.6,0.3-0.7
		C22.6,20.2,24.2,19.3,26,18.3z"/>
</g>
</svg>
