<?xml version="1.0" encoding="utf-8"?>
<!-- Generator: Adobe Illustrator 19.2.1, SVG Export Plug-In . SVG Version: 6.00 Build 0)  -->
<svg version="1.1" id="Layer_1" xmlns="http://www.w3.org/2000/svg" xmlns:xlink="http://www.w3.org/1999/xlink" x="0px" y="0px"
	 width="100px" height="30px" viewBox="0 0 100 30" enable-background="new 0 0 100 30" xml:space="preserve">
<title>Time 25 Best Inventions</title>
<desc>Time 25 Best Inventions Award Icon</desc>
<g>
	<path fill-rule="evenodd" clip-rule="evenodd" d="M31.8,29.7c0.8,0,4.4,0.1,5,0.2V29c-0.9,0-2.3-0.2-2.8-0.3V1.2
		C34.5,1.1,36,1,36.9,1V0.2c-0.6,0.1-4.3,0.2-5,0.2c-0.8,0-4.4-0.1-5-0.2V1c0.9,0,2.3,0.2,2.8,0.3v27.5c-0.5,0.1-1.9,0.3-2.8,0.3
		v0.8C27.4,29.8,31.1,29.7,31.8,29.7L31.8,29.7z"/>
	<path fill-rule="evenodd" clip-rule="evenodd" d="M14.9,2c0.6,0,7.6,0,10,0C25,2.8,25,5.8,25,5.8h0.4V0.2c-0.6,0.1-12,0.2-12.7,0.2
		C12,0.3,0.6,0.2,0,0.2v5.7h0.4c0,0,0-3.1,0.1-3.8c2.4,0,9.4,0,10,0v26.7C10,28.9,8.6,29,7.7,29v0.8c0.7-0.1,4.3-0.2,5-0.2
		c0.8,0,4.4,0.1,5,0.2V29c-0.9,0-2.3-0.2-2.8-0.3V2L14.9,2z"/>
	<path fill-rule="evenodd" clip-rule="evenodd" d="M40.7,28.8c0.4-1.4,4.7-23.4,5.3-28.7h1.6c0.5,3.2,8.1,20.2,9.6,23.1
		c0.9-1.8,8-18.8,9.4-23.1h1.6c0.6,4.9,5.3,28.6,5.3,28.6c0.5,0.1,1.8,0.3,2.7,0.3v0.8c-0.7-0.1-4.3-0.2-5-0.2c-0.8,0-4.4,0.1-5,0.2
		V29c0.9,0,2.3-0.2,2.8-0.3c0,0-3-16.3-3.5-18.6c-0.5,1.4-8.7,19.7-8.7,19.7h-1.4C54.5,27.8,47,11,46.8,10c-0.7,2.7-3,15.5-3.6,18.9
		c0.4,0.1,2.1,0.2,2.8,0.2v0.8c-0.5-0.1-2.9-0.2-3.5-0.2c-0.6,0-3.8,0.1-4.3,0.2V29C38.8,29,40.3,28.9,40.7,28.8L40.7,28.8z"/>
	<path fill-rule="evenodd" clip-rule="evenodd" d="M99.6,24.2c0,0,0,3.1-0.1,3.8c-2.4,0-14.5,0-15.1,0V15.8c0.1,0,11.3-0.1,12.3,0
		c0.1,0.3,0.4,2,0.4,2.5h0.5c0-0.3-0.1-2.8-0.1-3.4c0-0.6,0.1-3.1,0.1-3.4h-0.5c-0.1,0.5-0.3,2.2-0.4,2.5c-1,0.1-12.2,0-12.3,0V2
		C85,2,96.7,2,99,2c0.1,0.7,0.1,3.8,0.1,3.8h0.4V0.2c-0.6,0.1-14.3,0.2-15,0.2c-0.8,0-6.7-0.1-7.3-0.2V1C78,1,79.5,1.1,80,1.2v27.5
		C79.5,28.9,78,29,77.2,29v0.8c0.6-0.1,6.6-0.2,7.3-0.2c0.8,0,14.8,0.1,15.5,0.2v-5.7H99.6z"/>
</g>
</svg>
