<?xml version="1.0" encoding="utf-8"?>
<!-- Generator: Adobe Illustrator 19.2.1, SVG Export Plug-In . SVG Version: 6.00 Build 0)  -->
<svg version="1.1" id="Layer_1" xmlns="http://www.w3.org/2000/svg" xmlns:xlink="http://www.w3.org/1999/xlink" x="0px" y="0px"
	 width="100px" height="59.3px" viewBox="0 0 100 59.3" enable-background="new 0 0 100 59.3" xml:space="preserve">
<title>Innovation By Design</title>
<desc>Fast Company Innovation By Design Award Icon</desc>
<g>
	<path d="M49.4,29.6c0.6,0.5,1.1,0.8,1.5,1.2c1,0.9,1.7,2,1.7,3.4c0,7.7,0,15.3,0,23c0,0.3-0.3,0.8-0.6,1c-2.2,1.4-2.2,1.4-4.5,0.1
		c-3.8-2.2-7.6-4.4-11.4-6.6c-0.6-0.3-0.8-0.7-0.8-1.4c0-13.6,0-27.2,0-40.8c0-0.9,0.3-1.4,1.1-1.8c4.3-2.4,8.6-4.9,12.9-7.4
		c0.3-0.2,0.8-0.1,1.1,0c1.8,0.6,2.3,1.8,2.3,3.7c-0.1,6.5-0.1,13,0,19.5C52.7,26.2,52,28.3,49.4,29.6z M46.8,8.3
		c-1.8,1-3.3,2-4.9,2.8c-0.7,0.4-1,0.8-0.9,1.6c0,11,0.1,22.1,0,33.1c0,1.5,0.3,2.3,1.7,3c1.4,0.6,2.7,1.5,4.1,2.4
		c0-0.5,0-0.9,0-1.2c0-5.1,0-10.2,0-15.3c0-1.9-0.8-3.3-2.3-4.3c-0.3-0.2-0.6-0.4-1-0.7c2.5-1.3,3.4-3.3,3.3-6
		c-0.2-4.7,0-9.5,0-14.2C46.8,9.1,46.8,8.8,46.8,8.3z"/>
	<path d="M58.4,4.8c3,1.7,6,3.4,8.9,5.1c2.5,1.4,5.1,2.9,7.6,4.3c0.5,0.3,0.7,0.6,0.7,1.2c0,9.4,0,18.9,0,28.3
		c0,0.4-0.2,0.9-0.5,1.1c-5.4,3.2-10.9,6.3-16.3,9.4c-0.1,0-0.2,0.1-0.4,0.1C58.4,37.9,58.4,21.4,58.4,4.8z M64.1,14.9
		c0,9.9,0,19.7,0,29.6c1.8-1.1,3.5-2,5.2-3c0.2-0.1,0.4-0.6,0.4-0.9c0-7.3,0-14.5,0-21.8c0-0.3-0.1-0.6-0.3-0.7
		C67.7,16.9,66,15.9,64.1,14.9z"/>
	<path d="M29.5,11.6c0,12.1,0,24.1,0,36.2c-1.9-1.1-3.6-2.1-5.4-3.1c-0.2-0.1-0.3-0.5-0.3-0.8c0-9.5,0-19,0-28.5
		c0-0.3,0.1-0.7,0.3-0.8C25.9,13.6,27.7,12.7,29.5,11.6z"/>
</g>
</svg>
