<svg xmlns="http://www.w3.org/2000/svg" width="140" height="62" viewBox="0 0 140 62"><title>Independent</title><desc>Indybest Award Icon</desc><g><path d="M69.8.8C54.4.6 41.7 12.9 41.7 28.5c0 15 12.1 27.5 27.1 27.7 15.6.2 27.9-12.3 28.3-27.1C97.7 13.9 85.2 1 69.8.8zm19.1 10.7c-.6.8-1.2 1.8-2.1 2.7-1.8 2.1-2.9 4.7-3.7 7.4-.2.8-.6 1.2-1.4 1.4-1.4.6-2.7 1-3.9 1.8-.6.4-1.4.4-2.3.4 1.6-.2 2.9.2 4.3.8.6.2 1 .6 1.2 1.4 0 .4.4.6.8 1 .6.8.4 1.4-.6 1.8-.2-.8-.2-.8-.8-1 .2.2.2.6.4 1-1-.2-2.1-.2-2.9-.4v.2c.2 0 .4.2.8.4-1.4 1.6-2.7 3.1-3.9 4.7.2-.2.4-.2.8-.6-.6 2.3-.2 3.7 1.8 4.5 0 0 0-.2-.2-.4 0 0 0-.2.2-.2.4.2.6.4 1 .6 0-.2-.2-.4-.2-.6 1.4-.2 2.7-.6 4.1-.8.6-.2 3.7 1.6 4.1 2.3.2.8-.2 1.4-1 1.4-1.6.2-2.9.4-4.1.4-.8 0-1.4.2-2.5.2.2-.2.2-.4.4-.6-1.8.8-3.7 1.6-5.5 2.7v-.2c.2-.2.4-.4.4-.6-.2.2-.4.2-.6.4-1.8 1-3.5 2.1-5.3 2.9-.6.2-1.2.2-1.8.2-1-.2-2.1-.6-3.1-1-.2-.2-.6-.6-.6-.8 0-.2.4-.6.6-.8.8-.4 1.8-.6 2.7 0 .4.2.6.4 1 .4-1.2-.6-2.5-1.4-3.7-2.3 2.3-.6 4.5-1.2 6.6-1.8-.6-.8-1.4-1.6-2.1-2.3.2.4-.4.8-1.2 1v-1.4c0 .4 0 1.2-.2 1.4-.2.4-.8.4-1.4.6 0-.6.2-1.2.2-1.8 0 .2-.2.4-.2.8-.8 1.2-.8 1.2-2.3 1 0-.4.2-.6.2-.8s.2-.6.2-1c-.2.4-.4.6-.6 1-.2 1-1 1.2-2.1 1 .4-.6.6-1.4 1-2.1h-.2c-.2.4-.6.8-.8 1.2-.4.8-1.2 1.2-2.3 1 .6-.8 1.2-1.6 1.6-2.5-1 1.2-2.3 2.7-3.3 3.9h-.2c0-.2 0-.4.2-.4 1.2-2.1 2.3-3.7 3.5-5.5.2-.2.4-.4.8-.6 1.8-.8 3.7-1.4 5.5-2.1.2-.2.6-.2.8-.6-.4.2-.8.4-1.2.4s-.6-.4-1.2-.6c-.2 0-.6.2-1 .6-.2-.4-.4-.6-.4-1 .4-.4 1-.8 1.4-1.2-.8.6-1.8 1-2.7 1.6-.8-.6-.8-.8 0-1.4.4-.4 1-.6 1.4-1-1 .6-2.1 1.2-3.3 1.6-.4-.6-.2-1 .4-1.4.8-.4 1.4-.8 2.1-1.4-1.2.6-2.5 1.2-3.7 1.8-.4-.8-.4-1.2.4-1.4.8-.4 1.6-.8 2.3-1.4-1.2.6-2.7 1-3.9 1.6-.4-.8-.2-1.2.6-1.4.8-.2 1.4-.6 2.1-1-1.2.4-2.5.6-3.7 1-.2-1-.2-1.2.8-1.4.6-.2 1-.2 1.6-.4-1.2.2-2.3.2-3.5.4 0-.8.2-1 1-1.2.6 0 1-.2 1.6-.2h-3.7V24h2.3v-.2c-1.8-.2-3.7-.2-5.3-.4v-.2c.2-.2.6-.2 1-.4-1-.4-1.8-.8-2.9-1.2v-.2c.2 0 .6 0 1-.2-1.2-.4-2.1-.8-3.1-1.4h2.1c-.8-.6-1.4-1.2-2.3-2.1h.8c-.4-1-.8-1.8-1.4-3.1 1 .8 2.1 1.6 3.1 2.3l.2-.2c-1-1-1.6-2.5-1.6-3.9 1 1 2.1 2.1 2.9 3.1l.2-.2c-1-1.4-1.4-3.1-1.4-4.9.8 1.8 2.1 3.3 3.9 4.3-1.4-1.8-2.3-3.9-2.1-6.4.2.4.4.6.4 1 .4 1.6 1.4 2.7 2.7 3.9 1.8 1.8 4.1 2.9 6.4 4.1.4.2 1 .6 1.2 1 1.6 2.1 3.1 4.3 4.7 6.4.6.6 1 1.4 1.6 2.1.2 0 .2-.2.4-.2-.2-.2-.2-.4-.4-.6l1.8-.6h-1.4v-.2c.6-.2 1.2-.2 1.8-.4V25c-.8 0-1.6-.2-2.5-.2v-.2c1.6-.2 3.5-.4 5.1-.6-.4 0-1-.2-1.6-.2h-1.6c.6-.4 2.5-.6 3.9-.4l-1.2-.6c-.4-.2-1 0-1.6-.2 1.2-.4 1.6-.4 3.5.2-.6-1-1.4-1.4-2.7-1.2v-.2c.6-.2 1.2-.4 1.8-.4s1 .6 1.6 1c-.4-1-1-1.8-2.3-2.1.6 0 1.4-.2 1.8 0 .6.2.8.8 1.4 1.4-.4-.8-.6-1.4-1-1.8-.4-.4-1-.6-1.6-1 2.1-.6 2.7 1 3.3 2.3-.4-1.4-.4-3.3-2.7-3.3 2.3-.4 3.1 1 3.7 2.7-.2-.8-.2-1.8-.6-2.5-.4-.6-1.2-1-2.1-1.6.8.2 1.6.6 2.3.8.2 0 .2.4.4.6.2.8.6 1.6.8 2.3-.2-1-.2-2.1-.6-2.9-.4-.8-1.4-1.2-2.1-2.1.8.4 1.8.8 2.5 1.4.6.6.6 1.8 1 2.7 0-2.1-.6-3.9-2.7-4.9l.2-.2c.8.6 1.8 1 2.5 1.6.6.8.6 1.8.8 2.7.4-2.3-1-3.9-2.7-5.5 0 0 .2 0 .2-.2.8.6 1.6 1.4 2.5 2.1.8.8.4 2.1.8 2.9.4-2.1-.6-3.7-2.1-5.3 1.8 1 2.7 2.5 2.9 4.7 0-.8 0-1.8-.4-2.7-.4-.8-1-1.6-1.4-2.5.8 1.2 2.3 2.1 2.3 3.7.4-1.8-.8-3.1-1.2-4.7.6 1.2 1.4 2.5 2.1 3.7-.2-1.4-.6-2.7-.8-3.9h.2c.4.8.6 1.4 1 2.5.2-1 .4-1.6.6-2.5h.2c0 .8 0 1.4-.2 2.5.6-.8 1.2-1.6 1.6-2.5h.2c-.4.6-.6 1.2-1 1.8.8-.6 1.6-1.2 2.5-1.8 1.1.7.9.9.9 1.1z"/><path d="M71.1 36.7c0 1.8.2 2.3 1.6 3.5h.2c0-.2-.2-.4-.2-.4l.2-.2c.4.2.6.2 1 .4 0-.2-.2-.2-.2-.4.4-.2.6-.2.8-.2v-.2c-1.4-.4-2.6-1.1-3.4-2.5zM55.9 19.1c-1.4-.6-3.3-.8-4.3-2.5.8 2 2.6 1.8 4.3 2.5zM55.3 20.1c-1.6-.6-3.5-.6-4.7-2.1.8 2.1 2.8 1.7 4.7 2.1zM55.7 21.3c-1.6-.4-3.5-.8-5.3-1v.2c1.8.4 3.4.6 5.3.8 0 .2 0 0 0 0zM55.9 15.6c-.4-.4-.6-.8-1-1.2.6 2.1 2.1 2.7 3.7 3.1-.4-.4-1-.6-1.4-.8-.5-.5-.9-.7-1.3-1.1zM56.5 17.8c-1-.6-2.3-1.2-3.1-1.8.4 1.4 1.9 1.4 3.1 1.8zM52.6 22.1c1.4.2 2.7.4 4.1.6v-.2c-1.4-.2-2.7-.4-4.1-.6v.2z"/></g></svg>
