<?xml version="1.0" encoding="utf-8"?>
<!-- Generator: Adobe Illustrator 19.2.0, SVG Export Plug-In . SVG Version: 6.00 Build 0)  -->
<svg version="1.1" id="Layer_1" xmlns="http://www.w3.org/2000/svg" xmlns:xlink="http://www.w3.org/1999/xlink" x="0px" y="0px"
	 viewBox="0 0 90 70.9" enable-background="new 0 0 90 70.9" xml:space="preserve">
<title>BigInnovation</title>
<desc>BigInnovation Award Icon</desc>
<g>
	<g>
		<path d="M51.41,55.89a5,5,0,0,0-.65,3.24A3,3,0,0,1,50,61.86a1.12,1.12,0,0,0-.2.63,15.24,15.24,0,0,0,0,2.46,14.06,14.06,0,0,0,0,1.8A1.77,1.77,0,0,1,48,68.67c-0.19,0-.39,0-0.58,0,0,1.35-.39,1.91-1.72,2.09a10.2,10.2,0,0,1-2.46,0,1.49,1.49,0,0,1-1.46-1.68c0-.14,0-0.27,0-0.43-0.33,0-.64-0.06-0.94-0.12a1.82,1.82,0,0,1-1.45-2.4,2.22,2.22,0,0,0,0-.72,1.86,1.86,0,0,1-.08-0.34,9.59,9.59,0,0,0,0-2.7,1,1,0,0,0-.15-0.55,2.58,2.58,0,0,1-.76-2.48,5.29,5.29,0,0,0-.72-3.52l-0.31-.57c-1-1.67-2-3.33-3-5a13.39,13.39,0,0,1-2-7.78l0.09-.59a12.55,12.55,0,0,1,5.86-8.45c7-4.44,16.81,0,18.22,8.2a2.06,2.06,0,0,0,.09.28l0,0.58c0.29,3.29-1,6.13-2.55,8.87-0.76,1.33-1.61,2.61-2.42,3.91Zm-6.8,5.22h0c1.12,0,2.25,0,3.37,0s1.21-.18,1.25-1.25a19.75,19.75,0,0,1,.16-2.53,13.14,13.14,0,0,1,2.2-4.6c1-1.57,1.9-3.18,2.7-4.84a9.33,9.33,0,0,0,.88-6A10.77,10.77,0,0,0,42,33.52C35.67,35,31.8,41.91,34.84,47.95,35.88,50,37,52,38.22,54a9.72,9.72,0,0,1,1.56,4.22c0.06,0.71.11,1.42,0.14,2.13a0.64,0.64,0,0,0,.68.72c0.29,0,.59.07,0.88,0.08h3.14Zm-3.93,3.65v0.19a3.41,3.41,0,0,0,.81.21c2,0,4,0,6,0a3.2,3.2,0,0,0,.91-0.31,3.25,3.25,0,0,0-1-.34c-1.75,0-3.5,0-5.26,0a5.66,5.66,0,0,0-1,.1A2.07,2.07,0,0,0,40.69,64.76Zm0-2.12V62.9a2.88,2.88,0,0,0,.75.22q3.22,0,6.44,0a1.28,1.28,0,0,0,.5-0.3,1.21,1.21,0,0,0-.47-0.29q-3.25-.07-6.5-0.09A2.69,2.69,0,0,0,40.7,62.64Zm0,4.06V67a8.35,8.35,0,0,0,1.33.23c1.62,0,3.23,0,4.85,0A7.26,7.26,0,0,0,48.11,67a0.76,0.76,0,0,0,.26-0.25,1.69,1.69,0,0,0-.29-0.24,0.67,0.67,0,0,0-.29,0c-2,0-4,0-6,0A5.34,5.34,0,0,0,40.71,66.7Zm3.91,1.88h0a7.24,7.24,0,0,0-1.06,0,0.52,0.52,0,0,0-.35.36,0.49,0.49,0,0,0,.3.37,18.23,18.23,0,0,0,2,0,0.57,0.57,0,0,0,.29-0.43,0.51,0.51,0,0,0-.35-0.3A5.43,5.43,0,0,0,44.63,68.58Z"/><path d="M39.28,5.74L39.95,6a2.5,2.5,0,0,1,1.64,2.32A2.63,2.63,0,0,1,40.15,11a6.12,6.12,0,0,1-2.35.68c-2.3.09-4.61,0-7,0V0.24c0.78,0,1.55,0,2.31,0,1.77,0,3.56,0,5.32.12a2.65,2.65,0,0,1,2.64,3.26,3.56,3.56,0,0,1-.82,1.44A4.18,4.18,0,0,1,39.28,5.74Zm-4.72,3c0.75,0,1.5,0,2.24,0a0.82,0.82,0,1,0,0-1.63c-0.74,0-1.48,0-2.25,0V8.77Zm0-4.06c0.74,0,1.43,0,2.11,0A0.73,0.73,0,0,0,37.42,4a0.72,0.72,0,0,0-.75-0.75c-0.7,0-1.4,0-2.12,0V4.72Z"/><path d="M55.21,7.39H53.34V5h5.48a2.88,2.88,0,0,1,0,.38c0,1.48,0,3,0,4.44a0.94,0.94,0,0,1-.33.67,7.69,7.69,0,0,1-8,.74,5.71,5.71,0,0,1-3.14-6.3,6,6,0,0,1,5-4.81,7.32,7.32,0,0,1,6.08,1.63L56.43,4.21a14.16,14.16,0,0,0-2.12-.81,2.52,2.52,0,0,0-3.09,2.37,2.63,2.63,0,0,0,2.54,3h0.3C55.25,8.76,55.31,8.69,55.21,7.39Z"/><path d="M71.53,21.25L72.86,29,71,28.75,69,16.4a14.28,14.28,0,0,1,1.54,0,0.77,0.77,0,0,1,.39.44c0.84,1.75,1.66,3.51,2.62,5.24l-1-5.66h1.72l2.43,13.29c-0.58-.1-1.12-0.19-1.64-0.3a0.39,0.39,0,0,1-.25-0.27c-0.15-2.49-1.55-4.51-2.53-6.68-0.19-.42-0.41-0.83-0.62-1.25Z"/><path d="M20.73,28.48a7.46,7.46,0,0,1,.17-1.12c0.41-1.3-.1-2.53-0.29-3.78A22,22,0,0,0,20,21c-0.15.89-.31,1.78-0.46,2.67-0.25,1.53-.52,3.07-0.74,4.61a0.6,0.6,0,0,1-.63.6c-0.41,0-.82.11-1.31,0.19,0.16-1,.31-1.89.46-2.81C17.9,23.15,18.45,20,19,16.9a0.5,0.5,0,0,1,.6-0.51c1.23,0,1.23,0,1.41,1.21,0.2,1.38.42,2.76,0.63,4.14h0.16l0.85-5.31h1.71c-0.18,1.24-.36,2.46-0.54,3.68-0.38,2.53-.77,5.06-1.13,7.6a0.55,0.55,0,0,1-.61.6A12.6,12.6,0,0,0,20.73,28.48Z"/><path d="M28.88,21.41l0.61-5h1.72L30,27.4l-1.85.18a8.11,8.11,0,0,0,0-3.44c-0.38-1.09-.6-2.24-1-3.37l-0.93,7L24.3,28c0.18-1.3.35-2.55,0.52-3.79,0.34-2.42.7-4.84,1-7.26a0.53,0.53,0,0,1,.66-0.57c1.15,0,1.14,0,1.38,1.14s0.56,2.5.84,3.75A0.67,0.67,0,0,0,28.88,21.41Z"/><path d="M64.62,16.41c0.34,0,.67,0,1,0a2.11,2.11,0,0,1,2.15,2q0.66,4,1.29,8.06c0.21,1.33-.33,1.9-1.68,1.77a21,21,0,0,1-2.69-.39,2.19,2.19,0,0,1-1.77-2c-0.3-2.35-.61-4.69-0.91-7A6,6,0,0,1,62,17.85a1.31,1.31,0,0,1,1.24-1.39c0.47-.06.94-0.06,1.42-0.09v0Zm0.15,1.41c-1,0-1.14.1-1,1.12V19c0.31,2.21.63,4.41,0.91,6.62a1,1,0,0,0,1,1l0.59,0.05c0.91,0.11,1,0,.9-0.94q-0.52-3.33-1-6.67C66,17.92,65.9,17.85,64.77,17.82Z"/><path d="M46.24,11.7H42.48V0.28h3.76V11.7Z"/><path d="M33.7,27.12A5,5,0,0,1,33,27.07a1.28,1.28,0,0,1-1.16-1.51c0.22-2.42.45-4.83,0.71-7.24a1.84,1.84,0,0,1,2-1.89,18.79,18.79,0,0,1,2.37,0,1.45,1.45,0,0,1,1.48,1.69q-0.16,3.37-.37,6.74A2,2,0,0,1,35.93,27C35.24,27,34.55,27.07,33.7,27.12Zm1.15-1.34v0l0.65,0a0.64,0.64,0,0,0,.65-0.64c0.16-2.24.32-4.48,0.46-6.72a0.69,0.69,0,0,0-.2-0.5,15,15,0,0,0-1.89,0,0.59,0.59,0,0,0-.24.43c-0.21,2.27-.4,4.55-0.6,6.82a0.54,0.54,0,0,0,.59.64C34.46,25.79,34.66,25.78,34.85,25.78Z"/><path d="M52.2,26.83H50.35L50.18,23h-2v3.69h-1.8c0-.15,0-0.3,0-0.45q-0.05-3.91-.1-7.81c0-1.42.49-2,1.92-2a14.55,14.55,0,0,1,1.89,0,1.59,1.59,0,0,1,1.64,1.61c0.14,1.71.22,3.43,0.32,5.14C52.08,24.39,52.14,25.59,52.2,26.83ZM50,21.7c0-1.05,0-2.09,0-3.12a1,1,0,0,0-.39-0.8,4.3,4.3,0,0,0-1.42.07,0.55,0.55,0,0,0-.17.4c0,1.14,0,2.27,0,3.45h2Z"/><path d="M44.5,14.28H16c-0.31,0-.86.2-0.86-0.32s0.55-.32.86-0.32q28.57,0,57.14,0c0.31,0,.86-0.2.86,0.32s-0.55.32-.86,0.32H44.5Z"/><path d="M43.36,26.74H41.07L39.32,16.39a14,14,0,0,1,1.51,0,0.65,0.65,0,0,1,.29.46c0.37,2.37.73,4.74,1.2,7.12,0.19-.92.39-1.83,0.58-2.75,0.29-1.47.58-2.94,0.84-4.41a0.43,0.43,0,0,1,.53-0.46c0.4,0,.81,0,1.3,0Z"/><path d="M56,17.72l0.83,9.42L55,27,54.25,17.7H52.61L52.5,16.43h5l0.13,1.29H56Z"/><path d="M17.48,16.39l-2.31,13-1.85.34,1.33-7.31c0.34-1.84.69-3.68,1-5.52a0.48,0.48,0,0,1,.6-0.51C16.62,16.42,17,16.39,17.48,16.39Z"/><path d="M59.66,27.37L58.49,16.42h1.72l1.32,11.13Z"/><path d="M24.08,48.41c0-1.77.85-3,2.28-3.18,2.28-.35,3.77,1.09,3.58,3.48s-1.67,3.44-3.79,2.93A2.77,2.77,0,0,1,24.08,49C24.07,48.8,24.08,48.61,24.08,48.41Zm1.11,0a10.81,10.81,0,0,0,.23,1.26,1.65,1.65,0,0,0,3.14,0,4,4,0,0,0,0-2.55A1.52,1.52,0,0,0,27,46.06a1.49,1.49,0,0,0-1.58,1.07A10.2,10.2,0,0,0,25.19,48.42Z"/><path d="M20.11,50.6h3.15v1c-1.53,0-3,0-4.52,0a0.46,0.46,0,0,1-.33-0.3,0.87,0.87,0,0,1,.12-0.65c0.48-.4,1.05-0.7,1.54-1.1a10,10,0,0,0,1.4-1.34,1.35,1.35,0,0,0,.23-1.69,1.48,1.48,0,0,0-1.62-.41,2.64,2.64,0,0,0-.47.15,0.93,0.93,0,0,0,0,.22,0.59,0.59,0,0,1-.47.76A0.91,0.91,0,0,1,18.37,47a1.17,1.17,0,0,1,.12-1,3,3,0,0,1,2.43-.84,3,3,0,0,1,.47.05,1.75,1.75,0,0,1,1.51,2.54,5.93,5.93,0,0,1-1.24,1.68A11.91,11.91,0,0,1,20.11,50.6Z"/><path d="M37.32,55.31l0.31,0.57c-0.23,0-.47.05-0.7,0.05q-10.53,0-21.06,0a1.32,1.32,0,0,1-.75-0.27c0-.52.49-0.32,0.78-0.32Z"/><path d="M51.41,55.89l0.29-.59H73.07a1.76,1.76,0,0,1,.53,0,1.32,1.32,0,0,1,.37.3,2.44,2.44,0,0,1-.36.29,0.69,0.69,0,0,1-.29,0H51.88C51.73,55.93,51.57,55.9,51.41,55.89Z"/><path d="M59.17,51.57V50.7h1.32v-4.3a3,3,0,0,1-.88.3,0.93,0.93,0,0,1-.7-0.33c-0.22-.37.17-0.44,0.42-0.53a3.45,3.45,0,0,1,2.32-.45v5.3h1.14v0.88H59.17Z"/><path d="M32.47,41.91l-0.09.59q-8.37,0-16.74,0a1.49,1.49,0,0,1-.55-0.28,1.59,1.59,0,0,1,.59-0.3Q24.07,41.89,32.47,41.91Z"/><path d="M56.68,42.51l0-.58,4.79,0H73.14a1.46,1.46,0,0,1,.47,0,1.4,1.4,0,0,1,.36.29,1.49,1.49,0,0,1-.37.29,1.44,1.44,0,0,1-.47,0H56.68Z"/><path d="M47.27,49.39c-0.89-.08-1.64-0.41-2.43,0a0.85,0.85,0,0,1-.69,0,1.7,1.7,0,0,0-1.57-.05,3.91,3.91,0,0,1-.92.1C42.18,51,42.71,52.47,43.2,54a15.55,15.55,0,0,1,.43,1.89,0.5,0.5,0,0,1-.16.44A0.51,0.51,0,0,1,43,56.18a3.37,3.37,0,0,1-.57-0.94c-0.69-2-1.35-4.07-2-6.11a4.41,4.41,0,0,1-.22-1c0-.48.18-0.59,0.62-0.38a9.44,9.44,0,0,0,1.17.55c0.52,0.17.67,0,.66-0.51,0-.08,0-0.16,0-0.24a1,1,0,1,1,1.9.2,2.87,2.87,0,0,0-.1.46,0.91,0.91,0,0,0,.31.22c-0.12-.79-0.33-1.56.45-2a1,1,0,0,1,.91.12,1.38,1.38,0,0,1,.31,1.8,4.46,4.46,0,0,0,.66-0.16c0.23-.1.44-0.28,0.68-0.36a7.63,7.63,0,0,1,.95-0.19,4.19,4.19,0,0,1-.08.88C48,50.7,47.29,52.88,46.58,55A4.24,4.24,0,0,1,46,56.16a1.14,1.14,0,0,1-.52.19,1.26,1.26,0,0,1-.15-0.52c0.15-.69.31-1.38,0.52-2.06C46.27,52.34,46.76,50.91,47.27,49.39Z"/><path class="cls-1" d="M66.34,46.74a2.47,2.47,0,0,0-2,.75c0-2.32,1.24-2.87,2-2.87a1.39,1.39,0,0,1,.87.25,0.53,0.53,0,0,0,.45.85,0.61,0.61,0,0,0,.67-0.63c0-.5-0.68-1.23-2.21-1.23S63.3,45.1,63.3,47.94c0,3.32,1.95,3.76,2.76,3.76a2.44,2.44,0,0,0,2.62-2.51A2.21,2.21,0,0,0,66.34,46.74ZM66,50.88a1.76,1.76,0,0,1-1.6-1.7A1.6,1.6,0,1,1,66,50.88Z"/>
	</g>
</g>
</svg>
