<?xml version="1.0" encoding="utf-8"?>
<!-- Generator: Adobe Illustrator 19.2.0, SVG Export Plug-In . SVG Version: 6.00 Build 0)  -->
<svg version="1.1" id="Layer_1" xmlns="http://www.w3.org/2000/svg" xmlns:xlink="http://www.w3.org/1999/xlink" x="0px" y="0px"
	 viewBox="0 0 90 70.9" enable-background="new 0 0 90 70.9" xml:space="preserve">
<title>BigInnovation</title>
<desc>BigInnovation Award Icon</desc>
<g>
	<g>
		<path d="M51.4,55.9c-0.6,1-0.8,2.1-0.6,3.2c0.1,1,0,2-0.8,2.7c-0.1,0.1-0.2,0.4-0.2,0.6c-0.1,0.8-0.1,1.6,0,2.5
			c0,0.6-0.1,1.2,0,1.8c0.2,1-0.7,1.8-1.8,1.9c-0.2,0-0.4,0-0.6,0c0,1.3-0.4,1.9-1.7,2.1c-0.8,0.1-1.7,0.1-2.5,0
			c-1-0.1-1.4-0.7-1.5-1.7c0-0.1,0-0.3,0-0.4c-0.3,0-0.6-0.1-0.9-0.1c-1.2-0.2-1.8-1.2-1.4-2.4c0.1-0.2,0-0.5,0-0.7
			c0-0.1-0.1-0.2-0.1-0.3c0.1-0.9,0.1-1.8,0-2.7c0-0.2,0-0.4-0.2-0.6c-0.8-0.7-0.9-1.5-0.8-2.5c0.2-1.3-0.1-2.4-0.7-3.5
			c-0.1-0.2-0.2-0.4-0.3-0.6c-1-1.7-2-3.3-3-5c-1.3-2.4-2.2-5-2-7.8c0-0.2,0.1-0.4,0.1-0.6c0.7-3.7,2.7-6.5,5.9-8.5
			c7-4.4,16.8,0,18.2,8.2c0,0.1,0.1,0.2,0.1,0.3c0,0.2,0,0.4,0,0.6c0.3,3.3-1,6.1-2.6,8.9c-0.8,1.3-1.6,2.6-2.4,3.9
			C51.6,55.5,51.5,55.7,51.4,55.9z M44.6,61.1C44.6,61.1,44.6,61.1,44.6,61.1c1.1,0,2.2,0,3.4,0c1.1,0,1.2-0.2,1.2-1.2
			c0-0.8,0-1.7,0.2-2.5c0.3-1.7,1.3-3.1,2.2-4.6c1-1.6,1.9-3.2,2.7-4.8c0.9-1.9,1.3-3.9,0.9-6c-1.2-6.1-7.1-9.8-13.2-8.4
			C35.7,35,31.8,41.9,34.8,48c1,2.1,2.2,4.1,3.4,6c0.8,1.3,1.4,2.7,1.6,4.2c0.1,0.7,0.1,1.4,0.1,2.1c0,0.5,0.2,0.7,0.7,0.7
			c0.3,0,0.6,0.1,0.9,0.1C42.5,61.1,43.6,61.1,44.6,61.1z M40.7,64.8c0,0.1,0,0.1,0,0.2c0.3,0.1,0.5,0.2,0.8,0.2c2,0,4,0,6,0
			c0.3,0,0.6-0.2,0.9-0.3c-0.3-0.1-0.6-0.3-1-0.3c-1.8,0-3.5,0-5.3,0c-0.3,0-0.7,0-1,0.1C41,64.6,40.9,64.7,40.7,64.8z M40.7,62.6
			c0,0.1,0,0.2,0,0.3c0.3,0.1,0.5,0.2,0.8,0.2c2.1,0,4.3,0,6.4,0c0.2,0,0.3-0.2,0.5-0.3c-0.2-0.1-0.3-0.3-0.5-0.3
			c-2.2,0-4.3-0.1-6.5-0.1C41.2,62.4,40.9,62.6,40.7,62.6z M40.7,66.7c0,0.1,0,0.2,0,0.3c0.4,0.1,0.9,0.2,1.3,0.2c1.6,0,3.2,0,4.8,0
			c0.4,0,0.8-0.1,1.2-0.2c0.1,0,0.2-0.2,0.3-0.2c-0.1-0.1-0.2-0.2-0.3-0.2c-0.1,0-0.2,0-0.3,0c-2,0-4,0-6,0
			C41.4,66.5,41.1,66.6,40.7,66.7z M44.6,68.6L44.6,68.6c-0.4,0-0.7,0-1.1,0c-0.1,0-0.3,0.2-0.3,0.4c0,0.1,0.2,0.4,0.3,0.4
			c0.7,0,1.4,0,2,0c0.1,0,0.3-0.3,0.3-0.4c0-0.1-0.2-0.3-0.4-0.3C45.2,68.6,44.9,68.6,44.6,68.6z"/>
		<path d="M39.3,5.7c0.2,0.1,0.5,0.2,0.7,0.3c1,0.5,1.6,1.2,1.6,2.3c0,1.2-0.4,2.1-1.4,2.6c-0.7,0.4-1.6,0.6-2.4,0.7
			c-2.3,0.1-4.6,0-7,0c0-3.8,0-7.6,0-11.5c0.8,0,1.5,0,2.3,0c1.8,0,3.6,0,5.3,0.1c1.9,0.2,3,1.5,2.6,3.3c-0.1,0.5-0.5,1-0.8,1.4
			C40.1,5.4,39.7,5.5,39.3,5.7z M34.6,8.8c0.8,0,1.5,0,2.2,0c0.5,0,0.9-0.2,0.9-0.8c0-0.6-0.4-0.8-0.9-0.8c-0.7,0-1.5,0-2.3,0
			C34.6,7.7,34.6,8.2,34.6,8.8z M34.6,4.7c0.7,0,1.4,0,2.1,0c0.4,0,0.8-0.3,0.8-0.8c0-0.5-0.3-0.7-0.8-0.8c-0.7,0-1.4,0-2.1,0
			C34.6,3.7,34.6,4.2,34.6,4.7z"/>
		<path d="M55.2,7.4c-0.6,0-1.2,0-1.9,0c0-0.8,0-1.6,0-2.4c1.8,0,3.6,0,5.5,0c0,0.1,0,0.3,0,0.4c0,1.5,0,3,0,4.4
			c0,0.2-0.1,0.6-0.3,0.7c-2.5,1.7-5.2,2-8,0.7c-2.4-1.1-3.6-3.6-3.1-6.3c0.4-2.4,2.5-4.4,5-4.8c2.2-0.3,4.3,0.1,6.1,1.6
			c-0.7,0.9-1.4,1.7-2.1,2.5c-0.7-0.3-1.4-0.7-2.1-0.8c-1.6-0.3-2.9,0.7-3.1,2.4c-0.2,1.6,0.9,2.9,2.5,3c0.1,0,0.2,0,0.3,0
			C55.2,8.8,55.3,8.7,55.2,7.4z"/>
		<path d="M71.5,21.3c0.4,2.6,0.9,5.1,1.3,7.8c-0.6-0.1-1.2-0.2-1.9-0.3c-0.7-4.1-1.4-8.2-2-12.4c0.5,0,1,0,1.5,0
			c0.1,0,0.3,0.3,0.4,0.4c0.8,1.8,1.7,3.5,2.6,5.2c-0.3-1.9-0.7-3.7-1-5.7c0.6,0,1.1,0,1.7,0c0.8,4.4,1.6,8.8,2.4,13.3
			c-0.6-0.1-1.1-0.2-1.6-0.3c-0.1,0-0.2-0.2-0.2-0.3c-0.1-2.5-1.6-4.5-2.5-6.7c-0.2-0.4-0.4-0.8-0.6-1.2
			C71.6,21.2,71.6,21.2,71.5,21.3z"/>
		<path d="M20.7,28.5c0.1-0.4,0.1-0.8,0.2-1.1c0.4-1.3-0.1-2.5-0.3-3.8c-0.1-0.9-0.3-1.7-0.6-2.6c-0.2,0.9-0.3,1.8-0.5,2.7
			c-0.3,1.5-0.5,3.1-0.7,4.6c-0.1,0.4-0.2,0.6-0.6,0.6c-0.4,0-0.8,0.1-1.3,0.2c0.2-1,0.3-1.9,0.5-2.8c0.5-3.1,1.1-6.2,1.6-9.4
			c0.1-0.4,0.2-0.5,0.6-0.5c1.2,0,1.2,0,1.4,1.2c0.2,1.4,0.4,2.8,0.6,4.1c0.1,0,0.1,0,0.2,0c0.3-1.8,0.6-3.5,0.9-5.3
			c0.6,0,1.1,0,1.7,0c-0.2,1.2-0.4,2.5-0.5,3.7c-0.4,2.5-0.8,5.1-1.1,7.6c-0.1,0.4-0.2,0.6-0.6,0.6C21.6,28.3,21.2,28.4,20.7,28.5z"
			/>
		<path d="M28.9,21.4c0.2-1.7,0.4-3.3,0.6-5c0.6,0,1.1,0,1.7,0c-0.4,3.7-0.8,7.3-1.2,11c-0.6,0.1-1.2,0.1-1.9,0.2
			c0.1-1.2,0.4-2.3,0-3.4c-0.4-1.1-0.6-2.2-1-3.4c-0.3,2.3-0.6,4.6-0.9,7c-0.6,0.1-1.2,0.1-1.9,0.2c0.2-1.3,0.3-2.5,0.5-3.8
			c0.3-2.4,0.7-4.8,1-7.3c0.1-0.4,0.2-0.6,0.7-0.6c1.1,0,1.1,0,1.4,1.1c0.3,1.3,0.6,2.5,0.8,3.7C28.7,21.3,28.8,21.3,28.9,21.4z"/>
		<path d="M64.6,16.4c0.3,0,0.7,0,1,0c1.2,0.1,1.9,0.7,2.2,2c0.4,2.7,0.9,5.4,1.3,8.1c0.2,1.3-0.3,1.9-1.7,1.8
			c-0.9-0.1-1.8-0.2-2.7-0.4c-1-0.2-1.6-1-1.8-2c-0.3-2.3-0.6-4.7-0.9-7c0-0.3-0.1-0.6-0.1-0.9c0-0.8,0.4-1.3,1.2-1.4
			C63.7,16.4,64.1,16.4,64.6,16.4C64.6,16.4,64.6,16.4,64.6,16.4z M64.8,17.8c-1,0-1.1,0.1-1,1.1c0,0,0,0,0,0.1
			c0.3,2.2,0.6,4.4,0.9,6.6c0.1,0.6,0.4,0.9,1,1c0.2,0,0.4,0,0.6,0.1c0.9,0.1,1,0,0.9-0.9c-0.3-2.2-0.7-4.4-1-6.7
			C66,17.9,65.9,17.9,64.8,17.8z"/>
		<path d="M46.2,11.7c-1.3,0-2.5,0-3.8,0c0-3.8,0-7.6,0-11.4c1.2,0,2.5,0,3.8,0C46.2,4.1,46.2,7.9,46.2,11.7z"/>
		<path d="M33.7,27.1c-0.1,0-0.4,0-0.7-0.1c-0.8-0.2-1.2-0.7-1.2-1.5c0.2-2.4,0.5-4.8,0.7-7.2c0.1-1.3,0.7-1.8,2-1.9
			c0.8,0,1.6,0,2.4,0c1,0.1,1.5,0.7,1.5,1.7c-0.1,2.2-0.2,4.5-0.4,6.7c-0.1,1.4-0.7,2-2.1,2.1C35.2,27,34.5,27.1,33.7,27.1z
			 M34.9,25.8C34.9,25.8,34.9,25.8,34.9,25.8c0.2,0,0.4-0.1,0.6-0.1c0.4,0,0.6-0.2,0.6-0.6c0.2-2.2,0.3-4.5,0.5-6.7
			c0-0.2-0.1-0.5-0.2-0.5c-0.6,0-1.3,0-1.9,0c-0.1,0-0.2,0.3-0.2,0.4c-0.2,2.3-0.4,4.5-0.6,6.8c0,0.4,0.2,0.6,0.6,0.6
			C34.5,25.8,34.7,25.8,34.9,25.8z"/>
		<path d="M52.2,26.8c-0.6,0-1.2,0-1.9,0c-0.1-1.3-0.1-2.5-0.2-3.8c-0.7,0-1.3,0-2,0c0,1.2,0,2.4,0,3.7c-0.6,0-1.2,0-1.8,0
			c0-0.2,0-0.3,0-0.5c0-2.6-0.1-5.2-0.1-7.8c0-1.4,0.5-2,1.9-2c0.6,0,1.3,0,1.9,0c1,0.1,1.6,0.6,1.6,1.6c0.1,1.7,0.2,3.4,0.3,5.1
			C52.1,24.4,52.1,25.6,52.2,26.8z M50,21.7c0-1.1,0-2.1,0-3.1c0-0.3-0.2-0.8-0.4-0.8c-0.5-0.1-0.9,0-1.4,0.1
			c-0.1,0-0.2,0.3-0.2,0.4c0,1.1,0,2.3,0,3.4C48.8,21.7,49.4,21.7,50,21.7z"/>
		<path d="M44.5,14.3c-9.5,0-19,0-28.5,0c-0.3,0-0.9,0.2-0.9-0.3c0-0.5,0.5-0.3,0.9-0.3c19,0,38.1,0,57.1,0c0.3,0,0.9-0.2,0.9,0.3
			c0,0.5-0.5,0.3-0.9,0.3C63.6,14.3,54,14.3,44.5,14.3z"/>
		<path d="M43.4,26.7c-0.8,0-1.5,0-2.3,0c-0.6-3.4-1.2-6.8-1.8-10.3c0.5,0,1,0,1.5,0c0.1,0,0.3,0.3,0.3,0.5c0.4,2.4,0.7,4.7,1.2,7.1
			c0.2-0.9,0.4-1.8,0.6-2.8c0.3-1.5,0.6-2.9,0.8-4.4c0.1-0.3,0.2-0.5,0.5-0.5c0.4,0,0.8,0,1.3,0C44.8,19.9,44.1,23.3,43.4,26.7z"/>
		<path d="M56,17.7c0.3,3.2,0.5,6.3,0.8,9.4c-0.6,0-1.2-0.1-1.9-0.1c-0.2-3.1-0.5-6.2-0.7-9.3c-0.5,0-1.1,0-1.6,0
			c0-0.4-0.1-0.8-0.1-1.3c1.7,0,3.3,0,5,0c0,0.4,0.1,0.8,0.1,1.3C57.1,17.7,56.6,17.7,56,17.7z"/>
		<path d="M17.5,16.4c-0.8,4.4-1.5,8.7-2.3,13c-0.6,0.1-1.2,0.2-1.8,0.3c0.5-2.5,0.9-4.9,1.3-7.3c0.3-1.8,0.7-3.7,1-5.5
			c0.1-0.4,0.2-0.5,0.6-0.5C16.6,16.4,17,16.4,17.5,16.4z"/>
		<path d="M64.7,48.5c0.7-0.1,1.4-0.3,2.1-0.2c1.3,0.1,2.1,1.1,2.2,2.4c0.1,1.2-0.6,2.3-1.8,2.7C66,53.6,65,53.5,64,52.9
			c-0.3-0.2-0.6-0.4-0.7-0.7c-0.1-0.2,0-0.7,0.1-0.8c0.1-0.2,0.6-0.2,0.8-0.1c0.2,0.1,0.3,0.5,0.4,0.7c0,0.1,0,0.1,0,0.2
			c0.8,0.5,1.8,0.5,2.5,0c0.5-0.4,0.8-1.1,0.6-1.9c-0.3-1.2-1.9-1.6-3-0.7c-0.5,0.4-0.8,0.4-1.2,0.1c0.2-1.4,0.4-2.8,0.6-4.3
			c1.4,0,2.7,0,4.1,0c0.1,0,0.3,0.2,0.3,0.2c0,0.2-0.1,0.5-0.2,0.6c-0.2,0.1-0.6,0.2-0.8,0.2c-0.8,0-1.7-0.1-2.5-0.1
			C64.9,47,64.8,47.8,64.7,48.5z"/>
		<path d="M59.7,27.4c-0.4-3.7-0.8-7.3-1.2-11c0.6,0,1.1,0,1.7,0c0.4,3.7,0.9,7.4,1.3,11.1C60.9,27.5,60.3,27.4,59.7,27.4z"/>
		<path d="M24.1,48.4c0-1.8,0.8-3,2.3-3.2c2.3-0.3,3.8,1.1,3.6,3.5c-0.2,2.3-1.7,3.4-3.8,2.9c-1.2-0.3-1.9-1.3-2.1-2.6
			C24.1,48.8,24.1,48.6,24.1,48.4z M25.2,48.4c0.1,0.5,0.1,0.9,0.2,1.3c0.2,0.8,0.8,1.2,1.6,1.1c0.8,0,1.3-0.4,1.5-1.1
			c0.3-0.8,0.3-1.7,0-2.6c-0.2-0.7-0.8-1.1-1.5-1.1c-0.8,0-1.3,0.3-1.6,1.1C25.3,47.6,25.3,48,25.2,48.4z"/>
		<path d="M20.1,50.6c1.1,0,2.1,0,3.2,0c0,0.4,0,0.7,0,1c-1.5,0-3,0-4.5,0c-0.1,0-0.3-0.2-0.3-0.3c0-0.2,0-0.5,0.1-0.6
			c0.5-0.4,1.1-0.7,1.5-1.1c0.5-0.4,1-0.8,1.4-1.3c0.4-0.5,0.6-1.1,0.2-1.7c-0.4-0.6-1-0.5-1.6-0.4c-0.2,0-0.3,0.1-0.5,0.2
			c0,0.1,0,0.1,0,0.2c0,0.4-0.1,0.7-0.5,0.8c-0.3,0-0.7-0.1-0.7-0.3c-0.1-0.3-0.1-0.7,0.1-1c0.6-0.7,1.5-0.8,2.4-0.8
			c0.2,0,0.3,0,0.5,0.1c1.4,0.2,2.1,1.3,1.5,2.5c-0.3,0.6-0.8,1.2-1.2,1.7C21.2,49.9,20.7,50.2,20.1,50.6z"/>
		<path d="M37.3,55.3c0.1,0.2,0.2,0.4,0.3,0.6c-0.2,0-0.5,0.1-0.7,0.1c-7,0-14,0-21.1,0c-0.3,0-0.8-0.2-0.8-0.3
			c0-0.5,0.5-0.3,0.8-0.3C23,55.3,30.2,55.3,37.3,55.3z"/>
		<path d="M51.4,55.9c0.1-0.2,0.2-0.4,0.3-0.6c7.1,0,14.2,0,21.4,0c0.2,0,0.4,0,0.5,0c0.1,0,0.2,0.2,0.4,0.3
			c-0.1,0.1-0.2,0.2-0.4,0.3c-0.1,0-0.2,0-0.3,0c-7.1,0-14.3,0-21.4,0C51.7,55.9,51.6,55.9,51.4,55.9z"/>
		<path d="M59.2,51.6c0-0.3,0-0.6,0-0.9c0.4,0,0.9,0,1.3,0c0-1.5,0-2.8,0-4.3c-0.3,0.1-0.6,0.3-0.9,0.3c-0.2,0-0.6-0.1-0.7-0.3
			c-0.2-0.4,0.2-0.4,0.4-0.5c0.7-0.3,1.4-0.7,2.3-0.5c0,1.7,0,3.5,0,5.3c0.4,0,0.8,0,1.1,0c0,0.3,0,0.6,0,0.9
			C61.6,51.6,60.4,51.6,59.2,51.6z"/>
		<path d="M32.5,41.9c0,0.2-0.1,0.4-0.1,0.6c-5.6,0-11.2,0-16.7,0c-0.2,0-0.4-0.2-0.6-0.3c0.2-0.1,0.4-0.3,0.6-0.3
			C21.3,41.9,26.9,41.9,32.5,41.9z"/>
		<path d="M56.7,42.5c0-0.2,0-0.4,0-0.6c1.6,0,3.2,0,4.8,0c3.9,0,7.8,0,11.7,0c0.2,0,0.3,0,0.5,0c0.1,0,0.2,0.2,0.4,0.3
			c-0.1,0.1-0.2,0.2-0.4,0.3c-0.1,0.1-0.3,0-0.5,0C67.6,42.5,62.2,42.5,56.7,42.5z"/>
		<path d="M47.3,49.4c-0.9-0.1-1.6-0.4-2.4,0c-0.2,0.1-0.5,0.1-0.7,0c-0.5-0.3-1-0.3-1.6-0.1c-0.2,0.1-0.5,0.1-0.9,0.1
			c0.5,1.6,1.1,3.1,1.5,4.6c0.2,0.6,0.3,1.3,0.4,1.9c0,0.1-0.1,0.4-0.2,0.4c-0.1,0-0.4,0-0.5-0.1c-0.2-0.3-0.5-0.6-0.6-0.9
			c-0.7-2-1.3-4.1-2-6.1c-0.1-0.3-0.2-0.7-0.2-1c0-0.5,0.2-0.6,0.6-0.4c0.4,0.2,0.8,0.4,1.2,0.5c0.5,0.2,0.7,0,0.7-0.5
			c0-0.1,0-0.2,0-0.2c0-0.8,0.5-1.3,1.1-1.2c0.6,0.1,0.9,0.7,0.8,1.4c0,0.2-0.1,0.3-0.1,0.5c0,0.1,0.1,0.1,0.3,0.2
			c-0.1-0.8-0.3-1.6,0.5-2c0.2-0.1,0.7,0,0.9,0.1c0.6,0.4,0.6,1.1,0.3,1.8c0.3-0.1,0.5-0.1,0.7-0.2c0.2-0.1,0.4-0.3,0.7-0.4
			c0.3-0.1,0.6-0.1,0.9-0.2c0,0.3,0,0.6-0.1,0.9c-0.7,2.2-1.4,4.4-2.1,6.5c-0.1,0.4-0.4,0.8-0.6,1.1c-0.1,0.1-0.3,0.1-0.5,0.2
			c-0.1-0.2-0.2-0.4-0.1-0.5c0.1-0.7,0.3-1.4,0.5-2.1C46.3,52.3,46.8,50.9,47.3,49.4z"/>
	</g>
</g>
</svg>
