<?xml version="1.0" encoding="utf-8"?>
<!-- Generator: Adobe Illustrator 19.2.0, SVG Export Plug-In . SVG Version: 6.00 Build 0)  -->
<svg version="1.1" id="Layer_1" xmlns="http://www.w3.org/2000/svg" xmlns:xlink="http://www.w3.org/1999/xlink" x="0px" y="0px"
	 viewBox="0 0 89.9 70.6" enable-background="new 0 0 89.9 70.6" xml:space="preserve">
<title>Time25</title>
<desc>Time25 Award Icon</desc>
<g>
	<path fill-rule="evenodd" clip-rule="evenodd" d="M28.6,48.5c0.7,0,3.9,0.1,4.5,0.1v-0.7c-0.8,0-2.1-0.1-2.5-0.2V22.9
		c0.4-0.1,1.8-0.2,2.5-0.2v-0.7c-0.6,0-3.8,0.1-4.5,0.1c-0.7,0-3.9-0.1-4.5-0.1v0.7c0.8,0,2.1,0.1,2.5,0.2v24.7
		c-0.4,0.1-1.8,0.2-2.5,0.2v0.7C24.7,48.6,27.9,48.5,28.6,48.5L28.6,48.5z"/>
	<path fill-rule="evenodd" clip-rule="evenodd" d="M13.4,23.6c0.6,0,6.9,0,9,0c0.1,0.7,0.1,3.4,0.1,3.4h0.4v-5.1
		c-0.6,0-10.8,0.1-11.4,0.1S0.6,22,0,21.9V27h0.4c0,0,0-2.7,0.1-3.4c2.1,0,8.4,0,9,0v24c-0.4,0.1-1.8,0.2-2.5,0.2v0.7
		c0.6,0,3.8-0.1,4.5-0.1s3.9,0.1,4.5,0.1v-0.7c-0.8,0-2.1-0.1-2.5-0.2V23.6L13.4,23.6z"/>
	<path fill-rule="evenodd" clip-rule="evenodd" d="M36.6,47.7c0.4-1.3,4.2-21.1,4.8-25.8h1.5c0.5,2.9,7.3,18.2,8.7,20.8
		c0.8-1.7,7.2-16.9,8.5-20.8h1.4c0.5,4.4,4.7,25.7,4.7,25.7c0.4,0.1,1.6,0.2,2.4,0.2v0.7c-0.6,0-3.8-0.1-4.5-0.1
		c-0.7,0-3.9,0.1-4.5,0.1v-0.7c0.8,0,2.1-0.1,2.5-0.2c0,0-2.7-14.7-3.1-16.7C58.4,32.1,51,48.6,51,48.6h-1.3
		c-0.8-1.8-7.5-16.9-7.7-17.9c-0.6,2.5-2.7,13.9-3.2,17c0.4,0.1,1.9,0.2,2.5,0.2v0.7c-0.5,0-2.6-0.1-3.1-0.1c-0.5,0-3.4,0.1-3.9,0.1
		v-0.7C34.9,47.9,36.3,47.8,36.6,47.7L36.6,47.7z"/>
	<path fill-rule="evenodd" clip-rule="evenodd" d="M89.5,43.5c0,0,0,2.7-0.1,3.4c-2.1,0-13,0-13.5,0V36c0.1,0,10.2-0.1,11.1,0
		c0.1,0.3,0.3,1.8,0.4,2.2h0.5c0-0.3-0.1-2.5-0.1-3c0-0.5,0-2.8,0.1-3h-0.5c0,0.4-0.3,1.9-0.4,2.2c-0.9,0.1-11,0-11.1,0V23.6
		c0.6,0,11,0,13.1,0c0.1,0.7,0.1,3.4,0.1,3.4h0.4v-5.1c-0.6,0-12.8,0.1-13.5,0.1c-0.7,0-6-0.1-6.6-0.1v0.7c0.8,0,2.1,0.1,2.5,0.2
		v24.7c-0.4,0.1-1.8,0.2-2.5,0.2v0.7c0.6,0,5.9-0.1,6.6-0.1c0.7,0,13.3,0.1,13.9,0.1v-5.1H89.5z"/>
</g>
</svg>
