<?xml version="1.0" encoding="utf-8"?>
<!-- Generator: Adobe Illustrator 19.2.1, SVG Export Plug-In . SVG Version: 6.00 Build 0)  -->
<svg version="1.1" id="Layer_1" xmlns="http://www.w3.org/2000/svg" xmlns:xlink="http://www.w3.org/1999/xlink" x="0px" y="0px"
	 width="100px" height="49px" viewBox="0 0 100 49" enable-background="new 0 0 100 49" xml:space="preserve">
<title>Fast Company</title>
<desc>Fast Company Award Icon</desc>
<g>
	<g>
		<path d="M32.1,38.3c0,1.9-0.2,7.9-0.2,7.9c0,1.2,0.4,1.7,1.5,1.7v0.5H29V48
			c1.1,0,1.7-0.5,1.7-1.7l0.4-9.8c-0.3-0.8-0.6-1-1.5-1.1v-0.5h3.3l3.5,9.2l3.5-9.2h3v0.5c-0.8,0-1.3,0.4-1.3,1.3l0.4,9.5
			c0,1.4,0.3,1.8,1.4,1.8v0.5h-5V48c1,0,1.4-0.3,1.4-1.8c0,0-0.2-6.6-0.3-7.8l-2.4,6.6c-0.3,0.8-0.6,1.8-0.9,2.8l-0.8,0.1
			c-0.2-0.7-0.7-2-0.7-2S32.8,40.2,32.1,38.3L32.1,38.3z"/>
		<path d="M28,48.5c-0.3-0.1-0.5-0.1-0.8-0.1c-0.5,0-1.4,0.3-2.5,0.3
			c-4.2,0-7.3-2.5-7.3-7.2c0-3.9,2.9-7,7.4-7c1,0,2.2,0.2,3.2,0.6c0.2-0.2,0.3-0.3,0.5-0.5h0.4c-0.1,0.7-0.3,3-0.3,3h-0.4
			c-0.3-1.4-1-2.3-3.2-2.3c-2.7,0-5.2,2.1-5.2,6.1c0,4.5,2.5,6.4,5.3,6.4c1.8,0,2.9-1,3.6-2.3l0.5,0.2L28,48.5L28,48.5z"/>
		<path d="M64.4,38.2V46c0,1.7,0.4,2,1.4,2v0.5h-7.6V48c0.6,0,1.1-0.2,1.1-0.6
			c0-0.3-0.1-0.7-0.2-1.2l-0.6-1.9h-4.3c-0.1,0.3-0.8,2.4-0.8,3c0,0.5,0.6,0.6,1,0.6v0.5h-3.5V48c0.6,0,1.2-0.1,1.6-1.4L55.7,36
			c-0.2-0.5-0.5-0.6-0.9-0.6v-0.5h2.9l3.5,11c0.3,1.2,0.6,1.7,1.2,2c0.8-0.3,1-0.5,1-2v-9.3c-0.6-0.8-0.6-1.3-1.7-1.3v-0.5h3.3
			l5.4,9.2v-7c0-1.4-0.3-1.7-1.4-1.7v-0.5h7.2v0.5c-0.5,0-0.8,0.2-0.8,0.6c0,0.3,0.1,0.6,0.3,1l2.1,4.5l2-4.3
			c0.3-0.6,0.4-0.9,0.4-1.2c0-0.4-0.3-0.6-0.8-0.6v-0.5h3.4v0.5c-0.8,0-1.4,0.8-1.7,1.7l-2.6,5.4V46c0,1.5,0.4,1.9,1.4,1.9v0.5h-4.9
			V48c1,0,1.4-0.4,1.4-1.9v-3l-2.8-6c-0.5-1.2-0.7-1.4-1-1.6c-0.6,0.3-0.8,0.7-0.8,1.7v9.9c0,0,0.1,0.8,0.1,1.7l-0.8,0.1L64.4,38.2
			L64.4,38.2z M56.3,37.6l-1.8,5.9h3.7L56.3,37.6L56.3,37.6z"/>
		<path d="M48.3,43.4c0,0-0.6,0-1,0v2.8c0,1.4,0.4,1.7,1.5,1.7v0.5h-5V48
			c1,0,1.4-0.4,1.4-1.8v-9.1c0-1.4-0.4-1.7-1.4-1.7v-0.5h3.7c3.6,0,5.7,1.1,5.7,4.1C53.4,42.1,50.8,43.4,48.3,43.4L48.3,43.4z
			 M47.7,35.8h-0.3v6.6h0.6c2.1,0,3.2-1,3.2-3.4C51.2,36.6,50.2,35.8,47.7,35.8L47.7,35.8z"/>
		<path d="M25.8,45.9c-2.5,0-4.1-1.7-4.1-4.3c0-2.4,1.7-4.3,4.1-4.3c2.3,0,4.1,1.8,4.1,4.3
			C29.9,44,28.1,45.9,25.8,45.9L25.8,45.9z M25.8,38.2c-1.7,0-2.3,1.6-2.3,3.5c0,1.7,0.5,3.5,2.3,3.5c1.7,0,2.2-1.7,2.2-3.5
			C28,39.8,27.3,38.2,25.8,38.2L25.8,38.2z"/>
	</g>
	<g>
		<path d="M81.9,6.6h-1c-0.1-2.7-1-3.5-3.1-3.5h-4v21.9c0,3.6,0.7,4.3,3.1,4.3v1.1H66.4
			v-1.1c2.4,0,3.1-0.7,3.1-4.5V3.1h-4c-2.7,0-3.1,0.7-3.8,3.5h-1l0.7-6.3l0.7,0.1c0.3,0.7,0.8,0.7,2.5,0.7h13.5c2.5,0,3.1,0,3.6-0.8
			h0.8L81.9,6.6L81.9,6.6z"/>
		<path d="M52.3,31.2c-2,0-3.5-0.3-4.6-0.7c-1.1-0.3-2-0.7-2.4-1c-0.6,0.6-1,1.3-1,1.3
			l-0.8-0.3l0.7-6.6l1,0.1c0.6,3.1,2.7,5.3,7,5.3c3.4,0,5.6-2.8,5.6-5.9c0-2.5-1-3.8-4.3-6.3c-1.1-0.7-2.1-1.3-2.9-2
			c-3.1-2-5-4.2-5-7.8c0-4.2,3.5-7,8.1-7c2.7,0,4.3,0.8,4.9,1.1l1-1.1l0.7,0.1l-0.7,6l-1-0.1c0-2.8-1.7-4-4.5-4
			c-2.7,0-4.6,1.4-4.6,4c0,2.4,1.8,3.9,3.9,5.3c1.1,0.7,2,1.3,2.8,1.8c4.9,3.5,6,5.7,6,9.1C62.1,27.6,58.3,31.2,52.3,31.2L52.3,31.2
			z"/>
		<path d="M36.4,6.6h-1.1c0-2.5-1.1-3.5-3.4-3.5h-6.3v11h4c2.1,0,2.5-1.1,2.8-2.9h1v7.8h-1
			c-0.3-2.1-0.7-2.9-2.9-2.9h-3.9v9.4c0,3.5,0.8,3.9,3.1,3.9v1.1H18.1v-1.1c2.7,0,3.1-0.7,3.1-3.9V4.9c0-2-0.8-2.8-3.1-2.8v-1h14.5
			c2.5,0,3.1-0.1,3.5-1h1L36.4,6.6L36.4,6.6z"/>
		<path d="M42.1,23.2v-1c1.4,0,1.7-0.4,1.7-0.8c0-0.6-0.1-1-0.3-1.4c0,0-0.3-1.1-0.6-2
			h-5.4l-0.6,1.8c-0.1,0.4-0.3,0.8-0.3,1.4c0,0.6,0.6,1,1.4,1v1h-5.4v-1c1.4,0,2-0.4,2.5-2l4.2-12.6c-0.1-0.6-0.6-1-1.4-1v-1h4.5
			C46,16.4,47,19.2,47,19.2c0.7,2.4,1.4,3.1,2.5,3.1v1H42.1L42.1,23.2z M40.1,9.7L38,16.5h4.3L40.1,9.7L40.1,9.7z"/>
	</g>
</g>
</svg>
