<?xml version="1.0" encoding="utf-8"?>
<!-- Generator: Adobe Illustrator 18.1.1, SVG Export Plug-In . SVG Version: 6.00 Build 0)  -->
<svg version="1.1" id="Layer_1" xmlns="http://www.w3.org/2000/svg" xmlns:xlink="http://www.w3.org/1999/xlink" x="0px" y="0px"
	 viewBox="0 0 32 32" enable-background="new 0 0 32 32" xml:space="preserve">
<title>Bell</title>
<desc>Line drawing of an old fashion bell.</desc>
<g>
	<path fill="none" stroke-linecap="round" stroke-linejoin="round" stroke-miterlimit="10" d="M16,0.5v3.8
		c2.9,0,5.7,1.3,7.4,3.5c2,2.5,2,5.2,1.9,8.2c-0.1,2.5-0.2,5.1,0.3,7.5c0.4,2.1,1.6,4.5,4,4.8l0.2,0h-0.2H2.1l0.2,0
		c2.4-0.3,3.6-2.7,4-4.8c0.5-2.5,0.4-5,0.3-7.5c-0.1-2.9-0.1-5.7,1.9-8.2c1.7-2.2,4.5-3.5,7.4-3.5"/>
	<path fill="none" stroke-linecap="round" stroke-linejoin="round" stroke-miterlimit="10" d="M19,28.5
		c0,1.6-1.3,3-3,3s-3-1.3-3-3"/>
	<line fill="none" stroke-linejoin="round" stroke-miterlimit="10" x1="6.7" y1="21.3" x2="25.3" y2="21.3"/>
</g>
</svg>
