<?xml version="1.0" encoding="utf-8"?>
<!-- Generator: Adobe Illustrator 19.0.0, SVG Export Plug-In . SVG Version: 6.00 Build 0)  -->
<svg version="1.1" id="Layer_14" xmlns="http://www.w3.org/2000/svg" xmlns:xlink="http://www.w3.org/1999/xlink" x="0px" y="0px"
	 width="73.2px" height="27px" viewBox="-312 337 73.2 27" style="enable-background:new -312 337 73.2 27;" xml:space="preserve">
<g>
	<path style="fill:#7D7D7D;" d="M-303.5,349.6c-0.4-0.1-1.2-0.3-1.6-0.3c0.6,0,1.8-0.4,2.4-0.7c0.5-0.3,1-0.8,1.2-1.2
		c0.2-0.4,0.3-0.7,0.3-1.3c0-0.9-0.3-1.5-0.8-2c-0.8-0.8-2-1.2-3.8-1.3c-0.3,0-1.9,0-3.4,0h-2.8v6.7v6.7h2.4c3.4,0,4.5-0.1,5.7-0.3
		c1.6-0.4,2.6-1.2,2.9-2.4c0.1-0.4,0.1-1.1,0-1.5C-301.2,350.8-302.1,350-303.5,349.6z M-308.8,346.2L-308.8,346.2l0.1-2.8h0.9
		c0.6,0,1,0,1.2,0.1c1.4,0.3,2,1.6,1.7,3.3c-0.2,1-0.8,1.7-1.7,2c-0.2,0.1-0.5,0.1-1.2,0.1h-1V346.2z M-304.8,354.1
		c-0.2,0.3-0.6,0.7-1,0.9c-0.6,0.3-0.9,0.3-2,0.3h-0.9v-2.9v-2.9h1c0.7,0,1,0,1.3,0.1c1.1,0.3,1.8,1,2,2.1
		C-304.3,352.6-304.5,353.6-304.8,354.1z"/>
	<polygon style="fill:#7D7D7D;" points="-287.9,342.8 -287.9,349.4 -287.9,356.1 -286.3,356.1 -284.7,356 -284.6,349.4 
		-284.6,342.8 -286.3,342.8 	"/>
	<polygon style="fill:#7D7D7D;" points="-279.2,356.1 -279.2,349.4 -279.2,342.8 -280.8,342.8 -282.4,342.8 -282.4,349.4 
		-282.4,356.1 -280.8,356.1 	"/>
	<path style="fill:#7D7D7D;" d="M-293.5,346.3c-0.4-0.1-1.4-0.1-1.8,0c-0.1,0-0.3,0.1-0.5,0.1c-1.4,0.4-2.6,1.3-3.2,2.5
		c-0.6,1.2-0.7,2.7-0.3,4c0.2,0.8,0.6,1.3,1.1,1.9c0.8,0.8,1.7,1.2,2.8,1.4c0.6,0.1,1.7,0.1,2.2,0c1.6-0.3,2.8-1.2,3.3-2.6
		c0.1-0.2,0.1-0.3,0.1-0.4c0,0-0.2,0-0.4,0h-0.4l-0.1,0.3c-0.2,0.7-0.8,1.4-1.5,1.7c-0.5,0.2-0.8,0.3-1.3,0.3
		c-0.7,0-1.3-0.2-1.7-0.7c-0.6-0.6-0.8-1.5-0.9-3.1v-0.4h3.2h3.3v-0.2C-289.6,348.5-291.1,346.7-293.5,346.3z M-292.9,350.4h-1.6
		v0.1h-1.6V350c0.1-1.6,0.3-2.4,0.8-2.9c0.1-0.1,0.3-0.3,0.4-0.3c0.2-0.1,0.6-0.1,0.9,0c0.7,0.2,1,1.1,1.1,2.9V350.4z"/>
	<path style="fill:#7D7D7D;" d="M-271.2,346.5c-0.4-0.1-0.6-0.1-1.2-0.1c-0.4,0-0.8,0-0.9,0c-1,0.2-2,0.6-2.7,1.3
		c-0.5,0.5-0.8,0.8-1,1.4c-0.8,1.5-0.6,3.6,0.3,5c0.6,0.9,1.6,1.6,2.7,2c0.9,0.3,2.2,0.3,3.1,0.1c1.4-0.3,2.4-1,2.9-2.1
		c0.1-0.2,0.3-0.8,0.3-0.9c0,0-0.2,0-0.4,0c-0.3,0-0.4,0-0.4,0.1c-0.3,1-0.8,1.6-1.7,1.9c-0.5,0.2-0.8,0.3-1.3,0.3
		c-1.7,0-2.5-1.2-2.6-3.8v-0.4h3.1h3.3v-0.1v-0.5C-267.8,348.6-269.1,347-271.2,346.5z M-270.9,350.5L-270.9,350.5h-1.7h-1.6v-0.4
		c0.1-1.9,0.4-2.9,1.1-3.2c0.3-0.2,0.8-0.1,1.2,0.1c0.5,0.3,0.7,1,0.9,2.2c0,0.3,0.1,0.7,0.1,0.9V350.5z"/>
	<path style="fill:#7D7D7D;" d="M-239,353.2l-0.4,0.1l-0.1,0.3c-0.4,1.3-1.5,2.1-3,2.1c-2.2,0.1-3.4-1.3-3.5-4.1V351h3.6h3.6v-0.6
		c-0.1-2.1-1.2-3.5-3.1-4c-0.3-0.1-1.3-0.2-1.6-0.1c-1,0.2-1.8,0.6-2.4,1.2c-0.6,0.6-1,1.4-1.2,2.4c-0.1,0.6-0.1,1.8,0,2.4
		c0.3,1.8,1.4,3.1,2.9,3.6c0.5,0.2,0.9,0.2,1.6,0.2c0.5,0,0.7,0,1.1-0.1c1.4-0.4,2.3-1.3,2.7-2.5l0.1-0.3H-239z M-246,350.5
		c0-0.1,0-0.3,0.1-0.6c0.3-1.8,1-2.8,2.3-3c0.4-0.1,1.2-0.1,1.6,0.1c0.3,0.1,0.8,0.4,1,0.6c0.5,0.5,1,1.8,1,2.8v0.3h-3h-3V350.5z"/>
	<path style="fill:#7D7D7D;" d="M-258.9,346.6l-0.2,0.5c-0.1,0.3-0.8,2.1-1.6,4.1c-0.9,2.2-1.4,3.5-1.4,3.5s-0.8-1.9-1.7-4l-1.7-4
		h-0.6c-0.3,0-0.6,0-0.6,0s0.9,2.2,2,4.7l2,4.7h0.3h0.3l0.1-0.2c0.1-0.3,3.6-9.3,3.6-9.3s-0.1,0-0.3,0H-258.9z"/>
	<path style="fill:#7D7D7D;" d="M-250.1,346.6v3c0,2.9,0,3-0.1,3.4c-0.2,0.8-0.4,1.2-0.7,1.7c-0.6,0.8-1.7,1.2-2.7,0.9
		c-0.8-0.2-1.4-0.8-1.7-1.8c-0.1-0.3-0.1-0.4-0.1-3.8v-3.5h-0.5h-0.5v3.2c0,3.5,0,3.7,0.3,4.4c0.2,0.5,0.4,0.8,0.7,1.2
		c0.5,0.5,1.1,0.8,2,0.9c1.5,0.2,2.8-0.5,3.4-1.9l0.1-0.3v1v1h0.5h0.5v-4.8v-4.6h-0.5H-250.1z"/>
	<path style="fill:#7D7D7D;" d="M-273.2,362.7c-0.1,0-0.1,0.1-0.3,0.4c-0.3,0.5-0.3,0.5-1.5,0.6c-0.6,0-0.9,0-0.9,0s0.6-0.9,1.4-2
		c1.2-1.6,1.4-2,1.4-2c0-0.1-0.1-0.1-1.5-0.1c-1.3,0-1.5,0-1.6-0.1c0,0-0.1-0.1-0.2-0.1h-0.1v0.6c0,0.3,0,0.6-0.1,0.7
		c0,0.1,0,0.1,0.1,0.1s0.2,0,0.2-0.1c0.1-0.4,0.2-0.6,0.3-0.6c0.1-0.1,0.3-0.1,1-0.1c0.5,0,0.9,0,0.9,0s-0.6,0.9-1.4,2
		c-1.2,1.6-1.4,2-1.4,2.1c0,0.1,0.1,0.1,1.9,0.1h1.8l0.1-0.6C-273,362.7-273,362.7-273.2,362.7z"/>
	<path style="fill:#7D7D7D;" d="M-268.9,362.7c-0.1,0-0.1,0-0.2,0.2c-0.1,0.3-0.3,0.5-0.5,0.6c-0.2,0.1-0.3,0.1-1.1,0.1
		c-0.5,0-0.9,0-0.9,0s0.6-0.9,1.4-1.9c0.8-1.1,1.4-1.9,1.4-2v-0.1c0-0.1-0.1-0.1-1.6-0.1c-1.3,0-1.5,0-1.6-0.1c0,0-0.1-0.1-0.2-0.1
		c-0.1,0-0.1,0-0.2,0.1c0,0.1,0,0.4-0.1,0.7v0.6h0.2c0.1,0,0.2,0,0.2-0.3c0-0.1,0.1-0.3,0.2-0.4c0.2-0.2,0.4-0.2,1.3-0.2h0.6l-1.4,2
		c-1.1,1.5-1.4,2-1.4,2.1c0,0.1,0.1,0.1,1.9,0.1h1.9l0.1-0.3C-268.7,362.7-268.7,362.7-268.9,362.7z"/>
	<path style="fill:#7D7D7D;" d="M-276.9,359.4h-0.9h-1.1v0.1v0.2c0,0.2,0,0.2,0.2,0.2s0.3,0.1,0.3,0.2c0.1,0.1,0.1,0.2,0.1,1.4
		c0,1.3,0,1.3-0.1,1.2c0-0.1-0.6-0.7-1.2-1.5c-0.6-0.8-1.2-1.4-1.3-1.5l-0.1-0.2h-0.5h-0.5v0.2c0,0.1,0,0.2,0.1,0.2
		c0.1,0,0.2,0,0.3,0.1c0.3,0.2,0.3,0.2,0.3,2c0,0.8,0,1.6-0.1,1.6c0,0.1-0.3,0.2-0.4,0.2c-0.1,0-0.1,0-0.1,0.2h0.9h0.9v-0.2
		c0-0.1,0-0.2-0.2-0.2c-0.1,0-0.3-0.1-0.3-0.1c-0.1-0.1-0.1-0.1-0.1-1.5c0-1.2,0-1.4,0.1-1.3c0,0,0.7,0.8,1.4,1.7
		c1.3,1.5,1.3,1.6,1.5,1.6h0.2v-2c0-2.3,0-2.2,0.4-2.2c0.2,0,0.2,0,0.2-0.2V359.4z"/>
</g>
</svg>
