<?xml version="1.0" encoding="utf-8"?>
<!-- Generator: Adobe Illustrator 18.1.1, SVG Export Plug-In . SVG Version: 6.00 Build 0)  -->
<svg version="1.1" id="Layer_1" xmlns="http://www.w3.org/2000/svg" xmlns:xlink="http://www.w3.org/1999/xlink" x="0px" y="0px"
	 viewBox="0 0 40 30" enable-background="new 0 0 40 30" xml:space="preserve">
<title>Courier bike</title>
<desc>Bike delivering a Casper mattrress in a box.</desc>
<path d="M35,15.3L35,15.3c-2.4,0-4.3,1.8-4.6,4.1l-0.8,0l0-1.7c0,0,0,0,0,0s0,0,0,0l0-6.5c0,0,0,0,0,0s0,0,0,0l0-2.2
	c0,0,0,0,0,0c0,0,0,0,0,0l0-2.2c0-0.3-0.2-0.5-0.5-0.5c0,0,0,0,0,0l-7.8,0c-0.3,0-0.5,0.2-0.5,0.5l0,2.2c0,0,0,0,0,0c0,0,0,0,0,0
	l0,2.2c0,0,0,0,0,0c0,0,0,0,0,0l0,8.2l-0.1,0l-0.6-0.2l-2.2-7.9l0.7,0c0.3,0,0.5-0.2,0.5-0.5c0-0.3-0.2-0.5-0.5-0.5l-1.4,0
	c-0.2,0-0.3,0.1-0.4,0.2c-0.1,0.1-0.1,0.3-0.1,0.5l0.7,2.4l-7.7,0l-1-2.3l1.2,0.3c0,0,0.1,0,0.1,0c0.2,0,0.4-0.2,0.5-0.4
	c0.1-0.3-0.1-0.6-0.4-0.6L7,9.5C6.7,9.5,6.4,9.6,6.3,9.9c-0.1,0.3,0.1,0.6,0.4,0.6l0.7,0.2l1.3,3.1l-1.5,2.1
	c-0.7-0.4-1.4-0.6-2.2-0.6l0,0c-1.2,0-2.4,0.5-3.3,1.4c-0.9,0.9-1.3,2-1.3,3.3c0,2.5,2.1,4.6,4.6,4.6l0,0c2.4,0,4.3-1.8,4.6-4.1
	l2.3,0c0.1,0,0.3,0,0.4-0.2l5.5-5.5l1.4,4.9c0,0.2,0.2,0.3,0.3,0.4l1,0.3c0.1,0,0.1,0,0.2,0c0,0,0,0,0,0l9.8,0
	c0.3,2.3,2.2,4.1,4.6,4.1l0,0c2.5,0,4.6-2.1,4.6-4.6C39.6,17.3,37.5,15.3,35,15.3z M28.6,19.4l-6.7,0l0-1.2l6.7,0L28.6,19.4z
	 M28.6,17.2l-6.7,0l0-1.2l6.7,0L28.6,17.2z M21.8,15l0-3.3l6.7,0l0,3.3L21.8,15z M28.5,10.7l-6.7,0l0-1.2l6.7,0L28.5,10.7z
	 M28.5,7.3l0,1.2l-6.7,0l0-1.2L28.5,7.3z M5.1,23.6L5.1,23.6c-2,0-3.6-1.6-3.6-3.6c0-1,0.4-1.8,1-2.5c0.7-0.7,1.6-1.1,2.5-1.1l0,0
	c0.6,0,1.1,0.1,1.6,0.4l-2,2.9c-0.1,0.2-0.1,0.4,0,0.5c0.1,0.2,0.3,0.3,0.5,0.3c0,0,0,0,0,0l3.5,0C8.3,22.2,6.8,23.5,5.1,23.6z
	 M8.6,19.5l-2.5,0l1.4-2.1C8.1,17.9,8.4,18.7,8.6,19.5z M9.6,19.4c-0.1-1.2-0.7-2.2-1.5-2.9l1.1-1.6l1.9,4.5L9.6,19.4z M12.1,19
	l-2-4.7l6.7,0L12.1,19z M35,23.4L35,23.4c-1.8,0-3.3-1.3-3.5-3l3.5,0c0.3,0,0.5-0.2,0.5-0.5c0-0.3-0.2-0.5-0.5-0.5c0,0,0,0,0,0
	l-3.5,0c0.2-1.7,1.7-3,3.5-3.1l0,0c2,0,3.6,1.6,3.6,3.6C38.5,21.8,36.9,23.4,35,23.4z"/>
</svg>
