<svg xmlns="http://www.w3.org/2000/svg" width="81.1" height="27" viewBox="0 0 81.1 27"><g fill="#7D7D7D"><path d="M10.8 21.1c1.6-.5 3.1-1.6 3.1-3.7 0-1.2-.5-2.1-1.3-2.7-.7-.6-1.7-1-2.7-1.2-.3-.1-.7-.1-1-.1 2-.3 4.5-1.4 4.5-3.8 0-1.2-.4-2-1.1-2.6C10.9 5.8 8.7 5.6 7 5.6H0v.6h2.2v14.7H0v.6h5.2c1.6 0 3.8.1 5.6-.4M5.1 6.2c1.9 0 3.5-.2 4.4.6.5.5.7 1.3.7 2.6 0 2.7-1.2 3.5-3 3.5H5.1V6.2zm0 7.4h2.3c1 0 1.8.3 2.3.8.7.6 1 1.6 1 2.9 0 1.6-.5 3.6-2.5 3.6H5.1v-7.3zM19.4 6.2h2.1v-.6h-7.1v.6h2.1v14.7h-2.1v.6h7.1v-.6h-2.1M66.1 6.2h2.3v-.6h-5.2v.6h2.2v10L58.1 5.6h-5.7v.6h2.2v14.7h-2.1v.6h5.1v-.6h-2.2V6.7l.4.6 9.6 14.5h.7M81.1 16.3h-.6c-.6 3-1.3 4.5-4.7 4.5h-4.1l9.4-14.6v-.6H69.2v4.3h.7c.4-2.3 1.5-3.2 2.9-3.5.7-.2 1.6-.2 2.4-.2h2.6l-.2.3-9.3 14.3v.6h12.8v-5.1zM52.1 20.9H50L44.1 5.3h-.7l-6 15.6h-1.9v-4.7h-.7c-.1 2.7-1.2 4.8-4.2 4.8h-2.9V6.2h2.5v-.6h-7.5v.6h2.2v14.7h-2.2v.6h18.1v-.6h-2.5l1.6-4.2h5.4l.1.3 1.6 3.9h-2.5v.6h7.8l-.2-.6zM42.5 9.4l2.4 6.6H40l2.5-6.6z"/></g></svg>