<svg xmlns="http://www.w3.org/2000/svg" width="24.1" height="27" viewBox="0 0 24.1 27"><g fill="#7D7D7D"><path d="M0 13.5V27h24.08V0H0v13.5zm7.29-9.99c.31.14.53.35.64.66.1.24.1.55.1 3.75v3.49l-.14.3c-.13.29-.45.64-.59.64-.03 0 .05.1.19.23.15.13.31.35.39.53l.14.3v8.7l-.16.33c-.13.25-.22.36-.43.49l-.27.15-2.5.02-2.51.02V3.38l2.45.02c2.23 0 2.49.02 2.69.11zM11.5 4.6v1.23H9.04V4.64c0-.66.02-1.21.04-1.23.02-.02.57-.04 1.23-.04h1.19V4.6zm3.49 8.64v9.87h-2.46v-9.83c0-5.41.02-9.85.04-9.87.02-.02.57-.04 1.23-.04h1.19v9.87zm6.92 0v9.87l-2.5-.02-2.51-.02-.27-.15c-.21-.13-.3-.23-.43-.49l-.16-.33v-7.12c0-6.73.01-7.14.1-7.39.13-.32.46-.65.77-.73.12-.03.74-.06 1.38-.06h1.16V3.36h2.46v9.88zM11.5 14.96v8.15H9.04V6.81h2.46v8.15z"/><path d="M4.63 8.64v2.81l.47-.02.47-.02V5.87l-.47-.02-.47-.02v2.81zM4.63 17.28v3.38h.98V13.9h-.98v3.38zM18.48 14.96v5.69h.98V9.27h-.98v5.69z"/></g></svg>