<?xml version="1.0" encoding="utf-8"?>
<!-- Generator: Adobe Illustrator 18.1.1, SVG Export Plug-In . SVG Version: 6.00 Build 0)  -->
<svg version="1.1" id="Layer_1" xmlns="http://www.w3.org/2000/svg" xmlns:xlink="http://www.w3.org/1999/xlink" x="0px" y="0px"
	 viewBox="0 0 32 32" enable-background="new 0 0 32 32" xml:space="preserve">
<title>Bird</title>
<desc>Seagull from profile view.</desc>
<path fill="none" stroke="#000000" stroke-linecap="round" stroke-linejoin="round" stroke-miterlimit="10" d="M31.6,13.4
	c0,0.9-0.1,1.7-0.2,2.5c-1.2,6.4-6.9,11.2-13.7,11.2C10,27.1,3.8,21,3.8,13.4v0.2V6.2c0-3.1,2.6-5.7,5.7-5.7h0
	c3.2,0,5.7,2.5,5.7,5.7v7.2L31.6,13.4z"/>
<path fill="none" stroke="#000000" stroke-linecap="round" stroke-linejoin="round" stroke-miterlimit="10" d="M23.4,25.9
	c0,0-8.1-2.6-8.1-12.6"/>
<line fill="none" stroke="#000000" stroke-linecap="round" stroke-linejoin="round" stroke-miterlimit="10" x1="3.5" y1="8.1" x2="0.5" y2="8.1"/>
<circle cx="7.1" cy="8.1" r="0.8"/>
<line fill="none" stroke="#000000" stroke-linecap="round" stroke-linejoin="round" stroke-miterlimit="10" x1="21.3" y1="26.8" x2="21.3" y2="31.5"/>
<line fill="none" stroke="#000000" stroke-linecap="round" stroke-linejoin="round" stroke-miterlimit="10" x1="13.1" y1="26.7" x2="13.1" y2="31.5"/>
</svg>
