<?xml version="1.0" encoding="utf-8"?>
<!-- Generator: Adobe Illustrator 19.2.1, SVG Export Plug-In . SVG Version: 6.00 Build 0)  -->
<svg version="1.1" id="Layer_1" xmlns="http://www.w3.org/2000/svg" xmlns:xlink="http://www.w3.org/1999/xlink" x="0px" y="0px"
	 width="22.3px" height="12.2px" viewBox="0 0 22.3 12.2" style="enable-background:new 0 0 22.3 12.2;" xml:space="preserve">
<title>Bone</title>
<desc>Line drawing of a bone</desc>
<path d="M21.7,5.8c1-1.8,0.4-4.2-1.4-5.3c-0.9-0.5-1.9-0.7-2.9-0.4c-1,0.3-1.8,0.9-2.3,1.8c-0.2,0.3-0.3,0.7-0.4,1.1H7.4
	c0-0.1,0-0.1,0-0.2C7.1,1.9,6.5,1,5.6,0.5C4.8,0,3.7-0.1,2.8,0.1C1.8,0.4,0.9,1,0.4,1.9C-0.4,3.4,0,5,0.9,6.1
	C0.8,6.2,0.7,6.3,0.7,6.4c-1.1,1.9-0.6,4.3,1.1,5.3c0.6,0.3,1.2,0.5,1.9,0.5c1.4,0,2.6-0.7,3.3-1.9C7.2,10,7.3,9.6,7.4,9.2h7.3
	c0.2,1.1,0.9,2,1.8,2.5c0.6,0.3,1.2,0.5,1.9,0.5c1.4,0,2.6-0.7,3.3-1.9c0.7-1.3,0.6-3-0.2-4.2C21.6,6,21.7,5.9,21.7,5.8z M20.7,9.7
	c-0.7,1.2-2.3,1.7-3.5,1c-0.7-0.4-1.2-1.2-1.3-2.1l0-0.6H6.3l0,0.6c0,0.4-0.1,0.8-0.3,1.2c-0.7,1.2-2.3,1.7-3.5,1
	C1.2,9.9,1.1,8.2,1.8,7.1C1.8,7,1.9,6.9,2,6.8h0.7c0.3,0,0.6-0.3,0.6-0.6c0-0.3-0.3-0.6-0.6-0.6H2c-0.6-0.8-1-2-0.5-2.9
	c0.3-0.6,0.9-1,1.6-1.2C3.7,1.2,4.4,1.3,5,1.6c0.6,0.4,1,0.9,1.2,1.6c0,0.2,0.1,0.3,0.1,0.5l0,0.6h9.6l0-0.6c0-0.4,0.1-0.8,0.3-1.2
	c0.3-0.6,0.9-1,1.5-1.2c0.7-0.2,1.3-0.1,1.9,0.3c1.2,0.7,1.6,2.3,0.9,3.6l0,0c-0.1,0.1-0.1,0.2-0.2,0.3h-0.8c-0.3,0-0.6,0.3-0.6,0.6
	c0,0.3,0.3,0.6,0.6,0.6h0.8C21.1,7.6,21.2,8.8,20.7,9.7z"/>
</svg>
