<?xml version="1.0" encoding="utf-8"?>
<!-- Generator: Adobe Illustrator 18.1.1, SVG Export Plug-In . SVG Version: 6.00 Build 0)  -->
<svg version="1.1" id="Layer_1" xmlns="http://www.w3.org/2000/svg" xmlns:xlink="http://www.w3.org/1999/xlink" x="0px" y="0px"
	 viewBox="0 0 50 27" enable-background="new 0 0 50 27" xml:space="preserve">
<g>
	<path d="M46.4,23.5c0,0,0.1-0.1,0.1-0.1c0-0.1,0-0.1,0-0.2c0,0,0-0.1,0-0.1c0,0,0,0,0,0c0-0.1,0-0.1,0-0.2c0,0,0-0.1,0-0.1
		c0,0,0-0.1-0.1-0.1c0,0-0.1-0.1-0.1-0.1c0,0,0,0,0,0c-1.6-1.3-2.5-3.1-2.5-5.2c0-2,0.9-3.9,2.5-5.2c0,0,0,0,0,0
		c0.1,0,0.1-0.1,0.1-0.2c0,0,0,0,0-0.1c0,0,0,0,0,0c0-0.1,0-0.1,0-0.2c0,0,0,0,0,0c0-0.1,0-0.2,0-0.3c0,0,0,0,0-0.1
		c0-0.1-0.1-0.1-0.1-0.2c0,0,0,0,0,0c0,0,0,0,0,0c0,0,0,0,0,0l-10-10c-0.1-0.1-0.3-0.2-0.5-0.2H10c-3.6,0-6.5,2.9-6.5,6.5
		c0,1.7,0.7,3.4,1.9,4.6l10,10c0,0,0,0,0.1,0.1c1.2,1.1,2.8,1.8,4.5,1.8h2.7v2.4c0,0.3,0.2,0.6,0.4,0.7c0.1,0,0.2,0.1,0.3,0.1
		c0.2,0,0.3-0.1,0.5-0.2l2.3-1.9l2.3,1.9c0.2,0.2,0.5,0.2,0.8,0.1c0.3-0.1,0.4-0.4,0.4-0.7v-2.4h16c0.1,0,0.2,0,0.3-0.1
		c0,0,0,0,0.1,0c0.1,0,0.1-0.1,0.2-0.1C46.3,23.6,46.3,23.6,46.4,23.5C46.3,23.5,46.3,23.5,46.4,23.5z M22.7,18.5h-7.5
		c-0.1-0.4-0.2-0.8-0.2-1.2s0.1-0.8,0.2-1.2h7.5V18.5z M15.8,14.7c0.9-1.4,2.4-2.3,4.2-2.3h23.9c-0.5,0.7-1,1.5-1.3,2.3H29h-5.5
		H15.8z M29.8,16.2h12.6c-0.1,0.4-0.1,0.8-0.1,1.2s0,0.8,0.1,1.2H29.8V16.2z M35.4,2.4l8.5,8.5H20c-0.8,0-1.6,0.2-2.4,0.4L8.9,2.5
		C9.2,2.4,9.6,2.4,10,2.4H35.4z M5,7.4C5,5.6,6,4,7.4,3.1l8.9,8.9c-1.1,0.8-1.9,1.8-2.4,3.1c0,0,0,0,0,0.1c-0.2,0.7-0.4,1.4-0.4,2.2
		c0,0.2,0,0.4,0,0.6l-7.1-7.1C5.5,9.9,5,8.7,5,7.4z M20,22.4c-1.8,0-3.3-0.9-4.2-2.3h6.9v2.3H20z M28.3,24.6l-1.5-1.3
		c-0.1-0.1-0.3-0.2-0.5-0.2s-0.3,0.1-0.5,0.2l-1.5,1.3v-8.4h4V24.6z M29.8,20h12.9c0.3,0.8,0.7,1.6,1.3,2.3H29.8V20z"/>
</g>
</svg>
