<?xml version="1.0" encoding="utf-8"?>
<!-- Generator: Adobe Illustrator 18.1.1, SVG Export Plug-In . SVG Version: 6.00 Build 0)  -->
<svg version="1.1" id="Layer_1" xmlns="http://www.w3.org/2000/svg" xmlns:xlink="http://www.w3.org/1999/xlink" x="0px" y="0px"
	 viewBox="0 0 32 32" enable-background="new 0 0 32 32" xml:space="preserve">
<title>Closed book</title>
<desc>Book on side with bookmark hanging out.</desc>
<g>
	<g>
		<path fill="none" stroke-linecap="round" stroke-linejoin="round" stroke-miterlimit="10" d="M9.2,21.4l-7.5-7.3
			c-0.8-0.8-1.3-1.8-1.3-2.9c0-2.3,1.9-4.2,4.3-4.2H24l7.5,7.3H12.3c-2.4,0-4.3,1.9-4.3,4.2s1.9,4.2,4.3,4.2l2.6,0"/>
		<line fill="none" stroke-miterlimit="10" x1="19" y1="19.9" x2="29.6" y2="19.9"/>
		<line fill="none" stroke-linejoin="round" stroke-miterlimit="10" x1="19" y1="17.1" x2="29.6" y2="17.1"/>
		<line fill="none" stroke-linejoin="round" stroke-miterlimit="10" x1="10.4" y1="14.8" x2="2.9" y2="7.5"/>
		<g>
			<path fill="none" stroke-linecap="round" stroke-linejoin="round" stroke-miterlimit="10" d="M31.5,14.3"/>
			<path fill="none" stroke-linecap="round" stroke-linejoin="round" stroke-miterlimit="10" d="M31.5,22.7"/>
			<path fill="none" stroke-linecap="round" stroke-linejoin="round" stroke-miterlimit="10" d="M31.5,14.3
				c-1.3,1-2.1,2.5-2.1,4.2c0,1.7,0.8,3.2,2.1,4.2"/>
		</g>
		<polygon fill="none" stroke-linecap="round" stroke-linejoin="round" stroke-miterlimit="10" points="19,24.9 
			16.9,23.3 14.9,24.9 14.9,17.1 19,17.1 		"/>
		<line fill="none" stroke-linejoin="round" stroke-miterlimit="10" x1="8.2" y1="17.1" x2="14.9" y2="17.1"/>
		<line fill="none" stroke-miterlimit="10" x1="14.9" y1="19.9" x2="8.2" y2="19.9"/>
	</g>
	<path fill="none" stroke-miterlimit="10" d="M19,22.7h12.5"/>
</g>
</svg>
