<?xml version="1.0" encoding="utf-8"?>
<!-- Generator: Adobe Illustrator 18.1.1, SVG Export Plug-In . SVG Version: 6.00 Build 0)  -->
<svg version="1.1" id="Layer_1" xmlns="http://www.w3.org/2000/svg" xmlns:xlink="http://www.w3.org/1999/xlink" x="0px" y="0px"
	 viewBox="0 0 362.6 220.1" enable-background="new 0 0 362.6 220.1" xml:space="preserve">
<title>Closed book</title>

<path d="M362.5,187.3c0-0.1,0-0.1,0-0.2c0-0.1,0-0.2-0.1-0.3c0-0.2-0.1-0.4-0.1-0.7c0,0,0-0.1,0-0.1c0-0.1-0.1-0.2-0.1-0.3
	c0-0.1-0.1-0.2-0.1-0.2c0-0.1-0.1-0.2-0.1-0.2c0-0.1-0.1-0.2-0.1-0.3c0,0-0.1-0.1-0.1-0.1c-0.3-0.4-0.6-0.9-0.9-1.2c0,0,0,0,0,0
	c-0.1-0.1-0.1-0.1-0.2-0.2c-0.1-0.1-0.2-0.2-0.3-0.2c0,0,0,0,0,0c-13.3-10.8-21-26.8-21-43.9c0-17.1,7.6-33.1,21-43.9
	c0.1,0,0.1-0.1,0.2-0.1c0.1,0,0.1-0.1,0.1-0.1c0.4-0.4,0.7-0.8,1-1.2c0,0,0-0.1,0.1-0.1c0.3-0.5,0.5-1,0.6-1.5c0-0.1,0-0.1,0-0.2
	c0.1-0.3,0.1-0.5,0.1-0.8c0,0,0-0.1,0-0.1c0-0.2,0-0.5,0-0.7c0-0.1,0-0.1,0-0.2c0-0.3,0-0.5-0.1-0.8c0,0,0,0,0-0.1
	c0-0.2-0.1-0.5-0.2-0.7c0,0,0-0.1,0-0.1c-0.1-0.2-0.2-0.5-0.3-0.7c0,0,0,0,0-0.1c-0.1-0.2-0.2-0.4-0.4-0.6c0-0.1-0.1-0.1-0.1-0.2
	c0,0-0.1-0.1-0.1-0.1c-0.1-0.2-0.3-0.3-0.4-0.5L276.1,1.8C275,0.6,273.5,0,271.9,0H54.5C24.5,0,0,24.5,0,54.5
	c0,14.6,5.7,28.3,16,38.6l84.7,84.7c0.1,0.1,0.3,0.3,0.4,0.4c9.8,9.6,23.3,15.6,38.1,15.6h23.2v20.4c0,2.3,1.3,4.4,3.4,5.4
	c2.1,1,4.6,0.7,6.4-0.8l19.6-16l19.6,16c1.1,0.9,2.4,1.4,3.8,1.4c0.9,0,1.7-0.2,2.6-0.6c2.1-1,3.4-3.1,3.4-5.4v-20.4h135.4
	c0.2,0,0.4,0,0.6,0c0,0,0.1,0,0.1,0c0.2,0,0.4,0,0.5-0.1c0.1,0,0.1,0,0.2,0c0.2,0,0.3-0.1,0.5-0.1c0.1,0,0.1,0,0.2-0.1
	c0.1,0,0.3-0.1,0.4-0.2c0.1,0,0.2-0.1,0.2-0.1c0.1-0.1,0.2-0.1,0.3-0.2c0.1,0,0.2-0.1,0.2-0.1c0.1-0.1,0.2-0.1,0.3-0.2
	c0.1-0.1,0.2-0.1,0.2-0.2c0.1-0.1,0.2-0.2,0.3-0.3c0.1-0.1,0.1-0.1,0.2-0.2c0.1-0.1,0.3-0.3,0.4-0.5c0,0,0,0,0,0
	c0-0.1,0.1-0.1,0.1-0.2c0.1-0.1,0.1-0.2,0.2-0.3c0-0.1,0.1-0.2,0.1-0.2c0.1-0.1,0.1-0.2,0.2-0.3c0-0.1,0.1-0.2,0.1-0.3
	c0-0.1,0.1-0.2,0.1-0.3c0-0.1,0.1-0.2,0.1-0.3c0-0.1,0.1-0.2,0.1-0.3c0-0.1,0.1-0.2,0.1-0.3c0-0.1,0-0.2,0.1-0.3
	c0-0.1,0-0.2,0.1-0.3c0-0.1,0-0.2,0-0.2c0-0.1,0-0.3,0-0.4c0-0.1,0-0.1,0-0.2c0,0,0,0,0,0C362.6,187.6,362.6,187.4,362.5,187.3z
	 M162.4,149.4H97.9c-0.8-3.3-1.2-6.7-1.2-10.2c0-3.5,0.4-6.9,1.2-10.2h64.5V149.4z M102.9,117c7.5-12.2,20.9-20.3,36.3-20.3h203
	c-4.9,6.1-8.6,13-11.2,20.3H215.2h-46.8H102.9z M221.2,129h106.9c-0.5,3.3-0.8,6.7-0.8,10.2c0,3.4,0.3,6.8,0.8,10.2H221.2V129z
	 M269.4,12l72.7,72.7H139.2c-7.1,0-13.8,1.4-20,3.8L44,13.3c3.4-0.9,6.9-1.3,10.5-1.3H269.4z M24.5,84.6c-8-8-12.5-18.7-12.5-30.1
	c0-15.2,8.1-28.6,20.1-36.1l76,76c-9.2,6.4-16.3,15.5-20.2,26.2c-0.1,0.3-0.2,0.5-0.3,0.8c-1.9,5.6-3,11.5-3,17.7c0,2,0.1,4,0.3,5.9
	L24.5,84.6z M139.2,181.7c-15.3,0-28.8-8.2-36.3-20.4h59.5v20.4H139.2z M209.2,201.4l-13.6-11.1c-1.1-0.9-2.5-1.4-3.8-1.4
	s-2.7,0.5-3.8,1.4l-13.6,11.1V129h34.8V201.4z M221.2,161.4h109.9c2.5,7.4,6.3,14.2,11.2,20.4h-121V161.4z"/>
</svg>
