<?xml version="1.0" encoding="utf-8"?>
<!-- Generator: Adobe Illustrator 19.2.1, SVG Export Plug-In . SVG Version: 6.00 Build 0)  -->
<svg version="1.1" id="Layer_1" xmlns="http://www.w3.org/2000/svg" xmlns:xlink="http://www.w3.org/1999/xlink" x="0px" y="0px"
	 width="78.5px" height="27px" viewBox="0 0 78.5 27" style="enable-background:new 0 0 78.5 27;" xml:space="preserve">
<g>
	<polygon points="33.4,19.6 32,19.6 32,7.4 25.9,7.4 25.9,7.6 27.4,7.6 27.4,19.6 25.9,19.6 25.9,19.8
		33.4,19.8 	"/>
	<path d="M29.6,6.7c1.3,0,2.3-1,2.3-2.3c0-1.3-1.1-2.3-2.3-2.3c-1.3,0-2.4,1-2.4,2.4
		C27.2,5.7,28.2,6.7,29.6,6.7z"/>
	<path d="M66.5,18.2c0,0.4-0.2,1.1-0.7,1.1c-0.5,0-0.7-0.7-0.7-1.1V7.6h1.7V7.4h-1.7V3.2H65l-4.8,4.2h-2.5
		V3.2l-4.8,4.2h-1.3v0.2H53v9.1c0,1.3,0.7,3.2,3.2,3.7c1.6,0.3,3.2-0.9,3.2-2.3v-2.7h-0.2v2.8c0,0.4-0.2,1.1-0.7,1.1
		c-0.5,0-0.7-0.7-0.7-1.1V7.6h2.5v9.1c0,1.3,0.7,3.2,3.2,3.7c1.6,0.3,3.2-0.9,3.2-2.3v-2.7h-0.2V18.2z"/>
	<polygon points="50.6,7.4 44.6,7.4 44.6,7.6 46,7.6 46,19.6 45.4,19.6 45.4,19.8 52.1,19.8 52.1,19.6
		50.6,19.6 	"/>
	<path d="M48.2,6.7c1.3,0,2.4-1,2.4-2.3c0-1.3-1-2.4-2.4-2.4c-1.3,0-2.4,1-2.4,2.4C45.8,5.7,47,6.7,48.2,6.7z
		"/>
	<path d="M10.2,10.9c0,0,4.6-0.5,4.5-3.9c0-3.4-5-4.2-6.8-4.2H0.2V3h1.7v16.8H0v0.2h10.8
		c1.2,0,5.2-0.9,5.2-4.3C16,11.7,10.2,10.9,10.2,10.9z M7.9,3c0.8,0,2.3,0.5,2.3,3.9c0,3.7-1.4,3.7-2.1,3.7H6.9V3H7.9z M8.6,19.8
		H6.9v-8.9h1.4c1,0,2.4,0.8,2.6,4.7C10.9,18.8,9.5,19.8,8.6,19.8z"/>
	<path d="M24.3,7.2c-1.3,0-2.3,0.7-2.5,1.5V7.4h-6v0.2h1.4v12h-1.4v0.2h7.4v-0.2h-1.4v-10
		c0-1.7,1.6-1.9,1.6-1.9c-1,0.5-1.3,1.4-1.3,1.9c0,1.2,1,2.2,2.2,2.2c1.2,0,2.1-1,2.2-2.2C26.6,8.3,25.7,7.2,24.3,7.2z"/>
	<path d="M73.2,7.1c-3.6,0-6.4,3-6.5,6.7c0,3.7,2.6,6.3,6.5,6.4c3.8,0.1,5.2-2.9,5.2-4.9h-0.3
		c0,2.1-1.7,4.4-3.5,4.4c-1.3,0-2.9-0.7-2.9-3.3v-2.8h6.8v0v-1.4C78.5,9.8,76.8,7.1,73.2,7.1z M74.2,13.2h-2.5v-3.1
		c0-1.2,0-2.9,1.2-2.9c1.2,0,1.3,1.7,1.3,2.9V13.2z"/>
	<path d="M43.7,16c-1.9-1.2-3.1-0.9-4.9-1c-1.7,0-3.8,0.5-3.9-0.8c-0.1-0.8,0.9-0.9,0.9-0.9s1.6,0.7,3,0.6
		c1.7,0,5-0.8,5-3.4c0-2.9-3.9-3.6-3.9-3.6c-0.7-1.4-0.1-2.4,0.5-2.5c0,0-0.3,0.1-0.3,0.9c0,0.9,0.8,1.8,1.8,1.8
		c0.9,0,1.8-0.8,1.8-1.8c0-1-0.7-1.9-1.8-1.9c-1.7,0-3.1,1.3-2.3,3.3c0,0-1-0.1-2.2,0c-2,0.3-3.8,1.7-3.8,3.6c0,1.5,1.9,2.7,1.9,2.7
		s-2.6,0.9-2.4,3.1c0,0.8,0.3,1.4,0.6,1.8c0.8,1,2,1.3,2,1.3c0,0-2.8,0.3-2.8,2.4c0,2.3,3.2,3.3,5.9,3.2c3.6-0.2,6.4-1.8,6.5-5.5
		c0-0.5,0-1-0.2-1.4C44.8,17.1,44.2,16.4,43.7,16z M37.6,8.9c0-0.8,0.2-1.9,1.2-1.9c0.9,0,1.2,1,1.2,1.9v3.2c0,0.8-0.5,1.6-1.2,1.6
		c-0.8,0-1.2-0.8-1.2-1.6V8.9z M38.6,24.7c-2.2,0.2-3.9-0.7-4-2.9c0-1.9,1.2-2.3,1.2-2.3s2.6,0.1,3.8,0c1.3-0.1,3.6,0.7,3.5,2.4
		C43,23.7,41.5,24.5,38.6,24.7z"/>
</g>
</svg>
