<?xml version="1.0" encoding="utf-8"?>
<!-- Generator: Adobe Illustrator 18.1.1, SVG Export Plug-In . SVG Version: 6.00 Build 0)  -->
<svg version="1.1" id="Layer_1" xmlns="http://www.w3.org/2000/svg" xmlns:xlink="http://www.w3.org/1999/xlink" x="0px" y="0px"
	 viewBox="0 0 32 32" enable-background="new 0 0 32 32" xml:space="preserve">
<title>Calendar on the 10th</title>
<desc>10th day of the calendar month</desc>
<polyline fill="none" stroke="#000000" stroke-linecap="round" stroke-linejoin="round" stroke-miterlimit="10" points="22.5,3.6 
	26.7,3.6 26.7,28.6 2.5,28.6 2.5,3.6 7.1,3.6 "/>
<line fill="none" stroke="#000000" stroke-linecap="round" stroke-linejoin="round" stroke-miterlimit="10" x1="7.1" y1="10" x2="22.3" y2="10"/>
<g>
	<path d="M9.7,7.3H7.1C6.8,7.3,6.6,7,6.6,6.8V0.5C6.6,0.2,6.8,0,7.1,0h2.6c0.3,0,0.5,0.2,0.5,0.5v6.3C10.2,7,10,7.3,9.7,7.3z
		 M7.6,6.3h1.6V1H7.6V6.3z"/>
</g>
<g>
	<path d="M22.3,7.3h-2.6c-0.3,0-0.5-0.2-0.5-0.5V0.5c0-0.3,0.2-0.5,0.5-0.5h2.6c0.3,0,0.5,0.2,0.5,0.5v6.3C22.8,7,22.5,7.3,22.3,7.3
		z M20.1,6.3h1.6V1h-1.6V6.3z"/>
</g>
<g>
	<polygon points="8.3,15.8 8.9,17.3 10.3,16.8 10.3,23.2 12.1,23.2 12.1,14.7 11.4,14.7 	"/>
	<path d="M17.7,14.7c-2.3,0-3.5,2-3.5,4.3c0,2.4,1.2,4.3,3.5,4.3c2.2,0,3.5-2,3.5-4.3C21.1,16.6,19.9,14.7,17.7,14.7z M17.7,21.6
		c-0.9,0-1.4-0.9-1.4-2.7c0-1.8,0.6-2.7,1.4-2.7c0.9,0,1.4,0.9,1.4,2.7C19.1,20.8,18.5,21.6,17.7,21.6z"/>
</g>
<polyline fill="none" stroke="#000000" stroke-linecap="round" stroke-linejoin="round" stroke-miterlimit="10" points="26.7,6.5 
	29.5,6.5 29.5,31.5 5.3,31.5 5.3,28.6 "/>
<line fill="none" stroke="#000000" stroke-linecap="round" stroke-linejoin="round" stroke-miterlimit="10" x1="9.7" y1="3.6" x2="19.6" y2="3.6"/>
</svg>
