<svg xmlns="http://www.w3.org/2000/svg" width="60" height="60" viewBox="-345.5 320.5 60 60">
  <title>Calendar with checkmark icon</title>
  <desc>Calendar icon with checked icon embedded</desc>
  <path class="st0" d="M-299.7 335.9h-7.4v-2c0-.4-.3-.8-.7-.8s-.8.3-.8.7v2.1h-13.7v-2c0-.4-.3-.8-.7-.8-.4 0-.8.3-.8.7v2.1h-7.4c-.4 0-.8.3-.8.8v30.5c0 .4.3.8.8.8h31.5c.4 0 .8-.3.8-.8v-30.5c0-.4-.4-.8-.8-.8zm-24.1 1.6v3.2c0 .4.4.7.8.7s.7-.3.7-.7v-3.2h13.7v3.2c0 .4.4.7.8.7s.7-.3.7-.7v-3.2h6.6v7.7h-30v-7.7h6.7zm-6.6 28.9v-19.7h30v19.7h-30z"/>
  <path class="st0" d="M-308.5 350.7l-9.4 9.4-4.1-4.1c-.3-.3-.8-.3-1.1 0-.3.3-.3.7 0 1l4.6 4.6c.3.3.8.3 1.1 0l10-10c.3-.3.3-.8 0-1.1-.3-.1-.8-.1-1.1.2z"/>
</svg>
