<?xml version="1.0" encoding="utf-8"?>
<!-- Generator: Adobe Illustrator 18.1.1, SVG Export Plug-In . SVG Version: 6.00 Build 0)  -->
<svg version="1.1" id="Layer_1" xmlns="http://www.w3.org/2000/svg" xmlns:xlink="http://www.w3.org/1999/xlink" x="0px" y="0px"
	 viewBox="0 0 612 561" enable-background="new 0 0 612 561" xml:space="preserve">
<title>Calendar icon</title>
<desc>Monthly calendar icon</desc>

<g>
	<path d="M535.5,51h-51V25.5C484.5,10.2,474.3,0,459,0s-25.5,10.2-25.5,25.5V51h-255V25.5C178.5,10.2,168.3,0,153,0
		s-25.5,10.2-25.5,25.5V51h-51C33.1,51,0,84.1,0,127.5v357C0,527.9,33.1,561,76.5,561h459c43.4,0,76.5-33.1,76.5-76.5v-357
		C612,84.1,578.9,51,535.5,51z M76.5,102h51v25.5c0,15.3,10.2,25.5,25.5,25.5s25.5-10.2,25.5-25.5V102h255v25.5
		c0,15.3,10.2,25.5,25.5,25.5s25.5-10.2,25.5-25.5V102h51c15.3,0,25.5,10.2,25.5,25.5V204H51v-76.5C51,112.2,61.2,102,76.5,102z
		 M535.5,510h-459C61.2,510,51,499.8,51,484.5V255h510v229.5C561,499.8,550.8,510,535.5,510z"/>
	<g>
		<g>
			<circle cx="153" cy="331.5" r="20.4"/>
		</g>
		<g>
			<path d="M153,359.6c-15.3,0-28.1-12.8-28.1-28.1s12.8-28.1,28.1-28.1s28.1,12.8,28.1,28.1S168.3,359.6,153,359.6z M153,321.3
				c-5.1,0-10.2,2.6-10.2,10.2s2.6,10.2,10.2,10.2s10.2-2.6,10.2-10.2S158.1,321.3,153,321.3z"/>
		</g>
		<g>
			<circle cx="153" cy="433.5" r="20.4"/>
		</g>
		<g>
			<path d="M153,461.6c-15.3,0-28.1-12.8-28.1-28.1s12.8-28.1,28.1-28.1s28.1,12.8,28.1,28.1S168.3,461.6,153,461.6z M153,423.3
				c-5.1,0-10.2,2.6-10.2,10.2s2.6,10.2,10.2,10.2s10.2-2.6,10.2-10.2S158.1,423.3,153,423.3z"/>
		</g>
		<g>
			<circle cx="255" cy="433.5" r="20.4"/>
		</g>
		<g>
			<path d="M255,461.6c-15.3,0-28.1-12.8-28.1-28.1s12.8-28.1,28.1-28.1s28.1,12.8,28.1,28.1S270.3,461.6,255,461.6z M255,423.3
				c-5.1,0-10.2,2.6-10.2,10.2s2.6,10.2,10.2,10.2s10.2-2.6,10.2-10.2S260.1,423.3,255,423.3z"/>
		</g>
		<g>
			<circle cx="255" cy="331.5" r="20.4"/>
		</g>
		<g>
			<path d="M255,359.6c-15.3,0-28.1-12.8-28.1-28.1s12.8-28.1,28.1-28.1s28.1,12.8,28.1,28.1S270.3,359.6,255,359.6z M255,321.3
				c-5.1,0-10.2,2.6-10.2,10.2s2.6,10.2,10.2,10.2s10.2-2.6,10.2-10.2S260.1,321.3,255,321.3z"/>
		</g>
		<g>
			<circle cx="357" cy="331.5" r="20.4"/>
		</g>
		<g>
			<path d="M357,359.6c-15.3,0-28.1-12.8-28.1-28.1s12.8-28.1,28.1-28.1s28.1,12.8,28.1,28.1S372.3,359.6,357,359.6z M357,321.3
				c-5.1,0-10.2,2.6-10.2,10.2s2.6,10.2,10.2,10.2s10.2-2.6,10.2-10.2S362.1,321.3,357,321.3z"/>
		</g>
		<g>
			<circle cx="357" cy="433.5" r="20.4"/>
		</g>
		<g>
			<path d="M357,461.6c-15.3,0-28.1-12.8-28.1-28.1s12.8-28.1,28.1-28.1s28.1,12.8,28.1,28.1S372.3,461.6,357,461.6z M357,423.3
				c-5.1,0-10.2,2.6-10.2,10.2s2.6,10.2,10.2,10.2s10.2-2.6,10.2-10.2S362.1,423.3,357,423.3z"/>
		</g>
		<g>
			<circle cx="459" cy="433.5" r="20.4"/>
		</g>
		<g>
			<path d="M459,461.6c-15.3,0-28.1-12.8-28.1-28.1s12.8-28.1,28.1-28.1s28.1,12.8,28.1,28.1S474.3,461.6,459,461.6z M459,423.3
				c-5.1,0-10.2,2.6-10.2,10.2s2.6,10.2,10.2,10.2s10.2-2.6,10.2-10.2S464.1,423.3,459,423.3z"/>
		</g>
		<g>
			<circle cx="459" cy="331.5" r="20.4"/>
		</g>
		<g>
			<path d="M459,359.6c-15.3,0-28.1-12.8-28.1-28.1s12.8-28.1,28.1-28.1s28.1,12.8,28.1,28.1S474.3,359.6,459,359.6z M459,321.3
				c-5.1,0-10.2,2.6-10.2,10.2s2.6,10.2,10.2,10.2s10.2-2.6,10.2-10.2S464.1,321.3,459,321.3z"/>
		</g>
	</g>
</g>
</svg>
