<?xml version="1.0" encoding="UTF-8"?>
<svg width="18px" height="21px" viewBox="0 0 18 21" version="1.1" xmlns="http://www.w3.org/2000/svg" xmlns:xlink="http://www.w3.org/1999/xlink">
    <!-- Generator: Sketch 48.2 (47327) - http://www.bohemiancoding.com/sketch -->
    <title>Chat</title>
    <g id="nav1" stroke="none" stroke-width="1" fill-rule="evenodd" transform="translate(-251.000000, -14.000000)">
        <g id="nav">
            <g id="message" transform="translate(251.000000, 13.000000)">
                <path d="M10.416,16.1035 L12.283,17.5875 L12.283,15.2985 L12.69,14.9995 C14.42,13.7255 15.412,11.7785 15.412,9.6565 C15.413,7.8785 14.716,6.2085 13.451,4.9525 C12.184,3.6935 10.499,2.9995 8.707,2.9995 C5.008,2.9995 2,5.9855 2,9.6555 C2,13.3245 5.008,16.3095 8.707,16.3095 C9.113,16.3095 9.537,16.2685 9.967,16.1885 L10.416,16.1035 Z M14.283,21.7325 L9.874,18.2285 C4.516,18.9585 0,14.8075 0,9.6555 C0,4.8825 3.906,0.9995 8.707,0.9995 C11.031,0.9995 13.217,1.8995 14.861,3.5335 C16.506,5.1675 17.413,7.3425 17.412,9.6565 C17.412,12.2495 16.278,14.6405 14.283,16.2915 L14.283,21.7325 Z" id="Fill-1"></path>
            </g>
        </g>
    </g>
</svg>
