<?xml version="1.0" encoding="utf-8"?>
<!-- Generator: Adobe Illustrator 19.1.0, SVG Export Plug-In . SVG Version: 6.00 Build 0)  -->
<svg version="1.1" id="Layer_1" xmlns="http://www.w3.org/2000/svg" xmlns:xlink="http://www.w3.org/1999/xlink" x="0px" y="0px"
     viewBox="0 0 55 60.8" style="enable-background:new 0 0 55 60.8;" xml:space="preserve">
<title>Calendar icon</title>
<desc>6th day of the calendar month</desc>
<g>
    <path d="M53.5,11.2h-3.9V7.4c0-0.8-0.7-1.5-1.5-1.5h-7V1.5C41,0.7,40.4,0,39.5,0h-5.1c-0.8,0-1.5,0.7-1.5,1.5v4.3h-16V1.5
        c0-0.8-0.7-1.5-1.5-1.5h-5.1C9.5,0,8.8,0.7,8.8,1.5v4.3H1.5C0.7,5.8,0,6.5,0,7.4v46.5c0,0.8,0.7,1.5,1.5,1.5h3.9v3.8
        c0,0.8,0.7,1.5,1.5,1.5h46.5c0.8,0,1.5-0.7,1.5-1.5V12.7C55,11.9,54.3,11.2,53.5,11.2z M36,3h2v8.6h-2V3z M11.8,3h2v8.6h-2V3z
         M3,8.9h5.7v4.3c0,0.8,0.7,1.5,1.5,1.5h5.1c0.8,0,1.5-0.7,1.5-1.5V8.9h16v4.3c0,0.8,0.7,1.5,1.5,1.5h5.1c0.8,0,1.5-0.7,1.5-1.5V8.9
        h5.5v43.5H3V8.9z M52,57.7H8.5v-2.3h39.6c0.8,0,1.5-0.7,1.5-1.5V14.2H52V57.7z"/>
    <path d="M39.5,17.7H10.3c-0.8,0-1.5,0.7-1.5,1.5c0,0.8,0.7,1.5,1.5,1.5h29.2c0.8,0,1.5-0.7,1.5-1.5C41,18.4,40.4,17.7,39.5,17.7z"
        />
    <path d="M25.3,34.3c-0.9,0-1.8,0.3-2.5,0.7c1.4-1.7,4.2-3.3,6.8-4.2l-1.7-3.5c-7.5,3.5-10.1,7.8-10.1,12.2c0,3.6,2.5,6.4,6.5,6.4
        c4.2,0,6.5-3.1,6.5-6C30.8,36.8,29.1,34.3,25.3,34.3z M24.4,42.5c-1.4,0-2.3-1.1-2.3-2.7c0-1.7,0.9-2.5,2.3-2.5
        c1.3,0,2.2,1,2.2,2.6C26.6,41.4,25.9,42.5,24.4,42.5z"/>
</g>
</svg>
