<?xml version="1.0" encoding="utf-8"?>
<!-- Generator: Adobe Illustrator 18.1.1, SVG Export Plug-In . SVG Version: 6.00 Build 0)  -->
<!DOCTYPE svg PUBLIC "-//W3C//DTD SVG 1.1//EN" "http://www.w3.org/Graphics/SVG/1.1/DTD/svg11.dtd">
<svg version="1.1" id="Layer_1"
   xmlns="http://www.w3.org/2000/svg" xmlns:xlink="http://www.w3.org/1999/xlink" x="0px" y="0px" viewBox="-380 292 30 30"
   enable-background="new -380 292 30 30" xml:space="preserve">
<title>Canadian Flag</title>
<desc>Shop Casper Mattress in Canada</desc>
<path d="M-359.8,312l0.4,1.4c-1.7-0.2-3.3-0.5-5-0.7c-0.2,0-0.4,0.2-0.4,0.4l0.1,5.1
  h-0.8l0.2-5.1c0-0.2-0.3-0.4-0.4-0.4c-1.7,0.2-3.3,0.5-5,0.7l0.4-1.4c0.1-0.2,0-0.5-0.2-0.7l-5-3.9l1-0.5c0.5-0.2,0.3-0.4,0.2-1
  l-0.8-2.7l2.9,0.6c0.3,0,0.5-0.1,0.5-0.3l0.4-1.3l2.3,2.5c0.3,0.4,1,0.4,0.8-0.5l-1-5l1.3,0.7c0.4,0.2,0.7,0.2,1-0.1l1.8-3.3
  l1.8,3.3c0.2,0.4,0.6,0.3,1,0.1l1.3-0.7l-1,5c-0.2,0.9,0.5,0.9,0.8,0.5l2.3-2.5l0.4,1.3c0,0.2,0.2,0.3,0.5,0.3l2.9-0.6l-0.8,2.7
  c-0.2,0.6-0.3,0.8,0.2,1l1,0.5l-5,3.9C-359.8,311.5-359.9,311.8-359.8,312 M-365,292c-8.3,0-15,6.7-15,15c0,8.3,6.7,15,15,15
  c8.3,0,15-6.7,15-15C-350,298.7-356.7,292-365,292"/>
</svg>
