<?xml version="1.0" encoding="utf-8"?>
<!-- Generator: Adobe Illustrator 19.2.0, SVG Export Plug-In . SVG Version: 6.00 Build 0)  -->
<svg version="1.1" id="Layer_1" xmlns="http://www.w3.org/2000/svg" xmlns:xlink="http://www.w3.org/1999/xlink" x="0px" y="0px"
	 viewBox="0 0 16 16" style="enable-background:new 0 0 16 16;" xml:space="preserve">
<title>Canadian Flag</title>
<desc>Shop Casper Mattresses in Canada</desc>
<style type="text/css">
	.st0{fill:#ED5A4D;}
	.st1{fill:#FFFFFF;}
</style>
<g id="XMLID_651_">
	<circle id="XMLID_654_" class="st0" cx="8" cy="8" r="8"/>
	<g id="XMLID_652_">
		<path id="XMLID_653_" class="st1" d="M8.2,10.2l0.3,2.9H7.2l0.3-2.9l-2.3,0.7l0.2-0.7c0.1-0.2,0-0.2-0.1-0.3L3,8l0.5-0.2
			c0.2-0.1,0.1-0.2,0.1-0.5L3.2,6l1.4,0.3c0.2,0.1,0.2-0.1,0.2-0.1C4.9,6,5,5.6,5,5.6l1.1,1.3C6.2,7,6.3,7,6.4,7
			c0.1,0,0.1-0.1,0.1-0.4L6.1,4.1c0.2,0.1,0.4,0.2,0.5,0.3c0.1,0,0.2,0.1,0.2,0.1c0.1,0,0.1,0,0.2,0l0.1-0.1l0.8-1.6l0.8,1.6
			l0.1,0.1c0.1,0,0.1,0,0.2,0s0.2-0.1,0.2-0.1c0.2-0.1,0.4-0.2,0.5-0.3L9.2,6.6c0,0.2,0,0.3,0.1,0.4c0.1,0,0.2,0,0.3-0.1l1.1-1.3
			c0,0,0.1,0.5,0.2,0.6c0,0,0.1,0.1,0.3,0.1L12.6,6l-0.4,1.3c0,0.3-0.1,0.4,0.1,0.5L12.8,8l-2.4,1.9c-0.1,0.1-0.2,0.2-0.1,0.3
			l0.2,0.7L8.2,10.2z"/>
	</g>
</g>
</svg>
