<?xml version="1.0" encoding="UTF-8"?>
<svg width="23px" height="18px" viewBox="0 0 23 18" version="1.1" xmlns="http://www.w3.org/2000/svg" xmlns:xlink="http://www.w3.org/1999/xlink">
    <!-- Generator: Sketch 48.2 (47327) - http://www.bohemiancoding.com/sketch -->
    <title>Cart</title>
    <g id="nav1" stroke="none" stroke-width="1" fill-rule="evenodd" transform="translate(-336.000000, -16.000000)">
        <g id="nav">
            <g id="cart" transform="translate(336.000000, 16.000000)">
                <path d="M8.3008,16.2392 C8.3008,15.4402 8.9478,14.7922 9.7478,14.7922 C10.5478,14.7922 11.1958,15.4402 11.1958,16.2392 C11.1958,17.0392 10.5478,17.6872 9.7478,17.6872 C8.9478,17.6872 8.3008,17.0392 8.3008,16.2392" id="Fill-6"></path>
                <path d="M15.5381,16.2392 C15.5381,15.4402 16.1861,14.7922 16.9851,14.7922 C17.7851,14.7922 18.4341,15.4402 18.4341,16.2392 C18.4341,17.0392 17.7851,17.6872 16.9851,17.6872 C16.1861,17.6872 15.5381,17.0392 15.5381,16.2392" id="Fill-8"></path>
                <polygon id="Fill-10" points="19.6992 12.3183 6.3272 12.3183 4.3012 2.4743 0.7732 2.4743 0.7732 0.4743 5.9312 0.4743 7.9582 10.3183 18.3262 10.3183 20.9732 3.4313 22.8412 4.1503"></polygon>
            </g>
        </g>
    </g>
</svg>
