<?xml version="1.0" encoding="utf-8"?>
<!-- Generator: Adobe Illustrator 18.1.1, SVG Export Plug-In . SVG Version: 6.00 Build 0)  -->
<svg version="1.1" id="Layer_1" xmlns="http://www.w3.org/2000/svg" xmlns:xlink="http://www.w3.org/1999/xlink" x="0px" y="0px"
	 viewBox="0 0 28.9 20.7" enable-background="new 0 0 28.9 20.7" xml:space="preserve">
<title>Shopping cart</title>
<desc>There are items in your shopping cart</desc>
<g>
	<g>
		<path d="M25.3,14.7H9.5c-0.5,0-0.9-0.3-1-0.7L5.5,2H1C0.4,2,0,1.6,0,1s0.4-1,1-1h5.2c0.5,0,0.9,0.3,1,0.7l3.1,12h14.2l2.4-9.3
			c0.1-0.5,0.7-0.9,1.2-0.7C28.6,2.9,29,3.4,28.8,4l-2.6,10C26.1,14.4,25.7,14.7,25.3,14.7z"/>
	</g>
	<g>
		<circle cx="22.7" cy="18.9" r="1.8"/>
	</g>
	<g>
		<circle cx="10.3" cy="18.9" r="1.8"/>
	</g>
</g>
</svg>
