<svg xmlns="http://www.w3.org/2000/svg" viewBox="0 0 105.859 100.993">
<title>Casper Logo Mark</title><g><path d="M77.636,68.913c-5.61,10.421-15.72,16.384-27.831,16.384c-9.049,0-17.551-3.581-23.463-10.069c-5.836-6.403-9.627-15.188-9.627-24.731c0-9.55,3.791-18.324,9.627-24.731c5.912-6.488,14.414-10.062,23.463-10.062c9.047,0,14.864,3.018,19.322,6.386c3.812,2.885,8.555,6.177,15.986,6.177c13.528,0,19.475-11.055,20.746-17.021L90.941,8.084c-0.112,0.51-1.183,4.938-5.828,4.938c-2.05,0-3.295-0.815-6.62-3.328C73.083,5.604,65.668,0,49.805,0C21.715,0,0,22.556,0,50.496c0,27.94,21.715,50.497,49.805,50.497c17.792,0,34.526-9.833,42.175-24.058L77.636,68.913z"/></g></svg>
