<svg xmlns="http://www.w3.org/2000/svg" viewBox="0 0 29.3 32.77">
<title>Cat</title>
<desc>Icon representation of a cat</desc>
<path class="cls-1" d="M28.31,30.78h-2c1.85-6.47,2-11.32.25-14.43a7.28,7.28,0,0,0-3.22-3.15,7.72,7.72,0,0,0,.78-1.1l3.06.51h.12a1.08,1.08,0,0,0,1-.75,1,1,0,0,0-.74-1.12l-2.65-.45a7.83,7.83,0,0,0,.18-.79l2.35-.38c.62-.12,1-.5.86-1.12a1,1,0,0,0-1.11-.87l-2,.32V7.14l3-5.6A1.18,1.18,0,0,0,28.06.42a.83.83,0,0,0-1-.37L21.14,1.42a7.8,7.8,0,0,0-7,0L8.17,0a1.4,1.4,0,0,0-1,.37,1.22,1.22,0,0,0-.12,1.12l3,5.6v.34l-2.1-.34A1.23,1.23,0,0,0,6.69,8a1.19,1.19,0,0,0,.86,1.12l2.61.42c0,.2.09.4.14.59l-2.87.48a.91.91,0,0,0-.74,1.12,1.05,1.05,0,0,0,1,.87c.12,0,.12,0,.12-.12L11,11.94A7.8,7.8,0,0,0,12,13.22a7.28,7.28,0,0,0-3.17,3.12c-1.11,2-1.45,4.72-1.06,8.13a3.16,3.16,0,0,1-2.15-1.41,5.62,5.62,0,0,1-.49-4.73c.86-2.74.74-5.1-.37-6.59A4.66,4.66,0,0,0,.88,10c-.49,0-1,.37-.86.87a1.07,1.07,0,0,0,1,1,2.71,2.71,0,0,1,2.22,1c.62,1,.62,2.74,0,4.85A7.26,7.26,0,0,0,4,24.18,5.22,5.22,0,0,0,8,26.52c.24,1.33.57,2.75,1,4.26h-2a1,1,0,0,0-1,1,.91.91,0,0,0,1,1H10.4c.25,0,.62-.12.62-.37a1.1,1.1,0,0,0,.12-.87c-2-6.47-2.22-11.32-.74-14.18a5.69,5.69,0,0,1,3.32-2.63,7.53,7.53,0,0,0,4,1.14,7.36,7.36,0,0,0,4-1.16A5.4,5.4,0,0,1,25,17.34q2.41,4.29-.74,14.18a1.1,1.1,0,0,0,.12.87.75.75,0,0,0,.74.37h3.34a.88.88,0,0,0,.86-1A1.07,1.07,0,0,0,28.31,30.78Zm-5.07-22a1.35,1.35,0,0,0,.08.2,5.73,5.73,0,0,1-.41,1.57,1.08,1.08,0,0,0-.05.11,5.68,5.68,0,0,1-1.57,2.06,1.15,1.15,0,0,0-.47.35,5.66,5.66,0,0,1-3.13.94,5.57,5.57,0,0,1-3.12-1,.93.93,0,0,0-.47-.35A5.75,5.75,0,0,1,12,8.26a6.92,6.92,0,0,1,.12-1.12A.94.94,0,0,0,12,6.52l-2.1-4,4.32.87A.81.81,0,0,0,15,3.28a5.55,5.55,0,0,1,5.56,0,1.56,1.56,0,0,0,.74.12l4.2-.87-2.1,4a1.13,1.13,0,0,0-.12.62,7.43,7.43,0,0,1,.12,1A.8.8,0,0,0,23.24,8.76Z"/>
<path class="cls-1" d="M20,25.43a1.07,1.07,0,0,0-1,1v5.35a1.07,1.07,0,0,0,1,1,1,1,0,0,0,1-1V26.42A1.07,1.07,0,0,0,20,25.43Z"/>
<path class="cls-1" d="M15.59,25.43a1.07,1.07,0,0,0-1,1v5.35a1.07,1.07,0,0,0,1,1,1,1,0,0,0,1-1V26.42A1.07,1.07,0,0,0,15.59,25.43Z"/>
</svg>
