<?xml version="1.0" encoding="utf-8"?>
<!-- Generator: Adobe Illustrator 18.1.1, SVG Export Plug-In . SVG Version: 6.00 Build 0)  -->
<svg version="1.1" id="Layer_1" xmlns="http://www.w3.org/2000/svg" xmlns:xlink="http://www.w3.org/1999/xlink" x="0px" y="0px"
	 viewBox="0 0 32 32" enable-background="new 0 0 32 32" xml:space="preserve">
<title>Cat</title>
<desc>Line drawing of a cat sitting up.</desc>
<g>
	<g>
		
			<line fill="none" stroke-linecap="round" stroke-linejoin="round" stroke-miterlimit="10" x1="16.9" y1="26.1" x2="16.9" y2="31.5"/>
		
			<line fill="none" stroke-linecap="round" stroke-linejoin="round" stroke-miterlimit="10" x1="21.4" y1="26.1" x2="21.4" y2="31.5"/>
	</g>
	<g>
		<path fill="none" stroke-linecap="round" stroke-linejoin="round" stroke-miterlimit="10" d="M23.2,13.1
			c5,1.4,7.2,6.7,3.5,18.4h3.4"/>
		<path fill="none" stroke-linecap="round" stroke-linejoin="round" stroke-miterlimit="10" d="M14.8,13.2
			C10,14.7,7.9,20,11.6,31.5H8.2"/>
	</g>
	<path fill="none" stroke-linecap="round" stroke-linejoin="round" stroke-miterlimit="10" d="M9.7,25.2
		c-3.9-0.1-5.8-3.6-4.5-7.5c1.3-4.1,0.3-7.1-3.3-7.2"/>
	<path fill="none" stroke-linecap="round" stroke-linejoin="round" stroke-miterlimit="10" d="M19,14.4
		c-3.7,0-6.8-3-6.8-6.7c0-0.6,0.1-1.3,0.1-1.3L9.1,0.5l6.5,1.4c0.9-0.6,2.2-1,3.4-1s2.5,0.3,3.4,1l6.5-1.4l-3.2,5.9
		c0,0,0.1,0.6,0.1,1.3C25.8,11.4,22.8,14.4,19,14.4z"/>
	
		<line fill="none" stroke-linecap="round" stroke-linejoin="round" stroke-miterlimit="10" x1="25.8" y1="8.1" x2="28.9" y2="7.7"/>
	
		<line fill="none" stroke-linecap="round" stroke-linejoin="round" stroke-miterlimit="10" x1="25.2" y1="10.4" x2="28.9" y2="11.1"/>
	
		<line fill="none" stroke-linecap="round" stroke-linejoin="round" stroke-miterlimit="10" x1="12" y1="8.1" x2="8.9" y2="7.7"/>
	
		<line fill="none" stroke-linecap="round" stroke-linejoin="round" stroke-miterlimit="10" x1="12.6" y1="10.4" x2="8.9" y2="11.1"/>
</g>
</svg>
