<svg xmlns="http://www.w3.org/2000/svg" viewBox="0 0 28.9 38.3">
<title>Cat</title>
<desc>Line drawing of a cat sitting up</desc>

  <path d="M12.7 38.3c-.4 0-.8-.4-.8-.8v-4.3c0-.4.4-.8.8-.8s.8.4.8.8v4.3c0 .5-.4.8-.8.8zM16.3 38.3c-.4 0-.8-.4-.8-.8v-4.3c0-.4.4-.8.8-.8s.8.4.8.8v4.3c0 .5-.4.8-.8.8zM23.1 38.3h-2.7c-.3 0-.5-.1-.6-.3s-.2-.5-.1-.7c1.7-5.3 1.9-9.1.6-11.4-.6-1.1-1.5-1.8-2.9-2.2-.4-.1-.7-.6-.6-1 .1-.4.6-.7 1-.6 1.7.5 3 1.5 3.8 3 1.4 2.5 1.3 6.4-.2 11.6H23c.4 0 .8.4.8.8s-.2.8-.7.8zM8.5 38.3H5.8c-.5 0-.8-.3-.8-.8s.4-.8.8-.8h1.6c-1.5-5.2-1.6-9.1-.2-11.6.8-1.5 2.1-2.5 3.8-3 .4-.1.9.1 1 .6s-.1.9-.6 1c-1.3.4-2.3 1.1-2.9 2.2-1.2 2.3-1 6.2.6 11.4.1.2 0 .5-.1.7 0 .2-.3.3-.5.3z"/><path d="M7 33.3c-1.6 0-2.9-.7-3.7-1.9-1-1.4-1.2-3.2-.6-5.2.5-1.7.5-3.1 0-3.9-.4-.5-1-.8-1.8-.8-.4 0-.8-.4-.8-.8-.1-.4.3-.7.7-.7 1.7 0 2.6.8 3.1 1.4.9 1.2 1 3.1.3 5.3-.4 1.4-.3 2.8.4 3.8.5.8 1.4 1.2 2.4 1.2.4 0 .8.4.8.8s-.4.8-.8.8zM14.4 24.7c-3.4 0-6.2-2.8-6.2-6.2v-.8l-2.4-4.5c-.1-.3-.1-.6.1-.9.2-.2.5-.3.8-.3l4.8 1.1c1.6-.9 4.1-.9 5.7 0L22 12c.3-.1.6 0 .8.3.2.2.2.6.1.9l-2.4 4.5v.8c0 3.4-2.7 6.2-6.1 6.2zM8.1 14l1.7 3.2c.1.1.1.3.1.5 0 0-.1.5-.1.9 0 2.5 2.1 4.6 4.6 4.6 2.5 0 4.6-2 4.6-4.6 0-.4-.1-.9-.1-.9 0-.2 0-.3.1-.5l1.7-3.2-3.4.7c-.2 0-.4 0-.6-.1-1.2-.8-3.3-.8-4.5 0-.2.1-.4.2-.6.1L8.1 14z"/><path d="M19.7 19.7c-.4 0-.7-.3-.8-.7-.1-.4.2-.8.7-.9l2.5-.4c.4-.1.8.2.9.7s-.2.8-.7.9l-2.5.4h-.1zM22.2 22.1h-.1l-3-.5c-.4-.1-.7-.5-.6-.9.1-.4.5-.7.9-.6l3 .5c.4.1.7.5.6.9-.1.3-.4.6-.8.6z"/><g><path d="M8.8 19.7h-.1l-2.5-.4c-.4-.1-.7-.5-.7-.9.1-.4.5-.7 1-.7l2.5.4c.4.1.7.5.7.9-.1.4-.5.7-.9.7z"/></g><g><path d="M6.3 22.1c-.4 0-.7-.3-.8-.7-.1-.4.2-.9.6-.9l3-.5c.4-.1.8.2.9.6.1.4-.2.9-.6.9l-3 .5c0 .1 0 .1-.1.1z"/></g></svg>
