<svg data-name="Layer 1" xmlns="http://www.w3.org/2000/svg" viewBox="0 0 100 100">
  <title>Chat Bubbles</title>
  <desc>Chat Bubbles</desc>
  <path d="M89.7 44.25A15.7 15.7 0 0 0 74.02 28.57H58.105a15.806 15.806 0 0 0-14.754 10.43 15.73 15.73 0 0 0-1.983-.14H25.452a15.68 15.68 0 0 0-.187 31.358v8.753a.856.856 0 0 0 1.405.657l11.264-9.405h3.434a15.7 15.7 0 0 0 14.748-10.432 15.666 15.666 0 0 0 1.988.14h3.433L72.8 69.34a.855.855 0 0 0 1.4-.656V59.93a15.7 15.7 0 0 0 15.5-15.68zM51.22 64.41a13.863 13.863 0 0 1-9.86 4.1h-3.745a.852.852 0 0 0-.55.2l-10.1 8.43v-7.773a.856.856 0 0 0-.853-.856h-.675a13.967 13.967 0 1 1 0-27.933h15.915a13.946 13.946 0 0 1 2.285.2c.006 0 .01.007.017.01a.793.793 0 0 0 .12.01 13.936 13.936 0 0 1 7.447 23.613zm22.8-6.19h-.673a.856.856 0 0 0-.854.855v7.78l-10.1-8.435a.857.857 0 0 0-.548-.2H58.1a14.07 14.07 0 0 1-1.5-.09 15.672 15.672 0 0 0-11.554-18.81A14.087 14.087 0 0 1 58.1 30.287h15.915a13.97 13.97 0 0 1 .004 27.934z" />
  <circle cx="24.844" cy="54.5" r="1.438" />
  <circle cx="33.437" cy="54.5" r="1.438" />
  <circle cx="42.031" cy="54.5" r="1.438" />
  <circle cx="57.562" cy="44.125" r="1.438" />
  <circle cx="66.156" cy="44.125" r="1.438" />
  <circle cx="74.75" cy="44.125" r="1.437" />
</svg>
