<?xml version="1.0" encoding="UTF-8"?>
<svg width="16px" height="16px" viewBox="0 0 16 16" version="1.1" xmlns="http://www.w3.org/2000/svg" xmlns:xlink="http://www.w3.org/1999/xlink">
    <title>Checkmark variant 2</title>
    <desc>A "verified" checkmark</desc>
    <g id="Page-1" stroke="none" stroke-width="1" fill="none" fill-rule="evenodd">
        <g id="verified" fill-rule="nonzero">
            <g id="verified-check" fill="#6BA5D5">
                <circle id="Oval-4" cx="8" cy="8" r="8"></circle>
            </g>
            <path d="M11.793887,5.20161367 C11.6609543,5.07158289 11.4842777,5 11.2963424,5 C11.1084072,5 10.9316719,5.07158289 10.7987393,5.20161367 L6.65243715,9.25746133 L5.20120208,7.83790605 C5.06832808,7.70787527 4.89159276,7.63629237 4.70365755,7.63629237 C4.51572235,7.63629237 4.33898703,7.70787527 4.20611302,7.83790605 C4.07318039,7.96793683 4,8.14075674 4,8.32458941 C4,8.50847944 4.07318039,8.68129935 4.20611302,8.81133013 L5.82317672,10.3930941 L6.2960346,10.8556297 C6.39120428,10.9487792 6.51774536,11 6.65243715,11 C6.78701165,11 6.91361138,10.9487792 7.00878106,10.8556297 L7.48169757,10.3930941 L11.793887,6.17503776 C11.9268196,6.04500698 12,5.87212971 12,5.68829704 C12,5.50446437 11.9268196,5.33164446 11.793887,5.20161367" id="Fill-1" fill="#FFFFFF"></path>
        </g>
    </g>
</svg>