<svg xmlns="http://www.w3.org/2000/svg" width="78.2" height="27" viewBox="0 0 78.2 27"><g fill="#7D7D7D"><title>City AM</title><desc>City AM Logo</desc><path d="M6.8 4.8c.6.2 1.2.4 1.6.8.2.2.4.4.7.6.1-.2.3-.4.4-.7.1-.4.3-.5.7-.4v4.7h-.5C9.5 9 9.3 8.3 9 7.6c-.4-.9-.9-1.7-1.8-2-.9-.2-1.7-.2-2.4.5-.3.4-.5.9-.6 1.4-.1.8-.2 1.6-.2 2.4v8.2c0 .7.2 1.4.4 2 .6 1.5 2.5 1.8 3.6.7.7-.7 1.2-1.6 1.4-2.6l.3-1.2h.5v4.9c-.3 0-.5.1-.7-.2l-.5-.5c-.7.3-1.3.5-2 .8-.1 0-.2.1-.3.1H5.2l-.1-.1c-.7-.1-1.3-.4-1.9-.7C1.3 20 .4 18.1 0 15.9c-.1-.4-.1-.7-.2-1.1v-2.6l.1-.1c.2-1 .5-2.1 1-3.1.6-1.5 1.6-2.7 3-3.5.5-.3 1-.5 1.6-.7h1.3zM76.6 21.9h-2v-2h2v2zM73 21.2h1v.7h-5.7v-.7h1.3V6.3c-.2.9-.5 1.9-.7 2.8-.6 2.5-1.3 5-1.9 7.4-.4 1.7-.9 3.4-1.3 5.1-.1.2-.1.2-.3.2-.5 0-.5 0-.7-.5-.9-3.6-1.7-7.2-2.6-10.8-.4-1.5-.7-3-1.1-4.4v15.1h1.1c.3 0 .3.2.2.3 0 .2.1.4-.3.4h-2.8c-.3 0-.3-.2-.3-.3 0-.2-.1-.4.2-.4h.9V5.8h-.8c-.3 0-.4-.1-.3-.3v-.3h5l2.4 10.2h.1c.9-3.4 1.8-6.8 2.6-10.2h4.8v.7h-1c.2 5 .2 10.1.2 15.3zM25.8 21.2h1.8v.5c0 .1-.2.1-.2.1h-6.8v-.7h1.7V5.7c-.8-.1-1.6.1-2.1.8-.6.7-.9 1.6-1.1 2.5-.1.5-.1.9-.2 1.2 0 .2-.1.3-.3.2h-.3c-.2 0-.2-.1-.2-.2 0-.5 0-1 .1-1.5 0-1.1.1-2.3.1-3.4v-.2h11.5c.1 1.8.1 3.6.2 5.4h-.7c-.2-1.2-.4-2.3-1-3.4-.3-.6-.8-1.1-1.5-1.3-.3-.1-.6-.1-1-.1v15.5zM30.5 5.8v-.7H36v.7h-1c1 2.3 1.9 4.6 2.9 7 1-2.4 1.9-4.7 2.9-7h-.9c-.3 0-.4-.1-.3-.3v-.4h3c.1.6.1.7-.6.6-.4 0-.5.2-.6.5-.9 2.4-1.9 4.7-2.9 7.1-.1.1-.1.3-.1.4v7.5h1.3c.3 0 .2.2.2.3 0 .1.1.4-.2.4h-6.2-.1v-.6h1.4V21v-6.3c0-.2 0-.3-.1-.5-1.1-2.7-2.2-5.4-3.2-8.1-.1-.2-.2-.3-.4-.3h-.6zM49.3 5.1h1.1c.2.8.4 1.6.7 2.5 1 3.6 2 7.2 2.9 10.8.2.9.5 1.7.7 2.6 0 .2.1.2.2.2h.7v.7h-5.2c-.4 0-.4 0-.4-.4v-.3h1.2c-.4-1.5-.8-2.9-1.2-4.3H46.9c-.1 0-.3.1-.3.2-.4 1.3-.7 2.6-1.1 3.9v.2h1.3c.3 0 .2.2.2.4s.1.4-.2.4h-3.1c-.3 0-.2-.2-.2-.4s0-.3.2-.3h1c1.6-5.5 3.1-10.9 4.6-16.2zm-.8 5.7c-.5 1.8-1 3.6-1.5 5.3h2.9c-.5-1.8-.9-3.5-1.4-5.3zM11.2 21.8v-.6h1.3V5.8h-1c-.3 0-.4-.1-.4-.4v-.3h6.2v.1c.1.6.1.6-.5.6H16v15.4h1.1c.3 0 .3.1.2.3 0 .2.1.4-.2.4h-5.8l-.1-.1zM56.3 19.9h2v1.9h-2v-1.9z"/></g></svg>