<?xml version="1.0" encoding="UTF-8"?>
<svg width="14px" height="14px" viewBox="0 0 14 14" version="1.1" xmlns="http://www.w3.org/2000/svg" xmlns:xlink="http://www.w3.org/1999/xlink">
    <!-- Generator: Sketch 48.2 (47327) - http://www.bohemiancoding.com/sketch -->
    <title>Close</title>
    <g stroke="none" stroke-width="1" fill-rule="evenodd" transform="translate(-346.000000, -17.000000)">
        <g transform="translate(346.000000, 17.000000)" fill-rule="nonzero">
            <path d="M0.48493709,1.54559726 C0.192043871,1.25270404 0.192043871,0.777830308 0.48493709,0.48493709 C0.777830308,0.192043871 1.25270404,0.192043871 1.54559726,0.48493709 L13.5186552,12.457995 C13.8115484,12.7508883 13.8115484,13.225762 13.5186552,13.5186552 C13.225762,13.8115484 12.7508883,13.8115484 12.457995,13.5186552 L0.48493709,1.54559726 Z" id="Line"></path>
            <path d="M0.48493709,1.54559726 C0.192043871,1.25270404 0.192043871,0.777830308 0.48493709,0.48493709 C0.777830308,0.192043871 1.25270404,0.192043871 1.54559726,0.48493709 L13.5186552,12.457995 C13.8115484,12.7508883 13.8115484,13.225762 13.5186552,13.5186552 C13.225762,13.8115484 12.7508883,13.8115484 12.457995,13.5186552 L0.48493709,1.54559726 Z" id="Line" transform="translate(7.001796, 7.001796) scale(1, -1) translate(-7.001796, -7.001796) "></path>
        </g>
    </g>
</svg>
