<?xml version="1.0" encoding="utf-8"?>
<!-- Generator: Adobe Illustrator 19.1.0, SVG Export Plug-In . SVG Version: 6.00 Build 0)  -->
<svg version="1.1" id="Layer_1" xmlns="http://www.w3.org/2000/svg" xmlns:xlink="http://www.w3.org/1999/xlink" x="0px" y="0px"
	 viewBox="0 0 190 27" style="enable-background:new 0 0 190 27;" xml:space="preserve">
<g>
	<g>
		<path  d="M83.9,13.5c-0.3-1.7-1.7-2.1-3.2-2.3c-4.9-0.5-5.8,3.2-5.8,4.8c0,2.7,0.8,4.9,5.6,4.9c0.9,0,3.4-0.9,3.4-2.4
			h7c-0.3,4.4-7.7,5.5-11,5.5c-6.7,0-12.5-1.3-12.2-7.9c0.2-4.7,4.7-8.1,13.6-7.9c5,0.1,9.7,1.7,9.7,5.3H83.9L83.9,13.5z"/>
		<path  d="M153.7,13.5c-0.3-1.7-1.7-2.1-3.2-2.3c-4.9-0.5-5.8,3.2-5.8,4.8c0,2.7,0.8,4.9,5.6,4.9c0.9,0,3.4-0.9,3.4-2.4
			h7c-0.3,4.4-7.7,5.5-11,5.5c-6.7,0-12.5-1.3-12.2-7.9c0.2-4.7,4.7-8.1,13.6-7.9c5,0.1,9.7,1.7,9.7,5.3H153.7L153.7,13.5z"/>
		<polygon  points="92.2,8.5 101.2,8.5 108.9,19.4 109,19.4 109,8.5 114.8,8.5 114.8,23.6 106.1,23.6 98,12.8 98,12.8 
			98,23.6 92.2,23.6 92.2,8.5 		"/>
		<path  d="M116.6,8.5h11c5.3,0,8.4,1.5,8.4,3.7c0,1.3-1.3,2.9-4.2,3.4v0c3.5,0.2,4.8,2.4,4.8,3.7c0,2.7-3,4.1-8.9,4.1
			h-11V8.5L116.6,8.5L116.6,8.5z M122.9,14.4h1.8c2.8,0,4.3-0.2,4.3-1.4c0-1.3-1.2-1.7-3.8-1.7h-2.4V14.4L122.9,14.4L122.9,14.4z
			 M122.9,20.4h1.8c3.4,0,4.6-0.4,4.6-1.5c0-1.3-1.6-1.7-4.1-1.7h-2.4V20.4L122.9,20.4z"/>
	</g>
	<g>
		<g>
			<path  d="M59.6,14.9l-10.4,6.9l3.5-8.3l1.7-3.9c0.7-1.2,1.9-2,3.3-2.1c1.3,0,2.5,0.6,3.2,1.8c0.8,1.1,0.8,3,0,4.2
				C60.6,14.1,60.1,14.6,59.6,14.9L59.6,14.9z"/>
		</g>
		<g>
			<path  d="M54.5,8.4l-5.1,12.1l-0.2-1.3l-1.5-9.9c-0.1-0.6,0.2-1.1,0.7-1.5L49,7.4c0-0.2-0.2-0.2-0.3-0.3l-1.4,0
				c-0.1-1.4,0.5-2.7,1.7-3.5c0.9-0.6,2.4-0.8,3.4-0.3c1.4,0.6,2.3,2,2.3,3.5C54.8,7.3,54.7,7.9,54.5,8.4L54.5,8.4z"/>
		</g>
		<g>
			<path  d="M44.6,20.6L39.6,8.4c-0.5-1.3-0.3-3,0.6-4.1c1-1.1,2.4-1.6,3.8-1.2c1.2,0.3,2.4,1.5,2.7,2.7
				c0.1,0.5,0.1,1,0.1,1.5L44.6,20.6L44.6,20.6z"/>
		</g>
		<g>
			<path  d="M33.8,14.5c-1-0.9-1.5-2.1-1.4-3.5c0.1-1.4,1.3-2.8,2.6-3.2c1.4-0.4,2.8-0.1,3.8,0.9
				c0.4,0.4,0.7,0.9,0.9,1.3l4.9,11.8L33.8,14.5L33.8,14.5z"/>
		</g>
		<g>
			<path  d="M32.7,23.1c-1.3-0.2-2.4-0.9-3-2.1c-0.6-1.2-0.5-3,0.4-4.1c0.9-1.1,2.3-1.7,3.7-1.4c0.6,0.1,1,0.3,1.5,0.6
				l10.5,7.1L32.7,23.1L32.7,23.1z"/>
		</g>
		<g>
			<path  d="M61.2,23.1c1.4-0.2,2.4-0.9,3-2.1c0.6-1.2,0.5-3-0.4-4.1c-0.9-1.1-2.3-1.7-3.7-1.4c-0.6,0.1-1,0.3-1.5,0.6
				l-10.5,7.1L61.2,23.1L61.2,23.1z"/>
		</g>
	</g>
</g>
</svg>
