<?xml version="1.0" encoding="utf-8"?>
<!-- Generator: Adobe Illustrator 21.0.2, SVG Export Plug-In . SVG Version: 6.00 Build 0)  -->
<svg version="1.1" xmlns="http://www.w3.org/2000/svg" xmlns:xlink="http://www.w3.org/1999/xlink" x="0px" y="0px"
	 viewBox="0 0 644.3 162.8" style="enable-background:new 0 0 644.3 162.8;" xml:space="preserve">
<title>CNews</title><desc>Cnews Logo</desc>
<g id="Layer_2">
</g>
<g id="_x31_">
	<g>
		<path class="st0" d="M0,0v162.8h644.3V0H0z M121.3,60.1c-4-3.4-8.3-6.1-13-7.8c-4.7-1.8-9.5-2.7-14.6-2.7c-8.6,0-15.7,3-21.2,9
			c-5.6,6-8.4,13.6-8.4,22.9c0,8.4,2.3,14.9,7,19.5c4.7,4.6,11.3,6.9,19.8,6.9c3.7,0,7.5-0.4,11.4-1.3c3.9-0.9,8-2.2,12.3-4
			l-4.3,26.8c-3.5,1.1-7.4,2-11.7,2.6c-4.3,0.6-8.9,0.9-13.8,0.9c-14.8,0-26.6-4.6-35.5-13.7C40.4,110,36,97.9,36,82.7
			c0-7.3,1.1-14.3,3.4-20.9c2.3-6.6,5.7-12.7,10.1-18.1c5.2-6.3,11.7-11.2,19.4-14.5c7.8-3.4,16.5-5,26.1-5c5.5,0,10.8,0.6,15.9,1.8
			c5.1,1.2,10.1,3,15.1,5.5L121.3,60.1z M634.5,153.5H160V9.5h474.5V153.5z"/>
		<g>
			<path class="st0" d="M292.4,26.8v105.1h-27.5c0,0-49-68.7-48.9-63.9c0.5,19.4,1.3,63.9,1.3,63.9h-27.6V26.8h27.6
				c0,0,48.1,63.2,48,61c-0.3-3.4-0.4-6.5-0.4-9.1V26.8H292.4z"/>
			<polygon class="st0" points="338,49.8 338,68 369.4,68 369.4,90.6 338,90.6 338,108.3 371.3,108.3 371.3,131.8 312.5,131.8 
				312.5,26.7 371.3,26.7 371.3,49.8 			"/>
			<path class="st0" d="M535.2,26.6l-31.8,105.1H475l-13.9-44.9c-1-3.3-1.8-6.4-2.5-9.3c-0.1-0.3-0.2-0.9-0.5-1.7
				c-0.3-0.9-0.5-1.9-0.8-3.1c-0.1,0.3-0.5,1.7-1.1,4.2c-0.9,3.8-1.8,7.1-2.7,9.8l-13.7,44.9h-28.5L380,26.7h30.9l12.9,50.2
				c0.4,1.7,1,4.3,1.8,7.8c0.8,3.7,1.4,6.4,1.6,7.9c0.7-3,1.2-5.1,1.5-6.3c0.9-3.9,1.7-7.1,2.4-9.4l14.1-50.2H470l14.1,50
				c0.6,2,1.3,4.4,1.9,7c0.2,1,0.5,2.3,0.8,4.1c0.4,1.8,0.6,3.2,0.8,4.3c0.7-3.1,1.4-6.2,1.9-9.3c0.3-1.5,0.8-3.5,1.6-6.2l13.2-50
				H535.2z"/>
			<path class="st0" d="M611,97.6c0,11.1-3.6,20.1-10.8,26.9c-7.3,6.7-16.9,10.1-28.8,10.1c-7.3,0-13.9-1.2-19.7-3.7
				c-5.8-2.4-11.5-6.4-17.1-11.8l12.7-21.3c4.3,4.9,8.5,8.5,12.4,10.8c4.1,2.4,8.2,3.6,12.1,3.6c3.7,0,6.8-1,9.2-3.1
				c2.4-2.1,3.7-4.7,3.7-7.8c0-3.4-1-6.1-3-8.1c-2.2-1.9-6.9-3.8-14.3-5.8c-10.1-2.8-17.2-6.4-21.4-10.8c-4.2-4.5-6.3-10.6-6.3-18.4
				c0-10,3.3-18.2,10-24.5c6.5-6.4,15.1-9.5,25.7-9.5c6,0,11.4,0.8,16.2,2.4c5.1,1.6,9.9,3.9,14.5,7l-8.9,20.6
				c-3.1-2.7-6.4-4.8-9.9-6.3c-3.4-1.4-6.7-2.1-9.9-2.1c-3.3,0-6,0.8-8.3,2.5c-2.1,1.6-3.2,3.7-3.2,6.3c0,2.5,0.9,4.6,2.8,6.3
				c1.9,1.6,5.6,3.1,10.9,4.5c0.2,0,0.4,0.1,0.5,0.1c0.1,0,0.4,0.1,0.6,0.2c11.5,3.1,19.1,6.6,22.8,10.5c2.4,2.4,4.3,5.5,5.7,9.3
				C610.4,89,611,93.1,611,97.6z"/>
		</g>
	</g>
</g>
</svg>
