<?xml version="1.0" encoding="UTF-8"?>
<svg width="32px" height="31px" viewBox="0 0 32 31" version="1.1" xmlns="http://www.w3.org/2000/svg" xmlns:xlink="http://www.w3.org/1999/xlink">
    <!-- Generator: Sketch 48.2 (47327) - http://www.bohemiancoding.com/sketch -->
    <title>Compare</title>
    <g id="nav2" stroke="none" stroke-width="1" fill-rule="evenodd" transform="translate(-254.000000, -256.000000)">
        <g id="noun_777741_cc" transform="translate(254.000000, 256.000000)" fill-rule="nonzero">
            <g id="Group">
                <g id="Shape">
                    <path d="M1.5716185,23.5 L31,23.5 C31.2761424,23.5 31.5,23.2761424 31.5,23 C31.5,22.7238576 31.2761424,22.5 31,22.5 L1.5716185,22.5 L7.86653571,15.8248711 C8.0444881,15.6361704 8.0444881,15.3302262 7.86653571,15.1415255 C7.68858331,14.9528248 7.40006548,14.9528248 7.22211309,15.1415255 L0.133464294,22.6583272 C-0.044488098,22.8470279 -0.044488098,23.1529721 0.133464294,23.3416728 L7.22211309,30.8584745 C7.40006548,31.0471752 7.68858331,31.0471752 7.86653571,30.8584745 C8.0444881,30.6697738 8.0444881,30.3638296 7.86653571,30.1751289 L1.5716185,23.5 Z M29.9283815,8.5 L0.5,8.5 C0.223857625,8.5 0,8.27614237 0,8 C0,7.72385763 0.223857625,7.5 0.5,7.5 L29.9283815,7.5 L23.6334643,0.824871117 C23.4555119,0.636170438 23.4555119,0.330226188 23.6334643,0.141525509 C23.8114167,-0.0471751698 24.0999345,-0.0471751698 24.2778869,0.141525509 L31.3665357,7.6583272 C31.5444881,7.84702788 31.5444881,8.15297212 31.3665357,8.3416728 L24.2778869,15.8584745 C24.0999345,16.0471752 23.8114167,16.0471752 23.6334643,15.8584745 C23.4555119,15.6697738 23.4555119,15.3638296 23.6334643,15.1751289 L29.9283815,8.5 Z"></path>
                </g>
            </g>
        </g>
    </g>
</svg>
