<?xml version="1.0" encoding="utf-8"?>
<!-- Generator: Adobe Illustrator 19.2.1, SVG Export Plug-In . SVG Version: 6.00 Build 0)  -->
<svg version="1.1" id="Layer_1" xmlns="http://www.w3.org/2000/svg" xmlns:xlink="http://www.w3.org/1999/xlink" x="0px" y="0px" viewBox="0 0 28 26" style="enable-background:new 0 0 28 26;" xml:space="preserve">
<title>Contact Icon</title>
<desc>Icon for Contacts</desc>
<path d="M20,12.7c0.9-1.3,1.5-2.8,1.5-4.5c0-4.1-3.4-7.5-7.5-7.5S6.5,4.1,6.5,8.2c0,1.7,0.6,3.2,1.5,4.5c-4.2,2.2-7,6.5-7,11.5
	c0,0.6,0.4,1,1,1h24c0.6,0,1-0.4,1-1C27,19.2,24.2,14.9,20,12.7z M14,2.8c3,0,5.5,2.5,5.5,5.5c0,1.6-0.7,3.1-1.9,4.1
	c-1,0.9-2.2,1.4-3.6,1.4c-1.2,0-2.4-0.4-3.3-1.1c-1.3-1-2.2-2.6-2.2-4.4C8.5,5.2,11,2.8,14,2.8z M3,23.2c0.4-4,2.9-7.4,6.4-9
	c1.3,1,2.8,1.5,4.5,1.5c1.7,0,3.3-0.6,4.5-1.5c3.5,1.6,6.1,5,6.4,9H3z"/>
</svg>
