<svg xmlns="http://www.w3.org/2000/svg" viewBox="0 0 270 56">
	<title>Das Ideale Heim Logo</title>
	<desc>Das Ideale Heim Logo</desc>
  <path d="M267.1 48.7c-.2 0-.4-.2-.9-.2-2.2-.2-2.2-1.1-2.2-2.7 0-4.7-.2-9.6-.4-14.2v-4.2c0-1.8 1.1-2.7 2.9-2.9h.4c.2 0 .4-.2.4-.4s-.2-.4-.4-.4H262c-.4 0-.9.2-1.1.7-.7 1.6-1.6 3.3-2.2 4.9-2 4.2-4 8.2-6 12.5-.4.7-.7 1.3-1.1 2.2-.2-.7-.4-1.1-.7-1.8-1.6-3.3-2.9-6.7-4.4-10-1.1-2.7-2.4-5.3-3.6-8-.2-.2-.4-.4-.7-.4h-5.7c-.2 0-.2.2-.4.4.2.2.2.4.4.4h.9c1.1.2 2 .4 2.2 2 0 .7.2 1.1.2 1.8 0 3.3-.2 6.7-.2 10 0 2.4-.2 5.1-.4 7.6 0 1.1-.7 2.2-2 2.7-.2 0-.7 0-.9.2-.2.2-.2.4-.4.7.2 0 .4.2.7.2h7.1c.2 0 .4-.2.7-.2 0-.2-.2-.4-.4-.4s-.7 0-.9-.2c-.7-.2-1.3-.7-1.8-1.3-.4-.9-.4-2-.4-3.1 0-5.3.2-10.7.2-15.8v-.4h.2c.2.4.4.7.4 1.1 1.6 3.3 2.9 6.7 4.4 10.2.9 1.8 1.6 3.6 2.4 5.3.7 1.3 1.1 2.9 1.8 4.2 0 .2.2.4.4.4l.4-.4c1.1-2.4 2-4.7 3.1-7.1 1.8-4 3.8-7.8 5.6-11.8.2-.4.4-1.1.7-1.6h.2v.9c0 5.6.2 11.3.2 16.9v.9c0 .7-.4 1.1-1.1 1.3-.7.2-1.3.2-2 .4-.2 0-.2.2-.4.4l.4.4h9.1c.2 0 .2-.2.4-.4 0-.6-.2-.8-.2-.8zm-75.5-24.3c.2 0 .4 0 .4-.4s-.2-.4-.7-.4H182c-.2 0-.2.2-.4.2.2.2.2.4.4.4.4 0 .9 0 1.3.2 1.1.2 1.8.7 2 1.8 0 .4.2 1.1.2 1.6v6.5c0 .9 0 .9-.9.9h-14.4c-.7 0-.7 0-.7-.7v-7.7c0-1.3.7-2 2-2.2h.9c.2 0 .4 0 .4-.4s-.2-.2-.4-.2h-9.3c-.2 0-.2.2-.4.2.2.2.2.4.4.4h.9c.9.2 1.3.4 1.6 1.3 0 .4.2.9.2 1.6v18c0 .7 0 1.1-.2 1.8s-.7 1.1-1.1 1.1c-.4.2-.9.2-1.3.2-.2 0-.4 0-.4.4s.2.4.4.4h9.5c.2 0 .4 0 .4-.4s-.2-.4-.4-.4c-.4 0-.9-.2-1.6-.2-.7 0-1.3-.4-1.6-1.3-.2-.4-.2-.9-.2-1.3v-8.5c0-.4.2-.7.7-.7h14.9c.7 0 .7 0 .7.7v7.8c0 .7-.2 1.1-.2 1.8 0 .9-.9 1.6-1.8 1.6-.4 0-1.1 0-1.6.2-.2 0-.2.2-.4.4l.4.4h9.3c.2 0 .9.2.9-.4 0-.7-.4-.4-.9-.4-1.3-.2-2.2-.4-2.2-2.2V26.9c.1-2 1-2.3 2.5-2.5zM39 26.9c-3.1-2-6.5-2.9-10-3.1H17.9c-.2 0-.2.2-.4.2.2.2.2.4.4.4h.9c.7 0 1.3.4 1.3 1.1.2.7.2 1.1.2 1.8v19.1c-.2 1.1-.7 1.8-1.6 2-.7 0-1.1.2-1.8.2-.2 0-.4.2-.4.4 0 .4.2.4.4.4h12.9c2 0 4-.2 5.8-.9 3.8-1.3 6.5-3.6 7.8-7.3.9-2.7.9-5.3 0-8.2-.4-2.6-2.1-4.6-4.4-6.1zm1.4 12c-.4 3.8-2 6.7-5.6 8.5-2.4 1.3-5.3 1.6-8 1.1-.4 0-1.1-.2-1.6-.4-.9-.4-1.3-1.1-1.3-2.2v-18c0-.7 0-1.1.2-1.8.2-1.1.9-1.6 2-1.6 2.9-.2 5.6 0 8.2 1.3s4.4 3.6 5.6 6.2c.5 2.4.7 4.6.5 6.9zm109.9 4.9c-.4.7-.9 1.3-1.3 2-1.1 2-2.9 2.7-5.1 2.7h-7.4c-.9-.2-1.1-.7-1.1-1.6v-10c0-.4 0-.4.4-.4h5.3c1.1 0 2 .4 2.4 1.6.2.7.4 1.1.4 1.8 0 .2 0 .7.4.7s.4-.4.4-.7v-7.3c0-.2 0-.7-.4-.7s-.3.1-.3.3c0 .2-.2.4-.2.7-.4 1.6-.9 2-2.4 2.2-1.8.2-3.6 0-5.3.2-.7 0-.7-.2-.7-.7v-8.2c0-1.1.2-1.6 1.3-1.6h5.6c1.6 0 2.9.7 4 1.6.4.4.9 1.1 1.6 1.6.2.2.4.2.7.2 0-.2.2-.4 0-.7-.2-1.1-.4-2-.4-3.1-.2-.9-.2-.9-.9-.9H129c-.2 0-.2.2-.4.4l.4.4c.4 0 .9 0 1.3.2.7.2 1.3.4 1.6 1.1-.2.7 0 1.3 0 2v16.9c0 .9 0 1.6-.2 2.4-.2.9-.7 1.3-1.6 1.6-.4 0-1.1 0-1.6.2-.2 0-.4.2-.4.4s.2.2.4.4h21.1c.2 0 .7 0 .7-.4.4-1.8.7-3.6 1.1-5.6-.7-.2-.9 0-1.1.3zm-80.6 0c-.4.7-.7 1.1-1.1 1.8-1.1 1.8-2.4 2.9-4.4 2.9h-7.6c-1.3 0-1.8-.4-1.8-1.8v-9.5c0-.2 0-.4.4-.4h5.6c1.1 0 1.8.7 2.2 1.6.2.7.4 1.1.4 1.8 0 .2.2.4.4.4.4 0 .4-.2.4-.7v-7.5c0-.2-.2-.4-.4-.4s-.4.2-.4.4c-.2.2-.2.4-.2.7-.4 1.1-.7 2.2-2.4 2.2-1.8 0-3.8 0-5.6.2-.4 0-.4-.2-.4-.7v-8.5c0-.4.2-1.1.7-1.3.4 0 .7-.2 1.1-.2h4.2s2.9.2 4 1.1c.9.7 1.3 1.3 2.2 2 .2.2.4.2.7.4 0-.2.2-.4.2-.7-.2-.9-.4-2-.4-2.9-.2-.9-.2-.9-1.1-.9h-18c-.2 0-.2.2-.4.4.2.2.2.4.4.4.4 0 .9 0 1.1.2.9.2 1.6.4 1.8 1.3.2.7.2 1.1.2 1.8 0 5.8 0 11.6-.2 17.4 0 .7 0 1.3-.2 2 0 .7-.4 1.1-1.1 1.3s-1.3.2-2 .4c-.4 0-.7.2-.4.4 0 .2.2.2.4.2h20.7c.4 0 .7 0 .7-.4.4-1.8.7-3.6 1.1-5.6-.3-.3-.5-.1-.8.2zm148.2 0c-.4.7-.9 1.3-1.3 2-1.1 2-2.9 2.7-5.1 2.7h-6.2c-.4 0-.9 0-1.3-.2-.7-.2-.9-.7-.9-1.1V37c0-.2.2-.4.4-.4h5.3c1.3 0 2.2.7 2.7 2 0 .4.2.9.2 1.3 0 .2.2.4.7.4.2 0 .2-.4.2-.4v-7.6c0-.2 0-.4-.4-.7-.4 0-.4.2-.7.4 0 .4-.2.9-.4 1.3-.2.9-.9 1.6-2 1.6-1.8 0-3.8.2-5.6.2-.4 0-.7-.2-.7-.7v-8.2c0-1.3.2-1.6 1.6-1.8h4.6c1.6 0 2.9.2 4.2 1.1.9.7 1.3 1.3 2.2 2.2.2.2.4.2.7.2 0-.2.2-.4.2-.4-.2-1.1-.4-2.2-.7-3.3 0-.4-.4-.7-.9-.7h-18.2c-.2 0-.4.2-.4.4s.2.4.4.4h1.1c.7.2 1.3.4 1.6 1.1.2.4.2 1.1.2 1.6v16.7c0 .9 0 1.8-.2 2.7 0 1.1-.7 1.6-1.8 1.8-.4 0-.9 0-1.3.2-.2 0-.4.2-.4.4 0 .4.2.4.4.4h20.6c.7 0 .7-.2.9-.7.2-1.6.7-3.1.9-4.7v-.7c-.2.4-.6.4-.6.7zM99.1 48.7c-1.6-.2-2.4-1.1-3.1-2.4-.7-1.6-1.3-3.1-2-4.7-1.1-2.9-2.2-5.8-3.3-8.9-.7-1.8-1.6-3.8-2.2-5.8-.4-.9-.7-1.8-.9-2.7 0-.2-.2-.7-.7-.7-.2 0-.7.2-.7.4-.7.9-1.1 1.8-1.8 2.7 0 .2-.2.2-.2.4-.2.9-.7 2-.9 2.9-1.1 2.9-2.2 6-3.3 8.9-.9 2.2-1.8 4.2-2.7 6.5-.7 1.6-1.6 3.1-3.6 3.6-.2 0-.2.4-.4.4.2 0 .4.2.7.2h6.7c.2 0 .4 0 .4-.2s-.2-.4-.4-.4c-.4-.2-.9-.2-1.1-.2-1.1-.7-1.6-1.8-1.1-2.9.7-2 1.3-3.8 2-5.8.2-.4.4-.7.9-.7h7.8c.4 0 .7.2.9.7 0 .2 0 .2.2.4.7 2 1.3 3.8 2 5.8.4 1.3 0 2-1.3 2.2-.2 0-.4 0-.7.2-.2 0-.7 0-.7.7 0 .4.4.2.7.2h8.8c.4 0 .7-.2.4-.7 0-.1-.2-.1-.4-.1zM88.6 38.2h-6.9c-.4 0-.7-.2-.4-.7.7-1.6 1.1-2.9 1.6-4.4.7-1.8 1.3-3.3 2-5.1 0-.2.2-.4.4-.7.4 1.3.9 2.4 1.3 3.8.9 2 1.6 4.2 2.4 6.2.3.9.3.9-.4.9zm36.1 5.3c-.4.4-.7.9-1.1 1.3-1.3 1.8-3.1 2.9-5.1 3.3-2.2.4-4.7.2-7.1.2-.9 0-1.3-.4-1.6-1.3 0-.4-.2-.9-.2-1.6V27c.2-1.6.4-2.4 2.4-2.7h1.1c.2 0 .2-.2.2-.4s-.2-.2-.2-.4h-9.6c-.2 0-.7 0-.7.4s.4.4.7.4h.9c.7.2 1.3.7 1.6 1.3.2.7.2 1.1.2 1.8v17.4c0 .7 0 1.3-.2 1.8-.2 1.1-.7 1.6-1.8 1.8-.7 0-1.1 0-1.8.2-.2 0-.2.2-.2.4s.2.2.4.4h.4c6.9 0 13.8.2 20.7.2.4 0 .4-.2.7-.4.4-1.8.7-3.6 1.1-5.3 0-.2 0-.4-.2-.7-.2.1-.6.1-.6.3zM12.3 23.7H3.2l-.4.4c.2.3.2.3.4.5.2 0 .7 0 .9.2.7-.2 1.3.2 1.6.9.2.4.2.9.2 1.6v18.9c0 .4-.2 1.1-.4 1.6-.4.9-1.3.9-2.2 1.1-.2 0-.7 0-.4.4 0 .4.4.2.7.2h8.7c.2 0 .2-.2.4-.4-.2-.2-.2-.4-.4-.4-.4 0-.7-.2-1.1-.2-.7 0-1.1-.4-1.3-1.1-.2-.4-.2-.9-.2-1.6V26.4c0-1.3.7-1.8 2-2 .4 0 .9 0 1.1-.2.2 0 .2-.2.4-.4-.4.2-.4-.1-.9-.1.3 0 0 0 0 0zm218.7 0h-9.1c-.2 0-.4 0-.4.4s.2.4.4.4h.9c.7.2 1.3.4 1.6 1.3.2.7.2 1.3.2 1.8v19c0 1.1-.7 1.6-1.6 1.8-.4 0-.7 0-1.1.2-.2 0-.2.2-.4.4.2.2.2.4.4.4h8.9c.2 0 .4-.2.4-.4s-.2-.4-.2-.4c-.4 0-.9-.2-1.1-.2-.7 0-1.1-.4-1.3-1.1-.2-.7-.2-1.1-.2-1.8v-18c0-.7.2-1.3.2-1.8 0-.7.4-1.1 1.1-1.1.7-.2 1.1-.2 1.8-.2.2 0 .7 0 .4-.4-.2-.3-.7-.3-.9-.3zM59.1 16.4c0 .4-.2.7-.7.9-.2 0-.4.2-.9.2v.2h4.3c1.1 0 2.4 0 3.6-.2 2.4-.4 4-1.8 4.4-4.2.4-1.8 0-3.3-1.3-4.7-1.6-1.6-3.3-2.2-5.3-2.2h-5.1c1.3.7 1.3.7 1.3 2v7.3c-.3.3-.3.5-.3.7zm1.5-4.4V8.2c0-1.1.2-1.6 1.3-1.6 2-.2 4.2.4 5.3 2.7 1.1 2 .9 5.1-.7 6.7-1.6 1.6-3.3 1.8-5.3 1.3-.2-.2-.7-.7-.7-1.3.1-1.4.1-2.7.1-4zm12.3 1.7c0-.2.4-.4.7-.4h3.1c.2 0 .4 0 .4.2.4 1.1.7 2 1.1 3.1.2.2-.2.7-.7.7-.2 0-.2.2-.4.2v.2h4.2v-.2l-.2-.2c-.7 0-1.1-.4-1.3-1.1s-.4-1.3-.7-1.8c-.9-2.4-2-5.1-2.9-7.6 0-.2-.2-.2-.2-.4-.2 0-.4.2-.4.2-.2.7-.7 1.1-.9 1.8-.9 2.2-1.8 4.7-2.7 6.9-.4.9-.7 1.8-1.8 2.2 0 0 0 .2-.2.2h3.1c0-.2-.2-.2-.2-.2-.7-.2-.9-.7-.7-1.3.2-1.1.4-1.8.7-2.5zm.6-1.5c.4-1.3 1.1-2.7 1.6-4 .2.2.2.2.2.4.4 1.3.9 2.4 1.3 3.8.2.4 0 .4-.4.4h-2.7s-.2-.2 0-.6zm10.3 5.3c1.1.4 2.4.4 3.6.2 1.3-.2 2.7-1.6 2.9-2.9.2-1.1-.4-2.2-1.8-2.9-1.1-.7-2.2-1.1-3.3-1.8-.9-.7-1.1-1.8-.7-2.7.7-.9 2-1.3 2.9-.9.9.4 1.3 1.1 1.6 1.8 0 .2.2.2.2.4h.2V7.4c0-.9-.2-.9-.9-1.1-1.1-.2-2-.2-3.1 0-1.6.2-2.7 2-2.2 3.6.2.9.9 1.6 1.8 2 1.1.4 2.2 1.1 3.1 1.6.9.4 1.1 1.3.9 2.2-.4 1.6-2.2 2-3.3 1.8-1.1-.4-1.8-1.3-2.2-2.4 0-.2-.2-.2-.2-.4h-.2c.2.9.2 1.8.4 2.4-.2.2 0 .4.3.4z"/>
</svg>
