<?xml version="1.0" encoding="utf-8"?>
<!-- Generator: Adobe Illustrator 18.1.1, SVG Export Plug-In . SVG Version: 6.00 Build 0)  -->
<svg version="1.1" id="Layer_1" xmlns="http://www.w3.org/2000/svg" xmlns:xlink="http://www.w3.org/1999/xlink" x="0px" y="0px"
	 viewBox="0 0 40 30" enable-background="new 0 0 40 30" xml:space="preserve">
<title>Delivery</title>
<desc>Casper mattress emerging from a box</desc>

<path d="M32.2,16.9l-3.1-5.2c0,0,0,0,0,0c0,0,0,0,0,0c0,0,0,0,0,0c0,0,0,0,0,0c0,0,0,0,0,0c0,0,0,0,0,0c0,0,0,0,0,0c0,0,0,0,0,0
	c0,0,0,0,0,0c0,0,0,0,0,0c0,0,0,0,0,0c0,0,0,0,0,0c0,0,0,0,0,0c0,0,0,0,0,0c0,0,0,0,0,0l0,0c0,0,0,0,0,0c0,0,0,0,0,0c0,0,0,0,0,0
	c0,0,0,0,0,0c0,0,0,0,0,0c0,0,0,0,0,0c0,0,0,0,0,0l-1.3-0.4V4.9c0-0.1,0-0.2,0-0.3c0-1.9-1.6-4.2-6.3-4.2c-2.9,0-5.2,1-6.2,2.6
	c-0.5,0.8-0.7,1.6-0.5,2.5c-0.5,0-0.9,0.2-1.3,0.5c-0.6,0.5-0.9,1.3-0.9,2.6v2.6l-1.3,0.4c0,0,0,0,0,0c0,0,0,0,0,0c0,0,0,0,0,0
	c0,0,0,0,0,0c0,0,0,0,0,0c0,0,0,0,0,0c0,0,0,0,0,0c0,0,0,0,0,0c0,0,0,0,0,0c0,0,0,0,0,0c0,0,0,0,0,0c0,0,0,0,0,0c0,0,0,0,0,0
	c0,0,0,0,0,0c0,0,0,0,0,0c0,0,0,0,0,0c0,0,0,0,0,0c0,0,0,0,0,0c0,0,0,0,0,0c0,0,0,0,0,0c0,0,0,0,0,0c0,0,0,0,0,0c0,0,0,0,0,0
	l-3.1,5.2c-0.1,0.1-0.1,0.3,0,0.5c0.1,0.2,0.2,0.3,0.3,0.3l2.7,0.9v7.4c0,0.2,0.1,0.4,0.4,0.5l8.6,3c0.1,0,0.1,0,0.2,0l0,0l0,0
	c0,0,0,0,0,0c0,0,0,0,0.1,0c0,0,0,0,0,0c0,0,0,0,0,0c0,0,0,0,0,0l8.7-3c0.2-0.1,0.4-0.3,0.4-0.5v-7.4l2.7-0.9
	c0.2-0.1,0.3-0.2,0.3-0.3C32.3,17.2,32.3,17.1,32.2,16.9z M26.7,12.1L20,14.4l-3.8-1.3v-2.6c0-0.4,0-0.9,0.2-1.1c0,0,0.2-0.2,0.9,0
	c1.1,0.2,2.1,0.3,3.1,0.3c2.4,0,4.4-0.6,5.6-1.7c0.2-0.1,0.3-0.3,0.5-0.5l0.2-0.3V12.1z M14,6.7c0.4-0.4,1.2-0.2,1.8-0.1
	c0.2,0,0.3,0,0.4,0.1c4.2,0.5,6.3,0.3,7.3-0.5C23.8,5.8,24,5.4,24,4.9c0-0.9-0.8-1.3-1.3-1.5c-1.3-0.5-3.7-0.4-4.6,0.8
	c-0.2,0.3-0.5,0.8-0.4,1.6c-0.6-0.1-1.1-0.1-1.4-0.2c-0.1,0-0.2,0-0.4-0.1c0,0-0.1,0-0.1,0c-0.3-0.7-0.2-1.3,0.2-2
	c0.8-1.3,2.9-2.1,5.3-2.1c2.4,0,5.2,0.8,5.2,3.1c0,1.1-0.4,2-1.2,2.6c-1.5,1.3-4.4,1.7-7.8,1.1c-0.8-0.1-1.4,0-1.8,0.3
	c-0.5,0.5-0.5,1.2-0.5,1.9v2.2l-1.6-0.6v-0.7c0,0,0,0,0,0v-3C13.5,7.9,13.6,7.1,14,6.7z M19,4.9c0.6-0.7,2.4-0.8,3.4-0.5
	c0.4,0.1,0.6,0.3,0.6,0.5c0,0.2-0.1,0.4-0.2,0.5c-0.6,0.5-2.2,0.6-3.8,0.5C18.7,5.2,18.9,5,19,4.9z M11.6,12.7l7.6,2.6l-2.5,4.2
	l-7.6-2.6L11.6,12.7z M11.9,19l4.9,1.7c0.1,0,0.1,0,0.2,0c0.2,0,0.4-0.1,0.5-0.3l2.1-3.5v11.3l-7.6-2.6V19z M28.4,25.6l-7.8,2.7V17
	l2.1,3.5c0.1,0.2,0.3,0.3,0.5,0.3c0.1,0,0.1,0,0.2,0l5.1-1.8V25.6z M23.3,19.5l-2.5-4.2l7.6-2.6l2.5,4.2L23.3,19.5z"/>
</svg>
