<svg id="Layer_1" data-name="Layer 1" xmlns="http://www.w3.org/2000/svg" viewBox="0 0 45 25"><title>Truck</title><desc>Free Shipping and Returns Truck</desc><path d="M41,12.958H32.867V10.186h4.405a0.555,0.555,0,0,0,0-1.109H32.867V5.73a0.554,0.554,0,0,0-.555-0.555h-15.6a0.555,0.555,0,0,0-.481.28l-3.8,6.666-3.461.006a0.555,0.555,0,0,0-.554.555v6.331a0.554,0.554,0,0,0,.555.555h3.191a2.918,2.918,0,0,0,5.693,0h5.768a2.918,2.918,0,0,0,5.693,0h2.995a0.554,0.554,0,0,0,.555-0.555V14.067H41A0.555,0.555,0,0,0,41,12.958ZM15.009,20.735a1.815,1.815,0,1,1,1.815-1.815A1.817,1.817,0,0,1,15.009,20.735Zm11.461,0a1.815,1.815,0,1,1,1.815-1.815A1.817,1.817,0,0,1,26.47,20.735Zm5.287-2.277H29.348a2.913,2.913,0,0,0-5.755,0H17.887a2.913,2.913,0,0,0-5.755,0H9.527V13.235l3.229-.006a0.552,0.552,0,0,0,.48-0.28l3.8-6.665H31.757V9.076H24.014a0.555,0.555,0,0,0,0,1.109h7.743v2.772H27.743a0.555,0.555,0,0,0,0,1.109h4.015v4.391Z"/></svg>
