<?xml version="1.0" encoding="utf-8"?>
<!-- Generator: Adobe Illustrator 18.1.1, SVG Export Plug-In . SVG Version: 6.00 Build 0)  -->
<svg version="1.1" id="Layer_1" xmlns="http://www.w3.org/2000/svg" xmlns:xlink="http://www.w3.org/1999/xlink" x="0px" y="0px"
	 viewBox="0 0 32 32" enable-background="new 0 0 32 32" xml:space="preserve">
<title>Delivery box</title>
<desc>Casper mattress coming out of box</desc>
<g>
	<path fill="none" stroke="#000000" stroke-linecap="round" stroke-linejoin="round" stroke-miterlimit="10" d="M8.1,13.3V8.8
		c0-3.6,2.5-2.7,3.7-2.6c4.8,0.6,8.1,0.5,8.1-1.4c0-2.1-7.7-1.9-5.5,1.6"/>
	<path fill="none" stroke="#000000" stroke-linecap="round" stroke-linejoin="round" stroke-miterlimit="10" d="M10.8,5.9
		c-1.2-2.7,1.6-5.4,6.7-5.4c4.8,0,6.4,2.2,6.4,4c0,3.8-4.2,5.8-10.8,4.8c-1.9-0.3-1.9,0.6-1.9,1.8v3.2"/>
	<polyline fill="none" stroke="#000000" stroke-linecap="round" stroke-linejoin="round" stroke-miterlimit="10" points="6.3,12.7 
		16,16 25.7,12.7 	"/>
	
		<line fill="none" stroke="#000000" stroke-linecap="round" stroke-linejoin="round" stroke-miterlimit="10" x1="6.3" y1="12.7" x2="8.1" y2="12.1"/>
	
		<line fill="none" stroke="#000000" stroke-linecap="round" stroke-linejoin="round" stroke-miterlimit="10" x1="25.7" y1="12.7" x2="23.9" y2="12.1"/>
	<polygon fill="none" stroke="#000000" stroke-linecap="round" stroke-linejoin="round" stroke-miterlimit="10" points="12.5,21.7 
		2.8,18.4 6.3,12.7 16,16 	"/>
	<polygon fill="none" stroke="#000000" stroke-linecap="round" stroke-linejoin="round" stroke-miterlimit="10" points="19.5,21.7 
		29.2,18.4 25.7,12.7 16,16 	"/>
	
		<line fill="none" stroke="#000000" stroke-linecap="round" stroke-linejoin="round" stroke-miterlimit="10" x1="16" y1="16" x2="16" y2="31.5"/>
	
		<line fill="none" stroke="#000000" stroke-linecap="round" stroke-linejoin="round" stroke-miterlimit="10" x1="23.9" y1="4.8" x2="23.9" y2="13"/>
	<polyline fill="none" stroke="#000000" stroke-linecap="round" stroke-linejoin="round" stroke-miterlimit="10" points="25.7,19.6 
		25.7,28.2 16,31.5 6.3,28.2 6.3,19.6 	"/>
</g>
</svg>
