<svg xmlns="http://www.w3.org/2000/svg" width="134.1" height="27" viewBox="0 0 134.1 27"><g fill="#7D7D7D"><title>Die Zeit</title><desc>Die Zeit Logo</desc><path d="M35.61 4.05c-5.25.02-6.02.04-6.05.13-.06.17.03.32.23.36.47.1 1 .34 1.16.53.37.43.36.16.36 8.44 0 7.35-.01 7.73-.13 8.05-.16.43-.51.69-1.12.86-.46.13-.57.22-.49.42.04.09.83.11 6.42.12 3.51.01 6.55.01 6.76.02h.39l.41-1.02c.45-1.11.97-2.28 1.46-3.25.29-.59.31-.64.19-.72-.07-.05-.15-.09-.18-.09-.02 0-.2.21-.39.47-.86 1.17-1.83 2.01-3 2.59-1.35.66-2.67.91-5.13.99l-1.56.04v-8.1l1.95.04c2.16.04 2.39.07 3.27.53.37.19.67.43 1.21.97.69.69.9.83.97.63.01-.05-.24-.67-.57-1.37-.35-.76-.58-1.33-.56-1.41.02-.06.29-.67.6-1.34s.54-1.25.53-1.3c-.08-.2-.28-.06-.97.64-.62.62-.81.76-1.32 1.01-.9.43-1.39.5-3.4.5h-1.72V5.07h.44c.92.01 2.71.14 3.3.25 2.04.36 3.63 1.35 5.3 3.3.48.56.72.71.79.5.02-.04-.25-.69-.59-1.42-.34-.74-.83-1.86-1.08-2.51l-.47-1.17-.5.01-6.51.02zM33.3 13.5v8.45h-.42v-8.4c0-4.62.02-8.43.05-8.45.02-.03.12-.05.21-.05h.16v8.45zM79.29 4.25c-.15.48-.95 2.41-1.47 3.57-.27.61-.48 1.16-.47 1.21.08.22.31.06.74-.54 1.51-2.1 3.01-2.99 5.55-3.29.96-.11 3.44-.18 3.44-.09 0 .04-.48.9-1.08 1.92-.95 1.64-3.55 6.11-7.76 13.36-.77 1.32-1.4 2.43-1.4 2.47 0 .05 1.79.07 5.66.07 3.12 0 6.05.02 6.51.04l.83.05.17-.45c.22-.62 1.16-2.8 1.64-3.81.22-.46.37-.86.35-.89-.11-.18-.32-.02-.74.55-1.98 2.64-4.17 3.53-8.69 3.53h-1.19l.17-.3c.1-.16.63-1.09 1.19-2.05 1.89-3.25 5.33-9.16 7.15-12.3 1-1.71 1.81-3.14 1.81-3.17 0-.03-2.33-.06-5.17-.06-2.85 0-5.62-.02-6.16-.05l-.99-.04-.09.27zm10.01.92c-.02.07-2.19 3.86-4.84 8.43l-4.8 8.31-.25.02c-.14.01-.25.01-.25-.01 0-.01 1.5-2.63 3.34-5.81s3.99-6.9 4.77-8.27c1.79-3.1 1.59-2.8 1.85-2.8.17.01.21.04.18.13zM99.33 4.05l-6.01.02-.05.15c-.05.17.12.34.34.34.2 0 .85.28 1.02.43.08.08.21.29.28.47.12.3.13.81.13 8.03 0 7.35-.01 7.73-.13 8.05-.16.43-.51.69-1.12.86-.46.13-.57.22-.49.42.04.09.83.11 6.42.12 3.51.01 6.55.01 6.76.02h.39l.41-1.02c.46-1.14 1-2.33 1.46-3.25.29-.58.31-.64.2-.72-.17-.12-.25-.06-.61.43-.83 1.12-1.82 1.96-2.97 2.53-1.37.67-2.65.91-5.13.99l-1.56.04v-8.1l1.95.04c2.16.04 2.39.07 3.27.53.37.19.67.43 1.21.97.69.69.87.81.97.65.03-.04-.22-.67-.56-1.4l-.61-1.32.61-1.33c.34-.74.59-1.37.56-1.41-.1-.17-.27-.05-.96.65-.62.62-.81.76-1.32 1.01-.9.43-1.39.5-3.4.5h-1.72V5.03h.37c.86.01 2.8.15 3.37.25 2.04.36 3.63 1.35 5.3 3.3.48.56.72.71.79.5.02-.04-.18-.54-.44-1.1-.51-1.08-1.18-2.65-1.5-3.49l-.19-.5-.5.01c-.31.03-3.24.04-6.54.05zm-2.3 9.45v8.45h-.42v-8.4c0-4.62.02-8.43.05-8.45.02-.03.12-.05.21-.05h.16v8.45zM120.11 4.14c-.32.9-1.03 2.53-1.67 3.8-.43.86-.46.93-.34 1.02.07.05.16.06.21.04.05-.03.33-.35.63-.72 1.65-2.01 3.14-2.99 4.77-3.15l.53-.05v8.1c0 7.71-.01 8.11-.13 8.38-.18.41-.5.65-1.1.82-.48.15-.52.17-.52.35v.2l3.56-.01 3.55-.02v-.17c0-.14-.06-.19-.46-.32-.65-.21-.93-.39-1.12-.75l-.18-.31V5.09l.39.02c.81.04 1.75.37 2.54.9.64.42 1.72 1.47 2.44 2.35.44.54.58.67.69.64.08-.02.14-.08.14-.13 0-.04-.25-.61-.56-1.25-.49-1.02-1.37-3.04-1.49-3.45-.05-.14-.11-.14-5.95-.14-5.17.01-5.89.02-5.93.11zm6.12 9.36v8.41l-.19.02-.2.02V5.03l.2.02.19.02v8.43zM0 4.27c0 .2.03.21.61.41.76.25 1.21.63 1.34 1.16.11.45.12 15.11.01 15.52-.15.52-.55.81-1.54 1.1-.27.08-.32.12-.32.27v.18l3.86.02c4.16.02 5.13-.02 6.53-.3 3.75-.76 6.59-2.94 7.68-5.92.39-1.07.5-1.79.51-3.09.01-.96-.02-1.28-.15-1.89-.42-1.88-1.33-3.5-2.7-4.82-1.54-1.48-3.3-2.24-6.15-2.66-.67-.1-1.56-.13-5.24-.15L0 4.06v.21zm4.03 9.23v8.41l-.19.02-.2.02V5.03l.2.02.19.02v8.43zm3.92-8.3c1.93.2 3.44.92 4.65 2.19 1.21 1.27 1.96 2.81 2.24 4.6.14.9.1 2.97-.08 3.75-.86 3.83-3.66 5.9-8.36 6.18l-.79.05v-8.41c0-4.63.02-8.43.04-8.46.06-.06 1.36 0 2.3.1zm4.17.41c2.03 1.03 3.6 2.76 4.39 4.82.76 1.96.75 4.25-.02 6.23-.6 1.56-1.72 2.99-3.11 3.96-.89.63-1.83 1.11-1.91.98-.02-.04.16-.17.4-.29.79-.4 1.48-.91 2.23-1.67 1.28-1.28 2.05-2.71 2.39-4.46.13-.65.13-2.58 0-3.23-.34-1.75-1.3-3.52-2.57-4.77-.57-.57-1.35-1.17-1.94-1.5-.36-.2-.55-.35-.44-.35.01 0 .27.13.58.28zM20.54 4.28c0 .17.04.22.2.25.86.19 1.33.53 1.48 1.04.11.39.11 15.45 0 15.84-.13.45-.51.77-1.14.95-.5.15-.54.18-.54.36v.2l3.56-.01 3.55-.02v-.17c0-.15-.06-.19-.51-.33-.65-.2-.95-.43-1.11-.85-.12-.32-.13-.73-.13-8.05s.01-7.73.13-8.05c.15-.4.43-.62.96-.79.66-.2.72-.23.69-.41l-.02-.15-3.55-.02-3.56-.01v.22zm3.77 9.23l.01 8.43h-.42v-8.4c0-4.62.02-8.43.05-8.46.03-.03.11-.04.2-.03.14.04.14.04.16 8.46zM110.45 4.18c-.08.19.03.31.34.38.17.04.48.16.69.27.32.16.41.26.56.55l.18.35v7.75c0 7.35-.01 7.76-.13 8.08-.17.42-.43.62-1.1.84-.46.15-.53.19-.53.34v.17l3.56.02 3.55.01v-.2c0-.19-.03-.21-.36-.29-.76-.18-1.18-.51-1.31-1.02-.11-.43-.11-15.45 0-15.84.13-.45.51-.77 1.14-.95.5-.15.54-.18.54-.36v-.2h-3.54c-3.09-.01-3.55 0-3.59.1zm3.75 9.33l.01 8.43h-.42v-8.4c0-4.62.02-8.43.05-8.46.03-.03.11-.04.2-.03.13.04.13.04.16 8.46zM53.09 4.68c-.08.01-.2.11-.26.2-.07.11-.18.17-.29.17-.25 0-.55.18-.64.37-.06.12-.16.19-.32.22-.36.07-.43.18-.37.69.06.54.12.65.39.76.2.08.22.08.33-.06.13-.2.26-.1.19.16-.03.13-.09.18-.2.18-.15 0-.25.12-.25.32 0 .06.13.18.28.29.34.24.36.37.06.37-.25 0-.69.29-.69.46 0 .06-.1.27-.21.48-.16.29-.2.42-.17.59.03.13.01.27-.02.31-.09.12-.15.7-.2 1.91-.06 1.82-.13 2.02-1.22 3.61-.06.1-.17.39-.24.66-.22.91-.53 1.29-.95 1.2-.32-.07-.45-.31-.4-.78.04-.43.11-.56.95-1.68.72-.97.93-1.4.93-1.91 0-.62-.12-1.58-.22-1.79-.05-.11-.14-.19-.21-.19-.07 0-.15-.04-.18-.09-.14-.22-.81-.43-1.02-.32-.12.07-.13.13-.1.58.04.6.29 1.11.66 1.32.32.19.38.32.29.68-.09.41-.21.62-.61 1.11-1.03 1.23-1.35 1.81-1.35 2.43 0 .48.16.83.53 1.2.31.3.65.42 1.04.36.15-.02.41-.06.55-.08.24-.04.27-.03.3.13.07.27.01.43-.19.52-.16.08-.19.15-.27.68-.08.56-.08.62.06.95.19.43.19.5.03.5-.18 0-.34-.2-.4-.46-.12-.55-.22-.67-.72-.8-.34-.1-.43.05-.24.43.08.17.15.34.15.37 0 .04-.15.11-.33.14-.43.08-.45.21-.08.5.32.26.57.29.83.12.16-.12.16-.11.12.1-.04.13-.02.23.04.27.2.12 1.01.25 1.91.29.53.02.96.06.96.07s-.05.11-.11.2c-.21.32-.11.39.65.39.79 0 1.19-.15 1.44-.53.16-.25.47-.36 1.17-.43.18-.02.39-.07.47-.11.2-.1.29-.03.16.12-.17.2.11.31.77.32.5 0 .65-.03.9-.18.16-.09.29-.15.29-.13 0 .02-.11.16-.25.31-.3.34-.31.41-.01.41.12.01.41.05.63.11.41.09.41.09.74-.11.39-.25.5-.25.5-.05.01.3.16.41.58.41.22 0 .48-.04.57-.08.13-.06.2-.06.26 0 .13.13.41.1.63-.09.26-.22.41-.22.67 0 .22.19.43.22.56.09.06-.06.15-.06.35 0 .46.14.9.11 1.02-.07.06-.08.11-.21.11-.28 0-.15.13-.17.18-.02.03.06.11.11.2.11.08 0 .21.05.29.11.23.18 1.37.01 1.47-.22.02-.06-.07-.19-.21-.31-.32-.28-.3-.32.04-.14.24.13.38.14.95.12.49-.01.69-.05.74-.13.04-.06.04-.13.03-.15-.06-.1.6-.06.86.05.13.06.34.11.46.11.13 0 .28.08.43.22.36.34.76.49 1.51.55.38.03.71.03.74 0 .04-.04.01-.13-.06-.25-.16-.24-.06-.38.2-.25.15.08.3.07 1.09-.09.5-.1 1.03-.23 1.17-.29.22-.09.25-.13.21-.31l-.04-.2.26.15.26.14.34-.15c.18-.08.35-.2.38-.27.05-.14-.2-.35-.49-.42-.18-.04-.19-.06-.1-.15.13-.15.27-.62.22-.75-.03-.06-.11-.07-.26-.04-.5.11-.7.32-.79.81-.06.36-.14.46-.39.46h-.2l.13-.3c.2-.48.23-.67.14-1.09-.06-.27-.14-.46-.29-.6-.15-.16-.21-.27-.2-.45.01-.13.03-.26.05-.29.06-.09.36-.09.42 0 .07.11 1.07.08 1.29-.04.49-.25.74-.79.69-1.47-.02-.36-.08-.53-.36-1.02-.18-.32-.48-.72-.64-.88-.47-.46-.65-.74-.83-1.24-.2-.58-.18-.78.12-.86.32-.09.75-.93.75-1.46 0-.77-.14-.79-1.23-.15-.41.25-.46.37-.46 1.46 0 .75.03 1.03.13 1.34.11.33.62 1.08 1.25 1.84.1.11.23.34.3.51.13.31.18.89.08 1.04-.08.13-.34.24-.55.24-.27 0-.51-.38-.8-1.25-.13-.39-.34-.84-.49-1.07-.39-.56-.69-1.23-.76-1.71-.04-.23-.1-1.03-.14-1.78-.04-.76-.11-1.47-.15-1.6s-.06-.32-.04-.43c.03-.15.01-.24-.09-.32-.08-.07-.19-.28-.25-.48-.15-.46-.19-.5-.62-.72l-.35-.18.26-.1c.28-.11.41-.37.28-.57-.05-.08.01-.17.2-.36.22-.2.28-.32.33-.63.06-.36.05-.39-.13-.55-.29-.26-.6-.55-.7-.69-.07-.09-.16-.11-.34-.08-.22.04-.27.01-.5-.24-.25-.26-.28-.28-.65-.28-.28 0-.48.05-.71.17-.18.1-.41.19-.53.22-.26.06-.81.72-.91 1.1l-.08.27h-.48c-.48 0-.48 0-.86.35l-.38.35-.05-.27c-.02-.14-.04-.47-.04-.72 0-.88-.22-1.11-.76-.84-.15.08-.3.18-.33.22-.02.04-.11.07-.18.07s-.19.1-.26.21c-.06.12-.18.23-.25.25-.16.05-.42.55-.36.69.02.06-.03.19-.11.29-.08.11-.15.25-.15.33s-.04.26-.08.41c-.07.24-.06.29.07.48.19.25.19.28-.02.48-.31.29-.81.05-.81-.39 0-.21.02-.23.2-.23.25 0 .36-.11.36-.37 0-.11.04-.27.08-.35.05-.08.08-.39.07-.67-.01-.43-.05-.59-.2-.86-.38-.66-.79-1.18-.92-1.18-.08 0-.22.14-.36.36-.13.2-.27.4-.32.43-.05.03-.09.1-.09.15 0 .05-.08.2-.19.32-.18.21-.2.29-.21.83-.01.39.03.74.11.97.1.34.13.37.31.37.36 0 .33.43-.04.67-.21.13-.43.1-.68-.11l-.17-.13.15-.17c.13-.14.15-.23.13-.72-.01-.36-.06-.64-.13-.79-.06-.13-.12-.29-.12-.36 0-.2-.27-.5-.43-.5-.09 0-.17-.07-.21-.2-.05-.14-.18-.26-.36-.35-.16-.08-.38-.22-.49-.3-.13-.11-.21-.13-.27-.08-.13.13-.34 1.09-.32 1.49.01.53-.05.6-.29.38-.11-.1-.27-.23-.38-.29-.11-.06-.2-.14-.2-.17s-.11-.06-.24-.06c-.25 0-.6-.22-.6-.38 0-.11-.62-.95-.7-.95-.04 0-.2-.11-.38-.25-.31-.23-.35-.25-.83-.24-.3-.03-.6-.01-.69 0zm8.19.88c0 .24.02.27.18.27.24 0 .22.16-.04.49-.4.5-.18.69.23.2.27-.32.4-.27.22.08-.11.2-.11.22-.01.34.06.07.11.19.11.27 0 .13-.04.15-.27.15-.2 0-.34.06-.5.19-.15.13-.24.17-.26.11-.04-.13-.4-.29-.65-.29-.24 0-.28-.13-.1-.32.1-.09.11-.15.04-.29-.04-.1-.06-.25-.04-.35.05-.18.17-.23.17-.07 0 .15.28.46.43.46.2 0 .18-.32-.04-.57-.18-.21-.26-.66-.09-.49.13.13.19.11.15-.05-.02-.08.02-.25.08-.39.12-.25.13-.25.25-.14.09.08.14.22.14.4zm-8.27-.02c.07.04.13.14.13.22 0 .08.05.24.11.36.11.2.11.3.03.95-.09.69-.24 1.07-.43 1.07-.11 0-.07-.22.06-.36.18-.2.15-.68-.08-1.11l-.2-.37.18-.15c.13-.12.15-.18.09-.21-.04-.03-.15-.1-.24-.15-.15-.09-.15-.08-.24.19-.08.27-.07.3.11.57.14.2.21.4.23.66.04.49-.06.67-.37.67-.13 0-.26-.04-.28-.07-.02-.04.02-.07.1-.07.34 0 .44-.54.18-.95-.1-.15-.17-.18-.34-.15-.12.01-.27.05-.33.08-.09.04-.13-.01-.2-.18-.12-.34-.1-.46.1-.51.1-.03.18-.08.18-.11 0-.04.11-.07.25-.07.19 0 .25-.03.25-.13 0-.07.02-.15.05-.18.07-.1.51-.07.66 0zm5.02.04c.09.06.2.25.24.41l.08.29.06-.23c.11-.4.22-.19.18.33-.05.52-.01.78.13.78.11 0 .25-.36.25-.6 0-.09.03-.17.06-.17.13 0 .23.21.19.38-.03.11.01.22.1.34.2.25.18.32-.14.59-.15.13-.28.29-.28.35 0 .08-.04.07-.18-.04-.23-.18-.29-.18-.49 0-.23.22-.33.11-.29-.29.03-.29.01-.34-.08-.34-.18 0-.29-.14-.29-.36 0-.11.01-.2.03-.2.02 0 .13.09.24.21.21.2.57.29.57.13 0-.13-.38-.55-.49-.55-.13 0-.28-.13-.28-.26 0-.05.05-.09.11-.09.13 0 .13-.04.03-.22-.07-.14-.02-.55.07-.55 0-.02.1.03.18.09zm6.29.21c0 .15-.03.34-.06.41-.04.09-.04.11.06.08.25-.09.1.16-.31.54-.46.42-.52.55-.25.55.28 0 .51-.15.59-.36.04-.11.11-.19.15-.16.11.07.08.15-.14.41-.14.16-.21.32-.21.47 0 .2-.01.22-.15.18-.2-.07-.54-.07-.74 0-.11.04-.2.01-.34-.13-.1-.1-.21-.18-.25-.18-.11 0-.08-.33.04-.38.08-.03.11-.14.11-.39 0-.26.03-.35.1-.35s.11.09.13.29c.01.19.06.32.15.37.2.12.26-.07.21-.6-.04-.39-.02-.48.09-.59.13-.13.13-.13.18.11l.04.24.08-.27c.15-.59.53-.75.52-.24zm5.64-.23c.04.06.06.11.04.14-.02.02-.02.11.01.18.03.11.11.15.25.15.37 0 .48.11.48.46v.32l-.34-.05c-.31-.04-.35-.03-.48.14-.34.43-.25.88.16.88.13 0 .25.03.25.07 0 .04-.15.07-.35.07-.39 0-.49-.11-.49-.48 0-.28.2-.82.35-.96.07-.06.12-.15.11-.2-.01-.05-.04-.17-.06-.28-.05-.22-.25-.25-.42-.06-.11.13-.11.13.06.21.21.1.22.18.04.36-.22.22-.37.82-.29 1.14.04.15.11.29.14.31.11.06.08.18-.03.18-.18 0-.29-.23-.37-.8-.08-.55-.06-.83.16-1.64.01-.04.1-.08.18-.08.09 0 .21-.04.27-.07.14-.1.24-.09.33.01zM56.25 6.79c.06.06.12.18.13.25 0 .12.01.11.08-.05.11-.32.2-.14.2.43 0 .29.04.59.07.65.13.18.28-.12.29-.55 0-.29.02-.35.06-.25.04.08.06.25.06.39.01.16.06.29.15.37.19.16.18.29-.04.39-.1.04-.18.13-.18.19s-.05.11-.11.11c-.11 0-.35-.48-.6-1.18-.07-.2-.19-.46-.27-.55-.26-.36-.16-.47.16-.2zm9.98.13c-.13.19-.34.53-.47.76-.13.23-.32.58-.44.78l-.21.36-.2-.38c-.23-.43-.25-.52-.1-.52.08 0 .11-.08.11-.31 0-.2.04-.34.11-.4.1-.08.11-.07.1.04-.04.35.01.6.11.65.18.07.25-.13.2-.63-.04-.41-.03-.47.07-.47.06 0 .11.03.11.07 0 .12.12.08.33-.11.11-.09.27-.18.36-.18.16.01.16.02-.08.34zm.19 1.09c.02.28.07.7.11.93.17 1.14.17 1.18.02 1.36-.13.17-.14.17-.32.06-.14-.09-.34-.12-.82-.12-.34 0-.63-.02-.63-.04 0-.22.31-1.02.41-1.08.08-.04.34-.43.6-.88.26-.44.5-.79.53-.77.03.01.07.26.1.54zm-5.68-.22c.3.36.2.91-.23 1.28-.18.15-.3.19-.57.19-.2 0-.41-.04-.5-.08-.18-.09-.4-.59-.41-.88 0-.36.35-.6.41-.28.01.07-.02.12-.08.12-.15 0-.15.48-.01.68.11.15.49.3.79.3.09 0 .26-.09.39-.2.19-.18.22-.25.22-.55.01-.37-.13-.65-.27-.51-.12.12-.18.08-.18-.11-.01-.24.22-.23.44.04zm1.01-.13c.05.05.08.13.08.18 0 .12-.19.12-.23 0-.02-.06-.06-.06-.16-.01-.1.06-.14.18-.15.44-.02.32 0 .39.19.57.17.18.27.21.53.21.42 0 .62-.2.69-.66.06-.35-.05-.61-.14-.37-.06.18-.17.14-.17-.06 0-.22.18-.23.4-.02.19.18.2.37.05.76-.15.38-.42.56-.83.56-.37 0-.63-.14-.79-.43-.13-.26-.13-.9.01-1.1.14-.17.39-.2.52-.07zm-5.54.32c.11.19.23.41.26.5.03.09.22.36.41.6.31.36.38.49.42.8l.05.36h-.61c-.47 0-.65.03-.74.11-.11.11-.13.11-.26-.05-.08-.09-.15-.27-.15-.38-.01-.3.31-2.28.36-2.28.03.01.15.15.26.34zm-3.3.48c.04.11.05.11.13-.01s.12-.11.32-.04c.32.13.39.2.27.28-.08.05-.06.1.12.27.22.2.29.47.15.52-.05.01-.04.12.04.29.12.29.09.41-.07.35-.15-.06-.13.08.06.39.09.14.2.39.25.54.17.55.34.85.83 1.45.69.82.77.84.94.27.14-.49.26-.44.27.12.01.26.01.63.02.83.01.39-.09.72-.27.87-.1.08-.13.08-.22-.04-.06-.07-.11-.2-.11-.27-.01-.23-.15-.42-.56-.74-.21-.16-.59-.5-.83-.74-.25-.24-.51-.44-.57-.44-.08 0-.15-.09-.21-.25-.1-.26-.16-.3-.25-.16-.06.11-.15-.11-.16-.38-.01-.11-.06-.23-.15-.28-.08-.06-.17-.23-.22-.46-.05-.22-.13-.37-.18-.37-.11 0-.11.12-.01.81.06.4.13.58.24.69.08.08.21.25.27.37.06.13.15.23.2.23s.18.09.29.2c.11.12.26.22.34.23.2.03.25.34.05.34-.11 0-.15.04-.15.16 0 .19-.2.49-.28.43-.04-.02-.13.09-.22.25-.09.15-.18.28-.22.28-.03 0-.26.31-.51.68-.36.54-.51.86-.73 1.53-.7 2.16-.65 2.05-1.28 2.63l-.57.53.05.52.06.51.5-.04c.41-.04.46-.03.27.04-.13.04-.25.13-.27.21-.03.11-.06.12-.14.05-.08-.06-.1-.05-.1.11 0 .15-.02.18-.12.14-.07-.04-.23-.09-.36-.13-.3-.11-.53-.56-.53-1.1-.01-.44.11-.72.34-.82.2-.1.25-.38.15-.89-.07-.34-.07-.5.01-.86.08-.33.08-.46.02-.52-.12-.12-.27.04-.38.38-.04.15-.2.39-.33.52-.25.25-.25.25-.74.21-.6-.04-.79-.18-.97-.65-.26-.69-.05-1.27.84-2.33.62-.73.99-1.44 1.01-1.94.02-.64.02-.65-.3-.75-.23-.07-.31-.13-.32-.26-.01-.09-.1-.23-.18-.3-.11-.1-.13-.15-.07-.17.07-.03.07-.08-.01-.19-.12-.17-.14-.44-.04-.5.04-.02.13.04.22.13.09.08.25.18.36.21.13.03.19.09.19.19 0 .08.06.16.13.18.12.03.14.13.18.91l.05.88-.25.5c-.13.28-.46.74-.7 1.03-.82.95-1.12 1.84-.82 2.44.16.32.32.43.62.43.5 0 .83-.42 1.23-1.54.15-.45.4-.91.74-1.42.56-.86.57-.88.75-2.65.11-1.11.13-1.16.32-1.37.11-.13.2-.29.2-.39l-.01-.18-.14.19c-.14.19-.34.27-.34.13 0-.04.16-.25.35-.46.39-.43.48-.69.18-.48-.1.06-.18.14-.18.18s-.05.06-.11.06c-.22 0-.1-.18.41-.61.1-.08.18-.19.18-.23 0-.07-.02-.07-.1 0-.06.04-.18.07-.27.06-.15-.02-.15-.03.08-.26.15-.15.21-.25.16-.27-.2-.08-.07-.16.25-.16.24 0 .36-.03.39-.11.13-.14.47-.13.52.01zm16.86.04c.11.22.11.22.26.12.18-.11.39-.04.34.13-.03.08.03.2.17.33.2.2.27.39.15.39-.04 0-.09-.04-.11-.07-.06-.11-.25-.08-.2.02.01.05.13.15.24.22.21.12.47.51.39.59-.03.02-.13-.05-.24-.15-.22-.22-.29-.24-.29-.08 0 .06.12.18.27.27.18.11.29.25.35.43.04.15.06.28.05.3-.02.01-.13-.06-.25-.17-.29-.27-.33-.19-.07.14.26.32.25.28.39 1.75.06.66.17 1.35.24 1.55.07.2.32.67.57 1.02.32.47.49.83.62 1.26.33 1.05.61 1.4 1.16 1.4.36 0 .52-.11.67-.44.28-.62.11-1.18-.64-2.05-.23-.27-.57-.76-.76-1.09l-.33-.6.02-.95c.01-.52.05-.97.08-1.01.05-.05.07-.02.08.06 0 .11.04.08.11-.09.06-.12.14-.22.2-.22s.2-.09.31-.21c.27-.27.46-.22.35.08-.04.11-.1.22-.13.25-.04.02-.04.11-.02.2.03.12 0 .18-.11.24-.08.05-.13.12-.11.18.06.14-.09.32-.26.32-.08 0-.2.07-.28.15-.3.3-.02 1.21.66 2.12 1.04 1.39 1.33 2.02 1.16 2.59-.08.29-.38.68-.52.68-.05 0-.13.04-.17.1-.06.07-.18.08-.38.06-.53-.07-.72-.2-.97-.69-.13-.25-.27-.45-.32-.45-.11 0-.12.29-.02.62.05.18.04.34-.04.62-.1.32-.1.41-.01.67.06.17.16.32.25.36.25.11.3.65.13 1.26-.13.43-.26.57-.61.63-.22.04-.27.03-.27-.06 0-.06-.05-.11-.11-.11s-.11-.03-.11-.06-.14-.1-.32-.15-.3-.11-.28-.13c.02-.02.29-.03.58-.01l.54.01.02-.48.01-.48-.56-.56-.56-.56-.32-.91c-.18-.5-.38-1.14-.45-1.41-.1-.39-.24-.66-.6-1.18-.27-.38-.54-.7-.61-.72-.08-.01-.15-.12-.18-.23-.02-.13-.08-.2-.18-.22-.11-.01-.18-.11-.25-.36-.07-.23-.13-.32-.2-.29-.08.03-.09-.02-.08-.2.01-.14.06-.22.13-.23.24-.01.28-.04.4-.24.06-.12.18-.21.25-.21.06 0 .19-.13.27-.28.09-.15.2-.28.25-.28.05 0 .11-.08.13-.2.13-.61.19-1.15.15-1.24-.07-.18-.17-.11-.21.15-.1.57-.13.65-.22.65-.12 0-.25.22-.25.42 0 .09-.06.17-.13.19-.07.02-.19.15-.25.31-.11.23-.14.26-.23.19-.08-.08-.13-.06-.25.12-.21.3-.55.6-.89.81-.5.29-.74.57-.8.9-.05.32-.11.39-.27.32-.25-.1-.32-.4-.3-1.35.01-.73.04-.9.11-.84.05.04.12.21.16.39.09.35.12.38.33.32.15-.04 1.11-1.14 1.25-1.44.24-.48.65-1.42.65-1.47 0-.03-.08-.04-.18-.01-.18.04-.18.04-.08-.19.19-.46.2-.54.07-.57-.11-.02-.09-.06.1-.27.13-.14.22-.3.22-.36 0-.18.16-.27.46-.27.18 0 .33-.04.38-.11.13-.14.2-.12.3.06zm-8.56.6c.21.27.41.36.76.37.32 0 .62-.13.78-.31.14-.17.18-.14.32.18.18.37.44.51.9.46.2-.02.42-.06.5-.08.11-.04.1-.01-.06.13-.34.32-.9.2-1.35-.29-.19-.21-.26-.25-.33-.18-.04.04-.14.08-.21.08s-.15.05-.17.11c-.1.25-.96 0-1.18-.34l-.12-.18-.21.21c-.11.12-.25.21-.3.21-.05 0-.11.05-.13.11-.06.16-.67.1-.93-.1l-.2-.14-.33.31c-.35.33-.44.35-1.07.27-.2-.03-.32-.08-.32-.14 0-.13.25-.13.36.01.07.08.16.1.38.06.37-.06.57-.2.72-.49.14-.3.22-.3.48-.04.13.13.27.21.38.21.25-.01.71-.22.91-.45.2-.21.23-.21.42.02zm-1.12 1.08c.01.05.01.13 0 .18-.01.07.21.09.89.09h.91l.04-.18c.05-.2.13-.22.25-.07.06.08.06.13.01.2-.06.07.04.12.5.21.32.07.7.18.86.26.16.08.35.14.43.15.07 0 .1.02.05.04-.04.02-.48-.05-.98-.15-1.54-.32-3.18-.32-4.22.01-.18.06-.43.1-.56.09l-.25-.01.21-.09c.12-.06.43-.13.7-.18.27-.05.6-.13.74-.19.21-.08.25-.13.22-.27-.02-.12 0-.17.08-.17.07 0 .12.04.12.08zm-4.49.41c.15.28.32.3.58.07.22-.2.28-.21.81-.21.44 0 .6.03.72.13.28.22.12.29-.68.29h-.74l.04.18c.03.12.01.18-.05.18-.06 0-.13.08-.18.18-.11.25-.25.18-.24-.14l.01-.25-.21.11c-.12.06-.26.09-.32.07-.11-.04-.13-.29-.03-.36.04-.02.07-.12.07-.22.01-.2.11-.22.22-.03zm9.95-.03c.05.06.16.11.26.11.09 0 .26.05.38.11.2.11.22.1.41-.11.14-.15.22-.2.24-.13.08.29.18.67.18.72 0 .09-.2.04-.37-.1-.25-.2-.27-.18-.25.12.02.22 0 .27-.12.27-.08 0-.17-.07-.21-.16-.04-.08-.09-.15-.12-.15-.04 0-.06-.08-.06-.18 0-.17-.01-.18-.12-.09-.09.08-.12.08-.14.01-.02-.06-.19-.08-.51-.08-.52 0-.56.04-.56.42 0 .2-.13.38-.15.2 0-.05-.01-.23-.02-.41-.01-.18.03-.39.08-.48.08-.13.15-.15.54-.15.32-.03.48.01.54.08zm-2.93.39c.32.06.48.11.48.18 0 .08-.36.1-1.96.1-1.08 0-1.96-.01-1.96-.04 0-.01.12-.09.27-.17.23-.13.4-.14 1.47-.15.66 0 1.42.04 1.7.08zm-4.79.77c.2-.14.28-.15 3.25-.15 2.78 0 3.07.01 3.27.12.18.1.24.11.26.04.04-.12.2-.11.31.03.08.1.1.09.21-.05l.12-.15.05.22c.02.13.07.22.09.22.03 0 .08.08.13.18.07.15.06.22-.06.41-.15.25-.15.65-.01.62.13-.03.11.06-.13.39-.25.36-.24.46.02.48.23.03.23.04.04.3l-.16.22.18.15.18.16.01 1.54c.01 2.11-.1 2.48-1.03 3.32-.55.5-1.3.84-1.85.84-.18 0-.46.05-.62.11-.24.1-.47.11-1.32.08-1.62-.06-2.57-.37-3.27-1.07-.79-.79-.97-1.45-.94-3.52.02-1.41.02-1.42.18-1.46.18-.04.2-.22.06-.41-.13-.18-.13-.25 0-.25s.24-.21.19-.35c-.02-.06-.11-.21-.21-.33-.15-.2-.15-.24-.06-.27.14-.06.15-.43.01-.62-.14-.19-.13-.43.03-.6.07-.07.15-.18.16-.22.03-.08.05-.08.15 0 .11.08.14.08.27-.01.15-.09.17-.09.21.04.08.13.08.13.28-.01zm-3.17 1.75c.13.08.27.2.31.28.04.07.12.13.18.13s.15.18.25.49c.12.41.19.52.37.63.41.25.4.2.4 1.54 0 1.46.06 1.82.38 2.49.34.69.76 1.18 1.23 1.42.21.11.39.2.41.21.01.01-.01.08-.06.16-.07.14-.08.14-.29-.11-.12-.13-.34-.31-.5-.39-.28-.14-.29-.14-.38-.01-.1.13-.11.13-.17.01-.14-.25-.5-.61-.6-.61-.08 0-.1.09-.08.46.01.39.01.44-.07.34-.17-.23-.18-.46-.05-.7.09-.16.13-.39.13-.71.01-.49-.14-1.14-.25-1.14-.04 0-.12.13-.18.28-.11.29-.25.34-.29.11-.01-.07.08-.38.22-.68.25-.53.26-.6.24-1.17-.01-.48-.04-.61-.13-.63-.06-.01-.15.06-.2.16-.12.22-.32.24-.25.01.14-.46.18-.72.13-.95-.06-.36-.38-1.01-.47-.97-.17.05-.28.43-.28.93s.06.7.27 1c.06.09.09.16.06.16-.04 0-.14-.13-.23-.28-.31-.5-.57-.46-.57.08 0 .43.27 1.02.55 1.24.2.14.41.61.33.69-.02.02-.11-.04-.19-.15-.1-.12-.2-.18-.3-.17-.13.02-.15.06-.13.34.03.52.15.77.58 1.23.23.25.41.49.41.55 0 .14-.04.13-.34-.07-.31-.21-.43-.22-.43-.04 0 .19.29.76.53 1.04.15.17.16.22.08.22-.11 0-.2-.07-.5-.47-.17-.21-.19-.22-.59-.18-.27.03-.43.01-.46-.04-.1-.17-.04-.77.11-1.06.14-.27.14-.34.08-1.04-.09-.88-.23-1.45-.42-1.7-.22-.28-.57-.93-.57-1.06 0-.07.06-.16.13-.2.07-.04.17-.17.2-.29.06-.14.13-.21.22-.21s.21-.11.32-.28c.1-.15.2-.28.24-.28.04 0 .12-.18.18-.39.06-.21.13-.39.15-.39.04.02.16.09.29.17zm13.38.22c.07.32.24.58.69 1.04.14.15.26.32.26.39 0 .06.08.13.18.17.23.09.22.16-.06.57-.55.76-.7 1.23-.78 2.41-.05.65-.04.73.13 1.08.1.2.17.41.15.46-.01.04-.04.16-.06.27-.04.19-.06.2-.49.2-.44 0-.45 0-.7.32-.15.18-.32.32-.37.32-.1 0-.09-.03.03-.15.18-.19.58-.91.58-1.02 0-.12-.43-.11-.62.03-.08.06-.19.08-.22.06-.08-.05.32-.48.51-.55.32-.11.73-1.66.45-1.66-.06 0-.2.08-.32.18-.12.1-.22.18-.25.18-.11 0 .07-.35.3-.6.15-.15.34-.42.42-.59.18-.36.27-1.02.15-1.09-.13-.08-.41.13-.61.46-.25.41-.3.28-.06-.18.23-.47.29-.89.18-1.36-.13-.57-.24-.59-.5-.04-.23.49-.24.65-.09 1.61l.04.28-.14-.21c-.07-.12-.18-.25-.25-.3-.17-.14-.26.09-.26.67 0 .58.08.87.33 1.23.2.28.25.69.11.83-.05.05-.11-.04-.2-.29-.24-.67-.37-.53-.43.46-.03.49-.01.69.08.9.15.36.14.57-.04.86-.21.34-.29.29-.13-.08.13-.31.13-.67-.02-.67-.16 0-.36.18-.55.48-.19.29-.2.31-.2.13 0-.36-.47-.18-.94.36-.18.2-.22.22-.27.13-.13-.24-.81.08-1.16.55l-.24.31-.25-.11c-.88-.36-.93-.48-.27-.53.54-.04 1.57-.34 2.09-.62.76-.41 1.3-1 1.64-1.82.11-.27.14-.56.18-1.93l.04-1.61.29-.15c.24-.13.32-.24.48-.62.15-.36.26-.5.48-.67.16-.11.34-.25.39-.31.13-.21.22-.13.3.22zm-15.17 2.42c.4.43.41.46.59 1.4.21 1.1.22 1.21.03 1.57-.13.25-.14.35-.1.81.06.63.13.7.71.62.26-.03.38-.02.38.04 0 .04-.06.08-.13.08s-.22.09-.33.21c-.11.11-.25.21-.29.21s-.15.04-.24.08c-.13.08-.16.07-.31-.11-.1-.11-.24-.42-.32-.69-.13-.43-.14-.54-.07-.82.12-.5-.13-1.34-.41-1.34-.14 0-.42-.39-.42-.6 0-.06.08-.34.18-.62.09-.28.2-.64.25-.81.04-.16.11-.29.16-.29s.19.12.32.26zm16.92-.07c.06.11.17.43.25.72s.18.6.22.68c.14.28-.08.72-.36.72-.08 0-.19.12-.31.36-.16.33-.18.46-.17 1.04.01.76-.15 1.31-.49 1.63l-.2.19-.1-.18c-.05-.1-.12-.18-.15-.18s-.12-.06-.2-.14c-.08-.08-.2-.14-.27-.14-.08 0-.15-.03-.18-.06-.03-.04.13-.05.36-.03.31.03.43.01.49-.07.15-.18.18-.95.06-1.37-.14-.49-.14-.79.02-1.68.1-.54.18-.79.33-1 .11-.16.26-.38.33-.49.17-.24.24-.24.37 0zm-17.8 2.26c.07.08.17.14.22.14.23 0 .39.64.24 1.02-.06.14-.04.32.1.77.09.32.2.65.25.72.11.2.1.22-.05.22-.08 0-.18-.1-.24-.23-.11-.23-.69-.68-.88-.68-.06 0-.11.04-.13.1-.05.13.15.6.34.79.08.09.13.18.11.2-.07.08-.18-.04-.34-.36-.2-.41-.36-.52-.77-.52-.26 0-.35-.03-.41-.13-.15-.28-.07-.42.52-1 .46-.45.61-.63.67-.88.08-.33.18-.37.37-.16zm18.64.23c.09.27.27.5.68.93.48.48.55.6.54.78-.02.2-.04.21-.41.25-.47.04-.53.08-.7.41-.18.35-.34.54-.39.48-.03-.02.04-.14.14-.26.18-.22.3-.53.23-.61-.07-.06-.49.04-.72.18-.12.08-.27.26-.35.42-.08.16-.16.29-.18.29-.12 0-.12-.25.01-.48.07-.15.19-.48.25-.74.1-.41.11-.51.03-.75-.12-.35 0-.81.23-.9.08-.04.22-.13.29-.21.08-.08.15-.15.18-.15.02-.01.1.15.17.36zm-13.82 2.64c.29.08.66.2.81.28.15.08.35.15.43.15.08 0 .22.04.3.1.08.06.38.14.65.19.53.1.69.18.5.25-.15.06-1.04-.15-1.26-.28-.26-.17-1.42-.53-1.88-.6-.34-.05-.49-.04-.65.04-.11.06-.29.1-.39.1l-.18-.01.21-.17c.27-.23.71-.24 1.46-.05zm10.15.13c.09.11.07.11-.27.06-.5-.06-1.42.07-1.92.28-.22.09-.49.17-.6.17s-.42.08-.69.18c-.48.18-.94.23-.94.11 0-.04.11-.09.22-.12.13-.02.29-.08.37-.14.16-.1 1.09-.34 1.61-.42.19-.03.43-.09.53-.14.12-.06.43-.1.89-.1.57 0 .72.02.8.12zm2.11.21c.05.06.27.09.65.09.41 0 .62.04.73.11.15.11.18.11.29 0 .15-.14.28-.14.33-.01.04.09.06.09.19 0 .11-.07.34-.11.75-.11.33 0 .77-.05.98-.11.24-.06.41-.08.45-.04.04.04.03.08-.04.09-.06.01-.25.08-.45.15-.21.06-.58.11-.91.11-.32 0-.64.04-.74.09-.12.06-.27.07-.49.04-.18-.04-.77-.08-1.33-.13-1.34-.08-1.69-.15-1.69-.32 0-.08.11-.11.6-.08.38.03.63.06.68.12z"/><path d="M59.34 12.29c-.27.28-.56.65-.66.83-.17.32-.17.33-.04.47.15.18.29.18.55.05.2-.11.24-.06.12.16-.15.29-.48.22-.84-.17-.25-.26-.5-.38-.72-.34s-.27.1-.27.36c-.01.16.09.3.48.69.27.27.73.74 1.02 1.04.3.31.69.69.87.86.27.24.32.33.29.48-.03.14.01.25.17.41.18.2.2.26.16.5-.17 1.06-.11 1.36.36 1.86.43.46.96.71 1.62.75.39.03.54.01.63-.07.06-.06.2-.13.31-.15.28-.06.63-.4.87-.83.18-.34.2-.43.2-1 0-.8-.18-1.22-.67-1.52-.71-.43-.71-.43-1.5-.46-.71-.03-.78-.04-.9-.2-.08-.1-.2-.17-.31-.17-.2 0-.72-.38-1.21-.87l-.32-.32.17-.18c.09-.1.2-.18.26-.18.11 0 .11.04.01.22-.06.11-.06.18.01.31.21.39.54.25 1.33-.57.57-.6.57-.62 0-1.07-.34-.27-.53-.27-.72 0-.14.19-.14.2-.01.34.07.08.18.14.26.14.15 0 .17.13.02.18-.25.1-1.15-.77-1.05-1.01.04-.09.06-.07.12.11.04.14.11.23.17.23.18 0 .5-.22.55-.38.06-.25-.32-.72-.77-.97-.05-.02-.29.19-.56.47zm.88.1c.18.22.19.4.04.52-.09.08-.11.06-.11-.09 0-.09-.06-.24-.12-.32l-.13-.15-.26.31-.26.31.57.61c.72.79.77.81 1.04.54.24-.24.27-.43.08-.59-.1-.09-.15-.1-.21-.04-.04.04-.11.06-.13.03-.07-.06.07-.28.2-.31.14-.03.48.3.48.47 0 .15-.76 1.01-1 1.14-.13.07-.14.06-.09-.21.04-.24.01-.32-.14-.5l-.19-.22-.34.33c-.4.39-.43.57-.13.77.24.17 1.11 1.12 1.11 1.22 0 .2-.22.07-.89-.53-.41-.38-1.03-1-1.37-1.39-.57-.64-.62-.71-.48-.73.13-.02.27.08.56.36.22.22.45.39.5.39.18 0 .69-.52.69-.69 0-.24-.31-.34-.57-.19-.2.12-.2.12-.2-.02 0-.18.9-1.18 1.07-1.19.08-.02.2.07.28.17zm2.66 4.13c.91.27 1.51 1.42 1.17 2.24-.42 1-1.39 1.37-2.35.88-.95-.48-1.21-1.33-.71-2.31.15-.31.43-.57.81-.76.35-.19.6-.2 1.08-.05z"/><path d="M61.7 16.94c-.32.16-.4.25-.54.55-.2.42-.22.93-.06 1.25.14.28.57.73.81.86.24.13.79.13.91.01.05-.06.21-.15.36-.22.82-.39.88-1.86.1-2.45-.34-.26-1.05-.26-1.58 0zm1.43.38c.1.11.12.22.09.57-.02.29 0 .53.07.68.09.22.08.25-.03.34-.08.06-.24.08-.5.05-.22-.03-.5-.01-.69.04-.41.11-.47.04-.41-.48.02-.2 0-.51-.04-.68-.12-.46-.03-.55.56-.49.36.04.49.02.6-.06.19-.14.21-.14.35.03z"/><path d="M62.19 17.67c0 .04-.05.07-.11.07-.11 0-.24.39-.19.57.05.2.28.35.61.39.31.04.32.04.43-.22.19-.46-.04-.88-.5-.88-.13 0-.24.03-.24.07z"/></g></svg>