<?xml version="1.0" encoding="utf-8"?>
<!-- Generator: Adobe Illustrator 19.2.1, SVG Export Plug-In . SVG Version: 6.00 Build 0)  -->
<svg version="1.1" id="Layer_1" xmlns="http://www.w3.org/2000/svg" xmlns:xlink="http://www.w3.org/1999/xlink" x="0px" y="0px"
	 width="132.5px" height="27px" viewBox="0 0 132.5 27" style="enable-background:new 0 0 132.5 27;" xml:space="preserve">
<g>
	<polygon points="118.8,6.1 118.8,9.6 123.5,9.6 123.5,21.2 127.7,21.2 127.7,9.6 132.5,9.6 132.5,6.1 	"/>
	<polygon points="114.1,6.1 109.9,6.1 109.9,21.2 121,21.2 121,17.8 114.1,17.8 	"/>
	<path d="M100,5.8c-4.9,0-8.2,3.2-8.2,7.9c0,4.7,3.4,7.8,8.4,7.8c2.8,0,5-0.7,6.8-2.2l0.1-0.1l-2.6-2.6
		l-0.1,0.1c-1.1,0.9-2.5,1.3-4,1.3c-2.2,0-3.6-1.1-4.1-3v-0.1h11.4V15c0.1-0.3,0.1-0.9,0.1-1.3C107.8,9,104.7,5.8,100,5.8z
		 M103.3,12.2h-7v-0.1c0.5-1.9,1.7-2.8,3.6-2.8C101.8,9.3,102.9,10.3,103.3,12.2L103.3,12.2z"/>
	<polygon points="87.5,6.1 84.5,16.7 81.4,6.1 76.8,6.1 73.7,16.7 70.8,6.1 66.4,6.1 71,21.2 76.1,21.2
		79.1,11.7 82.1,21.2 87.1,21.2 91.8,6.1 	"/>
	<polygon points="28.4,15.3 36.2,15.3 36.2,11.9 28.4,11.9 28.4,9.4 36.7,9.4 36.7,6.1 24.1,6.1 24.1,21.2
		36.8,21.2 36.8,17.9 28.4,17.9 	"/>
	<rect x="17.3" y="6.1" width="4.2" height="15.1"/>
	<path d="M6.8,6.1H0v15.1h6.8c5.2,0,8.5-3,8.5-7.6C15.4,9.1,12,6.1,6.8,6.1z M6.7,17.8H4V9.5h2.7
		c2.8,0,4.5,1.5,4.5,4.2C11.2,16.2,9.5,17.8,6.7,17.8z"/>
	<path d="M50.9,8.9c0.1,0,0.1-0.1,0.1-0.1C50.9,8.8,50.9,8.9,50.9,8.9z"/>
	<path d="M49.3,5.9c0-0.1,0.1-0.1,0.2-0.2c0.1,0.1,0,0.2,0.1,0.2c0.1,0,0.1-0.1,0.2-0.2
		c0-0.1-0.1-0.2-0.1-0.3c0.1,0,0.1,0.1,0.1,0.1c0,0,0.1-0.1,0.1-0.1c-0.1-0.1-0.1,0-0.2,0c0-0.1,0.1-0.1,0.1-0.2
		C50,5.2,50,5.3,50,5.3c0.1,0,0.1,0,0.1-0.2c0.1,0,0.2,0,0.2-0.1c0,0-0.2-0.2,0-0.2c0.1,0,0.1-0.1,0.1-0.2c-0.1,0-0.1,0-0.1-0.1V4.5
		c0.1,0,0.3,0,0.3,0c0-0.1,0-0.1,0-0.1h-0.1c0,0,0-0.1,0.1-0.1h0.1V4.3c-0.1,0-0.1,0.1-0.1,0.1c0.1-0.2,0.4-0.2,0.4-0.4
		c0.1,0,0.1-0.1,0.2-0.1c0-0.1,0.1-0.1,0.2-0.2V3.5c0,0,0,0-0.1,0l-0.1,0.1c0,0,0,0-0.3,0.1c0.1-0.1,0.2-0.1,0.3-0.2c0,0,0,0,0,0
		c0,0,0.1,0,0.2-0.1h0.1l0.1-0.1c0-0.1-0.1-0.1,0.1,0h0.1L51.9,3c-3.2,0.1-6,1.4-8.1,3.4l0.2-0.1c0.1-0.1,0.1-0.1,0.1-0.1h0.1h0.1
		c0.1,0,0.1,0,0.1,0c-0.1,0-0.1,0.1-0.1,0.1c0,0-0.1,0-0.1,0.1c0,0,0,0,0.1,0c0,0.1-0.1,0.1-0.1,0.1c0.1,0,0.1-0.1,0.1-0.1
		c0.1,0,0.1,0,0.1,0s0,0,0,0.1c-0.1,0.1,0,0.1,0,0.1c0.1-0.1,0.1-0.1,0.1-0.2c0-0.1,0.1-0.1,0.1-0.1c0.1-0.1,0.1-0.1,0.1-0.3
		l0.1-0.1c0,0,0,0,0,0c0,0,0,0,0,0c0,0,0,0,0.1-0.1h0.1H45c0.1,0,0.1,0,0.5-0.3c0.1,0,0.3-0.1,0.3-0.2c0.1-0.1,0.1-0.1,0.1-0.1
		c-0.1,0-0.1,0-0.1,0.1V5.1c0.4-0.3,0.8-0.5,1.1-0.7h0.1c0.1,0,0.3-0.1,0.5-0.2l0.1-0.1l0.1-0.1l0.4-0.2H48c0,0,0.3-0.1,0.4-0.1
		c-0.1,0-0.1,0.1-0.1,0.1l0.1,0.1L48.2,4h0.1h0.1c0.1,0,0.1-0.1,0.3-0.1c0,0-0.1,0-0.2,0.1V3.9c0.1-0.1,0.2-0.1,0.2-0.1h-0.1
		c-0.1,0,0.1-0.1,0.2,0c0.1,0,0.2-0.1,0.2-0.1H49l0.2-0.1c0,0,0.1-0.1,0.3-0.1c0.1,0,0.1,0,0.1,0c0.1,0,0.5-0.1,0.5-0.1
		s-0.3,0.1-0.4,0.1c-0.1,0-0.1,0-0.1,0c-0.3,0.1-0.5,0.1-0.6,0.1c0,0-0.2,0.1-0.1,0.1c0,0.1-0.1,0.1-0.1,0.1
		c-0.1,0.2-0.3,0.2-0.4,0.4h0.1c0.1,0,0.1,0,0.1,0v0.1c0,0,0,0-0.5,0.5c-0.3,0.3-0.3,0.3-0.3,0.3s-0.3,0.2-0.3,0.2s0,0,0.1-0.1
		c-0.1,0.1-0.1,0.2-0.2,0.3c0-0.1-0.1-0.1-0.1-0.1c-0.1,0-0.1,0.1-0.1,0.2c0,0.1-0.3,0.3-0.3,0.3c-0.1-0.1-0.6,0.5-0.7,0.5
		c0,0,0,0.1-0.1,0.1c-0.1,0.1,0,0.1-0.1,0.2C46,6.9,45.9,7,45.8,7c-0.1,0.2-0.2,0.4-0.2,0.6c0,0.1-0.1,0.1,0,0.2h0.1v0.1
		C45.8,8,45.8,8.1,46,8.2c0.3-0.2,0.4-0.5,0.4-0.5c0-0.1,0-0.1,0.1-0.2c0.1-0.1,0.2-0.1,0.3-0.1C47,7.2,47,7.1,47.2,7
		c0,0,0,0,0.1,0.1c0.4-0.3,0.4-0.3,0.4-0.3c-0.1,0.1-0.1,0.1-0.1,0.1c0.3-0.1,0.4-0.1,0.6-0.3c0,0,0.3-0.3,0.3-0.2
		c0,0,0.1-0.1,0.3-0.1c0.3,0,0.8-0.3,0.8-0.3C49.5,5.9,49.4,5.8,49.3,5.9z"/>
	<path d="M48,3.9C48,3.9,48,3.9,48,3.9c0.1,0,0.2-0.1,0.3-0.1h-0.1C48.1,3.9,48,3.9,48,3.9z"/>

		<ellipse transform="matrix(0.8944 -0.4472 0.4472 0.8944 3.3997 22.1236)" cx="48.6" cy="3.9" rx="0" ry="0"/>
	<path d="M41.3,10.9c0,0,0,0,0.1-0.1L41.3,10.9z"/>
	<path d="M48,3.9C47.9,3.9,47.8,4,48,3.9L48,3.9z"/>
	<path d="M47.6,4.1C47.6,4.1,47.6,4.1,47.6,4.1l-0.1,0.1c0,0,0,0,0.1,0c0,0,0.1,0,0.3-0.1C48,4.1,48,4.1,48,4
		c0,0,0,0,0,0c0,0,0,0-0.1,0C47.9,4,47.6,4.1,47.6,4.1z"/>
	<path d="M40.7,13.7v0.1c0.1,0.2,0.1,0.3,0.1,0.5c0,0.2,0,0.3,0.1,0.5h0.1c0.1-0.3,0.1-0.5,0-0.8
		c-0.1-0.3-0.1-0.7,0.1-1H41c0-0.1,0.1-0.2,0.1-0.3c0,0,0,0,0.1,0c0.1-0.1,0.1-0.3,0.1-0.4c0.1-0.1,0.1-0.2,0.1-0.3c0,0,0,0,0-0.1
		c0.1-0.1,0.1-0.2,0.1-0.3h0.1c0,0,0.1,0,0.1-0.1v-0.1c0,0,0,0,0.1,0h0.1c0,0,0.1-0.1,0.1-0.1c0-0.1,0-0.1,0.3-0.4c0,0,0,0,0.1,0.1
		h0.1c0.1-0.1,0.1-0.1,0.1-0.1c0,0,0,0,0.1,0c0,0,0,0,0,0c-0.1,0-0.1,0-0.2,0.1c-0.1,0.1-0.1,0.2-0.1,0.3h0.1h0.1
		c0.1,0,0.1-0.1,0.1-0.1s0-0.1,0.1-0.1c0.1,0,0.1,0,0.1-0.1c0.1,0,0.1,0,0.2-0.1v-0.1h0.1c0.1,0,0.1,0,0.1-0.1V11c0,0,0,0-0.1,0
		c0,0,0,0,0-0.1c-0.1,0.1-0.2,0.2-0.2,0.2c-0.1,0-0.1,0-0.1-0.1c-0.1-0.1,0-0.3,0-0.4c0,0,0-0.1,0.1-0.1v-0.1l0.1-0.1
		c0.1-0.1,0.1-0.1,0.1-0.2v-0.1c0,0-0.1-0.1-0.1-0.1h-0.1c0,0-0.1,0-0.1,0c0,0,0,0,0,0c0.1,0,0.1-0.1,0.1-0.1l0.1-0.1
		c0,0,0.1,0,0.2,0.1c0.1,0,0.2,0.1,0.3,0.1h0.1c0.1,0,0.1-0.1,0.1-0.1c0.1-0.1,0.1-0.1,0.1-0.1h0.1c0,0,0,0,0.1,0c0,0,0,0,0.1,0
		c0,0,0.2-0.1,0.2-0.2c0,0,0,0-0.1,0c0.1-0.1,0.1-0.1,0.1-0.1c0-0.1,0-0.1,0-0.2h-0.1l-0.1,0.1c0.1-0.1,0.1-0.1,0.1-0.1
		C44,9.4,44,9.3,44,9.2h-0.1V9.2l-0.1-0.1h-0.1c0.1-0.2,0.1-0.2,0-0.3c0.1,0,0.1-0.1,0.4-0.9c0.1-0.3,0.1-0.3,0.1-0.3V7.6h-0.1
		c-0.1,0.1-0.3,0.3-0.4,0.3h-0.1C43.8,8,43.8,8,43.7,8V7.9V7.8c-0.1-0.1,0.1-0.3,0.1-0.3C43.9,7.4,44,7.4,44,7.4s0-0.1,0.1-0.2
		c0.1-0.1,0.1-0.1,0-0.3H44c0,0,0,0,0,0c0,0,0.1,0,0.1-0.1c0,0-0.1,0-0.1,0.1c0,0,0,0,0,0c0,0,0,0-0.1-0.1c0,0-0.3,0.2-0.5,0.5
		c-0.1,0.1-0.1,0.1-0.1,0.1c-0.1,0.1-0.1,0.1-0.2,0.2c-0.2,0.3-0.2,0.3-0.3,0.5c0,0.1-0.1,0.1-0.1,0.1c-0.1,0.1-0.3,0.2-0.3,0.2
		s-0.1,0.2-0.4,0.7h-0.1c0-0.1,0.1-0.2,0.1-0.4c0.1-0.1,0.1-0.1,0.1-0.3c0.1-0.1,0.1-0.1,0.1-0.2c0-0.1,0-0.1,0-0.1V8.1
		c0.1-0.3,0.2-0.4,0.3-0.4C41.5,9.3,40.7,11.4,40.7,13.7L40.7,13.7z M41.5,10.9C41.5,11,41.5,11,41.5,10.9C41.5,11,41.5,11,41.4,11
		C41.4,11,41.5,10.8,41.5,10.9C41.5,10.9,41.5,10.9,41.5,10.9C41.6,10.9,41.5,10.9,41.5,10.9z M41.3,10.7c0-0.1,0.1-0.5,0.2-0.5
		c0.1-0.1,0.1-0.1,0.1-0.1c0,0.1,0,0.1,0,0.1c0,0.1,0,0.1,0,0.1s-0.1,0.3-0.1,0.3c0-0.1,0-0.1,0-0.1c0,0.1-0.1,0.1-0.1,0.1
		c-0.1,0.1-0.2,0.3-0.2,0.3L41.3,10.7z M41.2,11L41.2,11L41.2,11c0.1,0,0.1,0,0.1,0.1c0,0.1-0.1,0.1-0.1,0.1s0,0-0.1,0
		C41.1,11.1,41.1,11,41.2,11z"/>
	<path d="M42.7,7.5L42.7,7.5c0,0.1,0,0.1,0,0.1c0.3-0.5,0.7-0.9,1.1-1.3l-0.1,0C43.3,6.8,43.2,6.9,42.7,7.5z"
		/>
	<path d="M41.3,10.8l0.1-0.1C41.4,10.6,41.3,10.7,41.3,10.8z"/>
	<polygon points="48.6,3.9 48.7,3.8 48.6,3.8 	"/>
	<path d="M51,9.4c0,0,0,0,0.1,0c0,0,0,0,0-0.1C51,9.4,51,9.4,51,9.4z"/>
	<path d="M51.1,9.7c0-0.1-0.1-0.2-0.1-0.2c-0.1,0-0.1,0.1-0.1,0.1c-0.1,0-0.1-0.1-0.1,0c-0.1,0-0.1,0.1,0,0.1
		c0.1,0.1,0.1,0.1,0.1,0.1l-0.1,0.1c-0.1,0-0.1,0-0.1,0c0,0,0,0,0,0.1s-0.1,0.1,0,0.1c0,0.1,0.1,0.1,0.1,0.1c0,0,0,0-0.1,0.1
		c0,0,0,0,0,0.1c0,0.1,0,0.1-0.1,0.1c-0.2,0-0.2,0.1-0.2,0.1c0,0.1,0.1,0.1,0.1,0.1c0.1,0.1,0.3-0.1,0.4-0.1c0,0,0,0,0.1-0.1
		c0.1,0,0.1,0,0.1,0c0,0,0,0,0.1,0c0.1-0.1,0-0.3,0-0.4C51,9.8,51.1,9.8,51.1,9.7z"/>
	<path d="M43.7,10.1L43.7,10.1c0.1-0.1,0.1-0.1,0.1-0.1V9.9c-0.1,0-0.2,0.1-0.3,0.3c-0.1,0.1-0.1,0.1-0.1,0.2
		c0,0.1-0.1,0.1-0.1,0.1s-0.1,0-0.1,0.1c0,0,0,0,0,0.1c0,0,0,0-0.1,0.1c0,0-0.1,0.1-0.1,0.1c0,0,0.1,0,0.1,0s0.1,0.1,0.1,0h0.1v0.1
		c0,0,0,0,0.1,0c0,0,0,0,0,0.1c0,0-0.1,0.1-0.1,0.1c0,0,0,0,0.1-0.1c0.1-0.1,0.1,0,0.1,0c0,0.1,0,0.1,0,0.1c0.1,0,0.1,0,0.1-0.1
		c0-0.1,0.1-0.1,0-0.1c0,0,0,0-0.1,0c-0.1-0.1,0.1-0.1,0.1-0.1c0,0,0-0.1-0.1,0c0-0.1,0.1-0.1,0.1-0.1s0,0,0-0.1h-0.1c0,0,0,0,0,0.1
		h-0.1c0,0,0,0,0-0.1v-0.1c0,0,0.1-0.1,0-0.1h-0.1c0-0.1,0-0.1,0.1-0.1C43.7,10.1,43.7,10.1,43.7,10.1z"/>
	<path d="M43,10.2C43,10.3,43.1,10.3,43,10.2c0.1,0-0.1-0.2-0.1-0.2C42.9,10,42.9,10.2,43,10.2z"/>
	<path d="M51.8,8.4c0-0.1,0-0.1,0-0.2C51.7,8.2,51.7,8.4,51.8,8.4z"/>
	<path d="M48.1,23.5c-0.1-0.1-0.3-0.1-0.4-0.3l-0.1-0.1c0,0,0,0,0.1,0c0,0,0,0,0-0.1c0.1,0,0.1,0,0.2,0
		l-0.1-0.1c0,0,0,0,0.1,0c0-0.1-0.1-0.1-0.1-0.2c0-0.1-0.1-0.1-0.1-0.1c-0.1-0.2-0.4-0.3-0.5-0.5c0.1,0.1,0.1,0.1,0.1,0
		c0-0.1-0.1-0.1-0.1-0.2c0,0,0,0,0.1,0c0.1,0,0.1,0,0.1-0.1c0,0,0-0.1,0-0.2c-0.1-0.1-0.3-0.3-0.3-0.4c-0.1-0.1-0.1,0-0.2,0
		c-0.1-0.1-0.3-0.1-0.4-0.2C46.4,21,46.3,21,46.2,21c0,0,0,0-0.1,0c0,0-0.1,0-0.1,0s-0.1,0-0.2,0s-0.1-0.1-0.2-0.1s-0.1,0-0.1,0.1
		c-0.1,0.1-0.1,0-0.1,0c-0.1-0.3-0.6-0.4-0.6-0.4s0,0,0,0.1c-0.1,0-0.1,0-0.1,0c0,0.1,0,0.1,0,0.1h-0.1c0,0,0,0,0-0.1s0-0.1,0-0.1
		s0-0.1-0.1-0.1c-0.1-0.1-0.1-0.1-0.2,0c0,0,0,0,0,0.1c-0.1,0-0.1-0.1-0.1-0.1c0-0.1,0-0.1-0.1-0.2c-0.2-0.2-0.3-0.5-0.6-0.6
		c-0.1-0.1-0.3-0.1-0.5-0.3h-0.1c-0.1-0.1-0.2-0.2-0.3-0.3c-0.1-0.1-0.2-0.1-0.3-0.3c0-0.1-0.2-0.2-0.3-0.3c0-0.1-0.1-0.1-0.3,0
		c-0.1-0.1-0.3-0.2-0.3-0.2c-0.1-0.1-0.1-0.3-0.3-0.3c0,0.1,0,0.1,0,0.1c0,0,0,0,0.1,0.3h-0.1c-0.1-0.2-0.1-0.4-0.1-0.4
		c0-0.1-0.1-0.1-0.1-0.1v0.1v0.1c0,0,0,0-0.1-0.1c0,0,0,0,0.1,0.4c-0.1-0.1-0.1-0.2-0.2-0.3V18c1.3,2.8,3.8,5,7.1,6
		c-0.1-0.1-0.1-0.1-0.3-0.1C48.2,23.7,48.2,23.6,48.1,23.5z"/>
	<path d="M47,4.7c0.1,0,0.1-0.1,0.1-0.1c-0.1,0.1-0.3,0.1-0.4,0.2c0,0,0,0,0,0C46.8,4.8,46.8,4.7,47,4.7
		C46.9,4.7,46.9,4.7,47,4.7z"/>
	<path d="M47,4.7L47,4.7c0.1,0,0.1,0,0.1,0s0.2-0.1,0.2-0.1s-0.1,0.1-0.1,0.1l0.1-0.1C47.2,4.6,47,4.6,47,4.7
		C46.9,4.7,46.9,4.7,47,4.7C46.9,4.7,46.9,4.7,47,4.7z"/>
	<path d="M44.5,7.2c0.1,0,0.2-0.3,0.3-0.5c0,0,0.1,0,0,0.1C44.7,7,44.8,7,44.8,7C44.9,7,45,6.9,45,6.9V6.8
		c0.1-0.1,0.2-0.1,0.1-0.2c-0.1-0.2,0.3-0.4,0.3-0.4c0,0.1-0.1,0.3-0.2,0.4l0.6-0.3c0,0,0.1-0.1,0-0.1C45.8,6.1,46,6,46,5.9
		c0-0.1,0.1-0.3,0.2-0.3c0,0,0.1,0,0.1-0.1c0,0,0,0,0-0.1c0.1-0.1,0.2-0.1,0.2-0.2c0,0,0,0-0.1,0c0.1-0.1,0.2-0.1,0.2-0.1l0.1-0.1
		c-0.1,0-0.1,0-0.1,0c0.1-0.1,0.3,0,0.3-0.1L47,4.8c-0.1,0-0.1,0-0.2,0.1c0,0,0,0,0.1-0.1c0,0,0,0-0.1,0c-0.1,0-0.1,0.1-0.1,0.1
		c0,0-0.1,0.1-0.2,0.1c0-0.1,0.5-0.3,0.7-0.4c0.1,0,0.1,0,0.1-0.1c-0.2,0-0.9,0.3-0.9,0.4s-0.1,0.1-0.1,0.1c-0.1,0-0.1,0.1-0.2,0.1
		c0,0,0,0,0,0.1C46,5.2,46,5.3,46,5.3H46c0,0.1,0,0.1,0,0.1c0.1,0,0.1-0.1,0.2-0.1c0,0.1-0.1,0.1-0.1,0.1C46,5.5,46,5.5,46,5.6
		c0,0-0.1,0-0.1,0.1c0,0-0.1,0-0.1,0c-0.1,0.1-0.3,0.2-0.4,0.3c0.1,0,0.1,0,0.1,0c-0.1,0.1-0.1,0.2-0.3,0.2C45.2,6.1,45.3,6,45.2,6
		C45,6,45,6.2,44.9,6.2c-0.1,0-0.1,0.1-0.1-0.1c-0.3,0.1-0.3,0.2-0.3,0.2c0.1,0,0.1,0,0.1,0.1c0.1,0,0.1-0.1,0.1-0.1
		c0.1,0.1,0,0.1,0,0.1l-0.2,0.3c0,0.1,0.1,0.1,0.1,0.1C44.5,7,44.5,7.1,44.5,7.2C44.5,7.2,44.5,7.2,44.5,7.2z"/>
	<path d="M47,5.8C47,5.8,47,5.8,47,5.8c0,0.1,0,0.1,0,0.1c0,0,0.1,0,0.1-0.1c0,0,0.1,0,0.1-0.1
		c0-0.1,0-0.1,0-0.1C47.1,5.6,47,5.7,47,5.8z"/>
	<path d="M45.4,5.8c0.2-0.1,0.2-0.1,0.2-0.2c-0.1-0.1-0.3,0.2-0.3,0.2C45.3,5.8,45.4,5.8,45.4,5.8
		C45.4,5.8,45.4,5.8,45.4,5.8z"/>
	<path d="M49.2,7.1L49.2,7.1c-0.2,0-0.3,0.1-0.2,0.1C49,7.2,49.1,7.1,49.2,7.1c-0.1,0.1-0.1,0.1-0.1,0.1h0.1
		c0,0.1,0,0.1-0.1,0.1S49,7.4,49,7.4c0.1,0,0.1-0.1,0.2,0c0.1,0,0.1,0.1,0.2,0.1c0.1,0,0.1,0,0.2-0.1c0,0,0,0,0.1-0.1
		c0.1,0,0.1,0,0.1,0s0.1-0.1,0.1-0.1c0,0,0,0,0.1,0c0,0,0,0,0.1,0l0.1-0.1h0.1l0.1-0.1c0-0.1,0-0.1-0.1-0.1c0,0-0.1,0-0.1-0.1
		c0-0.1,0-0.1,0-0.1c-0.1,0-0.1,0-0.1,0c0,0,0-0.1-0.1-0.1c0,0,0,0,0,0.1v0.1c0,0,0,0-0.1,0c0,0,0,0.1-0.1,0c0,0,0-0.1-0.1-0.1
		c0,0-0.1,0-0.1,0.1l-0.1-0.1l-0.1,0.1c0,0,0-0.1-0.1-0.1c0,0-0.1,0-0.1,0.1c0,0.1,0,0.1,0,0.1h-0.1c0,0-0.1,0-0.1,0.1
		c0,0,0-0.1,0-0.1c0.1-0.1-0.1-0.1-0.1-0.1s-0.1,0-0.1,0.1c0,0,0,0,0,0.1h-0.1H49C48.9,7,49,7,49,7C49.1,7,49.2,7,49.2,7.1
		C49.2,7,49.2,7,49.2,7.1L49.2,7.1z"/>
	<path d="M55.5,8.3C55.5,8.3,55.5,8.3,55.5,8.3c-0.2,0-0.1,0.1-0.1,0.1C55.4,8.4,55.5,8.3,55.5,8.3z"/>
	<path d="M54.9,8.6c0,0.1,0,0.1,0,0.1C55,8.8,55,8.6,54.9,8.6C54.9,8.6,54.9,8.6,54.9,8.6z"/>
	<path d="M54,9.2c0,0.1,0.1,0.1,0.1,0.1l0.1-0.1v0v0c0,0,0,0,0-0.1c-0.1,0.1-0.1,0-0.1,0c0-0.1,0-0.1-0.1-0.1
		c0,0-0.1,0-0.1,0.1C54,9.2,54.1,9.2,54,9.2C54.1,9.3,54,9.2,54,9.2z"/>
	<path d="M56.2,4.3c-0.1-0.1-0.1-0.1-0.1-0.1C56.1,4.3,56.2,4.3,56.2,4.3z"/>
	<path d="M56.2,4.9C56.2,4.9,56.2,4.9,56.2,4.9C56.2,4.9,56.2,4.9,56.2,4.9z"/>
	<path d="M56.1,4.7l-0.4-0.3c-0.3-0.1-0.3-0.1-0.4-0.1c-0.4-0.4-0.4-0.4-0.5-0.5c-0.1,0-0.1-0.1-0.1,0
		c0,0.1,0.1,0.1,0.1,0.1c0,0,0,0,0.1,0.1h-0.1c0,0,0,0,0.1,0.1c0,0,0,0,0,0.1c0.1,0.1,0.1,0.1,0.2,0.1c0.1,0.1,0.1,0.1,0.3,0.1
		c0.1,0.1,0.1,0.1,0.1,0.1s0,0,0.1,0.1c0.1,0,0.1,0,0.1,0l0.1,0.1c0,0,0.1,0,0.1,0.1c0.2,0.1,0.2,0.1,0.2,0.1
		C55.8,4.8,56,4.9,56,4.9c0.1,0,0.1,0,0.2,0.1c0,0,0,0,0-0.1c0,0,0.1,0,0.1,0.1s0.3,0,0.3,0s-0.1,0-0.1-0.1
		C56.4,4.9,56.2,4.8,56.1,4.7z"/>
	<path d="M56.4,4.1C56.4,4.1,56.5,4.2,56.4,4.1L56.4,4.1z"/>
	<path d="M58.9,13.1L58.9,13.1C58.9,13.2,58.9,13.1,58.9,13.1z"/>
	<path d="M58.8,13.3C58.8,13.3,58.8,13.3,58.8,13.3c0-0.1,0-0.1,0-0.1c-0.1,0.1-0.1,0.1-0.1,0.1
		c-0.1,0-0.1,0-0.1,0.1c-0.1,0.1,0,0.1,0.1,0.1C58.7,13.4,58.8,13.3,58.8,13.3z"/>
	<path d="M56.3,5.3c-0.1,0.1,0.1,0.1,0.2,0.1V5.4C56.5,5.4,56.4,5.3,56.3,5.3z"/>
	<path d="M59.5,21.4c0,0-0.1,0.1-0.1,0.1l-0.3,0.2c-0.1,0-0.2,0.1-0.2,0.1c-0.2,0.2-0.3,0.3-0.3,0.3
		c0,0.1-0.1,0.1-0.1,0.1C58,22.6,58,22.7,58,22.7c0.1,0.1,1.2-0.8,1.3-1c0.2-0.2,0.3-0.2,0.3-0.3c0,0,0.2-0.2,0.2-0.4
		c-0.1,0.1-0.1,0.1-0.2,0.2C59.6,21.4,59.5,21.4,59.5,21.4z"/>
	<path d="M52.8,13.1c0.1,0,0.2,0,0.2-0.1C52.9,13,52.8,13.1,52.8,13.1z"/>
	<path d="M53.9,5.6C53.9,5.6,53.9,5.6,53.9,5.6C53.9,5.6,53.9,5.6,53.9,5.6z"/>
	<path d="M52.9,8.2C52.9,8.2,52.9,8.2,52.9,8.2c-0.1,0.1-0.1,0.1-0.1,0.1s0,0,0.1,0V8.2
		C52.9,8.2,52.9,8.2,52.9,8.2C52.9,8.2,52.9,8.2,52.9,8.2z"/>
	<path d="M53.9,5.5C53.9,5.5,53.9,5.5,53.9,5.5L53.9,5.5L53.9,5.5L53.9,5.5z"/>
	<path d="M57,3.9c-0.3-0.1-0.5-0.2-0.9-0.3l-0.4-0.1c0,0,0,0,0.2,0.1c-0.1,0-0.1,0-0.2-0.1c0,0,0,0-0.1,0
		c0.1,0.1,0.2,0.1,0.2,0.1c0.1,0,0.2,0.1,0.4,0.1c-0.3-0.1-0.5-0.1-0.8-0.3c-0.4-0.1-0.4-0.1-0.8-0.1c0.1,0,0.1,0,0.1,0.1
		c-0.1,0-0.1,0-0.2,0c0.2,0,0.3,0.1,0.5,0.1h-0.1c0.7,0.3,0.8,0.3,0.9,0.3c0.1,0,0.1,0,0.1,0.1c0,0,0,0-0.1,0
		c0.2,0.2,0.5,0.2,0.7,0.3c-0.1,0-0.3,0-0.3,0c0.2,0.1,0.3,0.1,0.3,0.1c0,0,0,0-0.1,0c0,0,0,0.1,0.1,0.1c-0.1-0.1-0.3-0.1-0.4-0.1
		c0.2,0.1,1.3,0.6,1.3,0.6s0,0,0-0.1C57.9,4.7,58,4.9,58.2,5c0,0,0,0-0.1,0c-0.1-0.1-0.3-0.1-0.4-0.2c0,0,0,0,0,0.1
		c0.1,0.1,0,0.1-0.1,0.1s-0.1,0-0.1-0.1l-0.3-0.1c-0.1-0.1-0.2-0.1-0.3-0.1s-0.2-0.1-0.3-0.1c-0.3-0.1-0.3-0.1-0.3-0.2
		c-0.1,0-0.1,0-0.2,0l0.1,0.1l1.4,0.7c-0.3-0.1-0.3-0.1-1.1-0.2c0.1,0.1,0.4,0.1,0.5,0.3c0,0,0,0,0,0.1l0.1,0.1
		c-0.1,0-0.1-0.1-0.2-0.1c0,0,0,0.1,0.1,0.1c0,0-0.1,0-0.1,0.1c0,0,0,0.1,0.1,0.1C57,5.6,57,5.6,57,5.5c0,0,0,0,0-0.1
		c-0.1,0-0.1,0-0.1-0.1c0,0,0,0,0,0.1l0.1,0.1c-0.2,0-0.1,0.2-0.1,0.2c0,0,0,0-0.1,0.1c0,0.1,0.1,0.1,0.1,0.1c0,0,0,0-0.1,0
		c-0.1,0-0.1,0-0.1,0c-0.3-0.1-0.3-0.1-0.2-0.2c0,0,0,0,0.1,0c-0.1-0.1-0.1-0.1-0.5-0.1c0.1,0.1,0.2,0.2,0.3,0.3
		c0.1,0,0.2,0.1,0.3,0.2c0,0,0,0-0.1,0C56.6,6,56.6,6,56.6,6v0.1c-0.1,0.1-0.1,0.1,0.2,0.3c-0.2,0.1-0.5,0-0.5,0c-0.1,0-0.1,0-0.1,0
		c0,0.1,0.1,0.2,0.3,0.2l0.1,0.1c0,0,0,0,0,0.1c-0.5-0.1-0.7-0.5-1.1-0.6c0.3,0,0.5,0.2,0.9,0.1c0,0,0.2-0.1-0.1-0.3
		c0,0-0.8-0.3-0.9-0.3c-0.1-0.1-0.1,0-0.3,0c0,0,0,0,0-0.1c-0.1,0-0.1,0-0.2,0c0,0,0,0,0,0.1h-0.1c0,0,0,0,0,0.1
		c-0.1,0-0.1-0.1-0.1-0.1c0,0,0,0,0.1,0l0.1-0.1c-0.1-0.1-0.2-0.1-0.3-0.1v0.1c0,0,0,0,0,0.1c-0.1-0.1-0.1-0.1-0.1-0.1
		c0,0,0,0,0,0.1c0.1,0.1,0.1,0.1,0.1,0.1c-0.1-0.2-0.2-0.3-0.2-0.3c0,0,0,0,0,0.1h-0.1c0-0.1,0-0.1-0.1-0.2l-0.1,0.1v0.1
		c0,0,0,0-0.1,0v0.1l0.1,0.1c0,0,0,0-0.1-0.1c0,0-0.1,0-0.1,0.1L54,5.6c-0.1,0-0.1,0-0.1,0c0,0,0,0,0,0.1c0,0-0.1,0-0.1-0.1
		c0,0,0,0-0.1,0l-0.1-0.1c0,0-0.1,0-0.1,0.1c0,0,0,0,0.1,0.1v0.1h-0.1v0.1h0.1c0,0,0,0,0,0.1c0,0,0,0-0.1,0c0,0,0,0,0,0.1h-0.1
		c0,0,0,0-0.1,0V5.9c-0.1,0.1-0.1,0.2-0.2,0.3c0.1,0,0.1-0.1,0.3-0.1c0,0,0,0,0-0.1c0,0,0,0,0.1,0c0,0,0,0.1,0.1,0.1
		c-0.1,0-0.1,0.1-0.1,0.2c0,0.1-0.1,0.2-0.1,0.3c0,0,0,0,0,0.1c0,0,0,0-0.1,0c0,0.1,0.1,0.2,0.1,0.2C53.4,7,53.4,7,53.4,7
		c0,0.1,0,0.1,0.1,0.1h-0.1c-0.1,0.1-0.1,0.1-0.1,0.3c0,0-0.1,0-0.1-0.1h-0.1c0,0,0,0.1,0.1,0.1c-0.1,0-0.1,0.1-0.2,0.1
		c0,0,0,0,0,0.1c0,0,0,0-0.1,0c0,0,0,0,0,0.1c0,0-0.1,0-0.1,0.1c0,0,0,0,0,0.1h-0.1v0.1c0,0,0,0,0.1,0.1c0,0,0,0.1-0.1,0.1
		c0,0.1,0,0.1,0,0.1C52.9,8.2,52.9,8.2,53,8c0,0,0,0,0,0.1l-0.1,0.1c0,0,0,0,0,0.1H53c0,0,0,0-0.1,0.1c0.1,0.1,0.3,0.1,0.4,0.1
		c0.1,0,0.1-0.2,0.3-0.3c0,0,0,0,0.1,0V8.2C54.1,8.3,54,8.8,54.3,9c0,0.1,0,0.1,0.1,0.1c0.1,0,0.1,0,0.1-0.1c0,0,0-0.1,0-0.1
		c0.1-0.1,0.1-0.1,0.2-0.1V8.8h0.1c0.1-0.1,0.1-0.1,0.1-0.2c0,0,0,0-0.1,0c0,0,0,0-0.1,0c0-0.1,0-0.4,0-0.4c0.1-0.1,0.1-0.3,0.1-0.3
		s-0.1-0.1-0.3-0.1c-0.1-0.1-0.1-0.3-0.1-0.4V7.2L54.7,7c0.1-0.1-0.1-0.3-0.1-0.3c0.3-0.1,0.3,0.1,0.4,0.1h-0.1
		c0,0.1-0.1,0.3-0.1,0.5h-0.1c0,0.1,0,0.1,0,0.1c0.1,0.1,0.1,0.3,0.2,0.5c0,0,0,0,0.3,0.1c0.3,0.1,0.4-0.2,0.6-0.3
		c0.1,0.1,0.1,0.1,0.3,0.1C56,7.8,55.8,8,55.8,8c-0.3,0-0.3,0.1-0.5,0.2c0.3,0.1,0.3,0.1,0.4,0.1c0.1,0.1,0.1,0.3,0.1,0.3
		c-0.1,0.1-0.2-0.1-0.3-0.1c-0.2,0.2,0.1,0.4,0,0.6l0.1,0.1c0,0,0,0,0,0.1v0.1l-0.1-0.1h-0.1c0,0.1-0.1,0.3-0.2,0.1
		c-0.1,0-0.2,0-0.6,0.3c-0.1-0.1-0.1-0.1-0.1-0.1c0,0,0-0.1,0-0.1c-0.1,0.1-0.2,0.1-0.3,0.2h-0.1V9.5c-0.2,0-0.2,0-0.3-0.1h0.1
		c0.1,0.1,0.1,0.1,0.1,0.1c0,0,0,0,0-0.1c0,0,0-0.1-0.1-0.1h-0.1c-0.1-0.1,0-0.1,0.1-0.2c-0.1-0.1-0.1-0.3-0.1-0.3
		c-0.1,0-0.1,0-0.1,0.1c0,0,0,0-0.1,0V9c0,0-0.1,0-0.1-0.1c0,0,0,0-0.1,0c-0.1,0.1-0.1,0.3,0.3,0.7c-0.1,0.1-0.2,0.1-0.3,0.1
		c0,0,0,0.1-0.1,0.1c-0.1,0-0.3,0-0.3,0.1c0,0,0,0-0.1,0c0,0-0.1,0-0.1-0.1c-0.1,0.1-0.1,0.3-0.2,0.3c0,0-0.1,0.1-0.2,0.1
		c0,0,0,0,0,0c0-0.1,0.1-0.1,0.2-0.2c0-0.1-0.1-0.1-0.2-0.1c-0.1,0.1-0.1,0-0.1-0.1c0,0,0,0,0-0.1c0,0,0,0-0.1-0.1
		c-0.1-0.1-0.1-0.1-0.1-0.2c-0.1-0.1-0.1-0.1-0.2-0.2c-0.2,0.1-0.2,0.1-0.3,0c-0.1,0-0.1,0-0.1,0c0-0.1,0-0.1,0.1-0.1
		c0.1-0.1,0.1-0.3,0.1-0.3c-0.1-0.1-0.3,0-0.3,0h-0.1c0.1-0.1,0.2-0.3,0.1-0.3c0,0.1-0.1,0.1-0.1,0.1c-0.1,0-0.1,0.1-0.1,0.2
		C51.3,9,51.2,9,51.2,9c-0.1-0.1-0.1,0-0.1,0c0,0.1,0.1,0.1,0.1,0.1c0,0.1-0.1,0.1-0.1,0.1c0,0.1,0.1,0,0.1,0.1c0,0,0,0-0.1,0.1
		c0,0,0,0-0.1,0c0,0,0,0,0.1,0c0,0,0-0.1,0.1-0.1c0,0,0.1,0.1,0,0.3c0,0.1,0,0.1,0,0.1s0.1,0,0.2-0.1c0,0,0,0,0.1,0
		c0.1,0.1-0.1,0.1,0,0.1c0,0.1,0.1,0.1,0.1,0.1c0,0.1,0,0.2,0,0.2s-0.1,0.1-0.1,0h-0.1c0,0,0,0,0,0.1c-0.1,0.1-0.1,0.1,0,0.1
		c0,0,0.1,0,0.1,0.1c0,0-0.1,0.1-0.1,0.1c-0.1,0-0.1,0.1,0,0.1c0,0,0.1,0.1,0.1,0c0.1,0,0.1,0,0.1,0c0.1,0,0.1,0,0.1,0
		c0.1,0,0.1,0,0.1,0s0,0.1-0.1,0.1c-0.1,0-0.1,0-0.3,0.2c-0.1,0.1,0,0.1,0,0.1s0,0,0.1,0l0.1-0.1c0.1,0,0.1,0,0.1,0
		c0.1,0,0.1,0,0.1,0c0-0.1,0-0.1,0.1-0.1h0.1c0.1,0,0.1-0.1,0.1-0.1c0.1,0,0.1,0,0.3,0c-0.1,0.1-0.1,0.1-0.2,0.1
		c0,0.1-0.1,0.1-0.1,0.1c-0.1,0-0.2-0.1-0.3-0.1c0,0,0,0.1-0.1,0.1c0.1,0.1,0.1,0.1,0.1,0.2c-0.5-0.1-0.5-0.1-0.6,0.1
		c0,0.1,0,0.1,0.1,0.1c0.8,0.3,0.8,0.5,0.6,1c0,0-0.9,0.1-1.2,0c-0.1,0.1-0.2,0.1-0.3,0.1c0.1,0.4,0.1,0.7-0.1,0.9
		c0.1,0.1,0.1,0.3,0.2,0.5c0.4,0,0.4,0,0.6,0.2h0.1c0,0,0-0.1,0.1-0.1c0.4,0,0.4,0,1-0.5c-0.1-0.3-0.1-0.3,0-0.3
		c0-0.1,0.1-0.1,0.1-0.1v-0.1c0.1-0.2,0.3-0.1,0.4-0.2c0.1-0.1-0.1-0.3,0.1-0.4c0.2-0.1,0.4,0.1,0.5,0c0.2-0.1,0.2-0.3,0.4-0.3
		c0.1,0,0.2,0,0.2,0l1.3,0.9c0.1,0.1,0.1,0.1,0.1,0.4h0.1c0.3-0.1,0.3-0.1,0.3-0.1c0-0.1-0.1-0.1-0.1-0.2c0.1-0.1,0.1-0.1,0.3,0
		l0.1-0.1c-0.3-0.4-1.4-0.3-1.3-1.1c0.1,0,0.1-0.1,0.1-0.1c0.1,0,0.1,0.1,0.1,0.1c0.1,0,0.1,0,0.1,0c0.2,0.4,0.7,0.4,1,0.6
		c-0.1,0.1-0.1,0.3,0.4,0.7c0.1-0.1,0.1-0.1,0.3,0c-0.1,0-0.1,0.1-0.1,0.1s0,0.1-0.1,0.1c0.2,0.2,0.2,0.2,0.4,0.3
		c0-0.1,0-0.1-0.1-0.2c0.1,0,0.1,0,0.1-0.1c0,0-0.1-0.1-0.1-0.1c0,0,0.1,0,0.1-0.1c0.1,0,0.1,0,0.1-0.1c0,0-0.1-0.1-0.1-0.1
		c0,0-0.1,0-0.1,0.1c0,0-0.1,0-0.1-0.1l0.1-0.1c0-0.1-0.2-0.1-0.2-0.3h0.1c0,0,0.1,0,0.1,0.1h0.1c0-0.1,0-0.1,0-0.1
		c0.1,0,0.1,0,0.3-0.1c0.1,0,0.1,0.1,0.3,0.1c0.1,0,0.1-0.1,0.2-0.1c-0.1,0.2-0.4,0.1-0.4,0.4h0.1c0.1,0.4,0.1,0.4,0.4,0.6
		c0.3-0.1,0.8,0.2,1.1-0.2c0.1,0,0.1,0,0.2-0.1c0.1,0.1,0.2,0.5-0.1,1.3c-0.1,0.1-0.9,0.2-0.9,0.2c-0.5,0.1-1-0.5-1.5-0.1
		c-0.2,0.1,0.1,0.5-0.2,0.5c0,0-0.7-0.2-0.8-0.3c-0.3-0.1-0.7,0.1-0.9-0.2c-0.1,0-0.1,0-0.2,0v-0.1c0.3-0.2,0.2-0.3,0.1-0.4
		c0-0.1,0.1-0.1,0.1-0.1c-0.1,0-0.1-0.1-0.1-0.1c0,0,0-0.1-0.1-0.1c-0.6-0.1-1.2,0.2-1.7,0.3c-0.3,0.1-0.5,0.3-0.8,0.4
		c0,0-0.3,0-0.7-0.1c-0.2,0.1-0.7,0.7-0.7,0.7c-0.1,0.2,0,0.4-0.1,0.6c-0.1,0.1-0.1,0.1-0.5,0.4C49.4,15.9,49,16.9,49,17
		c0,0,0.2,1.8,0.4,1.9h0.1c0.1,0.5,1.2,1.1,1.6,1.2c0.4,0.1,0.7-0.1,1.1-0.1c0.4,0,0.6-0.5,1.1-0.3c0.3,0.1,0.4,0.3,0.7,0.3
		c0.1,0,0.2,0,0.3-0.1c0.1,0.1,0.1,0.1,0.3,0.1c0,0.1,0,0.3-0.1,0.4c0,0,0,0.1,0.1,0.1c0,0,0,0.1-0.1,0.1l0.1,0.1
		c-0.1,0.1-0.1,0.1-0.1,0.2c0,0,0,0,0.3,0.3c0.1,0.1,0.1,0.1,0.3,0.5c0,0.1-0.1,0.1-0.1,0.1c0,0.1,0.1,0.1,0.1,0.2
		c0,0.1-0.2,0.2-0.3,0.3c0,0.1-0.2,0.3-0.2,0.3c0,0.1-0.1,0.1-0.1,0.1c0,0,0,0.1,0.1,0.1c0.1,0.1,0.1,0.3,0.1,0.3
		c0.3,0.4,0.3,0.4,0.3,0.4c0.1,0.1,0,0.3-0.1,0.4c0,0,0.1,0,0.1,0.1c0.8-0.1,1.8-0.7,1.9-0.9c0.1-0.1,0.4-0.1,0.5-0.3
		c0.1-0.1,0.1-0.3,0.3-0.4c0,0,0.4-0.3,0.6-0.4c0.3-0.1,0.5-0.3,0.5-0.3l0.3-0.6c0,0-0.1,0,0-0.1c0-0.1,0.1-0.4,0.1-0.4
		c-0.1-0.1-0.1-0.1,0.2-0.4c0.5-0.6,1.1-1.1,1.6-1.7c0,0,0.7-1.1,0.6-1.3c-0.2,0.3-0.9,0.5-0.9,0.5c0-0.1-0.1-0.1-0.1-0.2
		c0.1,0,0.1-0.1,0.1-0.1c0,0,0,0-0.1-0.1c0,0,0,0-0.1-0.1c0,0,0.1,0,0.1,0.1c0.7-0.3,1.9-1.5,2.1-2.5c-0.1-0.1-0.1-0.1-0.1-0.2
		c-0.2,0-0.2,0-0.3-0.5c0,0.1,0,0.1-0.5,0.7c0,0,0,0-0.1-0.4c0,0-0.1,0-0.1,0.1c0,0.1,0,0.1,0,0.1c-0.5-0.5-0.5-0.9-0.2-1.1
		c0.5,0.6,0.5,0.6,0.9,0.4c0.1,0.1,0.1,0.1,0.1,0.2c0.2,0.1,0.6,0,0.7-0.2c0.1,0,0.1,0,0.2-0.1c0.1,0.1,0.1,0.1,0.1,0.3
		c0.1,0.1,0.1,0.1,0.1,0.1s0-0.1,0.1-0.1c0,0.3,0,0.3,0,0.3s0,0.1,0.1,0.1s0.1,0,0.1-0.3c0,0,0.1,0.5-0.1,2.5c0,0,0.6-1.1,0.6-3.2
		C64,9.2,61.1,5.5,57,3.9z M57,4.5C56.9,4.5,56.9,4.4,57,4.5c0,0,0.1,0,0.1,0C57,4.5,57,4.5,57,4.5z M58.3,11.7
		c-0.1,0-0.2,0-0.7,0.3v0c-0.5-0.2-0.3-0.4-0.2-0.5c-0.1-0.2-0.1-0.2,0.1-0.3c-0.1-0.1,0.1-0.5,0.3-0.5v0.1c0.1,0.1,0.2,0,0.3,0.1
		c-0.1,0.1-0.1,0.1-0.1,0.1c0.1,0.1,0.2,0.1,0.2,0.2h0.1c0.1-0.2,0.2-0.2,0.3-0.2l-0.1-0.1c-0.2,0.1-0.3-0.1-0.2-0.2
		c0-0.1,0.3-0.3,0.5-0.3c0,0.1,0,0.1-0.1,0.2c0,0,0.1,0.1,0.1,0.1c0,0,0,0.1-0.1,0.1v0.1c0,0-0.1,0.1-0.1,0.1
		c0.3,0.2,0.6,0.1,0.8,0.4c0.3,0.3,0,0.5-0.1,0.5h-0.1C58.8,11.7,58.6,11.7,58.3,11.7z M60,17l-1.3-2.6c0.1,0.1,0.2,0.3,0.3,0.4H59
		c0-0.1,0-0.1,0-0.2c0.2,0.4,0.6,0.7,0.8,1.2c0.4,0.8,0.4,0.8,0.4,0.9c0.1,0.2,0.1,0.8,0.1,0.8C60.2,17.2,60.1,17.1,60,17z
		 M61.3,9.8c0,0,0.1-0.1,0.1,0C61.4,9.9,61.3,9.8,61.3,9.8z M61.3,10C61.3,10,61.3,10,61.3,10C61.3,10,61.3,10,61.3,10
		c0-0.1,0,0,0.1,0c0.1,0,0.1,0.1,0.1,0.2c0.1,0.1,0,0.2-0.1,0.2c0,0-0.1-0.1-0.1-0.1c0-0.1,0,0.1-0.1,0.1L61.3,10
		C61.3,10,61.3,10,61.3,10z M61.1,11.1C61.1,11,61.1,11,61.1,11.1c0.1,0,0.1,0.1,0.1,0.1c0,0.1,0.1,0,0.1,0.1
		c-0.1,0.1-0.1,0.1-0.1,0.1c-0.1,0-0.1,0-0.1,0s0,0.2,0.1,0.2h0.1c0,0.1,0,0.1,0,0.1c0.2-0.1,0.3,0.5,0.3,0.5s-0.1,0.1-0.2,0.1h-0.1
		c-0.1,0-0.1-0.1-0.1-0.1h-0.1c-0.1,0-0.1,0-0.1-0.1c-0.1-0.1-0.1-0.2-0.1-0.3c0.1-0.3-0.1-0.3-0.2-0.5c-0.1-0.1-0.2-0.2-0.3-0.3
		c-0.1,0-0.1-0.1-0.2-0.1c-0.1-0.1-0.1-0.1-0.1-0.1c-0.1-0.2,0.2-0.7,0.2-0.7c0.1-0.1,0.3-0.1,0.3-0.1c0.1,0.1,0.2,0.3,0.2,0.3
		c0,0.1-0.1,0.1-0.2,0.1c-0.1,0.1,0.1,0.1,0.1,0.2h-0.1v0.1c0.1,0.1,0.1,0,0.1,0.1c0.1,0.1,0.1,0.1,0.1,0.1l0.1,0.1h0.1v0.1
		C60.9,11,61,11.1,61.1,11.1C61.1,11.1,61.1,11.1,61.1,11.1z"/>
	<path d="M54.6,3.3C54.6,3.3,54.6,3.3,54.6,3.3C54.6,3.3,54.6,3.3,54.6,3.3C54.5,3.3,54.6,3.3,54.6,3.3z"/>
	<path d="M54.3,3.3c0.1,0,0.1,0,0.2,0C54.5,3.3,54.4,3.3,54.3,3.3C54.3,3.3,54.3,3.3,54.3,3.3z"/>
	<path d="M43.9,6.7c0,0,0.1-0.1,0.2-0.1C44.1,6.6,44.1,6.6,43.9,6.7C43.9,6.7,43.9,6.7,43.9,6.7z"/>
	<path d="M57.5,13.5C57.4,13.5,57.4,13.5,57.5,13.5c-0.1,0-0.1,0-0.1,0h-0.1c-0.1,0-0.1,0-0.1,0
		c-0.1,0-0.1,0-0.1,0H57c-0.1,0-0.1,0.1-0.1,0.1s0.2,0.1,0.3,0C57.4,13.5,57.5,13.5,57.5,13.5z"/>
	<path d="M54.1,12.9L54.1,12.9c0,0.2,0.1,0.3,0.1,0.3s0,0,0.1-0.1c0.1,0,0.1-0.1,0.1-0.1c0,0,0-0.1,0-0.1
		s0-0.1,0-0.1c0-0.1-0.1-0.1-0.1-0.1c-0.1-0.1-0.1,0-0.2,0C54,12.8,54.1,12.8,54.1,12.9z"/>
	<path d="M55.4,13.5c0,0,0.1,0,0.1-0.1c0-0.1,0-0.1,0-0.1c0-0.1,0-0.1,0-0.1c0,0,0,0-0.1,0
		c-0.1,0-0.1,0.1-0.3,0.1h-0.1H55c0,0-0.1,0.1,0,0.1c0.1,0.1,0.2,0.1,0.3,0.1S55.3,13.5,55.4,13.5z"/>
	<path d="M54.2,12.3c0-0.1,0-0.1-0.1-0.1c0,0,0,0.1-0.1,0.1c0,0-0.1,0-0.1,0.1c0,0,0,0,0,0.1
		c0,0.1,0.1,0.1,0.1,0.2C54.2,12.5,54.2,12.4,54.2,12.3z"/>
</g>
</svg>
