<svg xmlns="http://www.w3.org/2000/svg" viewBox="0 0 27.05 33.24">
<title>Dog</title>
<desc>Icon representation of a dog</desc>
<path class="cls-1" d="M26.14,31.44h-2c1.92-6.33,2-11.19.34-14.25a7.18,7.18,0,0,0-3.73-3.32,44.66,44.66,0,0,0,1.13-7,5.13,5.13,0,0,0,2,.45A2.23,2.23,0,0,0,26,6.11a4.85,4.85,0,0,0-1-4.52A4.31,4.31,0,0,0,21.85,0a3.75,3.75,0,0,0-3.17,1.81,9.76,9.76,0,0,0-3.17-.45,10.48,10.48,0,0,0-3.17.45A3.75,3.75,0,0,0,9.18,0,4,4,0,0,0,6,1.58C5,2.83,4.32,4.75,5,6.11s2.15,1.7,4.3.79a47.58,47.58,0,0,0,1.19,6.91,7.43,7.43,0,0,0-3.9,3.38,9.27,9.27,0,0,0-.65,1.74c-3.45-1.18-4.63-5.77-4.1-8.75a.88.88,0,0,0-.68-1,.88.88,0,0,0-1,.68c-.64,3.85,1,9.42,5.44,10.87A26.49,26.49,0,0,0,6.92,31.44h-2a.9.9,0,1,0,0,1.81H8.17a.68.68,0,0,0,.68-.34A1,1,0,0,0,9,32.11c-2-6.45-2.37-11.19-.79-14a5.25,5.25,0,0,1,3.07-2.55,5.16,5.16,0,0,0,4.17,1.87,6.19,6.19,0,0,0,4.45-1.85,5.64,5.64,0,0,1,3,2.53c1.47,2.83,1.24,7.58-.79,14a.7.7,0,0,0,.11.79.68.68,0,0,0,.68.34h3.28a.9.9,0,0,0,0-1.81ZM20.26,4.75a.76.76,0,0,0-.45.68c-.23,3.05-.9,7.92-1.58,8.82a3.36,3.36,0,0,1-2.94,1.36,3.22,3.22,0,0,1-2.83-1.24c-.57-1.13-1.24-6.11-1.58-8.93a.93.93,0,0,0-.45-.68A.68.68,0,0,0,10,4.64c-.11,0-.23,0-.45.34A5.61,5.61,0,0,1,7,5.77c-.45,0-.57-.11-.57-.23a3.38,3.38,0,0,1,.79-2.6A2.33,2.33,0,0,1,9,2a2,2,0,0,1,1.92,1.47c0,.23.23.34.45.45A.72.72,0,0,0,12,4a9.33,9.33,0,0,1,3.28-.57A10.51,10.51,0,0,1,18.57,4a1,1,0,0,0,1.13-.57,2.15,2.15,0,0,1,1.92-1.47,2.33,2.33,0,0,1,1.7.9,3,3,0,0,1,.79,2.6c-.11.11-.34.68-2.94-.68A1.24,1.24,0,0,0,20.26,4.75Z"/><path class="cls-1" d="M17.78,26.12a1,1,0,0,0-.9.9v5.2a1,1,0,0,0,.9.9.89.89,0,0,0,.9-.9V27A1,1,0,0,0,17.78,26.12Z"/><path class="cls-1" d="M13.37,26.12a1,1,0,0,0-.9.9v5.2a1,1,0,0,0,.9.9.89.89,0,0,0,.9-.9V27A1,1,0,0,0,13.37,26.12Z"/>
<path class="cls-1" d="M16.31,12.55h-1.7a.9.9,0,0,0,0,1.81h1.7a.9.9,0,1,0,0-1.81Z"/>
</svg>
