<?xml version="1.0" encoding="utf-8"?>
<!-- Generator: Adobe Illustrator 18.1.1, SVG Export Plug-In . SVG Version: 6.00 Build 0)  -->
<svg version="1.1" id="Layer_1" xmlns="http://www.w3.org/2000/svg" xmlns:xlink="http://www.w3.org/1999/xlink" x="0px" y="0px"
	 viewBox="0 0 32 32" enable-background="new 0 0 32 32" xml:space="preserve">
<title>Dog</title>
<desc>Line drawing of a dog sitting up.</desc>
<g>
	<g>
		
			<line fill="none" stroke-linecap="round" stroke-linejoin="round" stroke-miterlimit="10" x1="15.7" y1="26.3" x2="15.7" y2="31.4"/>
		
			<line fill="none" stroke-linecap="round" stroke-linejoin="round" stroke-miterlimit="10" x1="20.1" y1="26.3" x2="20.1" y2="31.4"/>
	</g>
	<g>
		<path fill="none" stroke-linecap="round" stroke-linejoin="round" stroke-miterlimit="10" d="M21.8,13.8
			c4.8,1.3,6.9,6.4,3.4,17.7h3.2"/>
		<path fill="none" stroke-linecap="round" stroke-linejoin="round" stroke-miterlimit="10" d="M14,13.8
			c-4.8,1.3-6.9,6.4-3.4,17.7H7.4"/>
	</g>
	<path fill="none" stroke-linecap="round" stroke-linejoin="round" stroke-miterlimit="10" d="M9.1,19.3
		c-4.3-0.8-6.1-6.1-5.4-9.9"/>
	
		<line fill="none" stroke-linecap="round" stroke-linejoin="round" stroke-miterlimit="10" x1="17" y1="12.9" x2="18.6" y2="12.9"/>
	<path fill="none" stroke-linecap="round" stroke-linejoin="round" stroke-miterlimit="10" d="M23.2,5
		c5.1,2.8,4.9-1.2,3.3-3.3c-1.6-2-4.2-1.5-5.1,0.8c-3.9-1.4-7.1,0-7.1,0c-0.9-2.2-3.5-2.8-5.1-0.8s-1.8,6,3.3,3.3
		c0,0,0.8,7.5,1.7,9.1c1.2,2.1,5.6,2.5,7.3,0C22.5,12.6,23.2,5,23.2,5z"/>
</g>
</svg>
