<svg xmlns="http://www.w3.org/2000/svg" viewBox="0 0 28.8 38.3">
<title>Dog</title>
<desc>Line drawing of a dog sitting</desc>

<path d="M11.7 38.2c-.4 0-.8-.4-.8-.8v-4.6c0-.4.4-.8.8-.8s.8.4.8.8v4.6c0 .5-.4.8-.8.8zM15.6 38.2c-.4 0-.8-.4-.8-.8v-4.6c0-.4.4-.8.8-.8s.8.4.8.8v4.6c0 .5-.4.8-.8.8zM23 38.3h-2.9c-.3 0-.5-.1-.6-.3-.2-.2-.2-.5-.1-.7 1.8-5.7 2-9.9.7-12.4-.7-1.2-1.7-2-3.1-2.4-.4-.1-.7-.6-.6-1 .1-.4.6-.7 1-.6 1.9.5 3.2 1.6 4.1 3.2 1.5 2.7 1.4 7-.3 12.6H23c.4 0 .8.4.8.8s-.4.8-.8.8zM7.1 38.3H4.2c-.4 0-.8-.4-.8-.8s.4-.8.8-.8H6c-1.7-5.6-1.7-9.9-.3-12.6.9-1.6 2.3-2.7 4.1-3.2.4-.1.9.1 1 .6.1.4-.1.9-.6 1-1.4.4-2.5 1.2-3.1 2.4-1.4 2.5-1.1 6.7.7 12.4.1.2 0 .5-.1.7-.1.2-.3.3-.6.3z"/><path d="M5.7 27.4h-.2C1 26.5-.6 21.2 0 17.6c.1-.4.5-.7.9-.6.4.1.7.5.6.9-.5 2.8.7 7.2 4.2 7.9.4.1.7.5.6.9.2.5-.2.7-.6.7z"/><g><path d="M14.3 21.6h-1.5c-.4 0-.8-.4-.8-.8s.4-.8.8-.8h1.5c.4 0 .8.4.8.8s-.4.8-.8.8z"/></g><g><path d="M13.5 24.3c-1.7 0-3.3-.8-3.9-2-.7-1.2-1.3-5.3-1.5-7.3-1.9.8-3.2.5-3.8-.7-.6-1.2 0-2.9.9-4 .7-.9 1.7-1.4 2.8-1.4 1.1 0 2.2.6 2.8 1.6.6-.2 1.6-.4 2.8-.4 1 0 1.9.1 2.8.4.6-1 1.7-1.6 2.8-1.6 1 0 2 .5 2.8 1.4.9 1.1 1.4 2.8.9 4-.2.4-.7 1.1-1.9 1.1-.5 0-1.1-.1-1.8-.4-.2 2.1-.7 6.2-1.5 7.4-1.1 1.2-2.5 1.9-4.2 1.9zM8.7 13c.1 0 .3 0 .4.1.2.1.4.4.4.6.3 2.5.9 6.9 1.4 7.9.4.7 1.4 1.1 2.5 1.1s2.1-.4 2.6-1.2c.6-.8 1.2-5.1 1.4-7.8 0-.3.2-.5.4-.6.2-.1.5-.1.8 0 2.3 1.2 2.5.7 2.6.6.2-.4 0-1.5-.7-2.3-.4-.5-1-.8-1.5-.8-.7 0-1.4.5-1.7 1.3-.2.4-.6.6-1 .5-.9-.3-1.9-.5-2.9-.5-1.7 0-2.9.5-2.9.5-.2.1-.4.1-.6 0-.2-.1-.4-.2-.4-.4-.3-.8-.9-1.3-1.7-1.3-.5 0-1.1.3-1.5.8-.6.8-.9 1.9-.7 2.3 0 .1.1.2.5.2s1-.1 2.2-.7c.2-.3.3-.3.4-.3z"/></g></svg>
