<svg xmlns="http://www.w3.org/2000/svg" viewBox="0 0 25 25">
    <title>Dollar Sign</title>
    <desc>Dollar Sign</desc>
    <g id="Layer_1" data-name="Layer 1">
        <path d="M12.5,1.63A10.87,10.87,0,1,0,23.37,12.5,10.89,10.89,0,0,0,12.5,1.63Zm0,20a9.12,9.12,0,1,1,9.13-9.12A9.14,9.14,0,0,1,12.5,21.63Z" />
        <path d="M12.49,11.48c-1.29-.32-1.57-.59-1.71-1.07a1,1,0,0,1,.16-.75,1.91,1.91,0,0,1,1.52-.52c1.63,0,1.65.95,1.65,1a.79.79,0,0,0,1.58,0,2.69,2.69,0,0,0-2.55-2.51V5.86H11.83V7.6A3,3,0,0,0,9.67,8.72a2.51,2.51,0,0,0-.41,2.15c.43,1.44,1.65,1.85,2.94,2.17s1.95.6,1.95,1.32c0,1-.91,1.32-1.75,1.32-1.08,0-1.8-.48-1.8-1.19A.79.79,0,0,0,9,14.5a2.88,2.88,0,0,0,2.82,2.73v1.6h1.32V17.2a2.87,2.87,0,0,0,2.58-2.84C15.73,12.28,13.68,11.78,12.49,11.48Z" />
    </g>
</svg>
