<?xml version="1.0" encoding="utf-8"?>
<!-- Generator: Adobe Illustrator 18.1.1, SVG Export Plug-In . SVG Version: 6.00 Build 0)  -->
<svg version="1.1" id="Layer_1" xmlns="http://www.w3.org/2000/svg" xmlns:xlink="http://www.w3.org/1999/xlink" x="0px" y="0px"
	 viewBox="0 0 57.1 54" enable-background="new 0 0 57.1 54" xml:space="preserve">
<g>
	<path d="M55.6,40.8c-0.8,0-1.5,0.7-1.5,1.5c0,3.1-1.5,5.7-4.3,7.2c-3.4,1.9-8,1.9-11.3-0.1
		c-2.1-1.3-4.6-3.9-4.4-9.3c0.2-5.4-2.1-8.5-4.3-11.5c-2.1-2.8-4-5.4-4-10c0-4.9,1.6-9,4.8-11.8C33.3,4.4,37,3,40.9,3
		c6,0,12.4,3.5,12.4,11.1c0,0.8,0.7,1.5,1.5,1.5s1.5-0.7,1.5-1.5C56.2,4.9,48.5,0,40.9,0c-4.6,0-9,1.7-12.3,4.6
		c-3.8,3.4-5.8,8.2-5.8,14c0,5.6,2.4,8.9,4.6,11.8c2.1,2.8,3.9,5.3,3.8,9.6C31,45.3,33.1,49.6,37,52c2.1,1.3,4.7,2,7.3,2
		c2.4,0,4.9-0.6,7-1.8c3.7-2.1,5.8-5.7,5.8-9.9C57.1,41.5,56.5,40.8,55.6,40.8z"/>
	<path d="M50.3,25.9c0.4-0.1,1.2-0.1,1.8,1c0.4,0.7,1.3,1,2,0.5c0.7-0.4,1-1.3,0.5-2c-1.1-2-3.2-2.9-5.2-2.4
		c-2,0.5-3.4,2.3-3.4,4.3c0,1.5,0.8,2.8,1.6,4.1c1.2,1.9,1.6,2.9,0.9,4.1c-0.6,1-2.3,1.5-3.8,1.1c-1.3-0.3-4.3-1.7-4.5-7.3
		c-0.3-7.2,4.7-9.8,6.9-10.6c0.1,0.4,0.2,0.9,0.2,1.3c0.1,0.8,0.8,1.4,1.7,1.3c0.8-0.1,1.4-0.8,1.3-1.7c-0.6-5.8-3.2-9.9-7.1-11.3
		c-3-1.1-6.3-0.3-8.7,2.1c-3.3,3.2-4.2,8.6-2.3,14.4c0.2,0.6,0.8,1,1.4,1c0.2,0,0.3,0,0.5-0.1c0.8-0.3,1.2-1.1,1-1.9
		c-1.5-4.6-1-8.9,1.5-11.3c1.6-1.5,3.7-2.1,5.6-1.4c1.8,0.6,3.2,2.3,4.1,4.6c-4.6,1.5-9.4,5.9-9.1,13.6c0.2,5.3,2.8,9.1,6.8,10.1
		c0.6,0.1,1.2,0.2,1.8,0.2c2.3,0,4.3-1,5.3-2.7c1.7-2.9,0.1-5.4-1-7.2c-0.6-0.9-1.1-1.8-1.1-2.5C49.1,26.5,49.7,26,50.3,25.9z"/>
	<path d="M1,5.3l14.2,4.9c0.2,0.1,0.3,0.1,0.5,0.1c0.6,0,1.2-0.4,1.4-1c0.3-0.8-0.1-1.6-0.9-1.9L2,2.5
		C1.2,2.2,0.4,2.6,0.1,3.4C-0.2,4.2,0.2,5,1,5.3z"/>
	<path d="M17.7,25.7c-0.2-0.8-1-1.3-1.8-1.1L1.2,27.7c-0.8,0.2-1.3,1-1.1,1.8c0.2,0.7,0.8,1.2,1.5,1.2
		c0.1,0,0.2,0,0.3,0l14.7-3.2C17.3,27.3,17.8,26.5,17.7,25.7z"/>
	<path d="M23.1,39.5l-11.9,9.1c-0.7,0.5-0.8,1.4-0.3,2.1c0.3,0.4,0.7,0.6,1.2,0.6c0.3,0,0.6-0.1,0.9-0.3L25,41.9
		c0.7-0.5,0.8-1.4,0.3-2.1C24.7,39.2,23.8,39,23.1,39.5z"/>
</g>
</svg>
