<?xml version="1.0" encoding="UTF-8"?>
<svg width="28px" height="30px" viewBox="0 0 28 30" version="1.1" xmlns="http://www.w3.org/2000/svg" xmlns:xlink="http://www.w3.org/1999/xlink">
    <!-- Generator: Sketch 45.2 (43514) - http://www.bohemiancoding.com/sketch -->
    <title>Easy Monthly Payments</title>
    <desc>Easy Monthly Payments icon for PayBright callout</desc>
    <defs></defs>
    <g id="Page-1" stroke="none" stroke-width="1" fill="none" fill-rule="evenodd">
        <g id="Financing-exapnded" transform="translate(-250.000000, -456.000000)" fill-rule="nonzero" fill="#FFFFFF">
            <g id="noun_870809_cc" transform="translate(250.000000, 456.000000)">
                <g id="Group">
                    <path d="M5.16330769,0.3458 L5.16330769,2.41028571 L0.0102307692,2.41028571 L0.0102307692,10.2095143 L0.0118461538,10.2095143 L0.0118461538,29.9450857 L24.0476923,29.9450857 C26.0233077,29.9450857 27.6322308,28.3241143 27.6322308,26.3307429 L27.6322308,8.17488571 L27.6311538,8.17488571 L27.6311538,2.40974286 L22.4807692,2.40974286 L22.4807692,0.345257143 L20.4615385,0.345257143 L20.4615385,2.40974286 L14.8308462,2.40974286 L14.8308462,0.345257143 L12.8116154,0.345257143 L12.8116154,2.40974286 L7.18253846,2.40974286 L7.18253846,0.345257143 L5.16330769,0.345257143 L5.16330769,0.3458 Z M25.613,26.3307429 C25.613,27.2014857 24.9097692,27.9093714 24.0476923,27.9093714 L2.03053846,27.9093714 L2.03053846,10.2106 L25.613,10.2106 L25.613,26.3307429 L25.613,26.3307429 Z M12.8116154,4.44545714 L12.8116154,5.90954286 L14.8308462,5.90954286 L14.8308462,4.44545714 L20.4615385,4.44545714 L20.4615385,5.90954286 L22.4807692,5.90954286 L22.4807692,4.44545714 L25.6119231,4.44545714 L25.6119231,8.17325714 L2.02946154,8.17325714 L2.02946154,4.44545714 L5.16330769,4.44545714 L5.16330769,5.90954286 L7.18253846,5.90954286 L7.18253846,4.44545714 L12.8116154,4.44545714 L12.8116154,4.44545714 Z" id="Shape"></path>
                    <rect id="Rectangle-path" x="5.83530769" y="13.5714286" width="3.02884615" height="2.03571429"></rect>
                    <rect id="Rectangle-path" x="12.1692308" y="13.5714286" width="3.30346154" height="2.03571429"></rect>
                    <rect id="Rectangle-path" x="12" y="13.5714286" width="9.80607692" height="6.59075102"></rect>
                    <rect id="Rectangle-path" x="5.83530769" y="18.0413143" width="3.02884615" height="2.03571429"></rect>
                    <rect id="Rectangle-path" x="12.1692308" y="18.0413143" width="3.30346154" height="2.03571429"></rect>
                    <rect id="Rectangle-path" x="18.7772308" y="18.0413143" width="3.02884615" height="2.03571429"></rect>
                    <rect id="Rectangle-path" x="5.83530769" y="22.5128286" width="3.02884615" height="2.03571429"></rect>
                    <rect id="Rectangle-path" x="12.1692308" y="22.5128286" width="3.30346154" height="2.03571429"></rect>
                    <rect id="Rectangle-path" x="18.7772308" y="22.5128286" width="3.02884615" height="2.03571429"></rect>
                </g>
            </g>
        </g>
    </g>
</svg>
