<?xml version="1.0" encoding="utf-8"?>
<!-- Generator: Adobe Illustrator 18.1.1, SVG Export Plug-In . SVG Version: 6.00 Build 0)  -->
<svg version="1.1" id="Layer_1" xmlns="http://www.w3.org/2000/svg" xmlns:xlink="http://www.w3.org/1999/xlink" x="0px" y="0px"
	 viewBox="0 0 32 32" enable-background="new 0 0 32 32" xml:space="preserve">
<title>Egg</title>
<desc>Soft boiled egg on stand.</desc>
<g>
	<g>
		<path d="M16,22.8c-4.3,0-7.7-3.8-7.7-8.4v-2.2c0-0.3,0.2-0.5,0.5-0.5h14.5c0.3,0,0.5,0.2,0.5,0.5v2.2C23.7,19.1,20.3,22.8,16,22.8
			z M9.3,12.7v1.7c0,4.1,3,7.4,6.7,7.4s6.7-3.3,6.7-7.4v-1.7H9.3z"/>
	</g>
	
		<line fill="none" stroke="#000000" stroke-linecap="round" stroke-linejoin="round" stroke-miterlimit="10" x1="11.3" y1="31.5" x2="20.7" y2="31.5"/>
	<path fill="none" stroke="#000000" stroke-linecap="round" stroke-linejoin="round" stroke-miterlimit="10" d="M10.2,12.2
		c0-0.3,0-0.5,0-0.8C10.1,8,11.9,0.5,16,0.5s5.9,7.5,5.9,10.9c0,0.3,0,0.5,0,0.8"/>
	
		<line fill="none" stroke="#000000" stroke-linecap="round" stroke-linejoin="round" stroke-miterlimit="10" x1="16" y1="22.3" x2="16" y2="31.5"/>
</g>
</svg>
