<?xml version="1.0" encoding="utf-8"?>
<!-- Generator: Adobe Illustrator 18.1.1, SVG Export Plug-In . SVG Version: 6.00 Build 0)  -->
<svg version="1.1" id="Layer_1" xmlns="http://www.w3.org/2000/svg" xmlns:xlink="http://www.w3.org/1999/xlink" x="0px" y="0px"
	 viewBox="0 0 21 14.1" enable-background="new 0 0 21 14.1" xml:space="preserve">
<title>Email</title>

<g>
	<path d="M20.2,14.1H0.8c-0.4,0-0.8-0.3-0.8-0.8V0.8C0,0.3,0.3,0,0.8,0h19.5C20.7,0,21,0.3,21,0.8v12.6
		C21,13.8,20.7,14.1,20.2,14.1z M1.5,12.6h17.9V1.5H1.5V12.6z"/>
</g>
<g>
	<path d="M10.5,10.5c-0.2,0-0.4-0.1-0.5-0.2L0.3,1.3c0,0,0,0,0,0c0,0,0,0-0.1-0.1C0.1,1.1,0,1,0,0.8c0,0,0-0.1,0-0.1
		c0-0.2,0.1-0.3,0.2-0.4c0,0,0.1-0.1,0.1-0.1C0.4,0.1,0.6,0,0.8,0c0,0,0,0,0,0c0,0,0,0,0,0c0,0,0,0,0,0c0,0,0,0,0,0h19.5
		c0,0,0,0,0,0c0,0,0,0,0,0c0,0,0,0,0,0h0c0.2,0,0.4,0.1,0.5,0.2c0,0,0.1,0.1,0.1,0.1C20.9,0.4,21,0.6,21,0.7c0,0,0,0.1,0,0.1
		c0,0.2-0.1,0.3-0.2,0.4c0,0,0,0.1-0.1,0.1c0,0,0,0,0,0L11,10.3C10.9,10.4,10.7,10.5,10.5,10.5z M2.7,1.5l7.8,7.1l7.8-7.1H2.7z"/>
</g>
</svg>
