<svg id="Layer_1" data-name="Layer 1" xmlns="http://www.w3.org/2000/svg" viewBox="0 0 64 64"><title>envelope</title><g id="Page-1"><g id="envelope"><path d="M55.79,49.18H8.21a1.87,1.87,0,0,1-1.87-1.87V16.48a1.87,1.87,0,0,1,1.87-1.87H55.79a1.87,1.87,0,0,1,1.87,1.87V47.32A1.87,1.87,0,0,1,55.79,49.18ZM10.08,45.45H53.92V18.35H10.08v27.1Z"/><path d="M32,40.16a1.86,1.86,0,0,1-1.26-.49L7,17.86l0,0h0l-0.17-.19h0a1.85,1.85,0,0,1-.4-1,1.77,1.77,0,0,1,0-.26,1.85,1.85,0,0,1,.37-1A1.9,1.9,0,0,1,7,15.08a1.86,1.86,0,0,1,1.22-.46H55.8a1.87,1.87,0,0,1,1.85,1.71,1.89,1.89,0,0,1,0,.26,1.85,1.85,0,0,1-.39,1,1.79,1.79,0,0,1-.18.2l0,0L33.26,39.67A1.86,1.86,0,0,1,32,40.16ZM13,18.35L32,35.76,51,18.35H13Z"/></g></g></svg>

