<svg xmlns="http://www.w3.org/2000/svg" width="74.8" height="27" viewBox="0 0 74.8 27"><g fill="#7D7D7D"><title>Event</title><desc>Event Logo</desc><path d="M15.3 12.4H3.5c0 1-.1 1.9 0 2.9.1 1.3.2 2.7.6 4 .3 1.7 1.6 2.6 3.4 2.7 2.9.2 5.1-1 6.8-3.2.1-.1.2-.3.3-.4.1 0 .1.1.2.1-.4.5-.7 1-1.1 1.4C9.9 23.8 3.5 22.7 1 17.8-.8 14.3-.2 9.7 2.5 6.7c2.6-2.8 7.1-3.3 9.9-.9 2 1.6 2.8 3.9 2.9 6.6zm-3.3-.3c0-.8 0-1.6-.1-2.3-.1-.8-.2-1.6-.4-2.3-.5-2.2-1.7-3.1-4-2.9-1.5.1-2.7.7-3.2 2.2-.3.7-.5 1.4-.6 2.1-.1 1-.2 2.1-.3 3.2H12zM43.9 12.3H32.2v1.6c.1 1.6.2 3.2.5 4.8.5 2.3 2.1 3.4 4.5 3.3 2.5-.1 4.5-1.3 5.9-3.3.1-.1.2-.3.4-.4-.4 1-1.9 2.5-3.2 3.1-4.4 2.1-9.3-.1-11-4.9-1.3-3.7-.3-8 2.5-10.4 2.7-2.4 6.7-2.6 9.3-.4 2 1.6 2.8 3.8 2.9 6.4 0 .1-.1.1-.1.2zm-3.2-.2c0-1.8-.1-3.6-.6-5.2-.3-1.1-1-2-2.2-2.2-2.7-.5-4.7.5-5.3 3.4 0 .1-.1.3-.1.4-.1 1.2-.2 2.4-.4 3.7 3-.1 5.7-.1 8.6-.1zM74.8 4.9V10c-.2-3.5-2.1-5.1-5.6-4.9v16.6h2.2v.2h-7.2v-.1h2.2c0-.2.1-.4.1-.5V5.7c0-.5-.1-.7-.7-.7-2.9.1-4.6 1.6-4.7 4.5 0 .1 0 .3-.1.4h-.2V7.4 4.8c4.7.1 9.3.1 14 .1z"/><path d="M46.1 5.3v16.3h2.2v.2h-4.8v-.1h2.2V5h-2.2v-.2c.1 0 .3-.1.4-.1h4.4c.3 0 .7.3.8.5 1.9 2.8 3.8 5.6 5.6 8.5.8 1.1 1.5 2.3 2.4 3.6V5h-2.2v-.2h4.7v.1h-2.3v17.2c-.1 0-.1 0-.2.1-3.4-5.5-7.2-11.1-11-16.9zM12.9 4.8h7.9v.1h-2.6c2 4.6 3.9 9.1 5.8 13.7 1.6-4.6 3.2-9.1 4.8-13.7h-2.4v-.1h4.8v.1h-.8c-1.4 0-1.4 0-1.9 1.3l-5.4 15.3c-.1.2-.2.4-.3.8-.4-.9-.7-1.7-1.1-2.4-2.1-4.8-4.2-9.7-6.3-14.5-.2-.3-.4-.4-.7-.4h-1.8v-.2z"/></g></svg>