<?xml version="1.0" encoding="utf-8"?>
<!-- Generator: Adobe Illustrator 19.0.0, SVG Export Plug-In . SVG Version: 6.00 Build 0)  -->
<svg version="1.1" id="Layer_16" xmlns="http://www.w3.org/2000/svg" xmlns:xlink="http://www.w3.org/1999/xlink" x="0px" y="0px"
	 width="157.1px" height="27px" viewBox="0 0 157.1 27" style="enable-background:new 0 0 157.1 27;" xml:space="preserve">
<g>
	<path style="fill:#7D7D7D;" d="M126.2,17.9c-0.2-2.1-0.6-4.1-2.9-4.9c0.6-0.3,1.1-0.6,1.6-1c1.2-0.9,1.9-2,1.5-3.6
		c-0.3-1.4-1.2-2.2-2.6-2.5c-1-0.2-2.1-0.4-3.2-0.4c-1.7-0.1-3.3,0-5,0c0,0.4,0,0.8,0,1.2c0.9,0.3,1.2,0.6,1.2,1.6
		c0,3.5,0,6.9,0,10.4c0,0.1,0,0.2,0,0.3c-1.2,0.2-1.3,0.3-1.1,1.4c2,0,4,0,6,0c0-0.4,0-0.8,0-1.2c-0.3,0-0.6-0.1-0.9-0.1
		c-0.5,0-0.8-0.3-0.8-0.7c0-1.5,0-3.1,0-4.6c1.2-0.1,2.1,0.4,2.4,1.5c0.2,0.8,0.4,1.7,0.5,2.5c0.3,2,1.2,3,4,2.5
		c0-0.4,0-0.7,0.1-1.1C126.1,19.2,126.2,18.5,126.2,17.9z M120.1,12.4c0-1.8,0-3.7,0-5.5c1.9-0.1,3,0.9,3,2.7
		C123.1,11.4,122,12.5,120.1,12.4z"/>
	<path style="fill:#7D7D7D;" d="M29.8,5.6c0,0.4,0,0.8,0,1.1c0.1,0,0.2,0,0.3,0c1.3,0.1,1.5,0.3,1.5,1.5c0,1.5,0,2.9,0,4.4
		c0,1.3,0,2.5,0,3.8c-0.2-0.1-0.2-0.3-0.3-0.4c-1.1-2.8-2.3-5.7-3.4-8.5C27.6,6.9,27.5,6,27,5.7c-0.5-0.3-1.4-0.1-2.1-0.1
		c-0.9,0-1.9,0-2.8,0c0,0.5,0,0.8,0,1.2c0.9-0.1,1.1,0.5,1.1,1.2c0,0.1,0,0.3,0,0.4c0,3.4,0,6.7,0,10.1c0,0.4-0.1,0.6-0.6,0.6
		c-1.1,0-1.2,0.2-0.9,1.3c1.7,0,3.3,0,5,0c0-0.4,0.1-0.8,0.1-1.2c-0.4,0-0.8-0.1-1.2-0.1c-0.6,0-0.9-0.4-0.9-1c0-3.1,0-6.1,0-9.2
		c0,0,0.1,0,0.1,0c0.1,0.2,0.2,0.4,0.3,0.6c1.4,3.4,2.9,6.9,4.3,10.3c0.1,0.2,0.3,0.5,0.5,0.5c1,0,2,0,3.1,0c0-4.5,0-9,0-13.4
		c1.5-0.2,1.5-0.2,1.3-1.4C32.9,5.6,31.4,5.6,29.8,5.6z"/>
	<path style="fill:#7D7D7D;" d="M47.1,11.9c-0.2-2.9-1.8-4.9-4.5-5.8c-2.5-0.8-5-0.5-7.5-0.5c0,0-0.1,0.1-0.1,0.1
		c-0.1,0.6-0.2,1.2,0.7,1.3c0.2,0,0.4,0.4,0.5,0.6c0.1,0.4,0.1,0.8,0.1,1.2c0,3.3,0,6.5,0,9.8c0,0.2,0,0.3,0,0.5
		c-0.4,0-0.8,0.1-1.3,0.1c0,0.4,0,0.8,0,1.2c1.8,0,3.6,0.1,5.3,0c2.6-0.2,4.7-1.3,6-3.7C47.2,15.2,47.3,13.6,47.1,11.9z M43.3,16.5
		c-0.4,1.3-1.3,2.2-2.8,2.4c-0.5,0.1-0.9-0.1-0.9-0.7c0-3.7,0-7.4,0-11.1c0-0.1,0-0.1,0.1-0.2c1.8,0,3,0.8,3.6,2.5
		C44.1,11.9,44.1,14.2,43.3,16.5z"/>
	<path style="fill:#7D7D7D;" d="M103.6,18.5c-1.2-2-2.4-4-3.6-5.9c-0.2-0.3-0.2-0.6,0-0.9c0.8-1.2,1.5-2.3,2.3-3.5
		c0.4-0.7,0.8-1.4,1.8-1.3c0.1,0,0.2-0.1,0.2-0.1c0-0.4,0-0.8,0-1.1c-1.6,0-3.1,0-4.6,0c0,0.4,0,0.8,0,1.2c0.5,0.1,0.9,0.1,1.5,0.2
		c-0.8,1.3-1.5,2.5-2.3,3.8c-0.7-1.3-1.4-2.5-2.1-3.8c0.5-0.1,0.9-0.1,1.3-0.2c0-0.4,0-0.8,0-1.2c-2.1,0-4.1,0-6.2,0
		c0,0.4,0,0.8,0,1.1c0,0,0.1-0.1,0.1-0.1c0.4,0.3,0.9,0.6,1.2,1c1.2,1.9,2.3,3.8,3.4,5.7c0.1,0.2,0.1,0.5,0,0.7c-1,1.6-2,3.1-3,4.6
		c-0.1,0.2-0.3,0.3-0.4,0.4c-0.9,0.2-1,0.3-0.8,1.4c0.8,0,1.5,0,2.3,0c0.8,0,1.6,0,2.4,0c0-0.5,0-0.8,0-1.2
		c-0.6-0.1-1.1-0.1-1.8-0.2c0.8-1.3,1.6-2.6,2.4-3.8c0.8,1.3,1.5,2.6,2.3,3.8c-1.4,0.2-1.4,0.2-1.3,1.4c2,0,3.9,0,5.9,0
		c0-0.4,0-0.8,0-1.2c0,0-0.1,0.1-0.1,0.1C104.2,19.1,103.8,18.8,103.6,18.5z"/>
	<path style="fill:#7D7D7D;" d="M90.7,16.9c-0.1,0.3-0.2,0.7-0.4,1c-0.3,0.7-0.7,1-1.5,1.1c-0.7,0-1.5,0-2.2,0.1
		c-0.4,0-0.5-0.2-0.5-0.5c0-0.9,0-1.7,0-2.6c0-0.7,0-1.5,0-2.2c0.6,0,1.1,0,1.5,0c0.7,0,1.2,0.2,1.5,0.8c0.2,0.5,0.6,0.6,1.1,0.4
		c0-1.4,0-2.8,0-4.1c-0.5-0.1-0.9-0.1-1.1,0.5c-0.1,0.3-0.6,0.6-0.9,0.7c-0.6,0.1-1.3,0-2,0c0-1.7,0-3.4,0-5.1c0.6,0,1.2,0,1.8,0
		c1.5,0,1.5,0,2.1,1.4c0.4,1,0.4,1,1.5,0.8c-0.1-1.1-0.2-2.1-0.4-3.2c0-0.1-0.4-0.3-0.6-0.3c-2.3,0-4.6,0-6.9,0c-0.8,0-1.6,0-2.5,0
		c0,0.5,0,0.8,0,1.2C82.8,7,83,7.2,83,8.7c0,3.3,0,6.5,0,9.8c0,0.2,0,0.4,0,0.6c-0.5,0.1-0.8,0.1-1.2,0.2c0,0.4,0,0.8,0,1.2
		c3.4,0,6.7,0,10,0c0.1-1.4,0.3-2.8,0.4-4.1C91.3,16,91,16.1,90.7,16.9z"/>
	<path style="fill:#7D7D7D;" d="M112.7,6c-1-0.3-2-0.4-3-0.4c-1.6-0.1-3.1,0-4.8,0c0,0.4,0,0.8,0,1.2c1,0.3,1.2,0.4,1.2,1.5
		c0.1,3.6,0,7.1,0.1,10.7c0,0,0,0.1-0.1,0.1c-1,0.2-1,0.2-0.9,1.4c2.1,0,4.2,0,6.4,0c0-0.4,0.1-0.8,0.1-1.2c-0.5,0-1,0-1.5-0.1
		c-0.5,0-0.7-0.3-0.7-0.8c0-1.4,0-2.8,0-4c1.1-0.1,2,0,3-0.2c1.9-0.4,3.3-2.1,3.3-3.9C115.8,8,114.8,6.6,112.7,6z M112,11.8
		c-0.5,1-1.5,1.1-2.6,1c0-2,0-4,0-6c1,0,2,0.1,2.5,1C112.7,9.1,112.7,10.5,112,11.8z"/>
	<path style="fill:#7D7D7D;" d="M136.3,16.9c-0.2,0.4-0.2,0.8-0.5,1.2c-0.3,0.4-0.7,0.8-1.1,0.9c-0.8,0.2-1.6,0.1-2.5,0.1
		c-0.1,0-0.4-0.2-0.4-0.3c0-1.7,0-3.3,0-5.1c0.5,0,0.8,0,1.2,0c0.8-0.1,1.5,0.2,1.9,1c0.1,0.2,0.6,0.3,1,0.5c0-1.4,0-2.6,0-3.8
		c0-0.2-0.2-0.5-0.3-0.5c-0.3-0.1-0.7-0.1-0.7,0.4c-0.1,0.5-0.4,0.8-0.9,0.9c-0.7,0-1.4,0-2.1,0c0-1.7,0-3.3,0-5c0.6,0,1.2,0,1.8,0
		c0.5,0,1.1-0.1,1.5,0.1c0.3,0.2,0.4,0.8,0.6,1.3c0.4,0.9,0.5,1,1.5,0.8c-0.1-1-0.3-2-0.3-3c0-0.5-0.2-0.6-0.7-0.6
		c-2.9,0-5.7,0-8.6,0c-0.2,0-0.4,0-0.6,0c0,0.2,0,0.4,0,0.6c0,0.2,0,0.4,0,0.6c1.2,0.3,1.3,0.4,1.5,1.6c0,0.2,0,0.4,0,0.6
		c0,3.1,0,6.3,0,9.4c0,0.2,0,0.5,0,0.7c-0.4,0.1-0.7,0.1-1,0.2c0,0.4,0,0.8-0.1,1.2c0.3,0,0.5,0,0.8,0c2.6,0,5.2,0,7.8,0
		c1.2,0,1.2,0,1.4-1.2c0-0.1,0-0.2,0.1-0.3c0.1-0.9,0.2-1.8,0.2-2.7C136.7,16,136.6,16.1,136.3,16.9z"/>
	<path style="fill:#7D7D7D;" d="M17.1,5.6c0,0.4,0,0.8,0,1.2c0.1,0,0.2,0,0.3,0c1.3,0.1,1.5,0.3,1.5,1.6c0,2.2,0,4.5,0,6.7
		c0,0.8-0.2,1.7-0.5,2.5c-0.3,0.9-1.1,1.2-2,1.2c-0.9,0-1.6-0.4-1.9-1.2c-0.2-0.5-0.4-1-0.4-1.5c-0.1-2.9-0.1-5.8-0.1-8.7
		c0-0.1,0-0.3,0.1-0.4c0.5-0.1,1-0.1,1.4-0.2c0-0.4,0-0.8,0-1.2c-2.1,0-4.2,0-6.2,0c0,0.4,0,0.8,0,1.1c1.3,0.3,1.4,0.4,1.5,1.8
		c0,2.2,0,4.5,0.1,6.7c0,0.6,0.1,1.3,0.2,1.9c1,4.2,5.9,4.5,7.8,2.7c1.1-1.1,1.6-2.4,1.6-3.9c0.1-2.7,0.1-5.5,0.1-8.2
		c0-0.2,0-0.5,0-0.7c1.3-0.2,1.3-0.3,1-1.4C20,5.6,18.6,5.6,17.1,5.6z"/>
	<path style="fill:#7D7D7D;" d="M59.1,19.2c-0.7,0.1-1.1-0.3-1.3-0.9c-1.1-3.7-2.3-7.4-3.5-11.1c-0.5-1.6-0.5-1.6-2.3-1.6
		c-0.5,0-0.7,0.1-0.9,0.6c-1.3,4.1-2.6,8.2-4,12.3c-0.1,0.2-0.2,0.5-0.4,0.6c-1,0.3-1,0.3-0.8,1.4c1.6,0,3.1,0,4.7,0
		c0.1,0,0.3-0.2,0.4-0.3c0.1-0.3,0-0.6,0-0.9c-0.5,0-1-0.1-1.4-0.1c-0.6,0-0.8-0.4-0.7-0.9c0.2-0.8,0.4-1.5,0.6-2.3
		c1.4,0,2.8,0,4.2,0c0.3,1,0.5,2.1,0.8,3.1c-1.8,0.3-1.8,0.3-1.6,1.5c1.8,0,3.7,0,5.5,0c0.5,0,0.7-0.2,0.7-0.7
		C59.1,19.6,59.1,19.4,59.1,19.2z M50.1,14.3c0.5-1.7,1.1-3.4,1.7-5.2c0.5,1.8,1,3.5,1.5,5.2C52.1,14.3,51.1,14.3,50.1,14.3z"/>
	<path style="fill:#7D7D7D;" d="M69,6.7c0-0.4,0-0.8,0-1.1c-1.5,0-3,0-4.5,0c0,0.4,0,0.8,0,1.2c0.3,0,0.5,0,0.7,0.1
		c0.5,0.1,0.7,0.4,0.5,0.8c-0.7,1.6-1.4,3.1-2.2,4.8C62.7,10.6,61.9,8.8,61,7c0.7-0.1,1.2-0.2,1.8-0.2c0-0.4,0-0.8,0-1.2
		c-2.2,0-4.4,0-6.7,0c0,0.4,0,0.8,0,1.2c0.9-0.1,1.3,0.5,1.7,1.2c1,2,2,3.9,3,5.9c0.1,0.2,0.2,0.4,0.2,0.6c0,1.5,0,2.9,0,4.4
		c-0.4,0.1-0.9,0-1.2,0.3c-0.2,0.2-0.2,0.8-0.3,1.2c2.3,0,4.5,0,6.8,0c0-0.2,0.1-0.4,0.1-0.6c0-0.2,0-0.4,0-0.6
		c-0.4,0-0.7-0.1-1.1-0.1c-1-0.1-1.1-0.3-1.2-1.2c0-1,0-1.9,0-2.9c0-0.4,0.1-0.7,0.2-1.1c0.9-1.9,1.8-3.8,2.7-5.7
		C67.6,7.5,67.9,6.7,69,6.7C69,6.8,69,6.7,69,6.7z"/>
	<path style="fill:#7D7D7D;" d="M143.4,11.2c-0.6-0.4-1.2-0.7-1.8-1.1c-0.9-0.8-1-2.1-0.2-3c0.7-0.8,2.2-0.8,3,0
		c0.5,0.5,0.8,1.1,1.1,1.7c0.5,0.9,0.4,0.9,1.5,0.7c-0.1-1.3-0.2-2.7-0.3-4.1c-0.3,0-0.5,0-0.7,0.1c-0.4,0.3-0.7,0.2-1.1,0
		c-1.8-0.8-3.5-0.5-5,0.7c-1.4,1.2-1.7,2.8-1.3,4.5c0.4,1.6,1.6,2.6,3,3.4c0.8,0.4,1.6,0.8,2.3,1.4c1,0.8,1.2,2.3,0.4,3.2
		c-0.7,0.8-2.3,0.8-3.1-0.1c-0.5-0.6-0.9-1.4-1.3-2.2c-0.3-0.6-0.6-0.8-1.3-0.7c-0.1,1.5-0.3,3.1-0.4,4.8c0.5-0.1,0.9-0.2,1.2-0.4
		c0.3-0.2,0.6-0.2,0.9,0c1,0.6,2.2,0.8,3.4,0.5c1.7-0.3,3-1.2,3.5-2.9c0.6-1.7,0.4-3.4-0.9-4.6C145.3,12.4,144.3,11.9,143.4,11.2z"
		/>
	<path style="fill:#7D7D7D;" d="M156.1,13.5c-0.8-0.8-1.8-1.4-2.7-2c-0.7-0.5-1.5-0.8-2.1-1.3c-0.9-0.7-1-2.2-0.2-3
		c0.7-0.8,2.2-0.8,3,0c0.5,0.5,0.8,1.1,1.1,1.7c0.5,1,0.4,1,1.5,0.8c-0.1-1.3-0.2-2.7-0.3-4.2c-0.4,0.1-0.9,0.2-1.3,0.4c0,0,0,0,0,0
		c-1.8-1.1-3.9-0.9-5.5,0.5c-1.3,1.1-1.8,3.3-1.1,5.1c0.5,1.3,1.5,2.1,2.7,2.7c0.8,0.5,1.6,0.9,2.4,1.4c1.1,0.8,1.3,2.3,0.4,3.2
		c-0.8,0.9-2.3,0.8-3.2-0.2c-0.5-0.6-0.9-1.4-1.2-2.1c-0.3-0.6-0.6-0.9-1.3-0.7c-0.1,1.5-0.3,3-0.4,4.8c0.5-0.2,0.9-0.3,1.3-0.4
		c0.2-0.1,0.5-0.1,0.7,0c1.1,0.6,2.3,0.8,3.6,0.5C157.4,19.9,158,15.4,156.1,13.5z"/>
	<path style="fill:#7D7D7D;" d="M6.6,12c-0.9-0.5-1.9-1-2.7-1.6C3.4,10.1,2.9,9.6,2.7,9c-0.3-0.9,0.2-1.8,1-2.2
		c0.9-0.5,2.1-0.3,2.7,0.5c0.4,0.5,0.7,1,0.9,1.6c0.4,0.9,0.4,1,1.5,0.7C8.7,8.3,8.6,7,8.5,5.5C8.2,5.6,7.9,5.6,7.7,5.7
		c-0.3,0.2-0.5,0.1-0.8,0C5.1,4.8,3.4,5.1,1.8,6.2c-1.4,1-1.9,2.9-1.4,4.6c0.4,1.7,1.7,2.7,3.1,3.5c0.7,0.4,1.4,0.7,2,1.1
		c0.5,0.4,0.9,0.8,1.1,1.3c0.3,0.8-0.1,1.8-0.7,2.2c-0.8,0.5-2.1,0.5-2.8-0.2c-0.6-0.7-1-1.5-1.4-2.3c-0.3-0.6-0.6-0.8-1.3-0.7
		c-0.1,1.5-0.3,3.1-0.4,4.7c0.7-0.2,1.3-0.5,1.8-0.4c0.6,0,1.2,0.4,1.7,0.6c0.1,0,0.2,0.1,0.3,0.1C7.4,21.1,9.8,18.4,9,15
		C8.7,13.6,7.7,12.7,6.6,12z"/>
	<path style="fill:#7D7D7D;" d="M80.5,15.8c-0.1-0.5-0.2-1-0.4-1.5c-0.3-1.3-0.7-2.7-1.8-3.7c-1-0.9-1.2-1.9-0.9-3.2
		c0.5-1.9,0.4-2-1.1-3.3c-0.1-0.1-0.3-0.2-0.4-0.2c-0.7,0.2-1.4,0.3-2.1,0.6c-0.2,0.1-0.3,0.4-0.4,0.6c-0.1,0.8-0.1,1.5-0.1,2.3
		c0.1,0.6,0.3,1.2,0.5,1.8c-0.2,0.1-0.5,0.2-0.7,0.3c-0.5-0.6-1-1.1-1.5-1.7c0,0.1,0.1,0.2,0.1,0.2c0,0-0.1,0-0.1,0.1
		c-0.4-0.5-0.8-1-1.3-1.7c0,0.3,0.1,0.5,0.1,0.6c0,0-0.1,0-0.1,0.1c-0.2-0.5-0.4-1-0.6-1.6c0,0,0.1-0.1,0.1-0.1
		c0.5,0.6,1,1.2,1.5,1.8c-0.1-0.2-0.1-0.5-0.2-0.7c-0.6-0.6-1.3-1.2-2.1-2c0.4,1,0.7,1.8,1,2.6c0,0.1,0.1,0.3,0.2,0.3
		C71.7,7.8,72,9,72.8,9.9c-0.1,0.3-0.2,0.5-0.3,0.7c-0.6,0-1.2,0-1.8-0.1c-0.4-0.1-0.6,0-0.6,0.4c-0.3,1.5-0.7,3-1,4.5
		c-0.5,2.6,0,4.8,1.9,6.7c0.2,0.2,0.6,0.3,0.9,0.3c1.2-0.2,2.2-0.8,3.2-1.6c0.2-0.2,0.5-0.2,0.7-0.3c1,0,2,0,3.1,0
		c-0.2-0.5-0.4-0.9-0.6-1.3c-0.1-0.2,0-0.4,0.1-0.6c0.2,0.1,0.4,0.1,0.5,0.2c0.3,0.4,0.6,0.7,0.8,1.1c0.3,0.5,0.6,0.7,1.3,0.5
		c-0.5-0.7-1-1.4-1.4-2C80.7,17.5,80.8,17.4,80.5,15.8z M75.7,4.4c0.2,0.1,0.5,0.2,0.7,0.2c0.9,0.4,1,0.6,0.8,1.4
		c-0.9-0.3-1.8-0.7-2.6-1C74.6,4.3,74.8,4.2,75.7,4.4z M73.9,8.3c0.2-0.1,0.4-0.2,0.5-0.3c-0.1-0.1-0.2-0.1-0.3-0.2
		c0.1-0.1,0.2-0.2,0.4-0.3c-0.2,0-0.3-0.1-0.5-0.1c0,0,0-0.1,0.1-0.1c0.3,0,0.6,0,0.9,0c0-0.2,0-0.2-1-0.4c0.1-0.2,0.2-0.4,0.2-0.7
		c0.3,0.1,0.4,0.2,0.6,0.3c0.2-0.2,0.3-0.4,0.5-0.8c-0.4,0-0.7,0-1-0.1c0.4-0.3,1.2-0.3,1.6,0c0.3,0.3,0.4,1.6,0,2.2
		c-0.2,0.3-0.6,0.6-0.9,0.7C74.8,8.7,74.4,8.5,73.9,8.3z M73.3,11.9c0-0.1,0.1-0.3,0.3-0.4c0.1-0.1,0.3,0,0.4,0.1
		c0.1,0.1,0.1,0.3,0,0.5c-0.1,0.2-0.2,0.4-0.3,0.7c-0.2,0.7-0.3,1.3,0.7,1.5c0.1,0,0.1,0.2,0.1,0.3c-1-0.2-1.9-0.4-2.7-0.5
		c0-0.1,0-0.1,0-0.2c0.4,0,0.7-0.1,1.3-0.2C73.1,13.1,73.2,12.5,73.3,11.9z M74.4,13.7c0.2-0.7,0.3-1.5,0.5-2.4
		c0.8,0.3,1.5,0.5,2.2,0.8c0.1,0,0.2,0.3,0.2,0.5c-0.1,0.6-0.2,1.1-0.2,1.8C76.1,14.2,75.3,14,74.4,13.7z M70.3,10.8
		c0.8,0.1,1.6,0.1,2.6,0.2c-0.2,0.8-0.3,1.5-0.5,2.2c-0.8-0.1-1.7-0.2-2.5-0.3C70,12.2,70.1,11.5,70.3,10.8z M70.6,21.2
		c-1.4-1.2-1.9-4.1-1.1-6.3c0.8,0.1,1.5,0.2,2.4,0.3C71.4,17.3,71,19.3,70.6,21.2z M71.6,21.7c-0.1,0-0.2,0-0.2,0
		c0-0.4-0.1-0.8,0-1.1c0.4-1.9,0.8-3.9,1.2-5.8c0-0.1,0.1-0.1,0.1-0.2c0,0,0.1,0,0.1,0c-0.2,1-0.4,2-0.5,3c0,0,0.1,0,0.1,0
		c0.3-1,0.5-2,0.8-3c0.1,0,0.1,0,0.2,0c0,0.2,0.1,0.4,0.1,0.6c-0.5,1.9-0.9,3.8-1.4,5.8C71.9,21.2,71.7,21.5,71.6,21.7z M72.4,21.8
		c0.2-1,0.5-2,0.7-3c0.2-1,0.5-2,0.8-3.1c0.9,0.2,1.8,0.5,2.6,0.7C76.3,19,74.7,21.1,72.4,21.8z M78.2,20.1c-0.9,0-1.8,0-2.6,0
		c0.3-0.6,0.6-1.1,0.9-1.7C77.4,18.5,77.8,19.2,78.2,20.1z M78.2,17.8c-0.5-0.2-0.9-0.3-1.4-0.5c0.3-1.4,0.5-2.9,0.9-4.3
		c0.1-0.6,0-1-0.6-1.2c-0.6-0.1-0.9-0.4-1.2-1c-0.3-0.5-0.9-0.9-1.3-1.4C75,9.3,75.6,9.4,76,9.8c0.4,0.4,0.8,0.9,1.3,1.3
		c0.3,0.4,0.7,0.6,1,0C79.8,12.9,79.7,15.6,78.2,17.8z M80.3,20c-0.1,0-0.1,0.1-0.2,0.1c-0.4-0.6-0.9-1.1-1.3-1.7
		c0.1,0,0.2-0.1,0.3-0.1C79.5,18.8,79.9,19.4,80.3,20z"/>
</g>
</svg>
