<?xml version="1.0" encoding="utf-8"?>
<!-- Generator: Adobe Illustrator 19.1.0, SVG Export Plug-In . SVG Version: 6.00 Build 0)  -->
<svg version="1.1" id="Layer_1" xmlns="http://www.w3.org/2000/svg" xmlns:xlink="http://www.w3.org/1999/xlink" x="0px" y="0px"
	 viewBox="0 0 190 27" xml:space="preserve">
<title>FastCompany logo</title>

<g>
	<path  d="M91.6,8.8c0,2.7-0.3,11.2-0.3,11.2c0,1.6,0.5,2.4,2.1,2.4v0.7h-6.1v-0.7c1.6,0,2.4-0.7,2.4-2.4l0.5-13.9
		c-0.5-1.1-0.9-1.5-2.1-1.6V4h4.7l4.9,13l5-13h4.2v0.6c-1.2,0-1.8,0.5-1.8,1.8l0.5,13.4c0,2,0.4,2.6,2,2.6v0.7h-7v-0.7
		c1.4,0,2-0.5,1.9-2.6c0,0-0.3-9.4-0.4-11.1l-3.4,9.3c-0.5,1.2-0.9,2.6-1.3,4l-1.1,0.1c-0.3-1-1-2.8-1-2.8S92.6,11.5,91.6,8.8
		L91.6,8.8z"/>
	<path  d="M85.9,23.3c-0.4-0.1-0.7-0.1-1.1-0.1c-0.7,0-2,0.4-3.6,0.4c-5.9,0-10.3-3.6-10.3-10.1c0-5.6,4.1-9.9,10.4-9.9
		c1.5,0,3.1,0.3,4.5,0.8c0.3-0.3,0.4-0.5,0.6-0.7H87c-0.1,1-0.5,4.3-0.5,4.3h-0.5c-0.4-1.9-1.4-3.2-4.6-3.2c-3.8,0-7.3,3-7.3,8.6
		c0,6.3,3.6,9.1,7.5,9.1c2.6,0,4.1-1.5,5.1-3.3l0.6,0.3L85.9,23.3L85.9,23.3z"/>
	<path  d="M68.6,7.6h-0.6c-0.1-1.7-0.6-2.3-2-2.3h-2.7v14.4c0,2.4,0.5,2.8,2,2.8v0.7h-6.9v-0.7c1.6,0,2-0.5,2-2.9V5.3
		h-2.7c-1.7,0-2,0.5-2.5,2.3h-0.6l0.5-4.1l0.5,0.1C55.8,4,56.1,4,57.2,4h8.9c1.6,0,2,0,2.4-0.5H69L68.6,7.6L68.6,7.6z"/>
	<path  d="M49.2,23.6c-1.3,0-2.3-0.2-3-0.5c-0.7-0.2-1.3-0.5-1.6-0.6c-0.4,0.4-0.6,0.8-0.6,0.8l-0.5-0.2l0.5-4.3l0.6,0.1
		c0.4,2,1.7,3.5,4.6,3.5c2.2,0,3.7-1.8,3.7-3.8c0-1.6-0.6-2.5-2.8-4.1c-0.7-0.5-1.4-0.8-1.9-1.3c-2-1.3-3.3-2.7-3.3-5.1
		c0-2.7,2.3-4.6,5.3-4.6c1.7,0,2.8,0.5,3.2,0.7l0.6-0.7l0.5,0.1l-0.5,3.9l-0.6-0.1c0-1.8-1.1-2.7-2.9-2.7c-1.7,0-3,0.9-3,2.7
		c0,1.6,1.2,2.6,2.6,3.5c0.7,0.5,1.3,0.8,1.8,1.2c3.2,2.3,3.9,3.7,3.9,5.9C55.6,21.3,53.1,23.6,49.2,23.6L49.2,23.6z"/>
	<path  d="M38.8,7.6H38c0-1.6-0.7-2.3-2.2-2.3h-4.1v7.2h2.7c1.4,0,1.6-0.7,1.8-1.9h0.6v5.1h-0.6
		c-0.2-1.4-0.5-1.9-1.9-1.9h-2.6v6.1c0,2.3,0.5,2.6,2,2.6v0.7h-6.9v-0.7c1.7,0,2-0.5,2-2.6V6.5c0-1.3-0.5-1.8-2-1.8V4h9.5
		c1.6,0,2-0.1,2.3-0.6h0.6L38.8,7.6L38.8,7.6z"/>
	<path  d="M137.4,8.7v11c0,2.4,0.5,2.8,2,2.8v0.7h-10.8v-0.7c0.8,0,1.6-0.3,1.6-0.8c0-0.4-0.1-1-0.3-1.6l-0.8-2.7h-6
		c-0.1,0.4-1.2,3.4-1.2,4.2c0,0.7,0.8,0.9,1.4,0.9v0.7h-5v-0.7c0.9,0,1.6-0.1,2.3-2l4.7-14.9c-0.3-0.6-0.6-0.8-1.3-0.9V4h4.1
		l4.9,15.6c0.5,1.6,0.9,2.5,1.6,2.8c1.1-0.4,1.4-0.7,1.4-2.8V6.5c-0.8-1.1-0.9-1.8-2.5-1.8V4h4.7l7.7,13.1v-10c0-2-0.5-2.5-2-2.5V4
		h10.2v0.6c-0.6,0-1.2,0.3-1.2,0.9c0,0.5,0.2,0.9,0.4,1.5l2.9,6.3l2.8-6.1c0.5-0.8,0.5-1.3,0.5-1.7c0-0.5-0.4-0.8-1.2-0.8V4h4.8v0.6
		c-1.2,0-1.9,1.1-2.5,2.4l-3.7,7.7v5c0,2.2,0.5,2.7,2,2.7v0.7H152v-0.7c1.5,0,2-0.5,2-2.7v-4.3l-4-8.5c-0.7-1.6-1-2-1.5-2.3
		c-0.9,0.4-1.2,1-1.2,2.5v14.1c0,0,0.1,1.1,0.2,2.4l-1.2,0.1L137.4,8.7L137.4,8.7z M126,7.7l-2.6,8.3h5.3L126,7.7L126,7.7z"/>
	<path  d="M114.7,16.1c0,0-0.8,0-1.4,0V20c0,2,0.5,2.5,2.1,2.5v0.7h-7v-0.7c1.5,0,2-0.5,2-2.6V7c0-2-0.5-2.4-2-2.4V4h5.3
		c5.1,0,8.1,1.6,8.1,5.8C121.8,14.1,118.1,16.1,114.7,16.1L114.7,16.1z M113.7,5.3h-0.5v9.4h0.8c3,0,4.6-1.4,4.6-4.8
		C118.7,6.4,117.3,5.3,113.7,5.3L113.7,5.3z"/>
	<path  d="M82.8,19.5c-3.5,0-5.9-2.5-5.9-6c0-3.4,2.5-6,5.9-6c3.3,0,5.8,2.6,5.8,6C88.5,16.9,85.9,19.5,82.8,19.5
		L82.8,19.5z M82.8,8.6c-2.4,0-3.2,2.3-3.2,4.9c0,2.5,0.7,4.9,3.2,4.9c2.4,0,3.1-2.5,3.1-5C85.9,10.9,84.9,8.6,82.8,8.6L82.8,8.6z"
		/>
	<path  d="M42.5,18.4v-0.6c0.9,0,1.1-0.3,1.1-0.5c0-0.4-0.1-0.6-0.2-0.9c0,0-0.2-0.7-0.4-1.3h-3.6l-0.4,1.2
		c-0.1,0.3-0.2,0.5-0.2,0.9c0,0.4,0.4,0.6,0.9,0.6v0.6h-3.6v-0.6c0.9,0,1.3-0.3,1.6-1.3l2.7-8.2c-0.1-0.4-0.4-0.6-0.9-0.6V7h2.9
		c2.4,6.9,3,8.8,3,8.8c0.5,1.6,0.9,2,1.6,2v0.6H42.5L42.5,18.4z M41.2,9.6L39.9,14h2.8L41.2,9.6L41.2,9.6z"/>
</g>
</svg>
