<?xml version="1.0" encoding="utf-8"?>
<!-- Generator: Adobe Illustrator 19.0.0, SVG Export Plug-In . SVG Version: 6.00 Build 0)  -->
<svg version="1.1" id="Layer_9" xmlns="http://www.w3.org/2000/svg" xmlns:xlink="http://www.w3.org/1999/xlink" x="0px" y="0px"
	 viewBox="0 0 186.3 27" style="enable-background:new 0 0 186.3 27;" xml:space="preserve">
<style type="text/css">
	.st0{fill:#7D7D7D;}
</style>
<g>
	<path class="st0" d="M108.2,16.6c-1-4.2-1.9-8.3-3-12.5c-0.2-0.9-0.8-1.8-1.4-2.5c-1-1.1-2.9-1.2-4.3-0.5c-1.2,0.6-1.9,1.8-1.6,3
		c0.2,0.7,0.8,1.4,1.4,1.8c0.4,0.3,1.2,0.1,1.8,0.1c0-0.1,0-0.3,0-0.4c-0.1,0.1-0.3,0.1-0.4,0.2c-0.8,0.2-1.5,0-1.7-0.9
		c-0.1-0.9,0.6-1.2,1.4-1.3c1.5-0.2,2.6,1.4,2.1,3c-1.1,3.3-2.3,6.6-3.4,9.8c-0.1,0.4-0.5,0.8-0.9,0.9c-2.2,0.8-3.5,3.1-2.9,5.3
		c0.5,1.8,1.9,3,3.9,3.2c2.4,0.2,4.4-0.8,5.5-3c-2.3,2-5.6,2.4-7.6,1.3c-0.9-0.5-1.5-1.2-1.2-2.3c0.3-1,1.2-1.5,2.2-1.4
		c0.8,0.1,1.5,0.5,2.4,0.7c0.8-0.9,1.7-1.9,2.7-2.9c-1.5,0.7-2.2-1.1-3.6-0.9c0.1-0.4,0.2-0.6,0.2-0.9c0.9-2.9,0.9-2.8,3.9-2.8
		c0.7,0,1,0.2,1.2,0.9c0.2,1.2,0.6,2.4,0.8,3.7c0.2,1.8,1.2,2.7,3,3.1c0.4-0.9,0.9-1.8,1.4-2.8C108.6,18.5,108.5,17.5,108.2,16.6z
		 M101,12.6c0.6-1.9,1.3-3.7,2-5.8c0.5,2.1,0.9,3.9,1.3,5.8C103.2,12.6,102.2,12.6,101,12.6z"/>
	<path class="st0" d="M152.6,9c-0.6-0.4-1.3-1-2.1-1.6c-0.7,0.9-1.4,1.7-2.1,2.5c-0.6-0.9-1.2-1.7-1.8-2.7c-1,1.2-1.8,2.1-2.5,3
		c-0.6-1-1.2-2-1.9-3.2c-0.9,1.1-1.6,1.9-1.9,2.3c0.4,0.9,0.8,1.5,0.8,2.1c0.1,1.9,0.3,3.9,0,5.8c-0.2,1.7,0.3,2.8,1.5,3.9
		c0.6-0.7,1.1-1.5,1.7-2.2c-0.1-0.4-0.4-0.7-0.4-1.1c0-2.2-0.1-4.4,0-6.5c0-0.3,0.6-0.6,0.9-0.9c0.3,0.3,0.7,0.7,0.7,1
		c0,2.4-0.1,4.8-0.1,7.2c0,0.2,0,0.4,0.1,0.5c0.4,0.7,0.9,1.4,1.3,2.1c0.6-0.8,1.2-1.6,1.8-2.3c-0.2-0.6-0.4-1.1-0.4-1.6
		c0-2,0-4,0-5.9c0-0.7,0.2-1.4,0.9-1.2c0.3,0.1,0.7,0.8,0.8,1.2c0.1,2.2,0.1,4.4,0.1,6.5c0,1.8,0.5,2.5,2.2,3.2
		c0.5-0.8,1-1.5,1.5-2.1c-0.4-0.5-1-0.9-1-1.3C152.6,14.8,152.6,12,152.6,9z"/>
	<path class="st0" d="M129.8,17.7c0-1.7,0-3.3,0-5c0-1.2,0-2.4,0-3.8c-0.5-0.4-1.3-1-1.9-1.5c-1.3,0.6-2.4,1.2-3.6,1.7
		c-1.2,0.5-1.7,1.2-1.7,2.5c0.1,2.1,0.1,4.2,0,6.3c0,1.8,0.9,2.7,2.3,3.4c0.7-0.8,1.3-1.5,1.9-2.1c0.3,1,0.6,1.9,1,2.8
		c0.6,1.1,0.6,2.1-0.1,2.8c-0.8,0.7-2,0.6-3.1-0.3c0.2-0.1,0.3-0.1,0.5-0.1c0.8-0.2,1.3-0.8,0.9-1.5c-0.2-0.4-0.9-0.9-1.4-0.9
		c-0.8-0.1-1.3,0.6-1.1,1.4c0.2,0.7,0.7,1.5,1.3,1.9c1.9,1.1,4.8,0.1,5.7-1.9c0.3-0.6,0.4-1.5,0.1-2C129.8,20.1,129.8,19,129.8,17.7
		z M127.1,17.5c0,0.6,0,1.4-0.9,1.2c-0.4-0.1-0.9-0.7-0.9-1.1c-0.1-2.5-0.1-4.9,0-7.4c0-0.3,0.2-0.7,0.3-1.2
		c1.1,0.7,1.6,1.5,1.5,2.7C127,13.6,127.1,15.6,127.1,17.5z"/>
	<path class="st0" d="M11.2,8.7c-1.2,0.2-1.6,1.2-2,2.2C9.1,10.9,9,11,8.8,11.1c-0.5-0.7-1.2-1.4-1.3-2.2C7.3,8.1,7.7,7.2,7.9,6.1
		C7,7.1,6.2,7.9,5.5,8.8c-1.1,1.6-0.7,3.5,0.9,4.7c0.7,0.5,1.4,1,2,1.6c0.9,0.9,1.3,2,0.7,3.3C6,16.2,4.3,16,2.3,17.5
		C0.6,18.7,0,21,0.7,23c0.7,1.8,2.4,2.9,4.6,2.8c2.4-0.1,4.3-1.5,4.8-3.5c-1.7,2-3.8,2.6-6.2,2.3c-1.9-0.2-2.8-1.2-2.7-2.8
		c0-1.4,1.3-2.7,2.9-2.9c1.6-0.2,2.6,0.7,3.2,1.8c1.2-0.9,2.3-1.8,3.4-2.7c1.8-1.4,2-3.5,0.5-5.2c-0.3-0.3-0.6-0.7-0.9-0.9
		c-0.8-0.7-0.7-1.3,0-2.1c0.2,1.5,1.1,2.2,2,1.6c0.4-0.3,0.8-1.1,0.8-1.7C12.9,8.9,12.1,8.5,11.2,8.7z"/>
	<path class="st0" d="M63.1,9.3c-0.4-0.4-0.9-1.1-1.4-1.7C61.1,8.4,60.5,9,60,9.6c0.1,0.8,0.3,1.3,0.3,1.9c0,1.7,0,3.5,0,5.2
		c0,0.4,0,0.9-0.2,1.2c-0.2,0.3-0.6,0.7-0.9,0.7c-0.3,0-0.7-0.4-0.8-0.7c-0.2-0.3-0.1-0.8-0.1-1.2c0-2.1,0-4.2,0-6.3
		c0-1.2-0.5-2.1-1.4-2.8C56.2,8.3,55.6,9,55,9.7c0.8,1,1.1,7.8,0.4,9.7c0.7,0.6,1.4,1.3,2.2,2c0.8-0.9,1.7-1.8,2.4-2.6
		c0.7,1,1.3,1.8,2.1,2.9c0.7-1,1.3-1.8,1.6-2.2C62.5,16,63.1,12.7,63.1,9.3z"/>
	<path class="st0" d="M39.9,10.1c0-0.2-0.1-0.5-0.3-0.7c-0.6-0.6-1.2-1.1-1.8-1.7c-0.9,0.9-1.7,1.8-2.3,2.5
		c-0.6-0.9-1.1-1.8-1.8-2.7c-0.8,1.1-1.5,1.9-2.1,2.7c1.9,1.1,0.9,2.9,1.1,4.3c0.1,1.5-0.1,3.1-0.1,4.9c0.3,0.4,0.9,1.1,1.6,1.9
		c0.7-1.1,1.6-1.9,1.2-3.7c-0.4-1.8-0.1-3.9-0.1-5.8c0-0.8,0.2-1.4,1.1-1.4c0.9,0,0.9,0.8,0.9,1.4c0,2.2,0,4.4,0,6.6
		c0,1.3,0.6,2.3,1.8,2.9c0.6-0.8,1.2-1.5,1.7-2c-0.3-0.7-0.8-1.2-0.8-1.8C39.8,15,39.9,12.5,39.9,10.1z"/>
	<path class="st0" d="M177.2,9.4c-0.7-0.5-1.4-1.1-2.1-1.6c-0.8,0.8-1.5,1.7-2.4,2.5c-0.3-0.7-0.5-1.2-0.8-1.7
		c-0.8-1.3-1.4-1.3-2.3-0.1c-0.3,0.4-0.6,0.8-0.7,0.9c0.4,0.7,1,1.3,1,1.8c0,2.5-0.2,5-0.3,7.6c0,0.2,0.1,0.4,0.2,0.5
		c0.4,0.6,0.8,1.2,1.3,1.9c0.7-0.8,1.3-1.5,1.8-2.2c-0.2-0.5-0.5-1-0.5-1.4c0-2-0.1-4,0-5.9c0-0.4,0.6-1.2,1-1.2
		c0.8-0.1,0.9,0.6,0.9,1.3c0,2.1,0,4.3,0,6.4c0,1.4,0.6,2.5,2,3.1c0.5-0.7,1-1.4,1.5-2.2C176.9,18.2,176.5,12.2,177.2,9.4z"/>
	<path class="st0" d="M29.5,9.6c-0.8-0.7-1.5-1.4-2.1-1.9c-1.3,0.7-2.5,1.5-3.7,2.1c-1.1,0.5-1.5,1.2-1.5,2.4c0,1.9,0.1,3.7,0,5.6
		c-0.2,2,0.9,2.9,2.4,3.7c0.6-0.8,1.2-1.6,1.8-2.3c0.7,0.8,1.4,1.5,2.1,2.3c0.7-1,1.2-1.7,1.7-2.4C29.1,18.1,28.6,11.9,29.5,9.6z
		 M26.5,17.6c0,0.4-0.5,0.7-0.8,1.1c-0.3-0.4-0.9-0.7-0.9-1.1c-0.1-2.4-0.1-4.8,0-7.2c0-0.3,0.4-0.6,0.6-0.9
		c0.3,0.2,0.7,0.3,0.8,0.6c0.2,0.4,0.3,0.8,0.3,1.2c0,1,0,1.9,0,2.9C26.6,15.4,26.7,16.5,26.5,17.6z"/>
	<path class="st0" d="M47.4,2.6c-0.5,0.5-0.9,1-1.4,1.6c-0.1,0-0.2-0.1-0.3-0.1c0.2-0.8,0.4-1.5,0.6-2.3c-1.1,0.1-1.3,0.3-2.3,2
		c-0.3-0.1-0.7-0.2-1-0.2c-0.4,1.6,0.6,3.4-0.7,4.9c-0.1,0.1,0,0.4,0.1,0.6c0.2,0.6,0.5,1.1,0.5,1.7c0.1,2.1,0.2,4.1,0,6.2
		c-0.2,1.7,0.1,3,1.3,4.2c0,0,0.1,0.1,0.1,0.1c0.8-0.8,1.5-1.5,2.2-2.3c-0.1-0.2-0.7-0.7-0.7-1.2c-0.1-2.8,0-5.6,0-8.1
		c0.5-0.4,0.8-0.7,1.1-1C46.6,8.3,46.3,8,46,7.7c0.6-0.7,1.4-1.4,2-2.2C48.7,4.5,48.4,3.4,47.4,2.6z"/>
	<path class="st0" d="M44.3,21.2C44.3,21.2,44.3,21.2,44.3,21.2C44.4,21.3,44.4,21.2,44.3,21.2z"/>
	<path class="st0" d="M56.4,1.9c-1,0.8-1.8,0.2-2.4-0.6c-1.7,2.6-1.9,2.8-4.4,3.5c-0.4,1.1,0.6,2.5-0.8,3.3
		c-0.1,0.1,0.1,0.6,0.2,0.9c0.2,0.4,0.5,0.8,0.5,1.2c0,4.9,0,9.9,0,14.8c0,0.4,0,0.8,0,1.3c0.2,0,0.4,0,0.5,0c0-1.1,0-2.1,0-3.2
		c0-0.8,0.2-1.6,1.2-1.7c1-0.1,1-0.6,1-1.4c0-3.2,0-6.4,0-9.6c0-0.4,0-0.9,0-1.3C52.7,9.1,53.1,9,53.6,9c0-0.4,0-0.8-0.1-1.1
		c-0.4-0.1-0.8-0.1-1.1-0.1c0-1.2,0-2.4,0-3.6C54.8,5.1,56.3,4.2,56.4,1.9z"/>
	<path class="st0" d="M113.8,7.1c0-1.6,0-3.2,0-4.9c-0.5,0.2-0.8,0.4-1.2,0.5c-1.2,0.3-1.5,1.1-1.5,2.3c0.1,4,0.1,8.1,0,12.1
		c0,0.6-0.3,1.1-0.5,1.9c0.6,0.6,1.2,1.4,1.9,2.2c0.7-0.8,1.4-1.5,1.8-2c-0.2-0.7-0.5-1.3-0.5-1.9C113.8,13.9,113.8,10.5,113.8,7.1z
		"/>
	<path class="st0" d="M119.6,3.4c0-0.4,0-0.8-0.1-1.4c-0.5,0.2-0.8,0.5-1.1,0.6c-1.2,0.4-1.6,1.2-1.6,2.6c0.1,4,0,8,0,12
		c0,0.6-0.2,1.2-0.3,2c0.5,0.6,1.1,1.4,1.8,2.2c0.7-0.8,1.4-1.5,1.8-2c-0.2-0.8-0.6-1.5-0.6-2.1C119.6,12.6,119.6,8,119.6,3.4z"/>
	<path class="st0" d="M133.7,9.3c-0.9,0.4-1.3,1-1.3,2c0,2.1,0,4.1,0,6.2c0,2.1,0.3,2.5,2.2,3.3c0.4,0.2,0.8,0.3,1.2,0.5
		c0.7-0.9,1.4-1.8,2.1-2.8c-1.1,0.3-2.1,0.4-2.7-0.7c-0.4-0.8-0.2-2.9,0.4-3.5c-0.2-0.1-0.5-0.2-0.5-0.3c0-1.6,0-3.1,0-4.9
		c1.7,1.6,1.9,3.1,0.7,5.1c4.3-2.4,3.5-3.6,1.8-6.7C136.3,8.1,135,8.8,133.7,9.3z"/>
	<path class="st0" d="M83.8,7.7c-1.1,0.6-2.3,1.1-3.4,1.7c-1.1,0.6-1.7,1.4-1.7,2.7c0,1.6,0,3.1,0,4.7c0,3,0.5,3.6,3.4,4.5
		c0.9-0.9,1.7-1.9,2.5-2.8c-1,0.5-2,0.8-2.9-0.2c-0.6-0.7-0.5-3.2,0-4.1C85.8,13,86.5,10.7,83.8,7.7z M81.6,9.3c2,1.7,2,3.1,0.3,4.9
		c-0.1,0-0.3-0.1-0.3-0.1C81.6,12.5,81.6,11,81.6,9.3z"/>
	<path class="st0" d="M76,4.1c-2.6,0.5-2.5,0.5-2.6,2.8c0,0.4-0.3,0.8-0.4,1.2c-0.1,0.3-0.1,0.7-0.1,1c0.1,0.6,0.5,1.2,0.5,1.8
		c0.1,1.7,0,3.5,0,5.2c0,1.1,0,2.1,0,3.2c0.5,0.6,1,1.2,1.5,1.9c0.8-0.7,1.5-1.4,2.1-1.9c-0.4-0.5-0.9-0.9-0.9-1.3
		c-0.1-2.9,0-5.7,0-8.6c0.5-0.1,0.9-0.1,1.3-0.2c0-0.4,0-0.8,0-1.1C77,8,76.6,7.9,76,7.8C76,6.5,76,5.3,76,4.1z"/>
	<path class="st0" d="M160.4,7.4c-1.4,0.8-2.7,1.6-4,2.5c-0.4,0.3-0.8,0.9-0.8,1.4c-0.1,2.4,0,4.8,0,7.3c0,0.9,0.4,1.5,1.2,1.9
		c0.5,0.3,1.1,0.5,1.6,0.8c-0.1-0.1-0.2-0.2-0.3-0.4c1-0.8,1.9-1.6,2.9-2.4c-0.5,0.1-1,0.3-1.4,0.1c-0.6-0.2-1.3-0.7-1.4-1.1
		c-0.2-1,0-2,0.1-3c4.1-2.4,4.4-3.5,2.3-6.9C160.5,7.6,160.5,7.5,160.4,7.4z M158.5,14.1c-0.1,0.1-0.2,0.3-0.2,0.4c0-1.7,0-3.3,0-5
		C159.9,11,160,12.5,158.5,14.1z"/>
	<path class="st0" d="M184.1,13.5c2.5-1.6,2.6-2.1,1.4-4.8c-0.2-0.4-0.4-0.9-0.5-1.2c-1.3,0.8-2.6,1.5-3.8,2.2
		c-0.9,0.5-1.4,1.3-1.4,2.4c0,1.7,0.1,3.4,0,5.1c-0.2,2.2,0.7,3.5,2.6,4.1c0.9-0.9,1.9-1.7,2.5-2.4c-0.6-0.1-1.6-0.1-2.2-0.6
		c-0.7-0.5-0.4-3.5,0.3-4.2C183.4,13.9,183.8,13.7,184.1,13.5z M182.5,13.8c0-1.5,0-3,0-4.7c1.5,1.1,1.9,2.7,1.1,4.1
		c-0.2,0.3-0.3,0.6-0.5,0.9C182.8,14,182.5,13.9,182.5,13.8z"/>
	<path class="st0" d="M9.3,2c-1-0.4-2.1-0.7-3.1-0.9C3.6,0.5,1.3,1.7,0.3,4c-0.7,1.6-0.3,3.2,1,4c1.4,0.9,3,0.6,4-0.5
		C4.3,7.5,3.1,7.8,2,7.6C1.4,7.6,0.7,6.8,0.5,6.2c-0.3-0.9,0.1-1.8,1-2.1c0.9-0.3,2-0.5,2.9-0.3c1.4,0.3,2.7,1,4.1,1.5
		c3,1.1,5.6-0.4,6.4-3.6C12,3.5,12,3,9.3,2z"/>
	<path class="st0" d="M18.3,9.3c-2-2.6-2.2-2.2-3.7,0.3c1.1,0.4,1.1,0.4,1.1,1.5c0,2,0,4,0,5.9c0,0.7-0.2,1.4-0.2,1.9
		c0.7,0.8,1.3,1.5,2,2.3c0.7-0.8,1.3-1.5,1.8-2.2c-0.3-0.5-0.8-0.9-0.8-1.3c-0.1-2.5,0-5,0-7.6c2.1,0.6,2.9,0.1,3.6-1.9
		c-0.9-0.2-1.7-0.3-2.5-0.5C19.2,8.2,18.8,8.8,18.3,9.3z"/>
	<path class="st0" d="M91,7.5c-0.4,0.7-0.8,1.2-1.1,1.8c-0.6-0.7-1.2-1.3-1.7-2c-0.7,0.9-1.3,1.6-1.8,2.2c0.3,0.3,0.8,0.6,0.8,0.9
		c0.1,2.9,0,5.8,0,8.7c0.6,0.6,1.2,1.2,1.9,1.9c0.6-0.7,1.3-1.4,1.8-1.9c-0.4-0.7-0.9-1.3-0.9-1.9c-0.1-2.3,0-4.6,0-7
		c1.9,1.1,3.3,0.1,3.3-2.5C92.3,8.5,91.6,8.2,91,7.5z"/>
	<path class="st0" d="M69.8,7.9c-0.3,0.4-0.6,0.9-0.8,1.2c-0.6-0.6-1.1-1.2-1.8-1.9c-0.8,1.1-1.3,1.9-1.9,2.7c1.2,1,1.5,7.5,0.5,9.4
		c0.8,0.7,1.5,1.3,2.2,2c0.7-0.8,1.4-1.5,1.8-2c-0.4-0.6-1-1.1-1-1.6c-0.1-2.4,0-4.7,0-7.1c2.1,0.6,2.9-0.2,2.8-2.5
		C71.2,8.1,70.6,8,69.8,7.9z"/>
	<path class="st0" d="M166.6,9.1c-0.3-0.4-0.9-1-1.5-1.6c-0.7,0.7-1.3,1.4-2,2c0.9,0.8,1.2,7.3,0.3,9.6c0.5,0.7,1,1.3,1.6,2.1
		c0.5-0.6,1-1.2,1.5-1.8c0.1-0.2,0.3-0.4,0.3-0.6c-0.1-1.5-0.3-2.9-0.4-4.4C166.5,12.7,166.6,11,166.6,9.1z"/>
	<path class="st0" d="M165.2,4.8c0.9,0,1.5-0.6,1.4-1.5c0-0.8-0.5-1.4-1.4-1.4c-0.9,0-1.4,0.5-1.5,1.3
		C163.8,4.2,164.3,4.8,165.2,4.8z"/>
</g>
</svg>
