<svg width="36" height="36" xmlns="http://www.w3.org/2000/svg"><g transform="translate(1 1)" fill="none" fill-rule="evenodd"><circle stroke="#00237A" stroke-width="1.2" cx="17" cy="17" r="13.304"/><path d="M17.36 15.74c-1.878-.466-2.286-.859-2.49-1.558-.07-.38.013-.774.233-1.092a2.78 2.78 0 0 1 2.214-.758c2.374 0 2.403 1.384 2.403 1.457a1.15 1.15 0 0 0 2.3 0 3.918 3.918 0 0 0-3.713-3.656V7.556H16.4v2.534a4.37 4.37 0 0 0-3.145 1.63 3.655 3.655 0 0 0-.598 3.132c.627 2.097 2.403 2.694 4.282 3.16 1.879.466 2.84.874 2.84 1.923 0 1.456-1.325 1.922-2.549 1.922-1.572 0-2.621-.7-2.621-1.733a1.165 1.165 0 1 0-2.33.014 4.194 4.194 0 0 0 4.107 3.976v2.33h1.922v-2.373a4.18 4.18 0 0 0 3.757-4.136c.015-3.03-2.97-3.758-4.704-4.195z" stroke="#F6F6F6" stroke-width=".8" fill="#00237A" fill-rule="nonzero"/><path d="M23.617 32.664A16.946 16.946 0 0 1 17 34a16.946 16.946 0 0 1-12.02-4.98A16.946 16.946 0 0 1 0 17c0-2.347.476-4.583 1.336-6.617m9.047-9.047A16.946 16.946 0 0 1 17 0a16.946 16.946 0 0 1 12.02 4.98A16.946 16.946 0 0 1 34 17c0 2.347-.476 4.583-1.336 6.617" stroke="#00237A" stroke-width="1.2"/></g></svg>