<?xml version="1.0" encoding="utf-8"?>
<!-- Generator: Adobe Illustrator 18.1.1, SVG Export Plug-In . SVG Version: 6.00 Build 0)  -->
<svg version="1.1" id="Layer_1" xmlns="http://www.w3.org/2000/svg" xmlns:xlink="http://www.w3.org/1999/xlink" x="0px" y="0px"
	 viewBox="0 0 612 792" enable-background="new 0 0 612 792" xml:space="preserve">
<title>Firm mattress</title>
<desc></desc>
<g>
	<g>
		<path d="M553.1,602H58.9c-24.4,0-38.3-10.1-41.4-30c-0.1-0.5-8.5-54.5-10.2-82.6c-0.5-8.5,6-15.8,14.5-16.4
			c8.5-0.5,15.9,6,16.4,14.5c1.4,23.2,8.1,68.8,9.9,79.7c0.3,1.8,0.6,2.4,0.7,2.5l0,0c0.1,0,2.3,1.4,10.2,1.4h494.2
			c7.7,0,10-1.3,10.3-1.5c0,0,0.3-0.7,0.5-2.3c1.7-11,8.5-56.5,9.9-79.7c0.5-8.5,7.9-15,16.4-14.5c8.5,0.5,15,7.8,14.5,16.4
			c-1.7,28.2-10.1,82.1-10.2,82.7C591.4,591.9,577.5,602,553.1,602z"/>
	</g>
	<g>
		<path d="M589.5,503.9h-567c-8.9,0-16.4-4.2-20.2-11.2c-3.8-7.2-2.9-15.8,2.4-23.5c0.4-0.6,0.9-1.2,1.4-1.7
			l141.6-153.3c5.5-7,15.3-11.3,26.2-11.3h264.2c10.8,0,20.7,4.3,26.2,11.3l141.6,153.3c0.5,0.6,1,1.1,1.4,1.7
			c5.3,7.7,6.2,16.3,2.4,23.5C606,499.7,598.4,503.9,589.5,503.9z M43.1,473h525.9L441,334.5c-0.1-0.2-0.3-0.3-0.4-0.5
			c-0.5-0.2-1.3-0.3-2.5-0.3H173.9c-1.2,0-2,0.2-2.5,0.3c-0.1,0.2-0.3,0.3-0.4,0.4L43.1,473z"/>
	</g>
</g>
</svg>
