<?xml version="1.0" encoding="utf-8"?>
<!-- Generator: Adobe Illustrator 21.0.2, SVG Export Plug-In . SVG Version: 6.00 Build 0)  -->
<svg version="1.1" id="Layer_1" xmlns="http://www.w3.org/2000/svg" xmlns:xlink="http://www.w3.org/1999/xlink" x="0px" y="0px"
	 viewBox="0 0 16 16" style="enable-background:new 0 0 16 16;" xml:space="preserve">
<style type="text/css">
	.st0{fill:#FFFFFF;}
	.st1{fill:#ED5A4D;}
	.st2{fill:#00237E;}
</style>
<g id="XMLID_305_">
	<path id="XMLID_308_" class="st0" d="M8.1,16c-1,0-1.9-0.2-2.7-0.5v-15C6.2,0.2,7.2,0,8.1,0C9,0,10,0.2,10.8,0.5v15.1
		C9.8,15.8,9,16,8.1,16z"/>
	<path id="XMLID_307_" class="st1" d="M10.7,15.5v-15C13.8,1.6,16,4.6,16,8S13.8,14.4,10.7,15.5z"/>
	<path id="XMLID_306_" class="st2" d="M5.3,15.5C2.2,14.4,0,11.4,0,8s2.2-6.4,5.3-7.5C5.3,0.5,5.3,15.5,5.3,15.5z"/>
</g>
</svg>
