<svg xmlns="http://www.w3.org/2000/svg" width="60" height="42" viewBox="-319 330 60 42">
  <title>Star</title>
  <desc>Free Shipping Star</desc>
  <path d="M-279.9 367.4c-.3 0-.5-.1-.8-.2l-8.3-4.3h-.1l-8.3 4.3c-.8.4-1.8.1-2.2-.7-.2-.3-.2-.7-.2-1l1.5-9.3v-.1l-6.6-6.6c-.6-.6-.6-1.7 0-2.3.2-.2.6-.4.9-.5l9.2-1.4s.1 0 .1-.1l4.2-8.4c.4-.8 1.4-1.2 2.2-.7.3.2.6.4.7.7l4.2 8.4.1.1 9.2 1.4c.9.1 1.5 1 1.4 1.9-.1.3-.2.7-.5.9l-6.6 6.6v.1l1.5 9.3c.1.9-.5 1.8-1.4 1.9h-.2zm-9.1-6.1c.3 0 .5.1.8.2l8.3 4.3h.2v-.1l-1.5-9.3c-.1-.5.1-1.1.5-1.4l6.6-6.6c.1-.1.1-.1 0-.2h-.1l-9.2-1.4c-.5-.1-1-.4-1.2-.9l-4.2-8.4c0-.1-.1-.1-.2-.1l-.1.1-4.2 8.4c-.2.5-.7.8-1.2.9l-9.2 1.4c-.1 0-.1 0-.1.1v.1l6.6 6.6c.4.4.6.9.5 1.4l-1.5 9.3c0 .1 0 .1.1.1h.1l8.3-4.3c.2-.1.5-.2.7-.2z"/>
</svg>
