<svg xmlns="http://www.w3.org/2000/svg" width="39" height="27" viewBox="0 0 39 27"><g fill="#7D7D7D"><path d="M19.43.49c-.84 1.18-1.75 5.01-1.75 7.45 0 .51-.01.53-.44.64-1.77.49-3.18 2.78-2.96 4.8.06.56.03.62-.38 1.16-1.12 1.46-1.28.87-.72-2.68.27-1.7.27-1.92.06-2.11-.35-.28-1.74.58-2.11 1.3-.21.41-.06.68.3.59.28-.07.28-.14.01 1.32-.24 1.33-.67 2.19-1.43 2.88-.52.47-.86.51-1.01.09-.17-.44-.03-1.02.49-2.07.72-1.45.47-1.81-1-1.48-.49.1-.9.17-.93.14-.02-.02 0-.29.07-.58.42-1.79-1.09-2.65-2.14-1.24-.83 1.12-.66 2.58.37 3.05.41.2.47.27.47.61 0 .32-.03.37-.2.3-.81-.35-1.41-.07-2.88 1.35l-1.08 1.04-.07-.39c-.06-.31.01-.56.38-1.25 1.71-3.19 2.2-7.94 1.05-10.22-.37-.72-.96-.54-1.47.46-1.02 2-1.6 6.05-1.5 10.48l.06 2.56-.34.64c-.44.82-.41 1.22.1 1.26.43.05.44.08.56 1.35.2 2.24.87 4.3 1.55 4.8 1.59 1.12 3.02-1.78 2.38-4.79-.32-1.54-1.17-2.5-2.21-2.5-.37 0-.38-.01-.46-.66l-.08-.66.45-.39c.78-.68 2.01-1.5 2.56-1.71.53-.21.53-.21.71.05.38.58.57.29 1-1.63.07-.29.12-.31.66-.31.32 0 .57.03.54.08-.41.78-.49 1.1-.5 1.74 0 .59.05.76.28 1.01.74.79 1.68.61 2.73-.52.35-.38.64-.75.64-.82s.12.05.27.27c.62.94 1.46.81 2.57-.37.35-.38.64-.75.64-.82 0-.08.14 0 .32.16.46.44.75.56 1.35.56.83 0 1.65-.53 2.28-1.48.17-.27.19-.27.34-.06.43.59 1.1.76 1.71.45.31-.16.94-.8 1.31-1.32l.19-.27.31.29c.87.81 2.31.52 2.93-.57.12-.22.14-.22.28-.03.25.34.69.43 1.18.27.5-.17.84-.46 1.46-1.24l.44-.54.19.28c.1.16.32.37.49.47.64.42 1.74-.35 2.38-1.67l.27-.54.03 1.12.03 1.13-.49.6c-.27.34-.59.66-.72.71s-1.43.24-2.9.43c-4.51.57-6.77 1.43-8.44 3.24-1.23 1.33-1.4 3.04-.17 1.83.86-.86 2.84-1.75 5.44-2.45 1.31-.36 5.09-1.24 5.14-1.19.01.01-.08.34-.21.72-.36 1.06-.32 2.22.1 3.04.94 1.85 2.85 1.47 3.65-.73.2-.57.24-.94.23-1.97 0-.71-.03-1.56-.08-1.91l-.07-.64.78-.51c1.02-.67 2.56-2.2 3.08-3.08 1.24-2.06 1.17-4.11-.13-4.11-.72 0-1.32.56-1.94 1.79-.34.67-1.67 2.48-1.82 2.49-.23 0 .22-4.29.58-5.45.08-.28-.28-.59-.58-.5-.36.1-.78.51-.95.93-.08.2-.25.86-.38 1.47-.43 2.06-1.11 3.74-1.64 4.02-.2.12-.25.07-.42-.31-.23-.56-.16-1.54.25-3.41.15-.74.25-1.43.22-1.53-.2-.51-1.26-.15-1.96.66-.5.58-.54 1.01-.1 1.01.3 0 .31.01.23.54-.05.31-.13.97-.2 1.48-.13.97-.39 1.57-1.05 2.31-.6.69-.71.57-.65-.68.03-.59.01-1.17-.05-1.27-.29-.51-1.28.22-1.42 1.04-.19 1.15-.79 2.13-1.31 2.13-.36 0-.81-.62-.9-1.23-.24-1.62.54-3.39 1.65-3.76.45-.15.8-.06.97.27.1.19.08.3-.12.57-.3.41-.3.53-.01.62.34.1.96-.13 1.28-.47.39-.42.37-1.22-.05-1.64-.43-.43-1.4-.49-2.3-.14-1.68.62-3.11 2.9-2.96 4.7.05.57.02.66-.37 1.17-.34.44-.49.56-.75.56-.3 0-.38-.08-.67-.65l-.34-.66.29-.9c.68-2.19 1.04-4.56 1.05-7.05.02-3.29-.59-4.61-1.52-3.32zm.17 2.39c.16.41.21 4.17.07 5.46-.25 2.23-.37 2.34-.58.53-.22-1.81-.1-5.65.17-6.1.09-.14.24-.1.34.11zm17.38 4.27c.12.3-.2 1.45-.62 2.26-.43.83-1.47 1.94-2.23 2.4l-.46.28v-.39c0-.31.14-.57.59-1.13.78-.97 1.39-1.89 1.78-2.66.17-.35.37-.71.43-.79.15-.21.41-.19.51.03zm-34.23.64c.32.91.06 4.21-.44 5.72l-.24.69.05-2.78c.05-2.59.19-3.99.42-3.99.03 0 .14.16.21.36zm14.91 1.98c.21.21.17.53-.09.75-.31.27-.29.47.06.57.19.05.31.17.36.38.03.16.15.58.24.93.17.61.17.61-.16 1.09-.75 1.08-1.53 1.11-2.03.09-.38-.76-.38-2.16 0-2.93.4-.8 1.24-1.27 1.62-.88zm14.68 5.72c.15 2.3.13 2.89-.09 3.11-.19.19-.21.19-.49 0-.52-.34-.69-.83-.69-1.98 0-1.63.34-2.38 1.11-2.48.03 0 .1.61.16 1.35zm-29 5.94c.56 1.1.88 3.25.58 3.83-.19.34-.54.28-.75-.13-.2-.38-.58-2.46-.71-3.86l-.08-.9.31.2c.17.11.46.5.65.86z"/><path d="M12.19 7.91c-.24.29-.29.44-.24.72.1.52.45.81.95.81.84 0 1.28-1.02.68-1.61-.42-.42-1-.39-1.39.08z"/></g></svg>