<?xml version="1.0" encoding="utf-8"?>
<!-- Generator: Adobe Illustrator 18.1.1, SVG Export Plug-In . SVG Version: 6.00 Build 0)  -->
<svg version="1.1" xmlns="http://www.w3.org/2000/svg" xmlns:xlink="http://www.w3.org/1999/xlink" x="0px" y="0px"
	 viewBox="0 0 47.6 62" enable-background="new 0 0 47.6 62" xml:space="preserve">
<title>Globe icon</title>
<desc>Image of a table top globe</desc>
<g id="Design">
	<path d="M47.1,43.5l-8.3-8.4c3.1-3.3,5-7.6,5-12.5c0-4.9-1.9-9.5-5.3-12.9s-8-5.4-13-5.4c-4.8,0-9.2,1.9-12.4,4.9L4.3,0.4
		c-0.6-0.6-1.5-0.6-2.1,0C1.6,1,1.6,2,2.2,2.6l3.8,3.8C2.1,10.9,0,16.6,0,22.6c0,6.8,2.6,13.2,7.4,18.1c4.5,4.5,10.3,7.1,16.6,7.5
		L24,59l-6.3,0c0,0,0,0,0,0c-0.8,0-1.5,0.7-1.5,1.5c0,0.8,0.7,1.5,1.5,1.5l7.7,0c0,0,0,0,0.1,0c0,0,0,0,0,0c0,0,0,0,0.1,0l7.8,0
		c0,0,0,0,0,0c0.8,0,1.5-0.7,1.5-1.5c0-0.8-0.7-1.5-1.5-1.5L27,59l0-10.9c5.4-0.3,10.5-2.3,14.7-5.8l3.3,3.3
		c0.3,0.3,0.7,0.4,1.1,0.4c0.4,0,0.8-0.1,1.1-0.4C47.7,45,47.7,44.1,47.1,43.5z M25.6,7.3c4.1,0,7.9,1.6,10.8,4.5
		c2.9,2.9,4.5,6.7,4.4,10.8c0,8.4-6.9,15.2-15.3,15.2h0c-8.4,0-15.3-6.9-15.2-15.3C10.3,14.2,17.1,7.3,25.6,7.3z M25.5,45.2
		C25.5,45.2,25.5,45.2,25.5,45.2c-6.1,0-11.7-2.4-16-6.6S3,28.6,3,22.6c0-5.2,1.8-10.1,5-14.1l3,3c-2.4,3.1-3.8,6.9-3.8,11.1
		c0,10.1,8.2,18.3,18.2,18.3c0,0,0,0,0,0c4.2,0,8-1.4,11.1-3.8l3,3C35.6,43.4,30.7,45.2,25.5,45.2z"/>
</g>
</svg>
