<?xml version="1.0" encoding="UTF-8" standalone="no"?>
<svg width="41px" height="41px" viewBox="0 0 41 41" version="1.1" xmlns="http://www.w3.org/2000/svg" xmlns:xlink="http://www.w3.org/1999/xlink">
    <title>Arrow</title>

    <defs></defs>
    <g id="Page-1" stroke="none" stroke-width="1" fill="none" fill-rule="evenodd">
        <g id="external2" fill="#444444">
            <path d="M37.97952,2.34016 C36.51136,0.87168 34.74272,0.13728 32.67456,0.13728 L7.64576,0.13728 C5.5776,0.13728 3.80896,0.87168 2.34016,2.34016 C0.87168,3.80896 0.13728,5.5776 0.13728,7.64576 L0.13728,32.67424 C0.13728,34.7424 0.87168,36.51104 2.34016,37.97984 C3.80896,39.44864 5.5776,40.18304 7.64576,40.18304 L32.67424,40.18304 C34.7424,40.18304 36.51104,39.44864 37.9792,37.97984 C39.448,36.51104 40.1824,34.7424 40.1824,32.67424 L40.1824,7.64576 C40.1824,5.5776 39.448,3.80864 37.97952,2.34016 L37.97952,2.34016 Z M33.50848,20.99424 C33.50848,21.72416 33.16928,22.2368 32.49184,22.53248 C32.26592,22.6192 32.048,22.66272 31.84,22.66272 C31.37088,22.66272 30.97984,22.49728 30.66688,22.16736 L26.91264,18.41312 L12.99104,32.33536 C12.66048,32.6656 12.26976,32.83072 11.8176,32.83072 C11.36544,32.83072 10.9744,32.6656 10.64416,32.33536 L7.98496,29.67584 C7.65472,29.34592 7.4896,28.95424 7.4896,28.50272 C7.4896,28.05088 7.65472,27.65984 7.98496,27.3296 L21.9072,13.40736 L18.15296,9.65312 C17.61408,9.14912 17.49248,8.54112 17.78784,7.82816 C18.0832,7.1504 18.59616,6.8112 19.32608,6.8112 L31.84,6.8112 C32.29184,6.8112 32.68288,6.97664 33.01344,7.30688 C33.34336,7.6368 33.50848,8.02816 33.50848,8.48 L33.50848,20.99424 L33.50848,20.99424 Z" id="Shape"></path>
        </g>
    </g>
</svg>
