<?xml version="1.0" encoding="utf-8"?>
<!-- Generator: Adobe Illustrator 18.1.1, SVG Export Plug-In . SVG Version: 6.00 Build 0)  -->
<svg version="1.1" id="Layer_1" xmlns="http://www.w3.org/2000/svg" xmlns:xlink="http://www.w3.org/1999/xlink" x="0px" y="0px"
	 viewBox="0 0 32 32" enable-background="new 0 0 32 32" xml:space="preserve">
<g>
	<path fill-rule="evenodd" clip-rule="evenodd" d="M10.2,14.5V18H16c-0.2,1.5-1.7,4.4-5.8,4.4c-3.5,0-6.3-2.9-6.3-6.4
		c0-3.5,2.8-6.4,6.3-6.4c2,0,3.3,0.8,4.1,1.6L17,8.5c-1.8-1.7-4.1-2.7-6.8-2.7C4.6,5.8,0,10.4,0,16c0,5.6,4.6,10.2,10.2,10.2
		c5.9,0,9.8-4.1,9.8-9.9c0-0.7-0.1-1.2-0.2-1.7H10.2L10.2,14.5L10.2,14.5z"/>
	<polygon fill-rule="evenodd" clip-rule="evenodd" points="32,14.5 29.1,14.5 29.1,11.6 26.2,11.6 26.2,14.5 23.3,14.5 23.3,17.5 
		26.2,17.5 26.2,20.4 29.1,20.4 29.1,17.5 32,17.5 	"/>
</g>
</svg>
