<svg xmlns="http://www.w3.org/2000/svg" width="147.5" height="27" viewBox="0 0 147.5 27"><g fill="#7D7D7D"><title>Handelszeitung</title><desc>Handelszeitung Logo</desc><path d="M2.96 5.72L0 5.76v.36c0 .35.04.36.79.36.58 0 .8.06.87.23.04.13.09 3.2.09 6.83 0 7.46.09 6.98-1.14 6.82-.6-.07-.61-.07-.61.34v.42h6.26v-.41c0-.38-.01-.39-.86-.39-.6 0-.87-.06-.93-.2-.04-.12-.09-1.62-.1-3.35l-.01-3.15h5.99l-.01 2.8c0 1.54-.04 3.07-.1 3.39l-.1.58-.77-.04c-.74-.06-.76-.04-.76.36v.41h6.2l-.06-.42c-.06-.39-.09-.41-.77-.35-.47.04-.77.01-.86-.1-.1-.12-.13-2.53-.12-6.93l.04-6.76.84-.04c.8-.04.83-.06.83-.44v-.39H8.59v.39c0 .39.03.41.79.41h.8l.09.61c.04.35.07 1.73.04 3.1l-.04 2.48H4.44L4.4 10.2c-.03-1.37 0-2.75.04-3.1l.09-.61h.84c.84 0 .84 0 .86-.44 0-.26-.06-.42-.16-.41-.1.03-1.5.06-3.11.08zM44.86 6.08c0 .39.01.41.8.41h.8l.01 1.85c0 1.03.04 2.16.09 2.52l.07.64-.52-.45c-.86-.77-2.14-.98-3.52-.55-1.88.55-2.97 2.53-2.97 5.4 0 2.46.74 4.14 2.2 4.94.68.38.93.44 1.95.44 1.35 0 2.08-.28 2.53-.99l.31-.47v1.38h3.86v-.45c0-.45-.01-.45-.61-.36-.45.06-.64.01-.8-.16-.15-.19-.19-1.62-.19-7.4V5.68h-4.01v.4zm.66 5.55c.8.8.99 1.75.9 4.46-.07 2.53-.22 3.16-.93 3.92-.45.48-.51.5-1.28.44-1.62-.13-2.02-1.08-2.02-4.78-.01-2.69.13-3.45.79-4.11.36-.35.52-.41 1.24-.41.73 0 .86.05 1.3.48zM61.76 6.1c0 .39.01.41.7.36l.68-.04.12 1.89c.16 2.74-.01 11.91-.23 12.05-.1.06-.42.07-.71.01-.54-.07-.55-.06-.55.34v.42h5.52l-.01-.41c-.01-.39-.04-.41-.61-.38-.34.01-.68.01-.77 0-.15-.01-.19-1.59-.19-7.37V5.61l-1.97.04-1.97.03v.42zM100.42 5.92c-.7.35-.86 1.53-.28 2.1.26.28.51.36 1.01.36.54 0 .7-.07 1.02-.45.47-.55.48-1.15.04-1.66-.37-.43-1.28-.61-1.79-.35zM107.93 7.93c-.2.15-.7.44-1.11.66l-.74.39.07.71.07.73h-1.5v1.04l.7-.04.68-.04.07 4.24c.07 4.03.09 4.27.38 4.66.44.6 1.09.93 2 1.02 1.14.12 1.79-.15 2.14-.83.38-.74.38-1.31.01-1.31-.16 0-.38-.04-.51-.09-.19-.07-.23.01-.23.5 0 .95-.74 1.24-1.14.44-.22-.48-.42-6.22-.26-7.72l.1-.96 1.09.07 1.08.09v-1.06h-2.36l.06-1.33c.03-.82-.01-1.35-.1-1.38-.06-.03-.29.07-.5.21zM91.94 10.29c-1.76.31-3 1.4-3.61 3.19-.41 1.18-.36 3.85.06 4.95.51 1.31 1.09 1.97 2.18 2.51.89.44 1.08.48 2.36.48 1.14 0 1.49-.06 1.97-.32.77-.41 1.44-1.14 1.81-1.94l.29-.64-.47-.16c-.47-.15-.47-.15-.87.7-.6 1.21-1.41 1.65-2.78 1.47-1.46-.2-2.05-1.22-2.23-3.82l-.09-1.34h6.6v-.64c0-.89-.5-2.4-1.03-3.13-.78-1.07-2.49-1.6-4.19-1.31zm1.92 1.09c.45.45.67 1.17.67 2.18 0 .73-.01.76-.45.84-.25.04-1.15.09-1.98.09h-1.53l.1-.77c.13-.99.68-2.16 1.19-2.46.65-.39 1.54-.33 2 .12zM140.89 10.28c-1.65.34-2.68 1.28-2.94 2.71-.17.89.03 1.89.5 2.59l.34.5-.52.34c-.89.58-1.22 1.22-1.17 2.18.07.93.47 1.6 1.14 1.91.25.1.44.22.44.26 0 .04-.23.2-.51.35-1.09.6-1.43 2-.73 3.03.71 1.05 2.84 1.69 5.08 1.53 1.62-.12 2.59-.47 3.44-1.22.82-.73 1.05-1.3 1.05-2.52 0-1.46-.68-2.39-2.05-2.77-.29-.07-1.66-.15-3.04-.15-2.77 0-3.45-.15-3.61-.8-.1-.44.31-1.21.74-1.41.29-.13.48-.1.98.12.92.41 3.03.39 3.83-.04 1.68-.89 2.32-2.65 1.68-4.54-.25-.76-.28-.96-.12-1.05.31-.2.41-.15.41.2 0 .73 1.02 1.11 1.5.57.54-.6.07-1.66-.8-1.84-.35-.07-.67 0-1.22.28l-.74.36-.64-.28c-.81-.34-2.21-.49-3.04-.31zm1.61.74c.63.29.76.74.76 2.77 0 1.66-.03 1.91-.31 2.27-.25.32-.44.42-.96.45-.89.06-1.34-.32-1.57-1.3-.23-.98-.12-2.97.2-3.61.36-.68 1.13-.91 1.88-.58zm1.82 10.25c.93.28 1.34.77 1.34 1.59 0 1.27-.93 1.85-3.13 1.95-2.46.1-3.54-.42-3.67-1.81-.06-.63-.03-.79.31-1.18.22-.25.63-.51.93-.6.87-.22 3.37-.19 4.22.05zM19.3 10.38c-1.37.29-2.46.99-2.69 1.73-.34 1.02.25 1.78 1.24 1.6.66-.13.95-.57.95-1.44 0-1.12.15-1.27 1.24-1.27.83 0 .99.04 1.41.42.48.42.48.44.48 1.78v1.35l-1.24.34c-2.4.66-2.77.79-3.36 1.25-1.02.79-1.22 1.15-1.22 2.26 0 1.33.42 2.07 1.44 2.58 1.28.64 3.63.39 4.3-.45.35-.44.39-.44.51.03.16.6.92.83 2.37.71 1.19-.1 1.21-.12 1.21-.5s-.03-.39-.68-.39c-.66.01-.7-.01-.79-.42-.06-.25-.1-2.02-.12-3.98-.01-2.61-.07-3.66-.22-4.01-.29-.71-1.12-1.35-1.98-1.54-.74-.15-2.27-.18-2.85-.05zm2.69 6.12c0 .63-.07 1.56-.15 2.08-.12.82-.2 1.02-.64 1.41-.39.36-.66.48-1.08.48-1.06 0-1.63-.79-1.63-2.26 0-1.49.45-2.07 2.04-2.56 1.46-.45 1.46-.45 1.46.85zM33.02 10.42c-.74.19-1.4.54-1.91 1.01l-.41.38.06-.71.04-.7-.73.09c-.39.04-1.3.09-2 .09-1.27 0-1.28 0-1.28.35 0 .34.07.36.7.41l.68.04.04 4.33c.04 4.84.04 4.84-.92 4.68-.48-.07-.51-.06-.51.34v.42h5.41v-.42c0-.41-.03-.41-.57-.34-.31.03-.64.01-.74-.04-.26-.16-.38-4.7-.16-6.09.31-1.95 1.05-2.84 2.36-2.85.84-.01 1.25.31 1.44 1.17.07.31.15 2.18.15 4.17 0 4.01.09 3.7-.96 3.63-.39-.03-.45.01-.45.38v.41H38.46v-.41c0-.38-.03-.41-.58-.36-.32.01-.6 0-.64-.04-.03-.03-.09-1.76-.12-3.85l-.04-3.79-.41-.84c-.32-.63-.55-.9-.98-1.12-.67-.39-1.91-.53-2.67-.34zM54.68 10.54c-2.17.76-3.23 2.74-3.09 5.78.13 2.51.9 3.89 2.62 4.66.77.35 1.12.42 2.16.42 1.91.01 3-.61 3.73-2.17l.35-.73-.34-.1c-.55-.16-.63-.13-.82.39-.41 1.14-1.31 1.82-2.42 1.82-1.17 0-2-.54-2.37-1.53-.23-.6-.47-2.17-.47-3.12v-.79l3.34.1 3.35.1-.07-.55c-.32-2.39-.99-3.6-2.3-4.21-.93-.42-2.55-.45-3.67-.07zm2.61.73c.15.13.38.44.5.66.25.48.44 2.36.25 2.48-.07.03-.98.09-2.02.12l-1.89.06.04-.8c.09-1.34.87-2.65 1.68-2.81.49-.13 1.13.01 1.44.29zM70.64 10.51c-1.72.6-2.53 2.58-1.75 4.22.38.77 1.01 1.19 2.97 2.01 2.04.84 2.49 1.25 2.49 2.29 0 .64-.06.79-.47 1.15-.51.47-1.47.67-2.29.52-1.15-.22-2.04-1.33-2.24-2.8-.1-.66-.15-.71-.47-.67-.2.03-.36.07-.38.07 0 .01.03.79.06 1.72l.06 1.7 1.11.32c1.28.38 3.12.45 4.03.16 1.38-.45 2.17-1.35 2.35-2.68.26-1.85-.47-2.68-3.29-3.8-1.81-.71-2.32-1.05-2.58-1.66-.39-.95.1-1.79 1.19-2.02 1.56-.35 2.68.41 3.13 2.1.12.45.23.63.42.63.23 0 .28-.17.35-1.41.06-1.02.03-1.46-.09-1.53-.36-.23-2.17-.55-3.04-.55-.49.01-1.19.11-1.56.23zM100.26 10.38l-2.08.06v.42c0 .44.01.44.79.44.76 0 .79.01.87.45.12.6.12 7.53 0 8.14-.1.45-.1.47-.87.41l-.79-.04v.95H104v-.95h-1.53l-.12-1.24c-.06-.68-.07-2.93-.03-5 .04-2.05.07-3.73.04-3.71s-.97.06-2.1.07zM130.07 10.51c-.36.13-.9.42-1.19.66l-.55.44v-1.16l-2.04.03-2.04.03v.45c0 .44.01.44.7.44l.68-.01.07 2.33c.04 1.28.04 3.28 0 4.44l-.07 2.11h-.7c-.67 0-.68 0-.68.47v.48h5.49v-.44c0-.42-.03-.44-.68-.44h-.68l-.1-.67c-.13-1.03-.1-4.68.06-5.65.28-1.69 1.06-2.56 2.33-2.56 1.01 0 1.28.36 1.46 1.91.16 1.41.19 4.03.04 5.77l-.09 1.21h-.61c-.57 0-.63.03-.68.41l-.06.41h2.67l2.67.01v-.45c0-.45-.01-.45-.64-.41l-.63.06-.09-.79c-.06-.42-.1-2.17-.1-3.87 0-3.42-.07-3.79-.92-4.66-.76-.8-2.26-1.02-3.62-.55zM78.07 10.5s-.03.87-.04 1.94L78 14.36h.45c.45 0 .47-.03.55-.77.06-.42.23-.98.38-1.24.48-.79.92-.96 2.51-1.02l1.44-.06-1.27 2.08c-.7 1.15-2.07 3.29-3.06 4.76-1.02 1.53-1.75 2.77-1.7 2.88.06.17.82.2 4.54.2h4.46v-4.36h-.39c-.42 0-.38-.09-.63 1.51-.1.66-.64 1.41-1.17 1.69-.48.23-3.57.41-3.57.19 0-.29 2.49-4.37 4.68-7.63.7-1.05 1.08-1.75 1.02-1.86-.1-.16-2.68-.23-8.17-.23zM111.57 10.93v.55l.64-.09.63-.09.1.76c.04.42.09 2.13.09 3.82s.07 3.31.16 3.61c.2.74.92 1.51 1.56 1.7.68.19 2.13.19 2.81 0 .28-.07.79-.38 1.12-.67l.61-.52v1.38l.45-.1c.25-.04 1.21-.09 2.11-.09h1.66v-.44c0-.41-.01-.42-.83-.47l-.84-.04-.04-4.88-.03-4.88h-4.08v.98l.77-.06.76-.04v6.84l-.39.8c-.23.47-.57.9-.83 1.06-.5.29-1.59.32-1.94.04-.57-.42-.61-.89-.58-5.3l.03-4.25H114c-.83 0-1.72-.04-1.97-.09-.44-.07-.46-.07-.46.47z"/></g></svg>