<svg xmlns="http://www.w3.org/2000/svg" viewBox="0 0 270 56">
	<title>HorizonT Logo</title>
	<desc>HorizonT Logo</desc>
  <g>
    <path d="M39.2 37.9v-19c0-4.2 0-4.2 4-5.8 0 0 .2-.2.2-.7H28.9v.7c.7.2 1.6 0 2 .4.9.4 2.2 1.3 2.2 2 .2 3.6 0 7.1 0 10.7h-17v-9.4c0-2.2.9-3.6 3.3-3.6.4 0 .9-.2 1.3-.4v-.4H6.6c0 .4 0 .7.2.7 0 .2.2.2.2.2 3.3 0 3.6 2 3.6 4.5v19.9c0 4.5 0 4.5-4 6.2h14.3v-.4c-.2 0-.4-.2-.9-.2-3.3-.4-3.8-.9-3.8-4v-8.5c0-1.6.4-2 2-2h13.4c1.3 0 2 .4 2 2v7.6c0 4.5 0 4.5-4.5 5.4 0 0-.2.2-.2.7h14.5c-4.2-1.9-4.2-1.9-4.2-6.6zm117.1-1.4c-.4.9-.7 1.8-1.1 2.5-1.1 1.1-2.5 3.1-3.6 3.1-5.4.4-10.5.2-16.3.2 7.1-10 14.1-19.9 21.2-29.9h-11.2c-5.4 0-10.9-.2-16.7-.2-.2 2.2-.4 4.9-.4 7.8.2 0 .4.2.9.2.2-.7.4-1.6.9-2.2 1.1-1.1 2.2-2.9 3.3-2.9 4.7-.4 9.6-.2 14.7-.2-7.1 10.3-14.1 19.9-21.2 29.9h28.8c.4-2.7 1.1-5.1 1.6-7.8-.2-.5-.7-.5-.9-.5zm102.8-24.3h-21.4c-1.8 0-3.8-.4-5.8-.7-.2 2-.4 4.5-.7 6.9.2 0 .4 0 .7.2.2-.7.2-1.3.7-1.8.7-.9 1.3-2 2-2.2 3.1-.2 6.5 0 9.8 0v23c0 4.9 0 4.9-4.5 6.2 0 0 0 .2-.2.4h15.2c-4.7-1.6-4.7-1.8-4.7-6.9V14.7c.4-.2.7-.2.9-.2h4.9c4.2 0 4.2 0 5.8 3.8 0 0 .2 0 .9.2.2-2.7.4-5.1.7-7.4-1.8.5-2.9 1.1-4.3 1.1zM120.4 38.1v-21c0-2.2.4-3.8 3.1-3.8.2 0 .7-.4 1.1-.9h-14.3c.4.4.4.9.7.9 3.8 1.1 3.8 1.1 3.8 4.9v20.1c0 4.2 0 4.2-4 5.1 0 0 0 .2-.2.7h13.8c-4-1.5-4-1.5-4-6zm-23.7-9.8c.9-.4 1.1-.7 1.6-.9 4-2.2 5.4-5.1 4.7-9.4-.7-3.1-2.9-5.4-7.4-5.6-5.8-.4-11.6-.2-17.4-.2-.2 0-.2.2-.7.4.4.2.7.7 1.1.7 2.2 0 3.1 1.3 3.1 3.6v23.4c0 1.8-.9 2.5-2.2 2.9-.4.2-1.1.2-1.8.4v.7H92v-.7c-.7 0-1.1-.2-1.8-.2-1.8 0-2.7-1.1-2.9-2.7-.2-3.6 0-7.1 0-10.7 2.2-.7 3.3-.2 4.5 1.6 2.2 4 4.9 7.6 7.4 11.6.4.7.9 1.6 1.6 1.6 2.9.2 5.8 0 8.5 0-6.8-4.7-8.1-11.8-12.6-16.5zm-5.5-.9h-3.8V14.7c0-.4.7-1.3 1.1-1.3 3.8-1.1 7.8 1.6 8.5 5.6.9 4.6-1.4 7.9-5.8 8.4zm84.7-16.3c-10-.2-17.6 6.9-17.6 17 0 9.4 7.1 16.5 17 16.5 10.3.2 17.8-6.9 17.8-17 .2-9.8-6.7-16.5-17.2-16.5zm9.6 25.4c-4.2 6.2-11.6 8.5-16.7 2.9-4.5-5.1-5.6-15.8-2-21.9 3.3-5.8 11.6-6.7 16.1-1.3 2.9 3.6 4 7.4 4.2 11.8.2 3.9-.2 6.5-1.6 8.5z"/>
    <path d="M204.7 43h-12.5c5.1-1.1 4.7-4.9 4.7-8.7V18c0-3.8-.4-4.5-4.2-5.8-.2 0-.2-.4-.9-1.1h8c1.6.7 3.8 2.5 4.9 3.6 5.4 6.2 10.9 12.3 16.3 18.5.2.2.7.7 1.3 1.1V15.8c0-1.8-1.3-3.1-3.3-3.3-.7 0-1.1-.2-1.6-.4v-.7h12c-.2.4-.4.9-.7.9-3.6 1.1-4.2 1.6-4.2 5.4v27c-1.3-.9-2.2-1.6-2.9-2.2-6.9-7.8-14.1-15.6-21-23.4-.4-.4-.7-.9-.9-1.3-.2.2-.4.2-.7.2l-.2 18.7c0 4 .7 4.9 4.7 5.6.3 0 .5.3 1.2.7zM60.6 11.1c-10-.2-17.4 6.9-17.4 17-.2 9.6 6.9 16.7 17 16.7 10.5 0 17.8-7.1 17.8-17.6-.2-9.6-7.1-16.1-17.4-16.1zm9.2 26.3c-2.5 5.8-10.5 7.4-15.2 3.1-5.8-5.1-7.1-17.6-2.5-23.9 3.6-4.7 10.7-5.1 14.9-.9 3.6 3.7 5 7.5 5 13.3 0 3.3-1.1 5.8-2.2 8.4z"/>
  </g>
</svg>
