<?xml version="1.0" encoding="utf-8"?>
<!-- Generator: Adobe Illustrator 19.2.1, SVG Export Plug-In . SVG Version: 6.00 Build 0)  -->
<svg version="1.1" id="Layer_1" xmlns="http://www.w3.org/2000/svg" xmlns:xlink="http://www.w3.org/1999/xlink" x="0px" y="0px"
	 viewBox="0 0 100 100" style="enable-background:new 0 0 100 100;" xml:space="preserve">
<title>100 Night Trial</title>
<desc>Casper's guarantee and return program</desc>
<path d="M18.1,58.5V47.2l-2.7,1.1l-1.2-3.3l6.6-2.5H22v15.9H18.1z"/>
<path d="M32.3,58.7c-4.5,0-6.6-3.8-6.6-8.1c0-4.3,2.2-8.1,6.7-8.1c4.5,0,6.6,3.8,6.6,8.1C39.1,54.9,36.8,58.7,32.3,58.7z M32.4,45.8
	c-1.8,0-2.7,1.9-2.7,4.9c0,3,0.8,4.9,2.7,4.9c1.8,0,2.7-1.9,2.7-4.9C35.1,47.7,34.2,45.8,32.4,45.8z"/>
<path d="M48,58.7c-4.5,0-6.6-3.8-6.6-8.1c0-4.3,2.2-8.1,6.7-8.1c4.5,0,6.6,3.8,6.6,8.1C54.7,54.9,52.5,58.7,48,58.7z M48,45.8
	c-1.8,0-2.7,1.9-2.7,4.9c0,3,0.8,4.9,2.7,4.9c1.8,0,2.7-1.9,2.7-4.9C50.7,47.7,49.9,45.8,48,45.8z"/>
<path d="M4.8,80.4C4.8,80.4,4.8,80.4,4.8,80.4c-1.2,0-2.1-0.4-2.8-1.2c-1.8-2-1-6.2,2-9.7c-0.8-4.8-1.2-11.8-1.2-19.5
	c0-7.6,0.4-14.6,1.2-19.5c-3-3.6-3.9-7.7-2-9.7c0.7-0.7,1.6-1.1,2.7-1.2c1.8,0,3.9,1,5.9,2.8c7.2-1.7,22.4-2.9,39.4-2.9
	c17,0,32.2,1,39.4,2.7c1.9-1.8,4.1-2.8,5.9-2.8c1.1,0,2,0.4,2.7,1.2c1.8,2,1,6.2-2,9.7c0.8,4.8,1.2,11.8,1.2,19.5
	c0,7.6-0.4,14.7-1.2,19.5c3,3.6,3.9,7.7,2,9.7c-0.7,0.7-1.6,1.1-2.7,1.2c-1.8,0-3.9-1-5.9-2.8c-7.2,1.7-22.4,2.9-39.4,2.9
	c-17,0-32.2-1-39.4-2.7C8.7,79.4,6.6,80.4,4.8,80.4z M6.7,28.9c0,0,0.1,0.1,0.1,0.1c0.4,0.4,0.5,0.9,0.4,1.4C6.5,35,6,42.3,6,50.1
	c0,7.7,0.5,15.1,1.3,19.7c0.1,0.5-0.1,1-0.4,1.3c0,0-0.1,0.1-0.1,0.1l0,0c-2.5,2.8-2.8,5.4-2.4,5.9c0.1,0.1,0.2,0.1,0.4,0.1
	c0.9,0,2.5-0.8,4.2-2.5c0.4-0.4,1-0.6,1.6-0.4c6.4,1.7,22.3,2.9,39.5,2.9c17.2,0,33-1.2,39.5-3c0.6-0.2,1.2,0,1.6,0.4
	c1.6,1.7,3.3,2.5,4.2,2.5c0,0,0,0,0,0c0.1,0,0.3,0,0.4-0.1c0.4-0.5,0.1-3.1-2.4-5.9l0,0c0,0-0.1-0.1-0.1-0.1
	c-0.3-0.4-0.5-0.9-0.4-1.4C93.5,65,94,57.7,94,49.9c0-7.7-0.5-15.1-1.3-19.7c-0.1-0.5,0-1,0.4-1.3c0,0,0.1-0.1,0.1-0.1l0,0
	c0,0,0,0,0,0c2.5-2.8,2.8-5.4,2.4-5.9c-0.1-0.1-0.2-0.1-0.4-0.1c0,0,0,0,0,0c-0.9,0-2.5,0.8-4.2,2.5c-0.4,0.4-1,0.6-1.6,0.4
	C83,24,67.1,22.8,49.9,22.8c-17.2,0-33.1,1.2-39.5,3c-0.6,0.2-1.2,0-1.6-0.4c-1.6-1.7-3.3-2.5-4.2-2.5c0,0,0,0,0,0
	c-0.1,0-0.3,0-0.4,0.1C3.9,23.5,4.2,26.1,6.7,28.9z M94.3,69.9L94.3,69.9L94.3,69.9z"/>
<g>
	<path d="M69.6,60.7c-3.6,0-7.1-2-8.9-5.4c-2.5-4.9-0.5-10.9,4.4-13.3c1.2-0.6,2.5-1,3.9-1c0.6,0,1.2,0.3,1.5,0.9
		c0.3,0.6,0.2,1.3-0.2,1.8c-1.7,2.1-2,4.9-0.8,7.3c0,0,0,0,0,0c1.2,2.4,3.7,3.8,6.4,3.7c0.6,0,1.2,0.3,1.5,0.9
		c0.3,0.6,0.2,1.3-0.2,1.8c-0.9,1.1-1.9,1.9-3.2,2.5C72.7,60.4,71.1,60.7,69.6,60.7z M66,45.2c-2.8,1.8-3.9,5.6-2.3,8.7
		c1.6,3.1,5.2,4.4,8.4,3.3c-2.3-0.9-4.2-2.5-5.3-4.8C65.5,50.1,65.3,47.5,66,45.2z"/>
	<g>
		<path d="M69.1,42.5"/>
	</g>
	<g>
		<path d="M76,56.1"/>
	</g>
	<path d="M75.5,57.7c-3.7,0-7.2-2.1-8.9-5.4c-1.8-3.5-1.3-7.8,1.2-10.8c0.6-0.7,1.6-0.8,2.3-0.2c0.7,0.6,0.8,1.6,0.2,2.3
		c-1.7,2.1-2,4.9-0.8,7.3c1.2,2.4,3.7,3.8,6.4,3.7c0.9-0.1,1.6,0.6,1.7,1.5c0.1,0.9-0.6,1.6-1.5,1.7C75.9,57.7,75.7,57.7,75.5,57.7z
		"/>
</g>
<path d="M80.2,52.2c-0.9,0-1.6-0.7-1.6-1.6c0-1.5-2.9-4.4-4.4-4.4c-0.9,0-1.6-0.7-1.6-1.6s0.7-1.6,1.6-1.6c1.5,0,4.4-2.9,4.4-4.4
	c0-0.9,0.7-1.6,1.6-1.6c0.9,0,1.6,0.7,1.6,1.6c0,1.5,2.9,4.4,4.4,4.4c0.9,0,1.6,0.7,1.6,1.6s-0.7,1.6-1.6,1.6
	c-1.5,0-4.4,2.9-4.4,4.4C81.8,51.5,81,52.2,80.2,52.2z M78.1,44.6c0.8,0.6,1.5,1.3,2.1,2.1c0.6-0.8,1.3-1.5,2.1-2.1
	c-0.8-0.6-1.5-1.3-2.1-2.1C79.6,43.3,78.8,44,78.1,44.6z"/>
</svg>
