<svg xmlns="http://www.w3.org/2000/svg" width="125.2" height="27" viewBox="0 0 125.2 27"><g fill="#7D7D7D"><title>Ideale Heim</title><desc>Ideale Heim Logo</desc><path d="M121.1 11.5c-.1.2-.2.5-.4.7-.9 1.8-1.8 3.7-2.6 5.5l-1.5 3.3c0 .1-.1.2-.2.2s-.2-.1-.2-.2c-.3-.7-.6-1.4-.8-2-.4-.8-.8-1.6-1.1-2.5l-2.1-4.8c-.1-.2-.2-.3-.3-.5h-.1v.2c0 2.5-.1 5-.1 7.5 0 .5 0 1 .2 1.5.2.4.4.5.8.6.2 0 .3.1.5.1.1 0 .3 0 .2.2 0 .1-.2.2-.3.2H109.7c-.1 0-.2-.1-.3-.1.1-.1.1-.2.2-.3.1-.1.2-.1.4-.1.6-.2.9-.6.9-1.2.1-1.2.2-2.4.2-3.6.1-1.6.1-3.1.1-4.7 0-.3 0-.5-.1-.8-.1-.7-.5-.8-1-.9h-.4c-.1 0-.1-.1-.2-.2.1-.1.1-.2.2-.2h2.6c.2 0 .3.1.3.2.6 1.3 1.1 2.5 1.7 3.8.7 1.6 1.4 3.1 2.1 4.7.1.2.2.5.3.8.2-.4.4-.7.5-1.1.9-2 1.9-3.9 2.8-5.9.4-.8.7-1.5 1.1-2.3.1-.2.2-.3.5-.3h2.3c.1 0 .2.1.2.2s-.1.2-.2.2h-.2c-.9.1-1.3.5-1.3 1.3v2c.1 2.2.1 4.5.2 6.7 0 .7 0 1.1 1.1 1.2.1 0 .3 0 .4.1.1 0 .1.1.2.2-.1.1-.1.2-.2.2h-4.3-.1c-.1-.1-.2-.1-.2-.2.1-.1.1-.2.2-.2.3-.1.6-.1.9-.2.3-.1.5-.3.5-.6v-.5c0-2.6-.1-5.3-.1-7.9.2 0 .2-.2.1-.3.1 0 0 0 0 0zM82.2 14.8h3.4c.4 0 .4 0 .4-.4v-3.1c0-.2 0-.5-.1-.7-.1-.5-.4-.8-.9-.8-.2 0-.4 0-.6-.1-.1 0-.1-.1-.2-.2.1-.1.1-.2.2-.2h4.4c.1 0 .3 0 .3.2s-.1.2-.2.2c-.8 0-1.2.2-1.2 1.2V20c.1.8.4 1 1.1 1.1.1 0 .4-.1.4.2 0 .3-.3.2-.4.2h-4.3c-.1 0-.1-.1-.2-.2.1-.1.1-.2.2-.2.2 0 .5-.1.7-.1.4 0 .8-.3.8-.8 0-.3.1-.5.1-.8v-3.7c0-.3 0-.3-.3-.3h-7c-.2 0-.3.1-.3.3v4c0 .2 0 .4.1.7.1.3.4.6.7.6.2 0 .5.1.7.1.1 0 .3 0 .3.2s-.1.2-.3.2h-4.5c-.1 0-.2 0-.2-.2s.1-.2.2-.2c.2 0 .5 0 .7-.1.3-.1.5-.3.6-.6.1-.3.1-.5.1-.8v-8.5c0-.2-.1-.5-.1-.7-.1-.4-.4-.6-.7-.7h-.4c-.1 0-.1-.1-.2-.2l.2-.2H80c.1 0 .2 0 .2.2s-.1.2-.2.2h-.5c-.6.1-.9.4-1 1v3.7c0 .4 0 .4.3.4h3.4zM8.3 15.4v-4.3c0-.3-.1-.6-.1-.8-.1-.3-.4-.5-.7-.5h-.4c-.1-.1-.1-.2-.2-.3.1 0 .2-.1.2-.1h5.3c1.7.1 3.3.5 4.7 1.5 1.1.7 1.8 1.6 2.2 2.8.4 1.3.4 2.6 0 3.8-.6 1.8-1.9 2.9-3.7 3.5-.9.3-1.8.4-2.7.4H6.8c-.1 0-.3 0-.3-.2 0-.1 0-.2.2-.2.3 0 .6-.1.9-.1.4-.1.6-.4.7-.9v-.4-4.2zm1.6 0v4.4c0 .5.2.8.6 1 .2.1.5.2.7.2 1.3.2 2.6 0 3.8-.6 1.6-.8 2.4-2.2 2.6-4 .1-1.1 0-2.1-.3-3.2-.5-1.3-1.3-2.3-2.6-3-1.2-.6-2.5-.7-3.9-.6-.5.1-.8.3-.9.8 0 .3-.1.5-.1.8.1 1.5.1 2.9.1 4.2zM69.7 18.7c-.2.9-.4 1.7-.5 2.6 0 .2-.2.2-.3.2H59c-.1 0-.2-.1-.2-.2s.1-.2.2-.2c.3 0 .5-.1.8-.1.4-.1.7-.3.7-.7 0-.4.1-.7.1-1.1 0-2.6 0-5.3.1-7.9 0-.3 0-.6-.1-.9-.1-.4-.4-.5-.7-.6-.2 0-.4 0-.6-.1-.1 0-.1-.1-.2-.2l.2-.2h8.6c.4 0 .4 0 .5.4l.3 1.5c0 .1 0 .2-.1.3-.1 0-.2-.1-.3-.1-.2-.2-.5-.5-.7-.8-.5-.5-1.2-.8-1.9-.8H63c-.6 0-.7.2-.7.7v3.9c0 .2.1.3.3.3.8 0 1.7 0 2.5-.1.7-.1 1-.3 1.1-1 0-.1.1-.2.1-.3 0-.1.1-.3.3-.2.2 0 .2.2.2.3v3.5c0 .1 0 .3-.2.3s-.2-.1-.2-.3c-.1-.3-.1-.6-.2-.8-.2-.5-.6-.7-1.1-.7h-2.5c-.2 0-.2.1-.2.2v4.7c0 .4.2.6.6.7h3.5c1 0 1.8-.4 2.4-1.2.2-.3.4-.6.6-1-.1-.1.1-.2.2-.1zM31.9 18.7c-.2.9-.4 1.7-.5 2.6 0 .2-.2.2-.3.2h-9.8c-.1 0-.2-.1-.2-.1-.1-.2.1-.2.2-.2.3 0 .7-.1 1-.2.3-.1.4-.3.5-.6.1-.3.1-.6.1-1 0-2.7 0-5.4.1-8.1 0-.3 0-.6-.1-.8-.2-.5-.5-.7-.9-.7-.2 0-.4 0-.6-.1-.1 0-.1-.1-.2-.2.1-.1.1-.2.2-.2H30c.4 0 .4 0 .5.4.1.5.2.9.2 1.4 0 .1 0 .2-.1.3-.1-.1-.2-.1-.3-.2l-1-1c-.5-.4-1.2-.5-1.9-.5h-2c-.2 0-.4 0-.5.1-.3.1-.3.3-.3.6v4.1c0 .1 0 .3.2.3.9 0 1.7 0 2.6-.1.8 0 1-.5 1.1-1.1 0-.1 0-.2.1-.3 0-.1.2-.2.2-.2.1 0 .2.1.2.2v3.6c0 .1 0 .3-.2.3s-.2-.1-.2-.2c-.1-.3-.1-.6-.2-.8-.2-.5-.6-.7-1.1-.7h-2.6c-.2 0-.2.1-.2.2v4.5c0 .6.2.8.8.9h3.6c1 0 1.6-.6 2.1-1.4.2-.3.3-.5.5-.8.1-.3.2-.3.4-.2zM95.8 21.5h-4.9c-.1 0-.3 0-.2-.2 0-.1.1-.2.2-.2.2 0 .4-.1.7-.1.5-.1.8-.3.8-.9 0-.4.1-.8.1-1.2 0-2.6 0-5.2.1-7.8 0-.2-.1-.5-.1-.7-.1-.4-.4-.5-.8-.6h-.6c-.1 0-.2-.1-.2-.2s.1-.2.2-.2h8.6c.3 0 .4.1.4.3l.3 1.5c0 .1 0 .2-.1.3-.1 0-.2-.1-.3-.1-.3-.3-.6-.7-1-1-.6-.5-1.2-.6-1.9-.6h-2.2c-.6.1-.7.2-.7.8v3.8c0 .2.1.3.3.3.9 0 1.8 0 2.6-.1.5 0 .8-.3.9-.7.1-.2.1-.4.2-.6 0-.2.1-.3.3-.2.2 0 .2.2.2.3V17c0 .1-.1.2-.1.2-.2.1-.2 0-.3-.2 0-.2-.1-.4-.2-.6-.1-.6-.6-1-1.2-1h-2.5c-.1 0-.2.1-.2.2v4.8c0 .3.1.5.4.6h3.5c1 0 1.9-.3 2.4-1.3.2-.3.4-.6.6-1 .1-.1.2-.1.3-.2 0 .1.1.2 0 .3-.2.7-.3 1.5-.5 2.2 0 .2-.1.3-.4.3-1.5.2-3.1.2-4.7.2zM43.2 21.5h-2.1c-.1 0-.3.1-.3-.1s.1-.2.3-.3c.1 0 .2 0 .4-.1.6-.1.8-.5.6-1.1-.3-.9-.6-1.8-1-2.7 0-.1-.1-.1-.1-.2-.1-.2-.2-.3-.4-.3h-3.7c-.2 0-.3.1-.4.3-.3.9-.7 1.8-1 2.7-.2.6 0 1.1.4 1.3.2.1.4.1.6.1.1 0 .2.1.2.2s-.1.2-.2.2h-3.2c-.1 0-.2-.1-.3-.1.1-.1.1-.2.2-.2 1-.1 1.4-.9 1.7-1.6.5-1 .9-2 1.3-3 .6-1.4 1.1-2.8 1.6-4.2.2-.4.3-.9.4-1.4 0-.1.1-.1.1-.2.3-.4.5-.8.8-1.2.1-.1.2-.3.3-.2.1 0 .2.2.3.3.2.4.3.9.5 1.3.3.9.7 1.8 1 2.7.5 1.4 1.1 2.8 1.6 4.2.3.8.6 1.5.9 2.2.3.6.7 1 1.4 1.1.1 0 .2.1.2.1.1.2 0 .3-.2.3-.5-.1-1.2-.1-1.9-.1zm-4.4-10.3c-.1.1-.1.2-.2.3l-.9 2.4c-.3.7-.5 1.4-.8 2.1-.1.2 0 .3.2.3h3.2c.3 0 .3 0 .2-.3-.4-1-.8-2-1.1-3-.1-.6-.3-1.2-.6-1.8zM49.6 9.4H52c.1 0 .1.1.1.2s-.1.2-.1.2h-.5c-1 .1-1.1.5-1.2 1.2v8.7c0 .2 0 .5.1.7.1.5.3.7.7.7 1.1 0 2.2.1 3.3-.1 1-.2 1.8-.7 2.4-1.5.2-.2.3-.5.5-.7.1-.1.2-.1.4-.1 0 .1.1.2.1.3-.2.8-.3 1.7-.5 2.5 0 .2-.1.2-.3.2-3.2 0-6.5-.1-9.7-.1H47c-.1 0-.2-.1-.2-.2s.1-.2.2-.2c.3 0 .5-.1.8-.1.5-.1.8-.3.8-.8 0-.3.1-.6.1-.9v-8.1c0-.3 0-.6-.1-.8-.1-.4-.4-.5-.7-.6h-.4c-.1 0-.3 0-.3-.2s.2-.2.3-.2h1.8c0-.1.2-.1.3-.1zM2.4 9.4h2.2l.2.2c-.1 0-.1.1-.2.1-.2 0-.4 0-.6.1-.6.1-.9.4-.9.9v9c0 .3.1.5.1.8.1.3.3.5.6.5.2 0 .3 0 .5.1.1 0 .1.1.2.2-.1.1-.1.2-.2.2H.2c-.1 0-.3 0-.3-.1 0-.2.1-.2.3-.2.4-.1.8 0 1-.5.1-.2.2-.5.2-.8V11c0-.2-.1-.5-.1-.7-.1-.3-.3-.5-.6-.5-.1 0-.3 0-.4-.1-.2 0-.2-.1-.3-.2l.2-.2H2c.1.1.3.1.4.1zM105.9 15.5v4.2c0 .3.1.6.1.8.1.3.3.5.6.5.2 0 .4 0 .6.1.1 0 .1.1.1.2s-.1.2-.2.2h-4.2c-.1 0-.1-.1-.2-.2l.2-.2c.2 0 .3-.1.5-.1.5-.1.7-.3.8-.8v-.8-8.2c0-.3 0-.6-.1-.9-.1-.4-.4-.5-.7-.6h-.4c-.1 0-.2 0-.2-.2s.1-.2.2-.2h4.3c.1 0 .3 0 .3.2s-.1.2-.3.2c-.3 0-.6.1-.8.1-.3.1-.4.3-.5.6-.1.3-.1.6-.1.9v4.2zM25.8 6.4c.1 0 .3-.1.4-.1.2 0 .3-.2.3-.4v-.3-3.5c0-.7 0-.7-.6-.9h2.5c1 .1 1.9.3 2.6 1.1.6.6.8 1.4.6 2.2-.2 1.1-1 1.8-2.1 2-.5.1-1.1.1-1.7.1h-1.6c-.2-.1-.3-.1-.4-.2 0 .1 0 .1 0 0zm1.4-2.6v1.9c0 .3.1.5.4.6.9.2 1.8.1 2.5-.6s.8-2.2.3-3.1c-.5-1-1.6-1.3-2.5-1.2-.5 0-.6.2-.6.7-.1.5-.1 1.1-.1 1.7zM37 6.5h-2v-.1c.1 0 .1-.1.2-.1.2 0 .4-.2.3-.4-.1-.5-.3-1-.5-1.4 0-.1-.1-.1-.2-.1h-1.5c-.1 0-.2.1-.3.2-.2.4-.3.7-.4 1.1-.1.4 0 .5.3.6l.1.1c-.5.1-1 .1-1.5 0 0-.1 0-.1.1-.1.5-.1.7-.6.9-1 .4-1.1.9-2.2 1.3-3.2.1-.3.3-.6.4-.8 0-.1.1-.1.2-.2 0 .1.1.1.1.2.5 1.2.9 2.4 1.4 3.6.1.3.2.6.4.9.1.3.3.5.6.5 0 .1 0 .1.1.2zM34 2c-.3.7-.5 1.3-.7 1.9-.1.2 0 .3.2.3h1.2c.2 0 .2-.1.2-.2-.2-.6-.4-1.2-.7-1.7-.1-.1-.1-.2-.2-.3zM40.7 2.4c0-.1-.1-.1-.1-.2-.2-.4-.4-.7-.8-.9-.5-.2-1.1 0-1.3.4-.2.4-.1 1 .3 1.2.5.3 1 .5 1.5.8.6.3.9.8.8 1.4-.1.6-.7 1.3-1.4 1.4-.6.1-1.1 0-1.7-.1-.1 0-.2-.1-.2-.1-.1-.4-.2-.8-.2-1.2h.1c0 .1.1.1.1.2.2.5.5 1 1.1 1.1.6.2 1.5 0 1.6-.8.1-.4 0-.8-.4-1.1-.5-.3-1-.5-1.5-.8-.4-.2-.7-.5-.8-.9-.2-.8.3-1.5 1.1-1.7.5-.1 1-.1 1.4 0 .4.1.4.2.4.5.1.3.1.6 0 .8.1 0 0 0 0 0z"/></g></svg>