<?xml version="1.0" encoding="utf-8"?>
<!-- Generator: Adobe Illustrator 19.0.0, SVG Export Plug-In . SVG Version: 6.00 Build 0)  -->
<svg version="1.1" id="Layer_18" xmlns="http://www.w3.org/2000/svg" xmlns:xlink="http://www.w3.org/1999/xlink" x="0px" y="0px"
	 width="185.3px" height="27px" viewBox="0 0 185.3 27" style="enable-background:new 0 0 185.3 27;" xml:space="preserve">
<g>
	<path style="fill:#7D7D7D;" d="M13.7,0C6.2-0.1,0,5.9,0,13.5C0,20.8,5.9,26.9,13.2,27c7.6,0.1,13.6-6,13.8-13.2
		C27.3,6.4,21.2,0.1,13.7,0z M23,5.2c-0.3,0.4-0.6,0.9-1,1.3c-0.9,1-1.4,2.3-1.8,3.6c-0.1,0.4-0.3,0.6-0.7,0.7
		c-0.7,0.3-1.3,0.5-1.9,0.9c-0.3,0.2-0.7,0.2-1.1,0.2c0.8-0.1,1.4,0.1,2.1,0.4c0.3,0.1,0.5,0.3,0.6,0.7c0,0.2,0.2,0.3,0.4,0.5
		c0.3,0.4,0.2,0.7-0.3,0.9c-0.1-0.4-0.1-0.4-0.4-0.5c0.1,0.1,0.1,0.3,0.2,0.5c-0.5-0.1-1-0.1-1.4-0.2c0,0,0,0,0,0.1
		c0.1,0,0.2,0.1,0.4,0.2c-0.7,0.8-1.3,1.5-1.9,2.3c0,0,0,0,0,0c0.1-0.1,0.2-0.1,0.4-0.3c-0.3,1.1-0.1,1.8,0.9,2.2c0,0,0-0.1-0.1-0.2
		c0,0,0-0.1,0.1-0.1c0.2,0.1,0.3,0.2,0.5,0.3c0-0.1-0.1-0.2-0.1-0.3c0.7-0.1,1.3-0.3,2-0.4c0.3-0.1,1.8,0.8,2,1.1
		c0.1,0.4-0.1,0.7-0.5,0.7C20.6,19.9,20,20,19.4,20c-0.4,0-0.7,0.1-1.2,0.1c0.1-0.1,0.1-0.2,0.2-0.3c-0.9,0.4-1.8,0.8-2.7,1.3
		c0,0,0-0.1,0-0.1c0.1-0.1,0.2-0.2,0.2-0.3c0,0,0,0,0,0c-0.1,0.1-0.2,0.1-0.3,0.2c-0.9,0.5-1.7,1-2.6,1.4c-0.3,0.1-0.6,0.1-0.9,0.1
		c-0.5-0.1-1-0.3-1.5-0.5c-0.1-0.1-0.3-0.3-0.3-0.4c0-0.1,0.2-0.3,0.3-0.4c0.4-0.2,0.9-0.3,1.3,0c0.2,0.1,0.3,0.2,0.5,0.2
		c-0.6-0.3-1.2-0.7-1.8-1.1c1.1-0.3,2.2-0.6,3.2-0.9c-0.3-0.4-0.7-0.8-1-1.1c0.1,0.2-0.2,0.4-0.6,0.5c0-0.2,0-0.5,0-0.7c0,0,0,0,0,0
		c0,0.2,0,0.6-0.1,0.7c-0.1,0.2-0.4,0.2-0.7,0.3c0-0.3,0.1-0.6,0.1-0.9c0,0,0,0,0,0c0,0.1-0.1,0.2-0.1,0.4C11,19.1,11,19.1,10.3,19
		c0-0.2,0.1-0.3,0.1-0.4c0-0.1,0.1-0.3,0.1-0.5c-0.1,0.2-0.2,0.3-0.3,0.5c-0.1,0.5-0.5,0.6-1,0.5c0.2-0.3,0.3-0.7,0.5-1
		c0,0,0,0-0.1,0c-0.1,0.2-0.3,0.4-0.4,0.6c-0.2,0.4-0.6,0.6-1.1,0.5c0.3-0.4,0.6-0.8,0.8-1.2c0,0,0,0,0,0c-0.5,0.6-1.1,1.3-1.6,1.9
		c0,0-0.1,0-0.1,0c0-0.1,0-0.2,0.1-0.2C7.9,18.7,8.4,17.9,9,17c0.1-0.1,0.2-0.2,0.4-0.3c0.9-0.4,1.8-0.7,2.7-1
		c0.1-0.1,0.3-0.1,0.4-0.3c-0.2,0.1-0.4,0.2-0.6,0.2c-0.2,0-0.3-0.2-0.6-0.3c-0.1,0-0.3,0.1-0.5,0.3c-0.1-0.2-0.2-0.3-0.2-0.5
		c0.2-0.2,0.5-0.4,0.7-0.6c0,0,0,0,0,0c-0.4,0.3-0.9,0.5-1.3,0.8C9.6,15,9.6,14.9,10,14.6c0.2-0.2,0.5-0.3,0.7-0.5
		c-0.5,0.3-1,0.6-1.6,0.8c-0.2-0.3-0.1-0.5,0.2-0.7c0.4-0.2,0.7-0.4,1-0.7c-0.6,0.3-1.2,0.6-1.8,0.9c-0.2-0.4-0.2-0.6,0.2-0.7
		c0.4-0.2,0.8-0.4,1.1-0.7c-0.6,0.3-1.3,0.5-1.9,0.8c-0.2-0.4-0.1-0.6,0.3-0.7c0.4-0.1,0.7-0.3,1-0.5c-0.6,0.2-1.2,0.3-1.8,0.5
		c-0.1-0.5-0.1-0.6,0.4-0.7c0.3-0.1,0.5-0.1,0.8-0.2c-0.6,0.1-1.1,0.1-1.7,0.2C6.9,12,7,11.9,7.4,11.8c0.3,0,0.5-0.1,0.8-0.1
		c-0.6,0-1.2,0-1.8,0c0-0.2,0-0.3,0-0.4c0.4,0,0.7,0,1.1,0c0,0,0-0.1,0-0.1c-0.9-0.1-1.8-0.1-2.6-0.2c0,0,0,0,0-0.1
		c0.1-0.1,0.3-0.1,0.5-0.2c-0.5-0.2-0.9-0.4-1.4-0.6c0,0,0,0,0-0.1c0.1,0,0.3,0,0.5-0.1C3.9,9.7,3.5,9.5,3,9.2c0.4,0,0.6,0,1,0
		c-0.4-0.3-0.7-0.6-1.1-1c0.2,0,0.3,0,0.4,0C3.1,7.7,2.9,7.3,2.6,6.7c0.5,0.4,1,0.8,1.5,1.1c0,0,0.1-0.1,0.1-0.1
		C3.7,7.2,3.4,6.5,3.4,5.8c0.5,0.5,1,1,1.4,1.5c0,0,0.1-0.1,0.1-0.1C4.4,6.5,4.2,5.7,4.2,4.8c0.4,0.9,1,1.6,1.9,2.1
		C5.4,6,5,5,5.1,3.8C5.2,4,5.3,4.1,5.3,4.3C5.5,5.1,6,5.6,6.6,6.2c0.9,0.9,2,1.4,3.1,2c0.2,0.1,0.5,0.3,0.6,0.5
		c0.8,1,1.5,2.1,2.3,3.1c0.3,0.3,0.5,0.7,0.8,1c0.1,0,0.1-0.1,0.2-0.1c-0.1-0.1-0.1-0.2-0.2-0.3c0.3-0.1,0.6-0.2,0.9-0.3
		c-0.3,0-0.5,0-0.7,0c0,0,0,0,0-0.1c0.3-0.1,0.6-0.1,0.9-0.2c0,0,0,0,0-0.1c-0.4,0-0.8-0.1-1.2-0.1c0,0,0-0.1,0-0.1
		c0.8-0.1,1.7-0.2,2.5-0.3c-0.2,0-0.5-0.1-0.8-0.1c-0.3,0-0.6,0-0.8,0c0.3-0.2,1.2-0.3,1.9-0.2c-0.2-0.1-0.4-0.2-0.6-0.3
		c-0.2-0.1-0.5,0-0.8-0.1c0.6-0.2,0.8-0.2,1.7,0.1c-0.3-0.5-0.7-0.7-1.3-0.6c0,0,0-0.1,0-0.1c0.3-0.1,0.6-0.2,0.9-0.2
		c0.3,0,0.5,0.3,0.8,0.5c-0.2-0.5-0.5-0.9-1.1-1c0.3,0,0.7-0.1,0.9,0c0.3,0.1,0.4,0.4,0.7,0.7C17.1,9.5,17,9.2,16.8,9
		c-0.2-0.2-0.5-0.3-0.8-0.5c1-0.3,1.3,0.5,1.6,1.1c-0.2-0.7-0.2-1.6-1.3-1.6c1.1-0.2,1.5,0.5,1.8,1.3C18,8.9,18,8.4,17.8,8.1
		c-0.2-0.3-0.6-0.5-1-0.8c0.4,0.1,0.8,0.3,1.1,0.4c0.1,0,0.1,0.2,0.2,0.3c0.1,0.4,0.3,0.8,0.4,1.1c-0.1-0.5-0.1-1-0.3-1.4
		c-0.2-0.4-0.7-0.6-1-1c0.4,0.2,0.9,0.4,1.2,0.7c0.3,0.3,0.3,0.9,0.5,1.3c0-1-0.3-1.9-1.3-2.4c0,0,0.1-0.1,0.1-0.1
		c0.4,0.3,0.9,0.5,1.2,0.8c0.3,0.4,0.3,0.9,0.4,1.3c0.2-1.1-0.5-1.9-1.3-2.7c0,0,0.1,0,0.1-0.1c0.4,0.3,0.8,0.7,1.2,1
		c0.4,0.4,0.2,1,0.4,1.4c0.2-1-0.3-1.8-1-2.6c0.9,0.5,1.3,1.2,1.4,2.3c0-0.4,0-0.9-0.2-1.3c-0.2-0.4-0.5-0.8-0.7-1.2
		c0.4,0.6,1.1,1,1.1,1.8c0.2-0.9-0.4-1.5-0.6-2.3c0.3,0.6,0.7,1.2,1,1.8c-0.1-0.7-0.3-1.3-0.4-1.9c0,0,0,0,0.1,0
		c0.2,0.4,0.3,0.7,0.5,1.2c0.1-0.5,0.2-0.8,0.3-1.2c0,0,0.1,0,0.1,0c0,0.4,0,0.7-0.1,1.2c0.3-0.4,0.6-0.8,0.8-1.2c0,0,0,0,0.1,0
		c-0.2,0.3-0.3,0.6-0.5,0.9c0,0,0,0,0,0c0.4-0.3,0.8-0.6,1.2-0.9c0,0,0,0,0,0C23.1,5,23,5.1,23,5.2z"/>
	<path style="fill:#7D7D7D;" d="M140.1,7.5c-1.5-1.2-3.3-1.7-5.2-1.8c-4.1,0-8.3,0-12.4,0c-0.1,0-0.2,0-0.3,0
		c0.1,0.1,0.3,0.1,0.4,0.1c1.2,0.2,1.8,0.8,2,2c0.1,0.3,0.1,0.7,0.1,1c0,2.2,0,4.5,0.1,6.7c0,0.1,0,0.2,0,0.4c0,0-0.1,0-0.1,0.1
		c0-0.1-0.1-0.2-0.1-0.2c-1.5-1.8-3.1-3.6-4.6-5.5c-1.2-1.5-2.3-3-3.5-4.4c-0.1-0.1-0.2-0.1-0.4-0.1c-1.4,0-2.9,0-4.3,0
		c-0.1,0-0.1,0-0.2,0c1.2,0.3,2,1.1,2.8,1.9c0.1,0.1,0.2,0.3,0.2,0.5c0,2.5,0,5,0,7.5c0,0.6-0.1,1.2-0.2,1.9
		c-0.2,0.9-0.8,1.6-1.8,1.8c-0.2,0-0.4,0.1-0.5,0.2c0,0,0,0,0,0c1.8,0,3.5,0,5.3,0c-0.1-0.1-0.3-0.2-0.4-0.2c-1.1-0.3-1.7-1-1.9-2
		c-0.1-0.4-0.2-0.8-0.2-1.2c0-2.6-0.1-5.3-0.1-7.9c0-0.1,0-0.1,0.1-0.2c3.4,4,6.7,7.9,10,11.8c0,0,0.1,0,0.1-0.1c0-0.1,0-0.2,0-0.3
		c0-1.9,0-3.7,0-5.6c0-2,0-3.9,0-5.9c0-0.7,0.2-1.4,0.9-1.8c0.9-0.6,1.8-0.6,2.8-0.2c0.9,0.4,1.2,1.2,1.2,2.1c0,3.2,0,6.4,0,9.7
		c0,0.8-0.4,1.3-1.2,1.6c-0.3,0.1-0.6,0.1-0.8,0.2c0,0,0,0.1,0,0.1c0.1,0,0.3,0,0.4,0c2,0,4.1,0,6.1,0c0.7,0,1.3,0,2-0.1
		c3.5-0.4,6-3.1,6.2-6.7C142.5,10.6,141.8,8.8,140.1,7.5z M139.2,16.3c-0.8,2-2.4,3-4.5,3.1c-0.3,0-0.5,0-0.8,0
		c-1.1,0-1.6-0.5-1.7-1.6c0-0.2,0-0.4,0-0.6c0-3.7,0-7.4,0-11.1c0-0.1,0-0.3,0-0.5c1.1,0.1,2.1,0.1,3.1,0.2c1.9,0.3,3.3,1.5,4,3.3
		C140.2,11.6,140.2,14,139.2,16.3z"/>
	<path style="fill:#7D7D7D;" d="M69.5,7.4c-1.5-1.2-3.2-1.7-5.1-1.7c-4.2,0-8.3,0-12.5,0c-0.1,0-0.2,0-0.2,0c0,0,0,0.1,0,0.1
		c0.1,0,0.2,0,0.4,0.1c1.2,0.2,1.8,0.7,2,1.9c0.1,0.4,0.1,0.9,0.1,1.3c0,2.2,0,4.4,0,6.6c0,0.1,0,0.2,0,0.4
		c-0.1-0.2-0.2-0.3-0.3-0.4c-1.8-2.1-3.5-4.1-5.3-6.3c-0.9-1.1-1.8-2.3-2.7-3.5c-0.1-0.1-0.3-0.2-0.4-0.2c-1.4,0-2.8,0-4.2,0
		c-0.1,0-0.1,0-0.3,0.1c1.5,0.5,1.7,0.7,2.8,1.9c0.1,0.2,0.3,0.4,0.3,0.6c0,2.4,0,4.7,0,7.1c0,0.5,0,1.1-0.1,1.6
		c-0.2,1.3-0.8,2.2-2.1,2.4c-0.1,0-0.2,0.1-0.3,0.1c0,0,0,0,0,0c1.8,0,3.5,0,5.3,0c-0.1-0.1-0.3-0.1-0.4-0.2c-1-0.2-1.7-0.9-1.9-1.9
		c-0.1-0.6-0.2-1.2-0.2-1.7c0-2.4-0.1-4.9-0.1-7.3c0-0.1,0-0.2,0-0.4c3.4,4,6.8,8,10.1,11.9c0,0,0.1,0,0.1-0.1c0-0.1,0-0.3,0-0.4
		c0-2.6,0-5.3,0-7.9c0-1.1,0-2.1,0-3.2c0-1.5,0.7-2.3,2.2-2.5c1.4-0.1,2.5,0.5,2.7,2c0.1,0.6,0.1,1.2,0.1,1.8c0,2.6,0,5.3,0,7.9
		c0,1.1-0.5,1.7-1.6,1.9c-0.2,0-0.3,0.1-0.5,0.1c0.1,0.1,0.3,0.1,0.4,0.1c2,0,4.1,0,6.1,0c0.7,0,1.4,0,2-0.1c3.1-0.4,5.5-2.6,6-5.6
		C72.3,11.3,71.6,9.1,69.5,7.4z M68.7,16.4c-0.8,1.9-2.3,2.8-4.3,3c-0.4,0-0.8,0-1.2,0c-0.9,0-1.3-0.5-1.5-1.3
		c0-0.3-0.1-0.6-0.1-0.9c0-3.7,0-7.4,0-11.1c0-0.1,0-0.3,0-0.4c1.5,0,2.9-0.1,4.3,0.5c1.4,0.6,2.3,1.6,2.8,3
		C69.7,11.6,69.7,14,68.7,16.4z"/>
	<path style="fill:#7D7D7D;" d="M96.2,6.9c-1-0.8-2.2-1.2-3.5-1.2c-2,0-4,0-6,0c-0.1,0-0.1,0-0.2,0c0.1,0.1,0.3,0.1,0.4,0.2
		c1.2,0.3,1.7,0.8,1.7,2.1c0,1,0,2.1,0,3.1c0,2.2,0,4.3,0,6.5c0,1-0.4,1.5-1.4,1.8c-0.2,0.1-0.5,0.1-0.7,0.2c0,0,0,0,0,0
		c2.2,0,4.5,0,6.7,0c-0.4-0.1-0.8-0.2-1.2-0.4c-0.8-0.3-1.1-0.7-1.1-1.5c0-0.2,0-0.3,0-0.5c0-3.7,0-7.4,0-11c0-0.1,0-0.3,0-0.4
		c0.3,0,0.6,0,0.9,0c1.6,0.1,2.7,0.9,3.2,2.4c0.3,1.1,0.3,2.2,0,3.3c-0.4,1.2-1.2,2.1-2.5,2.3c-0.3,0.1-0.6,0.1-0.8,0.1
		c1.2,0.2,2.7-0.1,3.8-0.6C98,12,98.5,8.7,96.2,6.9z"/>
	<path style="fill:#7D7D7D;" d="M80.6,19.4c-0.7,0.1-1.3,0.1-2,0.1c-1.1,0-1.6-0.6-1.7-1.7c0-0.2,0-0.3,0-0.5c0-1.5,0-3,0-4.5
		c0-0.1,0-0.2,0-0.4c0.7,0,1.3,0,2,0c1.3,0,2.1,0.7,2.4,2c0.1,0.3,0.2,0.6,0.3,0.9c0,0,0,0,0.1,0c0-2,0-4,0-6
		c-0.2,0.5-0.4,0.9-0.6,1.4c-0.2,0.6-0.5,1.1-1.1,1.3c-1,0.4-2,0.2-3.1,0.3c0-2.2,0-4.4,0-6.6c1.1,0.1,2.2,0.1,3.3,0.2
		c1.4,0.1,2.4,0.9,3.1,2.2c0.1,0.3,0.3,0.5,0.4,0.8c0.1,0.3,0.3,0.5,0.4,0.8c0,0,0,0,0.1,0c0-1.3,0-2.6,0-3.8c-3.9,0-7.8,0-11.6,0
		c0.1,0.1,0.2,0.1,0.3,0.1c1.4,0.3,1.8,0.8,1.8,2.2c0,1.7,0,3.4,0,5.1c0,1.6,0,3.1,0,4.7c0,0.8-0.4,1.3-1.2,1.5
		c-0.3,0.1-0.6,0.1-0.8,0.2c0,0,0,0,0,0.1c4.1,0,8.1,0,12.2,0c0-1.3,0-2.6,0-3.8c-0.4,0.6-0.8,1.2-1.1,1.8
		C82.9,18.6,81.9,19.2,80.6,19.4z"/>
	<path style="fill:#7D7D7D;" d="M167,5.7c0.1,0.1,0.2,0.1,0.3,0.1c1,0.1,1.7,0.7,1.9,1.7c0.1,0.6,0.2,1.3,0.2,1.9
		c0,2.1,0,4.1,0.1,6.2c0,0.1,0,0.2,0,0.3c0,0-0.1,0-0.1,0.1c-0.1-0.1-0.1-0.2-0.2-0.3c-1.6-1.9-3.2-3.7-4.7-5.6
		c-1.2-1.4-2.3-2.9-3.4-4.3c-0.1-0.1-0.3-0.2-0.4-0.2c-1.4,0-2.8,0-4.2,0c-0.1,0-0.2,0-0.2,0c1.2,0.3,2,1,2.7,1.9
		c0.1,0.2,0.2,0.4,0.2,0.6c0,2.4,0,4.9,0,7.3c0,0.7-0.1,1.4-0.3,2.1c-0.2,0.9-0.8,1.5-1.7,1.7c-0.2,0-0.4,0.1-0.5,0.2c0,0,0,0,0,0
		c1.8,0,3.5,0,5.3,0c-0.2-0.1-0.3-0.2-0.5-0.2c-1-0.2-1.6-0.9-1.8-1.8c-0.1-0.6-0.2-1.2-0.2-1.9c0-2.4-0.1-4.8-0.1-7.2
		c0-0.1,0-0.2,0-0.5c3.4,4,6.8,8,10.1,11.9c0,0,0.1,0,0.1-0.1c0-0.1,0-0.2,0-0.3c0-3.2,0-6.4,0-9.7c0-0.5,0-1.1,0.1-1.6
		c0.1-1.4,0.8-2.1,1.9-2.4c0.2,0,0.3-0.1,0.5-0.1c0,0,0,0,0-0.1C170.5,5.7,168.7,5.7,167,5.7z"/>
	<path style="fill:#7D7D7D;" d="M109.1,17.7c-0.6,0.8-1.3,1.4-2.4,1.6c-0.8,0.1-1.6,0.2-2.3,0.2c-1.1,0-1.6-0.5-1.8-1.6
		c0-0.2,0-0.3,0-0.5c0-1.5,0-3,0-4.5c0-0.1,0-0.3,0-0.4c0.9,0.1,1.7,0.1,2.6,0.2c0.7,0.1,1.2,0.5,1.5,1.2c0.2,0.4,0.3,0.8,0.5,1.3
		c0,0.1,0.1,0.3,0.1,0.4c0,0,0.1,0,0.1,0c0-2,0-4,0-6c-0.1,0.1-0.1,0.2-0.2,0.3c-0.2,0.4-0.3,0.9-0.5,1.3c-0.3,0.6-0.7,1-1.3,1.1
		c-0.9,0.1-1.9,0.2-2.8,0.2c0-2.3,0-4.4,0-6.7c1.1,0.1,2.2,0.1,3.3,0.2c1.4,0.1,2.4,0.9,3.1,2.2c0.2,0.4,0.5,0.8,0.7,1.3
		c0,0.1,0.1,0.1,0.2,0.3c0-1.3,0-2.6,0-3.9c-3.9,0-7.8,0-11.6,0c0.1,0.1,0.3,0.1,0.4,0.2c1.3,0.3,1.7,0.8,1.7,2.1c0,0,0,0.1,0,0.1
		c0,3,0,6,0,9c0,0.2,0,0.4,0,0.7c-0.1,0.9-0.6,1.4-1.5,1.6c-0.2,0-0.4,0.1-0.6,0.1c0,0,0,0,0,0.1c4.1,0,8.1,0,12.2,0
		c0-1.3,0-2.6,0-4c-0.1,0.2-0.2,0.3-0.3,0.5C109.8,16.6,109.5,17.2,109.1,17.7z"/>
	<path style="fill:#7D7D7D;" d="M154,17.6c-0.6,0.9-1.4,1.6-2.5,1.7c-0.8,0.1-1.6,0.2-2.3,0.2c-1.1,0-1.7-0.5-1.7-1.6
		c-0.1-0.9,0-1.9,0-2.8c0-0.8,0-1.7,0-2.6c0.8,0,1.6,0.1,2.4,0.1c0.8,0.1,1.4,0.5,1.8,1.2c0.2,0.5,0.4,0.9,0.5,1.4
		c0,0.1,0.1,0.1,0.1,0.2c0-2,0-4,0-6.1c-0.2,0.6-0.4,1.2-0.6,1.7c-0.2,0.6-0.6,1.1-1.2,1.1c-0.9,0.1-1.9,0.2-2.9,0.3
		c0-2.3,0-4.5,0-6.7c1.1,0.1,2.2,0.1,3.3,0.2c1.4,0.1,2.4,0.9,3,2.2c0.2,0.4,0.5,0.9,0.7,1.3c0,0.1,0.1,0.1,0.2,0.3
		c0-1.4,0-2.7,0-3.9c-3.9,0-7.8,0-11.6,0c0.2,0.1,0.3,0.2,0.5,0.2c1.2,0.3,1.6,0.8,1.6,2c0,0.9,0,1.7,0,2.6c0,2.3,0,4.7,0,7
		c0,1-0.4,1.5-1.2,1.8c-0.3,0.1-0.6,0.1-0.9,0.2c0,0,0,0,0,0c4.1,0,8.1,0,12.2,0c0-1.3,0-2.6,0-3.9c-0.1,0.2-0.2,0.3-0.3,0.4
		C154.6,16.5,154.3,17.1,154,17.6z"/>
	<path style="fill:#7D7D7D;" d="M173.1,5.7c0,1.5,0,3,0,4.4c0.1-0.1,0.2-0.2,0.2-0.4c0.4-0.8,0.7-1.7,1.1-2.5
		c0.7-1.3,2.2-1.8,3.6-1.5c0,0.1,0,0.2,0,0.4c0,3,0,6,0,9c0,0.7,0,1.5,0,2.2c0,1.2-0.5,1.7-1.6,1.9c-0.1,0-0.3,0.1-0.4,0.1
		c0,0,0,0,0,0.1c2.1,0,4.3,0,6.4,0c0,0,0,0,0-0.1c-0.2,0-0.4-0.1-0.6-0.1c-0.9-0.2-1.3-0.6-1.5-1.5c0-0.2,0-0.4,0-0.6
		c0-3.7,0-7.4,0-11.1c0-0.1,0-0.3,0-0.4c0.3,0,0.5,0,0.7,0c1.5,0,2.5,0.6,3.1,1.9c0.3,0.7,0.6,1.5,0.9,2.2c0,0.1,0.1,0.2,0.2,0.4
		c0-1.6,0-3.1,0-4.6C181.2,5.7,177.1,5.7,173.1,5.7z"/>
	<path style="fill:#7D7D7D;" d="M38.5,17.4c0-3.2,0-6.4,0-9.6c0-1.1,0.5-1.6,1.5-1.9c0.2,0,0.4-0.1,0.5-0.1c0,0,0,0,0-0.1
		c-2.1,0-4.3,0-6.4,0c0,0,0,0,0,0.1c0.2,0,0.4,0.1,0.6,0.1c0.9,0.2,1.4,0.8,1.4,1.7c0,0.2,0,0.4,0,0.6c0,2.9,0,5.9,0,8.8
		c0,0.2,0,0.4,0,0.7c-0.1,0.9-0.5,1.3-1.3,1.6c-0.3,0.1-0.5,0.1-0.8,0.2c0,0,0,0,0,0.1c2.2,0,4.3,0,6.5,0c-0.2-0.1-0.4-0.1-0.6-0.2
		C38.9,19.1,38.5,18.6,38.5,17.4z"/>
	<path style="fill:#7D7D7D;" d="M14.3,17.5c0,0.9,0.1,1.1,0.8,1.7c0,0,0,0,0.1,0c0-0.1-0.1-0.2-0.1-0.2c0,0,0,0,0.1-0.1
		c0.2,0.1,0.3,0.1,0.5,0.2c0-0.1-0.1-0.1-0.1-0.2c0.2-0.1,0.3-0.1,0.4-0.1c0,0,0-0.1,0-0.1C15.3,18.5,14.7,18.2,14.3,17.5z"/>
	<path style="fill:#7D7D7D;" d="M6.9,8.9C6.2,8.6,5.3,8.5,4.8,7.7C5.2,8.7,6.1,8.6,6.9,8.9z"/>
	<path style="fill:#7D7D7D;" d="M6.6,9.4C5.8,9.1,4.9,9.1,4.3,8.4C4.7,9.4,5.7,9.2,6.6,9.4z"/>
	<path style="fill:#7D7D7D;" d="M6.8,10C6,9.8,5.1,9.6,4.2,9.5c0,0,0,0.1,0,0.1C5.1,9.8,5.9,9.9,6.8,10C6.8,10.1,6.8,10,6.8,10z"/>
	<path style="fill:#7D7D7D;" d="M6.9,7.2C6.7,7,6.6,6.8,6.4,6.6c0.3,1,1,1.3,1.8,1.5C8,7.9,7.7,7.8,7.5,7.7C7.3,7.5,7.1,7.4,6.9,7.2
		z"/>
	<path style="fill:#7D7D7D;" d="M7.2,8.3C6.7,8,6.1,7.7,5.7,7.4C5.9,8.1,6.6,8.1,7.2,8.3z"/>
	<path style="fill:#7D7D7D;" d="M5.3,10.4c0.7,0.1,1.3,0.2,2,0.3c0,0,0-0.1,0-0.1c-0.7-0.1-1.3-0.2-2-0.3
		C5.3,10.4,5.3,10.4,5.3,10.4z"/>
</g>
</svg>
