<?xml version="1.0" encoding="UTF-8"?>
<svg width="16px" height="16px" viewBox="0 0 16 16" version="1.1" xmlns="http://www.w3.org/2000/svg" xmlns:xlink="http://www.w3.org/1999/xlink">
    <!-- Generator: Sketch 47.1 (45422) - http://www.bohemiancoding.com/sketch -->
    <title>Instagram Icon</title>
    <desc>Casper on Instagram</desc>
    <g id="Symbols" stroke="none" stroke-width="1" fill-rule="evenodd">
        <g id="Component/globalFooter-1366" transform="translate(-965.000000, -212.000000)">
            <g id="Group-10" transform="translate(-12.000000, 0.000000)">
                <path d="M984.814927,214.18847 C986.780105,214.18847 987.012861,214.195949 987.788929,214.231357 C988.506508,214.264107 988.896207,214.384006 989.155578,214.484768 C989.499088,214.618281 989.74429,214.777795 990.00182,215.035326 C990.259351,215.292856 990.418865,215.538058 990.552348,215.881568 C990.65314,216.140939 990.773039,216.530638 990.805789,217.248188 C990.841197,218.024285 990.848676,218.257041 990.848676,220.222219 C990.848676,222.187397 990.841197,222.420153 990.805789,223.196221 C990.773039,223.9138 990.65314,224.3035 990.552348,224.562871 C990.418865,224.906381 990.259351,225.151582 990.00182,225.409113 C989.74429,225.666643 989.499088,225.826157 989.155578,225.959641 C988.896207,226.060433 988.506508,226.180331 987.788929,226.213081 C987.012978,226.24849 986.780221,226.255969 984.814927,226.255969 C982.849632,226.255969 982.616876,226.24849 981.840925,226.213081 C981.123346,226.180331 980.733646,226.060433 980.474305,225.959641 C980.130765,225.826157 979.885564,225.666643 979.628033,225.409113 C979.370503,225.151582 979.210989,224.906381 979.077505,224.562871 C978.976713,224.3035 978.856815,223.9138 978.824065,223.19625 C978.788656,222.420153 978.781177,222.187397 978.781177,220.222219 C978.781177,218.257041 978.788656,218.024285 978.824065,217.248217 C978.856815,216.530638 978.976713,216.140939 979.077505,215.881568 C979.210989,215.538058 979.370503,215.292856 979.628033,215.035326 C979.885564,214.777795 980.130765,214.618281 980.474305,214.484768 C980.733646,214.384006 981.123346,214.264107 981.840896,214.231357 C982.616993,214.195949 982.849749,214.18847 984.814927,214.18847 M984.814927,212.862341 C986.81376,212.862341 987.064396,212.870814 987.849374,212.906631 C988.632775,212.94239 989.167761,213.066788 989.635932,213.248739 C990.119908,213.436826 990.530349,213.688484 990.939506,214.09764 C991.348662,214.506797 991.60032,214.917238 991.788407,215.401214 C991.970358,215.869385 992.094756,216.404371 992.130515,217.187772 C992.166332,217.97275 992.174805,218.223386 992.174805,220.222219 C992.174805,222.221053 992.166332,222.471688 992.130515,223.256667 C992.094756,224.040068 991.970358,224.575053 991.788407,225.043224 C991.60032,225.5272 991.348662,225.937642 990.939506,226.346798 C990.530349,226.755955 990.119908,227.007613 989.635932,227.195699 C989.167761,227.37765 988.632775,227.502048 987.849374,227.537807 C987.064396,227.573625 986.81376,227.582068 984.814927,227.582068 C982.816093,227.582068 982.565487,227.573625 981.780479,227.537807 C980.997078,227.502048 980.462093,227.37765 979.993922,227.195699 C979.509946,227.007613 979.099504,226.755955 978.690348,226.346798 C978.281191,225.937642 978.029533,225.527171 977.841447,225.043224 C977.659496,224.575053 977.535098,224.040068 977.499339,223.256667 C977.463521,222.471688 977.455078,222.221053 977.455078,220.222219 C977.455078,218.223386 977.463521,217.97275 977.499339,217.187772 C977.535098,216.404371 977.659496,215.869385 977.841447,215.401214 C978.029533,214.917238 978.281191,214.506797 978.690348,214.09764 C979.099504,213.688484 979.509946,213.436826 979.993922,213.248739 C980.462093,213.066788 980.997078,212.94239 981.780479,212.906631 C982.565487,212.870814 982.816093,212.862341 984.814927,212.862341 Z M984.829544,216.454656 C982.740729,216.454656 981.047392,218.147992 981.047392,220.236807 C981.047392,222.325623 982.740729,224.018959 984.829544,224.018959 C986.91836,224.018959 988.611696,222.325623 988.611696,220.236807 C988.611696,218.147992 986.91836,216.454656 984.829544,216.454656 Z M984.829544,222.691895 C983.473653,222.691895 982.374457,221.592699 982.374457,220.236807 C982.374457,218.880916 983.473653,217.78172 984.829544,217.78172 C986.185435,217.78172 987.284632,218.880916 987.284632,220.236807 C987.284632,221.592699 986.185435,222.691895 984.829544,222.691895 Z M989.604694,216.279406 C989.604694,215.795504 989.212436,215.403246 988.728534,215.403246 C988.244632,215.403246 987.852345,215.795504 987.852345,216.279406 C987.852345,216.763308 988.244632,217.155595 988.728534,217.155595 C989.212436,217.155595 989.604694,216.763308 989.604694,216.279406 Z" id="Shape"></path>
            </g>
        </g>
    </g>
</svg>
