<svg version="1.1" id="klarna" xmlns="http://www.w3.org/2000/svg" xmlns:xlink="http://www.w3.org/1999/xlink" x="0px" y="0px"
	 width="82.2px" height="22px" viewBox="0 0 82.2 22" style="enable-background:new 0 0 82.2 22;" xml:space="preserve">
<title>Klarna Logo</title>
<desc>Klarna Logo</desc>
<g>
	<path d="M3.9,0C3,0,2.2,0,1.4,0C0.5,0,0,0.5,0,1.4v9.7c0,3.3,0,6.6,0,9.8c0,0.6,0.1,0.7,0.7,0.7
		c0.9,0,1.7,0,2.5,0c0.9,0,1.3-0.5,1.3-1.3V0.7C4.5,0.1,4.4,0,3.9,0z"/>
	<path d="M21.8,0H19c-0.7,0-0.7,0.1-0.7,0.8V21c0,0.6,0.1,0.7,0.7,0.7c0.9,0,1.8,0,2.7,0
		c0.8,0,0.9-0.1,0.9-0.9V3.6c0-1,0-1.9,0-2.8C22.5,0.1,22.4,0,21.8,0z"/>
	<path d="M33.8,5.7c-2.6-0.6-5.1-0.3-7.6,0.3c-0.3,0.1-0.4,0.3-0.4,0.6c0,0.6,0,1.1,0,1.7
		c0,0.8,0.1,0.8,0.9,0.8c1.6-0.1,3.3-0.2,4.9-0.2c1,0,1.6,0.5,1.7,1.4c0,0.3,0,0.6,0,0.8c0,1.1,0,1.1-1.1,1.1c-1.5,0-3,0-4.5,0.5
		c-1.5,0.5-2.6,1.3-2.9,3c-0.2,1-0.2,2.1,0.1,3.1c0.3,1.4,1.2,2.4,2.6,2.9c1.6,0.5,3.2,0.4,4.7-0.3c0.4-0.2,0.8-0.5,1.3-0.7
		c0,0.1,0,0.2,0,0.3c0,0.7,0.1,0.8,0.8,0.8c0.8,0,1.7,0,2.5,0c0.5,0,0.7-0.2,0.7-0.6c0-3.6,0-7.2-0.1-10.8
		C37.5,7.9,36.1,6.3,33.8,5.7z M32.9,18.4C32,18.7,31,18.9,30,18.8c-0.6-0.1-1.1-0.5-1.1-1.1c0-0.6,0-1.2,0.1-1.7
		c0.1-0.6,0.6-1,1.2-1.1c1-0.1,2-0.1,2.9-0.2c0.1,0,0.3,0.2,0.3,0.3c0,0.5,0,1,0,1.5c0,0.4,0,0.8,0,1.1C33.5,18,33.3,18.2,32.9,18.4
		z"/>
	<path d="M13.2,14.8c-1.8-1.9-4.1-3-6.5-3.2c-0.8,0-0.8,0-0.8,0.6c0,0.2,0,0.4,0.1,0.7
		c0.4,2.9,1.9,5.2,4.2,6.9c1.5,1.1,3.3,1.7,5.2,1.9c0.6,0.1,0.7,0,0.6-0.5C15.8,18.7,14.9,16.6,13.2,14.8z"/>
	<path d="M15.4,0.1c-0.2,0-0.4,0-0.7,0.1c-2.5,0.4-4.6,1.5-6.3,3.4C7,5.2,6.2,7.2,6,9.5c0,0.6,0,0.6,0.6,0.7
		C7.4,10,8.3,9.8,9.1,9.5c4.1-1.6,6.4-4.6,6.9-9C16.1,0,16,0,15.4,0.1z"/>
	<polygon points="80.1,4.6 80.5,4.6 80.5,5.6 80.6,5.6 80.6,4.6 81,4.6 81,4.5 80.1,4.5 	"/>
	<path d="M48.4,5.4c-1.2,0-2.3,0.4-3.3,1.2c-0.1,0.1-0.3,0.2-0.5,0.3c0-0.2,0-0.4,0-0.5
		c0-0.7-0.1-0.8-0.8-0.8c-0.9,0-1.7,0-2.5,0c-0.8,0-0.9,0.1-0.9,0.9V13c0,2.6,0,5.3,0,7.9c0,0.7,0.2,0.9,0.8,0.9c0.9,0,1.8,0,2.7,0
		c0.7,0,0.8-0.1,0.8-0.9c0-3.5,0-7,0-10.5c0-0.3,0.1-0.5,0.4-0.7c1.1-0.5,2.1-0.9,3.3-0.8c0.4,0,0.6-0.1,0.6-0.6c0-0.8,0-1.5,0-2.3
		C49,5.5,48.8,5.4,48.4,5.4z"/>
	<path d="M82.2,4.5H82L81.8,5c0,0.1-0.1,0.3-0.1,0.4c0-0.1-0.1-0.2-0.1-0.4l-0.2-0.5h-0.2l-0.1,1.1h0.1l0-0.5
		c0-0.2,0-0.4,0-0.5c0,0.1,0.1,0.3,0.1,0.4l0.2,0.5h0.1L81.9,5C81.9,4.9,82,4.7,82,4.6c0,0.1,0,0.3,0,0.5l0,0.5h0.1L82.2,4.5z"/>
	<path d="M64.2,8.8c-0.4-1.7-1.4-3-3.2-3.3c-2-0.4-3.9-0.1-5.6,1.1c-0.2,0.1-0.3,0.2-0.6,0.4
		c0-0.3,0-0.5,0-0.8c0-0.6-0.1-0.7-0.7-0.7c-0.9,0-1.8,0-2.6,0c-0.5,0-0.7,0.2-0.7,0.7c0,4.9,0,9.8,0,14.7c0,0.6,0.2,0.7,0.7,0.7
		c1,0,1.9,0,2.9,0c0.4,0,0.6-0.2,0.6-0.6c0-1,0-2,0-2.9c0-2.6,0-5.2,0-7.8c0-0.2,0.1-0.5,0.2-0.6c1.1-0.7,2.2-1.1,3.5-0.9
		c0.7,0.1,1.2,0.5,1.3,1.3c0.1,0.5,0.2,1,0.2,1.5c0,3.1,0,6.2,0,9.2c0,0.7,0.1,0.8,0.8,0.8c0.9,0,1.8,0,2.6,0c0.8,0,0.8-0.1,0.8-0.8
		c0-3.2,0-6.3,0-9.5C64.5,10.5,64.4,9.6,64.2,8.8z"/>
	<path d="M76.3,5.9c-0.8-0.2-1.6-0.4-2.4-0.5c-1.9-0.1-3.8,0.1-5.7,0.5c-0.4,0.1-0.6,0.3-0.6,0.7
		c0,0.5,0,1,0,1.6c0,0.8,0.1,0.9,0.9,0.9c1.6-0.1,3.2-0.2,4.8-0.2c1,0,1.6,0.5,1.8,1.6c0.1,0.5,0,0.9,0.1,1.4c0,0.3-0.1,0.4-0.4,0.4
		c-0.7,0-1.4-0.1-2,0c-1.2,0.1-2.3,0.3-3.4,0.6c-1.5,0.4-2.4,1.4-2.7,3c-0.1,0.6-0.1,1.3-0.1,2c0.1,2.6,2.2,4.4,4.8,4.2
		c1.3-0.1,2.6-0.4,3.7-1.2c0.1-0.1,0.2-0.1,0.3-0.1c0,0.1,0.1,0.1,0.1,0.1c0,0.1,0,0.2,0,0.2c0,0.7,0.1,0.7,0.8,0.7
		c0.8,0,1.6,0,2.4,0c0.7,0,0.7-0.1,0.7-0.7c0-3.3,0-6.5,0-9.8c0-0.5,0-1-0.1-1.5C79.1,7.8,78.1,6.5,76.3,5.9z M75.4,17.7
		c0,0.3-0.1,0.5-0.4,0.6c-1,0.4-2,0.7-3,0.5c-0.8-0.1-1.2-0.6-1.2-1.6c0-1.6,0.4-2.4,2.4-2.5c0.6,0,1.2,0,1.8,0
		c0.3,0,0.4,0.1,0.4,0.5c0,0.5,0,0.9,0,1.4C75.4,16.9,75.3,17.3,75.4,17.7z"/>
</g>
</svg>
