<?xml version="1.0" encoding="utf-8"?>
<!-- Generator: Adobe Illustrator 19.2.1, SVG Export Plug-In . SVG Version: 6.00 Build 0)  -->
<svg version="1.1" id="Layer_1" xmlns="http://www.w3.org/2000/svg" xmlns:xlink="http://www.w3.org/1999/xlink" x="0px" y="0px"
	 width="115px" height="23px" viewBox="0 0 115 23" style="enable-background:new 0 0 115 23;" xml:space="preserve">

<title>Klarna Logo</title>
<desc>Klarna Logo</desc>

<g>
	<path d="M39.5,0.4c-0.9,0-1.7,0-2.5,0c-0.9,0-1.4,0.5-1.4,1.4v9.7c0,3.3,0,6.6,0,9.8c0,0.6,0.1,0.7,0.7,0.7
		c0.9,0,1.7,0,2.5,0c0.9,0,1.3-0.5,1.3-1.3V1.1C40.1,0.5,40,0.4,39.5,0.4z"/>
	<path d="M57.4,0.4h-2.8c-0.7,0-0.7,0.1-0.7,0.8v20.2c0,0.6,0.1,0.7,0.7,0.7c0.9,0,1.8,0,2.7,0c0.8,0,0.9-0.1,0.9-0.9V4
		c0-1,0-1.9,0-2.8C58.1,0.5,58,0.4,57.4,0.4z"/>
	<path d="M69.4,6.1c-2.6-0.6-5.1-0.3-7.6,0.3c-0.3,0.1-0.4,0.3-0.4,0.6c0,0.6,0,1.1,0,1.7c0,0.8,0.1,0.8,0.9,0.8
		c1.6-0.1,3.3-0.2,4.9-0.2c1,0,1.6,0.5,1.7,1.4c0,0.3,0,0.6,0,0.8c0,1.1,0,1.1-1.1,1.1c-1.5,0-3,0-4.5,0.5s-2.6,1.3-2.9,3
		c-0.2,1-0.2,2.1,0.1,3.1c0.3,1.4,1.2,2.4,2.6,2.9c1.6,0.5,3.2,0.4,4.7-0.3c0.4-0.2,0.8-0.5,1.3-0.7c0,0.1,0,0.2,0,0.3
		c0,0.7,0.1,0.8,0.8,0.8c0.8,0,1.7,0,2.5,0c0.5,0,0.7-0.2,0.7-0.6c0-3.6,0-7.2-0.1-10.8C73.1,8.3,71.7,6.7,69.4,6.1z M68.5,18.8
		c-0.9,0.3-1.9,0.5-2.9,0.4c-0.6-0.1-1.1-0.5-1.1-1.1c0-0.6,0-1.2,0.1-1.7c0.1-0.6,0.6-1,1.2-1.1c1-0.1,2-0.1,2.9-0.2
		c0.1,0,0.3,0.2,0.3,0.3c0,0.5,0,1,0,1.5c0,0.4,0,0.8,0,1.1C69.1,18.4,68.9,18.6,68.5,18.8z"/>
	<path d="M48.8,15.2c-1.8-1.9-4.1-3-6.5-3.2c-0.8,0-0.8,0-0.8,0.6c0,0.2,0,0.4,0.1,0.7c0.4,2.9,1.9,5.2,4.2,6.9
		c1.5,1.1,3.3,1.7,5.2,1.9c0.6,0.1,0.7,0,0.6-0.5C51.4,19.1,50.5,17,48.8,15.2z"/>
	<path d="M51,0.5c-0.2,0-0.4,0-0.7,0.1C47.8,1,45.7,2.1,44,4c-1.4,1.6-2.2,3.6-2.4,5.9c0,0.6,0,0.6,0.6,0.7
		c0.8-0.2,1.7-0.4,2.5-0.7c4.1-1.6,6.4-4.6,6.9-9C51.7,0.4,51.6,0.4,51,0.5z"/>
	<path d="M84,5.8c-1.2,0-2.3,0.4-3.3,1.2c-0.1,0.1-0.3,0.2-0.5,0.3c0-0.2,0-0.4,0-0.5c0-0.7-0.1-0.8-0.8-0.8
		c-0.9,0-1.7,0-2.5,0S76,6.1,76,6.9v6.5c0,2.6,0,5.3,0,7.9c0,0.7,0.2,0.9,0.8,0.9c0.9,0,1.8,0,2.7,0c0.7,0,0.8-0.1,0.8-0.9
		c0-3.5,0-7,0-10.5c0-0.3,0.1-0.5,0.4-0.7c1.1-0.5,2.1-0.9,3.3-0.8c0.4,0,0.6-0.1,0.6-0.6c0-0.8,0-1.5,0-2.3
		C84.6,5.9,84.4,5.8,84,5.8z"/>
	<path d="M96.6,5.9c-2-0.4-3.9-0.1-5.6,1.1c-0.2,0.1-0.3,0.2-0.6,0.4c0-0.3,0-0.5,0-0.8c0-0.6-0.1-0.7-0.7-0.7
		c-0.9,0-1.8,0-2.6,0c-0.5,0-0.7,0.2-0.7,0.7c0,4.9,0,9.8,0,14.7c0,0.6,0.2,0.7,0.7,0.7c1,0,1.9,0,2.9,0c0.4,0,0.6-0.2,0.6-0.6
		c0-1,0-2,0-2.9c0-2.6,0-5.2,0-7.8c0-0.2,0.1-0.5,0.2-0.6C91.9,9.4,93,9,94.3,9.2c0.7,0.1,1.2,0.5,1.3,1.3c0.1,0.5,0.2,1,0.2,1.5
		c0,3.1,0,6.2,0,9.2c0,0.7,0.1,0.8,0.8,0.8c0.9,0,1.8,0,2.6,0c0.8,0,0.8-0.1,0.8-0.8c0-3.2,0-6.3,0-9.5c0.1-0.8,0-1.7-0.2-2.5
		C99.4,7.5,98.4,6.2,96.6,5.9z"/>
	<path d="M114.9,10.2c-0.2-2-1.2-3.3-3-3.9c-0.8-0.2-1.6-0.4-2.4-0.5c-1.9-0.1-3.8,0.1-5.7,0.5
		c-0.4,0.1-0.6,0.3-0.6,0.7c0,0.5,0,1,0,1.6c0,0.8,0.1,0.9,0.9,0.9c1.6-0.1,3.2-0.2,4.8-0.2c1,0,1.6,0.5,1.8,1.6
		c0.1,0.5,0,0.9,0.1,1.4c0,0.3-0.1,0.4-0.4,0.4c-0.7,0-1.4-0.1-2,0c-1.2,0.1-2.3,0.3-3.4,0.6c-1.5,0.4-2.4,1.4-2.7,3
		c-0.1,0.6-0.1,1.3-0.1,2c0.1,2.6,2.2,4.4,4.8,4.2c1.3-0.1,2.6-0.4,3.7-1.2c0.1-0.1,0.2-0.1,0.3-0.1c0,0.1,0.1,0.1,0.1,0.1
		c0,0.1,0,0.2,0,0.2c0,0.7,0.1,0.7,0.8,0.7c0.8,0,1.6,0,2.4,0c0.7,0,0.7-0.1,0.7-0.7c0-3.3,0-6.5,0-9.8
		C115,11.2,115,10.7,114.9,10.2z M111,17c0,0.3-0.1,0.7,0,1.1c0,0.3-0.1,0.5-0.4,0.6c-1,0.4-2,0.7-3,0.5c-0.8-0.1-1.2-0.6-1.2-1.6
		c0-1.6,0.4-2.4,2.4-2.5c0.6,0,1.2,0,1.8,0c0.3,0,0.4,0.1,0.4,0.5C111,16.1,111,16.5,111,17z"/>
</g>
</svg>
