<svg xmlns="http://www.w3.org/2000/svg" width="119.2" height="27" viewBox="0 0 119.2 27"><title>Kronen Zeitung</title><desc>Kronen Zeitung Logo</desc><path d="M74.8 13.2v-1c0-1 0-1-.1-1.2-.1-.2-.2-.3-.3-.3-.1 0-.3-.1-.4 0-.1 0-.3.1-.4.3-.1.2-.1.4-.1 1.4v.9H74.8zM43.5 13.2v-.9c0-.8 0-1-.1-1.1-.1-.4-.3-.5-.6-.5h-.3l-.3.3c-.1.2-.1.5-.1 1.3v.9h1.4zM25.8 11.2l-.1-.2c-.1-.2-.2-.3-.4-.3H25c-.2.1-.4.3-.5.6v7.2c.1.5.2.6.6.6.4 0 .5-.1.6-.5v-3.8l.1-3.6z"/><path d="M0 0v27h119.2V0H0zm79.1 4.6c.2-.3.4-.7.7-.8.3-.2.5-.2.8-.1.8.1 1.4 1.1 1.3 2-.2 1.2-1.2 1.9-2.2 1.4-.7-.5-1-1.6-.6-2.5zM13.8 21.4c-1.5 0-1.6 0-1.6-.1 0 0-.4-2-.8-4.3s-.8-4.3-.8-4.3h-.1c-.1 0-.1.1-.1 4.3v4.3H7V4.6h3.4v7.6h.1c.1 0 .1-.2.7-3.8l.7-3.8h3.2v.1s-.4 1.8-.9 3.8l-.8 3.8.3 1.6c.2.9.6 2.9 1 4.6.4 1.6.6 3 .6 3 .1-.1-.2-.1-1.5-.1zm6.9-11.2v1.9c-.4-.4-.5-.4-.7-.4-.4 0-.6.3-.7.8v8.9h-3.2V8.3h2.8v.8l.1-.2c.4-.6.6-.8 1.1-.8.2 0 .3 0 .4.1l.2.1v1.9zm8.3 8.3c-.2 1.2-.8 2.1-1.8 2.7-1 .6-2.6.6-3.7.2-.9-.4-1.6-1.1-1.9-2.1-.2-.7-.2-1.1-.2-4.5 0-2.8 0-3.2.1-3.7.2-1.3 1-2.3 2.1-2.7.3-.1.7-.2.9-.2h1.3c.9.1 1.7.5 2.2 1 .6.6.9 1.4 1 2.5.1.4 0 6.6 0 6.8zm7.2 2.9h-1.6v-5.1V11c0-.3-.1-.5-.3-.6-.2-.1-.5-.1-.8.2l-.1.2v10.6h-3.2V8.3h3.2v.8l.2-.3c.4-.4.7-.6 1.2-.7.3-.1 1-.1 1.3 0 .4.1.7.3 1 .6.4.4.6.9.8 1.5v11.2h-1.7zm6.1-2.6c.1.2.4.3.7.2.2 0 .3-.1.4-.3.1-.2.1-.6.1-1.3v-.5h3.1v1c-.2 2.1-1 3.2-2.6 3.6-.6.1-1.6.2-2.2 0-1.6-.3-2.6-1.3-2.9-3.1l-.1-.4v-3.3c0-3.5 0-3.4.1-4 .2-.7.4-1.2.9-1.7.6-.6 1.3-1 2.3-1.1.4-.1 1.2 0 1.5 0 1.5.3 2.5 1.3 2.8 2.7.1.3.1.4.1 2.5v2.2h-4.6V17c.3 1.4.3 1.6.4 1.8zm11.6 2.6h-1.6v-5.3c0-5.9 0-5.4-.2-5.7-.2-.2-.6-.2-.9.1l-.2.3v10.6h-3.2V8.3H51v.8l.2-.3c.4-.4.8-.6 1.2-.7.2 0 .7-.1 1 0 1 .2 1.8 1 2 2.2 0 .2 0 .9.1 5.7v5.4h-1.6zm15.5-1.7v1.8h-5.8v-.1s.4-3.1.9-6.7c.5-3.7 1-6.7 1-6.7h-1.8V4.6h5.8v.1s-.4 3-.9 6.6c-.5 3.6-.9 6.6-1 6.6v.1h2v1.7zm8.3-.9c-.4 2-1.6 2.9-3.7 2.8-.7 0-1.2-.1-1.8-.4-1.1-.6-1.7-1.6-1.8-3.3v-3.4c0-3.2 0-3.1.1-3.7.2-.8.6-1.5 1.2-2 .5-.4 1.2-.7 1.9-.8h1.2c.8.1 1.5.5 2.1 1 .4.4.6.8.8 1.3.2.5.2.6.2 3v2.2h-4.4V17c0 1.5 0 1.5.1 1.6.1.2.2.3.4.3s.5 0 .6-.1c.2-.1.3-.5.2-1.5v-.5H78v.2c-.1.4-.1 1.2-.3 1.8zm4.3-3.9v6.6h-3.2V8.3H82v6.6zm5.2-5.3v1.3h-.8v10.6h-3.2V10.9H82.6V8.3h.8V7 5.7h3.1v2.6h.8v1.3zm8.1 3.8c0 5.6 0 5.2-.2 5.9-.5 1.6-1.8 2.5-3.7 2.4-.7 0-1.2-.1-1.7-.4-1-.5-1.7-1.5-1.8-2.9V8.3h3.2v5.1c0 5.7 0 5.2.2 5.4.2.2.5.2.7.1.1-.1.3-.3.3-.4V8.2h3.2l-.2 5.2zm6.9 8h-1.6v-5.3c0-5 0-5.3-.1-5.4-.1-.2-.3-.4-.5-.4s-.3.1-.5.3l-.2.2v10.6h-3.2V8.3h3.2v.8l.2-.2c.4-.4.7-.6 1.1-.7.3-.1 1-.1 1.2 0 .7.2 1.3.8 1.6 1.6.2.5.2.2.2 6.2v5.5h-1.4zm10.1-7.1v6.2c0 .4-.1.7-.3 1-.4.9-1.1 1.6-2.2 1.9-.6.2-1.2.3-2 .3-1 0-1.6-.1-2.4-.5-.5-.2-.8-.4-.8-.5 0 0 .8-1.7.9-1.7 0 0 .3.1.6.3.8.3.9.4 1.3.4s.6 0 1-.2c.6-.3.8-.7.7-1.5v-.3l-.1.1c-.5.7-1.1 1-1.8 1-1.1 0-2.1-.8-2.4-2.1-.1-.5-.1-.7-.1-4.3 0-3.7 0-3.6.2-4.3.3-1.1.9-1.8 1.8-2h1c.3.1.7.3.9.5l.4.4.1.2v-1h3.2v6.1z"/><path d="M108.2 10.2c-.1.1-.2.2-.3.4v7.6l.1.2c.1.3.3.4.6.3.2-.1.4-.2.4-.3l.1-.1v-3.8c0-3.6 0-3.8-.1-3.9 0-.3-.5-.5-.8-.4z"/></svg>