<svg xmlns="http://www.w3.org/2000/svg" width="119.2" height="27" viewBox="0 0 119.2 27"><path fill="#7D7D7D" d="M0 0h119.2v27H0z"/><g fill="#FFF"><title>Kronen Zeitung</title><desc>Kronen Zeitung Logo</desc><path d="M9.9 21.1v-4.2c0-4.1 0-4.2.1-4.2h.1s.4 1.9.8 4.1c.4 2.3.8 4.1.8 4.1s.1.1 1.7.1H15s-.3-1.3-.7-2.9c-.4-1.6-.8-3.6-1-4.4l-.3-1.5.9-3.6c.5-2 .9-3.7.9-3.7v-.1h-3.5l-.7 3.7c-.5 3.5-.6 3.7-.6 3.7h-.1V4.8H6.4v16.4h3.5zM33.4 21.1V10.8l.2-.1c.3-.3.6-.3.8-.2.2.1.3.3.3.6V21.2h3.4v-5.3-5.5c-.1-.6-.4-1.1-.8-1.4-.3-.3-.6-.5-1-.6-.3-.1-1-.1-1.3 0-.5.1-.8.3-1.2.7l-.2.2v-.9h-3.4v12.8h3.2zM18.9 21.1v-4.2-4.4c.1-.5.3-.8.7-.8.2 0 .3.1.8.4V8.4l-.2-.1c-.2-.1-.2-.1-.5-.1-.4 0-.7.2-1.1.8l-.2.3v-.9h-2.9v12.8h3.4zM51.5 21.1V10.8l.2-.2c.3-.3.7-.4.9-.1.2.2.2-.3.2 5.5v5.1h3.4v-5.3c0-4.6 0-5.3-.1-5.5-.2-1.1-1-2-2.1-2.1h-1c-.5.1-.9.3-1.2.7l-.2.2v-.7h-3.4v12.8h3.3zM29 18.3c.1-.3.1-6.3 0-6.7-.1-1-.4-1.8-1-2.4-.6-.6-1.3-.9-2.3-1h-1.4c-.3 0-.7.1-1 .2-1.2.4-2 1.4-2.2 2.7 0 .5-.1.9-.1 3.6 0 3.3 0 3.7.2 4.4.3.9 1 1.7 2 2 1.2.4 2.8.4 3.8-.2 1.1-.5 1.8-1.4 2-2.6zm-3.3.1c-.1.4-.2.5-.6.5-.4 0-.6-.1-.7-.6v-6.9c.1-.3.2-.5.5-.6h.4c.2 0 .3.1.4.3l.1.2v3.5c-.1 2.1-.1 3.5-.1 3.6zM45.4 16.8h-1.7v.5c0 .7 0 1.1-.1 1.3-.1.2-.2.2-.4.2-.3.1-.6 0-.7-.2-.1-.2-.1-.4-.1-1.8v-1.3H47v-2.2c0-2.1 0-2.2-.1-2.4-.3-1.3-1.4-2.3-2.9-2.6-.4-.1-1.2-.1-1.6 0-1 .1-1.8.5-2.3 1.1-.5.5-.7 1-.9 1.6-.1.6-.1.5-.1 3.8V18l.1.4c.3 1.7 1.3 2.7 2.9 3 .6.1 1.6.1 2.3 0 1.6-.3 2.4-1.4 2.6-3.5 0-.4.1-.9 0-1 .1-.1-.5-.1-1.6-.1zm-2.9-4.5c0-.9 0-1.1.1-1.3.1-.1.2-.3.3-.3h.3c.4 0 .5.1.6.5 0 .1 0 .3.1 1.1v.9h-1.4v-.9z"/><g><path d="M81.8 5.8c.1-.9-.5-1.8-1.3-1.9-.3-.1-.5 0-.9.1-.3.1-.6.4-.8.8-.4.9-.1 1.9.7 2.4 1 .4 2.1-.3 2.3-1.4zM66.9 17.7c0-.1.5-3 1-6.5s1-6.3 1-6.4v-.1h-6v3.4h2s-.4 2.9-.9 6.4c-.5 3.5-.9 6.5-.9 6.5v.1h6v-3.4h-2.2zM78.7 8.4v12.7h3.1V8.4h-1.5M104 9.8c-.3-.8-.9-1.3-1.6-1.6-.3-.1-1-.1-1.3 0-.4.1-.8.3-1.1.7l-.2.2v-.7h-3.2v12.8h3.2V10.8l.2-.2c.2-.2.4-.3.5-.3.2 0 .4.1.5.3 0 .1.1.4.1 5.2v5.1h3.2v-5.3c-.1-5.6-.1-5.3-.3-5.8zM111.3 8.4h-1.6v1l-.1-.2-.4-.4c-.3-.3-.6-.4-1-.5-.2 0-.8-.1-1 0-.9.2-1.5.9-1.8 1.9-.2.6-.2.5-.2 4.2 0 3.5 0 3.7.1 4.2.3 1.2 1.3 2 2.4 2 .7 0 1.3-.3 1.9-1l.1-.1v.3c.1.8-.1 1.1-.7 1.4-.3.2-.6.2-1 .2s-.6 0-1.3-.4c-.4-.1-.7-.3-.7-.2 0 0-.9 1.6-.9 1.7 0 0 .3.2.8.5.8.4 1.4.5 2.4.5.8 0 1.4-.1 2-.3 1.1-.3 1.8-1 2.2-1.9.1-.3.2-.6.3-1V8.4h-1.5zm-1.6 9.6c-.2.2-.3.3-.5.4-.3.1-.5 0-.7-.3l-.1-.2v-3.6-3.7c.1-.2.2-.4.3-.4.3-.1.7.1.9.4.1.1.1.3.1 3.8V18zM92.3 8.4v9.9c0 .1-.2.3-.3.4-.2.1-.5 0-.7-.1-.3-.1-.3.3-.3-5.2v-5h-3.2v9.7c.2 1.4.8 2.3 1.9 2.9.5.3 1 .4 1.7.4 1.9.1 3.3-.8 3.8-2.3.2-.6.2-.3.2-5.7V8.5h-3.1zM86.4 8.4V5.8h-3.2v2.6h-.8v2.4h.8V21h3.2V10.9h.8V8.4h-.8zM77.6 16.9v-.2h-3.2v.5c0 .9 0 1.3-.2 1.4-.1.1-.4.1-.6.1-.2 0-.3-.1-.4-.3-.1-.1-.1-.2-.1-1.6v-1.5h4.4v-2.1c0-2.3 0-2.4-.2-2.9 0-.3-.3-.7-.7-1.1-.6-.6-1.3-.9-2.1-1-.3 0-.9-.1-1.3 0-.7.1-1.4.4-1.9.8-.6.5-1 1.1-1.2 1.9-.1.5-.1.5-.1 3.5v3.3c.1 1.6.7 2.6 1.9 3.2.5.3 1 .4 1.8.4 2.2.1 3.4-.8 3.8-2.8.1-.5.1-1.3.1-1.6zm-4.5-4.6c0-.9 0-1.2.1-1.3.1-.1.2-.2.4-.3h.4c.1 0 .2.2.3.3.1.2.1.2.1 1.1v1H73v-.8z"/></g></g></svg>