<svg xmlns="http://www.w3.org/2000/svg" viewBox="0 0 648.5 229.9" id="labs-logo" ><desc>Casper labs logo</desc><path fill="#FFF" d="M459.9 64.9L429 9.1h-86l.8 211.2 85.8-.2v-3l28.9-52.5-28.5-49 29.9-50.7zm-38.5-45.5l26.5 45.3-26 44.5H355V19.4h66.4zm-66.4 100h65.1l27.3 46.8-25.5 43.7H355v-90.5z"/><g fill="#00237E"><path d="M462.7 64.8l-33.5-58h-87.7v216.4h87.7l33.5-58-29-50.2 29-50.2zm-4.6 100.3l-31.2 54h-81.4V10.7h81.4l31.2 54-29 50.2 29 50.2z"/><path d="M353.1 118.8v92.7h69.3l26.8-46.3-26.8-46.3h-69.3zm67 88.7h-63v-84.7h63l24.4 42.3-24.4 42.4zM449.2 64.8l-26.8-46.3h-69.3v92.7h69.3l26.8-46.4zm-92.1 42.3V22.4h63l24.4 42.3-24.4 42.3h-63z"/></g><path fill="#00237E" d="M22.4 207.5V12.6H6.7v210.5h94.2v-15.6z"/><path fill="#FFF" d="M96.9 219.1H10.7V16.6h7.7v194.9h78.5z"/><path fill="#00237E" d="M230.7 5.9c-1-3.4-4.1-5.7-7.5-5.7-3.5 0-6.6 2.3-7.5 5.7l-58.5 206 15.1 4.3 50.9-179.5 50.9 179.5 15.1-4.3-58.5-206z"/><path fill="#FFF" d="M223.2 22l-53.7 189.2-7.4-2.1L219.5 7c.5-1.6 2-2.8 3.7-2.8 1.7 0 3.2 1.1 3.7 2.8l57.4 202.2-7.4 2.1L223.2 22z"/><path fill="#00237E" d="M178.4 157.3H268V173h-89.6z"/><path fill="#FFF" d="M182.4 161.3H264v7.7h-81.6z"/><path fill="#00237E" d="M609.5 107.1h-57.9l-24.5-42.3 24.5-42.4h48.8l27.8 48 13.5-7.8-32.2-55.9h-67L509 64.8l33.5 58h57.9l24.5 42.3-24.5 42.4h-48.8l-27.8-48-13.5 7.8 32.2 55.8h67l33.5-58z"/><path fill="#FFF" d="M607.2 219.1h-62.4l-29.1-50.3 6.7-3.9 26.8 46.6h53.6l26.7-46.4-26.7-46.3h-58l-31.2-54 31.2-54.1h62.4l29.1 50.4-6.7 3.8-26.8-46.5h-53.6l-26.7 46.4 26.7 46.3h58l31.2 54z"/><circle fill="#A6D7F4" cx="14.6" cy="14.6" r="12.6"/><path fill="#00237E" d="M14.6 0C6.5 0 0 6.5 0 14.6c0 8 6.5 14.6 14.6 14.6 8 0 14.6-6.5 14.6-14.6S22.6 0 14.6 0zm0 25.2C8.7 25.2 4 20.4 4 14.6 4 8.7 8.7 4 14.6 4c5.8 0 10.6 4.7 10.6 10.6 0 5.8-4.8 10.6-10.6 10.6z"/><circle fill="#A6D7F4" cx="267.7" cy="165.1" r="12.6"/><path fill="#00237E" d="M267.7 150.5c-8 0-14.6 6.5-14.6 14.6s6.5 14.6 14.6 14.6c8 0 14.6-6.5 14.6-14.6s-6.6-14.6-14.6-14.6zm0 25.2c-5.8 0-10.6-4.7-10.6-10.6s4.7-10.6 10.6-10.6c5.8 0 10.6 4.7 10.6 10.6s-4.8 10.6-10.6 10.6z"/><circle fill="#F9AB92" cx="424.7" cy="14.6" r="12.6"/><path fill="#00237E" d="M424.7 0c-8 0-14.6 6.5-14.6 14.6 0 8 6.5 14.6 14.6 14.6 8 0 14.6-6.5 14.6-14.6-.1-8.1-6.6-14.6-14.6-14.6zm0 25.2c-5.8 0-10.6-4.7-10.6-10.6 0-5.8 4.7-10.6 10.6-10.6 5.8 0 10.6 4.7 10.6 10.6-.1 5.8-4.8 10.6-10.6 10.6z"/><circle fill="#F9AB92" cx="633.9" cy="64.8" r="12.6"/><path fill="#00237E" d="M633.9 50.2c-8 0-14.6 6.5-14.6 14.6s6.5 14.6 14.6 14.6c8 0 14.6-6.5 14.6-14.6s-6.5-14.6-14.6-14.6zm0 25.1c-5.8 0-10.6-4.7-10.6-10.6s4.7-10.6 10.6-10.6c5.8 0 10.6 4.7 10.6 10.6s-4.7 10.6-10.6 10.6z"/><circle fill="#F9AB92" cx="633.9" cy="165.1" r="12.6"/><path fill="#00237E" d="M633.9 150.5c-8 0-14.6 6.5-14.6 14.6s6.5 14.6 14.6 14.6c8 0 14.6-6.5 14.6-14.6s-6.5-14.6-14.6-14.6zm0 25.2c-5.8 0-10.6-4.7-10.6-10.6s4.7-10.6 10.6-10.6c5.8 0 10.6 4.7 10.6 10.6s-4.7 10.6-10.6 10.6z"/><circle fill="#F9AB92" cx="518.1" cy="165.1" r="12.6"/><path fill="#00237E" d="M518.1 150.5c-8 0-14.6 6.5-14.6 14.6s6.5 14.6 14.6 14.6c8 0 14.6-6.5 14.6-14.6s-6.6-14.6-14.6-14.6zm0 25.2c-5.8 0-10.6-4.7-10.6-10.6s4.7-10.6 10.6-10.6c5.8 0 10.6 4.7 10.6 10.6s-4.8 10.6-10.6 10.6z"/><circle fill="#F9AB92" cx="518.1" cy="64.8" r="12.6"/><path fill="#00237E" d="M518.1 50.2c-8 0-14.6 6.5-14.6 14.6s6.5 14.6 14.6 14.6c8 0 14.6-6.5 14.6-14.6s-6.6-14.6-14.6-14.6zm0 25.1c-5.8 0-10.6-4.7-10.6-10.6s4.7-10.6 10.6-10.6c5.8 0 10.6 4.7 10.6 10.6s-4.8 10.6-10.6 10.6z"/><circle fill="#A6D7F4" cx="453.6" cy="64.8" r="12.6"/><path fill="#00237E" d="M453.6 50.2c-8 0-14.6 6.5-14.6 14.6s6.5 14.6 14.6 14.6c8 0 14.6-6.5 14.6-14.6s-6.5-14.6-14.6-14.6zm0 25.1c-5.8 0-10.6-4.7-10.6-10.6s4.7-10.6 10.6-10.6c5.8 0 10.6 4.7 10.6 10.6s-4.7 10.6-10.6 10.6z"/><circle fill="#A6D7F4" cx="547" cy="14.6" r="12.6"/><path fill="#00237E" d="M547 0c-8 0-14.6 6.5-14.6 14.6 0 8 6.5 14.6 14.6 14.6 8 0 14.6-6.5 14.6-14.6S555.1 0 547 0zm0 25.2c-5.8 0-10.6-4.7-10.6-10.6C536.4 8.7 541.2 4 547 4s10.6 4.7 10.6 10.6c0 5.8-4.7 10.6-10.6 10.6z"/><circle fill="#A6D7F4" cx="605" cy="114.9" r="12.6"/><path fill="#00237E" d="M605 100.4c-8 0-14.6 6.5-14.6 14.6s6.5 14.6 14.6 14.6c8 0 14.6-6.5 14.6-14.6s-6.6-14.6-14.6-14.6zm0 25.1c-5.8 0-10.6-4.7-10.6-10.6 0-5.8 4.7-10.6 10.6-10.6 5.8 0 10.6 4.7 10.6 10.6-.1 5.9-4.8 10.6-10.6 10.6z"/><circle fill="#A6D7F4" cx="605" cy="215.3" r="12.6"/><path fill="#00237E" d="M605 200.7c-8 0-14.6 6.5-14.6 14.6s6.5 14.6 14.6 14.6c8 0 14.6-6.5 14.6-14.6s-6.6-14.6-14.6-14.6zm0 25.2c-5.8 0-10.6-4.7-10.6-10.6s4.7-10.6 10.6-10.6c5.8 0 10.6 4.7 10.6 10.6s-4.8 10.6-10.6 10.6z"/><circle fill="#F9AB92" cx="424.7" cy="114.9" r="12.6"/><path fill="#00237E" d="M424.7 100.4c-8 0-14.6 6.5-14.6 14.6s6.5 14.6 14.6 14.6c8 0 14.6-6.5 14.6-14.6s-6.6-14.6-14.6-14.6zm0 25.1c-5.8 0-10.6-4.7-10.6-10.6 0-5.8 4.7-10.6 10.6-10.6 5.8 0 10.6 4.7 10.6 10.6-.1 5.9-4.8 10.6-10.6 10.6z"/><circle fill="#FFD468" cx="547" cy="114.9" r="12.6"/><path fill="#00237E" d="M547 100.4c-8 0-14.6 6.5-14.6 14.6s6.5 14.6 14.6 14.6c8 0 14.6-6.5 14.6-14.6s-6.5-14.6-14.6-14.6zm0 25.1c-5.8 0-10.6-4.7-10.6-10.6 0-5.8 4.7-10.6 10.6-10.6 5.8 0 10.6 4.7 10.6 10.6 0 5.9-4.7 10.6-10.6 10.6z"/><circle fill="#FFD468" cx="547" cy="215.3" r="12.6"/><path fill="#00237E" d="M547 200.7c-8 0-14.6 6.5-14.6 14.6s6.5 14.6 14.6 14.6c8 0 14.6-6.5 14.6-14.6s-6.5-14.6-14.6-14.6zm0 25.2c-5.8 0-10.6-4.7-10.6-10.6s4.7-10.6 10.6-10.6c5.8 0 10.6 4.7 10.6 10.6s-4.7 10.6-10.6 10.6z"/><circle fill="#FFD468" cx="605" cy="14.6" r="12.6"/><path fill="#00237E" d="M605 0c-8 0-14.6 6.5-14.6 14.6 0 8 6.5 14.6 14.6 14.6 8 0 14.6-6.5 14.6-14.6C619.5 6.5 613 0 605 0zm0 25.2c-5.8 0-10.6-4.7-10.6-10.6C594.4 8.7 599.1 4 605 4c5.8 0 10.6 4.7 10.6 10.6-.1 5.8-4.8 10.6-10.6 10.6z"/><circle fill="#A6D7F4" cx="349.3" cy="114.9" r="12.6"/><path fill="#00237E" d="M349.3 100.4c-8 0-14.6 6.5-14.6 14.6s6.5 14.6 14.6 14.6c8 0 14.6-6.5 14.6-14.6s-6.6-14.6-14.6-14.6zm0 25.1c-5.8 0-10.6-4.7-10.6-10.6 0-5.8 4.7-10.6 10.6-10.6 5.8 0 10.6 4.7 10.6 10.6 0 5.9-4.8 10.6-10.6 10.6z"/><circle fill="#FFD468" cx="349.3" cy="215.3" r="12.6"/><path fill="#00237E" d="M349.3 200.7c-8 0-14.6 6.5-14.6 14.6s6.5 14.6 14.6 14.6c8 0 14.6-6.5 14.6-14.6s-6.6-14.6-14.6-14.6zm0 25.2c-5.8 0-10.6-4.7-10.6-10.6s4.7-10.6 10.6-10.6c5.8 0 10.6 4.7 10.6 10.6s-4.8 10.6-10.6 10.6z"/><circle fill="#F9AB92" cx="424.7" cy="215.3" r="12.6"/><path fill="#00237E" d="M424.7 200.7c-8 0-14.6 6.5-14.6 14.6s6.5 14.6 14.6 14.6c8 0 14.6-6.5 14.6-14.6s-6.6-14.6-14.6-14.6zm0 25.2c-5.8 0-10.6-4.7-10.6-10.6s4.7-10.6 10.6-10.6c5.8 0 10.6 4.7 10.6 10.6s-4.8 10.6-10.6 10.6z"/><circle fill="#FFD468" cx="453.6" cy="165.1" r="12.6"/><path fill="#00237E" d="M453.6 150.5c-8 0-14.6 6.5-14.6 14.6s6.5 14.6 14.6 14.6c8 0 14.6-6.5 14.6-14.6s-6.5-14.6-14.6-14.6zm0 25.2c-5.8 0-10.6-4.7-10.6-10.6s4.7-10.6 10.6-10.6c5.8 0 10.6 4.7 10.6 10.6s-4.7 10.6-10.6 10.6z"/><circle fill="#F9AB92" cx="14.6" cy="114.9" r="12.6"/><path fill="#00237E" d="M14.6 100.4c-8 0-14.6 6.5-14.6 14.6s6.5 14.6 14.6 14.6c8 0 14.6-6.5 14.6-14.6s-6.6-14.6-14.6-14.6zm0 25.1c-5.8 0-10.6-4.7-10.6-10.6 0-5.8 4.7-10.6 10.6-10.6 5.8 0 10.6 4.7 10.6 10.6 0 5.9-4.8 10.6-10.6 10.6z"/><circle fill="#FFD468" cx="349.3" cy="14.6" r="12.6"/><path fill="#00237E" d="M349.3 0c-8 0-14.6 6.5-14.6 14.6 0 8 6.5 14.6 14.6 14.6 8 0 14.6-6.5 14.6-14.6S357.3 0 349.3 0zm0 25.2c-5.8 0-10.6-4.7-10.6-10.6 0-5.8 4.7-10.6 10.6-10.6 5.8 0 10.6 4.7 10.6 10.6 0 5.8-4.8 10.6-10.6 10.6z"/><circle fill="#FFD468" cx="14.6" cy="215.3" r="12.6"/><path fill="#00237E" d="M14.6 200.7c-8 0-14.6 6.5-14.6 14.6 0 8 6.5 14.6 14.6 14.6s14.6-6.5 14.6-14.6c0-8-6.6-14.6-14.6-14.6zm0 25.2c-5.8 0-10.6-4.7-10.6-10.6 0-5.8 4.7-10.6 10.6-10.6s10.6 4.7 10.6 10.6c0 5.8-4.8 10.6-10.6 10.6z"/><circle fill="#F9AB92" cx="223.2" cy="14.6" r="12.6"/><path fill="#00237E" d="M223.2 0c-8 0-14.6 6.5-14.6 14.6 0 8 6.5 14.6 14.6 14.6s14.6-6.5 14.6-14.6C237.7 6.5 231.2 0 223.2 0zm0 25.2c-5.8 0-10.6-4.7-10.6-10.6 0-5.8 4.7-10.6 10.6-10.6s10.6 4.7 10.6 10.6c-.1 5.8-4.8 10.6-10.6 10.6z"/><circle fill="#A6D7F4" cx="164.3" cy="215.3" r="12.6"/><path fill="#00237E" d="M164.3 200.7c-8 0-14.6 6.5-14.6 14.6 0 8 6.5 14.6 14.6 14.6 8 0 14.6-6.5 14.6-14.6 0-8-6.5-14.6-14.6-14.6zm0 25.2c-5.8 0-10.6-4.7-10.6-10.6 0-5.8 4.7-10.6 10.6-10.6 5.8 0 10.6 4.7 10.6 10.6 0 5.8-4.7 10.6-10.6 10.6z"/><circle fill="#F9AB92" cx="98.8" cy="215.3" r="12.6"/><path fill="#00237E" d="M98.9 200.7c-8 0-14.6 6.5-14.6 14.6s6.5 14.6 14.6 14.6c8 0 14.6-6.5 14.6-14.6s-6.6-14.6-14.6-14.6zm0 25.2c-5.8 0-10.6-4.7-10.6-10.6s4.7-10.6 10.6-10.6c5.8 0 10.6 4.7 10.6 10.6s-4.8 10.6-10.6 10.6z"/><circle fill="#F9AB92" cx="282.7" cy="215.3" r="12.6"/><path fill="#00237E" d="M282.7 200.7c-8 0-14.6 6.5-14.6 14.6s6.5 14.6 14.6 14.6c8 0 14.6-6.5 14.6-14.6s-6.5-14.6-14.6-14.6zm0 25.2c-5.8 0-10.6-4.7-10.6-10.6s4.7-10.6 10.6-10.6c5.8 0 10.6 4.7 10.6 10.6s-4.7 10.6-10.6 10.6z"/><circle fill="#FFD468" cx="179.1" cy="165.1" r="12.6"/><path fill="#00237E" d="M179.1 150.5c-8 0-14.6 6.5-14.6 14.6s6.5 14.6 14.6 14.6c8 0 14.6-6.5 14.6-14.6s-6.6-14.6-14.6-14.6zm0 25.2c-5.8 0-10.6-4.7-10.6-10.6s4.7-10.6 10.6-10.6c5.8 0 10.6 4.7 10.6 10.6s-4.8 10.6-10.6 10.6z"/></svg>
