<?xml version="1.0" encoding="utf-8"?>
<!-- Generator: Adobe Illustrator 21.0.2, SVG Export Plug-In . SVG Version: 6.00 Build 0)  -->
<svg version="1.1" id="Calque_1" xmlns="http://www.w3.org/2000/svg" xmlns:xlink="http://www.w3.org/1999/xlink" x="0px" y="0px"
	 viewBox="0 0 141.7 33.2" style="enable-background:new 0 0 141.7 33.2;" xml:space="preserve">
<title>Les Echos Logo</title><desc>Les Echos Logo</desc>
<g>
	<path class="st0" d="M92.2,3.9v22.7h4.6V21c0-5.2,1.9-8.6,4-8.6c1.4,0,2.2,0.9,2.2,2.8v9.4c0,1.6,0.9,2.3,2.6,2.3
		c1,0,2.7-0.1,4.7-0.4v-1.4c-2.4-0.6-2.7-0.7-2.7-2.3v-8.5c0-3.5-1.9-5.3-4.5-5.3c-3,0-5.1,2-6.2,4.9h-0.1c0-0.8,0-12.1,0.2-13.6
		h-7.1v1.4C92.1,2.5,92.2,2.5,92.2,3.9z"/>
	<path class="st0" d="M84,27c2.9,0,5.4-1.6,7-3.8l-0.8-0.9c-1.3,1.3-2.8,1.9-4.5,1.9c-3.1,0-5-2.7-5-6.5c0-3.9,1.1-7.1,3.9-7.1
		c2.7,0,2.4,2.5,1.8,4.1l0.4,0.6c2.5,0.4,3.4-1,3.4-2.4c0-1.7-1.8-3.8-5.7-3.8c-5,0-8.8,4-8.8,9.2C75.9,23.6,79.3,27,84,27z"/>
	<path class="st0" d="M131.3,21.3c-1.7-0.4-3.1,0.8-3.1,2.2c0,1.8,1.6,3.5,5.8,3.5c5.3,0,7.5-2.2,7.5-5.4c0-3.1-2.5-4.6-5.6-5.6
		c-2-0.7-3.7-1.5-3.7-3.1c0-1.3,1.1-2.4,2.7-2.4c2.7,0,3.4,2,2.1,3.6l0.4,0.6c2,0.4,3.2-0.8,3.2-2.2c0-1.6-1.8-3.5-5.8-3.5
		c-3.8,0-6.2,2.4-6.2,5.2c0,2.8,1.8,4.3,4.9,5.5c2.2,0.9,3.6,1.6,3.6,3.3c0,1.5-1.2,2.4-3,2.4c-2.8,0-3.6-1.7-2.5-3.6L131.3,21.3z"
		/>
	<path class="st0" d="M118.2,27c5.6,0,9.2-3.8,9.2-9.5c0-5.1-3.5-8.4-8.4-8.4c-5.6,0-9.2,3.8-9.2,9.5C109.8,23.7,113.2,27,118.2,27z
		 M118.6,10.6c3.3,0,3.9,3.8,3.9,7.7c0,3.6-0.8,7.2-3.9,7.2c-3.2,0-3.9-3.8-3.9-7.7C114.6,14.1,115.5,10.6,118.6,10.6z"/>
	<path class="st0" d="M20.9,20.3l-1.4-0.4l-0.9,1.9c-0.9,2-2.2,3.1-5,3.1h-2.4c-2,0-2.5-0.8-2.5-2.3V5.9c0-1.4,0.2-1.5,3.7-2.2V2.4
		H0.3v1.4c3.4,0.7,3.6,0.8,3.6,2.2V23c0,1.3-0.2,1.5-3.6,2.2v1.4h19.5L20.9,20.3z"/>
	<path class="st0" d="M75.2,20.3l-1.4-0.4L73,21.8c-0.9,2-2.2,3.1-5,3.1h-2.4c-2,0-2.5-0.8-2.5-2.3v-7.4h5c1.1,0,1.1,0.4,1.9,3.5
		h1.4V9.8H70c-0.7,3.1-0.8,3.3-1.9,3.3h-5v-9h5.1c2,0,3.5,0.6,4.1,2.6l0.7,2h1.3l-0.2-6.4H54.6v1.4c3.4,0.7,3.6,0.8,3.6,2.2V23
		c0,1.3-0.2,1.5-3.6,2.2v1.4h19.5L75.2,20.3z"/>
	<path class="st0" d="M29.6,27c2.9,0,5.4-1.6,7-3.8l-0.8-0.9c-1.3,1.3-2.8,1.9-4.5,1.9c-3,0-4.7-2.3-4.9-5.7c8.5-0.4,9.7-3,9.7-5.2
		c0-1.7-1.6-4.2-5.6-4.2c-4.9,0-9,4-9,9.2C21.5,23.6,24.9,27,29.6,27z M30.3,10.6c0.9,0,2.1,0.6,2.1,2.1c0,1.3-0.2,3.5-6,4.4
		C26.5,13.4,27.6,10.6,30.3,10.6z"/>
	<path class="st0" d="M40.7,21.3c-1.7-0.4-3.1,0.8-3.1,2.2c0,1.8,1.6,3.5,5.8,3.5c5.3,0,7.5-2.2,7.5-5.4c0-3.1-2.5-4.6-5.6-5.6
		c-2-0.7-3.7-1.5-3.7-3.1c0-1.3,1.1-2.4,2.7-2.4c2.7,0,3.4,2,2.1,3.6l0.4,0.6c2,0.4,3.2-0.8,3.2-2.2c0-1.6-1.8-3.5-5.8-3.5
		c-3.8,0-6.2,2.4-6.2,5.2c0,2.8,1.8,4.3,4.9,5.5c2.2,0.9,3.6,1.6,3.6,3.3c0,1.5-1.2,2.4-3,2.4c-2.8,0-3.6-1.7-2.5-3.6L40.7,21.3z"/>
	<rect x="0.2" y="31" class="st0" width="141.3" height="1.8"/>
</g>
</svg>
