<svg viewBox="0 0 31 5" xmlns="http://www.w3.org/2000/svg">
    <title>A wiggly line</title>
    <g id="1366-Wave-PDP-Copy" transform="translate(-808.000000, -3290.000000)">
        <path d="M831.025362,3295 C829.003623,3295 827.880435,3293.81579 826.980761,3292.89474 C826.083333,3291.97368 825.184783,3291.05263 823.5,3291.05263 C821.815217,3291.05263 820.916667,3291.97368 820.018116,3292.89474 C819.119565,3293.94737 817.996377,3295 815.974638,3295 C813.952899,3295 812.82971,3293.81579 811.931159,3292.89474 C811.032609,3291.97368 810.134058,3291.05263 808.449275,3291.05263 C808.224638,3291.05263 808,3290.78947 808,3290.52632 C808,3290.26316 808.224638,3290 808.449275,3290 C810.471014,3290 811.594203,3291.18421 812.492754,3292.10526 C813.391304,3293.02632 814.289855,3293.94737 815.974638,3293.94737 C817.65942,3293.94737 818.557971,3293.02632 819.456522,3292.10526 C820.355072,3291.05263 821.478261,3290 823.5,3290 C825.521739,3290 826.644928,3291.18421 827.542355,3292.10526 C828.442029,3293.02632 829.34058,3293.94737 831.025362,3293.94737 C832.710145,3293.94737 833.608696,3293.02632 834.507246,3292.10526 C835.404674,3291.05263 836.527862,3290 838.550725,3290 C838.774239,3290 839,3290.26316 839,3290.52632 C839,3290.78947 838.774239,3291.05263 838.550725,3291.05263 C836.865942,3291.05263 835.966268,3291.97368 835.068841,3292.89474 C834.17029,3293.94737 833.158297,3295 831.025362,3295"></path>
    </g>
</svg>