<?xml version="1.0" encoding="UTF-8"?>
<svg width="13px" height="13px" viewBox="0 0 13 13" version="1.1" xmlns="http://www.w3.org/2000/svg" xmlns:xlink="http://www.w3.org/1999/xlink">
    <!-- Generator: Sketch 47.1 (45422) - http://www.bohemiancoding.com/sketch -->
    <title>Linkedin Icon</title>
  	<desc>Casper on Linkedin</desc>
    <g id="Symbols" stroke="none" stroke-width="1" fill-rule="evenodd">
        <g id="Component/globalFooter-1366" transform="translate(-1056.000000, -213.000000)">
            <g id="Group-10" transform="translate(-12.000000, 0.000000)">
                <path d="M1068.66112,216.986984 L1071.06445,216.986984 L1071.06445,225.362895 L1068.66112,225.362895 L1068.66112,216.986984 Z M1069.80152,215.939304 L1069.78412,215.939304 C1068.91414,215.939304 1068.3501,215.299011 1068.3501,214.488185 C1068.3501,213.660778 1068.93081,213.033118 1069.81819,213.033118 C1070.70485,213.033118 1071.25004,213.659199 1071.26744,214.485816 C1071.26744,215.296643 1070.70485,215.939304 1069.80152,215.939304 L1069.80152,215.939304 Z M1080.68066,225.363684 L1077.95544,225.363684 L1077.95544,221.028485 C1077.95544,219.893959 1077.52915,219.120239 1076.59174,219.120239 C1075.87473,219.120239 1075.47599,219.642105 1075.29039,220.146602 C1075.22079,220.326611 1075.23167,220.578464 1075.23167,220.831107 L1075.23167,225.363684 L1072.53182,225.363684 C1072.53182,225.363684 1072.56662,217.68491 1072.53182,216.986984 L1075.23167,216.986984 L1075.23167,218.301518 C1075.39116,217.726754 1076.2539,216.906453 1077.63065,216.906453 C1079.33871,216.906453 1080.68066,218.112035 1080.68066,220.705575 L1080.68066,225.363684 L1080.68066,225.363684 Z" id="Shape"></path>
            </g>
        </g>
    </g>
</svg>
