<svg viewBox="0 0 30 30" xmlns="http://www.w3.org/2000/svg"><title>Link icon</title><g><path d="M18.514 15.543c-.129 0-.214-.043-.3-.129-.171-.171-.171-.429 0-.6l4.029-4.029c1.114-1.114 1.114-2.914 0-4.029-1.114-1.114-2.914-1.114-4.029 0l-4.029 4.029c-.171.171-.429.171-.6 0-.171-.171-.171-.429 0-.6l4.029-4.029c1.457-1.457 3.814-1.457 5.229 0 1.457 1.457 1.457 3.814 0 5.229l-3.986 4.029c-.086.086-.214.129-.343.129zM9.729 22.957c-.986 0-1.929-.386-2.614-1.071-.686-.686-1.071-1.629-1.071-2.614 0-.986.386-1.929 1.071-2.614l4.029-4.029c.171-.171.429-.171.6 0 .171.171.171.429 0 .6l-4.029 4.029c-.557.557-.857 1.243-.857 2.014 0 .771.3 1.5.857 2.014.557.557 1.243.857 2.014.857.771 0 1.5-.3 2.014-.857l4.029-4.029c.171-.171.429-.171.6 0 .171.171.171.429 0 .6l-4.029 4.029c-.686.686-1.586 1.071-2.614 1.071zM10.414 18.929c-.129 0-.214-.043-.3-.129-.171-.171-.171-.429 0-.6l8.786-8.786c.171-.171.429-.171.6 0 .171.171.171.429 0 .6l-8.786 8.786c-.086.086-.171.129-.3.129z"/></g></svg>
