<svg xmlns="http://www.w3.org/2000/svg" width="100" height="100" viewBox="0 0 100 100">
<title>Closed Lock</title>
<desc>This form is secure</desc>
  <path d="M79.244 100h-58.487c-2.085 0-3.774-1.689-3.774-3.775v-38.112c0-2.084 1.689-3.773 3.774-3.773h3.773v-16.149c0-14.066 11.403-25.47 25.471-25.47 14.065 0 25.47 11.403 25.47 25.47v16.149h3.773c2.084 0 3.773 1.689 3.773 3.773v38.111c.001 2.087-1.689 3.776-3.773 3.776zm-15.762-61.055c0-7.445-6.037-13.48-13.481-13.48-7.446 0-13.481 6.035-13.481 13.48v15.395h26.963v-15.395z"/></svg>
