<?xml version="1.0" encoding="utf-8"?>
<svg version="1.1" id="Layer_1" xmlns="http://www.w3.org/2000/svg" xmlns:xlink="http://www.w3.org/1999/xlink" x="0px" y="0px"
	 width="9.4px" height="12px" viewBox="0 0 9.4 12" style="enable-background:new 0 0 9.4 12;" xml:space="preserve">
<title>Closed Lock</title>
<desc>Indicates security</desc>
<path id="XMLID_760_" d="M8.4,4.6H8V3.2C8,1.4,6.5,0,4.7,0C2.8,0,1.4,1.4,1.4,3.2v1.4H0.9C0.4,4.6,0,5,0,5.5v5.6
	C0,11.6,0.4,12,0.9,12h7.6c0.5,0,0.9-0.4,0.9-0.9V5.5C9.4,5,9,4.6,8.4,4.6z M3.1,3.2c0-0.8,0.7-1.5,1.6-1.5c0.9,0,1.6,0.7,1.6,1.5
	v1.4H3.1V3.2z"/>
</svg>
