<svg xmlns="http://www.w3.org/2000/svg" viewBox="121.5 337.6 368.8 116.8">
<title>Casper Logo</title>

  <g><path d="M236.8 362.2c-17.6 0-31 12.8-31 30.8s13.3 30.8 31 30.8c8.3 0 15.1-3.7 17.6-7v6.3h13.8V363h-13.8v6.3c-2.6-3.4-9.4-7.1-17.6-7.1m.5 48.7c-10.2 0-18.2-8.2-18.2-18s7.9-18 18.2-18c10 0 17.6 8.2 17.6 18s-7.6 18-17.6 18M356 362.2c-8.1 0-14.2 3.2-18.2 7v-6.3h-13.5v91.6l13.5-1.5v-36.3c3.9 4.1 10.5 7 18.2 7 18.4 0 30.6-12.1 30.6-30.8 0-18.8-12.2-30.7-30.6-30.7m-.6 48.7c-10.7 0-17.8-7.7-17.8-18 0-10.4 7-18 17.8-18s17.9 7.6 17.9 18-7.2 18-17.9 18M490.4 362.2c-8.7 0-13 3.1-15.9 7v-6.3h-13.6V423h13.6v-33.1c0-8.9 6-14.9 14.7-14.9h1.2v-12.8zM422.6 362.2c-17.5 0-31.3 13.7-31.3 30.8s13.8 30.8 31.7 30.8c14.7 0 26.6-8 30.3-18.9h-16c-2 3.9-7.1 6.5-14.3 6.5-8.9 0-15.9-6.1-17.4-13.7h48c.2-1.5.4-3 .4-4.6-.1-17.3-13.9-30.9-31.4-30.9m-16.4 23.4c2-6.3 8.7-11.3 16.4-11.3 7.8 0 14.5 5 16.4 11.3h-32.8zM297 374c-2.8 0-5.6 1.3-5.6 4.6 0 3.8 3.9 5.1 11.2 7.7 10.1 3.6 14.9 8.6 14.9 17.8 0 9.5-8.1 19.5-21.8 19.5-14 0-21.2-10.3-21.7-18.9h13.1c.8 3.8 3.6 6.9 8.6 6.9s8-3.4 8-7.5c0-2.8-1-5.8-9.5-8-9.2-2.5-15.8-7.5-15.8-17.4 0-9 8-16.5 18.5-16.5 9.2 0 15.1 6.3 17.6 10.7l-11 5.2c-1.6-2.7-3.8-4.1-6.5-4.1"/><path d="M165.1 337.6c-24.6 0-43.6 19.2-43.6 43s19 43 43.6 43c15.5 0 30.2-8.4 36.9-20.5l-12.8-7c-4.9 8.8-13.6 13.8-24.1 13.8-7.9 0-15.3-3.1-20.3-8.5-5.4-5.7-8.3-13.2-8.3-20.9s2.9-15.1 8.3-20.9c5-5.4 12.4-8.5 20.3-8.5 8.3 0 13.3 2.9 16.8 5.4 3.6 2.7 7.7 5.3 14.1 5.3 12.1 0 17.3-9.7 18.4-14.8l-13.3-2.8c-.1.5-1 4.2-5.1 4.2-1.8 0-2.9-.7-5.8-2.9-4.7-3.1-11.2-7.9-25.1-7.9"/></g></svg>
