<?xml version="1.0" encoding="utf-8"?>
<!-- Generator: Adobe Illustrator 19.2.1, SVG Export Plug-In . SVG Version: 6.00 Build 0)  -->
<svg version="1.1" id="Layer_1" xmlns="http://www.w3.org/2000/svg" xmlns:xlink="http://www.w3.org/1999/xlink" x="0px" y="0px"
	 width="96px" height="30.4px" viewBox="0 0 96 30.4" enable-background="new 0 0 96 30.4" xml:space="preserve">
<title>Casper</title>
<desc>Casper Logo</desc>
<g>
	<path d="M30,6.4c-4.6,0-8.1,3.3-8.1,8c0,4.7,3.5,8,8.1,8c2.2,0,3.9-1,4.6-1.8v1.6h3.6V6.6h-3.6v1.6C33.9,7.4,32.1,6.4,30,6.4
		 M30.1,19.1c-2.7,0-4.7-2.1-4.7-4.7s2.1-4.7,4.7-4.7c2.6,0,4.6,2.1,4.6,4.7S32.7,19.1,30.1,19.1"/>
	<path d="M61,6.4c-2.1,0-3.7,0.8-4.7,1.8V6.6h-3.5v23.8l3.5-0.4v-9.5c1,1.1,2.7,1.8,4.7,1.8c4.8,0,8-3.1,8-8C69,9.5,65.8,6.4,61,6.4
		 M60.9,19.1c-2.8,0-4.6-2-4.6-4.7c0-2.7,1.8-4.7,4.6-4.7c2.8,0,4.7,2,4.7,4.7C65.5,17.1,63.7,19.1,60.9,19.1"/>
	<path d="M96,6.4c-2.2,0-3.4,0.8-4.1,1.8V6.6h-3.5v15.6h3.5v-8.6c0-2.3,1.6-3.9,3.8-3.9H96V6.4z"/>
	<path d="M78.4,6.4c-4.6,0-8.2,3.6-8.2,8c0,4.4,3.6,8,8.2,8c3.8,0,6.9-2.1,7.9-4.9h-4.2c-0.5,1-1.8,1.7-3.7,1.7
		c-2.3,0-4.1-1.6-4.5-3.6h12.5c0.1-0.4,0.1-0.8,0.1-1.2C86.5,10,82.9,6.4,78.4,6.4 M74.1,12.5c0.5-1.6,2.2-2.9,4.3-2.9
		c2,0,3.8,1.3,4.3,2.9H74.1z"/>
	<path d="M45.7,9.5c-0.7,0-1.5,0.3-1.5,1.2c0,1,1,1.3,2.9,2c2.6,1,3.9,2.2,3.9,4.6c0,2.5-2.1,5.1-5.7,5.1c-3.6,0-5.5-2.7-5.6-4.9
		h3.4c0.2,1,1,1.8,2.2,1.8c1.3,0,2.1-0.9,2.1-1.9c0-0.7-0.3-1.5-2.5-2.1c-2.4-0.6-4.1-1.9-4.1-4.5c0-2.4,2.1-4.3,4.8-4.3
		c2.4,0,3.9,1.7,4.6,2.8l-2.9,1.3C46.9,9.8,46.3,9.5,45.7,9.5"/>
	<path d="M11.3,0C4.9,0,0,5,0,11.2c0,6.2,4.9,11.2,11.3,11.2c4.1,0,7.9-2.2,9.6-5.3l-3.3-1.8c-1.3,2.3-3.5,3.6-6.3,3.6
		c-2,0-4-0.8-5.3-2.2c-1.4-1.5-2.2-3.4-2.2-5.4c0-2,0.8-3.9,2.2-5.4c1.3-1.4,3.2-2.2,5.3-2.2c2.2,0,3.5,0.7,4.4,1.4
		c1,0.7,2,1.4,3.7,1.4c3.1,0,4.5-2.5,4.8-3.8l-3.5-0.7c0,0.1-0.3,1.1-1.3,1.1c-0.5,0-0.8-0.2-1.5-0.7C16.6,1.2,14.9,0,11.3,0"/>
</g>
</svg>
