<?xml version="1.0" encoding="utf-8"?>
<!-- Generator: Adobe Illustrator 19.2.1, SVG Export Plug-In . SVG Version: 6.00 Build 0)  -->
<svg version="1.1" id="Layer_1" xmlns="http://www.w3.org/2000/svg" xmlns:xlink="http://www.w3.org/1999/xlink" x="0px" y="0px"
	 viewBox="0 0 16 16" enable-background="new 0 0 16 16" xml:space="preserve">
	 <title>Magnifying Glass</title>
	 <desc>Magnifying Glass</desc>
<g>
	<defs>
		<path id="SVGID_1_" d="M123-1452c-0.4-0.4-0.4-1.2,0-1.6c0.5-0.5,1.2-0.5,1.6,0l5.1,5.1c0.4,0.4,0.4,1.2,0,1.6
			c-0.5,0.5-1.2,0.5-1.6,0L123-1452z"/>
	</defs>
	<clipPath id="SVGID_2_">
		<use xlink:href="#SVGID_1_"  overflow="visible"/>
	</clipPath>
	<g clip-path="url(#SVGID_2_)">
		<defs>
			<rect id="SVGID_3_" x="-152" y="-1647" width="320" height="3309"/>
		</defs>
		<clipPath id="SVGID_4_">
			<use xlink:href="#SVGID_3_"  overflow="visible"/>
		</clipPath>
		<rect x="117.7" y="-1459" clip-path="url(#SVGID_4_)" fill="#D3D3D3" width="17.4" height="17.4"/>
	</g>
</g>
<g>
	<defs>
		<circle id="SVGID_5_" cx="119.3" cy="-1457.7" r="6.3"/>
	</defs>
	<clipPath id="SVGID_6_">
		<use xlink:href="#SVGID_5_"  overflow="visible"/>
	</clipPath>
	<g clip-path="url(#SVGID_6_)">
		<defs>
			<rect id="SVGID_7_" x="-152" y="-1647" width="320" height="3309"/>
		</defs>
		<clipPath id="SVGID_8_">
			<use xlink:href="#SVGID_7_"  overflow="visible"/>
		</clipPath>
		<rect x="108" y="-1469" clip-path="url(#SVGID_8_)" fill="#FFFFFF" width="22.6" height="22.6"/>
	</g>
</g>
<g>
	<defs>
		<rect id="SVGID_9_" x="-152" y="-1647" width="320" height="3309"/>
	</defs>
	<clipPath id="SVGID_10_">
		<use xlink:href="#SVGID_9_"  overflow="visible"/>
	</clipPath>
	
		<circle clip-path="url(#SVGID_10_)" fill="none" stroke="#D3D3D3" stroke-width="2" stroke-miterlimit="10" cx="119.3" cy="-1457.7" r="6.3"/>
</g>
<path fill-rule="evenodd" clip-rule="evenodd" d="M15.5,14.3l-3.9-3.9C12.5,9.3,13,7.9,13,6.3C13,2.8,10.2,0,6.6,0
	C3.1,0,0.2,2.8,0.2,6.3c0,3.5,2.9,6.3,6.4,6.3c1.2,0,2.4-0.4,3.4-1l4,4c0.4,0.4,1,0.4,1.4,0C15.9,15.3,15.9,14.7,15.5,14.3z
	 M2.2,6.3c0-2.4,2-4.4,4.4-4.4s4.4,2,4.4,4.4c0,2.4-2,4.4-4.4,4.4S2.2,8.7,2.2,6.3z"/>
</svg>
