<svg xmlns="http://www.w3.org/2000/svg" width="124.9" height="27" viewBox="0 0 124.9 27"><g fill="#7D7D7D"><title>Mail Online</title><desc>Mail Online Logo</desc><path d="M18.1 7v5.2h2.4c-.1.3-.2.4-.3.6-.6.8-1.1 1.7-1.7 2.5-.3.4-.4.8-.4 1.3v3.2c0 .3.2.6.4.7.4.4.9.6 1.5 1-.3.2-.4.3-.6.4-.9.6-1.9 1.2-2.8 1.8-.3.2-.6.3-1 .1-1.6-.9-3.2-1.7-4.8-2.6-.5-.3-.5-.5 0-.8.8-.4 1-.9.9-1.8-.1-.9 0-1.7 0-2.6H9.2v4.1c0 .5.1.9.6 1.1.2.1.3.2.4.3v.2l-3.6 2.1c-.1.1-.3 0-.5-.1-1.5-.8-2.9-1.5-4.4-2.3-.1 0-.1-.1-.3-.3.4-.3.8-.5 1.2-.8.2-.2.4-.4.4-.7V9.5c0-.3-.2-.6-.4-.8-.8-.3-1.5-.7-2.2-1.2-.6-.4-.5-.6 0-.9 1-.6 1.9-1.2 2.9-1.9.4-.3.7-.3 1.1 0 .8.5 1.7 1 2.5 1.5.5.3.8.3 1.3 0 1.2-.7 2.5-1.3 3.7-2 .5-.3.9-.3 1.4 0 .9.6 1.9 1.1 2.9 1.6.4.2.6.2 1 0 1.1-.7 2.2-1.4 3.2-2 .4-.2.7-.3 1.1 0 1.3.8 2.6 1.5 3.9 2.3.4.2.5.5.5.9v11.5c0 1.1.4 2 1.4 2.6.5.3.4.5 0 .8-.9.6-1.8 1.3-2.8 1.9-.2.2-.7.2-.9.1-1.8-.8-2.8-2.2-2.8-4.2V9.2c0-.6-.2-.9-.7-1.1-.7-.4-1.3-.7-2-1.1zm-6.5 5V8.9c0-.2-.1-.4-.2-.5-.7-.4-1.5-.8-2.2-1.2v8.1c.6-.9 1.1-1.7 1.7-2.5.1-.2.4-.5.7-.8zM8.7 7.1c-.6 0-.6.3-.6.7v12c0 .4.2.7.6.8V7.1zm8.8 5.2c.1 0 .1-.1.2-.1v-5c0-.1-.2-.2-.2-.3-.1.1-.3.2-.3.3V12l.3.3zm-.1 7.6c.1 0 .2 0 .2-.1v-.5-2.8c0-.1-.2-.2-.3-.4-.1.1-.2.3-.2.4v2.7c.1.3.2.5.3.7zM27.8 17.6c0-1.5 1-3.2 2.6-4.7 1.9-1.8 4.1-3.2 6.7-4 .5-.2 1-.2 1.5.1 1.6.8 3.1 1.7 4.7 2.5.7.4.8.6.1 1-.6.4-.7.8-.7 1.5v4.9c0 .4.1.6.5.8.5.3 1 .7 1.5 1 .5.4.5.5.1.9-.8.7-1.7 1.3-2.5 2-.3.3-.6.3-.9.1-1.5-.7-3-1.4-4.4-2.2-.4-.2-.7-.2-1 .1-.8.7-1.6 1.3-2.5 2-.2.2-.5.3-.8.2-2.9-.5-4.8-2-4.9-6.2zm9-.6c0-.5-.1-1.1 0-1.6.3-1.5-.3-2.4-1.7-3.2-1.2-.6-1.4-.7-2.4.3-.1.1-.1.2-.2.2-1 1.3-1 2.8-.4 4.2.6 1.8 1.9 2.9 3.6 3.6.7.3 1.1 0 1.1-.7V17zM63 21.5c-.4.3-.6.5-.9.7L60 23.7c-.2.1-.7.2-.9.1-1.4-.6-2.7-1.3-4.1-2-.5-.3-.6-.5-.1-.8.5-.3.6-.8.6-1.4V8.9c0-1 .2-2-1.3-2.3 0-.1.1-.1.1-.2.2-.1.3-.2.5-.3 1.8-.6 3.5-1.1 5.3-1.7.8-.2.9-.1.9.6v14.6c0 .5.1.8.6 1 .4.2.9.5 1.4.9z"/><path d="M54.1 21.3c-1.3.9-2.5 1.7-3.7 2.5-.1.1-.4 0-.5-.1l-4.2-2.1c-.5-.3-.5-.5-.1-.8.5-.3.6-.8.6-1.4v-5.5c0-.6-.2-.9-.7-1.1-.4-.2-.8-.4-1.1-.6-.4-.2-.4-.5 0-.7 1.1-.7 2.1-1.5 3.2-2.1.2-.1.6-.1.8 0 1.5.8 3 1.6 4.5 2.5.4.2.4.5 0 .6-.9.4-1 1.2-1 2.1.1 1.5 0 3.1 0 4.6 0 .6.1 1 .7 1.2.5.3.9.5 1.5.9zM78.4 14c-.2 1.4-.3 2.8-.6 4.1-.9 3.3-3.3 4.6-6.4 4.4-3.1-.1-5.1-1.8-5.8-5-.6-2.7-.6-5.5.3-8.2 1.7-5.2 8.4-4.9 10.7-2.1 1 1.3 1.5 2.7 1.6 4.3.1.8.1 1.6.2 2.5-.1 0-.1 0 0 0zm-1.4.3c-.1-1.4-.2-2.5-.4-3.5-.5-2.5-1.6-4.3-4.5-4.5-2.1-.1-3.9.6-4.7 2.7-.4.9-.6 1.9-.7 2.9-.2 2.2-.3 4.4.5 6.6.8 2.1 2.4 3.1 4.7 3.1 2.3-.1 3.8-1.1 4.4-3.3.4-1.4.5-2.9.7-4zM123.7 20.6c.2 1 .1 1.1-.7 1.4-1.9.7-3.8.9-5.7.2-1.4-.5-2.5-1.4-3-2.8-.9-2.5-.9-5 .2-7.4 1-2 3-3 5.5-2.8 2.1.2 3.8 1.6 4.4 3.7.3 1.1.3 2.2.5 3.4h-9.7c-.2 2.7 1.1 5.1 4.4 5.2 1.3 0 2.5-.2 3.7-.7l.4-.2zm-8.7-5.3h8.3c-.1-1.6-.3-3.2-1.7-4.2s-3-1-4.4-.2c-1.7.9-2.1 2.6-2.2 4.4zM81.7 22.3h-1.2V9.8h1.2v2l.4-.4c1.5-1.9 3.4-2.4 5.6-2 1.5.3 2.5 1.5 2.6 3.2v9.5s0 .1-.1.2H89v-.7c0-2.7-.1-5.4 0-8.1.1-2.8-1.9-3.3-3.7-3.1-1.4.2-2.6.9-3.3 2.1-.2.3-.3.7-.3 1.1v8.1c.1.2 0 .4 0 .6zM111.3 22.3h-1.2v-.7-8.5c0-1.8-.9-2.8-2.7-2.8-1.7-.1-3.2.6-4.2 2.1-.2.3-.4.8-.4 1.3v8.6h-1.2V9.8h1.1c0 .7.1 1.3.1 2.2.7-1.1 1.5-1.8 2.5-2.2 1.5-.6 3.1-.7 4.5.1 1.1.6 1.5 1.6 1.5 2.8v9.5c.1-.1.1 0 0 .1zM93.2 5.5h1.2v16.7h-1.2V5.5zM97.4 9.5h1.2v12.7h-1.2V9.5zM50.2 3.7c1.2 0 2.1 1 1.7 2.3-.4 1.3-1.3 2.1-2.4 2.7-.3.2-.7.2-.9-.2-.7-1.1-1.1-3 .2-4.1.4-.4.9-.6 1.4-.8v.1zM97.2 6.2h1.6V8h-1.6V6.2z"/></g></svg>