<svg xmlns="http://www.w3.org/2000/svg" width="49" height="32" viewBox="0 0 49 32">
<title>Envelope</title>
<desc>Contact the Casper support team</desc>

  <path d="M1.723 2.954c1.231.738 19.692 10.831 20.431 11.077.738.492 1.477.738 2.462.738.985 0 1.723-.246 2.462-.492.738-.492 19.2-10.338 20.431-11.077 1.477-.985 2.708-3.2.246-3.2h-46.277c-2.462 0-1.231 2.215.246 2.954zm46.523 5.661c-1.477.738-20.185 10.585-21.169 11.077-.985.492-1.477.492-2.462.492-.985 0-1.477 0-2.462-.492s-19.692-10.338-21.169-11.077c-.985-.738-.985 0-.985.492v20.185c0 1.231 1.477 2.708 2.708 2.708h43.815c1.231 0 2.708-1.477 2.708-2.708v-20.185c0-.492 0-1.231-.985-.492z" fill="#fff"/></svg>
