<?xml version="1.0" encoding="utf-8"?>
<!-- Generator: Adobe Illustrator 19.2.1, SVG Export Plug-In . SVG Version: 6.00 Build 0)  -->
<svg version="1.1" id="Layer_1" xmlns="http://www.w3.org/2000/svg" xmlns:xlink="http://www.w3.org/1999/xlink" x="0px" y="0px"
	 width="199.9px" height="27px" viewBox="0 0 199.9 27" style="enable-background:new 0 0 199.9 27;" xml:space="preserve">
<g>
	<path style="fill-rule:evenodd;clip-rule:evenodd;" d="M57.3,16c-0.4,0-1-0.2-1.1-0.6c0-0.6,0.5-0.5,1-0.5c1,0,4.7,0,4.9-3.6
		c0.1-1.4-0.5-2.5-0.8-2.8c0-0.2-0.2-1.2,1.5-1.1l0-2.6c-0.9,0-3-0.3-3.3,2.6c-0.2-0.1-0.5-0.4-2.2-0.4c-3.1,0.1-4.8,1.6-4.8,4
		c-0.1,1.8,1,2.5,1.9,3.3c-0.8,0.2-1.8,1.2-1.7,2.6c0,0.8,0.5,1.5,1,1.9c-0.8,0.5-1.3,1.2-1.4,2.5c0,0.1,0,0.1,0,0.2h0
		c0.3,1.9,2.7,2.6,4.9,2.6c0,0,0.1,0,0.1,0h0.2c2,0,4.3-0.5,5.1-2.6h-3.6c-0.5,0.2-1.1,0.3-1.7,0.2c-0.5,0-1,0-1.3-0.2h0
		c-0.3-0.1-0.5-0.3-0.5-0.7c0-0.8,0.6-1.1,1.9-1c1,0,2.2,0,2.2,1c-0.1,0.3-0.3,0.6-0.5,0.7l3.6,0c0.2-0.4,0.3-0.9,0.3-1.5
		C62.8,15.5,58.5,16,57.3,16z M57.3,9.3c0.7,0,1.2,0.7,1.2,1.6c0,0.9-0.4,1.5-1.2,1.6c-0.8,0-1.2-0.7-1.2-1.6
		C56.1,10,56.4,9.4,57.3,9.3z"/>
	<path style="fill-rule:evenodd;clip-rule:evenodd;" d="M68.4,6.9c-3.1,0-5.1,2.8-5.1,6.8c0,4.3,2.1,6.5,5.1,6.5
		c2.7,0,3.8-1,4.9-3.8l-2.8-0.8c-0.2,1.1-0.8,1.9-1.7,1.9c-1.3,0-1.7-1.7-1.7-2.9h6.3C73.3,12.1,73.1,6.9,68.4,6.9z M69.5,12h-2.2
		c0-1,0.1-2.3,1.1-2.3C69.5,9.7,69.5,11,69.5,12z"/>
	<path style="fill-rule:evenodd;clip-rule:evenodd;" d="M12.5,6.9c-1.4,0-2.4,0.7-3,2c-0.6-1.6-2.1-2-2.9-2c-1.3,0-2.3,0.9-2.8,2
		V7.3H0v12.6h3.9v-8.4c0-0.8,0.3-1.4,1-1.4c0.6,0,0.9,0.4,0.9,1.4v8.4h3.9v-8.4c0-0.8,0.3-1.4,1-1.4c0.6,0,0.9,0.4,0.9,1.4v8.4h4
		v-9.8C15.5,8.1,14.2,7,12.5,6.9z"/>
	<path style="fill-rule:evenodd;clip-rule:evenodd;" d="M36.3,6.9c-1.7,0-2.5,0.8-2.9,1.1V7.3h-4v12.6h4v-8.4c0-0.1-0.1-1.5,1-1.6
		c1,0,0.9,1,0.9,1.6v8.4h4v-9.8C39.3,9,38.3,6.9,36.3,6.9z"/>
	<path style="fill-rule:evenodd;clip-rule:evenodd;" d="M78.8,8.8V7.3H75v12.6h3.8v-6.6c0.1-1.3,0.8-2.5,2.3-2.5c0,0,0,0,0,0
		c0.2,0,0.6,0,0.9,0.1l0-3.6C80.5,7.2,78.8,8.8,78.8,8.8z"/>
	<path style="fill-rule:evenodd;clip-rule:evenodd;" d="M27.2,14.9v-3.4c0-0.8,0.3-4.4-4.1-4.6c-4.4-0.1-5.4,2.6-5.6,3.8l3.2,0.5
		c0.1-0.4,0-1.6,1.4-1.6c1.2,0,1,1,1,2.2c-2.2,0.2-4.9,1-5.7,3.2h0c-0.2,0.4-0.2,0.9-0.2,1.5c0,2.4,1.4,3.7,3.3,3.7
		c1.7,0,2.5-0.9,2.8-1.4c0,0.5-0.4,1.2,0.1,1.2h4c-0.2-0.5-0.2-1-0.2-2.6V14.9z M21.9,17.3c-0.9,0-0.8-1.1-0.7-1.6
		c0.1-0.3,0.2-0.5,0.4-0.7h0c0.3-0.4,0.9-0.7,1.6-0.8c0,0.3,0,0.5,0,0.8C23.1,16.2,23,17.3,21.9,17.3z"/>
	<path style="fill-rule:evenodd;clip-rule:evenodd;" d="M50.9,14.9v-3.4c0-0.8,0.3-4.4-4.1-4.6c-4.4-0.1-5.4,2.6-5.6,3.8l3.2,0.5
		c0.1-0.4,0-1.6,1.4-1.6c1.2,0,1,1,1,2.2c-2.2,0.2-4.9,1-5.7,3.2h0c-0.2,0.4-0.2,0.9-0.2,1.5c0,2.4,1.4,3.7,3.3,3.7
		c1.7,0,2.5-0.9,2.8-1.4c0,0.5-0.4,1.2,0.1,1.2h4c-0.2-0.5-0.2-1-0.2-2.6V14.9z M45.6,17.3c-0.9,0-0.8-1.1-0.7-1.6
		c0.1-0.3,0.2-0.5,0.4-0.7h0c0.3-0.4,0.9-0.7,1.6-0.8c0,0.3,0,0.5,0,0.8C46.8,16.2,46.7,17.3,45.6,17.3z"/>
	<path style="fill-rule:evenodd;clip-rule:evenodd;" d="M168.7,7c-1.7,0-2.5,0.8-2.9,1.1V7.3h-4v12.6h4v-8.4c0-0.1-0.1-1.5,1-1.6
		c1,0,0.9,1,0.9,1.6v8.4h4v-9.8C171.6,9,170.7,7,168.7,7z"/>
	<path style="fill-rule:evenodd;clip-rule:evenodd;" d="M106,6.9c-1.4,0-2.4,0.7-3,2c-0.6-1.6-2.1-2-2.8-2c-1.3,0-2.2,0.9-2.7,1.9
		V7.3h-3.8v12.6h3.8v-8.5c0-0.8,0.3-1.4,1-1.4c0.6,0,0.8,0.4,0.9,1.4v8.5h3.9v-8.5c0-0.8,0.3-1.4,1-1.4c0.6,0,0.9,0.4,0.9,1.4v8.5
		h3.9v-9.8C109,8.1,107.7,7,106,6.9z"/>
	<polygon style="fill-rule:evenodd;clip-rule:evenodd;" points="153.9,10 153.9,7.4 145,7.4 145,10.2 149.6,10.2 145,17.4 145,19.9
		154,19.9 154,16.7 149.6,16.7 	"/>
	<rect x="155.7" y="2" style="fill-rule:evenodd;clip-rule:evenodd;" width="3.8" height="3.8"/>
	<rect x="155.7" y="7.4" style="fill-rule:evenodd;clip-rule:evenodd;" width="3.8" height="12.5"/>
	<path style="fill-rule:evenodd;clip-rule:evenodd;" d="M120.6,14.9h-4c0,1.2-0.1,2.4-1.2,2.4c-0.9,0-0.8-1.1-0.7-1.6
		c0.1-0.3,0.2-0.5,0.4-0.7h0c0.3-0.4,0.9-0.7,1.5-0.8c0,0.3,0,0.5,0,0.8L120.6,14.9v-3.4c0-0.7,0.3-4.4-4-4.6
		c-4.3-0.1-5.3,2.6-5.6,3.8l3.2,0.5c0.1-0.4,0-1.6,1.4-1.6c1.2,0,1,1,1,2.2c-2.2,0.2-4.9,1-5.7,3.1c-0.2,0.4-0.2,0.9-0.2,1.5
		c0,2.4,1.4,3.7,3.3,3.7c1.7,0,2.5-0.9,2.8-1.4c0,0.5-0.4,1.2,0.1,1.2h3.9c-0.2-0.5-0.2-0.9-0.2-2.6V14.9z"/>
	<path style="fill-rule:evenodd;clip-rule:evenodd;" d="M127.1,15.8c-0.4,0-1-0.2-1.1-0.6c0-0.6,0.5-0.5,1-0.5c0.9,0,4.7,0,4.8-3.6
		c0.1-1.4-0.5-2.5-0.8-2.8c0-0.2-0.2-1.2,1.5-1.1l0-2.5c-0.9,0-2.9-0.3-3.3,2.6c-0.2-0.1-0.5-0.4-2.2-0.4c-3.1,0.1-4.8,1.6-4.7,4
		c-0.1,1.7,1,2.5,1.9,3.3c-0.8,0.2-1.8,1.2-1.7,2.5c0,0.8,0.5,1.5,1,1.9c-0.8,0.5-1.3,1.2-1.4,2.5c0,0.1,0,0.1,0,0.2l3.6,0
		c-0.3-0.1-0.4-0.3-0.5-0.7c0-0.8,0.6-1.1,1.9-0.9c1,0,2.2,0,2.2,1c-0.1,0.3-0.3,0.5-0.5,0.7l1.8,0l-1.8,0c-0.4,0.3-1.1,0.3-1.7,0.2
		c-0.5,0-1,0-1.3-0.2l-3.6,0c0.2,1.9,2.8,2.6,4.9,2.6c2.1,0,4.4-0.5,5.2-2.6h0c0.2-0.4,0.3-0.9,0.3-1.5
		C132.6,15.4,128.3,15.9,127.1,15.8z M127.1,9.2c0.7,0,1.2,0.7,1.2,1.6c0,0.9-0.4,1.5-1.2,1.6c-0.8,0-1.2-0.7-1.2-1.6
		C125.9,9.9,126.2,9.3,127.1,9.2z"/>
	<path style="fill-rule:evenodd;clip-rule:evenodd;" d="M143.3,14.9h-4c0,1.2-0.1,2.4-1.2,2.4c-0.9,0-0.8-1.1-0.7-1.6
		c0.1-0.3,0.2-0.5,0.4-0.7h0c0.3-0.4,0.8-0.7,1.5-0.8c0,0.3,0,0.5,0,0.8L143.3,14.9v-3.4c0-0.7,0.3-4.4-4-4.6
		c-4.3-0.1-5.3,2.6-5.6,3.8l3.2,0.5c0.1-0.4,0-1.6,1.4-1.6c1.2,0,1,1,1,2.2c-2.2,0.2-4.9,1-5.7,3.1c-0.2,0.4-0.2,0.9-0.2,1.5
		c0,2.4,1.4,3.7,3.3,3.7c1.7,0,2.5-0.9,2.8-1.4c0,0.5-0.4,1.2,0.1,1.2h3.9c-0.2-0.5-0.2-0.9-0.2-2.6V14.9z"/>
	<rect x="173.2" y="16.1" style="fill-rule:evenodd;clip-rule:evenodd;" width="3.5" height="3.9"/>
	<rect x="83.2" y="12.1" style="fill-rule:evenodd;clip-rule:evenodd;" width="7.4" height="3.9"/>
	<path style="fill-rule:evenodd;clip-rule:evenodd;" d="M195.3,17.5c-1.3,0-1.7-1.7-1.7-3h6.3c-0.2-2.5-0.3-7.7-5.1-7.7
		c-3.1,0-5.1,2.8-5.1,6.8c0,4.3,2.1,6.5,5.1,6.5c2.7,0,3.8-1,4.9-3.8l-2.8-0.8C196.8,16.7,196.2,17.5,195.3,17.5z M194.9,9.7
		c1.1,0,1.1,1.4,1.1,2.3h-2.2C193.8,11.1,193.9,9.7,194.9,9.7z"/>
	<path style="fill-rule:evenodd;clip-rule:evenodd;" d="M184.6,8.3c-0.6-1-1.3-1.4-2.6-1.4c-2.7,0-4.3,2.4-4.3,6.6
		c0,4.2,1.5,6.6,4.1,6.6c0.8,0,1.4-0.2,1.9-0.6c0.5-0.4,0.7-0.8,1.1-1.7V20h3.3V2.6h-3.5V8.3z M184.6,12.5v2.3c0,2-0.5,2.9-1.6,2.9
		c-0.7,0-1.2-0.5-1.4-1.6c-0.1-0.7-0.2-1.2-0.2-3.1c0-2.7,0.4-3.7,1.6-3.7c0.7,0,1.2,0.4,1.4,1.3c0.1,0.4,0.2,0.7,0.2,1
		C184.6,11.7,184.6,12,184.6,12.5z"/>
</g>
</svg>
