<svg xmlns="http://www.w3.org/2000/svg" width="84.4" height="27" viewBox="0 0 84.4 27"><path d="M59 9.6c.8 0 1.3.8 1.3 1.7 0 1-.4 1.7-1.3 1.7s-1.3-.8-1.3-1.7c0-.9.3-1.6 1.3-1.7zm0 7.4c-.5-.1-1.2-.2-1.2-.7 0-.6.5-.6 1.2-.6 1.1 0 5.3 0 5.4-4 .1-1.6-.6-2.8-.9-3.1.1-.2-.2-1.3 1.6-1.2V4.6c-1 0-3.3-.3-3.7 2.9-.2-.3-.5-.5-2.4-.6-3.5.1-5.4 1.7-5.3 4.5-.1 2 1.2 2.8 2.1 3.7-.9.3-2 1.3-1.9 2.8 0 .9.6 1.6 1.1 2.1-.9.6-1.5 1.4-1.5 2.8v.2c.3 2.1 3.1 2.9 5.4 2.9h.4c2.3 0 4.7-.6 5.6-2.9h-4c-.5.3-1.2.3-1.9.3-.5 0-1.1-.1-1.5-.3-.3-.1-.5-.4-.6-.8 0-.9.7-1.2 2.1-1.1 1.1 0 2.5 0 2.5 1.1-.1.4-.3.6-.6.8h4c.2-.5.3-1 .3-1.7 0-4.7-4.9-4.2-6.2-4.3z" fill="#7D7D7D"/><path d="M71.4 12.6H69c0-1.1.1-2.6 1.2-2.6 1.2 0 1.2 1.5 1.2 2.6zm-1.2-5.7c-3.5 0-5.7 3.1-5.7 7.6 0 4.8 2.3 7.2 5.7 7.2 3 0 4.3-1.1 5.4-4.2l-3.1-.9c-.2 1.2-.8 2.1-1.9 2.1-1.4 0-1.9-1.9-1.9-3.3h7c-.1-2.7-.3-8.5-5.5-8.5zM13.9 7c-1.6 0-2.7.8-3.3 2.2C9.9 7.4 8.2 6.9 7.4 7c-1.5 0-2.5.9-3.1 2.1V7.4H0v14h4.3V12c0-.9.4-1.6 1.1-1.5.7 0 .9.5 1 1.5v9.4h4.4V12c0-.9.4-1.6 1.1-1.5.7 0 1 .5 1 1.5v9.4h4.4V10.5c0-2.2-1.5-3.5-3.4-3.5zM38 7c-1.9.1-2.8.9-3.3 1.3v-.9h-4.5v14h4.5V12c0-.1-.2-1.7 1.1-1.7 1.1.1 1 1.1 1 1.8v9.3h4.5V10.5c0-1.3-1-3.5-3.3-3.5zM80.6 9.1V7.3h-4.3v14.1h4.3V14c.1-1.4.9-2.8 2.5-2.8.3 0 .7 0 1 .1v-4c-1.6 0-3.5 1.8-3.5 1.8zM23.2 18.5c-1-.1-.9-1.2-.8-1.8.1-.3.2-.6.4-.8.4-.4 1-.8 1.7-.9v.9c.1 1.4-.1 2.6-1.3 2.6zm5.9-2.6V12c0-.8.4-4.9-4.5-5.1-4.9-.1-6 2.9-6.2 4.2l3.5.5c.1-.4 0-1.8 1.6-1.8 1.3 0 1.2 1.1 1.1 2.5-2.5.2-5.5 1.1-6.4 3.5-.2.5-.3 1-.3 1.6 0 2.7 1.6 4.1 3.7 4.1 1.9.1 2.8-1 3.1-1.6 0 .5-.4 1.4.1 1.3h4.4c-.2-.6-.2-1.1-.3-2.9v-2.4h.2zM47.1 18.5c-1-.1-.9-1.2-.8-1.8.1-.3.2-.6.4-.8.4-.4 1-.8 1.7-.9v.9c.1 1.4 0 2.6-1.3 2.6zm5.9-2.6V12c0-.8.4-4.9-4.5-5.1-4.9-.1-6 2.9-6.2 4.2l3.5.5c.1-.4 0-1.8 1.6-1.8 1.3 0 1.2 1.1 1.1 2.5-2.5.2-5.5 1.1-6.4 3.5-.2.5-.3 1-.3 1.6 0 2.7 1.6 4.1 3.7 4.1 1.9.1 2.8-1 3.1-1.6 0 .5-.4 1.4.1 1.3h4.4c-.2-.6-.2-1.1-.3-2.9v-2.4h.2z" fill="#7D7D7D"/><g fill="#7D7D7D"><path d="M83.8 23.1c-.4 0-.6.2-.7.3v-.2h-.9v2.9h.9v-1.9s0-.3.2-.4c.2 0 .2.2.2.4v1.9h.9v-2.3c0-.2-.2-.7-.6-.7zM69.3 23.1c-.3 0-.5.2-.7.5-.1-.4-.5-.5-.7-.5-.3 0-.5.2-.6.4v-.4h-.9V26h.9v-1.9c0-.2.1-.3.2-.3s.2.1.2.3V26h.9v-1.9c0-.2.1-.3.2-.3s.2.1.2.3V26h1v-2.3c0-.3-.3-.6-.7-.6zM80.4 23.8v-.6h-2.1v.7h1.1l-1.1 1.6v.6h2.1v-.7h-1l1-1.6M81.6 22h-.8v.9h.8V22M80.8 26.1h.9v-2.9h-.9v2.9M71.5 25.5c-.2 0-.2-.3-.2-.4 0-.1 0-.1.1-.2s.2-.2.4-.2v.2c-.1.3-.1.6-.3.6zm1.2-.6v-.8c0-.2.1-1-.9-1.1-1 0-1.2.6-1.3.9l.7.1c0-.1 0-.4.3-.4s.2.2.2.5c-.5 0-1.1.2-1.3.7 0 .1-.1.2-.1.3 0 .6.3.8.8.8.4 0 .6-.2.6-.3 0 .1-.1.3 0 .3h.9c0-.1 0-.2-.1-.6v-.4h.2zM74.2 23.6c.2 0 .3.2.3.4s-.1.4-.3.4c-.2 0-.3-.2-.3-.4s.1-.4.3-.4zm0 1.6c-.1 0-.2 0-.2-.1s.1-.1.2-.1c.2 0 1.1 0 1.1-.8 0-.3-.1-.6-.2-.6 0 0 0-.3.3-.3v-.6c-.2 0-.7-.1-.8.6-.1 0-.1-.1-.5-.1-.7 0-1.1.4-1.1.9 0 .4.2.6.4.8-.2.1-.4.3-.4.6 0 .2.1.3.2.4-.2.1-.3.3-.3.6h.8c-.1 0-.1-.1-.1-.2 0-.2.1-.3.4-.2.2 0 .5 0 .5.2 0 .1-.1.1-.1.2h.4-.4c-.1.1-.3.1-.4.1-.1 0-.2 0-.3-.1h-.8c.1.4.6.6 1.1.6.5 0 1-.1 1.2-.6 0-.1.1-.2.1-.3.1-1.1-.9-1-1.1-1zM76.7 25.5c-.2 0-.2-.3-.2-.4 0-.1 0-.1.1-.2s.2-.2.4-.2v.2c0 .3 0 .6-.3.6zm1.2-.6v-.8c0-.2.1-1-.9-1.1-1 0-1.2.6-1.3.9l.7.1c0-.1 0-.4.3-.4s.2.2.2.5c-.5 0-1.1.2-1.3.7 0 .1-.1.2-.1.3 0 .6.3.8.8.8.4 0 .6-.2.6-.3 0 .1-.1.3 0 .3H78c0-.1 0-.2-.1-.6v-.4z"/></g></svg>