<?xml version="1.0" encoding="utf-8"?>
<!-- Generator: Adobe Illustrator 18.1.1, SVG Export Plug-In . SVG Version: 6.00 Build 0)  -->
<svg version="1.1" id="Layer_1" xmlns="http://www.w3.org/2000/svg" xmlns:xlink="http://www.w3.org/1999/xlink" x="0px" y="0px"
	 viewBox="0 0 32 32" enable-background="new 0 0 32 32" xml:space="preserve">
<title>Mattress Layers icon</title>
<desc>Line drawing showing 3 layers of the mattress.</desc>
<g>
	<g>
		<path fill="none" stroke="#000000" stroke-linecap="round" stroke-linejoin="round" stroke-miterlimit="10" d="M-375.5-128.6
			l-7.5-7.3c-0.8-0.8-1.3-1.8-1.3-2.9c0-2.3,1.9-4.2,4.3-4.2h19.2l7.5,7.3h-19.2c-2.4,0-4.3,1.9-4.3,4.2s1.9,4.2,4.3,4.2h2.6"/>
		<line fill="none" stroke="#000000" stroke-miterlimit="10" x1="-365.7" y1="-130.2" x2="-355.1" y2="-130.2"/>
		
			<line fill="none" stroke="#000000" stroke-linejoin="round" stroke-miterlimit="10" x1="-365.7" y1="-132.9" x2="-355.1" y2="-132.9"/>
		
			<line fill="none" stroke="#000000" stroke-linejoin="round" stroke-miterlimit="10" x1="-374.4" y1="-135.3" x2="-381.8" y2="-142.5"/>
		<g>
			<path fill="none" stroke="#000000" stroke-linecap="round" stroke-linejoin="round" stroke-miterlimit="10" d="M-353.2-135.7"/>
			<path fill="none" stroke="#000000" stroke-linecap="round" stroke-linejoin="round" stroke-miterlimit="10" d="M-353.2-127.4"/>
			<path fill="none" stroke="#000000" stroke-linecap="round" stroke-linejoin="round" stroke-miterlimit="10" d="M-353.2-135.7
				c-1.3,1-2.1,2.5-2.1,4.2s0.8,3.2,2.1,4.2"/>
		</g>
		<polygon fill="none" stroke="#000000" stroke-linecap="round" stroke-linejoin="round" stroke-miterlimit="10" points="
			-365.7,-125.1 -367.8,-126.8 -369.9,-125.1 -369.9,-132.9 -365.7,-132.9 		"/>
		
			<line fill="none" stroke="#000000" stroke-linejoin="round" stroke-miterlimit="10" x1="-376.5" y1="-132.9" x2="-369.9" y2="-132.9"/>
		<line fill="none" stroke="#000000" stroke-miterlimit="10" x1="-369.9" y1="-130.2" x2="-376.5" y2="-130.2"/>
	</g>
	<path fill="none" stroke="#000000" stroke-miterlimit="10" d="M-365.7-127.4h12.5"/>
</g>
<g>
	
		<ellipse transform="matrix(1 -3.500943e-03 3.500943e-03 1 0.4544 -1.5997)" fill="none" stroke="#000000" stroke-linecap="round" stroke-linejoin="round" stroke-miterlimit="10" cx="-456.7" cy="-130.6" rx="3.3" ry="3.1"/>
	
		<ellipse transform="matrix(1 -3.500943e-03 3.500943e-03 1 0.4548 -1.5144)" fill="none" stroke="#000000" stroke-linecap="round" stroke-linejoin="round" stroke-miterlimit="10" cx="-432.3" cy="-130.7" rx="3.3" ry="3.1"/>
	<polyline fill="none" stroke="#000000" stroke-linecap="round" stroke-linejoin="round" stroke-miterlimit="10" points="
		-451.1,-130.6 -446.1,-135.3 -453.2,-135.3 -456.7,-130.6 -451.1,-130.6 -454.4,-138 	"/>
	<polyline fill="none" stroke="#000000" stroke-linecap="round" stroke-linejoin="round" stroke-miterlimit="10" points="
		-445.6,-137.6 -446.8,-137.6 -444.8,-130.9 -444,-130.6 -432.3,-130.6 	"/>
	
		<line fill="none" stroke="#000000" stroke-linecap="round" stroke-linejoin="round" stroke-miterlimit="10" x1="-455.2" y1="-138.1" x2="-452.7" y2="-137.6"/>
	
		<line fill="none" stroke="#000000" stroke-linejoin="round" stroke-miterlimit="10" x1="-443.4" y1="-132.3" x2="-437.1" y2="-132.3"/>
	<line fill="none" stroke="#000000" stroke-linejoin="round" stroke-miterlimit="10" x1="-443.4" y1="-134" x2="-437.1" y2="-134"/>
	
		<line fill="none" stroke="#000000" stroke-linejoin="round" stroke-miterlimit="10" x1="-443.4" y1="-137.2" x2="-437.1" y2="-137.2"/>
	
		<line fill="none" stroke="#000000" stroke-linejoin="round" stroke-miterlimit="10" x1="-443.4" y1="-138.9" x2="-437.1" y2="-138.9"/>
	<g>
		<path d="M-437.2-130.1h-6.3c-0.3,0-0.5-0.2-0.5-0.5v-10c0-0.3,0.2-0.5,0.5-0.5h6.3c0.3,0,0.5,0.2,0.5,0.5v10
			C-436.7-130.3-436.9-130.1-437.2-130.1z M-442.9-131.1h5.3v-9h-5.3V-131.1z"/>
	</g>
</g>
<g>
	<path fill="none" stroke="#000000" stroke-linecap="round" stroke-linejoin="round" stroke-miterlimit="10" d="M-149.7-136.7v-4.5
		c0-3.6,2.5-2.7,3.7-2.6c4.8,0.6,8.1,0.5,8.1-1.4c0-2.1-7.7-1.9-5.5,1.6"/>
	<path fill="none" stroke="#000000" stroke-linecap="round" stroke-linejoin="round" stroke-miterlimit="10" d="M-147-144.1
		c-1.2-2.7,1.6-5.4,6.7-5.4c4.8,0,6.4,2.2,6.4,4c0,3.8-4.2,5.8-10.8,4.8c-1.9-0.3-1.9,0.6-1.9,1.8v3.2"/>
	<polyline fill="none" stroke="#000000" stroke-linecap="round" stroke-linejoin="round" stroke-miterlimit="10" points="
		-151.5,-137.3 -141.8,-134 -132,-137.3 	"/>
	
		<line fill="none" stroke="#000000" stroke-linecap="round" stroke-linejoin="round" stroke-miterlimit="10" x1="-151.5" y1="-137.3" x2="-149.7" y2="-137.9"/>
	
		<line fill="none" stroke="#000000" stroke-linecap="round" stroke-linejoin="round" stroke-miterlimit="10" x1="-132" y1="-137.3" x2="-133.9" y2="-137.9"/>
	<polygon fill="none" stroke="#000000" stroke-linecap="round" stroke-linejoin="round" stroke-miterlimit="10" points="
		-145.2,-128.3 -155,-131.6 -151.5,-137.3 -141.8,-134 	"/>
	<polygon fill="none" stroke="#000000" stroke-linecap="round" stroke-linejoin="round" stroke-miterlimit="10" points="
		-138.3,-128.3 -128.6,-131.6 -132,-137.3 -141.8,-134 	"/>
	
		<line fill="none" stroke="#000000" stroke-linecap="round" stroke-linejoin="round" stroke-miterlimit="10" x1="-141.8" y1="-134" x2="-141.8" y2="-118.5"/>
	
		<line fill="none" stroke="#000000" stroke-linecap="round" stroke-linejoin="round" stroke-miterlimit="10" x1="-133.9" y1="-145.2" x2="-133.9" y2="-137.1"/>
	<polyline fill="none" stroke="#000000" stroke-linecap="round" stroke-linejoin="round" stroke-miterlimit="10" points="
		-132,-130.4 -132,-121.8 -141.8,-118.5 -151.5,-121.8 -151.5,-130.4 	"/>
</g>
<g>
	<g>
		<path d="M-379.2-55.7v-3.5l-0.9,0.3l-0.4-1l2.1-0.8h0.4v5H-379.2z"/>
		<path d="M-374.5-55.6c-1.5,0-2.2-1.2-2.2-2.5c0-1.3,0.7-2.5,2.2-2.5c1.5,0,2.2,1.2,2.2,2.5C-372.3-56.8-373.1-55.6-374.5-55.6z
			 M-374.5-59.6c-0.6,0-0.9,0.6-0.9,1.5c0,0.9,0.3,1.5,0.9,1.5c0.6,0,0.9-0.6,0.9-1.5C-373.6-59-373.9-59.6-374.5-59.6z"/>
		<path d="M-369.4-55.6c-1.5,0-2.2-1.2-2.2-2.5c0-1.3,0.7-2.5,2.2-2.5c1.5,0,2.2,1.2,2.2,2.5C-367.2-56.8-367.9-55.6-369.4-55.6z
			 M-369.4-59.6c-0.6,0-0.9,0.6-0.9,1.5c0,0.9,0.3,1.5,0.9,1.5c0.6,0,0.9-0.6,0.9-1.5C-368.5-59-368.8-59.6-369.4-59.6z"/>
	</g>
	<path fill="none" stroke="#000000" stroke-linecap="round" stroke-linejoin="round" stroke-miterlimit="10" d="M-354.3-52.1
		c0.3-1.4,0.4-3.7,0.4-6.2c0-2.5-0.2-4.8-0.4-6.2c0,0,0,0,0,0c0.9-0.9,1.2-2,0.8-2.5c-0.4-0.4-1.4-0.1-2.3,0.7
		c-2.1-0.5-7.1-0.9-13-0.9c-5.9,0-10.9,0.4-13,1c-0.8-0.8-1.8-1.2-2.3-0.7c-0.4,0.5-0.1,1.6,0.8,2.5c0,0,0,0,0,0
		c-0.3,1.4-0.4,3.7-0.4,6.2c0,2.5,0.2,4.8,0.4,6.2c0,0,0,0,0,0c-0.9,0.9-1.2,2-0.8,2.5c0.4,0.4,1.4,0.1,2.3-0.7
		c2.1,0.5,7.1,0.9,13,0.9c5.9,0,10.9-0.4,13-1c0.8,0.8,1.8,1.2,2.3,0.7C-353-50-353.4-51.2-354.3-52.1
		C-354.2-52.1-354.3-52.1-354.3-52.1z"/>
	<g>
		<path fill="none" stroke="#000000" stroke-linecap="round" stroke-linejoin="round" stroke-miterlimit="10" d="M-362.8-57.8
			c-0.5-0.9-0.3-2.1,0.3-2.8c-0.4,0-0.7,0.1-1.1,0.3c-1.3,0.6-1.9,2.2-1.2,3.5c0.7,1.3,2.3,1.8,3.7,1.1c0.3-0.2,0.6-0.4,0.9-0.7
			C-361.3-56.3-362.3-56.9-362.8-57.8z"/>
		<path fill="none" stroke="#2E52A4" stroke-linecap="round" stroke-linejoin="round" stroke-miterlimit="10" d="M-362.5-60.6"/>
		<path fill="none" stroke="#000000" stroke-linecap="round" stroke-linejoin="round" stroke-miterlimit="10" d="M-360.2-56.4"/>
		<path fill="none" stroke="#000000" stroke-linecap="round" stroke-linejoin="round" stroke-miterlimit="10" d="M-362.5-60.6
			c-0.7,0.8-0.8,1.9-0.3,2.8c0.5,0.9,1.5,1.5,2.6,1.4"/>
	</g>
	<path fill="none" stroke="#000000" stroke-linecap="round" stroke-linejoin="round" stroke-miterlimit="10" d="M-358.9-61.8
		c0,0.7-1.2,1.9-2,1.9c0.8,0,2,1.1,2,1.9c0-0.7,1.2-1.9,2-1.9C-357.7-60-358.9-61.1-358.9-61.8z"/>
</g>
<path fill="#010101" d="M-286.9-54.7l9.9-7.6h-12l-4-12l-4,12h-12l9.9,7.6l-3.9,12.4l10-7.7l10,7.7L-286.9-54.7z"/>
<polygon fill="none" stroke="#000000" stroke-linecap="round" stroke-linejoin="round" stroke-miterlimit="10" points="
	-217.1,-72.6 -212.3,-63.2 -201.6,-61.7 -209.4,-54.3 -207.5,-44 -217.1,-48.9 -226.7,-44 -224.9,-54.3 -232.6,-61.7 -221.9,-63.2 
	"/>
<g>
	<polygon fill="none" stroke="#000000" stroke-linecap="round" stroke-linejoin="round" stroke-miterlimit="10" points="
		-220.7,-131.8 -230.7,-135.1 -227.1,-140.8 -217.1,-137.5 	"/>
	<polygon fill="none" stroke="#000000" stroke-linecap="round" stroke-linejoin="round" stroke-miterlimit="10" points="
		-213.6,-131.8 -203.6,-135.1 -207.1,-140.8 -217.1,-137.5 	"/>
	
		<line fill="none" stroke="#000000" stroke-linecap="round" stroke-linejoin="round" stroke-miterlimit="10" x1="-217.1" y1="-137.5" x2="-217.1" y2="-121.9"/>
	<polyline fill="none" stroke="#000000" stroke-linecap="round" stroke-linejoin="round" stroke-miterlimit="10" points="
		-207.1,-133.9 -207.1,-125.2 -217.1,-121.9 -227.1,-125.2 -227.1,-133.9 	"/>
	<polygon fill="none" stroke="#000000" stroke-linecap="round" stroke-linejoin="round" stroke-miterlimit="10" points="
		-211.6,-146.2 -201.6,-142.8 -207.1,-140.8 -217.1,-144.2 	"/>
	<polygon fill="none" stroke="#000000" stroke-linecap="round" stroke-linejoin="round" stroke-miterlimit="10" points="
		-222.6,-146.2 -232.6,-142.8 -227.1,-140.8 -217.1,-144.2 	"/>
	
		<line fill="none" stroke="#000000" stroke-linecap="round" stroke-linejoin="round" stroke-miterlimit="10" x1="-217.1" y1="-137.5" x2="-217.1" y2="-121.9"/>
	<polyline fill="none" stroke="#000000" stroke-linecap="round" stroke-linejoin="round" stroke-miterlimit="10" points="
		-207.1,-133.3 -207.1,-125.2 -217.1,-121.9 -227.1,-125.2 -227.1,-133.4 	"/>
</g>
<path fill="none" stroke="#000000" stroke-miterlimit="10" d="M-282.5-132.9h-6.7c-1,0-1.9-0.8-1.9-1.9v-0.5c0-1.3,1.1-2.4,2.4-2.4
	h6.7c1,0,1.8,0.8,1.8,1.8v0.6C-280.1-134-281.1-132.9-282.5-132.9z"/>
<path fill="none" stroke="#000000" stroke-miterlimit="10" d="M-281.6-123.3h-7.5c-1,0-1.9-0.8-1.9-1.9v-0.5c0-1.3,1.1-2.4,2.4-2.4
	h7c1,0,1.8,0.8,1.8,1.8v1.1C-279.8-124.2-280.6-123.3-281.6-123.3z"/>
<path fill="none" stroke="#000000" stroke-miterlimit="10" d="M-283.3-118.5h-4.5c-1,0-1.9-0.8-1.9-1.9v-0.5c0-1.3,1.1-2.4,2.4-2.4
	h3.4c1.3,0,2.4,1.1,2.4,2.4v0.6C-281.5-119.4-282.3-118.5-283.3-118.5z"/>
<path fill="none" stroke="#000000" stroke-miterlimit="10" d="M-280.2-128.1h-10c-1,0-1.9-0.8-1.9-1.9v-0.5c0-1.3,1.1-2.4,2.4-2.4
	h9.4c1,0,1.8,0.8,1.8,1.8v1.1C-278.3-129-279.1-128.1-280.2-128.1z"/>
<path fill="none" stroke="#000000" stroke-linecap="round" stroke-linejoin="round" stroke-miterlimit="10" d="M-296.8-128.4
	c0,0,2.9-0.2,4.7-2.7"/>
<path fill="none" stroke="#000000" stroke-linecap="round" stroke-linejoin="round" stroke-miterlimit="10" d="M-285.5-118.5h-8.9
	c0,0-5.6,0.3-7.1-4.5h-6.1v-13.4h6.6c1.1-0.9,4.5-4.2,5.3-4.8c0.6-0.5,1.4-1.1,2.2-1.5c0.7-0.4,1.2-0.7,1.9-1c0.3-0.2,0.7-0.3,1-0.6
	c0.3-0.2,0.5-0.5,0.8-0.8c0.6-0.8,1.2-1.7,1.7-2.5c0.2-0.4,0.4-0.8,0.6-1.2c0.5-0.7,1.4-0.7,2.1-0.4c0.8,0.4,1.2,1.2,1.5,2
	c0,0,0.8,2.4-0.9,5c0,0-2.2,3.3-3.5,4.4"/>
<g>
	<path fill="none" stroke="#000000" stroke-linecap="round" stroke-linejoin="round" stroke-miterlimit="10" d="M-54.3-129.7
		c-3.9,0-7.1-3.2-7.1-7.1c0-1.8,0.7-3.4,1.8-4.7c0,0-7,0.8-7,7.1c0,3.9,3.2,7.1,7.1,7.1C-55.9-127.3-54.3-129.7-54.3-129.7z"/>
	<path fill="none" stroke="#000000" stroke-linecap="round" stroke-linejoin="round" stroke-miterlimit="10" d="M-76.3-141.6
		c0,2.6-2.1,4.8-4.8,4.8c2.6,0,4.8,2.1,4.8,4.8c0-2.6,2.1-4.8,4.8-4.8C-74.2-136.8-76.3-139-76.3-141.6z"/>
	<g>
		<path fill="none" stroke="#000000" stroke-linecap="round" stroke-linejoin="round" stroke-miterlimit="10" d="M-71.1-132.2
			c0,1.2-1.6,2.8-2.8,2.8c1.2,0,2.8,1.6,2.8,2.8c0-1.2,1.6-2.8,2.8-2.8C-69.4-129.3-71.1-130.9-71.1-132.2z"/>
	</g>
	<g>
		<path fill="none" stroke="#000000" stroke-linecap="round" stroke-linejoin="round" stroke-miterlimit="10" d="M-52.9-140.7
			c0,1.2-1.6,2.8-2.8,2.8c1.2,0,2.8,1.6,2.8,2.8c0-1.2,1.6-2.8,2.8-2.8C-51.3-137.9-52.9-139.5-52.9-140.7z"/>
	</g>
</g>
<g>
	
		<ellipse fill="none" stroke="#000000" stroke-linecap="round" stroke-linejoin="round" stroke-miterlimit="10" cx="16" cy="-134" rx="8.4" ry="8.2"/>
	
		<line fill="none" stroke="#000000" stroke-linecap="round" stroke-linejoin="round" stroke-miterlimit="10" x1="16" y1="-149.5" x2="16" y2="-146.2"/>
	
		<line fill="none" stroke="#000000" stroke-linecap="round" stroke-linejoin="round" stroke-miterlimit="10" x1="6.6" y1="-146.6" x2="8.6" y2="-143.9"/>
	
		<line fill="none" stroke="#000000" stroke-linecap="round" stroke-linejoin="round" stroke-miterlimit="10" x1="0.9" y1="-138.8" x2="4.1" y2="-137.8"/>
	
		<line fill="none" stroke="#000000" stroke-linecap="round" stroke-linejoin="round" stroke-miterlimit="10" x1="0.9" y1="-129.3" x2="4.1" y2="-130.3"/>
	
		<line fill="none" stroke="#000000" stroke-linecap="round" stroke-linejoin="round" stroke-miterlimit="10" x1="6.6" y1="-121.5" x2="8.6" y2="-124.2"/>
	
		<line fill="none" stroke="#000000" stroke-linecap="round" stroke-linejoin="round" stroke-miterlimit="10" x1="16" y1="-118.5" x2="16" y2="-121.9"/>
	
		<line fill="none" stroke="#000000" stroke-linecap="round" stroke-linejoin="round" stroke-miterlimit="10" x1="25.4" y1="-121.5" x2="23.4" y2="-124.2"/>
	
		<line fill="none" stroke="#000000" stroke-linecap="round" stroke-linejoin="round" stroke-miterlimit="10" x1="31.1" y1="-129.3" x2="27.9" y2="-130.3"/>
	
		<line fill="none" stroke="#000000" stroke-linecap="round" stroke-linejoin="round" stroke-miterlimit="10" x1="31.1" y1="-138.8" x2="27.9" y2="-137.8"/>
	
		<line fill="none" stroke="#000000" stroke-linecap="round" stroke-linejoin="round" stroke-miterlimit="10" x1="25.4" y1="-146.6" x2="23.4" y2="-143.9"/>
</g>
<g>
	<path fill="none" stroke="#000000" stroke-linecap="round" stroke-linejoin="round" stroke-miterlimit="10" d="M-433.7-53.3
		c0,1.1-1,2.1-2.2,2.1c-1.3,0-2.2-0.9-2.2-2.1s1-2.1,2.2-2.1C-434.6-55.4-433.7-54.4-433.7-53.3z M-450.9-53.1c0,1.1-1,2.1-2.2,2.1
		c-1.3,0-2.2-0.9-2.2-2.1s1-2.1,2.2-2.1S-450.9-54.2-450.9-53.1z M-431.7-53.3h2.7 M-448.8-53.3h8.6 M-445.9-55.8v-9.8h15.5v9.9
		 M-448.4-64.5h-5.1l-2.7,4.7l-3.8,1.2v5.3h2.8 M-443.6-62.9h11"/>
</g>
<g>
	
		<line fill="none" stroke="#000000" stroke-linecap="round" stroke-linejoin="round" stroke-miterlimit="10" x1="-126.3" y1="-66.9" x2="-144.2" y2="-66.9"/>
	
		<line fill="none" stroke="#000000" stroke-linecap="round" stroke-linejoin="round" stroke-miterlimit="10" x1="-126.3" y1="-62.6" x2="-144.2" y2="-62.6"/>
	
		<line fill="none" stroke="#000000" stroke-linecap="round" stroke-linejoin="round" stroke-miterlimit="10" x1="-126.3" y1="-58.3" x2="-144.2" y2="-58.3"/>
	
		<line fill="none" stroke="#000000" stroke-linecap="round" stroke-linejoin="round" stroke-miterlimit="10" x1="-126.3" y1="-54" x2="-157.3" y2="-54"/>
	
		<line fill="none" stroke="#000000" stroke-linecap="round" stroke-linejoin="round" stroke-miterlimit="10" x1="-126.3" y1="-49.7" x2="-157.3" y2="-49.7"/>
	<g>
		<path d="M-148.3-57.8h-9c-0.3,0-0.5-0.2-0.5-0.5v-8.6c0-0.3,0.2-0.5,0.5-0.5h9c0.3,0,0.5,0.2,0.5,0.5v8.6
			C-147.8-58-148-57.8-148.3-57.8z M-156.8-58.8h8v-7.6h-8V-58.8z"/>
	</g>
</g>
<g>
	<line fill="none" stroke="#000000" stroke-linejoin="round" stroke-miterlimit="10" x1="-61.5" y1="-47.6" x2="-61.5" y2="-43.5"/>
	<line fill="none" stroke="#000000" stroke-linejoin="round" stroke-miterlimit="10" x1="-65.6" y1="-47" x2="-65.6" y2="-42.8"/>
	<line fill="none" stroke="#000000" stroke-linejoin="round" stroke-miterlimit="10" x1="-57.4" y1="-50.2" x2="-57.4" y2="-46"/>
	<line fill="none" stroke="#000000" stroke-linejoin="round" stroke-miterlimit="10" x1="-69.7" y1="-47.7" x2="-69.7" y2="-43.5"/>
	<line fill="none" stroke="#000000" stroke-linejoin="round" stroke-miterlimit="10" x1="-73.8" y1="-50.3" x2="-73.8" y2="-46"/>
	<path fill="none" stroke="#000000" stroke-linecap="round" stroke-linejoin="round" stroke-miterlimit="10" d="M-52.8-60.5v3.8
		c0,7.7-5.7,13.9-12.8,13.9S-78.4-49-78.4-56.7v-3.8"/>
	
		<ellipse fill="none" stroke="#000000" stroke-linecap="round" stroke-linejoin="round" stroke-miterlimit="10" cx="-65.6" cy="-60.5" rx="12.8" ry="13.3"/>
</g>
<text transform="matrix(0.9664 0 0 1 -73.11 -56.8765)" font-family="'Verlag-Black'" font-size="11.6196">0%</text>
<g>
	
		<line fill="none" stroke="#000000" stroke-linecap="round" stroke-linejoin="round" stroke-miterlimit="10" x1="6.1" y1="-61.2" x2="4.3" y2="-61.2"/>
	<path fill="none" stroke="#000000" stroke-linecap="round" stroke-linejoin="round" stroke-miterlimit="10" d="M16.5-64.6
		c0-1.9,1.6-3.4,3.6-3.4s3.6,1.5,3.6,3.4s-1.6,3.4-3.6,3.4H8.8"/>
	<path fill="none" stroke="#000000" stroke-linecap="round" stroke-linejoin="round" stroke-miterlimit="10" d="M16.5-52
		c0,1.9,1.6,3.4,3.6,3.4s3.6-1.5,3.6-3.4s-1.6-3.4-3.6-3.4H4.3"/>
	
		<line fill="none" stroke="#000000" stroke-linecap="round" stroke-linejoin="round" stroke-miterlimit="10" x1="11.8" y1="-58.3" x2="0.5" y2="-58.3"/>
	<path fill="none" stroke="#000000" stroke-linecap="round" stroke-linejoin="round" stroke-miterlimit="10" d="M27.1-62.5
		c0.5-0.4,1.1-0.7,1.8-0.7c1.4,0,2.6,1.1,2.6,2.5c0,1.4-1.2,2.5-2.6,2.5H14.5"/>
</g>
<g>
	
		<line fill="none" stroke="#000000" stroke-linecap="round" stroke-linejoin="round" stroke-miterlimit="10" x1="-452.2" y1="6.4" x2="-452.2" y2="9.6"/>
	
		<ellipse fill="none" stroke="#000000" stroke-linecap="round" stroke-linejoin="round" stroke-miterlimit="10" cx="-452.2" cy="12.5" rx="3" ry="2.9"/>
	<path fill="none" stroke="#000000" stroke-linecap="round" stroke-linejoin="round" stroke-miterlimit="10" d="M-443.9,14.6
		c0,3.4-2.9,6.2-6.4,6.2h-4.2"/>
	
		<line fill="none" stroke="#000000" stroke-linecap="round" stroke-linejoin="round" stroke-miterlimit="10" x1="-453.1" y1="15.4" x2="-457.3" y2="30.9"/>
	
		<line fill="none" stroke="#000000" stroke-linecap="round" stroke-linejoin="round" stroke-miterlimit="10" x1="-451.4" y1="15.4" x2="-447.1" y2="31.1"/>
	<g>
		<polygon fill="none" stroke="#000000" stroke-linecap="round" stroke-linejoin="round" stroke-miterlimit="10" points="
			-431.7,0.5 -447,0.5 -431.7,31.5 		"/>
		<polygon fill="none" stroke="#000000" stroke-linecap="round" stroke-linejoin="round" stroke-miterlimit="10" points="-435.4,5 
			-440.1,5 -435.4,14.4 		"/>
	</g>
</g>
<g>
	<polygon fill="none" stroke="#000000" stroke-linecap="round" stroke-linejoin="round" stroke-miterlimit="10" points="
		-384.2,15.9 -357.2,15.9 -361.2,10.1 -380.3,10.1 	"/>
	<polyline fill="none" stroke="#000000" stroke-linecap="round" stroke-linejoin="round" stroke-miterlimit="10" points="
		-357.2,15.9 -370.7,29.7 -384.2,15.9 	"/>
	
		<line fill="none" stroke="#000000" stroke-linecap="round" stroke-linejoin="round" stroke-miterlimit="10" x1="-361.2" y1="10.1" x2="-370.7" y2="29.7"/>
	
		<line fill="none" stroke="#000000" stroke-linecap="round" stroke-linejoin="round" stroke-miterlimit="10" x1="-380.3" y1="10.1" x2="-370.7" y2="29.7"/>
	<polyline fill="none" stroke="#000000" stroke-linecap="round" stroke-linejoin="round" stroke-miterlimit="10" points="-364,15.9 
		-370.7,10.1 -377.5,16 	"/>
	
		<line fill="none" stroke="#000000" stroke-linecap="round" stroke-linejoin="round" stroke-miterlimit="10" x1="-353.2" y1="8.2" x2="-356" y2="9.8"/>
	
		<line fill="none" stroke="#000000" stroke-linecap="round" stroke-linejoin="round" stroke-miterlimit="10" x1="-360" y1="6.8" x2="-357.8" y2="4.3"/>
	
		<line fill="none" stroke="#000000" stroke-linecap="round" stroke-linejoin="round" stroke-miterlimit="10" x1="-364.6" y1="5.3" x2="-363.3" y2="2.3"/>
</g>
<g>
	<path fill="none" stroke="#000000" stroke-miterlimit="10" d="M-277.9,17.8c-0.1,1.2-0.5,3.6-0.5,4.1c-0.1,0.6-0.4,0.8-1.4,0.8
		H-293h-13.2c-1,0-1.3-0.3-1.4-0.8c-0.1-0.4-0.5-2.8-0.5-4.1"/>
	<path fill="none" stroke="#000000" stroke-miterlimit="10" d="M-293,17.8h15.1c0.3,0,0.5-0.2,0.3-0.5l-7.6-7.7
		c-0.1-0.2-0.4-0.3-0.8-0.3h-7h-7.1c-0.4,0-0.6,0.1-0.8,0.3l-7.6,7.7c-0.2,0.3-0.1,0.5,0.3,0.5H-293z"/>
</g>
<g>
	<path fill="none" stroke="#000000" stroke-miterlimit="10" d="M-202,17.8c-0.1,1.2-0.5,3.6-0.5,4.1c-0.1,0.6-0.4,0.8-1.4,0.8h-13.1
		h-13.2c-1,0-1.3-0.3-1.4-0.8c-0.1-0.4-0.5-2.8-0.5-4.1"/>
	<path fill="none" stroke="#000000" stroke-miterlimit="10" d="M-217.1,17.8h15.1c0.3,0,0.5-0.2,0.3-0.5l-7.6-7.7
		c-0.1-0.2-0.4-0.3-0.8-0.3h-7h-7.1c-0.4,0-0.6,0.1-0.8,0.3l-7.6,7.7c-0.2,0.3-0.1,0.5,0.3,0.5H-217.1z"/>
</g>
<rect x="-230.1" y="3" fill="none" width="29" height="7.7"/>
<text transform="matrix(0.9664 0 0 1 -230.1223 5.5807)" font-family="'Calibre-Thin'" font-size="4">*add check mark</text>
<g>
	<g>
		<path d="M-126.6,32h-30.3c-0.3,0-0.5-0.2-0.5-0.5v-31c0-0.3,0.2-0.5,0.5-0.5h30.3c0.3,0,0.5,0.2,0.5,0.5v31
			C-126.1,31.8-126.4,32-126.6,32z M-156.4,31h29.3V1h-29.3V31z"/>
	</g>
	
		<line fill="none" stroke="#000000" stroke-linecap="round" stroke-linejoin="round" stroke-miterlimit="10" x1="-141.7" y1="11.4" x2="-141.7" y2="0.5"/>
	
		<line fill="none" stroke="#000000" stroke-linecap="round" stroke-linejoin="round" stroke-miterlimit="10" x1="-146.7" y1="7.5" x2="-146.7" y2="1.3"/>
	
		<line fill="none" stroke="#000000" stroke-linecap="round" stroke-linejoin="round" stroke-miterlimit="10" x1="-151.7" y1="7.5" x2="-151.7" y2="0.8"/>
	
		<line fill="none" stroke="#000000" stroke-linecap="round" stroke-linejoin="round" stroke-miterlimit="10" x1="-136.7" y1="7.5" x2="-136.7" y2="1.3"/>
	
		<line fill="none" stroke="#000000" stroke-linecap="round" stroke-linejoin="round" stroke-miterlimit="10" x1="-131.7" y1="7.5" x2="-131.7" y2="0.8"/>
	<polyline fill="none" stroke="#000000" stroke-linecap="round" stroke-linejoin="round" stroke-miterlimit="10" points="
		-140.8,26.2 -140.8,16.5 -146.1,22.9 -138.4,22.9 	"/>
</g>
<g>
	
		<ellipse fill="#FFFFFF" stroke="#2E52A4" stroke-linecap="round" stroke-linejoin="round" stroke-miterlimit="10" cx="-65.6" cy="16" rx="15.5" ry="15.1"/>
	
		<line fill="#FFFFFF" stroke="#2E52A4" stroke-linecap="round" stroke-linejoin="round" stroke-miterlimit="10" x1="-81.1" y1="16" x2="-50.1" y2="16"/>
	
		<line fill="#FFFFFF" stroke="#2E52A4" stroke-linecap="round" stroke-linejoin="round" stroke-miterlimit="10" x1="-76.3" y1="13.1" x2="-76.3" y2="5.5"/>
	
		<line fill="#FFFFFF" stroke="#2E52A4" stroke-linecap="round" stroke-linejoin="round" stroke-miterlimit="10" x1="-71" y1="13.1" x2="-71" y2="2.5"/>
	
		<line fill="#FFFFFF" stroke="#2E52A4" stroke-linecap="round" stroke-linejoin="round" stroke-miterlimit="10" x1="-60.3" y1="13.1" x2="-60.3" y2="2.5"/>
	
		<line fill="#FFFFFF" stroke="#2E52A4" stroke-linecap="round" stroke-linejoin="round" stroke-miterlimit="10" x1="-65.6" y1="13.1" x2="-65.6" y2="1.7"/>
	
		<line fill="#FFFFFF" stroke="#2E52A4" stroke-linecap="round" stroke-linejoin="round" stroke-miterlimit="10" x1="-55" y1="13.1" x2="-55" y2="5.3"/>
	<g>
		<ellipse fill="#2E52A4" cx="-78.4" cy="18.9" rx="0.9" ry="0.9"/>
		<ellipse fill="#2E52A4" cx="-75.2" cy="18.9" rx="0.9" ry="0.9"/>
		<ellipse fill="#2E52A4" cx="-72" cy="18.9" rx="0.9" ry="0.9"/>
		<ellipse fill="#2E52A4" cx="-68.8" cy="18.9" rx="0.9" ry="0.9"/>
		<ellipse fill="#2E52A4" cx="-65.7" cy="18.9" rx="0.9" ry="0.9"/>
		<ellipse fill="#2E52A4" cx="-62.5" cy="18.9" rx="0.9" ry="0.9"/>
		<ellipse fill="#2E52A4" cx="-59.3" cy="18.9" rx="0.9" ry="0.9"/>
		<ellipse fill="#2E52A4" cx="-56.1" cy="18.9" rx="0.9" ry="0.9"/>
		<ellipse fill="#2E52A4" cx="-52.9" cy="18.9" rx="0.9" ry="0.9"/>
		<ellipse fill="#2E52A4" cx="-76.8" cy="22" rx="0.9" ry="0.9"/>
		<ellipse fill="#2E52A4" cx="-73.6" cy="22" rx="0.9" ry="0.9"/>
		<ellipse fill="#2E52A4" cx="-70.4" cy="22" rx="0.9" ry="0.9"/>
		<ellipse fill="#2E52A4" cx="-67.2" cy="22" rx="0.9" ry="0.9"/>
		<ellipse fill="#2E52A4" cx="-64.1" cy="22" rx="0.9" ry="0.9"/>
		<ellipse fill="#2E52A4" cx="-60.9" cy="22" rx="0.9" ry="0.9"/>
		<ellipse fill="#2E52A4" cx="-57.7" cy="22" rx="0.9" ry="0.9"/>
		<ellipse fill="#2E52A4" cx="-54.5" cy="22" rx="0.9" ry="0.9"/>
		<ellipse fill="#2E52A4" cx="-75.2" cy="25.1" rx="0.9" ry="0.9"/>
		<ellipse fill="#2E52A4" cx="-72" cy="25.1" rx="0.9" ry="0.9"/>
		<ellipse fill="#2E52A4" cx="-68.8" cy="25.1" rx="0.9" ry="0.9"/>
		<ellipse fill="#2E52A4" cx="-65.7" cy="25.1" rx="0.9" ry="0.9"/>
		<ellipse fill="#2E52A4" cx="-62.5" cy="25.1" rx="0.9" ry="0.9"/>
		<ellipse fill="#2E52A4" cx="-59.3" cy="25.1" rx="0.9" ry="0.9"/>
		<ellipse fill="#2E52A4" cx="-56.1" cy="25.1" rx="0.9" ry="0.9"/>
		<ellipse fill="#2E52A4" cx="-73.6" cy="28.2" rx="0.9" ry="0.9"/>
		<ellipse fill="#2E52A4" cx="-70.4" cy="28.2" rx="0.9" ry="0.9"/>
		<ellipse fill="#2E52A4" cx="-67.2" cy="28.2" rx="0.9" ry="0.9"/>
		<ellipse fill="#2E52A4" cx="-64.1" cy="28.2" rx="0.9" ry="0.9"/>
		<ellipse fill="#2E52A4" cx="-60.9" cy="28.2" rx="0.9" ry="0.9"/>
		<ellipse fill="#2E52A4" cx="-57.7" cy="28.2" rx="0.9" ry="0.9"/>
	</g>
</g>
<g>
	<g>
		<path d="M31.5,23.5h-31C0.2,23.5,0,23.3,0,23v-5.6C0,17.2,0.2,17,0.5,17h31c0.3,0,0.5,0.2,0.5,0.5V23C32,23.3,31.8,23.5,31.5,23.5
			z M1,22.5h30V18H1V22.5z"/>
	</g>
	<g>
		<path d="M31.5,15.2h-31C0.2,15.2,0,15,0,14.7v-3c0-0.3,0.2-0.5,0.5-0.5h31c0.3,0,0.5,0.2,0.5,0.5v3C32,15,31.8,15.2,31.5,15.2z
			 M1,14.2h30v-2H1V14.2z"/>
	</g>
	
		<line fill="none" stroke="#000000" stroke-linecap="round" stroke-linejoin="round" stroke-miterlimit="10" x1="31.5" y1="9" x2="0.5" y2="9"/>
</g>
</svg>
