<?xml version="1.0" encoding="utf-8"?>
<!-- Generator: Adobe Illustrator 18.1.1, SVG Export Plug-In . SVG Version: 6.00 Build 0)  -->
<svg version="1.1" id="Layer_1" xmlns="http://www.w3.org/2000/svg" xmlns:xlink="http://www.w3.org/1999/xlink" x="0px" y="0px"
	 viewBox="0 0 50 27" enable-background="new 0 0 50 27" xml:space="preserve">
<title>Mattress</title>
<desc>Line drawing of the Casper Mattress</desc>
<path d="M49.3,14C49.3,14,49.3,13.9,49.3,14L37.6,1.4c-0.4-0.5-1.1-0.8-1.8-0.8H14.2c-0.8,0-1.5,0.3-1.8,0.8L0.8,13.9
	c0,0-0.1,0.1-0.1,0.1c-0.3,0.5-0.4,1.1-0.2,1.5C0.6,15.7,0.8,15.9,1,16c0.2,2.1,0.7,5.3,0.8,6.1c0.3,2.1,2.3,2.1,3,2.1h40.4
	c0.7,0,2.7,0,3-2.1c0,0,0.6-3.7,0.8-6.1c0.2-0.1,0.4-0.3,0.5-0.5C49.7,15.1,49.7,14.5,49.3,14z M13.7,2.4c0,0,0.2-0.1,0.5-0.1h21.6
	c0.3,0,0.4,0.1,0.4,0.1c0,0,0.1,0.1,0.1,0.1l11.1,12l-44.8,0L13.7,2.4z M45.2,22.5H4.8c-1.2,0-1.2-0.3-1.3-0.6
	c-0.1-0.8-0.5-3.6-0.7-5.6h44.4c-0.2,1.9-0.6,4.6-0.7,5.6C46.4,22.2,46.4,22.5,45.2,22.5z"/>
</svg>
