<?xml version="1.0" encoding="utf-8"?>
<!-- Generator: Adobe Illustrator 18.1.1, SVG Export Plug-In . SVG Version: 6.00 Build 0)  -->
<svg version="1.1" id="Layer_1" xmlns="http://www.w3.org/2000/svg" xmlns:xlink="http://www.w3.org/1999/xlink" x="0px" y="0px"
	 viewBox="0 0 32 32" enable-background="new 0 0 32 32" xml:space="preserve">
<title>Mattress</title>
<desc>Icon line drawing of the Casper Mattress</desc>
<g>
	<path fill="none" stroke="#000000" stroke-miterlimit="10" d="M31.1,17.8c-0.1,1.2-0.5,3.6-0.5,4.1c-0.1,0.6-0.4,0.8-1.4,0.8H16
		H2.8c-1,0-1.3-0.3-1.4-0.8C1.3,21.4,1,19,0.9,17.8"/>
	<path fill="none" stroke="#000000" stroke-miterlimit="10" d="M16,17.8h15.1c0.3,0,0.5-0.2,0.3-0.5l-7.6-7.7
		c-0.1-0.2-0.4-0.3-0.8-0.3h-7H9c-0.4,0-0.6,0.1-0.8,0.3l-7.6,7.7c-0.2,0.3-0.1,0.5,0.3,0.5H16z"/>
</g>
</svg>
