<svg xmlns="http://www.w3.org/2000/svg" width="91.1" height="27" viewBox="0 0 91.1 27"><g><title>Maxima</title><desc>Maxima Logo</desc><path d="M51.77 3.61c-.46.13-1.19.86-1.33 1.34-.25.85-.07 1.55.55 2.18.38.38.53.47.95.56.97.2 1.85-.22 2.28-1.09.48-.98.14-2.21-.76-2.77-.47-.28-1.14-.38-1.69-.22zM8.99 9.57c-.94.15-2.05.83-2.78 1.69l-.44.53V9.85H.72v.3c0 .27.03.3.28.37.5.1.84.32.98.61.11.24.13.93.13 4.94 0 5.06 0 5.06-.47 5.42-.13.1-.38.21-.57.24-.33.05-.35.08-.35.36v.3h6.36v-.29c0-.25-.03-.3-.46-.45-.78-.3-.76-.14-.76-4.81V12.8l.53-.55c.66-.69 1.21-.95 1.88-.9.56.05.87.25 1.11.73.17.32.17.51.17 4.72v4.39l-.29.25c-.16.15-.43.27-.63.3-.32.05-.35.08-.35.35v.3h6.26v-.3c0-.27-.03-.3-.38-.4-.22-.06-.48-.2-.59-.32l-.2-.22-.03-4.23-.03-4.23.49-.45c.89-.84 1.75-1.11 2.47-.74.37.19.57.56.71 1.31.12.67.11 7.66-.01 8.16-.11.43-.41.68-.92.77-.26.05-.29.09-.29.35v.3h6.26v-.3c0-.27-.03-.3-.35-.35-.2-.03-.47-.16-.63-.3l-.29-.25-.05-4.47c-.03-3.23-.08-4.56-.16-4.81-.51-1.62-2.25-2.62-4.03-2.32-.97.17-1.65.54-2.54 1.42-.43.42-.81.75-.85.72-.04-.03-.17-.23-.29-.47-.29-.57-.68-1-1.13-1.27-.59-.37-1.85-.56-2.71-.42zM27.4 9.59c-1.75.28-3.15 1.13-3.61 2.2-.29.66-.28 1.57.02 2.07.73 1.24 2.85 1.07 3.2-.26.14-.53.03-.97-.36-1.57-.41-.62-.43-.9-.08-1.23.35-.33.91-.47 1.69-.42 1.62.1 2.1.89 2.04 3.32l-.03 1.03-1.72.59c-4 1.38-5.34 2.41-5.44 4.28-.07 1.27.24 2.02 1.08 2.6.51.35 1.31.6 1.89.6 1.16-.01 2.58-.55 3.61-1.38.3-.24.56-.44.58-.44.02 0 .06.14.1.3.09.48.5 1.05.92 1.28.31.17.51.2 1.21.2.78 0 .86-.02 1.48-.32.38-.19.82-.5 1.07-.76l.43-.43-.2-.28-.19-.27-.19.17c-.25.24-.59.24-.8 0-.16-.17-.17-.41-.21-4.33-.04-4.06-.05-4.15-.24-4.64-.59-1.47-2.19-2.28-4.67-2.38-.59.01-1.3.03-1.58.07zm2.83 8.14v2.05l-.37.37c-.57.57-1.31.85-1.85.72-.42-.1-.83-.56-.97-1.08-.5-1.73.84-3.48 3.17-4.1.01 0 .02.92.02 2.04zM64.33 9.64c-.86.22-1.37.54-2.18 1.36l-.77.77V9.85h-5.04v.29c0 .27.03.3.54.45.44.14.57.23.72.48.17.3.17.44.17 5.05 0 4.42-.01 4.76-.16 5.03-.17.3-.72.62-1.08.63-.17 0-.2.04-.2.3v.3h6.44v-.3c0-.21-.04-.3-.13-.3-.07 0-.29-.06-.48-.14-.66-.27-.65-.18-.68-4.6-.02-2.15 0-4 .03-4.12.07-.28.78-1.03 1.24-1.3.83-.49 1.87-.33 2.2.33.31.6.36 1.37.33 5.27-.03 4.22-.02 4.16-.68 4.42-.19.08-.41.14-.48.14-.09 0-.13.1-.13.3v.3h6.18v-.29c0-.26-.03-.3-.44-.44-.77-.28-.74-.04-.77-4.75l-.03-4.13.55-.54c.64-.61 1.07-.84 1.68-.89.62-.05.98.16 1.26.71l.22.44v4.28c0 4.21 0 4.28-.18 4.53-.12.16-.34.29-.63.37-.43.12-.45.15-.45.41v.29h6.36v-.3c0-.27-.03-.3-.32-.35-.56-.09-.86-.33-.97-.77-.06-.27-.1-1.68-.1-4.37 0-3.31-.03-4.07-.14-4.58-.31-1.4-1.51-2.35-3.11-2.48-1.26-.11-2.39.37-3.52 1.51-.4.4-.74.72-.76.72-.03 0-.17-.24-.32-.52-.37-.69-.96-1.23-1.59-1.47-.66-.24-1.9-.3-2.58-.12zM83.23 9.56c-1.74.24-3.12 1-3.7 2.05-.23.43-.26.55-.26 1.27 0 .76.01.81.27 1.12.65.81 1.9.96 2.65.32.71-.59.68-1.54-.05-2.54-.12-.17-.22-.37-.22-.46 0-.27.53-.74.97-.85.59-.17 1.62-.07 2.08.18.77.42.96 1 .96 2.89l-.01 1.24-1.54.5c-3.46 1.14-5 2.11-5.47 3.5-.23.63-.21 1.87.03 2.4.24.55.73 1.01 1.41 1.33.51.24.66.27 1.4.27.68 0 .97-.04 1.6-.25.77-.25 1.82-.87 2.22-1.31.12-.12.24-.23.28-.23s.13.2.21.44c.39 1.17 1.5 1.63 2.96 1.24.64-.16 1.1-.43 1.66-.94l.43-.38-.17-.31-.17-.3-.23.17c-.32.24-.65.22-.82-.02-.12-.17-.14-.68-.14-3.81 0-1.98-.04-3.87-.09-4.2-.25-1.73-1.12-2.61-3.09-3.12-.68-.17-2.5-.29-3.17-.2zm2.7 8.18v1.95l-.32.36c-.49.54-1.02.81-1.59.82-.9 0-1.39-.62-1.39-1.77s.55-2.07 1.6-2.71c.52-.31 1.53-.71 1.65-.64.02.02.05.91.05 1.99zM35.88 10.16c0 .27.03.3.33.38.18.05.44.2.56.33.31.34 3.85 5.87 3.85 6.03 0 .21-2.28 3.2-2.99 3.93-.61.62-.88.78-1.63 1-.06.02-.11.15-.11.3v.26h4.52v-.26c0-.15-.02-.26-.03-.26-.02 0-.24-.04-.49-.09-1.17-.22-1.05-.78.6-3.03.4-.54.75-.97.77-.97.11.01 1.81 2.74 1.95 3.14.18.52-.03.77-.82.9-.3.04-.33.08-.33.3v.26h6.44v-.29c0-.24-.05-.3-.32-.45-.27-.15-.66-.7-2.36-3.31-1.11-1.72-2.05-3.18-2.07-3.24-.07-.14 2.87-3.82 3.3-4.13.2-.14.57-.31.82-.39.44-.13.46-.15.46-.44v-.3h-4.44v.3c0 .29.01.29.44.34.59.07.86.25.86.58 0 .41-.12.62-1.09 1.91l-.93 1.23-.24-.33c-.61-.89-1.5-2.37-1.59-2.65-.11-.39-.02-.56.37-.63.83-.17.77-.13.77-.45v-.3h-6.62v.33zM49.11 10.14c0 .26.03.3.5.45.91.32.85-.04.88 5.29.02 3.37 0 4.73-.08 5-.12.44-.4.69-.92.83-.35.09-.37.12-.37.38v.29h6.44v-.3c0-.26-.03-.3-.28-.35-.52-.1-.82-.35-.93-.77-.07-.28-.1-2.02-.1-5.75V9.85h-5.14v.29z"/></g></svg>