<?xml version="1.0" encoding="utf-8"?>
<!-- Generator: Adobe Illustrator 19.0.0, SVG Export Plug-In . SVG Version: 6.00 Build 0)  -->
<svg version="1.1" id="Layer_17" xmlns="http://www.w3.org/2000/svg" xmlns:xlink="http://www.w3.org/1999/xlink" x="0px" y="0px"
	 width="70.6px" height="27px" viewBox="0 0 70.6 27" style="enable-background:new 0 0 70.6 27;" xml:space="preserve">
<g>
	<path style="fill:#7D7D7D;" d="M13.4,5.1c-0.1,0-0.3,0.2-0.3,0.3c-0.8,1.7-1.7,3.5-2.5,5.2c-0.1,0.2-0.2,0.4-0.3,0.7
		c-1-2.1-1.9-4.1-2.8-6.2c-0.1,0-0.1,0.1-0.1,0.1C6.2,6.4,5,7.6,3.9,8.8C3.7,9,3.6,9.3,3.5,9.5c-0.1,0.4-0.1,0.8-0.2,1.2
		c-0.2,1.5-0.4,3.1-0.7,4.6c-0.2,1.4-0.4,2.8-0.6,4.1C2,20,2,20.5,1.9,21.1c1.4,0,2.7,0,4.1,0c0.1,0,0.2-0.1,0.2-0.2
		c0.2-1.5,0.4-3,0.6-4.4c0.1-0.6,0.2-1.3,0.3-1.9c0,0,0.1,0,0.1,0c1.1,2.2,2.1,4.4,3.2,6.7c1.1-2.3,2.1-4.5,3.2-6.6
		c0.2,1.1,0.4,2.2,0.5,3.3c0.2,1.1,0.3,2.2,0.5,3.3c1.4,0,2.8,0,4.3,0c-0.7-5.4-1.5-10.7-2.2-16C15.5,5.1,14.5,5.1,13.4,5.1z"/>
	<path style="fill:#7D7D7D;" d="M70.3,11.2c-0.9-3.9-4.4-6.6-8-6.5c-0.4,0-0.8,0.1-1.3,0.1c-3.6,0.5-6.7,3.7-7,7.8
		c-0.1,2.1,0.4,3.9,1.7,5.6c2.3,3.2,6.6,4.2,10.1,2.5C69.3,19,71.2,15.1,70.3,11.2z M62.3,17.2c-2.2,0-4-1.9-4-4.1
		c0-2.2,1.8-4.1,3.9-4.1c2.4,0,4.1,2.2,4,4.1C66.3,14.9,64.8,17.2,62.3,17.2z"/>
	<path style="fill:#7D7D7D;" d="M50.9,14.5c-0.1-0.2-0.2-0.3,0.1-0.5c2.2-1.5,2.4-4.2,1.5-6.3c-0.8-1.8-2.4-2.5-4.2-2.6
		c-1.9-0.1-3.9,0-5.8,0c-0.1,0-0.2,0-0.3,0c0,5.3,0,10.6,0,16c1.4,0,2.7,0,4.1,0c0-2.2,0-4.3,0-6.5c0.2,0.1,0.2,0.3,0.3,0.5
		c0.8,1.9,1.6,3.8,2.4,5.7c0.1,0.2,0.2,0.3,0.5,0.3c1.3,0,2.7,0,4,0c0.1,0,0.2,0,0.3,0c-0.3-0.6-0.5-1.2-0.8-1.7
		C52.3,17.7,51.6,16.1,50.9,14.5z M46.2,12.6c0-1.3,0-2.6,0-3.9c1.8,0,2.5,0.7,2.5,2C48.8,12,47.8,12.7,46.2,12.6z"/>
	<path style="fill:#7D7D7D;" d="M24.4,15.2c1.1,0,2.2,0,3.3,0c0-1.4,0-2.8,0-4.3c-1.1,0-2.2,0-3.3,0c0-0.6,0-1.1,0-1.7
		c1.7,0,3.4,0,5,0c-0.2-1.4-0.4-2.8-0.6-4.2c-2.9,0-5.7,0-8.6,0c0,5.3,0,10.6,0,15.9c0.1,0,0.1,0,0.2,0c2.8,0,5.5,0,8.3,0
		c0.2,0,0.3-0.1,0.3-0.3c0.1-0.5,0.2-0.9,0.4-1.4c0.2-0.8,0.4-1.7,0.6-2.6c-1.9,0-3.7,0-5.6,0C24.4,16.3,24.4,15.8,24.4,15.2z"/>
	<path style="fill:#7D7D7D;" d="M40,5.1c-3,0-6.1,0-9.1,0c-0.1,0-0.2,0-0.3,0c-0.1,1.3-0.3,2.7-0.4,4c1.1,0,2.2,0,3.3,0
		c0,4,0,8,0,11.9c1.4,0,2.8,0,4.2,0c0-4,0-8,0-12c1.1,0,2.2,0,3.3,0c-0.1-1.2-0.2-2.5-0.4-3.7C40.4,5.2,40.3,5.1,40,5.1z"/>
	<path style="fill:#7D7D7D;" d="M2.9,8.4l0.5-0.5c0,0-0.5-0.4-0.7-0.6C2.9,7.3,3,7.2,3.1,7.2c0.3,0.1,0.5,0.2,0.8,0.4
		C4,7.4,4.4,7.1,4.4,7.1c0,0,0,0-0.1-0.1C4,6.9,3.8,6.7,3.5,6.7c-0.1,0-0.1-0.1-0.2,0c0,0,0,0,0,0c0,0,0-0.1,0.1-0.1
		c0.1-0.1,0.1-0.2,0.1-0.3c0-0.1-0.1-0.2-0.1-0.3C3.3,5.9,3.2,5.8,3.1,5.7C2.9,5.6,2.6,5.7,2.4,5.9C2.2,6,2.1,6.1,1.9,6.3
		C1.7,6.4,1.5,6.6,1.3,6.8C1.4,6.9,1.5,6.9,1.5,7C1.9,7.4,2.9,8.4,2.9,8.4z M2.5,6.4c0.1-0.1,0.2-0.1,0.3,0c0.1,0.1,0.1,0.1,0.1,0.3
		C2.8,6.8,2.5,7,2.5,7L2.2,6.7C2.3,6.6,2.4,6.5,2.5,6.4z"/>
	<path style="fill:#7D7D7D;" d="M1.7,8.8C1.6,8.7,1.6,8.7,1.6,8.6l0.5-0.5c0,0-0.3-0.4-0.4-0.4c0,0-0.3,0.3-0.4,0.4L1.2,8.3L0.9,8
		l0.7-0.7c0,0-0.4-0.4-0.4-0.4c0,0-1.2,1.1-1.2,1.1c0.5,0.5,1.7,1.7,1.7,1.7l0.5-0.5C2.1,9.3,1.8,8.9,1.7,8.8z"/>
	<polygon style="fill:#7D7D7D;" points="5.9,5.8 5.5,5.4 4.8,6.1 4.4,5.8 5.1,5.2 4.7,4.9 4.1,5.5 3.9,5.2 4.6,4.5 4.2,4.1 3,5.3 
		4.6,6.9 	"/>
	<polygon style="fill:#7D7D7D;" points="7.3,4.4 6.9,4 6.2,4.7 5.9,4.3 6.5,3.8 6.2,3.4 5.6,4 5.3,3.8 6,3 5.7,2.7 4.5,3.9 6,5.5 	
		"/>
</g>
</svg>
