<svg xmlns="http://www.w3.org/2000/svg" xmlns:xlink="http://www.w3.org/1999/xlink" viewBox="0 0 25 25">
<title>Mini Order Phone</title>
<desc>Mini Order Phone</desc>
<path d="M16.426,20.992c-3.168-0.215-6.151-1.574-8.393-3.823c-0.02-0.015-0.039-0.031-0.056-0.049
	c-0.031-0.03-0.058-0.064-0.082-0.1l-0.007,0.006c-3.409-3.474-5.3-9.251-2.562-11.987c0.45-0.45,0.982-0.808,1.568-1.055
	C7.041,3.923,7.207,3.929,7.349,4c1.803,0.923,3.268,2.393,4.184,4.2c0.085,0.204,0.039,0.439-0.117,0.595l-1.753,1.753
	c0.57,1.005,1.226,1.959,1.959,2.852c0.89,0.728,1.84,1.379,2.84,1.945l1.753-1.753c0.156-0.156,0.391-0.203,0.595-0.117
	c1.807,0.916,3.277,2.381,4.2,4.184c0.07,0.142,0.075,0.308,0.014,0.455c-0.247,0.585-0.604,1.118-1.052,1.568
	C19.015,20.579,17.736,21.052,16.426,20.992z M8.706,16.307c0.014,0.012,0.027,0.023,0.04,0.036c3.442,3.377,8.428,4.6,10.457,2.57
	c0.289-0.29,0.53-0.624,0.712-0.991c-0.752-1.365-1.857-2.501-3.2-3.291l-1.781,1.781c-0.174,0.173-0.442,0.209-0.655,0.088
	c-1.207-0.677-2.353-1.457-3.426-2.331c-0.88-1.076-1.664-2.227-2.345-3.439c-0.12-0.214-0.082-0.482,0.092-0.655l1.781-1.782
	c-0.79-1.343-1.926-2.448-3.291-3.2C6.724,5.276,6.389,5.517,6.099,5.806c-2.032,2.031-0.807,7.015,2.57,10.456
	C8.68,16.277,8.693,16.292,8.706,16.307L8.706,16.307z"/>
</svg>
