<svg id="Layer_1" data-name="Layer 1" xmlns="http://www.w3.org/2000/svg" viewBox="0 0 45 25"><title>Moon</title><desc>100 Night Trial Moon</desc><path d="M23.745,21.782a9.415,9.415,0,0,1-9.405-9.4c0-8.276,9.137-9.392,9.229-9.4a0.557,0.557,0,0,1,.569.3,0.569,0.569,0,0,1-.08.64,8.266,8.266,0,0,0,6.18,13.756,0.569,0.569,0,0,1,.47.892A8.522,8.522,0,0,1,23.745,21.782ZM22.281,4.394c-2.355.629-6.8,2.537-6.8,7.984a8.275,8.275,0,0,0,8.267,8.266,7.788,7.788,0,0,0,5.262-1.909A9.406,9.406,0,0,1,22.281,4.394Z"/></svg>
