<?xml version="1.0" encoding="utf-8"?>
<!-- Generator: Adobe Illustrator 18.1.1, SVG Export Plug-In . SVG Version: 6.00 Build 0)  -->
<svg version="1.1" id="Layer_1" xmlns="http://www.w3.org/2000/svg" xmlns:xlink="http://www.w3.org/1999/xlink" x="0px" y="0px"
	 viewBox="0 0 32 32" enable-background="new 0 0 32 32" xml:space="preserve">
<title>Crescent moon with stars</title>
<desc>A crescent moon flanked by twinkling stars.</desc>
<g>
	<path fill="none" stroke-linecap="round" stroke-linejoin="round" stroke-miterlimit="10" d="M27.3,20.4
		c-3.9,0-7.1-3.2-7.1-7.1c0-1.8,0.7-3.4,1.8-4.7c0,0-7,0.8-7,7.1c0,3.9,3.2,7.1,7.1,7.1C25.7,22.7,27.3,20.4,27.3,20.4z"/>
	<path fill="none" stroke-linecap="round" stroke-linejoin="round" stroke-miterlimit="10" d="M5.3,8.4
		c0,2.6-2.1,4.8-4.8,4.8c2.6,0,4.8,2.1,4.8,4.8c0-2.6,2.1-4.8,4.8-4.8C7.4,13.2,5.3,11.1,5.3,8.4z"/>
	<g>
		<path fill="none" stroke-linecap="round" stroke-linejoin="round" stroke-miterlimit="10" d="M10.6,17.9
			c0,1.2-1.6,2.8-2.8,2.8c1.2,0,2.8,1.6,2.8,2.8c0-1.2,1.6-2.8,2.8-2.8C12.2,20.7,10.6,19.1,10.6,17.9z"/>
	</g>
	<g>
		<path fill="none" stroke-linecap="round" stroke-linejoin="round" stroke-miterlimit="10" d="M28.7,9.3
			c0,1.2-1.6,2.8-2.8,2.8c1.2,0,2.8,1.6,2.8,2.8c0-1.2,1.6-2.8,2.8-2.8C30.3,12.2,28.7,10.6,28.7,9.3z"/>
	</g>
</g>
</svg>
