<svg xmlns="http://www.w3.org/2000/svg" viewBox="0 0 580 294">
<title>Crescent moon with stars</title>
<desc>A crescent moon flanked by twinkling stars.</desc>

  <path d="M400.8 279.1c-76.3 0-138.3-62-138.3-138.3 0-50.5 23.7-90.6 68.4-115.7 33-18.6 65.6-22.4 67-22.5 4.5-.5 8.9 1.8 11 5.9 2.1 4 1.5 9-1.5 12.4C388.5 42.2 378 69.6 378 98.1c0 64.1 52.2 116.3 116.3 116.3 4.1 0 7.8 2.3 9.7 5.9 1.9 3.6 1.6 8-.7 11.4-1.2 1.8-33.3 47.4-102.5 47.4zM373.6 30.6c-9.7 3.1-21.1 7.5-32.4 13.9-37.6 21.4-56.7 53.7-56.7 96.2 0 64.1 52.2 116.3 116.3 116.3 33 0 55.8-12.3 69.3-22.9-64.7-11.4-114-68.1-114-136.1 0-23.8 6.1-46.9 17.5-67.4zM97 194c-6.1 0-11-4.9-11-11 0-41.4-33.6-75-75-75-6.1 0-11-4.9-11-11s4.9-11 11-11c41.4 0 75-33.6 75-75 0-6.1 4.9-11 11-11s11 4.9 11 11c0 41.4 33.6 75 75 75 6.1 0 11 4.9 11 11s-4.9 11-11 11c-41.4 0-75 33.6-75 75 0 6.1-4.9 11-11 11zM55.8 97c17.6 9.2 32 23.6 41.2 41.2 9.2-17.6 23.6-32 41.2-41.2-17.6-9.2-32-23.6-41.2-41.2-9.2 17.6-23.6 32-41.2 41.2zM192 294c-6.1 0-11-4.9-11-11 0-15.7-24.3-40-40-40-6.1 0-11-4.9-11-11s4.9-11 11-11c15.7 0 40-24.3 40-40 0-6.1 4.9-11 11-11s11 4.9 11 11c0 7.2 5.5 17.4 14 25.9s18.7 14 25.9 14c6.1 0 11 4.9 11 11s-4.9 11-11 11c-15.7 0-40 24.3-40 40 .1 6.2-4.8 11.1-10.9 11.1zm-20.7-62c3.8 2.7 7.6 5.9 11.2 9.5 3.6 3.6 6.8 7.4 9.5 11.2 2.7-3.8 5.9-7.6 9.5-11.2 3.6-3.6 7.4-6.8 11.2-9.5-3.8-2.7-7.6-5.9-11.2-9.5s-6.8-7.4-9.5-11.2c-2.7 3.8-5.9 7.6-9.5 11.2-3.6 3.6-7.4 6.8-11.2 9.5zM518 140c-6.1 0-11-4.9-11-11 0-15.7-24.3-40-40-40-6.1 0-11-4.9-11-11s4.9-11 11-11c15.7 0 40-24.3 40-40 0-6.1 4.9-11 11-11s11 4.9 11 11c0 15.7 24.3 40 40 40 6.1 0 11 4.9 11 11s-4.9 11-11 11c-15.7 0-40 24.3-40 40 0 6.1-4.9 11-11 11zm-20.7-62c3.8 2.7 7.6 5.9 11.2 9.5 3.6 3.6 6.8 7.4 9.5 11.2 2.7-3.8 5.9-7.6 9.5-11.2 3.6-3.6 7.4-6.8 11.2-9.5-3.8-2.7-7.6-5.9-11.2-9.5-3.6-3.6-6.8-7.4-9.5-11.2-2.7 3.8-5.9 7.6-9.5 11.2-3.6 3.6-7.4 6.8-11.2 9.5z"/></svg>
