<?xml version="1.0" encoding="utf-8"?>
<!-- Generator: Adobe Illustrator 19.0.0, SVG Export Plug-In . SVG Version: 6.00 Build 0)  -->
<svg version="1.1" id="Layer_10" xmlns="http://www.w3.org/2000/svg" xmlns:xlink="http://www.w3.org/1999/xlink" x="0px" y="0px"
	 viewBox="0 0 80.5 27" style="enable-background:new 0 0 80.5 27;" xml:space="preserve">
<style type="text/css">
	.st0{fill:#7D7D7D;}
</style>
<g>
	<path class="st0" d="M59.8,4.9c-1.4-0.9-3.4-1.4-5.4-1.2c-1.2,0.1-2.5,0.5-3.4,1.1c-1.5,1-2.6,2.5-3.1,4.6
		c-0.2,0.9-0.3,1.6-0.3,2.9c0,1.4,0.1,1.9,0.3,2.9c0.3,1,0.7,1.9,1.2,2.7c0.3,0.5,1.2,1.3,1.6,1.6c1.4,0.9,3.1,1.3,5,1.3
		c2.2-0.1,3.8-0.7,5.2-2.1c0.7-0.7,1.1-1.3,1.5-2.2c0.6-1.3,0.8-2.7,0.8-4.3C63.1,8.9,62,6.3,59.8,4.9z M59.5,13.5
		c-0.2,1.3-0.5,2.4-1,3.1c-0.1,0.1-0.3,0.4-0.5,0.6c-0.3,0.3-0.4,0.4-0.8,0.5c-0.5,0.2-0.8,0.3-1.4,0.4c-1.2,0.1-2.3-0.2-3-0.9
		c-0.4-0.4-0.7-0.7-0.9-1.3c-0.4-0.8-0.6-1.9-0.7-3.1c-0.1-2.4,0.4-4.3,1.4-5.4c0.5-0.6,1.2-0.9,2-1.1c0.5-0.1,1.4-0.1,1.8,0.1
		c1.7,0.4,2.8,1.9,3.1,4.5C59.5,11.4,59.5,13,59.5,13.5z"/>
	<path class="st0" d="M0.2,4.1c0,0,0,3.7,0,8.2l0,8.1l6.2,0l6.1,0v-8.2V4H6.3C1.4,4,0.2,4.1,0.2,4.1z M6.2,8.8
		c0.4,0.4,0.7,0.7,0.7,0.7c0,0-0.2,0-0.5,0.1c-0.3,0-0.7,0-0.8,0.1l-0.3,0v0.8c0,0.5,0,0.8,0,0.8c0,0-0.3-0.2-0.6-0.5l-0.5-0.5
		l-1.8,1.5c-1,0.8-1.8,1.5-1.8,1.5c0,0,0.4-0.8,0.9-1.7c0.5-0.9,0.9-1.7,0.9-1.7c0,0-0.3,0-0.8,0c-0.4,0-0.8,0-0.8,0
		c0,0,0.4-0.4,0.9-0.8c0.5-0.4,0.9-0.8,0.9-0.8c0,0-1.4-2.7-1.8-3.5C0.7,4.6,0.7,4.5,0.7,4.5c0,0,0.7,0.5,1.6,1.2S3.8,6.9,3.9,7
		l0.1,0.1l1.5-1.2C6.4,5.2,7,4.6,7,4.6c0,0-0.3,0.8-0.8,1.7C5.9,7.2,5.5,8,5.5,8C5.5,8.1,5.7,8.3,6.2,8.8z"/>
	<path class="st0" d="M27.4,4.1l0,6.7l0,6.7l-3.1-6.7l-3.1-6.7h-2.5h-2.5v8.2v8.2h1.5h1.5v-6.7c0-3.8,0-6.7,0-6.7c0,0,1.4,3,3.2,6.7
		l3.1,6.7H28h2.5v-8.2V4.1h-1.5H27.4z"/>
	<polygon class="st0" points="37.7,17.9 37.7,15.6 37.7,13.4 41.3,13.4 44.9,13.4 44.9,12.1 44.9,10.9 41.3,10.9 37.7,10.9 
		37.7,8.7 37.7,6.6 41.5,6.6 45.3,6.6 45.3,5.4 45.3,4.1 39.8,4.1 34.3,4.1 34.3,12.3 34.3,20.4 39.9,20.4 45.5,20.4 45.5,19.2 
		45.5,17.9 41.6,17.9 	"/>
	<path class="st0" d="M78.8,4.1h-1.5v6.7c0,3.7,0,6.7,0,6.7c0,0-1.4-3-3.1-6.7L71,4.1l-2.5,0l-2.5,0v8.2v8.2h1.5h1.5l0-6.7l0-6.7
		l3.1,6.7l3.1,6.7l2.5,0l2.5,0v-8.2V4.1H78.8z"/>
</g>
</svg>
