<?xml version="1.0" encoding="utf-8"?>
<!-- Generator: Adobe Illustrator 19.2.0, SVG Export Plug-In . SVG Version: 6.00 Build 0)  -->
<svg version="1.1" id="Layer_1" xmlns="http://www.w3.org/2000/svg" xmlns:xlink="http://www.w3.org/1999/xlink" x="0px" y="0px" viewBox="0 0 49.7 50" style="enable-background:new 0 0 49.7 50;" xml:space="preserve">
  <title>The Netherlands Flag</title>
  <desc>Shop Casper Mattresses in the Netherlands</desc>
  <style type="text/css">
    .st0{fill:#FFFFFF;}
    .st1{fill:#ED5A4D;}
    .st2{fill:#00237E;}
  </style>
  <g id="XMLID_305_">
    <path id="XMLID_308_" class="st0" d="M32.8,24.9c0,1-0.2,1.9-0.5,2.7h-15c-0.3-0.8-0.5-1.8-0.5-2.7c0-0.9,0.2-1.9,0.5-2.7h15.1
      C32.6,23.2,32.8,24,32.8,24.9z"/>
    <path id="XMLID_307_" class="st1" d="M32.3,22.3h-15c1.1-3.1,4.1-5.3,7.5-5.3S31.2,19.2,32.3,22.3z"/>
    <path id="XMLID_306_" class="st2" d="M32.3,27.7c-1.1,3.1-4.1,5.3-7.5,5.3s-6.4-2.2-7.5-5.3C17.3,27.7,32.3,27.7,32.3,27.7z"/>
  </g>
</svg>
