<svg data-name="Layer 1" xmlns="http://www.w3.org/2000/svg" viewBox="0 0 893.869 118.841">
  <title>Neue Burcher Beitung Logo</title>
  <desc>Neue Burcher Beitung Logo</desc>
  <path d="M783.38 84.143a25.15 25.15 0 0 1-4.08-16.775V55.58c0-3.173.908-6.346 1.36-9.973-2.72-2.72-6.346-5.44-9.52-8.614l-14.96 10.88c-3.628 2.268-4.988 5.44-4.988 9.975a139.876 139.876 0 0 1 0 19.5c0 5.894 3.174 9.52 8.614 13.6 3.174-3.627 6.347-7.254 9.067-10.88 2.267 3.626 4.08 6.8 5.894 9.973 3.174 5.44 3.174 11.34-1.36 16.33-4.08 4.54-10.88 6.35-16.322 3.63-2.72-1.36-4.987-3.17-4.534-7.25 1.36 0 3.18.46 3.63-.45 1.36-1.36 3.18-3.17 3.18-4.53-.45-1.36-2.72-3.17-4.08-3.62-3.17-.45-4.98 1.82-5.44 4.99a11.343 11.343 0 0 0 7.26 12.24c7.26 3.18 17.68.46 23.12-5.89 6.8-5.89 8.16-14.05 3.18-21.31zm-13.6-7.707c0 1.813-2.72 3.174-4.08 4.534-1.36-1.813-4.08-3.627-4.08-5.44-.452-4.534 0-9.067 0-13.6V49.687c0-2.72.454-5.44 3.175-5.44 1.813.453 4.987 3.174 5.44 4.987 0 9.066 0 18.135-.455 27.202zM331.367 25.658c-3.627-9.067-16.775-13.6-27.2-9.974-6.347 2.267-9.52 7.254-7.707 13.148 0-1.36.453-2.72.453-3.627 1.36-5.44 6.8-9.067 13.6-9.067 5.44 0 9.067 3.174 9.52 7.707a133.464 133.464 0 0 1 0 19.042c0 1.813-2.72 4.08-4.533 4.987s-4.08-.453-5.894-.907a2.726 2.726 0 0 1 .453-1.813c.9-.453 1.81-.453 2.26-.907 1.36-1.36 3.17-3.627 2.72-4.987-.46-1.813-2.27-4.08-4.08-4.534-4.08-1.36-7.71 2.72-6.8 6.8.9 3.627 6.34 8.614 9.97 8.614 4.08 0 6.34 2.72 6.34 6.347a263.207 263.207 0 0 1 0 26.75c0 1.812-2.27 4.08-4.08 4.533s-4.54-1.36-5.9-2.72a27.7 27.7 0 0 1-3.18-6.347c-2.27-4.534-5.44-8.614-11.34-8.16-6.35.452-11.79 3.173-14.96 9.066a9.055 9.055 0 0 0 1.81 10.88c2.72 2.72 5.892 2.26 9.07.9h-1.81c-3.177.45-6.8.45-7.71-3.18-.908-2.72-.908-6.8.452-9.07 1.36-1.82 5.89-3.63 8.16-2.72 2.72.9 4.984 4.08 6.344 6.8 4.08 6.34 9.52 9.06 16.777 6.8 9.97-2.72 15.86-9.52 18.13-19.5 1.81-8.62-2.27-15.87-9.97-19.95a47.035 47.035 0 0 0-4.54-1.82c12.24-4.99 17.23-13.6 13.6-23.12zm-199.485-4.08l-.907.907c-2.72-2.267-4.987-4.534-8.16-6.347a12.293 12.293 0 0 0-14.056.453c-4.54 3.18-5.9 7.71-4.99 12.7.45 3.18 2.72 6.35 3.62 9.52.45 1.82.9 4.08 0 5.44-.46.91-3.18.46-4.99.46 1.81 4.54 4.98 6.8 9.06 5.9 4.53-.9 7.25-4.98 6.8-9.97 0-3.17-1.36-5.89-2.72-9.07-1.36-2.72-3.18-5.44-4.08-8.61-1.36-4.08.45-6.8 4.53-7.25 4.53-.45 5.44 2.27 5.44 5.9v53.5c0 .91-.46 2.27-.46 3.63-11.34-5.893-13.15-6.346-17.23-3.173s-6.8 6.8-5.9 12.695c6.34-9.065 10.88-8.612 16.77 1.815 4.53-5.44 8.61-10.88 13.15-16.32a13.915 13.915 0 0 0 3.62-10.88c-.45-8.16 0-16.777 0-24.938 0-5.896.455-11.336.455-16.32zM593.87 24.75c-3.173-9.066-14.507-14.054-26.3-11.333-6.8 1.813-10.427 6.8-9.52 14.055.453-2.267.453-3.627.907-4.534 1.36-4.987 6.347-8.614 12.24-8.614 5.44 0 9.522 2.267 9.975 6.347a167.09 167.09 0 0 1 0 21.31c0 1.82-2.72 4.08-4.534 4.54s-4.08-.9-5.894-1.36a10.285 10.285 0 0 0 .453-1.81c.453 0 .907-.45 1.36-.45 3.174-.45 4.987-2.72 4.08-5.44a8.446 8.446 0 0 0-5.44-4.08c-3.174-.45-5.44 1.82-5.44 4.99-.453 3.63 5.44 10.43 8.614 10.43 4.99.45 7.71 2.27 7.71 7.26.46 8.16 0 16.32 0 24.48 0 2.72-1.36 5.44-4.53 5.9s-4.98-1.36-6.34-4.08-2.72-4.98-4.08-7.7c-2.26-4.08-5.89-6.35-10.88-5.89-6.35.91-11.33 4.08-13.15 9.07a.905.905 0 0 0 .92-.454c5.9-5.44 10.43-4.534 14.51 2.267 4.99 8.61 10.88 10.88 19.04 7.705a24.93 24.93 0 0 0 14.05-12.24c6.35-11.79 1.82-22.67-10.42-27.2a6.46 6.46 0 0 1-1.81-.91C593 42.92 596.17 32.49 593.91 24.78zM149.11 73.716V56.488c-.452-5.894.454-10.88 6.8-14.055-4.533-1.36-5.44-4.534-4.986-8.16.453-4.08 0-8.162 0-12.695s-3.627-8.16-8.16-7.254c-3.175.453-6.348 2.267-9.068 3.627a.905.905 0 0 0 .453.91c5.44-1.81 6.34-1.36 6.34 4.54v7.7c0 8.62.45 9.52 9.06 12.24-8.62 3.63-10.88 9.98-10.43 18.59.45 4.08 0 8.16 0 12.24 0 7.26 3.62 11.79 9.52 15.42 2.72-3.62 5.44-7.7 8.61-11.33-4.99 2.72-7.71 1.36-8.16-4.53zm243.463-28.563c-2.267-3.174-4.08-6.347-6.347-9.52-3.627 4.08-6.8 7.253-9.974 10.88 4.08-1.36 4.987.453 4.987 3.627V71c0 3.174-.91 5.894-1.36 9.067 1.81 2.72 4.53 5.894 6.8 9.067 3.17-3.627 6.34-6.8 9.52-10.428a.444.444 0 0 0-.46-.453c-1.36.453-2.27 1.36-3.63 1.813-.46-.907-.91-.907-.91-1.36V49.234c0-1.36 1.36-2.72 2.26-4.534 2.26 2.72 4.53 4.987 6.34 7.254a48.023 48.023 0 0 1 5.44-4.534l1.81-1.813c-1.82-3.174-4.08-5.894-6.35-9.52-3.18 3.626-5.9 6.346-8.16 9.066zM247.04 60.568c4.08-2.72 8.16-6.347 12.693-9.52-2.72-4.988-5.44-9.975-7.707-14.51-4.987 3.628-9.974 6.8-14.055 10.43a11.83 11.83 0 0 0-3.17 7.706c-.45 7.707 0 15.415 0 22.67 0 5.893 3.18 9.973 9.07 11.787 3.18-3.17 6.35-6.8 9.98-10.88-6.8 3.18-9.06 1.82-9.06-4.53v-6.8c-1.36-2.72-.45-4.53 2.27-6.35zm-3.175-15.415a.905.905 0 0 0 .907-.453c1.814 3.627 4.08 7.254 5.894 11.334-2.267 1.813-4.08 3.174-6.8 5.44v-16.32zM440.63 41.98c0-9.52-.907-19.042 5.894-27.2-.453-.453-1.36-.453-1.814-.907l-9.52 12.24c-2.267-1.36-4.987-3.175-7.254-4.535l-.907.907c4.53 3.174 4.98 7.707 4.98 12.694V71.9c0 3.174-1.82 5.894-2.27 8.16 2.26 2.268 4.98 5.44 7.25 7.708a75.587 75.587 0 0 0 5.44-7.254c-.46-3.174-1.36-5.894-1.36-8.614-.46-9.972-.46-19.946-.46-29.92z"/>
  <path d="M418.415 43.34h1.36c1.814 2.267 3.174 4.987 4.987 7.707 2.267-1.813 4.08-3.174 6.347-4.987l-5.44-9.52c-4.99 3.626-9.98 7.253-14.06 10.88a13.817 13.817 0 0 0-3.63 7.254c-.46 6.8 0 13.6 0 20.4 0 7.707 3.17 11.788 9.97 14.055 2.26-3.18 4.08-5.9 5.89-8.62-5.44-.91-6.35-2.27-6.35-8.62V47.87a19.95 19.95 0 0 1 .9-4.534zM662.33 75.53v-26.3c0-3.175.907-4.535 4.534-4.988-4.534 0-4.08-2.72-4.08-5.44V27.018c-4.534 6.348-8.16 12.24-11.784 17.682.453.453 2.267 1.36 2.267 2.267-.907 11.334 2.72 22.67-2.267 34 1.814 2.267 4.08 5.44 5.894 8.16 3.174-3.173 6.8-5.893 10.428-9.52-4.538.456-4.992-1.357-4.992-4.078zM349.5 45.153c0-4.08-1.814-6.8-5.894-8.16-3.627 3.626-6.8 7.253-9.974 10.88 4.534-1.36 6.347-.907 6.347 3.627v19.042c0 3.174-.91 6.347-1.82 9.974 1.81 2.267 4.08 5.44 5.44 7.254 3.17-2.72 5.89-5.894 8.16-8.16-.91-1.36-2.27-3.628-2.27-5.44V45.152zM204.422 73.716v-28.11c0-4.533-1.813-7.253-5.894-9.066-3.627 3.627-6.8 7.254-10.88 11.788 5.44-2.267 6.8-1.36 7.253 4.08V71c0 3.174-.9 5.894-1.81 9.52 1.82 2.268 4.08 4.988 5.44 6.8 3.18-2.72 5.9-5.893 8.62-8.16-2.72-.004-2.72-2.724-2.72-5.444zM726.71 51.5c.453-3.627-.453-6.347-1.36-9.52-.907-2.268-3.174-4.08-4.534-6.348-3.627 4.08-7.254 7.707-11.334 12.24 3.627-1.812 7.254-3.626 7.254.908 0 10.428 2.267 20.855-1.813 30.83 2.267 3.173 4.08 5.893 6.347 9.066 2.267-3.174 4.534-5.894 7.254-9.067-.453-1.36-1.813-2.72-1.813-4.08-.45-7.71-.91-15.87 0-24.03zm-22.67 23.576c0-6.8-.452-14.055 0-20.855 0-2.72.908-5.89 1.814-9.06-1.813-2.26-4.08-4.98-5.894-7.7-2.72 3.18-4.987 5.9-7.254 8.16.453 2.27 1.813 4.54 1.813 6.8a133.454 133.454 0 0 1 0 19.05c0 2.27-.91 4.08-1.82 6.35a6.84 6.84 0 0 1 1.81 1.82c1.36 3.18 2.72 6.8 4.53 10.43 4.53-4.53 7.7-8.61 11.79-12.69-2.27.91-4.08 1.82-5.44 2.27-.46-1.36-1.36-3.17-1.36-4.53zM504.1 36.086a2.726 2.726 0 0 0 .453 1.813c-3.627 3.17-7.254 6.34-10.88 9.06 4.986-2.27 6.346-.91 6.346 4.98V71c0 3.174-1.36 5.894-1.82 9.52 1.81 2.268 4.08 5.44 6.34 8.615 4.08-4.08 8.16-7.707 12.24-11.788a42.108 42.108 0 0 1-5.9 1.813c-.46-1.813-1.36-3.627-1.36-5.44V50.594c0-1.813.9-3.627 1.81-5.44l-.45-.454a9.89 9.89 0 0 0-1.82-2.267 34.238 34.238 0 0 1-4.99-6.347zM686.36 72.81V45.152c0-4.08-1.814-6.8-5.895-8.16-2.72 3.173-5.44 6.346-8.614 9.52 4.08.907 4.99 1.36 4.99 5.44 0 6.347.46 12.694 0 19.042 0 3.174-1.36 5.894-1.81 9.52 1.82 2.268 4.08 5.44 5.9 7.708 3.63-3.174 7.71-6.347 11.34-9.974-4.98.906-5.89.45-5.89-5.44zm6.347 5.44c-.453-.453-.453 0 0 0zm-51.232.45c-.453-1.36-1.36-2.72-1.36-4.08 0-6.347-.453-12.694 0-19.042 0-3.627 1.36-6.8 2.267-10.88a70.887 70.887 0 0 1-5.44-7.708c-3.627 3.174-6.8 6.347-10.428 9.52 3.627-1.812 4.534-.452 4.534 3.175V71.45c0 2.72-.907 5.893-1.814 9.066 1.36 2.267 3.627 4.987 4.987 7.254 4.08-3.627 8.17-6.8 12.25-10.428l-.45-.453c-2.26.91-3.62 1.36-4.53 1.81zm102.01-1.357c.453-10.88-1.813-21.762 1.36-32.19a99.576 99.576 0 0 1-6.347-8.16c-2.72 3.173-5.894 6.346-9.067 9.52 4.99-1.36 4.99 1.813 4.99 4.987v27.656c0 4.534 1.36 7.707 4.99 10.428 2.72-3.174 5.9-6.347 7.71-8.614-1.36-1.36-3.62-2.72-3.62-3.627zm-375.848-2.267V53.314c0-2.72.907-4.987 1.814-8.16-1.81-2.268-4.08-4.988-5.89-7.708-2.26 2.72-4.98 5.894-7.25 8.614.91 1.813 1.82 3.627 1.82 5.44a189.037 189.037 0 0 1 0 22.67c-.45 5.893.91 10.88 4.99 15.414 3.18-3.174 6.35-6.8 10.43-10.88-5.44 2.72-5.89-.004-5.89-3.628zm-145.08.454V53.313c0-2.72.907-4.987 1.813-8.16-1.813-2.268-4.08-4.988-5.894-7.708-2.72 3.174-4.987 5.894-7.254 8.614.907 1.81 1.813 3.62 1.813 4.98a189.033 189.033 0 0 1 0 22.67c-.453 6.34.907 11.33 4.987 15.41 3.178-3.63 6.35-6.8 9.978-10.88-4.536 2.26-5.443 1.81-5.443-2.72zm235.755-28.563a12.9 12.9 0 0 0-4.987-10.428c-2.72 2.72-5.44 4.98-7.254 6.8 1.36 2.26 3.18 4.53 3.18 6.34.46 13.6 0 27.65 0 41.25 1.82-1.82 3.63-4.08 5.44-5.9 3.18-2.27 4.08-4.99 3.63-9.07-.45-9.52-.45-19.5 0-29.02z"/>
  <path d="M510.45 45.607c2.72 2.72 4.987 4.534 7.707 7.254 1.814-1.81 4.534-3.62 7.254-5.89-2.26-3.17-4.53-6.34-6.8-9.97-2.72 3.18-5.44 5.9-8.16 8.62zM635.58 31.1h1.36a64.71 64.71 0 0 0 3.628-9.974c.453-1.36-.907-3.627-1.814-4.987-.907-.91-3.627-.46-4.534 0a5.034 5.034 0 0 0-1.814 4.98c.455 3.17 2.27 6.34 3.175 9.97zm-287.438 0c1.36-3.174 3.174-5.894 3.627-9.067a6.23 6.23 0 0 0-1.82-5.44 4.118 4.118 0 0 0-4.54 0c-1.36 1.36-2.72 3.627-2.27 4.987.45 3.174 2.26 6.347 3.17 9.52h1.81zm14.508 0h1.36a59.227 59.227 0 0 0 3.627-9.52 6.23 6.23 0 0 0-1.814-5.44 4.118 4.118 0 0 0-4.534 0 6.23 6.23 0 0 0-1.82 5.44 29.434 29.434 0 0 0 3.17 9.52zM174.046 60.568c4.08-2.72 8.16-6.347 12.694-9.52-2.72-4.988-5.44-9.975-7.707-14.51-4.987 3.628-9.974 6.8-14.055 10.43a11.83 11.83 0 0 0-3.174 7.706c-.453 7.707 0 15.415 0 22.67 0 5.893 3.174 9.973 9.067 11.787 3.18-3.17 6.35-6.8 9.98-10.88-6.8 3.18-9.06 1.82-9.06-4.53v-6.8c-1.36-2.72-.45-4.53 2.27-6.35zm-3.174-15.415a.905.905 0 0 0 .907-.453c1.81 3.627 4.08 7.254 5.89 11.334-2.27 1.813-4.08 3.174-6.8 5.44v-16.32zm441.134 15.415c4.08-2.72 8.16-6.347 12.694-9.52-2.72-4.988-5.44-9.975-7.707-14.51-4.987 3.628-9.974 6.8-14.055 10.43a11.83 11.83 0 0 0-3.174 7.706c-.453 7.707 0 15.415 0 22.67 0 5.893 3.174 9.973 9.067 11.787 3.18-3.17 6.35-6.8 9.98-10.88-6.8 3.18-9.06 1.82-9.06-4.53v-6.8c-1.36-2.72-.45-4.53 2.27-6.35zm-2.72-15.415a.905.905 0 0 0 .907-.453c1.814 3.627 4.08 7.254 5.894 11.334-2.267 1.813-4.08 3.174-6.8 5.44v-16.32zM478.26 60.568c4.08-2.72 8.16-6.347 12.694-9.52-2.72-4.988-5.44-9.975-7.707-14.51-4.987 3.628-9.974 6.8-14.055 10.43a11.83 11.83 0 0 0-3.174 7.706c-.453 7.707 0 15.415 0 22.67 0 5.893 3.174 9.973 9.067 11.787 3.174-3.17 6.347-6.8 9.974-10.88-6.8 3.18-9.07 1.82-9.07-4.53v-6.8c-.91-2.72 0-4.53 2.27-6.35zm-2.72-15.415a.905.905 0 0 0 .907-.453c1.814 3.627 4.08 7.254 5.894 11.334-2.26 1.813-4.08 3.174-6.8 5.44v-16.32z"/>
</svg>
