<?xml version="1.0" encoding="utf-8"?>
<!-- Generator: Adobe Illustrator 19.1.0, SVG Export Plug-In . SVG Version: 6.00 Build 0)  -->
<svg version="1.1" id="Layer_1" xmlns="http://www.w3.org/2000/svg" xmlns:xlink="http://www.w3.org/1999/xlink" x="0px" y="0px"
	 viewBox="0 0 190 27" style="enable-background:new 0 0 190 27;" xml:space="preserve">
<title>New York Times logo</title>

<g>
	<g>
		<path  d="M5.4,14.9V7.8l-2.2,1c0,0-0.6,1.2-0.5,3c0.1,1.4,0.9,3.1,1.5,3.8L5.4,14.9 M11.7,0.2c0.5,0,1.4,0.3,2,0.9
			c0.7,0.6,0.8,1.6,0.6,2.5c-0.2,0.8-0.4,1.2-1.3,1.8c-0.8,0.6-1.8,0.5-1.8,0.5v3.5l1.7,1.4L11.3,12v4.7c0,0,1.7-1,2.7-3.1
			c0,0,0-0.1,0.1-0.3c0.1,0.6,0,1.7-0.6,3.3c-0.5,1.1-1.4,2.2-2.5,2.8c-2,1.1-3.5,1.2-5.1,0.9c-1.9-0.4-3.6-1.4-4.7-3.3
			C0.3,15.7,0,14.1,0,12.5c0.1-3.2,2.4-5.9,5.2-7c0.3-0.1,0.5-0.2,0.9-0.3C5.9,5.5,5.6,5.7,5.3,5.9c-0.9,0.6-1.6,1.7-2,2.6l5.3-2.4
			v7.4l-4.3,2.1c0.5,0.7,2,1.7,3.2,1.8c2.2,0.2,3.4-0.7,3.4-0.7V12l-1.7-1.4l1.7-1.4V5.8c-0.9-0.1-2-0.4-2.7-0.6
			C7.4,5,4.3,4.1,3.8,4.1C3.3,4,2.7,4,2.3,4.4C1.9,4.7,1.7,5.3,1.8,5.8c0.1,0.3,0.3,0.5,0.5,0.6c0,0-0.2,0-0.5-0.2
			C1.2,5.9,0.7,5.2,0.7,4.3C0.6,3.2,1.1,2.2,2,1.5c0.8-0.5,1.7-0.9,2.8-0.7C6.4,1,8.5,1.9,10.3,2.3c0.7,0.2,1.3,0.2,1.8-0.1
			c0.2-0.2,0.7-0.6,0.3-1.2c-0.4-0.7-1.2-0.7-1.8-0.8C11.2,0.1,11.3,0.1,11.7,0.2z"/>
		<path  d="M32.4,13.1L30,14.8V9L32.4,13.1 M32.3,7.4c0,0-1.6,1-2.7,1.6c-1.1,0.6-2.6,1.4-2.6,1.4v6.8l-1,0.8l0.1,0.2
			l1-0.8l3,2.7l5.2-4.1l-0.1-0.2l-2.9,2.3L30,15.9v-0.8l4.7-3.5L32.3,7.4z"/>
		<path  d="M18.7,22.7c0.7,0.2,1.9,0.3,3.3-0.5c1.6-0.8,2.4-2.5,2.4-4.3l0.1-2.5v-5.4l1-0.8l-0.1-0.2l-1,0.8l-2.3-2.6
			l-3,2.6V1.1L15.3,4C15.5,4.1,16,4.2,16.1,5v12.2l-1.6,1.2l0.1,0.2l0.8-0.6l2.1,2l3.4-2.7l-0.1-0.2l-0.8,0.6l-0.8-0.8l0-6.8l1-0.8
			l1.5,1.8c0,0,0,4.4,0,5.9c0,1.6,0,3.5-0.8,4.5C19.9,22.4,19.5,22.5,18.7,22.7"/>
		<path  d="M42,22.1c-1.3-0.2-1.9-1-1.9-1.6c0-0.4,0.4-1.2,1.2-1.3c0.8-0.1,1.6,0.3,2.3,1.1l3.1-3.4l-0.1-0.1l-0.8,0.9
			c-0.8-1-2-1.6-3.2-1.7V5.5l8,14.6c0,0,0.1,0.2,0.4,0.2c0.3,0,0.2-0.2,0.2-0.2l0-14.7c0.7,0,1.7-0.4,2.1-0.9
			c1.5-1.6,0.9-3.3,0.7-3.5c-0.1,0.8-0.7,1.5-1.6,1.5c-1.3,0-2.1-0.9-2.1-0.9L47.3,5l0.1,0.1l0.9-1c1.1,1,1.9,1.1,2.7,1.1l0,8.5
			L45,3c-0.5-0.9-1.4-1.7-2.6-1.7c-1.5,0-2.5,1.3-2.7,2.4c-0.1,1.3,0,1.6,0,1.6s0.2-1.4,1.1-1.4c0.8,0,1.2,0.7,1.5,1.3v3.1
			c-0.8,0.1-2.9,0.1-3,2.3c0,0.8,0.5,1.7,0.9,2c0.6,0.4,1,0.4,1,0.4s-0.7-0.4-0.5-1.1c0.2-0.6,1.5-0.7,1.6-0.5v4.4
			c-0.6,0-2.7,0.1-3.6,1.8c-0.6,1.1-0.5,2.3,0.1,3.1C39.2,21.5,40.2,22.4,42,22.1"/>
		<path  d="M59,13.1l-2.4,1.8V9L59,13.1 M59,7.4c0,0-1.6,1-2.7,1.6c-1.1,0.6-2.6,1.4-2.6,1.4v6.8l-1,0.8l0.1,0.2l1-0.8
			l3,2.7L62,16l-0.1-0.2L59,18.1l-2.4-2.2v-0.8l4.7-3.5L59,7.4z"/>
		<path  d="M66.2,20.2l-2.5-2.1l-1.1,0.8l-0.1-0.2l1.1-0.8V12c0.1-2.4-2.2-1.8-2.1-4.4c0.1-1.1,1.2-2,1.7-2.3
			C63.8,5,64.4,5,64.4,5s-1,0.7-0.8,1.6c0.4,1.4,2.9,1.6,2.9,3.5v6.7l1.8,1.5l0.5-0.4v-7.3l-1-1l2.5-2.2l2.3,2.1l-0.9,1v6.4l2.2,1.8
			l0.4-0.2v-7.8l-1-0.9l2.5-2.3l2.4,2l0.9-0.8l0.1,0.1l-2.1,1.9v6.3l-5.5,3.4L69,18L66.2,20.2"/>
		<path  d="M178,13.1l-2.4,1.8V9L178,13.1 M177.9,7.4c0,0-1.6,1-2.7,1.6c-1.1,0.6-2.6,1.4-2.6,1.4v6.8l-1,0.8l0.1,0.2
			l1-0.8l3,2.7l5.2-4.1l-0.1-0.2l-2.9,2.3l-2.4-2.2v-0.8l4.7-3.5L177.9,7.4z"/>
		<polyline  points="153.5,10.3 153.6,10.4 154.6,9.6 156.1,11.2 156.1,16.9 155.4,17.5 157.6,20.1 159.9,17.8 159,16.8
			159,10 159.6,9.5 161.2,11.4 161.2,17 160.6,17.6 162.7,20 165,17.7 164.1,16.9 164.1,10 164.7,9.5 166.4,11.3 166.4,16.9
			165.9,17.5 168.2,20.1 171.4,17.1 171.2,17 170.5,17.7 169.3,16.4 169.3,10 170.4,9.1 170.3,9 169.2,9.9 167,7.4 164,9.9
			161.8,7.5 158.8,9.9 156.7,7.5 153.5,10.3 		"/>
		<polyline  points="147.1,10.1 147.2,10.3 148,9.5 149.3,11.1 149.3,17.5 148.4,18.3 148.5,18.5 149.5,17.7 151.6,20.1
			154.6,17.4 154.5,17.2 153.6,18 152.3,16.6 152.3,10.3 153.4,9.3 153.3,9.2 152.3,10.1 150.1,7.5 147.1,10.1 		"/>
		<polyline  points="147.9,4.8 150.2,2.7 152.1,4.7 149.8,6.8 147.9,4.8 		"/>
		<path  d="M138.6,14.9V7.8l-2.2,1c0,0-0.6,1.2-0.5,3c0.1,1.4,0.9,3.1,1.5,3.8L138.6,14.9 M144.9,0.2
			c0.5,0,1.4,0.3,2,0.9c0.7,0.6,0.8,1.6,0.6,2.5c-0.2,0.8-0.4,1.2-1.3,1.8c-0.8,0.6-1.8,0.5-1.8,0.5v3.5l1.7,1.4l-1.7,1.4v4.7
			c0,0,1.7-1,2.7-3.1c0,0,0-0.1,0.1-0.3c0.1,0.6,0,1.7-0.6,3.3c-0.5,1.1-1.4,2.2-2.5,2.8c-2,1.1-3.5,1.2-5.1,0.9
			c-1.9-0.4-3.6-1.4-4.7-3.3c-0.8-1.3-1.2-2.8-1.2-4.4c0.1-3.2,2.4-5.9,5.2-7c0.3-0.1,0.5-0.2,0.9-0.3c-0.2,0.1-0.5,0.3-0.8,0.5
			c-0.9,0.6-1.6,1.7-2,2.6l5.3-2.4v7.4l-4.3,2.1c0.5,0.7,2,1.7,3.2,1.8c2.2,0.2,3.4-0.7,3.4-0.7V12l-1.7-1.4l1.7-1.4V5.8
			c-0.9-0.1-2-0.4-2.7-0.6c-1-0.2-4.1-1.1-4.6-1.2c-0.5-0.1-1.1-0.1-1.5,0.3c-0.4,0.3-0.6,0.9-0.4,1.5c0.1,0.3,0.3,0.5,0.5,0.6
			c0,0-0.2,0-0.5-0.2c-0.6-0.4-1.1-1.1-1.1-1.9c-0.1-1.1,0.4-2.2,1.3-2.9c0.8-0.5,1.7-0.9,2.8-0.7c1.6,0.2,3.7,1.1,5.5,1.6
			c0.7,0.2,1.3,0.2,1.8-0.1c0.2-0.2,0.7-0.6,0.3-1.2c-0.4-0.7-1.2-0.7-1.8-0.8C144.3,0.1,144.5,0.1,144.9,0.2z"/>
		<path  d="M184.7,8.7v3.4l1.1,1c0,0,2.5-2,3.3-3.8c0,0-1.1,1.5-2.6,1C185.3,10,184.7,8.7,184.7,8.7 M181.9,17.7
			c0,0,1.1-1.8,2.9-1.4c1.8,0.4,2.4,2.2,2.4,2.2v-4.3l-1.2-1.1C184.6,14.6,182.2,16.5,181.9,17.7z M183.7,21
			c-0.3,0.1-1.8-0.3-2.2-1.8c-0.4-1.5,0.7-2.5,2.3-4.1l-1.9-1.7v-3.3c0,0,1.4-0.7,2.5-1.4c1.1-0.7,2.2-1.4,2.2-1.4s0.8,1,1.7,0.9
			c1.4-0.1,1.4-1.2,1.3-1.5c0.2,0.4,0.9,1.7-1.6,4.6l2,1.6v4.2c0,0-2.4,1.2-4.6,2.9c0,0-1.2-1.6-2.3-0.8
			C182.3,19.8,182.7,20.6,183.7,21z"/>
		<path  d="M101.8,16.2l2.6,2.4v-7.3l-2.6-2.4V16.2 M107.3,10.2l0.9-0.8l0.1,0.1l-0.9,0.8v6.7c0,0-1.7,0.9-2.9,1.6
			c-1.2,0.7-2.4,1.5-2.4,1.5L99,17.5l-0.8,0.7L98,18.1l0.9-0.8v-7.3h0c0,0,1.5-0.7,2.7-1.4c1.1-0.6,2.3-1.3,2.3-1.3L107.3,10.2z"/>
		<path  d="M113.4,9.6l2-2c0,0,0.3,0.2,0.5,0.4c0.1,0.1,0.7,0.4,1.3,0.1c0.3-0.2,0.3-0.2,0.7-0.5
			c0.1,1.6-0.7,2.7-1.6,3.1c-0.4,0.2-1.5,0.5-2.7-0.9V17l1.3,1.1l1-0.9l0.1,0.2l-3.3,2.7l-2.5-2.3l-0.9,0.8l-0.1-0.2l1.4-1.2l0-6.3
			l-1-1.4l-0.9,0.8l-0.1-0.1l3.2-2.8L113.4,9.6"/>
		<path  d="M121.7,12.6l3.7-5.3c0,0,0.5,0.6,1.3,0.8c1.1,0.3,2.1-0.8,2.1-0.8c-0.2,1.4-0.9,3-2.4,3.3
			c-1.3,0.2-2.5-0.8-2.5-0.8l-0.2,0.4l5.1,7.7l1-0.9l0.1,0.1l-3.5,3L121.7,12.6"/>
		<path  d="M118.7,5.5c0-1.1-0.5-1.9-1.1-1.8l4-2.8v15.9l0,0l1.1,1.1l0.8-0.7l0.1,0.1l-3.2,2.8l-2.2-2l-0.9,0.8l-0.1-0.2
			l1.5-1.3V5.5"/>
		<path  d="M93.1,9.9c0,0-0.4,0.5-1.1,0.5c-0.7,0-1.1-0.5-1.1-0.5v2.2c0,0,0.5-0.5,1.1-0.5c0.7,0,1.1,0.5,1.1,0.5V9.9
			 M93.1,5.3l-1.5-1.3l-0.7,0.6v5.1c0,0,0.5,0.6,1.2,0.6c0.7,0,1.1-0.6,1.1-0.6V5.3z M90.8,19.7c0,0,0.9,0.2,1.6-0.3
			c0.8-0.6,0.7-1.5,0.7-1.5v-5.5c0,0-0.4-0.6-1.1-0.6c-0.7,0-1.2,0.6-1.2,0.6V19.7z M85.4,5.2c0-1.1-0.4-1.7-1.1-1.7
			c-1,0-1.3,1.4-1.3,1.4s-0.2-1.1,0.7-2.1c0.5-0.6,1.5-1.3,3-1c1.6,0.4,2,1.6,2,2.7v14.7c0,0,0.6,0.1,1,0.2c0.5,0.1,0.9,0.2,0.9,0.2
			V1.9h0.2v2.4L94,1.7l2.3,2.1l1.1-0.9L97.6,3l-1.1,1v13.7c-0.1,0.9-0.2,1.8-1,2.3c-1.9,1.1-4.2-0.2-6.2-0.5
			c-1.5-0.2-3.9-0.5-4.5,0.9c-0.2,0.5-0.2,1.2,0.5,1.6c1.4,0.9,7.5-1.5,9.6-0.6c1.9,0.9,1.9,2.3,1.6,3.3c-0.5,1.8-2.8,2.1-2.8,2.1
			s1.1-0.7,0.8-1.7c-0.2-0.5-0.5-0.7-1.7-0.6c-2.6,0.3-5.7,1.6-7.8,0.7c-1.1-0.5-1.8-1.8-1.8-3.1c0.1-1.9,2.3-2.7,2.3-2.7v-7.1
			c-0.1-0.3-1.2-0.2-1.5,0.3c-0.4,0.8,0.5,1.1,0.5,1.1s-0.7,0.1-1.3-0.6c-0.3-0.3-0.9-1.5-0.1-2.7c0.7-0.9,1.5-1.1,2.5-1.2V5.2z"/>
	</g>
</g>
</svg>
