<svg xmlns="http://www.w3.org/2000/svg" width="30" height="30" viewBox="0 0 30 30"><title>Notebook</title><desc>Notebook with pencil</desc><path d="M18.3-18.9H2.7c-1.1 0-2-.9-2-2v-22.3c0-1.1.9-2 2-2h15.5c1.1 0 2 .9 2 2v22.3c0 1.1-.8 2-1.9 2z" fill="none" stroke="#000" stroke-width="1.25" stroke-miterlimit="10"/><g fill="none" stroke="#000" stroke-width="1.25" stroke-linecap="round" stroke-linejoin="round" stroke-miterlimit="10"><path d="M4.5-37.3h12.1M4.5-33h12.1M4.5-28.7h12.1M4.5-24.3h12.1"/></g><path d="M5.7-42.4h-.1c-.6 0-1.1-.5-1.1-1.1v-2.7c0-.6.5-1.1 1.1-1.1h.2c.6 0 1.1.5 1.1 1.1v2.7c-.1.6-.6 1.1-1.2 1.1zM15.5-42.4h-.2c-.6 0-1.1-.5-1.1-1.1v-2.7c0-.6.5-1.1 1.1-1.1h.2c.6 0 1.1.5 1.1 1.1v2.7c0 .6-.5 1.1-1.1 1.1zM28.2-22.2h-3.9v-22.3c0-.4.3-.6.6-.6h2.6c.4 0 .6.3.6.6v22.3z" fill="none" stroke="#000" stroke-width="1.25" stroke-linecap="round" stroke-linejoin="round" stroke-miterlimit="10"/><path fill="none" stroke="#000" stroke-width="1.25" stroke-miterlimit="10" d="M23.9-42.4h4.3M23.9-40.4h4.3"/><path fill="none" stroke="#000" stroke-width="1.25" stroke-linecap="round" stroke-linejoin="round" stroke-miterlimit="10" d="M24.3-24.9v2.7l2 3.3 1.9-3.3V-25"/><path d="M16.5 10.1h-12c-.3 0-.6.3-.6.6s.3.6.6.6h12.1c.3 0 .6-.3.6-.6s-.3-.6-.7-.6zM16.5 14.4h-12c-.3 0-.6.3-.6.6s.3.6.6.6h12.1c.3 0 .6-.3.6-.6s-.3-.6-.7-.6zM16.5 18.7h-12c-.3 0-.6.3-.6.6s.2.7.6.7h12.1c.3 0 .6-.3.6-.6s-.3-.7-.7-.7zM16.5 23h-12c-.3 0-.6.3-.6.6s.3.6.6.6h12.1c.3 0 .6-.3.6-.6s-.3-.6-.7-.6zM27.6 2.2H25c-.7 0-1.3.6-1.3 1.3V26.2l2 3.3c.1.2.3.3.5.3s.4-.1.5-.3l2-3.3v-.1V3.5c.2-.7-.4-1.3-1.1-1.3zm-1.3 25.7l-.9-1.5h1.8l-.9 1.5zm1.3-4.9v2.2h-2.7V8.3h2.7V23zm0-16.1H25v-.8h2.7v.8zm0-2H25V3.4h2.7v1.5z"/><path d="M18.3 2.2h-1.1v-.4c0-.9-.8-1.7-1.7-1.7h-.2c-.9 0-1.7.8-1.7 1.7v.4H7.4v-.4C7.4.9 6.6.1 5.7.1h-.1c-.9 0-1.7.8-1.7 1.7v.4H2.7C1.3 2.2.1 3.4.1 4.8v22.3c0 1.4 1.2 2.6 2.6 2.6h15.5c1.4 0 2.6-1.2 2.6-2.6V4.8c.1-1.4-1.1-2.6-2.5-2.6zm-3.4-.4c0-.2.2-.4.4-.4h.2c.2 0 .4.2.4.4v2.7c0 .2-.2.4-.4.4h-.2c-.2 0-.4-.2-.4-.4V1.8zm-9.8 0c0-.2.2-.4.4-.4h.2c.2 0 .4.2.4.4v2.7c0 .2-.2.4-.4.4h-.1c-.2 0-.4-.2-.4-.4V1.8zm14.5 25.3c0 .8-.6 1.4-1.4 1.4H2.7c-.8 0-1.4-.6-1.4-1.4V4.8c0-.8.6-1.4 1.4-1.4h1.1v1c0 .9.8 1.7 1.7 1.7h.2c.9 0 1.7-.8 1.7-1.7v-1h6.2v1c0 .9.8 1.7 1.7 1.7h.2c.9 0 1.7-.8 1.7-1.7v-1h1.1c.8 0 1.4.6 1.4 1.4v22.3z"/><g fill="none" stroke="#000" stroke-width="1.25" stroke-linecap="round" stroke-linejoin="round" stroke-miterlimit="10"><path d="M45.8-39.7h12.1M45.8-35.4h12.1M45.8-31h12.1M45.8-26.7h12.1"/></g><path d="M47.1-44.8h-.2c-.6 0-1.1-.5-1.1-1.1v-2.7c0-.6.5-1.1 1.1-1.1h.2c.6 0 1.1.5 1.1 1.1v2.7c0 .6-.5 1.1-1.1 1.1zM56.9-44.8h-.2c-.6 0-1.1-.5-1.1-1.1v-2.7c0-.6.5-1.1 1.1-1.1h.2c.6 0 1.1.5 1.1 1.1v2.7c-.1.6-.5 1.1-1.1 1.1zM69.6-24.6h-3.9v-22.3c0-.4.3-.6.6-.6H69c.4 0 .6.3.6.6v22.3z" fill="none" stroke="#000" stroke-width="1.25" stroke-linecap="round" stroke-linejoin="round" stroke-miterlimit="10"/><path fill="none" stroke="#000" stroke-width="1.25" stroke-miterlimit="10" d="M65.3-44.8h4.3M65.3-42.8h4.3"/><path fill="none" stroke="#000" stroke-width="1.25" stroke-linecap="round" stroke-linejoin="round" stroke-miterlimit="10" d="M65.7-27.3v2.7l2 3.3 1.9-3.3v-2.8"/><path fill="none" stroke="#000" stroke-width="1.25" stroke-miterlimit="10" d="M48.2-47.5h7.5M45.9-47.5h-1.8c-1.1 0-2 .9-2 2v22.3c0 1.1.9 2 2 2h15.5c1.1 0 2-.9 2-2v-22.3c0-1.1-.9-2-2-2h-1.4"/></svg>