<svg xmlns="http://www.w3.org/2000/svg" viewBox="0 0 24.834 45.5" id="numbers-light-bulb"><desc>Light bulb</desc><path fill="#FFF" d="M12.667 38.116l-.385-.004c-4.045-.104-4.916-2.032-5.484-4.175-.192-.725-.384-1.408-.84-2.053-.42-.59-.84-1.088-1.24-1.568-1.295-1.555-2.31-3.024-2.31-6.11 0-5.87 4.26-10.668 10.26-10.86v-.178.18c6 .19 10.01 4.988 10.01 10.858 0 3.612-1.45 5.168-3.26 7.137-.204.22-.426.452-.647.698-.628.7-.77 1.39-.978 2.19-.514 1.99-1.124 3.78-5.124 3.88v.006zm-.25-21.308c-3.742.1-6.757 3.38-6.757 7.398 0 1.832.573 2.52 1.716 3.893.422.505.9 1.08 1.396 1.78.82 1.154 1.117 2.27 1.355 3.17.367 1.384.423 1.59 2.312 1.6 1.62-.005 1.65-.116 1.95-1.286.253-.976.598-2.312 1.794-3.64.23-.257.45-.497.662-.727 1.646-1.79 2.326-2.53 2.326-4.79.002-4.02-3.013-7.3-6.755-7.4zM14.323 42.5h-3.466c-.765 0-1.386-.734-1.386-1.5s.622-1.5 1.387-1.5h3.466c.765 0 1.386.734 1.386 1.5s-.622 1.5-1.387 1.5zM14.323 45.5h-3.466c-.383 0-.692-.617-.692-1s.31-1 .692-1h3.466c.383 0 .692.617.692 1s-.31 1-.692 1zM12.167 10.396c-.766 0-1.5-.62-1.5-1.386V1.386C10.667.62 11.4 0 12.167 0s1.5.62 1.5 1.386V9.01c0 .764-.734 1.386-1.5 1.386zM20.1 13.168c-.355 0-.71-.135-.98-.406-.542-.54-.542-1.418 0-1.96l3.35-3.35c.54-.54 1.418-.54 1.96 0 .54.542.54 1.42 0 1.96l-3.35 3.35c-.272.27-.627.406-.98.406zM4.735 13.168c-.354 0-.71-.135-.98-.406l-3.35-3.35c-.54-.54-.54-1.418 0-1.96.542-.54 1.42-.54 1.96 0l3.35 3.35c.542.542.542 1.42 0 1.96-.27.27-.625.406-.98.406z"/></svg>
