<svg xmlns="http://www.w3.org/2000/svg" viewBox="0 0 144.018 144.018" id="numbers-ticker-outline"><desc>Clock outline</desc><path fill="#FFF" d="M71.306 111.52c-9.11 0-17.94-3.132-25.06-9.11-8.26-6.55-13.1-15.948-13.953-26.484C30.3 54.568 46.248 35.204 67.603 33.21c9.683-.854 18.51 1.71 26.77 8.26.57.568 1.708 1.14 2.56.854.57-.285 1.14-1.14 1.425-2.562l13.385.854c-.285 5.98-3.986 11.392-9.113 13.67-5.41 2.562-11.39 1.708-16.516-2.278-5.695-4.272-11.105-5.98-17.37-5.41-14.24 1.423-24.776 13.953-23.353 28.19.57 6.834 3.988 13.1 9.4 17.37 5.41 4.272 11.958 6.55 18.79 5.98 7.976-.853 15.095-5.125 19.366-11.675l11.105 7.12c-6.548 10.25-17.085 16.516-29.33 17.654-1.137.284-2.275.284-3.414.284"/><path fill="#FFF" d="M72.01 0C32.302 0 0 32.303 0 72.01s32.303 72.008 72.01 72.008 72.008-32.303 72.008-72.01S111.715 0 72.008 0zm2.132 5.904l-.287 7.543 1.967.075.288-7.533c1.167.07 2.324.174 3.474.306l-.857 7.478 1.957.225.854-7.455c1.174.17 2.34.367 3.492.598l-1.598 7.323 1.924.42 1.596-7.313c1.135.263 2.258.555 3.37.875l-2.134 7.158 1.887.562 2.133-7.154c1.125.362 2.234.756 3.332 1.175l-2.816 6.88 1.822.746 2.826-6.904c1.072.446 2.132.916 3.175 1.416l-3.317 6.667 1.762.877 3.31-6.65c1.03.533 2.046 1.09 3.043 1.675l-3.784 6.393 1.696 1.003 3.773-6.377c.996.625 1.973 1.276 2.933 1.95l-4.367 5.986 1.59 1.16 4.383-6.003c.925.693 1.83 1.415 2.718 2.155l-4.795 5.67 1.504 1.27 4.78-5.65c.88.777 1.74 1.574 2.578 2.397l-5.302 5.176 1.375 1.41 5.305-5.18c.8.834 1.58 1.69 2.336 2.565l-5.664 4.79 1.27 1.504 5.664-4.79c.74.91 1.454 1.843 2.146 2.793l-6.094 4.23 1.12 1.617 6.116-4.242c.653.955 1.287 1.924 1.892 2.914l-6.413 3.795 1.004 1.694 6.397-3.788c.582 1.02 1.14 2.056 1.667 3.11l-6.74 3.15.835 1.784 6.76-3.163c.49 1.05.948 2.115 1.382 3.193l-6.98 2.66.7 1.84 7.003-2.668c.4 1.086.77 2.188 1.11 3.3l-7.2 2.146.562 1.887 7.178-2.14c.312 1.136.598 2.28.85 3.44l-7.382 1.417.37 1.934 7.4-1.42c.214 1.138.397 2.286.55 3.443l-7.502.86.226 1.957 7.527-.863c.118 1.153.205 2.314.264 3.483l-7.6.29.073 1.967 7.576-.29c.01.452.034.898.034 1.352 0 .738-.03 1.47-.056 2.203l-7.592-.482-.125 1.966 7.627.484c-.073 1.17-.178 2.332-.312 3.484L130.13 78.6l-.274 1.95 7.607 1.067c-.17 1.16-.365 2.31-.594 3.45l-7.54-1.647-.42 1.924 7.527 1.643c-.27 1.16-.568 2.31-.898 3.446l-7.35-2.392-.61 1.874 7.387 2.404c-.36 1.113-.752 2.213-1.17 3.3l-7.207-2.95-.746 1.823 7.23 2.96c-.452 1.08-.926 2.148-1.432 3.198l-7.033-3.5-.878 1.764 7.012 3.49c-.55 1.057-1.123 2.098-1.727 3.12l-6.682-4.175-1.043 1.67 6.697 4.186c-.626.99-1.276 1.96-1.952 2.914l-6.404-4.675-1.162 1.59 6.418 4.684c-.717.953-1.465 1.88-2.23 2.793l-5.966-5.295-1.307 1.473 5.982 5.31c-.78.874-1.58 1.73-2.403 2.562l-5.616-5.75-1.407 1.375 5.61 5.743c-.866.823-1.753 1.624-2.66 2.4l-5.06-6.28-1.534 1.236 5.076 6.3c-.914.735-1.85 1.443-2.803 2.13l-4.63-6.673-1.618 1.124 4.643 6.69c-.99.672-2.007 1.31-3.036 1.927l-3.986-7.124-1.72.96 4 7.147c-1.026.574-2.065 1.126-3.124 1.646l-3.48-7.447-1.784.834 3.48 7.446c-1.092.497-2.2.966-3.322 1.404l-2.742-7.77-1.855.654 2.755 7.812c-1.11.396-2.234.758-3.37 1.095l-2.172-8.01-1.9.517 2.18 8.032c-1.14.3-2.29.577-3.452.817l-1.576-8.208-1.934.37 1.573 8.19c-1.186.21-2.382.388-3.59.532l-.742-8.33-1.96.175.746 8.363c-1.174.104-2.357.177-3.55.22l-.106-8.407-1.898.024-1.906-.024-.107 8.427c-1.194-.03-2.378-.09-3.555-.18l.75-8.424-1.96-.173-.75 8.428c-1.214-.13-2.415-.3-3.608-.495l1.598-8.324-1.934-.37-1.602 8.348c-1.17-.23-2.33-.482-3.476-.77l2.23-8.22-1.9-.516-2.23 8.213c-1.144-.324-2.276-.68-3.395-1.063l2.84-8.045-1.857-.654-2.836 8.038c-1.138-.43-2.258-.894-3.365-1.384l3.616-7.735-1.783-.834-3.627 7.758c-1.072-.512-2.128-1.052-3.167-1.62l4.186-7.482-1.718-.96-4.176 7.46c-1.046-.612-2.077-1.25-3.086-1.917l4.88-7.035-1.617-1.123-4.886 7.042c-.968-.684-1.917-1.392-2.847-2.125l5.378-6.675-1.533-1.236-5.378 6.674c-.93-.778-1.83-1.586-2.715-2.412l5.98-6.126-1.407-1.375-6 6.144c-.84-.835-1.66-1.688-2.456-2.566l6.42-5.698-1.307-1.473-6.403 5.683c-.786-.92-1.55-1.86-2.286-2.822l6.91-5.043-1.16-1.59-6.915 5.047c-.69-.962-1.354-1.942-1.994-2.94l7.25-4.53-1.042-1.67-7.25 4.53c-.623-1.038-1.21-2.097-1.775-3.17l7.63-3.797-.878-1.764-7.65 3.81c-.52-1.064-1.018-2.14-1.48-3.234l7.895-3.23-.746-1.823-7.874 3.223c-.428-1.103-.83-2.217-1.2-3.347l8.085-2.632-.61-1.873-8.058 2.623c-.34-1.16-.65-2.332-.927-3.517l8.264-1.803-.42-1.924-8.283 1.81c-.234-1.158-.435-2.328-.608-3.507l8.368-1.174-.273-1.95-8.344 1.17c-.138-1.17-.247-2.35-.322-3.54l8.398-.534-.125-1.965-8.364.53c-.026-.748-.058-1.496-.058-2.252 0-.462.025-.92.035-1.38l8.35.32.074-1.968-8.374-.32c.06-1.188.152-2.368.274-3.54l8.29.95.226-1.957-8.267-.947c.157-1.177.344-2.345.563-3.5l8.15 1.564.37-1.934-8.125-1.56c.26-1.183.555-2.352.88-3.51l7.89 2.354.562-1.887-7.914-2.36c.352-1.127.74-2.24 1.15-3.343l7.677 2.924.7-1.84-7.653-2.916c.445-1.093.914-2.173 1.415-3.236l7.4 3.462.835-1.783-7.364-3.444c.543-1.07 1.115-2.124 1.714-3.16l6.975 4.13 1.003-1.695-6.975-4.128c.62-1 1.266-1.98 1.935-2.94l6.63 4.6 1.124-1.616-6.612-4.59c.71-.96 1.44-1.907 2.2-2.827l6.13 5.183 1.27-1.503-6.11-5.168c.772-.88 1.564-1.74 2.38-2.58l5.707 5.572 1.375-1.41-5.685-5.55c.856-.827 1.734-1.63 2.634-2.41l5.11 6.038 1.503-1.27-5.115-6.047c.904-.74 1.83-1.45 2.774-2.143l4.647 6.367 1.59-1.16-4.633-6.35c.978-.672 1.97-1.326 2.984-1.947l3.99 6.737 1.693-1.003-3.98-6.727c1.01-.58 2.038-1.133 3.082-1.66l3.467 6.968 1.763-.876-3.46-6.953c1.056-.492 2.126-.955 3.21-1.393l2.934 7.167 1.82-.746-2.923-7.145c1.11-.41 2.234-.79 3.37-1.142l2.204 7.386 1.888-.562-2.195-7.36c1.12-.31 2.25-.593 3.394-.844l1.633 7.484 1.924-.42-1.626-7.457c1.16-.218 2.33-.404 3.51-.56l.865 7.55 1.956-.225-.87-7.575c1.153-.12 2.315-.207 3.484-.265l.29 7.588 1.967-.075-.29-7.56c.453-.01.903-.036 1.358-.036.716 0 1.424.03 2.134.054zm-1.705 132.253l-.082.002.04-3.186.042 3.183z"/></svg>
