<?xml version="1.0" encoding="utf-8"?>
<!-- Generator: Adobe Illustrator 19.0.0, SVG Export Plug-In . SVG Version: 6.00 Build 0)  -->
<svg version="1.1" id="Layer_15" xmlns="http://www.w3.org/2000/svg" xmlns:xlink="http://www.w3.org/1999/xlink" x="0px" y="0px"
	 width="152px" height="27px" viewBox="0 0 152 27" style="enable-background:new 0 0 152 27;" xml:space="preserve">
<g>
	<path style="fill:#7D7D7D;" d="M151.3,19.6c-0.8-1.2-1-2.4-0.9-3.7c0-0.9,0-1.7,0-2.6c0-0.7,0.2-1.4,0.3-2.2
		c-0.6-0.6-1.4-1.2-2.1-1.9c-1.1,0.8-2.2,1.6-3.3,2.4c-0.8,0.5-1.1,1.2-1.1,2.2c0.1,1.4,0.1,2.9,0,4.3c0,1.3,0.7,2.1,1.9,3
		c0.7-0.8,1.4-1.6,2-2.4c0.5,0.8,0.9,1.5,1.3,2.2c0.7,1.2,0.7,2.5-0.3,3.6c-0.9,1-2.4,1.4-3.6,0.8c-0.6-0.3-1.1-0.7-1-1.6
		c0.3,0,0.7,0.1,0.8-0.1c0.3-0.3,0.7-0.7,0.7-1c-0.1-0.3-0.6-0.7-0.9-0.8c-0.7-0.1-1.1,0.4-1.2,1.1c-0.2,1.1,0.5,2.3,1.6,2.7
		c1.6,0.7,3.9,0.1,5.1-1.3C152.1,23,152.4,21.2,151.3,19.6z M148.3,17.9c0,0.4-0.6,0.7-0.9,1c-0.3-0.4-0.9-0.8-0.9-1.2
		c-0.1-1,0-2,0-3c0,0,0,0,0,0c0-0.9,0-1.8,0-2.7c0-0.6,0.1-1.2,0.7-1.2c0.4,0.1,1.1,0.7,1.2,1.1C148.4,13.9,148.4,15.9,148.3,17.9z"
		/>
	<path style="fill:#7D7D7D;" d="M51.6,6.7c-0.8-2-3.7-3-6-2.2c-1.4,0.5-2.1,1.6-1.7,2.9c0-0.3,0.1-0.6,0.1-0.8c0.3-1.2,1.5-2,3-2
		c1.2,0,2,0.7,2.1,1.7c0.1,1.4,0.1,2.8,0,4.2c0,0.4-0.6,0.9-1,1.1c-0.4,0.2-0.9-0.1-1.3-0.2c0-0.1,0-0.3,0.1-0.4
		c0.2-0.1,0.4-0.1,0.5-0.2c0.3-0.3,0.7-0.8,0.6-1.1c-0.1-0.4-0.5-0.9-0.9-1c-0.9-0.3-1.7,0.6-1.5,1.5c0.2,0.8,1.4,1.9,2.2,1.9
		c0.9,0,1.4,0.6,1.4,1.4c0.1,2,0.1,3.9,0,5.9c0,0.4-0.5,0.9-0.9,1c-0.4,0.1-1-0.3-1.3-0.6c-0.3-0.4-0.5-0.9-0.7-1.4
		c-0.5-1-1.2-1.9-2.5-1.8c-1.4,0.1-2.6,0.7-3.3,2c-0.4,0.8-0.3,1.7,0.4,2.4c0.6,0.6,1.3,0.5,2,0.2c-0.1,0-0.2,0-0.4,0
		c-0.7,0.1-1.5,0.1-1.7-0.7c-0.2-0.6-0.2-1.5,0.1-2c0.3-0.4,1.3-0.8,1.8-0.6c0.6,0.2,1.1,0.9,1.4,1.5c0.9,1.4,2.1,2,3.7,1.5
		c2.2-0.6,3.5-2.1,4-4.3c0.4-1.9-0.5-3.5-2.2-4.4c-0.3-0.1-0.6-0.3-1-0.4C51.3,10.7,52.4,8.8,51.6,6.7z"/>
	<path style="fill:#7D7D7D;" d="M7.6,5.8c0,0-0.2,0.2-0.2,0.2C6.8,5.5,6.3,5,5.6,4.6C4.6,4,3.5,4,2.5,4.7c-1,0.7-1.3,1.7-1.1,2.8
		C1.5,8.2,2,8.9,2.2,9.6c0.1,0.4,0.2,0.9,0,1.2c-0.1,0.2-0.7,0.1-1.1,0.1c0.4,1,1.1,1.5,2,1.3c1-0.2,1.6-1.1,1.5-2.2
		C4.6,9.3,4.3,8.7,4,8C3.7,7.4,3.3,6.8,3.1,6.1c-0.3-0.9,0.1-1.5,1-1.6c1-0.1,1.2,0.5,1.2,1.3c0,3.9,0,7.9,0,11.8
		c0,0.2-0.1,0.5-0.1,0.8c-2.5-1.3-2.9-1.4-3.8-0.7c-0.9,0.7-1.5,1.5-1.3,2.8c1.4-2,2.4-1.9,3.7,0.4c1-1.2,1.9-2.4,2.9-3.6
		c0.6-0.7,0.9-1.5,0.8-2.4c-0.1-1.8,0-3.7,0-5.5C7.5,8.1,7.6,6.9,7.6,5.8z"/>
	<path style="fill:#7D7D7D;" d="M109.5,6.5c-0.7-2-3.2-3.1-5.8-2.5c-1.5,0.4-2.3,1.5-2.1,3.1c0.1-0.5,0.1-0.8,0.2-1
		c0.3-1.1,1.4-1.9,2.7-1.9c1.2,0,2.1,0.5,2.2,1.4c0.1,1.6,0.1,3.1,0,4.7c0,0.4-0.6,0.9-1,1c-0.4,0.1-0.9-0.2-1.3-0.3
		c0-0.1,0.1-0.2,0.1-0.4c0.1,0,0.2-0.1,0.3-0.1c0.7-0.1,1.1-0.6,0.9-1.2c-0.2-0.4-0.7-0.8-1.2-0.9c-0.7-0.1-1.2,0.4-1.2,1.1
		c-0.1,0.8,1.2,2.3,1.9,2.3c1.1,0.1,1.7,0.5,1.7,1.6c0.1,1.8,0,3.6,0,5.4c0,0.6-0.3,1.2-1,1.3c-0.7,0.1-1.1-0.3-1.4-0.9
		c-0.3-0.6-0.6-1.1-0.9-1.7c-0.5-0.9-1.3-1.4-2.4-1.3c-1.4,0.2-2.5,0.9-2.9,2c0.1,0,0.1,0,0.2-0.1c1.3-1.2,2.3-1,3.2,0.5
		c1.1,1.9,2.4,2.4,4.2,1.7c1.4-0.5,2.4-1.4,3.1-2.7c1.4-2.6,0.4-5-2.3-6c-0.1,0-0.2-0.1-0.4-0.2C109.3,10.5,110,8.2,109.5,6.5z"/>
	<path style="fill:#7D7D7D;" d="M11.4,17.3c0-1.3,0-2.6,0-3.8c-0.1-1.3,0.1-2.4,1.5-3.1c-1-0.3-1.2-1-1.1-1.8c0.1-0.9,0-1.8,0-2.8
		c0-1-0.8-1.8-1.8-1.6C9.3,4.3,8.6,4.7,8,5C8,5.1,8,5.1,8.1,5.2c1.2-0.4,1.4-0.3,1.4,1c0,0.6,0,1.1,0,1.7c0,1.9,0.1,2.1,2,2.7
		c-1.9,0.8-2.4,2.2-2.3,4.1c0.1,0.9,0,1.8,0,2.7c0,1.6,0.8,2.6,2.1,3.4c0.6-0.8,1.2-1.7,1.9-2.5C12.1,18.9,11.5,18.6,11.4,17.3z"/>
	<path style="fill:#7D7D7D;" d="M65.1,11c-0.5-0.7-0.9-1.4-1.4-2.1c-0.8,0.9-1.5,1.6-2.2,2.4c0.9-0.3,1.1,0.1,1.1,0.8
		c0,1.5,0,3.1,0,4.6c0,0.7-0.2,1.3-0.3,2c0.4,0.6,1,1.3,1.5,2c0.7-0.8,1.4-1.5,2.1-2.3c0,0,0-0.1-0.1-0.1c-0.3,0.1-0.5,0.3-0.8,0.4
		c-0.1-0.2-0.2-0.2-0.2-0.3c0-2.2,0-4.3,0-6.5c0-0.3,0.3-0.6,0.5-1c0.5,0.6,1,1.1,1.4,1.6c0.4-0.4,0.8-0.7,1.2-1
		c0.1-0.1,0.2-0.2,0.4-0.4c-0.4-0.7-0.9-1.3-1.4-2.1C66.2,9.8,65.6,10.4,65.1,11z"/>
	<path style="fill:#7D7D7D;" d="M33,14.4c0.9-0.6,1.8-1.4,2.8-2.1c-0.6-1.1-1.2-2.2-1.7-3.2c-1.1,0.8-2.2,1.5-3.1,2.3
		c-0.4,0.4-0.7,1.1-0.7,1.7c-0.1,1.7,0,3.4,0,5c0,1.3,0.7,2.2,2,2.6c0.7-0.7,1.4-1.5,2.2-2.4c-1.5,0.7-2,0.4-2-1c0-0.5,0-1,0-1.5
		C32.2,15.2,32.4,14.8,33,14.4z M32.3,11c0.1,0,0.1,0,0.2-0.1c0.4,0.8,0.9,1.6,1.3,2.5c-0.5,0.4-0.9,0.7-1.5,1.2
		C32.3,13.3,32.3,12.2,32.3,11z"/>
	<path style="fill:#7D7D7D;" d="M75.7,10.3c0-2.1-0.2-4.2,1.3-6c-0.1-0.1-0.3-0.1-0.4-0.2c-0.7,0.9-1.4,1.8-2.1,2.7
		c-0.5-0.3-1.1-0.7-1.6-1c-0.1,0.1-0.1,0.1-0.2,0.2c1,0.7,1.1,1.7,1.1,2.8c0,2.7,0,5.4,0,8.1c0,0.7-0.4,1.3-0.5,1.8
		c0.5,0.5,1.1,1.2,1.6,1.7c0.4-0.5,0.9-1.1,1.2-1.6c-0.1-0.7-0.3-1.3-0.3-1.9C75.7,14.7,75.7,12.5,75.7,10.3z"/>
	<path style="fill:#7D7D7D;" d="M70.8,10.6c0.1,0,0.2,0,0.3,0c0.4,0.5,0.7,1.1,1.1,1.7c0.5-0.4,0.9-0.7,1.4-1.1
		c-0.4-0.7-0.8-1.4-1.2-2.1c-1.1,0.8-2.2,1.6-3.1,2.4c-0.4,0.4-0.7,1-0.8,1.6c-0.1,1.5,0,3,0,4.5c0,1.7,0.7,2.6,2.2,3.1
		c0.5-0.7,0.9-1.3,1.3-1.9c-1.2-0.2-1.4-0.5-1.4-1.9c0-1.8,0-3.5,0-5.3C70.6,11.3,70.7,11,70.8,10.6z"/>
	<path style="fill:#7D7D7D;" d="M124.6,17.7c0-1.9,0-3.9,0-5.8c0-0.7,0.2-1,1-1.1c-1,0-0.9-0.6-0.9-1.2c0-0.8,0-1.7,0-2.6
		c-1,1.4-1.8,2.7-2.6,3.9c0.1,0.1,0.5,0.3,0.5,0.5c-0.2,2.5,0.6,5-0.5,7.5c0.4,0.5,0.9,1.2,1.3,1.8c0.7-0.7,1.5-1.3,2.3-2.1
		C124.7,18.7,124.6,18.3,124.6,17.7z"/>
	<path style="fill:#7D7D7D;" d="M55.6,11c0-0.9-0.4-1.5-1.3-1.8c-0.8,0.8-1.5,1.6-2.2,2.4c1-0.3,1.4-0.2,1.4,0.8c0,1.4,0,2.8,0,4.2
		c0,0.7-0.2,1.4-0.4,2.2c0.4,0.5,0.9,1.2,1.2,1.6c0.7-0.6,1.3-1.3,1.8-1.8c-0.2-0.3-0.5-0.8-0.5-1.2C55.6,15.2,55.6,13.1,55.6,11z"
		/>
	<path style="fill:#7D7D7D;" d="M23.6,17.3c0-2.1,0-4.1,0-6.2c0-1-0.4-1.6-1.3-2c-0.8,0.8-1.5,1.6-2.4,2.6c1.2-0.5,1.5-0.3,1.6,0.9
		c0,1.4,0,2.8,0,4.1c0,0.7-0.2,1.3-0.4,2.1c0.4,0.5,0.9,1.1,1.2,1.5c0.7-0.6,1.3-1.3,1.9-1.8C23.6,18.5,23.6,17.9,23.6,17.3z"/>
	<path style="fill:#7D7D7D;" d="M138.8,12.4c0.1-0.8-0.1-1.4-0.3-2.1c-0.2-0.5-0.7-0.9-1-1.4c-0.8,0.9-1.6,1.7-2.5,2.7
		c0.8-0.4,1.6-0.8,1.6,0.2c0,2.3,0.5,4.6-0.4,6.8c0.5,0.7,0.9,1.3,1.4,2c0.5-0.7,1-1.3,1.6-2c-0.1-0.3-0.4-0.6-0.4-0.9
		C138.7,16,138.6,14.2,138.8,12.4z"/>
	<path style="fill:#7D7D7D;" d="M133.8,17.6c0-1.5-0.1-3.1,0-4.6c0-0.6,0.2-1.3,0.4-2c-0.4-0.5-0.9-1.1-1.3-1.7
		c-0.6,0.7-1.1,1.3-1.6,1.8c0.1,0.5,0.4,1,0.4,1.5c0.1,1.4,0.1,2.8,0,4.2c0,0.5-0.2,0.9-0.4,1.4c0.1,0.1,0.3,0.2,0.4,0.4
		c0.3,0.7,0.6,1.5,1,2.3c1-1,1.7-1.9,2.6-2.8c-0.5,0.2-0.9,0.4-1.2,0.5C134,18.3,133.8,17.9,133.8,17.6z"/>
	<path style="fill:#7D7D7D;" d="M131.3,18.3C131.3,18.3,131.3,18.3,131.3,18.3C131.3,18.2,131.3,18.2,131.3,18.3L131.3,18.3z"/>
	<path style="fill:#7D7D7D;" d="M89.7,9c0,0.1,0,0.3,0.1,0.4c-0.8,0.7-1.6,1.4-2.4,2c1.1-0.5,1.4-0.2,1.4,1.1c0,1.4,0,2.8,0,4.2
		c0,0.7-0.3,1.3-0.4,2.1c0.4,0.5,0.9,1.2,1.4,1.9c0.9-0.9,1.8-1.7,2.7-2.6c-0.5,0.2-0.9,0.3-1.3,0.4c-0.1-0.4-0.3-0.8-0.3-1.2
		c0-1.7,0-3.4,0-5.1c0-0.4,0.2-0.8,0.4-1.2l-0.1-0.1c-0.1-0.2-0.3-0.4-0.4-0.5C90.4,10,90,9.5,89.7,9z"/>
	<path style="fill:#7D7D7D;" d="M129.9,17.1c0-2,0-4.1,0-6.1c0-0.9-0.4-1.5-1.3-1.8c-0.6,0.7-1.2,1.4-1.9,2.1
		c0.9,0.2,1.1,0.3,1.1,1.2c0,1.4,0.1,2.8,0,4.2c0,0.7-0.3,1.3-0.4,2.1c0.4,0.5,0.9,1.2,1.3,1.7c0.8-0.7,1.7-1.4,2.5-2.2
		C130.1,18.5,129.9,18.4,129.9,17.1z"/>
	<path style="fill:#7D7D7D;" d="M131.3,18.3C131.3,18.3,131.3,18.2,131.3,18.3C131.2,18.2,131.2,18.3,131.3,18.3
		C131.2,18.3,131.3,18.3,131.3,18.3z"/>
	<path style="fill:#7D7D7D;" d="M120,18.4c-0.1-0.3-0.3-0.6-0.3-0.9c0-1.4-0.1-2.8,0-4.2c0-0.8,0.3-1.5,0.5-2.4
		c-0.3-0.4-0.8-1-1.2-1.7c-0.8,0.7-1.5,1.4-2.3,2.1c0.8-0.4,1-0.1,1,0.7c0,1.6,0,3.2,0,4.8c0,0.6-0.2,1.3-0.4,2
		c0.3,0.5,0.8,1.1,1.1,1.6c0.9-0.8,1.8-1.5,2.7-2.3c0,0-0.1-0.1-0.1-0.1C120.5,18.2,120.2,18.3,120,18.4z"/>
	<path style="fill:#7D7D7D;" d="M142.5,18.1c0.1-2.4-0.4-4.8,0.3-7.1c-0.5-0.6-1-1.2-1.4-1.8c-0.6,0.7-1.3,1.4-2,2.1
		c1.1-0.3,1.1,0.4,1.1,1.1c0,2,0,4.1,0,6.1c0,1,0.3,1.7,1.1,2.3c0.6-0.7,1.3-1.4,1.7-1.9C143,18.6,142.5,18.3,142.5,18.1z"/>
	<path style="fill:#7D7D7D;" d="M59.6,17.6c0-1.6,0-3.2,0-4.8c0-0.6,0.2-1.1,0.4-1.8c-0.4-0.5-0.9-1.1-1.3-1.7
		c-0.5,0.6-1.1,1.3-1.6,1.9c0.2,0.4,0.4,0.8,0.4,1.2c0.1,1.7,0.1,3.4,0,5c-0.1,1.3,0.2,2.4,1.1,3.4c0.7-0.7,1.4-1.5,2.3-2.4
		C59.7,19,59.6,18.4,59.6,17.6z"/>
	<path style="fill:#7D7D7D;" d="M27.6,17.7c0-1.6,0-3.3,0-4.9c0-0.6,0.2-1.1,0.4-1.8c-0.4-0.5-0.9-1.1-1.3-1.7
		c-0.6,0.7-1.1,1.3-1.6,1.9c0.2,0.4,0.4,0.8,0.4,1.1c0.1,1.7,0.1,3.4,0,5c-0.1,1.4,0.2,2.5,1.1,3.4c0.7-0.8,1.4-1.5,2.2-2.4
		C27.8,18.8,27.6,18.7,27.6,17.7z"/>
	<path style="fill:#7D7D7D;" d="M79.6,11.4c0-1-0.4-1.7-1.1-2.3c-0.6,0.6-1.2,1.1-1.6,1.5c0.3,0.5,0.7,1,0.7,1.4c0.1,3,0,6.1,0,9.1
		c0.4-0.4,0.8-0.9,1.2-1.3c0.7-0.5,0.9-1.1,0.8-2C79.5,15.7,79.5,13.5,79.6,11.4z"/>
	<path style="fill:#7D7D7D;" d="M91.1,11.1L91.1,11.1c0.6,0.6,1.1,1,1.7,1.6c0.4-0.4,1-0.8,1.6-1.3c-0.5-0.7-1-1.4-1.5-2.2
		C92.3,9.9,91.7,10.5,91.1,11.1z"/>
	<path style="fill:#7D7D7D;" d="M118.7,7.9c0.1,0,0.2,0,0.3,0c0.3-0.7,0.6-1.4,0.8-2.2c0.1-0.3-0.2-0.8-0.4-1.1
		c-0.2-0.2-0.8-0.1-1,0c-0.3,0.2-0.5,0.7-0.4,1.1C118.1,6.4,118.5,7.1,118.7,7.9z"/>
	<path style="fill:#7D7D7D;" d="M55.3,7.9c0.3-0.7,0.7-1.3,0.8-2C56.2,5.5,56,5,55.7,4.7c-0.2-0.2-0.8-0.2-1,0
		c-0.3,0.3-0.6,0.8-0.5,1.1c0.1,0.7,0.5,1.4,0.7,2.1C55.1,7.9,55.2,7.9,55.3,7.9z"/>
	<path style="fill:#7D7D7D;" d="M58.5,7.9c0.1,0,0.2,0,0.3,0c0.3-0.7,0.6-1.3,0.8-2.1c0.1-0.4-0.1-0.9-0.4-1.2c-0.2-0.2-0.8-0.2-1,0
		c-0.3,0.3-0.5,0.8-0.4,1.2C57.9,6.6,58.2,7.3,58.5,7.9z"/>
	<path style="fill:#7D7D7D;" d="M16.9,14.4c0.9-0.6,1.8-1.4,2.8-2.1c-0.6-1.1-1.2-2.2-1.7-3.2c-1.1,0.8-2.2,1.5-3.1,2.3
		c-0.4,0.4-0.7,1.1-0.7,1.7c-0.1,1.7,0,3.4,0,5c0,1.3,0.7,2.2,2,2.6c0.7-0.7,1.4-1.5,2.2-2.4c-1.5,0.7-2,0.4-2-1c0-0.5,0-1,0-1.5
		C16.1,15.2,16.3,14.8,16.9,14.4z M16.2,11c0.1,0,0.1,0,0.2-0.1c0.4,0.8,0.9,1.6,1.3,2.5c-0.5,0.4-0.9,0.7-1.5,1.2
		C16.2,13.3,16.2,12.2,16.2,11z"/>
	<path style="fill:#7D7D7D;" d="M113.5,14.4c0.9-0.6,1.8-1.4,2.8-2.1c-0.6-1.1-1.2-2.2-1.7-3.2c-1.1,0.8-2.2,1.5-3.1,2.3
		c-0.4,0.4-0.7,1.1-0.7,1.7c-0.1,1.7,0,3.4,0,5c0,1.3,0.7,2.2,2,2.6c0.7-0.7,1.4-1.5,2.2-2.4c-1.5,0.7-2,0.4-2-1c0-0.5,0-1,0-1.5
		C112.7,15.2,112.9,14.8,113.5,14.4z M112.9,11c0.1,0,0.1,0,0.2-0.1c0.4,0.8,0.9,1.6,1.3,2.5c-0.5,0.4-0.9,0.7-1.5,1.2
		C112.9,13.3,112.9,12.2,112.9,11z"/>
	<path style="fill:#7D7D7D;" d="M84,14.4c0.9-0.6,1.8-1.4,2.8-2.1c-0.6-1.1-1.2-2.2-1.7-3.2c-1.1,0.8-2.2,1.5-3.1,2.3
		c-0.4,0.4-0.7,1.1-0.7,1.7c-0.1,1.7,0,3.4,0,5c0,1.3,0.7,2.2,2,2.6c0.7-0.7,1.4-1.5,2.2-2.4c-1.5,0.7-2,0.4-2-1c0-0.5,0-1,0-1.5
		C83.3,15.2,83.5,14.8,84,14.4z M83.4,11c0.1,0,0.1,0,0.2-0.1c0.4,0.8,0.9,1.6,1.3,2.5c-0.5,0.4-0.9,0.7-1.5,1.2
		C83.4,13.3,83.4,12.2,83.4,11z"/>
</g>
</svg>
