<?xml version="1.0" encoding="utf-8"?>
<!-- Generator: Adobe Illustrator 18.1.1, SVG Export Plug-In . SVG Version: 6.00 Build 0)  -->
<!DOCTYPE svg PUBLIC "-//W3C//DTD SVG 1.1//EN" "http://www.w3.org/Graphics/SVG/1.1/DTD/svg11.dtd">
<svg version="1.1" id="Layer_1" xmlns="http://www.w3.org/2000/svg" xmlns:xlink="http://www.w3.org/1999/xlink" x="0px" y="0px"
	 viewBox="0 0 18.5 14.7" enable-background="new 0 0 18.5 14.7" xml:space="preserve">
<title>Leave site arrow</title>
<desc>Indicates this link leaves the Casper site</desc>

<path fill="#9A9B9C" d="M18.4,6l-6.2-5.9C12,0,11.8,0,11.6,0c-0.2,0.1-0.3,0.2-0.3,0.4v3.9C1.3,4.6,0,14.1,0,14.2
	c0,0.2,0.1,0.4,0.3,0.5c0,0,0.1,0,0.1,0c0.2,0,0.3-0.1,0.4-0.2c2.9-5,7.8-6,9.8-6c0.3,0,0.5,0,0.6,0v3.9c0,0.2,0.1,0.3,0.3,0.4
	c0.2,0.1,0.4,0,0.5-0.1l6.3-6.1c0.1-0.1,0.1-0.2,0.1-0.3C18.5,6.2,18.5,6.1,18.4,6z"/>
</svg>
