<?xml version="1.0" encoding="utf-8"?>
<!-- Generator: Adobe Illustrator 18.1.1, SVG Export Plug-In . SVG Version: 6.00 Build 0)  -->
<svg version="1.1" id="Layer_1" xmlns="http://www.w3.org/2000/svg" xmlns:xlink="http://www.w3.org/1999/xlink" x="0px" y="0px"
	 viewBox="0 0 30.8 28.1" enable-background="new 0 0 30.8 28.1" xml:space="preserve">
<title>We're available</title>
<desc>Pictorial representation of an ear listening.</desc>
<g>
	<path d="M23,28.1c-1.3,0-2.7-0.3-3.8-1c-2.1-1.3-3.2-3.5-3.1-6.3c0.1-2.2-0.8-3.5-1.9-4.9c-1.1-1.5-2.4-3.2-2.4-6.2
		c0-3,1-5.6,3-7.3c1.7-1.5,4-2.4,6.4-2.4c4,0,8.1,2.6,8.1,7.4c0,0.5-0.4,0.9-0.9,0.9c-0.5,0-0.9-0.4-0.9-0.9c0-3.9-3.3-5.7-6.3-5.7
		c-2,0-3.9,0.7-5.2,1.9c-1.6,1.4-2.4,3.5-2.4,6c0,2.4,1,3.7,2,5.1c1.1,1.5,2.4,3.2,2.3,6c-0.1,2.7,1.2,4,2.2,4.7c1.6,1,4,1,5.7,0.1
		c1.4-0.8,2.2-2.1,2.2-3.6c0-0.5,0.4-0.9,0.9-0.9s0.9,0.4,0.9,0.9c0,2.2-1.1,4.1-3.1,5.2C25.6,27.8,24.3,28.1,23,28.1z"/>
</g>
<g>
	<path d="M17.6,13.5c-0.4,0-0.7-0.2-0.8-0.6c-1-3-0.5-5.8,1.2-7.5c1.3-1.2,3-1.6,4.6-1.1c2,0.7,3.4,2.9,3.7,5.9
		c0.1,0.5-0.3,0.9-0.8,1c-0.5,0.1-0.9-0.3-1-0.8c-0.3-2.3-1.2-4-2.6-4.5c-0.9-0.3-2-0.1-2.8,0.7c-1.3,1.2-1.5,3.4-0.8,5.7
		c0.2,0.5-0.1,1-0.6,1.1C17.7,13.5,17.7,13.5,17.6,13.5z"/>
</g>
<g>
	<path d="M23.9,20.7c-0.3,0-0.7,0-1-0.1c-2.1-0.5-3.5-2.5-3.6-5.3C19.1,11,22,8.7,24.5,8c0.5-0.1,1,0.2,1.1,0.6
		c0.1,0.5-0.2,1-0.6,1.1c-0.7,0.2-4.1,1.3-3.9,5.5c0.1,2.8,1.6,3.5,2.2,3.7c0.9,0.2,1.6-0.1,1.9-0.5c0.3-0.6,0.1-1.1-0.5-2
		c-0.4-0.7-0.8-1.3-0.8-2.2c0-1.1,0.7-2.1,1.8-2.4c1.1-0.3,2.2,0.2,2.8,1.3c0.2,0.4,0.1,1-0.3,1.2c-0.4,0.2-1,0.1-1.2-0.3
		c-0.2-0.4-0.5-0.5-0.8-0.4c-0.2,0.1-0.5,0.3-0.5,0.6c0,0.3,0.3,0.8,0.6,1.2c0.6,1,1.4,2.3,0.5,3.8C26.2,20.2,25.1,20.7,23.9,20.7z"
		/>
</g>
<g>
	<path d="M8.2,5.5c-0.1,0-0.2,0-0.3,0L0.6,2.9C0.1,2.8-0.1,2.3,0,1.8s0.7-0.7,1.1-0.5l7.3,2.5C9,4,9.2,4.5,9.1,4.9
		C8.9,5.3,8.6,5.5,8.2,5.5z"/>
</g>
<g>
	<path d="M0.9,16.1c-0.4,0-0.8-0.3-0.9-0.7c-0.1-0.5,0.2-1,0.7-1.1l7.6-1.6c0.5-0.1,1,0.2,1.1,0.7
		c0.1,0.5-0.2,1-0.7,1.1L1.1,16C1,16.1,0.9,16.1,0.9,16.1z"/>
</g>
<g>
	<path d="M6.4,26.8c-0.3,0-0.5-0.1-0.7-0.3c-0.3-0.4-0.2-0.9,0.2-1.2l6.2-4.7c0.4-0.3,0.9-0.2,1.2,0.2
		c0.3,0.4,0.2,0.9-0.2,1.2l-6.2,4.7C6.8,26.7,6.6,26.8,6.4,26.8z"/>
</g>
</svg>
