<?xml version="1.0" encoding="utf-8"?>
<!-- Generator: Adobe Illustrator 19.0.0, SVG Export Plug-In . SVG Version: 6.00 Build 0)  -->
<svg version="1.1" id="Layer_1" xmlns="http://www.w3.org/2000/svg" xmlns:xlink="http://www.w3.org/1999/xlink" x="0px" y="0px"
	 width="55.7px" height="27px" viewBox="-321 337 55.7 27" style="enable-background:new -321 337 55.7 27;" xml:space="preserve">
<g>
	<path style="fill:#7D7D7D;" d="M-320.8,338.7v23.6h55.3v-23.6H-320.8z M-308.1,357.3c-0.4,0.1-0.8,0.1-1.1,0.1
		c-3.6,0-6.5-2.3-7.1-5.6c-0.7-3.7,1.7-7.2,5.3-8c3.5-0.7,6.9,1,8.2,4.1C-301.2,352-303.8,356.6-308.1,357.3z M-289.1,357.1
		c-0.3,0-0.4-0.1-0.5-0.3c-0.7-1.1-1.4-2.2-2.2-3.3c-0.1-0.2-0.3-0.3-0.5-0.3h-2.1v3.8h-3.3v-13.1h6.9c1.9,0,3.4,0.8,4.2,2.5
		c1.2,2.3,0.4,4.7-1.9,6c-0.1,0-0.1,0.1-0.2,0.1c0.5,0.8,1.1,1.5,1.6,2.3s1.1,1.5,1.6,2.3H-289.1z M-269.8,347h-7.6v2.5h5.7
		c0.4,0,0.5,0.1,0.5,0.5v2.6h-6.1v4.4h-3.2v-13.1h10.7V347z"/>
	<path style="fill:#7D7D7D;" d="M-290.6,347.1c-1.3-0.1-2.6,0-3.9,0c0,1,0,2,0,3c1.1,0,2.1,0,3.2,0c0.2,0,0.5,0,0.7-0.1
		c0.8-0.2,1.2-0.6,1.2-1.5C-289.4,347.7-289.7,347.2-290.6,347.1z"/>
	<path style="fill:#7D7D7D;" d="M-309.4,346.8c-2,0-3.7,1.7-3.7,3.7s1.7,3.7,3.7,3.7s3.7-1.7,3.7-3.7S-307.4,346.8-309.4,346.8z"/>
</g>
</svg>
