<?xml version="1.0" encoding="utf-8"?>
<!-- Generator: Adobe Illustrator 18.1.1, SVG Export Plug-In . SVG Version: 6.00 Build 0)  -->
<svg version="1.1" id="Layer_1" xmlns="http://www.w3.org/2000/svg" xmlns:xlink="http://www.w3.org/1999/xlink" x="0px" y="0px"
	 viewBox="0 0 32 32" enable-background="new 0 0 32 32" xml:space="preserve">
<title>Couple icon</title>
<desc>Icon representation of a couple.</desc>
<g>
	<g>
		<path fill="none" stroke-linecap="round" stroke-miterlimit="10" d="M1,19.7c-1.9-5.4,1.6-9.8,6.5-9.8
			s8.4,4.4,6.5,9.8"/>
		<line fill="none" stroke-linecap="round" stroke-miterlimit="10" x1="12.2" y1="11.7" x2="10.7" y2="29.4"/>
		<line fill="none" stroke-linecap="round" stroke-miterlimit="10" x1="2.8" y1="11.7" x2="4.3" y2="29.4"/>
		<polyline fill="none" stroke-linecap="round" stroke-linejoin="round" stroke-miterlimit="10" points="6.4,29.4 
			6.1,20.8 8.9,20.8 8.6,29.4 		"/>
		<circle fill="none" stroke-linecap="round" stroke-miterlimit="10" cx="7.5" cy="6.2" r="3.6"/>
	</g>
	<g>
		<path fill="none" stroke-linecap="round" stroke-miterlimit="10" d="M18,19.7c-1.9-5.4,1.6-9.8,6.5-9.8
			s8.4,4.4,6.5,9.8"/>
		<line fill="none" stroke-linecap="round" stroke-miterlimit="10" x1="29.2" y1="11.7" x2="27.7" y2="29.4"/>
		<line fill="none" stroke-linecap="round" stroke-miterlimit="10" x1="19.8" y1="11.7" x2="21.3" y2="29.4"/>
		<polyline fill="none" stroke-linecap="round" stroke-linejoin="round" stroke-miterlimit="10" points="
			23.4,29.4 23.1,20.8 25.8,20.8 25.6,29.4 		"/>
		<circle fill="none" stroke-linecap="round" stroke-miterlimit="10" cx="24.5" cy="6.2" r="3.6"/>
	</g>
</g>
</svg>
