<?xml version="1.0" encoding="UTF-8" standalone="no"?>
<svg
   xmlns:dc="http://purl.org/dc/elements/1.1/"
   xmlns:cc="http://creativecommons.org/ns#"
   xmlns:rdf="http://www.w3.org/1999/02/22-rdf-syntax-ns#"
   xmlns:svg="http://www.w3.org/2000/svg"
   xmlns="http://www.w3.org/2000/svg"
   viewBox="0 0 301.25 75"
   height="75"
   width="301.25"
   xml:space="preserve"
   version="1.1"
   id="svg2">
   <title>PayBright</title>
   <desc>PayBright Logo</desc>
   <metadata
     id="metadata8"><rdf:RDF><cc:Work
         rdf:about=""><dc:format>image/svg+xml</dc:format><dc:type
           rdf:resource="http://purl.org/dc/dcmitype/StillImage" /></cc:Work></rdf:RDF></metadata><defs
     id="defs6"><clipPath
       id="clipPath16"
       clipPathUnits="userSpaceOnUse"><path
         id="path18"
         d="M 0,60 241,60 241,0 0,0 0,60 Z" /></clipPath></defs><g
     transform="matrix(1.25,0,0,-1.25,0,75)"
     id="g10"><g
       id="g12"><g
         clip-path="url(#clipPath16)"
         id="g14"><g
           transform="translate(146.4365,52.208)"
           id="g20"><path
             id="path22"
             d="m 0,0 c -0.828,0 -1.5,0.671 -1.5,1.5 l 0,4.244 c 0,0.828 0.672,1.5 1.5,1.5 0.828,0 1.5,-0.672 1.5,-1.5 L 1.5,1.5 C 1.5,0.671 0.828,0 0,0" /></g><g
           transform="translate(139.3311,49.6069)"
           id="g24"><path
             id="path26"
             d="M 0,0 C -0.462,0 -0.917,0.212 -1.211,0.614 L -3.662,3.96 c -0.489,0.668 -0.345,1.607 0.323,2.096 0.669,0.49 1.608,0.345 2.097,-0.324 L 1.209,2.386 C 1.698,1.718 1.554,0.779 0.886,0.29 0.618,0.094 0.308,0 0,0" /></g><g
           transform="translate(135.3359,42.9858)"
           id="g28"><path
             id="path30"
             d="m 0,0 c -0.142,0 -0.284,0.02 -0.426,0.062 l -3.841,1.135 c -0.795,0.235 -1.248,1.07 -1.013,1.864 0.235,0.795 1.073,1.249 1.863,1.013 L 0.424,2.939 C 1.219,2.704 1.672,1.87 1.437,1.075 1.244,0.423 0.647,0 0,0" /></g><g
           transform="translate(157.4297,42.9858)"
           id="g32"><path
             id="path34"
             d="m 0,0 c -0.647,0 -1.244,0.423 -1.437,1.075 -0.235,0.795 0.218,1.629 1.013,1.864 L 3.417,4.074 C 4.211,4.31 5.045,3.855 5.28,3.061 5.515,2.267 5.062,1.432 4.267,1.197 L 0.426,0.062 C 0.284,0.02 0.141,0 0,0" /></g><g
           transform="translate(153.4268,49.6069)"
           id="g36"><path
             id="path38"
             d="M 0,0 C -0.308,0 -0.618,0.094 -0.886,0.29 -1.554,0.779 -1.698,1.718 -1.209,2.386 L 1.242,5.732 C 1.73,6.401 2.669,6.547 3.339,6.056 4.007,5.567 4.151,4.628 3.662,3.96 L 1.211,0.614 C 0.917,0.212 0.462,0 0,0" /></g><g
           transform="translate(32.5635,21.7092)"
           id="g40"><path
             id="path42"
             d="m 0,0 c 0,3.664 -1.994,6.183 -4.963,6.183 -2.884,0 -4.878,-2.519 -4.878,-6.183 0,-3.664 1.994,-6.137 4.878,-6.137 C -1.994,-6.137 0,-3.664 0,0 m 7.592,-0.183 c 0,-7.557 -4.156,-12.55 -10.519,-12.55 -2.926,0 -5.302,1.237 -6.914,3.481 l 0,-12.09 -7.55,0 0,33.662 7.55,0 0,-3.205 c 1.612,2.243 3.903,3.48 6.745,3.48 6.404,0 10.688,-5.084 10.688,-12.778" /></g><g
           transform="translate(57.0344,17.633)"
           id="g44"><path
             id="path46"
             d="m 0,0 0,2.153 -4.496,0 c -2.121,0 -3.181,-0.825 -3.181,-2.565 0,-1.695 1.145,-2.794 3.096,-2.794 2.248,0 4.114,1.328 4.581,3.206 m 7.423,7.74 0,-16.121 -7.423,0 0,2.794 c -1.485,-2.062 -3.817,-3.161 -6.914,-3.161 -4.92,0 -7.847,3.207 -7.847,7.74 0,4.718 3.097,7.42 8.78,7.512 l 5.981,0 0,0.275 c 0,2.336 -1.485,3.709 -4.369,3.709 -1.908,0 -4.411,-0.687 -6.871,-1.969 l -2.079,5.496 c 3.606,1.74 6.914,2.702 10.689,2.702 6.32,0 10.01,-3.297 10.053,-8.977" /></g><g
           transform="translate(72.9382,0)"
           id="g48"><path
             id="path50"
             d="m 0,0 c -2.587,0 -4.708,0.824 -6.787,2.564 l 3.139,5.634 c 1.061,-0.962 1.952,-1.373 3.054,-1.373 1.273,0 2.164,0.641 2.757,1.877 l 0.552,1.145 -9.502,24.182 7.762,0 5.472,-16.121 4.878,16.121 7.508,0 L 8.993,6.825 C 7.253,2.199 4.326,0 0,0" /></g><g
           transform="translate(112.8279,21.7092)"
           id="g52"><path
             id="path54"
             d="m 0,0 c 0,3.664 -1.994,6.183 -4.963,6.183 -2.884,0 -4.878,-2.519 -4.878,-6.183 0,-3.664 1.994,-6.137 4.878,-6.137 C -1.994,-6.137 0,-3.664 0,0 m 7.592,-0.183 c 0,-7.557 -4.156,-12.55 -10.519,-12.55 -2.926,0 -5.302,1.237 -6.914,3.481 l 0,-3.205 -7.55,0 0,33.983 7.55,0 0,-12.411 c 1.612,2.243 3.903,3.48 6.745,3.48 6.404,0 10.688,-5.084 10.688,-12.778" /></g><g
           transform="translate(139.2079,34.3504)"
           id="g56"><path
             id="path58"
             d="m 0,0 0,-7.466 c -4.2,0.459 -6.999,-1.557 -7.381,-4.992 l 0,-12.641 -7.55,0 0,24.778 7.55,0 0,-4.122 C -5.812,-1.603 -3.224,0 0,0" /></g><path
           id="path60"
           d="m 150.022,9.252 -7.508,0 0,24.778 7.508,0 0,-24.778 z" /><g
           transform="translate(150.851,42.3679)"
           id="g62"><path
             id="path64"
             d="m 0,0 c 0,-2.859 -1.915,-4.926 -4.561,-4.926 -2.648,0 -4.563,2.067 -4.563,4.926 0,2.919 1.915,4.986 4.563,4.986 C -1.915,4.986 0,2.919 0,0" /></g><g
           transform="translate(170.2526,22.3503)"
           id="g66"><path
             id="path68"
             d="m 0,0 c 0,3.481 -1.866,5.817 -4.623,5.817 -2.8,0 -4.666,-2.382 -4.666,-5.817 0,-3.389 1.866,-5.771 4.666,-5.771 C -1.866,-5.771 0,-3.389 0,0 m 7.508,11.679 0,-22.579 c 0,-7.007 -5.048,-11.405 -12.47,-11.405 -4.03,0 -7.677,1.374 -10.265,3.207 l 2.63,5.633 c 2.078,-1.558 4.623,-2.428 7.083,-2.428 3.435,0 5.514,1.878 5.514,4.764 l 0,2.656 c -1.484,-2.107 -3.69,-3.252 -6.532,-3.252 -5.726,0 -9.798,4.763 -9.798,11.954 0,7.054 3.945,11.725 9.628,11.725 2.885,0 5.176,-1.191 6.702,-3.298 l 0,3.023 7.508,0 z" /></g><g
           transform="translate(206.9829,24.8691)"
           id="g70"><path
             id="path72"
             d="m 0,0 0,-15.617 -7.55,0 0,13.281 c 0,2.794 -1.485,4.535 -3.902,4.535 -2.8,-0.046 -4.497,-2.336 -4.497,-5.588 l 0,-12.228 -7.55,0 0,33.983 7.55,0 0,-13.236 c 1.612,2.84 4.242,4.351 7.593,4.351 C -3.308,9.481 0,5.817 0,0" /></g><g
           transform="translate(227,10.5341)"
           id="g74"><path
             id="path76"
             d="m 0,0 c -1.654,-1.054 -3.945,-1.649 -6.193,-1.649 -4.453,-0.046 -7.677,2.794 -7.677,7.924 l 0,10.625 -3.181,0 0,5.405 3.181,0 0,6.87 7.507,0 0,-6.87 5.938,0 0,-5.405 -5.938,0 0,-9.343 c 0,-1.832 0.764,-2.657 2.079,-2.611 0.763,0 1.738,0.321 2.842,0.825 L 0,0 Z" /></g></g></g></g></svg>
