<svg id="Layer_1" xmlns="http://www.w3.org/2000/svg" width="60" height="60" viewBox="-341.4 321.1 60 60">
  <title>Payment card icon</title>
  <desc>Simplistic debit/credit card icon</desc>
  <path class="st0" d="M-296.5 338.3h-29.8c-2 0-3.7 1.7-3.7 3.7v18.3c0 2 1.7 3.7 3.7 3.7h29.8c2 0 3.7-1.7 3.7-3.7V342c0-2.1-1.6-3.7-3.7-3.7zm-32 7.3h34.3v2.9h-34.3v-2.9zm2.2-5.8h29.9c1.2 0 2.2 1 2.2 2.2v2.1h-34.3V342c0-1.2 1-2.2 2.2-2.2zm29.8 22.7h-29.8c-1.2 0-2.2-1-2.2-2.2v-10.4h34.3v10.4c-.1 1.2-1.1 2.2-2.3 2.2z"/>
  <path class="st0" d="M-298.8 357h-12.6c-.4 0-.8.3-.8.8s.3.8.8.8h12.6c.4 0 .8-.3.8-.8s-.4-.8-.8-.8z"/>
</svg>
