<?xml version="1.0" encoding="utf-8"?>
<!-- Generator: Adobe Illustrator 19.2.1, SVG Export Plug-In . SVG Version: 6.00 Build 0)  -->
<svg version="1.1" xmlns="http://www.w3.org/2000/svg" xmlns:xlink="http://www.w3.org/1999/xlink" x="0px" y="0px" width="93.8px"
	 height="25px" viewBox="0 0 93.8 25" style="enable-background:new 0 0 93.8 25;" xml:space="preserve">
<title>Paypal</title>
<desc>Paypal Logo in two shades of blue</desc>
<g id="Layer_1">
	<g>
		<g>
			<g>
				<g>
					<path style="fill:#009BDE;" d="M63.3,0H56c-0.5,0-0.9,0.4-1,0.9l-3,18.7c-0.1,0.4,0.2,0.7,0.6,0.7h3.7c0.3,0,0.6-0.3,0.7-0.6
						l0.8-5.3c0.1-0.5,0.5-0.9,1-0.9h2.3c4.8,0,7.6-2.3,8.3-6.9c0.3-2,0-3.6-0.9-4.7C67.6,0.6,65.7,0,63.3,0z M64.1,6.8
						c-0.4,2.6-2.4,2.6-4.3,2.6h-1.1l0.8-4.9c0-0.3,0.3-0.5,0.6-0.5h0.5c1.3,0,2.6,0,3.2,0.8C64.2,5.2,64.3,5.9,64.1,6.8z"/>
					<path style="fill:#002F87;" d="M11.3,0H4C3.5,0,3,0.4,3,0.9L0,19.6c-0.1,0.4,0.2,0.7,0.6,0.7h3.5c0.5,0,0.9-0.4,1-0.9l0.8-5
						c0.1-0.5,0.5-0.9,1-0.9h2.3c4.8,0,7.6-2.3,8.3-6.9c0.3-2,0-3.6-0.9-4.7C15.5,0.6,13.7,0,11.3,0z M12.1,6.8
						c-0.4,2.6-2.4,2.6-4.3,2.6H6.7l0.8-4.9C7.5,4.3,7.7,4,8,4h0.5c1.3,0,2.6,0,3.2,0.8C12.1,5.2,12.2,5.9,12.1,6.8z"/>
					<path style="fill:#002F87;" d="M33.1,6.8h-3.5C29.3,6.8,29,7,29,7.3l-0.2,1l-0.2-0.4c-0.8-1.1-2.4-1.5-4.1-1.5
						c-3.9,0-7.2,2.9-7.8,7c-0.3,2,0.1,4,1.3,5.4c1.1,1.3,2.6,1.8,4.4,1.8c3.1,0,4.8-2,4.8-2l-0.2,1c-0.1,0.4,0.2,0.7,0.6,0.7h3.1
						c0.5,0,0.9-0.4,1-0.9l1.9-12C33.7,7.1,33.4,6.8,33.1,6.8z M28.2,13.6c-0.3,2-1.9,3.3-3.9,3.3c-1,0-1.8-0.3-2.3-0.9
						c-0.5-0.6-0.7-1.5-0.5-2.5c0.3-2,1.9-3.4,3.9-3.4c1,0,1.8,0.3,2.3,1C28.1,11.7,28.4,12.6,28.2,13.6z"/>
					<path style="fill:#009BDE;" d="M85.1,6.8h-3.5c-0.3,0-0.6,0.2-0.6,0.5l-0.2,1l-0.2-0.4c-0.8-1.1-2.4-1.5-4.1-1.5
						c-3.9,0-7.2,2.9-7.8,7c-0.3,2,0.1,4,1.3,5.4c1.1,1.3,2.6,1.8,4.4,1.8c3.1,0,4.8-2,4.8-2l-0.2,1c-0.1,0.4,0.2,0.7,0.6,0.7h3.1
						c0.5,0,0.9-0.4,1-0.9l1.9-12C85.8,7.1,85.5,6.8,85.1,6.8z M80.2,13.6c-0.3,2-1.9,3.3-3.9,3.3c-1,0-1.8-0.3-2.3-0.9
						c-0.5-0.6-0.7-1.5-0.5-2.5c0.3-2,1.9-3.4,3.9-3.4c1,0,1.8,0.3,2.3,1C80.2,11.7,80.4,12.6,80.2,13.6z"/>
					<path style="fill:#002F87;" d="M51.7,6.8h-3.5c-0.3,0-0.7,0.2-0.8,0.4l-4.8,7.1l-2.1-6.9c-0.1-0.4-0.5-0.7-1-0.7H36
						c-0.4,0-0.7,0.4-0.6,0.8l3.9,11.4L35.7,24c-0.3,0.4,0,1,0.5,1h3.5c0.3,0,0.6-0.2,0.8-0.4L52.2,7.7C52.5,7.3,52.2,6.8,51.7,6.8z
						"/>
					<path style="fill:#009BDE;" d="M89.2,0.5l-3,19.1c-0.1,0.4,0.2,0.7,0.6,0.7h3c0.5,0,0.9-0.4,1-0.9l3-18.7
						C93.9,0.3,93.6,0,93.2,0h-3.4C89.5,0,89.3,0.2,89.2,0.5z"/>
				</g>
			</g>
		</g>
	</g>
</g>
<g id="Layer_2">
</g>
</svg>
