<?xml version="1.0" encoding="utf-8"?>
<!-- Generator: Adobe Illustrator 19.2.1, SVG Export Plug-In . SVG Version: 6.00 Build 0)  -->
<svg version="1.1" xmlns="http://www.w3.org/2000/svg" xmlns:xlink="http://www.w3.org/1999/xlink" x="0px" y="0px" width="286px"
	 height="76.2px" viewBox="0 0 286 76.2" style="enable-background:new 0 0 286 76.2;" xml:space="preserve">
<title>Paypal</title>
<desc>Paypal Logo</desc>
<g id="Layer_1">
	<g>
		<g>
			<g>
				<g>
					<path d="M193,0h-22.3c-1.5,0-2.8,1.1-3.1,2.6l-9,57.1c-0.2,1.1,0.7,2.1,1.8,2.1H172c1.1,0,2-0.8,2.1-1.8
						l2.6-16.2c0.2-1.5,1.5-2.6,3.1-2.6h7c14.7,0,23.1-7.1,25.3-21.2c1-6.1,0-11-2.8-14.4C206.1,2,200.5,0,193,0z M195.6,20.8
						c-1.2,8-7.3,8-13.2,8H179l2.4-14.9c0.1-0.9,0.9-1.6,1.8-1.6h1.5c4,0,7.8,0,9.8,2.3C195.7,16,196,18,195.6,20.8z"/>
					<path d="M34.3,0H12.1C10.6,0,9.3,1.1,9,2.6L0,59.7c-0.2,1.1,0.7,2.1,1.8,2.1h10.6c1.5,0,2.8-1.1,3.1-2.6
						L18,43.8c0.2-1.5,1.5-2.6,3.1-2.6h7c14.7,0,23.1-7.1,25.3-21.2c1-6.1,0-11-2.8-14.4C47.4,2,41.8,0,34.3,0z M36.9,20.8
						c-1.2,8-7.3,8-13.2,8h-3.4l2.4-14.9c0.1-0.9,0.9-1.6,1.8-1.6H26c4,0,7.8,0,9.8,2.3C37,16,37.3,18,36.9,20.8z"/>
					<path d="M100.8,20.6H90.2c-0.9,0-1.7,0.7-1.8,1.6l-0.5,3L87.1,24c-2.3-3.3-7.4-4.5-12.6-4.5
						c-11.8,0-21.8,8.9-23.8,21.4c-1,6.2,0.4,12.2,4,16.4c3.3,3.8,7.9,5.4,13.4,5.4c9.5,0,14.7-6.1,14.7-6.1l-0.5,3
						c-0.2,1.1,0.7,2.1,1.8,2.1h9.6c1.5,0,2.8-1.1,3.1-2.6l5.8-36.5C102.8,21.6,102,20.6,100.8,20.6z M86,41.3
						c-1,6.1-5.9,10.2-12,10.2c-3.1,0-5.6-1-7.2-2.9c-1.6-1.9-2.2-4.5-1.7-7.5c1-6,5.9-10.3,11.9-10.3c3,0,5.5,1,7.1,2.9
						C85.8,35.7,86.4,38.4,86,41.3z"/>
					<path d="M259.5,20.6h-10.7c-0.9,0-1.7,0.7-1.8,1.6l-0.5,3l-0.7-1.1c-2.3-3.3-7.4-4.5-12.6-4.5
						c-11.8,0-21.8,8.9-23.8,21.4c-1,6.2,0.4,12.2,4,16.4c3.3,3.8,7.9,5.4,13.4,5.4c9.5,0,14.7-6.1,14.7-6.1l-0.5,3
						c-0.2,1.1,0.7,2.1,1.8,2.1h9.6c1.5,0,2.8-1.1,3.1-2.6l5.8-36.5C261.5,21.6,260.7,20.6,259.5,20.6z M244.7,41.3
						c-1,6.1-5.9,10.2-12,10.2c-3.1,0-5.6-1-7.2-2.9c-1.6-1.9-2.2-4.5-1.7-7.5c1-6,5.9-10.3,11.9-10.3c3,0,5.5,1,7.1,2.9
						C244.5,35.7,245.1,38.4,244.7,41.3z"/>
					<path d="M157.6,20.6h-10.7c-1,0-2,0.5-2.6,1.4l-14.8,21.8l-6.3-20.9c-0.4-1.3-1.6-2.2-3-2.2h-10.5
						c-1.3,0-2.2,1.3-1.8,2.5l11.8,34.6l-11.1,15.6c-0.9,1.2,0,2.9,1.5,2.9h10.7c1,0,2-0.5,2.5-1.3l35.6-51.4
						C160,22.3,159.1,20.6,157.6,20.6z"/>
					<path d="M272.1,1.6l-9.1,58.1c-0.2,1.1,0.7,2.1,1.8,2.1h9.2c1.5,0,2.8-1.1,3.1-2.6l9-57.1
						c0.2-1.1-0.7-2.1-1.8-2.1h-10.3C273,0,272.2,0.7,272.1,1.6z"/>
				</g>
			</g>
		</g>
	</g>
</g>
<g id="Layer_2">
</g>
</svg>
