<svg id="Layer_1" data-name="Layer 1" xmlns="http://www.w3.org/2000/svg" viewBox="0 0 64 64"><title>Phone</title><g id="Layer_1-2" data-name="Layer 1"><path d="M52,45.45A10.5,10.5,0,0,1,42.66,52c-0.5,0-8.56.5-20.15-10.58C13.19,32.6,12.19,23.29,11.93,21.27c0-1.76.5-6,6.55-9.32A3.09,3.09,0,0,1,21,11.7c0.25,0.25,5.29,8.56,5.29,8.81a0.93,0.93,0,0,1,.25.76,2.77,2.77,0,0,1-.76,1.51A11,11,0,0,1,24,24.29a11,11,0,0,0-1.76,1.51,2.3,2.3,0,0,0-.76,1.26c0,1,.76,4,6.3,9.07,5.54,4.78,8.31,6.3,8.56,6.3s0.5,0.25.76,0.25a2.3,2.3,0,0,0,1.26-.76c0.5-.5,2.27-3,2.77-3.53a2.18,2.18,0,0,1,1.51-.76,0.93,0.93,0,0,1,.76.25c0.25,0.25,8.56,5,8.81,5.29,0.5,0,.25,1.51-0.25,2.27"/></g></svg>

