<?xml version="1.0" encoding="utf-8"?>
<!-- Generator: Adobe Illustrator 18.1.1, SVG Export Plug-In . SVG Version: 6.00 Build 0)  -->
<svg version="1.1" id="Layer_1" xmlns="http://www.w3.org/2000/svg" xmlns:xlink="http://www.w3.org/1999/xlink" x="0px" y="0px"
	 viewBox="0 0 32 32" enable-background="new 0 0 32 32" xml:space="preserve">
<title>Phone</title>
<desc>Call Casper.</desc>
<g id="Layer_1_1_">
	<path d="M31.6,26.8c-1.8,4.4-6,5.2-7.4,5.2c-0.4,0-6.8,0.4-15.9-8.3C1,16.7,0.2,9.3,0,7.7C0,6.3,0.4,3,5.2,0.4C5.8,0,7,0,7.2,0.2
		s4,6.6,4.2,7c0.2,0.4,0.2,0.4,0.2,0.6c0,0.4-0.1,0.7-0.6,1.2c-0.4,0.4-0.8,0.8-1.4,1.2s-1,0.8-1.4,1.2c-0.4,0.4-0.6,0.8-0.6,1
		c0,0.8,0.6,3.2,5,7.2c4.4,3.8,6.6,4.9,6.8,5c0.3,0.1,0.4,0.2,0.6,0.2c0.2,0,0.6-0.2,1-0.6c0.4-0.4,1.8-2.4,2.2-2.8
		c0.4-0.4,0.8-0.6,1.2-0.6c0.2,0,0.4,0,0.6,0.2c0.3,0.2,6.6,3.9,7,4.2C32.2,25.2,32,26.2,31.6,26.8"/>
</g>
</svg>
