<?xml version="1.0" encoding="utf-8"?>
<!-- Generator: Adobe Illustrator 18.1.1, SVG Export Plug-In . SVG Version: 6.00 Build 0)  -->
<svg version="1.1" xmlns="http://www.w3.org/2000/svg" xmlns:xlink="http://www.w3.org/1999/xlink" x="0px" y="0px"
	 viewBox="-738.8 284.7 16 16" enable-background="new -738.8 284.7 16 16" xml:space="preserve">
<title>Phone</title>
<desc>Call Casper</desc>

<g id="Layer_2">
</g>
<g id="Layer_1">
	<path d="M-723,298.2c-0.9,2.2-3,2.6-3.7,2.6c-0.2,0-3.4,0.2-8-4.2c-3.7-3.5-4.1-7.2-4.2-8c0-0.7,0.2-2.4,2.6-3.7
		c0.3-0.2,0.9-0.2,1-0.1c0.1,0.1,2.1,3.4,2.1,3.5c0.1,0.1,0.1,0.2,0.1,0.3c0,0.2-0.1,0.3-0.3,0.6c-0.2,0.2-0.4,0.4-0.7,0.6
		c-0.3,0.2-0.5,0.4-0.7,0.6c-0.2,0.2-0.3,0.4-0.3,0.5c0,0.4,0.3,1.6,2.5,3.6c2.2,1.9,3.3,2.5,3.4,2.5c0.1,0,0.2,0.1,0.3,0.1
		c0.1,0,0.3-0.1,0.5-0.3c0.2-0.2,0.9-1.2,1.1-1.4c0.2-0.2,0.4-0.3,0.6-0.3c0.1,0,0.2,0,0.3,0.1c0.1,0.1,3.4,2,3.5,2.1
		C-722.7,297.3-722.8,297.9-723,298.2"/>
</g>
</svg>
