<svg xmlns="http://www.w3.org/2000/svg" xmlns:xlink="http://www.w3.org/1999/xlink" width="48" height="48" viewBox="0 0 48 48"><title>Phone Set</title><desc>A Phone Set</desc><defs><path id="a" d="M-173.8-464.6c-.1.7-1 1.4-1.2 1.4-.2 0-5.4-1.3-7-1.8l5.3 13c.5 1.2-.4 2.5-1.7 2.5h-26c-1.3 0-2.2-1.3-1.7-2.5l5.3-13c-1.6.5-6.7 1.8-7 1.8-.3 0-1.1-.8-1.2-1.4-1.5-4.9.4-7.4 1.4-8.4 1.2-1 6.6-5.4 16.1-5.3h.2c9.6-.1 14.9 4.3 16.1 5.3.9 1 2.9 3.5 1.4 8.4"/></defs><clipPath id="b"><use xlink:href="#a" overflow="visible"/></clipPath><g clip-path="url(#b)"><defs><path id="c" d="M-626-899H674V946H-626z"/></defs></g><defs><path id="d" d="M-626-899H674V946H-626z"/></defs><defs><path id="e" d="M179.2-262.6c-.1.7-1 1.4-1.2 1.4-.2 0-5.4-1.3-7-1.8l5.3 13c.5 1.2-.4 2.5-1.7 2.5h-26c-1.3 0-2.2-1.3-1.7-2.5l5.3-13c-1.6.5-6.7 1.8-7 1.8-.3 0-1.1-.8-1.2-1.4-1.5-4.9.4-7.4 1.4-8.4 1.2-1 6.6-5.4 16.1-5.3h.2c9.6-.1 14.9 4.3 16.1 5.3.9 1 2.9 3.5 1.4 8.4"/></defs><clipPath id="f"><use xlink:href="#e" overflow="visible"/></clipPath><g clip-path="url(#f)"><defs><path id="g" d="M-515-386H565v821H-515z"/></defs></g><defs><path id="h" d="M-515-386H565v821H-515z"/></defs><defs><path id="i" d="M165.2-270.6c-5.7.1-7.6 1-8.1 1.6-.1.1-.3.5-.3 1.1 0 .5 0 1.1.2 1.7.1.7.1 1.2.2 1.7-.1.7-.1.9-.4 1.2-.1.1-.3.3-.5.3-.1.1-7.1 2-7.4 2-.3 0-1.1-.8-1.2-1.4-1.5-4.9.4-7.4 1.4-8.4 1.2-.9 6.6-5.4 16.1-5.3"/></defs><clipPath id="j"><use xlink:href="#i" overflow="visible"/></clipPath><g clip-path="url(#j)"><defs><path id="k" d="M-515-386H565v821H-515z"/></defs></g><defs><path id="l" d="M-515-386H565v821H-515z"/></defs><defs><path id="m" d="M179.2-262.6c-.1.7-1 1.4-1.2 1.4-.2 0-5.4-1.3-7-1.8l5.3 13c.5 1.2-.4 2.5-1.7 2.5h-26c-1.3 0-2.2-1.3-1.7-2.5l5.3-13c-1.6.5-6.7 1.8-7 1.8-.3 0-1.1-.8-1.2-1.4-1.5-4.9.4-7.4 1.4-8.4 1.2-1 6.6-5.4 16.1-5.3h.2c9.6-.1 14.9 4.3 16.1 5.3.9 1 2.9 3.5 1.4 8.4"/></defs><clipPath id="n"><use xlink:href="#m" overflow="visible"/></clipPath><g clip-path="url(#n)"><defs><path id="o" d="M-515-386H565v821H-515z"/></defs></g><defs><path id="p" d="M-515-386H565v821H-515z"/></defs><defs><path id="q" d="M165.2-270.6c-5.7.1-7.6 1-8.1 1.6-.1.1-.3.5-.3 1.1 0 .5 0 1.1.2 1.7.1.7.1 1.2.2 1.7-.1.7-.1.9-.4 1.2-.1.1-.3.3-.5.3-.1.1-7.1 2-7.4 2-.3 0-1.1-.8-1.2-1.4-1.5-4.9.4-7.4 1.4-8.4 1.2-.9 6.6-5.4 16.1-5.3"/></defs><clipPath id="r"><use xlink:href="#q" overflow="visible"/></clipPath><g clip-path="url(#r)"><defs><path id="s" d="M-515-386H565v821H-515z"/></defs></g><defs><path id="t" d="M-515-386H565v821H-515z"/></defs><path d="M42.7 24.5c-.1.5-.8 1.2-1 1.1-.2 0-4.5-1.1-5.8-1.4l4.4 10.4c.4.9-.3 2-1.4 2H17.4c-1.1 0-1.8-1-1.4-2l4.4-10.4c-1.3.4-5.6 1.4-5.8 1.4-.2 0-.9-.6-1-1.1-1.3-3.9.4-5.9 1.1-6.7 1-.8 5.4-4.3 13.3-4.2h.2c7.9-.1 12.3 3.4 13.3 4.2.8.7 2.5 2.8 1.2 6.7" fill="#EEF8F9"/><path d="M19.6 35.6c-1 0-1.7-1.1-1.4-2l4.9-12.1c.2-.6.8-.9 1.4-.9h11.3c.2 0 .4 0 .6.1.3.2.2.7.2 1.1 0 0 0 .4.3.8.1.2.6.4.6.4s.2 0 .2.1l4.2 10.5c.4 1-.3 2-1.4 2H19.6z" fill="none" stroke="#273476" stroke-width="1.5" stroke-linecap="round" stroke-linejoin="round"/><path d="M34.4 28.6c0 2.2-1.8 4-4 4s-4-1.8-4-4 1.8-4 4-4 4 1.8 4 4zM15 18.6c-3.2-.1-6.5 1.8-7.3 4.9-.3 1.1-.4 2.5.4 3.4 1.1 1.4 3.2 1.5 4 0 1.1-1.9-1.3-3.6-3-3.8-1.9-.3-4.1.6-5.3 3-1.6 2.9-.6 6.6 2.3 8.4 3.6 2.3 9.6.5 12.5-1.8" fill="none" stroke="#273476" stroke-width="1.5" stroke-linecap="round" stroke-linejoin="round"/><g><path d="M30.003 12.174c7.9-.1 12.3 3.3 13.2 4 .8.7 2.4 2.7 1.1 6.4-.1.5-.8 1.1-1 1.1-.2 0-6-1.4-6.1-1.5-.2 0-.3-.1-.4-.2-.2-.2-.2-.4-.3-.9 0-.4 0-.8.1-1.3s.1-.9.1-1.3-.1-.7-.2-.8c-.4-.4-1.9-1.1-6.6-1.2" fill="none" stroke="#273476" stroke-width="1.5" stroke-linecap="round" stroke-linejoin="round"/><path d="M29.924 16.474c-4.7.1-6.2.8-6.6 1.2-.1.1-.2.4-.2.8s0 .8.1 1.3.1.9.1 1.3c-.1.5-.1.7-.3.9-.1.1-.2.2-.4.2-.1.1-5.9 1.5-6.1 1.5-.2 0-.9-.6-1-1.1-1.3-3.7.4-5.7 1.1-6.4 1-.7 5.4-4.1 13.2-4" fill="none" stroke="#273476" stroke-width="1.5" stroke-linecap="round" stroke-linejoin="round"/></g><g fill="none" stroke="#273476" stroke-width="1.5" stroke-linecap="round" stroke-linejoin="round"><path d="M27.9 18.6v2M32.9 20.6v-2"/></g><g><defs><path id="u" d="M-548.4-899h1300V946h-1300z"/></defs></g><g><defs><path id="v" d="M-437.4-386h1080v821h-1080z"/></defs></g><g><defs><path id="w" d="M-437.4-386h1080v821h-1080z"/></defs></g><g><defs><path id="x" d="M-437.4-386h1080v821h-1080z"/></defs></g><g><defs><path id="y" d="M-437.4-386h1080v821h-1080z"/></defs></g></svg>
