<svg data-name="Layer 1" xmlns="http://www.w3.org/2000/svg" viewBox="0 0 100 100">
  <title>Rotary Phone</title>
  <desc>Rotary Phone</desc>
  <path d="M61.56 50.2a8.81 8.81 0 1 0 8.81 8.8 8.82 8.82 0 0 0-8.81-8.8zm0 15.87A7.06 7.06 0 1 1 68.62 59a7.07 7.07 0 0 1-7.06 7.07z" />
  <path d="M87.52 36.09l-.08-.09-.1-.08c-8.81-7.05-18.8-8.41-25.63-8.31a.35.35 0 0 1-.29 0c-6.83-.1-16.82 1.26-25.63 8.31l-.1.08-.08.07a11.19 11.19 0 0 0-2.23 3.35c-6.65-1-13.3 2.84-15.59 8.71A11.65 11.65 0 0 0 10 54.38a13.55 13.55 0 0 0 4.59 17.68A15 15 0 0 0 23 74.31a28.32 28.32 0 0 0 14.7-4.59 3.66 3.66 0 0 0 3.55 4.61h40.61a3.7 3.7 0 0 0 3.43-5.08l-7.57-18.69c3.58 1 9.31 2.36 9.38 2.36 1 0 2.49-1.73 2.73-2.87 2.39-7.64-.42-12.05-2.31-13.96zM19 50l.07-.28a7.29 7.29 0 0 1 1.72 0 7.4 7.4 0 0 1 5.06 3.37 3 3 0 0 1-.06 2.89 3.15 3.15 0 0 1-2.59 1.77A4.24 4.24 0 0 1 19.61 56c-1.3-1.75-1.04-4.22-.61-6zm-3.4 20.59a11.8 11.8 0 0 1-4-15.4 10 10 0 0 1 5.59-5.06c-.44 2.08-.55 4.8 1 6.9a5.91 5.91 0 0 0 5.15 2.53 4.91 4.91 0 0 0 4-2.69 4.72 4.72 0 0 0 .08-4.5 9.07 9.07 0 0 0-6.37-4.32 9.22 9.22 0 0 0-1.29-.11 13.15 13.15 0 0 1 13-6.81 15.79 15.79 0 0 0 .5 8.87c.26 1.22 1.72 3 2.75 3 .06 0 5.72-1.34 9.31-2.34l-6.51 16.13a.86.86 0 0 0-.34.17c-5.16 4.41-16.36 7.92-22.87 3.63zm67.87 1.12a1.92 1.92 0 0 1-1.61.86H41.25a1.94 1.94 0 0 1-1.8-2.67l7.91-19.68a7.64 7.64 0 0 0 .71-.42 2.11 2.11 0 0 0 .93-.62 2.27 2.27 0 0 0 .58-1 4.38 4.38 0 0 0 .42-2.71H72.45a1.92 1.92 0 0 1 .76.15 4.1 4.1 0 0 1 0 .78v.59a3.81 3.81 0 0 0 .43 1.49 2.2 2.2 0 0 0 .47.73 2.09 2.09 0 0 0 .95.61l.38.18.19.06 8 19.84a1.92 1.92 0 0 1-.16 1.82zM49.39 41.3a2.92 2.92 0 0 1 .14-1c.31-.32 2.36-1.93 12-2.18 9.65.25 11.69 1.86 12 2.14a2.38 2.38 0 0 1 .18 1.08 12 12 0 0 1-.22 2.52 3.69 3.69 0 0 0-1-.17h-6.36a.87.87 0 0 0 .06-.31V40a.88.88 0 0 0-1.75 0v3.37a.87.87 0 0 0 .06.31h-5.82V40a.88.88 0 0 0-1.75 0v3.68h-6.26a6.65 6.65 0 0 0-1.07.06 12 12 0 0 1-.21-2.44zm38.76 8.3A3.36 3.36 0 0 1 87 51.14c-1.48-.31-10.31-2.6-11.08-2.93a1 1 0 0 0-.2 0 3 3 0 0 1-.41-.27 1.65 1.65 0 0 1-.13-.22c0-.12-.07-.3-.12-.61l-.06-.49a11.48 11.48 0 0 1 .22-2.44 13.62 13.62 0 0 0 .26-2.86 3.36 3.36 0 0 0-.64-2.32c-1.08-1.11-4.25-2.48-13.22-2.71h-.13c-9 .23-12.13 1.6-13.22 2.71a3.36 3.36 0 0 0-.64 2.28 13.57 13.57 0 0 0 .26 2.86 11.72 11.72 0 0 1 .22 2.44l-.11.47c0 .17-.05.3-.07.41a2.49 2.49 0 0 1-.63.71.88.88 0 0 0-.19 0c-1 .37-9.83 2.67-11 2.92A3.39 3.39 0 0 1 35 49.52c-2-6.38-.09-10.14 1.86-12.17h.06c8.4-6.73 18-8 24.51-7.92h.14a.76.76 0 0 0 .19 0c6.57-.07 16.11 1.2 24.51 7.93h.06c1.93 2.02 3.82 5.78 1.82 12.24z" />
</svg>
