<svg xmlns="http://www.w3.org/2000/svg" viewBox="0 0 33.23 32.7">
<title>Pig</title>
<desc>Icon representation of a pig</desc>
<path class="cls-1" d="M21.79,7.12a3.83,3.83,0,0,0-4,3.57,3.83,3.83,0,0,0,4,3.57,3.83,3.83,0,0,0,4-3.57A3.83,3.83,0,0,0,21.79,7.12Zm0,5.89A2.59,2.59,0,0,1,19,10.69a2.59,2.59,0,0,1,2.79-2.32,2.59,2.59,0,0,1,2.79,2.32A2.59,2.59,0,0,1,21.79,13Z"/>
<circle class="cls-1" cx="20.89" cy="10.67" r="0.56"/>
<circle class="cls-1" cx="22.68" cy="10.67" r="0.56"/>
<path class="cls-1" d="M32.35,30.82H30.73a14.71,14.71,0,0,0,2.2-8,8.89,8.89,0,0,0-4.62-8.09A8.56,8.56,0,0,0,30,7.46,6.87,6.87,0,0,0,31.46.79a.88.88,0,0,0-.59-.58c-.15,0-3.43-1-5.62,1.4a8.42,8.42,0,0,0-6.92,0C16.13-.76,12.85.17,12.7.21a.88.88,0,0,0-.59.58,6.87,6.87,0,0,0,1.47,6.66,8.56,8.56,0,0,0,1.68,7.31,8.89,8.89,0,0,0-4.62,8.09c0,.37,0,.72,0,1.07a3.79,3.79,0,0,1-3.14-.45,3.28,3.28,0,0,0,2.1-3A2.47,2.47,0,0,0,8.3,18a2.77,2.77,0,0,0-3,.68,3.21,3.21,0,0,0-.77,3.46,3.05,3.05,0,0,1-2.83-1.85A.87.87,0,1,0,0,20.73c0,.14.95,3.32,5.47,3.19a5.06,5.06,0,0,0,4.08,1.91,5.91,5.91,0,0,0,1.32-.15,14.2,14.2,0,0,0,2,5.14H11.22a.88.88,0,0,0,0,1.75h3.39a.88.88,0,0,0,.62-1.5,12.2,12.2,0,0,1-2.84-8.21,7.15,7.15,0,0,1,4.17-6.79h0a8.3,8.3,0,0,0,10.43,0h0a7.16,7.16,0,0,1,4.18,6.79,12.2,12.2,0,0,1-2.83,8.21.88.88,0,0,0,.62,1.5h3.39a.88.88,0,0,0,0-1.75ZM6.38,22A1.75,1.75,0,0,1,6.5,20a1.39,1.39,0,0,1,.88-.42.48.48,0,0,1,.2,0c.29.13.31.63.3.83A1.75,1.75,0,0,1,6.38,22ZM15.11,9.38a6.9,6.9,0,0,1,.28-1.92.87.87,0,0,0-.21-.86,5.32,5.32,0,0,1-1.52-4.8,3.7,3.7,0,0,1,3.71,1.41.87.87,0,0,0,1.15.26,6.68,6.68,0,0,1,6.53,0,.87.87,0,0,0,1.15-.26A3.7,3.7,0,0,1,29.92,1.8a5.32,5.32,0,0,1-1.52,4.8.87.87,0,0,0-.21.86,6.9,6.9,0,0,1,.28,1.92,6.68,6.68,0,1,1-13.35,0Z"/>
<path class="cls-1" d="M19,26.45a.75.75,0,1,0-1.44.43l1.57,5.29a.75.75,0,1,0,1.44-.43Z"/>
<path class="cls-1" d="M25.47,25.94a.75.75,0,0,0-.93.51L23,31.74a.75.75,0,1,0,1.44.43L26,26.87A.75.75,0,0,0,25.47,25.94Z"/>
</svg>
