<svg xmlns="http://www.w3.org/2000/svg" xmlns:xlink="http://www.w3.org/1999/xlink" viewBox="140 -122.2 343.8 289.2" id="pig-profile"><desc>Illustration of a pig in profile</desc><path fill="#ffffff" d="M212-51.9v-52l35 23.7v-35l71.3 53.7h26S416-63.2 416 45.2c0 0 14.3 86-52.7 86l-5.3 29.7h-37l-8-30.7h-38l-6.7 31h-37.7l-4.7-30.3-49.3-39.3s-32.7-3-32.7-17.7V33.2s4-17.3 29.3-17.3c.1-.1 5.5-41.1 38.8-67.8z"/><path fill="#0047be" d="M476.8 22.5l-18.1 18V15.9l-8.6-3.5-26 26.7V22.7c-.1-51.1-36.5-89.6-84.6-89.6h-19l-68-54.1c-1.8-1.4-4.2-1.7-6.3-.7s-3.4 3.1-3.4 5.4v25.8L216.1-111c-1.8-1.4-4.2-1.6-6.3-.6s-3.4 3.1-3.4 5.4v53.4c-5.4 3.9-10.6 8.6-15.2 14.1-12.1 14.2-19.8 32-21.3 48.5C143 11.6 140 26.4 140 33v38.8c0 8.5 4.4 22.6 33.3 23.2 6.8 6 32.1 28 47.5 38.3l4.6 28.6c.4 3 3 5.1 5.9 5.1h38.4c2.9 0 5.4-2.2 5.9-5.1l4.2-26.1h30l4.2 26.1c.4 3 3 5.1 5.9 5.1h38.4c2.9 0 5.5-2.1 5.9-5.1l4.2-26.4c28.5-2.3 55.6-23.4 55.6-67.4V53.6l24.6-25.3v24.4l8.5 3.5 26.6-26.6-6.9-7.1zM218.5-94l24 18.5c.1 0 .1.1.2.1v8.8c-8.4.7-16.5 3-24.2 6.6v-34zM412.1 68.2c0 41-26.2 55.6-48.7 55.6-2.9 0-5.4 2.2-5.9 5.1l-4.2 26.1H325l-4.2-26.1c-.4-3-3-5.1-5.9-5.1h-40.2c-2.9 0-5.4 2.2-5.9 5.1l-4.2 26.1h-28.2l-4.2-26.1c-.3-1.7-1.2-3.2-2.7-4.1-16.1-10.2-49.5-39.8-49.8-40.1-1.1-1-2.5-1.5-4-1.5-15.7 0-23.6-3.8-23.6-11.3V33.1c0-9.9 14.8-11.4 23.6-11.4 3.3 0 6-2.7 6-6 0-15.1 7.1-32.9 18.7-46.5 13.2-15.4 30.3-23.9 48.4-23.9 3.3 0 6-2.7 6-6v-43l59.9 47.6c1 .8 2.3 1.3 3.7 1.3h21.1c41.3 0 72.5 33.4 72.6 77.6v45.4z"/></svg>
