<?xml version="1.0" encoding="utf-8"?>
<!-- Generator: Adobe Illustrator 18.1.1, SVG Export Plug-In . SVG Version: 6.00 Build 0)  -->
<svg version="1.1" id="Layer_1" xmlns="http://www.w3.org/2000/svg" xmlns:xlink="http://www.w3.org/1999/xlink" x="0px" y="0px"
	 viewBox="0 0 32 32" enable-background="new 0 0 32 32" xml:space="preserve">
<title>Pig</title>
<desc>A drawing of a pig with a tail.</desc>
<g>
	<g>
		<g>
			
				<line fill="none" stroke="#000000" stroke-linecap="round" stroke-linejoin="round" stroke-miterlimit="10" x1="17.7" y1="26.3" x2="19" y2="30.8"/>
			
				<line fill="none" stroke="#000000" stroke-linecap="round" stroke-linejoin="round" stroke-miterlimit="10" x1="24.3" y1="26.3" x2="23" y2="30.8"/>
		</g>
		<g>
			<path fill="none" stroke="#000000" stroke-linecap="round" stroke-linejoin="round" stroke-miterlimit="10" d="M31.3,30.8h-3.2
				c5.9-6.4,3.2-15.2-1.1-16.1l-0.7-0.2"/>
			<path fill="none" stroke="#000000" stroke-linecap="round" stroke-linejoin="round" stroke-miterlimit="10" d="M10.8,30.8h3.2
				C8,24.4,10.7,15.6,15,14.8l0.6-0.2"/>
		</g>
		<path fill="none" stroke="#000000" stroke-linecap="round" stroke-linejoin="round" stroke-miterlimit="10" d="M10.3,23.8
			c-1.8,1-7-0.4-5.5-4.6c0.9-2.3,4.6-1.1,2.5,1.8c-1.4,1.9-6,1.4-6.8-0.6"/>
		<path fill="none" stroke="#000000" stroke-linecap="round" stroke-linejoin="round" stroke-miterlimit="10" d="M29.8,1.2
			c0,0-3.2-0.5-5,1.5c-0.1,0.1-0.2,0.2-0.2,0.4c-1.1-0.6-2.3-0.9-3.6-0.9c-1.3,0-2.5,0.3-3.6,0.9c-0.1-0.1-0.1-0.2-0.2-0.4
			c-1.8-2-5-1.5-5-1.5s-0.8,3,1.1,5.1c0.2,0.3,0.5,0.5,0.9,0.6c-0.3,0.8-0.5,1.7-0.5,2.6c0,4.1,3.3,7.3,7.3,7.3s7.3-3.3,7.3-7.3
			c0-0.9-0.2-1.8-0.5-2.6c0.3-0.1,0.6-0.3,0.9-0.6C30.6,4.2,29.8,1.2,29.8,1.2z"/>
		
			<ellipse fill="none" stroke="#000000" stroke-linecap="round" stroke-linejoin="round" stroke-miterlimit="10" cx="21" cy="10.7" rx="3.2" ry="2.6"/>
	</g>
	<circle cx="20" cy="10.7" r="0.6"/>
	<circle cx="21.9" cy="10.7" r="0.6"/>
</g>
</svg>
