<?xml version="1.0" encoding="utf-8"?>
<!-- Generator: Adobe Illustrator 18.1.1, SVG Export Plug-In . SVG Version: 6.00 Build 0)  -->
<svg version="1.1" id="Layer_1" xmlns="http://www.w3.org/2000/svg" xmlns:xlink="http://www.w3.org/1999/xlink" x="0px" y="0px"
	 viewBox="0 0 32 32" enable-background="new 0 0 32 32" xml:space="preserve">
<title>Piggy Bank</title>
<desc>Piggy bank with zigzag tail from profile view.</desc>
<g>
	<g>
		<g>
			<polyline fill="none" stroke="#000000" stroke-linejoin="round" stroke-miterlimit="10" points="6.7,9.5 6.7,4.5 9.9,6.9 			"/>
		</g>
	</g>
	<path fill="none" stroke="#000000" stroke-linecap="round" stroke-linejoin="round" stroke-miterlimit="10" d="M18.4,8.6h-2l-6.5-5
		l0,5l0,0c-4.1,0-6.8,3.9-6.8,6.8c-2,0-2.7,0.7-2.7,1.6v3.5c0,0.9,0.7,1.6,2.7,1.6c0,0,3.1,2.7,4.7,3.6l0.5,2.8H12l0.5-2.8h3.7
		l0.5,2.8h3.6l0.5-2.8c2.7,0,5.1-1.9,5.1-5.5c0-1.6,0-4.1,0-4.1C25.7,11.9,22.7,8.6,18.4,8.6z"/>
	<polyline fill="none" stroke="#000000" stroke-linecap="round" stroke-linejoin="round" stroke-miterlimit="10" points="25.9,18.5 
		29,15.4 29,18.7 31.5,16.3 	"/>
	<ellipse cx="7.9" cy="16.1" rx="0.8" ry="0.8"/>
</g>
</svg>
