<?xml version="1.0" encoding="utf-8"?>
<!-- Generator: Adobe Illustrator 18.1.1, SVG Export Plug-In . SVG Version: 6.00 Build 0)  -->
<svg version="1.1" id="Layer_1" xmlns="http://www.w3.org/2000/svg" xmlns:xlink="http://www.w3.org/1999/xlink" x="0px" y="0px"
	 viewBox="0 0 32 32" enable-background="new 0 0 32 32" xml:space="preserve">
<title>100 night trial icon</title>
<desc>Pillow with number 100, moon, and star in middle.</desc>
<g>
	<g>
		<path d="M5.6,18.6v-3.5l-0.9,0.3l-0.4-1l2.1-0.8h0.4v5H5.6z"/>
		<path d="M10.2,18.7c-1.5,0-2.2-1.2-2.2-2.5c0-1.3,0.7-2.5,2.2-2.5c1.5,0,2.2,1.2,2.2,2.5C12.4,17.5,11.7,18.7,10.2,18.7z
			 M10.2,14.7c-0.6,0-0.9,0.6-0.9,1.5c0,0.9,0.3,1.5,0.9,1.5c0.6,0,0.9-0.6,0.9-1.5C11.1,15.3,10.8,14.7,10.2,14.7z"/>
		<path d="M15.3,18.7c-1.5,0-2.2-1.2-2.2-2.5c0-1.3,0.7-2.5,2.2-2.5c1.5,0,2.2,1.2,2.2,2.5C17.5,17.5,16.8,18.7,15.3,18.7z
			 M15.4,14.7c-0.6,0-0.9,0.6-0.9,1.5c0,0.9,0.3,1.5,0.9,1.5c0.6,0,0.9-0.6,0.9-1.5C16.2,15.3,16,14.7,15.4,14.7z"/>
	</g>
	<path fill="none" stroke-linecap="round" stroke-linejoin="round" stroke-miterlimit="10" d="M30.5,22.2
		c0.3-1.4,0.4-3.7,0.4-6.2c0-2.5-0.2-4.8-0.4-6.2c0,0,0,0,0,0c0.9-0.9,1.2-2,0.8-2.5C30.9,6.8,29.9,7.1,29,8C26.9,7.4,21.9,7,16,7.1
		c-5.9,0-10.9,0.4-13,1C2.1,7.2,1.1,6.8,0.7,7.3C0.3,7.7,0.6,8.9,1.5,9.8c0,0,0,0,0,0c-0.3,1.4-0.4,3.7-0.4,6.2
		c0,2.5,0.2,4.8,0.4,6.2c0,0,0,0,0,0c-0.9,0.9-1.2,2-0.8,2.5C1.1,25.2,2.1,24.9,3,24c2.1,0.5,7.1,0.9,13,0.9c5.9,0,10.9-0.4,13-1
		c0.8,0.8,1.8,1.2,2.3,0.7C31.7,24.3,31.4,23.1,30.5,22.2C30.5,22.2,30.5,22.2,30.5,22.2z"/>
	<g>
		<path fill="none" stroke-linecap="round" stroke-linejoin="round" stroke-miterlimit="10" d="M21.9,16.5
			c-0.5-0.9-0.3-2.1,0.3-2.8c-0.4,0-0.7,0.1-1.1,0.3c-1.3,0.6-1.9,2.2-1.2,3.5c0.7,1.3,2.3,1.8,3.7,1.1c0.3-0.2,0.6-0.4,0.9-0.7
			C23.5,18,22.4,17.4,21.9,16.5z"/>
		<path fill="none" stroke="#2E52A4" stroke-linecap="round" stroke-linejoin="round" stroke-miterlimit="10" d="M22.3,13.7"/>
		<path fill="none" stroke-linecap="round" stroke-linejoin="round" stroke-miterlimit="10" d="M24.5,17.9"/>
		<path fill="none" stroke-linecap="round" stroke-linejoin="round" stroke-miterlimit="10" d="M22.3,13.7
			c-0.7,0.8-0.8,1.9-0.3,2.8c0.5,0.9,1.5,1.5,2.6,1.4"/>
	</g>
	<path fill="none" stroke-linecap="round" stroke-linejoin="round" stroke-miterlimit="10" d="M25.9,12.4
		c0,0.7-1.2,1.9-2,1.9c0.8,0,2,1.1,2,1.9c0-0.7,1.2-1.9,2-1.9C27.1,14.3,25.9,13.2,25.9,12.4z"/>
</g>
</svg>
