<?xml version="1.0" encoding="UTF-8" standalone="no"?>
<svg width="14px" height="16px" viewBox="0 0 14 16" version="1.1" xmlns="http://www.w3.org/2000/svg">
<title>Pinterest Icon</title>
<desc>Visit Casper on Pinterest</desc>
    <g id="social40" transform="translate(1.000000, 0.000000)">
      <path d="M12.148,4.449 C11.712,1.287 8.56,-0.323 5.198,0.054 C2.54,0.352 -0.11,2.501 -0.22,5.574 C-0.287,7.45 0.245,8.858 2.03,9.253 C2.803,7.885 1.781,7.586 1.621,6.595 C0.966,2.545 6.293,-0.221 9.083,2.609 C11.014,4.569 9.742,10.595 6.63,9.968 C3.649,9.37 8.09,4.573 5.711,3.632 C3.777,2.866 2.75,5.972 3.667,7.516 C3.129,10.171 1.971,12.671 2.44,16 C3.96,14.897 4.473,12.785 4.893,10.582 C5.657,11.047 6.066,11.529 7.04,11.604 C10.633,11.882 12.641,8.017 12.148,4.449 L12.148,4.449 Z" id="Shape"></path>
    </g>
</svg>
