<?xml version="1.0" encoding="UTF-8"?>
<svg viewBox="0 0 26 19" xmlns="http://www.w3.org/2000/svg" xmlns:xlink="http://www.w3.org/1999/xlink">
    <title>Play video icon</title>
    <path d="M22,1 C23.6568542,1 25,2.34314575 25,4 L25,14.05 C25,15.7068542 23.6568542,17.05 22,17.05 L4,17.05 C2.34314575,17.05 1,15.7068542 1,14.05 L1,4 C1,2.34314575 2.34314575,1 4,1 L22,1 L22,1 Z M22,-2.22044605e-16 L4,-2.22044605e-16 C1.790861,-1.3527075e-16 2.705415e-16,1.790861 0,4 L0,14.05 C2.705415e-16,16.259139 1.790861,18.05 4,18.05 L22,18.05 C24.209139,18.05 26,16.259139 26,14.05 L26,4 C26,1.790861 24.209139,1.3527075e-16 22,-2.22044605e-16 Z" id="Shape"></path>
    <polygon transform="translate(10.000000, 6.000000)" id="Shape" points="0.52 0.02 0.52 6.02 5.52 3.02"></polygon>
</svg>