<?xml version="1.0" encoding="utf-8"?>
<!-- Generator: Adobe Illustrator 21.0.2, SVG Export Plug-In . SVG Version: 6.00 Build 0)  -->
<svg version="1.1" id="Layer_1" xmlns="http://www.w3.org/2000/svg" xmlns:xlink="http://www.w3.org/1999/xlink" x="0px" y="0px"
	 width="30px" height="30px" viewBox="0 0 30 30" style="enable-background:new 0 0 30 30;" xml:space="preserve">
<title>Plus Circle</title><desc>Plus sign inside a circle</desc>
<g>
	<path d="M15,29.5C7,29.5,0.5,23,0.5,15S7,0.5,15,0.5S29.5,7,29.5,15C29.6,23,23.1,29.5,15,29.5z M15,1.6
		C7.6,1.6,1.5,7.6,1.5,15c0,7.4,6,13.5,13.5,13.5c7.4,0,13.5-6,13.5-13.5S22.5,1.6,15,1.6z"/>
	<path d="M22.4,15.2c0-0.3-0.2-0.5-0.5-0.5h-0.1H8.4H8.3c-0.3,0-0.5,0.2-0.5,0.5c0,0.3,0.2,0.5,0.5,0.5h13.6
		c0,0,0,0,0,0C22.2,15.6,22.4,15.4,22.4,15.2z"/>
	<path d="M15.5,8.2C15.5,8.2,15.5,8.2,15.5,8.2c0-0.1-0.1-0.3-0.1-0.3c0,0,0,0,0,0c0,0-0.1-0.1-0.1-0.1
		c-0.1,0-0.1,0-0.2,0c0,0,0,0,0,0s0,0,0,0c-0.3,0-0.5,0.2-0.5,0.5v13.5c0,0,0,0,0,0v0v0.1c0,0.3,0.2,0.5,0.5,0.5
		c0.3,0,0.5-0.2,0.5-0.5L15.5,8.2C15.5,8.2,15.5,8.2,15.5,8.2z"/>
</g>
</svg>
