<?xml version="1.0" encoding="utf-8"?>
<!-- Generator: Adobe Illustrator 18.0.0, SVG Export Plug-In . SVG Version: 6.00 Build 0)  -->
<svg version="1.1" id="Layer_1" xmlns="http://www.w3.org/2000/svg" xmlns:xlink="http://www.w3.org/1999/xlink" x="0px" y="0px"
	 viewBox="0 0 39.8 39.7" enable-background="new 0 0 39.8 39.7" xml:space="preserve">
<title>Pointer arrow icon</title>
<desc>Close arrow icon used that points to Naptour content.</desc>
<path id="XMLID_133_" d="M34.2,30.6L39.7,2c0.1-0.5,0-1.1-0.4-1.6c-0.4-0.4-1-0.6-1.6-0.4L9.2,5.6C8.8,5.7,8.5,5.8,8.3,6
	c-0.6,0.6-0.6,1.7,0,2.3c0.1,0.1,0.2,0.2,0.3,0.3l8.8,5.5L0,30.1l9.9,9.5L25.7,22l5.5,9.1c0.1,0.1,0.2,0.2,0.3,0.3
	c0.6,0.6,1.7,0.6,2.3,0C34,31.2,34.1,30.9,34.2,30.6z"/>
</svg>
