<?xml version="1.0" encoding="utf-8"?>
<!-- Generator: Adobe Illustrator 19.1.0, SVG Export Plug-In . SVG Version: 6.00 Build 0)  -->
<svg version="1.1" id="Layer_1" xmlns="http://www.w3.org/2000/svg" xmlns:xlink="http://www.w3.org/1999/xlink" x="0px" y="0px"
	 viewBox="0 0 36 26" style="enable-background:new 0 0 36 26;" xml:space="preserve">
<title>Quote</title>
<desc>Open and close quote icon</desc>
<g>
	<path d="M0.4,17.8C0.4,10.5,5,4.9,15.3,0.5l1.6,2.6C9.4,6.4,5.5,10.7,4.9,15.1l0.6,0.3c0.8-0.5,1.8-1,2.9-1
		c2.7,0,4.7,2.2,4.7,5c0,3.3-2.4,6-5.7,6C3.1,25.5,0.4,22.3,0.4,17.8z M19.1,17.8c0-7.3,4.5-12.8,14.9-17.3l1.6,2.6
		c-7.5,3.4-11.5,7.6-12.1,12.1l0.6,0.3c0.8-0.5,1.8-1,2.9-1c2.7,0,4.7,2.2,4.7,5c0,3.3-2.4,6-5.7,6C21.8,25.5,19.1,22.3,19.1,17.8z"
		/>
</g>
</svg>
