<?xml version="1.0" encoding="utf-8"?>
<!-- Generator: Adobe Illustrator 19.2.1, SVG Export Plug-In . SVG Version: 6.00 Build 0)  -->
<svg version="1.1" id="Layer_1" xmlns="http://www.w3.org/2000/svg" xmlns:xlink="http://www.w3.org/1999/xlink" x="0px" y="0px"
	 width="80.9px" height="22px" viewBox="0 0 80.9 22" style="enable-background:new 0 0 80.9 22;" xml:space="preserve">
<style type="text/css">
	.st0{fill:#CBCBCB;}
	.st1{fill:#B4B4B4;}
	.st2{fill:#E0E0E0;}
	.st3{clip-path:url(#SVGID_2_);fill:#727272;}
</style>
<g>
	<path class="st0" d="M2.7,12.8c0,2.4,0,4.8,0,7.3c-0.9,0-1.7,0-2.6,0c0-0.2,0-0.4,0-0.6C0,14.2,0,9.1,0,3.9C0,3.4,0.2,3.2,0.7,3
		c2.2-0.7,4.5-0.9,6.8-0.4c3.4,0.9,4.2,3.6,3.6,6.2c-0.3,1.4-1.3,2.2-2.6,2.7c-0.3,0.1-0.5,0.2-0.8,0.3c2.4,2.2,2.9,5.4,4.6,8.2
		c-1,0-1.9,0-2.8,0c-0.1,0-0.3-0.3-0.4-0.5C8.4,18,7.7,16.4,7,14.8C6.1,12.9,4.8,12.3,2.7,12.8z M2.6,10.8c1.4-0.1,2.8-0.1,4-0.4
		C8,10.1,8.6,9,8.6,7.6c0-1.4-0.7-2.4-2-2.9c-1.2-0.4-2.4-0.3-3.6,0C2.9,4.8,2.7,5,2.7,5.2C2.6,7,2.6,8.8,2.6,10.8z"/>
	<path class="st0" d="M70.6,20c-0.1,0-0.2,0-0.3,0c-0.8,0-1.8,0.3-2.4-0.1c-0.5-0.4-0.6-1.4-0.9-2.2c0-0.1-0.1-0.2-0.1-0.3
		c-0.2-0.7-0.3-1.6-0.8-1.9c-0.5-0.3-1.4-0.1-2.1-0.1c-1.2,0-2.4,0-3.7,0c-0.5,0-0.7,0.2-0.8,0.6c-0.4,1.3-0.9,2.7-1.3,4
		c-0.9,0-1.8,0-2.8,0c0.4-1.2,0.8-2.4,1.2-3.5c1.5-4.4,3.1-8.8,4.6-13.2c0.2-0.5,0.4-0.6,0.9-0.6c0.8,0,1.7,0,2.5,0
		C66.6,8.5,68.6,14.2,70.6,20z M63,5.2c-0.9,2.7-1.8,5.4-2.6,8.2c1.8,0,3.5,0,5.3,0C64.8,10.6,63.9,7.9,63,5.2z"/>
	<path class="st0" d="M48.8,13.1c0,2.3,0,4.6,0,7c-0.9,0-1.7,0-2.7,0c0-0.3,0-0.5,0-0.8c0-5.1,0-10.1,0-15.2c0-0.6,0.2-0.9,0.8-1.1
		c2.3-0.6,4.5-0.9,6.8-0.2c2.3,0.7,3.6,2.4,3.7,4.6c0.1,2.6-1.1,4.3-3.4,5.2c-1.5,0.6-3,0.6-4.6,0.5C49.2,13.1,49,13.1,48.8,13.1z
		 M48.8,10.9c1.5,0.3,2.8,0.3,4.1-0.3c1.2-0.5,1.9-1.6,1.9-2.9c0-1.4-0.7-2.5-2-3c-1.2-0.4-2.4-0.4-3.6,0c-0.2,0-0.4,0.2-0.4,0.4
		C48.8,7,48.8,8.9,48.8,10.9z"/>
	<path class="st0" d="M43.3,17.4c0.3,0.7,0.5,1.3,0.8,2.1c-0.8,0.2-1.6,0.6-2.4,0.6c-1.3,0.1-2.7,0.3-4,0c-2.3-0.4-3.9-1.8-4.5-4.1
		c-0.7-2.3-0.6-4.6,0.6-6.8c1.1-2.1,3-3,5.3-2.9c2.1,0,3.9,0.9,4.9,2.9c0.5,1.1,0.6,2.3,0.6,3.6c0,0.4-0.2,0.5-0.6,0.5
		c-2.6,0.4-5.3,0.7-7.9,1.1c-0.1,0-0.3,0.1-0.4,0.1c-0.2,1.5,1.1,3.1,2.7,3.5c1.4,0.3,2.8,0.1,4.2-0.3C42.7,17.6,43,17.5,43.3,17.4z
		 M35.3,12.7c2.2-0.3,4.3-0.6,6.5-0.9c0-0.4-0.1-0.7-0.1-0.9c-0.3-1.7-1.4-2.6-3.1-2.6C36.6,8.4,35.1,10.2,35.3,12.7z"/>
	<path class="st0" d="M20.8,11.4c0-0.3,0-0.5,0-0.8c0-1.5-0.7-2.3-2.2-2.3c-1.2,0-2.4,0.3-3.6,0.5c-0.2,0-0.5,0.1-0.8,0.2
		c-0.2-0.6-0.4-1.2-0.7-1.9c0.9-0.2,1.8-0.5,2.7-0.7c1.3-0.3,2.7-0.3,4,0c2,0.5,3.1,1.7,3.1,3.8c0.1,2.9,0,5.8,0,8.7
		c0,0.2-0.2,0.5-0.4,0.6c-2.5,0.9-5,1.1-7.5,0.3c-1.8-0.6-2.7-1.8-2.7-3.6c-0.1-1.8,0.7-3.2,2.4-3.8c1.5-0.5,3.1-0.7,4.6-1
		C20.1,11.5,20.5,11.5,20.8,11.4z M20.8,13.3c-1.5,0.1-2.9,0.1-4.1,0.7c-1,0.4-1.4,1.2-1.4,2.2c0.1,1,0.7,1.7,1.7,2
		c1.1,0.3,2.3,0.2,3.4,0c0.2,0,0.4-0.3,0.4-0.4C20.8,16.3,20.8,14.8,20.8,13.3z"/>
	<path class="st0" d="M80.9,2.7c-0.8,1.5-1.5,2.9-2.2,4.3c-1,1.9-1.9,3.8-2.9,5.7c-0.2,0.3-0.2,0.7-0.3,1c0,2.1,0,4.2,0,6.3
		c-0.9,0-1.8,0-2.7,0c0-0.9,0-1.7,0-2.6c0-0.9-0.1-1.9,0-2.8c0.1-1.1-0.3-2-0.7-2.9c-1.5-2.9-2.9-5.7-4.4-8.6
		c-0.1-0.1-0.1-0.2-0.2-0.4c0.9,0,1.8,0,2.6,0c0.2,0,0.4,0.3,0.5,0.5c1,2.1,2.1,4.3,3.1,6.4c0.1,0.3,0.3,0.5,0.5,0.9
		c0.8-1.6,1.5-3.1,2.2-4.6c0.5-0.9,0.9-1.9,1.4-2.8c0.1-0.2,0.4-0.4,0.6-0.4C79.2,2.6,80,2.7,80.9,2.7z"/>
	<path class="st0" d="M31.8,8.6c-0.9,0-1.7,0-2.6,0c0,0.3,0,0.6,0,0.9c0,2.1,0,4.2,0,6.3c0,1.7,0.7,2.3,2.4,2c0.1,0,0.2,0,0.3,0
		c0,0.6,0,1.2,0,1.9c0,0.2-0.2,0.4-0.4,0.4c-2.8,0.8-4.9-0.7-5-3.6c0-2.3,0-4.7,0-7c0-0.2,0-0.5,0-0.8c-0.6,0-1.2,0-1.8,0
		c0-0.7,0-1.4,0-2c0.6,0,1.1,0,1.8,0c0-0.9,0-1.7,0-2.6c0-0.4,0.1-0.6,0.5-0.7c0.7-0.2,1.4-0.4,2.1-0.6c0,1.3,0,2.6,0,3.9
		c0.9,0,1.8,0,2.7,0C31.8,7.2,31.8,7.9,31.8,8.6z"/>
</g>
</svg>
