<?xml version="1.0" encoding="utf-8"?>
<!-- Generator: Adobe Illustrator 19.2.1, SVG Export Plug-In . SVG Version: 6.00 Build 0)  -->
<svg version="1.1" id="Layer_1" xmlns="http://www.w3.org/2000/svg" xmlns:xlink="http://www.w3.org/1999/xlink" x="0px" y="0px"
	 width="115px" height="23px" viewBox="0 0 115 23" style="enable-background:new 0 0 115 23;" xml:space="preserve">

<title>RatePAY Logo</title>
<desc>RatePAY installment payments</desc>

<g>
	<path d="M26.7,11.8c1.5-0.6,2.7-1.6,3.1-3.3c0.8-3.1-0.2-6.5-4.4-7.6c-2.8-0.7-5.6-0.4-8.3,0.4
		c-0.6,0.2-0.8,0.5-0.8,1.1c0,6.3,0,12.5,0,18.8c0,0.3,0,0.5,0.1,0.8c1.1,0,2.1,0,3.2,0c0-3,0-5.9,0-8.9c2.6-0.6,4.2,0.2,5.3,2.5
		c0.9,1.9,1.7,3.9,2.6,5.8c0.1,0.2,0.3,0.6,0.5,0.6c1,0.1,2.1,0,3.4,0c-2-3.4-2.7-7.3-5.6-10C26.1,12,26.4,11.9,26.7,11.8z
		 M24.5,10.3c-1.6,0.3-3.2,0.4-4.9,0.5c0-2.5,0-4.7,0-6.8c0-0.2,0.3-0.5,0.5-0.6c1.5-0.4,2.9-0.5,4.4,0c1.6,0.5,2.4,1.7,2.4,3.5
		C26.9,8.7,26.1,10,24.5,10.3z"/>
	<path d="M92.1,0.9c-0.6,0-0.9,0.2-1.1,0.7c-1.8,5.4-3.7,10.8-5.6,16.1c-0.5,1.4-1,2.9-1.5,4.3c1.2,0,2.3,0,3.4,0
		c0.5-1.6,1.1-3.2,1.6-4.9c0.2-0.5,0.4-0.8,1-0.7c1.5,0,3,0,4.5,0c0.9,0,2-0.3,2.5,0.2c0.6,0.4,0.7,1.5,1,2.3c0,0.1,0.1,0.2,0.1,0.3
		c0.3,0.9,0.4,2.2,1.1,2.6c0.7,0.5,1.9,0.1,3,0.1c0.1,0,0.2,0,0.3-0.1C100,15,97.6,8,95.1,0.9C94.1,0.9,93.1,0.9,92.1,0.9z M90,14
		c1.1-3.4,2.2-6.7,3.2-10c1.1,3.3,2.1,6.6,3.2,10C94.2,14,92.2,14,90,14z"/>
	<path d="M86.2,6.7c-0.1-2.7-1.7-4.8-4.5-5.6c-2.8-0.8-5.5-0.5-8.3,0.2c-0.7,0.2-0.9,0.5-0.9,1.3c0,6.2,0,12.4,0,18.5
		c0,0.3,0,0.6,0,0.9c1.1,0,2.1,0,3.3,0c0-2.8,0-5.6,0-8.5c0.3,0,0.5,0,0.8,0.1c1.9,0.2,3.8,0.1,5.6-0.6C84.9,12,86.3,9.8,86.2,6.7z
		 M80.7,10.6c-1.6,0.6-3.2,0.6-4.9,0.3c0-2.4,0-4.8,0-7.1c0-0.2,0.3-0.4,0.5-0.5c1.5-0.4,2.9-0.5,4.4,0C82.2,4,83,5.3,83,7.1
		C83.1,8.7,82.2,10,80.7,10.6z"/>
	<path d="M63.8,5.3c-2.8,0-5,1-6.4,3.6c-1.4,2.6-1.5,5.4-0.7,8.3c0.8,2.8,2.7,4.6,5.5,5c1.6,0.3,3.3,0.1,4.9-0.1
		c1-0.1,1.9-0.5,2.9-0.8c-0.4-1-0.7-1.7-1-2.5c-0.4,0.1-0.7,0.3-1,0.4c-1.7,0.5-3.4,0.8-5.1,0.4c-2-0.5-3.5-2.4-3.3-4.3
		c0.2,0,0.3-0.1,0.5-0.1c3.2-0.5,6.4-0.9,9.7-1.3c0.4-0.1,0.7-0.1,0.7-0.6c0-1.5-0.1-3-0.7-4.4C68.6,6.4,66.4,5.4,63.8,5.3z
		 M59.4,13.1c-0.2-3,1.5-5.3,4-5.4c2.1-0.1,3.5,1.1,3.8,3.1c0,0.3,0.1,0.7,0.1,1.1C64.7,12.4,62.1,12.8,59.4,13.1z"/>
	<path d="M41,5.6c-1.6-0.4-3.3-0.4-4.9,0C35,5.8,34,6.1,32.8,6.4c0.3,0.9,0.6,1.6,0.9,2.3c0.4-0.1,0.7-0.3,1-0.3
		c1.5-0.2,2.9-0.6,4.4-0.6c1.8,0,2.7,1.1,2.7,2.9c0,0.3,0,0.5,0,0.9c-0.4,0-0.8,0-1.2,0.1c-1.9,0.4-3.8,0.6-5.6,1.2
		c-2.1,0.7-3.1,2.4-3,4.6c0.1,2.2,1.2,3.7,3.3,4.4c3.1,1,6.2,0.7,9.2-0.4c0.2-0.1,0.5-0.5,0.5-0.7c0-3.5,0.1-7.1,0-10.6
		C44.8,7.7,43.5,6.2,41,5.6z M41.7,19.2c0,0.2-0.3,0.5-0.5,0.5c-1.4,0.3-2.8,0.4-4.1,0c-1.3-0.4-2-1.2-2.1-2.4
		c-0.1-1.1,0.5-2.1,1.7-2.7c1.6-0.7,3.2-0.8,5-0.9C41.7,15.7,41.7,17.5,41.7,19.2z"/>
	<path d="M111.9,0.9c-0.3,0-0.6,0.3-0.7,0.5c-0.6,1.1-1.1,2.3-1.7,3.4c-0.9,1.8-1.7,3.6-2.7,5.6
		c-0.2-0.5-0.4-0.8-0.6-1.1c-1.3-2.6-2.5-5.2-3.8-7.8c-0.1-0.2-0.4-0.6-0.6-0.6c-1-0.1-2.1,0-3.2,0c0.1,0.2,0.1,0.4,0.2,0.5
		c1.8,3.5,3.6,7,5.4,10.5c0.6,1.1,1,2.2,0.9,3.5c-0.1,1.1,0,2.3,0,3.5c0,1.1,0,2.1,0,3.2c1.2,0,2.2,0,3.3,0c0-2.6,0-5.2,0-7.7
		c0-0.4,0.1-0.9,0.3-1.3c1.1-2.3,2.3-4.6,3.5-6.9c0.9-1.7,1.7-3.4,2.7-5.3C113.8,0.9,112.9,0.9,111.9,0.9z"/>
	<path d="M54.8,19.3c-2.1,0.3-2.9-0.4-2.9-2.5c0-2.6,0-5.1,0-7.7c0-0.3,0-0.6,0.1-1c1.1,0,2.2,0,3.2,0
		c0-0.9,0-1.7,0-2.5c-1.1,0-2.1,0-3.3,0c0-1.6,0-3.1,0-4.8c-1,0.3-1.8,0.6-2.6,0.8c-0.5,0.1-0.6,0.4-0.6,0.9c0,1,0,2.1,0,3.1
		c-0.8,0-1.5,0-2.2,0c0,0.8,0,1.6,0,2.5c0.7,0,1.4,0,2.2,0c0,0.4,0,0.7,0,1c0,2.8,0,5.7,0,8.5c0,3.6,2.6,5.4,6,4.4
		c0.2-0.1,0.5-0.3,0.5-0.5c0.1-0.7,0-1.5,0-2.3C55,19.3,54.9,19.3,54.8,19.3z"/>
</g>
</svg>
