<?xml version="1.0" encoding="utf-8"?>
<!-- Generator: Adobe Illustrator 18.1.1, SVG Export Plug-In . SVG Version: 6.00 Build 0)  -->
<svg version="1.1" id="Layer_1" xmlns="http://www.w3.org/2000/svg" xmlns:xlink="http://www.w3.org/1999/xlink" x="0px" y="0px"
	 viewBox="0 0 32 32" enable-background="new 0 0 32 32" xml:space="preserve">
<title>Analog clock</title>
<desc>Icon of an analog alarm clock.</desc>
<line fill="none" stroke-linecap="round" stroke-linejoin="round" stroke-miterlimit="10" x1="23.8" y1="31.5" x2="21.6" y2="27.7"/>
<line fill="none" stroke-linecap="round" stroke-linejoin="round" stroke-miterlimit="10" x1="8.2" y1="31.5" x2="10.4" y2="27.7"/>
<ellipse fill="none" stroke-linecap="round" stroke-linejoin="round" stroke-miterlimit="10" cx="16" cy="16" rx="13.1" ry="12.9"/>
<line fill="none" stroke-linecap="round" stroke-linejoin="round" stroke-miterlimit="10" x1="16" y1="7.3" x2="16" y2="15.9"/>
<line fill="none" stroke-linecap="round" stroke-linejoin="round" stroke-miterlimit="10" x1="16" y1="15.9" x2="21.2" y2="15.9"/>
<path fill="none" stroke-linecap="round" stroke-linejoin="round" stroke-miterlimit="10" d="M5.3,8.2
	c-0.7-0.8-1.1-1.9-1.1-3c0-2.6,2.1-4.6,4.7-4.6c1.8,0,3.4,1.1,4.2,2.6"/>
<path fill="none" stroke-linecap="round" stroke-linejoin="round" stroke-miterlimit="10" d="M18.8,3.4
	c0.7-1.7,2.4-2.9,4.3-2.9c2.6,0,4.7,2.1,4.7,4.6c0,1.2-0.5,2.4-1.3,3.2"/>
</svg>
