<svg xmlns="http://www.w3.org/2000/svg" viewBox="0 0 21.7 39.5">
<title>Analog clock</title>
<desc>Icon of an analog alarm clock.</desc>
  <path d="M16.9 39.5c-.3 0-.5-.1-.7-.4l-1.7-3c-.2-.4-.1-.9.3-1.1.4-.2.9-.1 1.1.3l1.7 3c.2.4.1.9-.3 1.1-.2.1-.3.1-.4.1zM4.8 39.5c-.1 0-.3 0-.4-.1-.4-.2-.5-.7-.3-1.1l1.7-3c.3-.3.7-.5 1.1-.3.4.2.5.7.3 1.1l-1.7 3c-.1.3-.4.4-.7.4z"/><path d="M10.8 37.5C4.9 37.5 0 32.7 0 26.7c0-6 4.9-10.8 10.8-10.8s10.8 4.9 10.8 10.8c.1 6-4.8 10.8-10.8 10.8zm0-20.1c-5.1 0-9.2 4.1-9.2 9.2s4.1 9.2 9.2 9.2 9.2-4.1 9.2-9.2-4.1-9.2-9.2-9.2z"/><path d="M10.8 27.4c-.4 0-.8-.4-.8-.8v-6.7c0-.4.4-.8.8-.8s.8.4.8.8v6.7c0 .5-.3.8-.8.8z"/><path d="M14.8 27.4h-4c-.4 0-.8-.4-.8-.8s.4-.8.8-.8h4c.4 0 .8.4.8.8s-.3.8-.8.8zM2.7 21.6c-.2 0-.4-.1-.6-.2-.8-.8-1.2-1.9-1.2-3.1 0-2.4 2-4.4 4.4-4.4 1.8 0 3.4 1.1 4.1 2.7.2.4 0 .9-.4 1-.4.2-.9 0-1-.4-.4-1.1-1.5-1.7-2.6-1.7-1.5 0-2.8 1.3-2.8 2.8 0 .7.3 1.4.8 1.9.3.3.3.8 0 1.1-.3.2-.5.3-.7.3zM18.9 21.6c-.2 0-.4-.1-.6-.2-.3-.3-.3-.8 0-1.1.5-.5.8-1.2.8-1.9 0-1.5-1.3-2.8-2.8-2.8-1.1 0-2.2.7-2.6 1.7-.2.4-.6.6-1 .4-.4-.2-.6-.6-.4-1C13 15 14.6 14 16.4 14c2.4 0 4.4 2 4.4 4.4 0 1.1-.4 2.2-1.2 3.1-.3 0-.5.1-.7.1z"/></svg>
