<?xml version="1.0" encoding="utf-8"?>
<!-- Generator: Adobe Illustrator 18.1.1, SVG Export Plug-In . SVG Version: 6.00 Build 0)  -->
<svg version="1.1" id="Layer_1" xmlns="http://www.w3.org/2000/svg" xmlns:xlink="http://www.w3.org/1999/xlink" x="0px" y="0px"
	 viewBox="0 0 32 32" enable-background="new 0 0 32 32" xml:space="preserve">
<title>Measurement icon</title>
<desc>Square ruler with 4 in middle.</desc>
<g>
	<g>
		<path d="M31.1,32H0.9c-0.3,0-0.5-0.2-0.5-0.5v-31C0.4,0.2,0.6,0,0.9,0h30.3c0.3,0,0.5,0.2,0.5,0.5v31C31.6,31.8,31.4,32,31.1,32z
			 M1.4,31h29.3V1H1.4V31z"/>
	</g>
	
		<line fill="none" stroke="#000000" stroke-linecap="round" stroke-linejoin="round" stroke-miterlimit="10" x1="16.1" y1="11.4" x2="16.1" y2="0.5"/>
	
		<line fill="none" stroke="#000000" stroke-linecap="round" stroke-linejoin="round" stroke-miterlimit="10" x1="11.1" y1="7.5" x2="11.1" y2="1.3"/>
	
		<line fill="none" stroke="#000000" stroke-linecap="round" stroke-linejoin="round" stroke-miterlimit="10" x1="6.1" y1="7.5" x2="6.1" y2="0.8"/>
	
		<line fill="none" stroke="#000000" stroke-linecap="round" stroke-linejoin="round" stroke-miterlimit="10" x1="21.1" y1="7.5" x2="21.1" y2="1.3"/>
	
		<line fill="none" stroke="#000000" stroke-linecap="round" stroke-linejoin="round" stroke-miterlimit="10" x1="26.1" y1="7.5" x2="26.1" y2="0.8"/>
	<polyline fill="none" stroke="#000000" stroke-linecap="round" stroke-linejoin="round" stroke-miterlimit="10" points="17,26.2 
		17,16.5 11.7,22.9 19.3,22.9 	"/>
</g>
</svg>
