<svg xmlns="http://www.w3.org/2000/svg" viewBox="0 0 25.8 39.1">
<title>Sad face</title>
<desc>Circle face with a sad expression</desc>

  <circle cx="8.7" cy="23" r="1.6"/><circle cx="17" cy="23" r="1.6"/><path d="M12.9 39.1C5.8 39.1 0 33.3 0 26.2c0-7.1 5.8-12.9 12.9-12.9 7.1 0 12.9 5.8 12.9 12.9 0 7.1-5.8 12.9-12.9 12.9zm0-24.2C6.7 14.9 1.6 20 1.6 26.2s5.1 11.3 11.3 11.3 11.3-5.1 11.3-11.3-5.1-11.3-11.3-11.3z"/><path d="M17.7 31.8c-.2 0-.3-.1-.5-.2-1.2-1-2.8-1.5-4.4-1.5s-3.1.5-4.4 1.5c-.3.3-.8.2-1.1-.1-.3-.3-.2-.8.1-1.1 1.5-1.2 3.4-1.9 5.3-1.9 2 0 3.8.6 5.3 1.9.3.3.4.8.1 1.1.1.2-.1.3-.4.3z"/></svg>
