<svg xmlns="http://www.w3.org/2000/svg" viewBox="0 0 90.51 43.51"><title>Shop All</title><desc>Shop All Stars</desc><path d="M63.8 42.75a20.86 20.86 0 0 1-20.8-20.84c0-18.34 20.27-20.82 20.47-20.84a.6.6 0 0 1 .62.33.62.62 0 0 1-.09.7 19.59 19.59 0 0 0 14.64 32.6.63.63 0 0 1 .52 1c-.16.3-4.96 7.05-15.36 7.05zm-1.8-40.15a29.3 29.3 0 0 0-8.16 3c-6.39 3.6-9.62 9.08-9.62 16.29a19.61 19.61 0 0 0 19.58 19.61 18.27 18.27 0 0 0 13.55-5.58 20.84 20.84 0 0 1-15.35-33.32zM14.28 28.56a.63.63 0 0 1-.62-.62 13 13 0 0 0-13-13 .63.63 0 0 1 0-1.25 13 13 0 0 0 13-13 .63.63 0 0 1 1.25 0 13 13 0 0 0 13 13 .62.62 0 0 1 0 1.25 13 13 0 0 0-13 13 .63.63 0 0 1-.63.62zm-9.47-14.28a14.34 14.34 0 0 1 9.47 9.47 14.34 14.34 0 0 1 9.47-9.47 14.34 14.34 0 0 1-9.47-9.47 14.34 14.34 0 0 1-9.47 9.47zM28.68 43.51a.63.63 0 0 1-.62-.62c0-3.14-4.33-7.47-7.47-7.47a.63.63 0 0 1 0-1.25 7.78 7.78 0 0 0 4.91-2.56 7.79 7.79 0 0 0 2.56-4.91.62.62 0 0 1 1.25 0 7.78 7.78 0 0 0 2.56 4.91 7.78 7.78 0 0 0 4.91 2.56.63.63 0 1 1 0 1.25c-3.14 0-7.47 4.33-7.47 7.47a.63.63 0 0 1-.63.62zm-5.52-8.72a12 12 0 0 1 5.52 5.52 12 12 0 0 1 5.52-5.52 12 12 0 0 1-5.52-5.52 12 12 0 0 1-5.52 5.52zM81.79 18.08a.63.63 0 0 1-.62-.62c0-3.14-4.33-7.47-7.47-7.47a.63.63 0 0 1 0-1.25c3.14 0 7.47-4.33 7.47-7.47a.63.63 0 0 1 1.25 0c0 3.14 4.33 7.47 7.47 7.47a.62.62 0 0 1 0 1.25c-3.14 0-7.47 4.33-7.47 7.47a.63.63 0 0 1-.63.62zm-5.52-8.72a12 12 0 0 1 5.52 5.52 12 12 0 0 1 5.52-5.52 12 12 0 0 1-5.52-5.52 12 12 0 0 1-5.52 5.52z"/></svg>