<?xml version="1.0" encoding="utf-8"?>
<!-- Generator: Adobe Illustrator 18.1.1, SVG Export Plug-In . SVG Version: 6.00 Build 0)  -->
<svg version="1.1" id="Layer_1" xmlns="http://www.w3.org/2000/svg" xmlns:xlink="http://www.w3.org/1999/xlink" x="0px" y="0px"
	 viewBox="0 0 32 32" enable-background="new 0 0 32 32" xml:space="preserve">
<title>Cell phone texting</title>
<desc>Smartphone receiving a text message.</desc>
<g>
	<ellipse cx="11.8" cy="28.1" rx="1.1" ry="1.1"/>
	<line fill="none" stroke="#000000" stroke-linejoin="round" stroke-miterlimit="10" x1="2.7" y1="6.6" x2="11.5" y2="6.6"/>
	
		<line fill="none" stroke="#000000" stroke-linecap="round" stroke-linejoin="round" stroke-miterlimit="10" x1="2.7" y1="24.8" x2="20.9" y2="24.8"/>
	<path fill="none" stroke="#000000" stroke-miterlimit="10" d="M27.8,4.3H13c-0.8,0-1.5,0.7-1.5,1.5v9.4c0,0.8,0.7,1.5,1.5,1.5h2.1
		c0,0,0.1,0,0.1,0.1v2.8c0,0.2,0.2,0.3,0.4,0.2l3.2-2.9c0.1-0.1,0.2-0.1,0.3-0.1h8.8c0.8,0,1.5-0.7,1.5-1.5V5.8
		C29.4,5,28.7,4.3,27.8,4.3z"/>
	<path fill="none" stroke="#000000" stroke-linecap="round" stroke-linejoin="round" stroke-miterlimit="10" d="M21,3
		c0-1.4-1.1-2.5-2.5-2.5H5.1C3.7,0.5,2.6,1.6,2.6,3v26c0,1.4,1.1,2.5,2.5,2.5h13.4c1.4,0,2.5-1.1,2.5-2.5v-12"/>
	<path fill="none" stroke="#000000" stroke-linecap="round" stroke-linejoin="round" stroke-miterlimit="10" d="M21,3v1.3"/>
	<g>
		<ellipse cx="24.5" cy="10.5" rx="1.1" ry="1.1"/>
		<ellipse cx="20.4" cy="10.5" rx="1.1" ry="1.1"/>
		<ellipse cx="16.4" cy="10.5" rx="1.1" ry="1.1"/>
	</g>
</g>
</svg>
