<?xml version="1.0" encoding="utf-8"?>
<!-- Generator: Adobe Illustrator 18.1.1, SVG Export Plug-In . SVG Version: 6.00 Build 0)  -->
<svg version="1.1" id="Layer_1" xmlns="http://www.w3.org/2000/svg" xmlns:xlink="http://www.w3.org/1999/xlink" x="0px" y="0px"
	 viewBox="0 0 61.4 53.2" enable-background="new 0 0 61.4 53.2" xml:space="preserve">
<title>Cell phone icon</title>
<desc>Line drawing of a smartphone.</desc>
<g>
	<path d="M41.8,0.2H19.6c-2.9,0-5.3,2.4-5.3,5.3v42.1c0,2.9,2.4,5.3,5.3,5.3h22.2c2.9,0,5.3-2.4,5.3-5.3V5.5
		C47.1,2.5,44.7,0.2,41.8,0.2z M17.3,13.2h26.8v26.8H17.3V13.2z M19.6,3.2h22.2c1.3,0,2.3,1,2.3,2.3v4.7H17.3V5.5
		C17.3,4.2,18.3,3.2,19.6,3.2z M41.8,49.9H19.6c-1.3,0-2.3-1-2.3-2.3v-4.7h26.8v4.7C44.1,48.9,43.1,49.9,41.8,49.9z"/>
	<circle cx="30.7" cy="46.3" r="2.2"/>
</g>
</svg>
