<?xml version="1.0" encoding="utf-8"?>
<!-- Generator: Adobe Illustrator 19.2.1, SVG Export Plug-In . SVG Version: 6.00 Build 0)  -->
<svg version="1.1" id="Layer_1" xmlns="http://www.w3.org/2000/svg" xmlns:xlink="http://www.w3.org/1999/xlink" x="0px" y="0px"
	 width="121.5px" height="22px" viewBox="0 0 121.5 22" style="enable-background:new 0 0 121.5 22;" xml:space="preserve">

<title>Sofort Logo</title>
<desc>Sofort fast and secure payments</desc>

<g id="layer1" transform="translate(85.788367,-282.23124)">
	<path id="path66" d="M-45.6,282.2c-1.7,0-3.3,0.4-4.8,1.1c-2.2,1-4.1,2.7-5.7,5c-1,1.5-1.9,3.2-2.6,5.1
		c-1.3,3.6-1.3,6.5,0,8.4c0.8,1.1,2.3,2.4,5.6,2.4h0c5.9,0,10.2-3.8,13-11.4c0.7-2,1.7-5.7-0.1-8.3C-41.3,283-43.1,282.2-45.6,282.2
		L-45.6,282.2z M-10.2,282.2c-1.7,0-3.3,0.4-4.8,1.1c-2.2,1-4.1,2.7-5.7,5c-1,1.5-1.9,3.2-2.6,5.1c-1.3,3.6-1.3,6.5,0,8.4
		c0.8,1.1,2.3,2.4,5.6,2.4h0c5.9,0,10.2-3.8,13-11.4c0.7-2,1.7-5.7-0.1-8.3C-5.9,283-7.7,282.2-10.2,282.2z M-64.4,282.6
		c-1.9,0-3.8,0-5.5,0.9c-1.7,0.9-3.2,2.6-4.3,6c-0.2,0.7-0.4,1.4-0.4,1.9c0,0.5,0.1,1,0.3,1.4c0.3,0.5,0.7,1,1.2,1.4
		c0.5,0.4,1.1,0.7,1.8,0.9c0,0,0.4,0.1,0.8,0.2c0.4,0.1,0.9,0.3,1.2,0.4c0.2,0.1,0.4,0.1,0.6,0.2c0.2,0.1,0.4,0.3,0.5,0.5
		c0.1,0.1,0.1,0.3,0.1,0.4c0,0.2,0,0.3-0.1,0.5c-0.2,0.5-0.4,0.8-0.8,0.9c-0.5,0.2-1.1,0.2-2.1,0.2h-12.6l-2,5.5h13.5
		c1.3,0,3.6,0,5.8-0.9c2.2-0.9,4.4-2.8,5.3-6.6c0.3-1.4,0.2-2.6-0.3-3.5c-0.6-0.9-1.6-1.6-3-2c0,0-0.3-0.1-0.7-0.2
		c-0.4-0.1-0.8-0.2-1.1-0.3c-0.4-0.1-0.7-0.3-0.8-0.6c-0.2-0.3-0.2-0.6-0.1-1c0.1-0.4,0.3-0.6,0.7-0.8c0.4-0.2,0.8-0.3,1.4-0.3h7.8
		c0.1-0.1,0.1-0.2,0.2-0.2c1.4-2,3.2-3.7,5.1-4.8H-64.4z M-29.2,282.6c-3.5,0-6.1,1.8-7.3,5.1l-5.9,16.3h6.5l3-8.4l5.7,0l1.6-4.5
		l-5.7,0l0.9-2.6c0.2-0.5,0.7-0.8,1.3-0.8c0.4,0,4.6,0,6.8,0c0.1-0.1,0.1-0.2,0.2-0.2c1.4-2,3.5-3.7,5.4-4.8L-29.2,282.6
		L-29.2,282.6z M0.9,282.6l-7.8,21.3h6.6l2.8-7.5c0.1,0.3,1.8,7.5,1.8,7.5h6.9c0,0-1.3-5.3-2.2-7.4c-0.2-0.5-0.5-1.2-0.8-1.7
		c2-0.7,4.8-2.3,6-5.5c0.7-1.9,0.7-3.5-0.1-4.7c-1-1.4-3-2.1-6.1-2.1H0.9L0.9,282.6z M14.4,282.6c0.4,0.3,0.8,0.7,1.1,1.1
		c0.8,1.1,1.1,2.4,0.9,3.9h3.9l-5.9,16.3h5.9l5.9-16.3h7.6l1.8-5.1H14.4z M5.2,287h1.1c2,0,2.7,0.6,2.1,2.4
		c-0.6,1.7-1.8,2.8-3.9,2.8h0l-1.1,0L5.2,287L5.2,287z M-47.2,287.1L-47.2,287.1c2,0,2.5,1.2,0.7,6h0c-1.8,5-3.2,6.3-5.2,6.3h0
		c-1.9,0-2.6-1.2-0.8-6.2C-51.1,289.5-49.3,287.1-47.2,287.1L-47.2,287.1z M-11.8,287.1L-11.8,287.1c2,0,2.5,1.2,0.7,6
		c-1.8,5-3.2,6.3-5.2,6.3h0c-1.9,0-2.6-1.2-0.8-6.2C-15.7,289.5-13.9,287.1-11.8,287.1L-11.8,287.1z"/>
</g>
</svg>
