<?xml version="1.0" encoding="utf-8"?>
<!-- Generator: Adobe Illustrator 19.2.1, SVG Export Plug-In . SVG Version: 6.00 Build 0)  -->
<svg version="1.1" id="Layer_1" xmlns="http://www.w3.org/2000/svg" xmlns:xlink="http://www.w3.org/1999/xlink" x="0px" y="0px"
	 width="115px" height="23px" viewBox="0 0 115 23" style="enable-background:new 0 0 115 23;" xml:space="preserve">

<title>Sofort Logo</title>
<desc>Sofort fast and secure payments</desc>

<g>
	<path d="M22.3,9.3c0,0-0.3-0.1-0.6-0.2c-0.3-0.1-0.8-0.2-1-0.3c-0.3-0.1-0.6-0.3-0.8-0.5c-0.2-0.3-0.2-0.6-0.1-0.9
		c0.1-0.3,0.3-0.6,0.6-0.8c0.3-0.2,0.7-0.3,1.2-0.3h7.1c0-0.1,0.1-0.2,0.1-0.2c1.3-1.8,2.9-3.3,4.6-4.4H22.5c-1.7,0-3.4,0-5,0.8
		C16,3.4,14.6,4.9,13.6,8c-0.2,0.7-0.3,1.2-0.4,1.7c0,0.5,0.1,0.9,0.3,1.3c0.2,0.4,0.6,0.9,1.1,1.2c0.5,0.4,1,0.6,1.6,0.8
		c0,0,0.3,0.1,0.7,0.2c0.4,0.1,0.8,0.2,1.1,0.3c0.2,0.1,0.4,0.1,0.5,0.2c0.2,0.1,0.3,0.2,0.4,0.4c0.1,0.1,0.1,0.3,0.1,0.4
		c0,0.1,0,0.3-0.1,0.5c-0.1,0.4-0.4,0.7-0.8,0.9c-0.4,0.2-1,0.2-1.9,0.2H4.9l-1.8,4.9h12.2c1.1,0,3.2,0,5.3-0.9c2-0.9,3.9-2.6,4.8-6
		c0.3-1.3,0.2-2.3-0.3-3.2C24.6,10.3,23.7,9.7,22.3,9.3z"/>
	<path d="M44.4,3.6c-1-1.4-2.6-2.1-4.9-2.1c-1.5,0-3,0.3-4.3,1c-2,0.9-3.7,2.5-5.2,4.5c-0.9,1.3-1.7,2.9-2.4,4.6
		c-1.2,3.3-1.2,5.9,0,7.6c0.7,1,2.1,2.2,5,2.2h0c5.3,0,9.3-3.5,11.8-10.3C45.1,9.3,46,5.9,44.4,3.6z M38.7,11.4L38.7,11.4
		c-1.7,4.5-2.9,5.7-4.7,5.7h0c-1.8,0-2.4-1.1-0.7-5.6c1.2-3.4,2.8-5.5,4.8-5.5h0C39.9,5.9,40.3,7,38.7,11.4z"/>
	<path d="M93.8,1.8c0.4,0.3,0.7,0.6,1,1c0.7,1,1,2.2,0.8,3.6h3.6l-5.4,14.7h5.4l5.4-14.7h6.9l1.7-4.6H93.8z"/>
	<path d="M76.4,3.6c-1-1.4-2.6-2.1-4.9-2.1c-1.5,0-3,0.3-4.3,1c-2,0.9-3.7,2.5-5.2,4.5c-0.9,1.3-1.7,2.9-2.4,4.6
		c-1.2,3.3-1.2,5.9,0,7.6c0.7,1,2.1,2.2,5,2.2h0c5.3,0,9.3-3.5,11.8-10.3C77.1,9.3,78,5.9,76.4,3.6z M70.7,11.4
		c-1.7,4.5-2.9,5.7-4.7,5.7h0c-1.8,0-2.4-1.1-0.7-5.6c1.2-3.4,2.8-5.5,4.8-5.5h0C71.9,5.9,72.3,7,70.7,11.4z"/>
	<path d="M53.3,7.2c0.2-0.4,0.6-0.8,1.2-0.8c0.3,0,4.1,0,6.1,0c0.1-0.1,0.1-0.2,0.1-0.2c1.3-1.8,3.1-3.3,4.8-4.4H54.3
		c-3.2,0-5.5,1.6-6.6,4.6l-5.4,14.7h5.9l2.8-7.6l5.2,0l1.5-4.1l-5.2,0L53.3,7.2z"/>
	<path d="M93.5,3.7c-0.9-1.3-2.7-1.9-5.5-1.9h-6.5l-7,19.3h6l2.6-6.8c0.1,0.3,1.6,6.8,1.6,6.8H91c0,0-1.1-4.8-2-6.7
		c-0.2-0.5-0.4-1.1-0.7-1.5c1.8-0.7,4.3-2.1,5.4-4.9C94.3,6.2,94.3,4.8,93.5,3.7z M88.3,8c-0.6,1.5-1.6,2.5-3.6,2.5h0l-1,0l1.7-4.7
		v0h1C88.3,5.8,88.9,6.3,88.3,8z"/>
</g>
</svg>
