<?xml version="1.0" encoding="utf-8"?>
<!-- Generator: Adobe Illustrator 18.1.1, SVG Export Plug-In . SVG Version: 6.00 Build 0)  -->
<svg version="1.1" id="Layer_1" xmlns="http://www.w3.org/2000/svg" xmlns:xlink="http://www.w3.org/1999/xlink" x="0px" y="0px"
	 viewBox="0 0 74 53.2" enable-background="new 0 0 74 53.2" xml:space="preserve">
<title>Speech bubble icons</title>
<description>Image fo two overlapping speech message bubbles.</description>
<path d="M68.6,12.2H47.2V5.3c0-2.9-2.4-5.3-5.3-5.3H5.3C2.4,0,0,2.4,0,5.3v23c0,2.9,2.4,5.3,5.3,5.3h3.9v5.4c0,0.8,0.5,1.6,1.2,1.9
	c0.3,0.1,0.6,0.2,0.9,0.2c0.5,0,1-0.2,1.4-0.5l7.6-6.9h6.4v6.9c0,2.9,2.4,5.3,5.3,5.3h21.6l7.6,7c0.4,0.3,0.9,0.5,1.4,0.5
	c1.2,0,2.1-0.9,2.1-2.1v-5.4h3.9c2.9,0,5.3-2.4,5.3-5.3v-23C73.9,14.6,71.6,12.2,68.6,12.2z M26.7,17.5v12.9l-6.5,0
	c-0.3,0-1.1-0.1-1.8,0.6l-6.1,5.6v-4.4c0-1-0.8-1.8-1.8-1.8H5.3c-1.2,0-2.2-1-2.2-2.2v-23c0-1.2,1-2.2,2.2-2.2h36.6
	c1.2,0,2.2,1,2.2,2.2v6.9H32C29.1,12.2,26.7,14.6,26.7,17.5z M70.8,40.5c0,1.2-1,2.2-2.2,2.2h-5.3c-1,0-1.8,0.8-1.8,1.8v4.4l-6-5.5
	c-0.3-0.3-0.8-0.7-1.6-0.7c-0.1,0-0.2,0-0.2,0H32c-1.2,0-2.2-1-2.2-2.2v-23c0-1.2,1-2.2,2.2-2.2h36.6c1.2,0,2.2,1,2.2,2.2V40.5z"/>
</svg>
