<?xml version="1.0" encoding="utf-8"?>
<!-- Generator: Adobe Illustrator 18.1.1, SVG Export Plug-In . SVG Version: 6.00 Build 0)  -->
<svg version="1.1" id="Layer_1" xmlns="http://www.w3.org/2000/svg" xmlns:xlink="http://www.w3.org/1999/xlink" x="0px" y="0px"
	 viewBox="0 0 32 32" enable-background="new 0 0 32 32" xml:space="preserve">
<title>Speech bubble icons</title>
<desc>Image of two speech message bubbles.</desc>
<g>
	<path fill="none" stroke="#000000" stroke-miterlimit="10" d="M13.8,10.7h16c0.9,0,1.6,0.7,1.6,1.6v9.8c0,0.9-0.7,1.6-1.6,1.6h-2.3
		c0,0-0.1,0-0.1,0.1v2.9c0,0.2-0.2,0.3-0.4,0.2l-3.4-3c-0.1-0.1-0.2-0.1-0.3-0.1h-9.5c-0.9,0-1.6-0.7-1.6-1.6v-9.8
		C12.2,11.4,12.9,10.7,13.8,10.7z"/>
	<path fill="none" stroke="#000000" stroke-miterlimit="10" d="M19.8,10.7v-4c0-0.9-0.7-1.6-1.6-1.6h-16c-0.9,0-1.6,0.7-1.6,1.6v9.8
		c0,0.9,0.7,1.6,1.6,1.6h2.3c0,0,0.1,0,0.1,0.1v2.9c0,0.2,0.2,0.3,0.4,0.2l3.4-3c0.1-0.1,0.2-0.1,0.3-0.1h3.5"/>
</g>
</svg>
