<svg xmlns="http://www.w3.org/2000/svg" viewBox="0 0 893.9 118.8">
  <title>Suddeutsche Zeitung logo</title>
  <desc>Suddeutsche Zeitung logo</desc>
  <path d="M95.4 45.2c-6.3-2.2-9.2-3.3-11.5-5.5-2.2-1.5-3-3-3-4.8 0-1.9 1-3.7 2.6-4.8 3-2.6 6.3-3.7 12.9-3.3 7 .4 12.6 2.6 20.3 7.8l3.7 2.6 3-2.6c1.5-1.3 3-2.6 4.4-4.1l1.5-1.1-1.1-.7-.7-.7-1.8 1.5-1.8 1.5-2.6-1.5c-9.2-6.6-20.3-8.9-29.6-7-5.1.8-9.8 3.3-13.3 7-6.3 6.7-5.9 15.1.7 22.2 3 3 7.4 5.2 12.6 7 2.5.9 5.1 1.6 7.8 2.2 7.4 2.2 12.9 5.5 14.8 9.2 3.7 6.3-1.8 12.2-10.7 11.1-5.9-.7-14-4.4-20.3-8.9l-3.7-2.6-4.1 4.1c-3.3 3.3-4.1 4.1-4.1 5.2 0 .5.1 1 .4 1.5 1-.4 1.9-1 2.6-1.8l2.2-2.2 1.1.7c3.5 2.1 7.2 3.9 11.1 5.2 4.6 1.7 9.5 2.6 14.4 2.6 6.6 0 11.1-1.5 14.8-4.8 3.6-3.1 5.7-7.8 5.5-12.6 0-3.7-.4-5.5-2.2-7.8-3-5-11.8-9.8-25.9-14.6zM565 80.6c0-.4 5.5-13.3 12.2-28.8s12.2-28.4 12.6-29.2l.4-.7h-44.3l-.4 3.3c-.4 4.1-.4 7 0 7l1.5-.7c3.3-2 6.7-3.6 10.3-4.8 2.2-.7 4.4-.7 10.3-1.1 7.4-.4 7.8-.4 7.4.4 0 .4-5.5 13.3-12.6 28.4-6.6 15.1-12.6 28.1-12.6 28.4l-.4.7h36.9l1.1-3c.5-.9.8-1.9 1.1-3l-4.4.7c-8 2.4-19.5 3.5-19.1 2.4zM139.8 41.5c2.9 0 5.2-2.4 5.2-5.3 0-1.5-.7-3-1.9-4-1.1-1.1-1.5-1.1-3.3-1.1s-2.2 0-3.3 1.5c-1.8 1.8-2.2 3.7-1.1 5.9.7 2.2 1.8 3 4.4 3zm21.8-.4c4.8 2.2 9.2-3 6.6-7-.5-.8-1.1-1.6-1.8-2.2-1.8-.7-3.8-.7-5.5 0-3.4 2.2-3 7.7.7 9.2zm481-1.9c1.4-2.5.8-5.6-1.5-7.4-1.7-1.1-3.9-1.1-5.5 0-1.5 1-2.3 2.7-2.2 4.4-.4 5.3 6.6 7.5 9.2 3zm-441.5-1.8v3.7h3.7v9.6l-2.2-1.5c-2.6-2-5.9-3.1-9.2-3-2-.1-4 .3-5.9 1.1-3.3 1.5-7.4 5.2-8.9 8.5-4.1 9.2-1.5 21.8 5.9 26.6 5.2 3.7 12.2 3.3 18.1-.7l2.6-1.5v3.7h10.3V37.4h-14.4zm-3.7 42.9c-2.2.4-4.1 0-5.2-1.1-4.4-3.7-5.5-16.3-2.2-23.6 1-1.9 2.5-3.5 4.4-4.4 1.8-.7 3.8-.7 5.5 0 3.3 1.5 5.2 5.5 5.5 11.8.1 9.1-3.2 16.5-8 17.3zm63.2-42.9h-14.4v3.7h3.7v9.6l-2.2-1.5c-4.1-2.6-7.8-3.7-11.8-2.6-9.2 1.8-15.1 10.7-14.4 20.7.2 4.4 1.7 8.7 4.4 12.2 5.2 6.6 15.1 7.8 22.5 1.8l1.5-1.1v3.7H261V60.7l-.4-23.3zm-15.5 41.7c-2.1 1.4-4.8 1.5-7 .4-6.3-4.1-6.6-21.4-.7-27 2-1.9 4.8-2.5 7.4-1.5.9.4 1.7 1 2.2 1.8 5.1 5.7 4 22.3-1.9 26.3zm240.1-33.9c-4.1-.7-10.3 1.8-15.5 5.9-.9.7-1.8 1.4-2.6 2.2 0 0-.4-3.7-.4-8.1v-7.8h-7.4c-6.3 0-7.8 0-7.8.4v1.5c0 1.1.4 1.1 2.2 1.1h1.8V84h11.8V58.1l2.6-2.2c3.3-3 5.2-4.1 8.1-4.1 1.8 0 2.2 0 3.3 1.1 2.2 2.2 2.6 4.1 2.6 18.5V84h10.3l.4-8.1c0-4.4.4-11.5.4-15.5 0-7 0-7.8-.7-9.2-2.5-3.8-4.7-5.3-9.1-6zm-106 2.5v-3H371v-3.3c0-1.8 0-3.3-.4-3.3-.5.2-1 .4-1.5.7-.7.4-3 1.5-4.8 2.6-2.6 1.1-3.7 1.8-3.7 2.2 0 .7-.4.7-4.1.7h-4.1v3h8.1l-.4 18.1v18.5h11.1l-.2-18.1-.4-18.1h8.6zM698 44.8v3h5.9v25.1l-2.6 1.8c-5.5 4.1-9.6 5.2-11.8 3.7-1.1-1.1-1.8-3-2.2-8.5-.4-4.5-.4-9.1 0-13.7.4-4.8.7-9.6.7-10.3l.4-1.5h-22.9v-3c0-1.8 0-3.3-.4-3.3-.8.2-1.6.6-2.2 1.1-1.5 1-3.1 1.7-4.8 2.2-2.2 1.1-3.3 1.5-3.3 1.8 0 .7-.4.7-3.7.7h-3.3v3h7.4l-.4 18.1-.4 18.1h11.8l-.4-5.5c0-3-.4-11.1-.4-18.1l-.3-12.5h11.8l.4 2.6c-1.1 10.3-1.5 14.8-1.1 20.7.7 11.1 3.3 15.1 9.2 15.1 4.1 0 9.6-1.8 16.3-5.9l2.2-1.5v5.9H715V44.8h-17zM293.5 64.7c5.9-5.2 11.1-9.6 11.1-9.6-.3-.8-.8-1.6-1.5-2.2-5.2-6.3-11.5-8.9-18.1-7.8-11.1 1.5-19.2 11.5-18.1 22.2.7 7 5.2 14 10.3 17s13.7 3 19.9 0c2.2-1.1 5.9-3.7 5.9-4.4-.3-.7-.8-1.4-1.5-1.8l-1.5-1.5-1.8 1.5c-1.9 1.9-4.4 3.1-7 3.7-3.8.2-7.5-1.6-9.6-4.8-.7-1.5-.7-1.5 0-1.8.8-.9 5.9-5.3 11.9-10.5zm-14.1 5.6c-.4-.4-1.1-4.8-1.1-7.8-.1-3.6.9-7 3-10 1.8-2.2 2.2-2.6 4.4-3.7 1.9-1 4.2-1.2 6.3-.4.7.4 1.8 1.1 2.6 1.5 1.5 1.1 3.7 4.4 3.3 5.2-2.2 2.3-18.5 15.6-18.5 15.2zm110.8-21.1c1.5-.7 2.6-.7 5.2-.7 4-.1 7.8 1.1 11.1 3.3 3 1.8 3 1.8 4.8-.7l1.1-1.8-2.6-1.1c-6.3-2.6-14.8-4.1-19.6-3-4.4 1.1-8.1 3.3-9.6 6.6-1.1 2.2-1.1 7.8 0 10 1.8 3.7 5.9 5.9 13.3 8.1 5.5 1.5 7.8 2.6 9.2 4.1 1.5 1.8 1.8 3.3.4 5.2-2.2 2.6-8.1 3.3-14.4 1.1-1.9-.8-3.9-1.6-5.9-2.2-.7-.5-1.4-.8-2.2-1.1-.3 1.1-.7 2.2-1.1 3.3l-1.1 3 1.1.4c2.6 1.1 7.4 1.8 11.5 2.2 7.8.4 13.3-1.5 17.4-5.2 4.8-4.8 4.8-11.8 0-16.3-2.2-2.2-5.5-3.7-11.5-5.2-2.6-.7-5.5-1.5-6.6-2.2-4.1-1.9-4.1-6.3-.5-7.8zm139.7-1.5c-3.8-2.6-8.4-3.6-12.9-3-6.6 1.1-13.3 5.5-15.9 10.7-4.2 8.4-2.5 18.5 4.1 25.1 4.4 4.4 8.5 5.9 15.5 5.5 5.5-.4 9.6-1.8 12.9-4.8l1.5-1.5-1.5-1.5-1.5-1.5c-.7.4-1.3.9-1.8 1.5-4.4 4.1-9.6 4.8-14 1.5-1.3-1.1-2.3-2.5-3-4.1 0-.4 5.2-4.8 11.5-10.3 6.3-5.5 11.5-10 11.5-10.3.2-1.3-4.2-5.8-6.4-7.3zm-18.1 23c-.4 0-1.1-3.3-1.5-6.6-.4-5.2 1.1-9.6 4.4-12.6 3-3 6.6-3.7 10-2.2 2.2 1.1 5.5 4.4 5.5 5.5-.3.3-17.7 15.5-18.4 15.9z"/>
  <path d="M620 47.7c-3.8-2.6-8.4-3.6-12.9-3-6.6 1.1-12.9 5.2-15.9 10.7-2.3 4.7-2.9 10.1-1.5 15.1.9 3.8 2.8 7.2 5.5 10 4.4 4.4 8.5 5.9 15.5 5.5 5.5-.4 10.3-2.2 12.9-5.2l1.5-1.5-1.5-1.5-1.5-1.5-2.2 1.8c-3 2.6-5.2 3.3-7.8 3.3-2.2 0-4.3-.8-5.9-2.2-1.1-.7-3-3.3-3-4.1 0-.4 5.2-4.8 11.5-10.3s11.5-10.3 11.5-10.3c.5-.8-4-5.3-6.2-6.8zm-18.4 22.6c-.6-1.2-1-2.4-1.1-3.7-.4-2.1-.4-4.2 0-6.3 1.1-8.9 7.8-14 14-11.1 2.2 1.1 5.5 4.4 5.5 5.5 0 .8-18.1 16-18.4 15.6zM170.4 44.8H153v3h5.9v25.1l-1.5 1.5c-4.1 3.3-9.2 5.5-11.1 5.2-2.2-.7-3.3-3.7-3.7-11.5-.4-4.1.4-17.4.7-21.8l.4-1.8h-17v3h3c3.3 0 3-.7 2.2 5.9-.8 5.8-1 11.6-.7 17.4.7 8.1 2.2 11.8 5.2 13.3 1.5.7 2.2.7 4.8.7 4.1-.4 9.6-2.2 15.5-5.9l1.8-1.1v6.3h11.8l.1-39.3zm161.5 0v3h5.9v25.1l-2.2 1.8c-1.6 1.3-3.3 2.4-5.2 3.3-4.8 2.2-7 1.8-8.1-1.5-1.1-3.3-1.5-11.1-.7-20.3.4-4.8.7-9.6.7-10.3l.4-1.5h-16.3v3h5.9l-.4 2.2c-1.5 12.2-1.5 15.5-1.1 22.2.7 7 2.2 10.7 5.2 12.2 3.7 1.8 11.1 0 19.9-5.2l2.2-1.5v6.6h11.1V44.8h-17.3zm294.8 0v2.9h5.9V84H644V44.8h-8.8m128.2 8.9c-1.1-4.8-3.7-7.8-6.6-8.5-5.2-1.5-11.5.7-18.1 6.6l-2.2 1.8v-8.9H721v3h4.4v36.2h11.1V58.1l2.2-1.8c4.1-3.3 7.8-4.8 10.3-4.1 3 .7 4.4 3.7 4.8 10 .4 3.7.4 8.5-.7 18.8l-.4 3h11.1l-.4-14c.7-11.2.7-14.1 0-16.3zm-328.1-4.8c3.3-1.1 7.4.4 10.3 2.6l1.8 1.5c.4-.4.8-.9 1.1-1.5l1.1-1.5-.7-.7c-3.3-2.6-10.7-4.4-15.5-3.7-7.8 1.1-14.8 8.1-16.3 15.5-.7 3.7-.4 7.5.7 11.1 1.5 4.8 5.5 9.6 9.6 11.5 5.5 3 14 3 19.9 0 1.1-.7 2.2-1.1 2.2-1.5-.3-.8-.8-1.6-1.5-2.2l-1.8-1.8-1.1.7c-3.3 2.6-7.8 3.3-10.3 1.8-3-1.5-5.5-5.2-6.3-9.6-.7-3.3-.7-10.3 0-12.9.9-4.5 3.9-8.6 6.8-9.3zm382.8 2.5c.2-2.8-1.8-5.3-4.7-5.5-1.1-.1-2.2.2-3.1.7-1.4.9-2.4 2.4-2.6 4.1 0 1.5-.4 1.5-1.8 0-2.1-2.2-4.8-3.7-7.8-4.4-4.1-1.2-8.4-1.4-12.6-.7-7.8 1.8-13.9 7.8-15.9 15.5-.7 3.4-.7 6.9 0 10.3 1.8 5.7 5.8 10.5 11.1 13.3l2.6 1.5-1.1.4c-1.9.7-3.2 2.4-3.3 4.4-.4 3.7 1.5 4.8 8.9 5.2 6.6.4 7.8.4 8.5 1.8.7 1.5.7 2.6-.4 3.7-1.5 1.2-3.3 1.9-5.2 1.8-2.2 0-5.9-1.5-8.5-3.3l-2.2-1.8-1.8 1.5c-.8.4-1.4 1-1.8 1.8.4.7 5.5 3.7 7.4 4.4 3.4 1.2 7.1 1.4 10.7.7 5.2-1.1 9.6-4.4 9.6-7.8.4-2.6 0-3.3-1.1-4.4-2.2-2.6-3.7-3-10.7-3-6.3 0-7.4-.4-7.4-1.8 0-1.8 2.2-2.6 8.9-3.7 3.6-.4 7.1-1.8 10-4.1 2.8-2.2 5.1-4.9 6.6-8.1 1.8-4.1 1.8-10.3.4-15.1-.4-1.5-.7-2.6-.7-2.6.6-.3 1.2-.4 1.8-.4 3.9.4 5.8-1.4 6.2-4.4zM797 80.3c-1.5 1.7-3.7 2.6-5.9 2.6-1.3 0-2.6-.4-3.7-1.1-2.5-1.9-4.4-4.4-5.5-7.4-1.2-4.6-1.4-9.4-.7-14 1.5-5.9 4.4-9.6 8.5-10.7 1.9-.3 3.9.1 5.5 1.1 2.2 1.5 4.4 4.8 5.5 8.1 2.2 6.9.7 16.9-3.7 21.4z"/>
</svg>
