<svg xmlns="http://www.w3.org/2000/svg" width="157.4" height="27" viewBox="0 0 157.4 27"><g fill="#7D7D7D"><title>Sunday Express</title><desc>Sunday Express Logo</desc><path d="M120 14.2v4.6c0 .5.3.7.8.7.3 0 .6 0 .9.1v1.2h-6c-.2-1.1-.1-1.2 1.1-1.4v-.3V8.7c0-1-.2-1.3-1.2-1.6V5.9h5c1.1 0 2.2.2 3.2.4 1.3.3 2.3 1.1 2.6 2.5.3 1.5-.3 2.7-1.5 3.6-.5.4-1.1.6-1.6 1 2.3.8 2.8 2.8 2.9 4.9 0 .5-.1 1.2.8 1.3 0 .4 0 .8-.1 1.1-2.8.5-3.7-.5-4-2.5-.1-.9-.3-1.7-.5-2.5-.3-1.1-1.1-1.6-2.4-1.5zm.1-7v5.5c1.9.1 3-1 3-2.8.1-1.7-1-2.7-3-2.7zM24.8 9.4v9.2c0 .6.3 1 .9 1 .4 0 .7.1 1.2.1 0 .4-.1.8-.1 1.2h-5c-.2-1.1-.2-1.3.9-1.3.4 0 .6-.2.6-.6V8.9v-.4c0-.7-.2-1.3-1.1-1.2V6.1C23 6 24 6 24.9 6c.7 0 1.6-.2 2.1.1.5.3.6 1.2.9 1.9 1.2 2.8 2.3 5.7 3.4 8.5.1.2.1.3.3.4v-3.8-4.4c0-1.2-.2-1.4-1.5-1.5h-.3V6.1h4.5c.2 1.2.2 1.2-1.3 1.4v13.4h-3.1c-.2 0-.4-.3-.5-.5-1.4-3.4-2.9-6.9-4.3-10.3l-.3-.6c.1-.1 0-.1 0-.1zM35.1 20.8v-1.2c.4 0 .8-.1 1.3-.1V19 9.2c0-.4 0-.8-.1-1.2-.1-.2-.3-.6-.5-.6-.9-.1-.9-.7-.7-1.3-.1-.1 0-.1 0-.1 2.5 0 5.1-.3 7.5.5 2.7.9 4.3 3 4.5 5.8.1 1.7.1 3.3-.8 4.8-1.3 2.4-3.4 3.5-6 3.7-1.6.1-3.4 0-5.2 0zm4.6-13.4c0 .1-.1.1-.1.2v11.1c0 .6.4.7.9.7 1.5-.2 2.4-1.1 2.8-2.4.7-2.3.7-4.7-.1-7-.5-1.8-1.7-2.6-3.5-2.6zM95.3 19.4c.7.1 1.3.1 1.8.2v1.2H92.4c-.1-1-.1-1.1.8-1.4.2 0 .3-.2.4-.4 1-1.5 2-3.1 3-4.6.1-.2.1-.5 0-.7-1.1-1.9-2.2-3.9-3.4-5.7-.3-.4-.8-.7-1.2-1l-.1.1V6h6.2v1.2c-.4.1-.8.1-1.3.2.7 1.2 1.3 2.4 2.1 3.8.8-1.3 1.5-2.5 2.3-3.8-.6-.1-1-.2-1.5-.2V6h4.6v1.1c-.1 0-.2.1-.2.1-1-.1-1.4.6-1.8 1.3-.7 1.2-1.5 2.4-2.3 3.5-.2.3-.2.6 0 .9 1.2 2 2.4 4 3.6 5.9.2.3.6.6.9.9l.1-.1v1.2h-5.9c-.1-1.2-.1-1.2 1.3-1.4-.7-1.3-1.5-2.5-2.3-3.8-.8 1.3-1.6 2.5-2.4 3.8z"/><path d="M81.4 7.1V5.9h9.4c.2 0 .5.2.6.3.2 1.1.3 2.1.4 3.2-1.1.2-1.2.1-1.5-.8-.6-1.4-.6-1.4-2.1-1.4h-1.8v5.1c.7 0 1.4.1 2 0 .4-.1.8-.4.9-.7.2-.6.6-.6 1.1-.5v4.1c-.5.2-.8.1-1.1-.4-.3-.6-.8-.8-1.5-.8h-1.5V18.8c0 .3.1.6.5.5.7 0 1.5 0 2.2-.1.7 0 1.2-.4 1.5-1.1.1-.3.2-.7.4-1 .3-.8.5-.9 1.5-.6-.1 1.4-.3 2.7-.4 4.1H82v-1.2c.4-.1.7-.1 1.2-.2v-.6-9.8c-.2-1.2-.4-1.4-1.8-1.7zM109.4 14.7v4c0 .5.2.8.7.8.5 0 1 .1 1.5.1 0 .4-.1.8-.1 1.2h-6.4c-.1-1.2-.1-1.2.9-1.4l.1-.1c0-3.6 0-7.1-.1-10.7 0-1.1-.2-1.2-1.2-1.5V5.9h4.8c1 0 2 .1 3 .4 2.1.6 3.1 2 3 4.3 0 1.8-1.4 3.5-3.3 3.9-.8.2-1.8.2-2.9.2zm.1-1.5c1.1.1 2 0 2.6-1 .7-1.3.7-2.7 0-3.9-.5-.9-1.5-1-2.5-1-.1 1.9-.1 3.9-.1 5.9zM131.8 14v5.1c0 .1.3.3.4.3.8 0 1.7 0 2.5-.1.4-.1.8-.5 1.1-.9.3-.3.3-.8.5-1.2.3-.9.4-.9 1.4-.7-.1.9-.2 1.8-.2 2.7 0 .1 0 .2-.1.3-.1 1.2-.1 1.2-1.4 1.2h-8.6c0-.4 0-.8.1-1.2.3-.1.6-.1 1-.2v-.7-9.4-.6c-.2-1.2-.3-1.3-1.5-1.6v-.6-.6h9.2c.5 0 .7.1.7.6 0 1 .2 2 .3 3-1.1.2-1.2.2-1.5-.8-.2-.4-.2-1.1-.6-1.3-.4-.2-1-.1-1.5-.1h-1.8v5h2.1c.5 0 .8-.4.9-.9.1-.5.4-.5.7-.4.2 0 .3.4.3.5v3.8c-.4-.2-.9-.3-1-.5-.4-.8-1.1-1-1.9-1-.3.4-.6.3-1.1.3zM17.1 7.1V5.9h4.3c.3 1.1.2 1.2-1 1.4V8c0 2.7 0 5.5-.1 8.2 0 1.5-.5 2.8-1.6 3.9-1.9 1.8-6.8 1.4-7.8-2.7-.1-.6-.2-1.3-.2-1.9 0-2.2 0-4.5-.1-6.7 0-1.4-.1-1.5-1.5-1.8V5.9h6.2v1.2c-.5.1-.9.1-1.4.2 0 .1-.1.3-.1.4 0 2.9 0 5.8.1 8.7 0 .5.2 1 .4 1.5.4.8 1 1.2 1.9 1.2 1 0 1.7-.3 2-1.2.3-.8.5-1.7.5-2.5.1-2.2 0-4.5 0-6.7 0-1.3-.2-1.5-1.5-1.6.1.1 0 .1-.1 0zM51.1 19.6v.9c0 .1-.2.3-.4.3H46c-.2-1.1-.2-1.1.8-1.4.2-.1.4-.4.4-.6 1.3-4.1 2.7-8.2 4-12.3.2-.5.4-.7.9-.6 1.8 0 1.7 0 2.3 1.6 1.2 3.7 2.3 7.4 3.5 11.1.2.7.6 1 1.3.9v.6c.1.5-.1.7-.7.7H53c-.3-1.1-.3-1.1 1.6-1.5-.3-1-.5-2-.8-3.1h-4.2c-.2.7-.4 1.5-.6 2.3-.1.6.1.9.7.9.4.2.9.2 1.4.2zm2.1-4.9c-.5-1.7-1-3.4-1.5-5.2-.6 1.8-1.1 3.5-1.7 5.2h3.2zM64.5 7.2V6H69v1.1s0 .1-.1.1c-1 0-1.4.7-1.7 1.5l-2.7 5.7c-.2.3-.2.7-.2 1.1v2.9c0 1 .2 1.2 1.2 1.2.3 0 .7.1 1.1.1v.6c0 .2-.1.3-.1.6h-6.8c.1-.4 0-1 .3-1.2.2-.2.7-.2 1.2-.3V15c0-.2-.1-.4-.2-.6-1-2-2-3.9-3-5.9-.3-.7-.8-1.3-1.7-1.2V6.1H63v1.2c-.6.1-1.2.1-1.8.2.9 1.8 1.7 3.6 2.6 5.5.8-1.7 1.5-3.2 2.2-4.8.2-.5 0-.8-.5-.8-.5-.2-.7-.2-1-.2zM146.7 5.9c.1 1.4.2 2.8.3 4.1-1.1.2-1 .2-1.5-.7-.3-.6-.7-1.2-1.1-1.7-.8-.9-2.2-.8-3 0-.8.8-.7 2.2.2 3 .5.4 1.2.7 1.8 1.1.9.6 2 1.2 2.8 1.9 1.3 1.3 1.5 2.9.9 4.6-.6 1.7-1.8 2.6-3.5 2.9-1.2.2-2.3 0-3.4-.5-.3-.2-.6-.2-.9 0-.3.2-.7.2-1.2.4.1-1.7.3-3.2.4-4.8.7-.2 1 .1 1.3.7.4.8.7 1.6 1.3 2.2.8.9 2.4.9 3.1.1.8-.9.7-2.4-.4-3.2-.7-.5-1.5-.9-2.3-1.4-1.4-.8-2.6-1.7-3-3.4-.4-1.7-.1-3.4 1.3-4.5 1.5-1.2 3.2-1.5 5-.7.4.2.7.3 1.1 0 .3 0 .5 0 .8-.1zM147.9 21c.2-1.7.3-3.2.4-4.8.7-.2 1 .1 1.3.7.3.7.7 1.5 1.2 2.1.8 1 2.4 1.1 3.2.2.8-.9.7-2.4-.4-3.2-.8-.5-1.6-1-2.4-1.4-1.1-.7-2.1-1.5-2.7-2.7-.7-1.8-.3-3.9 1.1-5.1 1.6-1.3 3.8-1.5 5.5-.5 0 0 .1 0 0 0 .5-.1.9-.3 1.3-.4.1 1.5.2 2.8.3 4.2-1.1.2-1 .2-1.5-.8-.3-.6-.7-1.2-1.1-1.7-.7-.8-2.2-.8-3 0-.8.8-.7 2.2.2 3 .6.5 1.4.8 2.1 1.3.9.6 1.9 1.2 2.7 2 1.8 2 1.2 6.4-2.7 7.2-1.3.3-2.5.1-3.6-.5-.2-.1-.5-.1-.7 0-.3.1-.7.2-1.2.4zM8.5 5.9c.1 1.5.2 2.8.3 4.1-1 .2-1.1.2-1.5-.7-.2-.5-.4-1.1-.8-1.6-.6-.8-1.8-1-2.7-.5-.8.4-1.3 1.3-1 2.2.2.5.6 1.1 1.1 1.4.9.6 1.8 1 2.7 1.6 1.2.7 2.2 1.6 2.5 3 .8 3.4-1.7 6.1-5.2 5.8-.1 0-.2 0-.3-.1-.6-.2-1.1-.6-1.7-.6-.5 0-1.1.2-1.8.4.1-1.6.3-3.2.4-4.7.7-.2 1 .1 1.3.7.4.8.8 1.6 1.4 2.3.5.8 1.8.8 2.6.2.7-.4 1.1-1.4.8-2.2-.2-.5-.7-1-1.1-1.3-.6-.5-1.3-.8-2-1.1C2.1 14 .9 13 .4 11.3s.1-3.7 1.4-4.6c1.6-1.1 3.3-1.4 5.1-.5.3.2.5.2.8 0 .2-.2.5-.2.8-.3zM71.8 8.2c.5.5 1 1.1 1.5 1.7.3-.1.6-.3.7-.3-.2-.6-.5-1.2-.5-1.8-.1-.8 0-1.5.1-2.3 0-.2.2-.5.4-.6l2.1-.6c.1 0 .3.1.4.2 1.5 1.3 1.6 1.4 1.1 3.3-.3 1.3-.1 2.3.9 3.2 1.1 1 1.4 2.3 1.8 3.7.1.5.3 1 .4 1.5.3 1.6.3 1.7-1.1 2.5.5.7.9 1.3 1.4 2-.6.2-1 0-1.3-.5-.2-.4-.5-.8-.8-1.1-.1-.1-.4-.2-.5-.2 0 .2-.1.5-.1.6.1.4.3.8.6 1.3h-3.1c-.2 0-.5.1-.7.3-.9.8-1.9 1.4-3.2 1.6-.3 0-.7-.1-.9-.3-1.9-1.8-2.5-4.1-1.9-6.7.3-1.5.7-3 1-4.5.1-.4.2-.5.6-.4.6.1 1.2.1 1.8.1.1-.2.2-.5.3-.7-.7-.8-1.1-2-2.3-2.4-.1 0-.2-.2-.2-.3-.3-.8-.6-1.6-1-2.6.8.8 1.5 1.4 2.1 2 .1.2.1.5.2.7l-1.5-1.8-.1.1c.2.5.4 1 .6 1.6 0 0 .1 0 .1-.1 0-.2 0-.3-.1-.6.4.7.8 1.2 1.2 1.7 0 0 .1 0 .1-.1-.1 0-.1-.1-.1-.2zm6.4 10c1.6-2.2 1.6-4.9.1-6.7-.3.6-.7.4-1 0-.4-.4-.8-.9-1.3-1.3s-1-.6-1.6-.5c.5.5 1 .9 1.3 1.4.3.5.6.9 1.2 1 .6.2.8.5.6 1.2-.3 1.4-.6 2.9-.9 4.3.6.3 1.1.4 1.6.6zm-1.7-1.4c-.9-.2-1.8-.5-2.6-.7-.3 1.1-.5 2.1-.8 3.1-.2 1-.5 2-.7 3 2.3-.7 3.9-2.8 4.1-5.4zm-5.9 4.8c.4-2 .8-4 1.3-6-.9-.1-1.6-.2-2.4-.3-.9 2.2-.3 5.2 1.1 6.3zm4.3-9.8c-.2.9-.4 1.6-.5 2.4.9.3 1.8.5 2.7.7.1-.6.2-1.2.2-1.8 0-.2-.1-.4-.2-.5-.7-.3-1.4-.5-2.2-.8zm-5.1 1.5c.9.1 1.7.2 2.5.3.2-.8.3-1.5.5-2.2-.9-.1-1.7-.1-2.6-.2-.1.7-.2 1.4-.4 2.1zm3 1.7h-.1c0 .1-.1.1-.1.2-.4 1.9-.8 3.9-1.2 5.8-.1.4 0 .7 0 1.1h.2c.1-.3.3-.5.4-.8.5-1.9 1-3.8 1.4-5.8 0-.2 0-.4-.1-.6h-.2c-.3 1-.5 2-.8 3h-.1c.2-.9.4-1.9.6-2.9zm1.7-7.1c-.2.1-.3.2-.4.3.1.1.2.1.3.2-.2.1-.3.2-.5.3.5.1.9.3 1.2.3.3-.1.7-.4.9-.7.4-.6.3-1.9 0-2.2-.4-.3-1.2-.3-1.6 0 .3 0 .6 0 1 .1-.2.3-.4.5-.5.8l-.6-.3c-.2.2-.3.4-.3.6 1 .2 1 .2 1 .4h-.9s0 .1-.1.1c.2.1.3.1.5.1zm3.7 12.6c-.4-.9-.7-1.6-1.7-1.7-.3.6-.6 1.1-.9 1.7h2.6zm-1.1-14c.2-.9.1-1-.8-1.4-.2-.1-.5-.2-.7-.2-.9-.2-1.1-.1-1.2.7 1 .2 1.9.6 2.7.9zm-2.6 8.4c-.1-.1-.1-.3-.1-.3-.9-.2-.8-.9-.7-1.5.1-.2.2-.4.3-.7v-.5c0-.1-.3-.1-.4-.1-.1.1-.2.2-.3.4L73 14c-.5.1-.9.1-1.3.2v.2c1 .2 1.9.3 2.8.5zm4.6 3.8c-.1 0-.2.1-.3.1.4.6.9 1.1 1.3 1.7.1 0 .1-.1.2-.1-.4-.6-.8-1.2-1.2-1.7z"/></g></svg>