<?xml version="1.0" encoding="utf-8"?>
<!-- Generator: Adobe Illustrator 18.1.1, SVG Export Plug-In . SVG Version: 6.00 Build 0)  -->
<svg version="1.1" id="Layer_1" xmlns="http://www.w3.org/2000/svg" xmlns:xlink="http://www.w3.org/1999/xlink" x="0px" y="0px"
	 viewBox="0 0 50 27" enable-background="new 0 0 50 27" xml:space="preserve">
<path d="M41.6,12.5c0.9-1.2,1.4-2.6,1.5-4.1c0.1-2-0.6-3.8-1.9-5.2C39.9,1.7,38.1,1,36.2,1c-4,0-7.4,3.3-7.7,7.3
	c-0.1,1.5,0.3,3,1.1,4.2c-1.6,0.8-3,1.8-4.2,3.1c-1-1.3-2.3-2.3-3.8-3.1c0.9-1.2,1.4-2.6,1.5-4.1c0.1-2-0.6-3.8-1.9-5.2
	C19.9,1.7,18.1,1,16.2,1c-4,0-7.4,3.3-7.7,7.3c-0.1,1.5,0.3,3,1.1,4.2C5.1,14.7,2,19.2,1.8,24.2c0,0.3,0.1,0.5,0.3,0.7
	c0.2,0.2,0.4,0.3,0.7,0.3h22.7h1.9h20c0.5,0,0.9-0.4,0.9-0.9C48.5,19.3,45.9,14.8,41.6,12.5z M36.2,2.9c1.4,0,2.8,0.6,3.7,1.6
	c1,1,1.4,2.4,1.4,3.8c-0.2,3-2.7,5.5-5.8,5.5c-1.4,0-2.8-0.6-3.7-1.6c-1-1-1.4-2.4-1.4-3.8C30.6,5.3,33.1,2.9,36.2,2.9z M16.2,2.9
	c1.4,0,2.8,0.6,3.7,1.6c1,1,1.4,2.4,1.4,3.8c-0.2,3-2.7,5.5-5.8,5.5c-1.4,0-2.8-0.6-3.7-1.6c-1-1-1.4-2.4-1.4-3.8
	C10.6,5.3,13.1,2.9,16.2,2.9z M25.4,23.3H3.8c0.6-4.1,3.3-7.6,7.1-9.4c1.3,1.1,2.9,1.7,4.6,1.7c1.8,0,3.5-0.6,4.8-1.7c0,0,0,0,0,0
	c3.6,1.7,5.9,5.3,6,9.4H25.4z M28.2,23.3c-0.1-2.2-0.7-4.3-1.7-6.1c1.2-1.4,2.7-2.5,4.4-3.3c1.3,1.1,2.9,1.7,4.6,1.7
	c1.8,0,3.5-0.6,4.8-1.7c0,0,0,0,0,0c3.6,1.7,5.9,5.3,6,9.4H28.2z"/>
</svg>
