<?xml version="1.0" encoding="utf-8"?>
<!-- Generator: Adobe Illustrator 18.1.1, SVG Export Plug-In . SVG Version: 6.00 Build 0)  -->
<svg version="1.1" id="Layer_1" xmlns="http://www.w3.org/2000/svg" xmlns:xlink="http://www.w3.org/1999/xlink" x="0px" y="0px"
	 viewBox="0 0 32 32" enable-background="new 0 0 32 32" xml:space="preserve">
<title>Thumbs up</title>
<desc>Hand giving a thumbs up signal</desc>
<path fill="none" stroke="#000000" stroke-miterlimit="10" d="M26.5,17.1h-6.7c-1,0-1.9-0.8-1.9-1.9v-0.5c0-1.3,1.1-2.4,2.4-2.4h6.7
	c1,0,1.8,0.8,1.8,1.8v0.6C28.9,16,27.9,17.1,26.5,17.1z"/>
<path fill="none" stroke="#000000" stroke-miterlimit="10" d="M27.4,26.7h-7.5c-1,0-1.9-0.8-1.9-1.9v-0.5c0-1.3,1.1-2.4,2.4-2.4h7
	c1,0,1.8,0.8,1.8,1.8v1.1C29.2,25.9,28.4,26.7,27.4,26.7z"/>
<path fill="none" stroke="#000000" stroke-miterlimit="10" d="M25.7,31.5h-4.5c-1,0-1.9-0.8-1.9-1.9v-0.5c0-1.3,1.1-2.4,2.4-2.4h3.4
	c1.3,0,2.4,1.1,2.4,2.4v0.6C27.5,30.7,26.7,31.5,25.7,31.5z"/>
<path fill="none" stroke="#000000" stroke-miterlimit="10" d="M28.8,21.9h-10c-1,0-1.9-0.8-1.9-1.9v-0.5c0-1.3,1.1-2.4,2.4-2.4h9.4
	c1,0,1.8,0.8,1.8,1.8v1.1C30.7,21.1,29.9,21.9,28.8,21.9z"/>
<path fill="none" stroke="#000000" stroke-linecap="round" stroke-linejoin="round" stroke-miterlimit="10" d="M12.2,21.6
	c0,0,2.9-0.2,4.7-2.7"/>
<path fill="none" stroke="#000000" stroke-linecap="round" stroke-linejoin="round" stroke-miterlimit="10" d="M23.5,31.5h-8.9
	c0,0-5.6,0.3-7.1-4.5H1.3V13.6l6.6,0c1.1-0.9,4.5-4.2,5.3-4.8c0.6-0.5,1.4-1.1,2.2-1.5c0.7-0.4,1.2-0.7,1.9-1c0.3-0.2,0.7-0.3,1-0.6
	c0.3-0.2,0.5-0.5,0.8-0.8c0.6-0.8,1.2-1.7,1.7-2.5c0.2-0.4,0.4-0.8,0.6-1.2c0.5-0.7,1.4-0.7,2.1-0.4c0.8,0.4,1.2,1.2,1.5,2
	c0,0,0.8,2.4-0.9,5c0,0-2.2,3.3-3.5,4.4"/>
</svg>
