<?xml version="1.0" encoding="utf-8"?>
<!-- Generator: Adobe Illustrator 18.1.1, SVG Export Plug-In . SVG Version: 6.00 Build 0)  -->
<svg version="1.1" id="Layer_1" xmlns="http://www.w3.org/2000/svg" xmlns:xlink="http://www.w3.org/1999/xlink" x="0px" y="0px"
	 viewBox="0 0 57.1 54" enable-background="new 0 0 57.1 54" xml:space="preserve">
<title>Thumbs up</title>
<desc>Hand giving a thumbs up signal</desc>
<path d="M50.6,27.5c0.2-0.5,0.3-1.1,0.3-1.6v-1.9c0-2.4-2-4.4-4.4-4.4h-7.4c1.5-1.8,3-4,3.8-5.2c3-4.8,1.6-9.2,1.6-9.3
	c-0.6-2.1-1.7-3.5-3.2-4.2c-1.7-0.8-4-0.6-5.3,1.1c-0.4,0.5-0.7,1.1-0.9,1.6C35.1,3.7,35,3.8,34.9,4c-0.7,1.3-1.7,2.7-2.6,3.9
	l-0.1,0.2c-0.3,0.4-0.5,0.7-0.8,0.9c-0.3,0.2-0.6,0.4-1,0.6c-0.2,0.1-0.3,0.2-0.5,0.3c-0.4,0.2-0.8,0.5-1.2,0.7
	c-0.6,0.3-1.2,0.6-1.9,1c-1.5,0.9-2.8,1.8-3.7,2.6c-0.6,0.5-2.1,2-3.8,3.5c-1.6,1.5-3.4,3.1-4.4,4h-10c-0.8,0-1.5,0.7-1.5,1.5v21.8
	c0,0.8,0.7,1.5,1.5,1.5h8.8c2.4,5.8,8.5,7.3,12,7.3c0.2,0,0.4,0,0.6,0h10.7h3.7h3.7c2.4,0,4.4-2,4.4-4.4v-1.9c0-0.6-0.1-1.2-0.3-1.7
	c1.7-0.6,3-2.2,3-4.2v-1.9c0-0.6-0.1-1.2-0.4-1.8c1.6-0.7,2.8-2.2,2.8-4.1v-1.9C53.7,29.7,52.4,28,50.6,27.5z M46.9,35.1H34.7h-1.5
	c-0.8,0-1.4-0.6-1.4-1.4v-1.9c0-0.8,0.6-1.4,1.4-1.4h1.5h11.8h2.8c0.8,0,1.4,0.6,1.4,1.4v1.9c0,0.8-0.6,1.4-1.4,1.4H46.9z
	 M48.3,39.5v1.9c0,0.8-0.6,1.4-1.4,1.4h-2.7h-7.3h-2.3c-0.8,0-1.4-0.6-1.4-1.4v-1.9c0-0.8,0.6-1.4,1.4-1.4h12.2
	C47.7,38.1,48.3,38.7,48.3,39.5z M47.9,23.9v1.9c0,0.8-0.6,1.4-1.4,1.4H34.7c-0.8,0-1.4-0.6-1.4-1.4v-1.9c0-0.8,0.6-1.4,1.4-1.4h0.7
	c0,0,0,0,0,0h11C47.3,22.5,47.9,23.1,47.9,23.9z M26.2,50.6c-0.1,0-7.9,0.4-10-6.2c-0.2-0.6-0.8-1.1-1.4-1.1H6.4V24.6h9.1
	c0.4,0,0.7-0.1,1-0.4c0.9-0.8,2.9-2.7,4.9-4.5c1.6-1.5,3.1-2.9,3.7-3.4c0.8-0.7,1.9-1.5,3.3-2.3c0.6-0.4,1.2-0.7,1.7-1
	c0.4-0.2,0.9-0.5,1.3-0.7l0.4-0.2c0.4-0.2,0.9-0.5,1.3-0.8c0.7-0.5,1.1-1,1.5-1.6l0.1-0.1c1-1.3,2.1-2.8,2.8-4.3
	c0.1-0.2,0.2-0.4,0.3-0.6c0.2-0.4,0.4-0.8,0.6-1.2c0.3-0.4,1-0.4,1.6-0.1c0.8,0.4,1.3,1.4,1.5,2.3c0,0,1,3.3-1.2,6.9
	c-1.8,2.8-4.3,6.1-5.3,6.8h-0.4c-2.4,0-4.4,2-4.4,4.4v1.9c0,0.8,0.2,1.5,0.6,2.1c-0.9,0.6-1.6,1.5-1.9,2.6c-2.4,3.7-6.5,4-6.7,4
	c-0.8,0-1.5,0.8-1.4,1.6c0,0.8,0.7,1.4,1.5,1.4c0,0,0.1,0,0.1,0c0.2,0,3.5-0.2,6.5-2.6c0.3,1,1,1.9,1.9,2.5
	c-0.3,0.6-0.6,1.3-0.6,2.1v1.9c0,1.8,1.1,3.4,2.7,4.1c-0.2,0.6-0.4,1.2-0.4,1.8v1.9c0,0.5,0.1,1,0.3,1.4L26.2,50.6z M45.7,49.2
	c0,0.8-0.6,1.4-1.4,1.4h-7.3c-0.8,0-1.4-0.6-1.4-1.4v-1.9c0-0.8,0.6-1.4,1.4-1.4h7.3c0.8,0,1.4,0.6,1.4,1.4V49.2z"/>
</svg>
