<svg viewBox="0 0 130 130" xmlns="http://www.w3.org/2000/svg"><title>100 Night Trial, Free Returns seal</title><desc>Casper's guarantee and return program</desc><path d="M47 115.7l-2.64 7.52 1.91-.06v2l-4.26.08-.86-.3 3.52-10zM38.86 111.83c2.56 1.43 2.71 4.32 1.28 6.89s-4 4-6.54 2.54-2.71-4.34-1.28-6.9 4.02-3.94 6.54-2.53zm-4.25 7.61c1 .54 2.13-.07 3.21-2s1-3.25 0-3.79-2.13.07-3.21 2-.97 3.24 0 3.79zM30.39 106c2.24 1.9 1.84 4.76-.06 7s-4.68 3.12-6.91 1.24-1.83-4.77.07-7 4.7-3.13 6.9-1.24zm-5.62 6.65c.85.72 2.1.34 3.54-1.36s1.6-3 .75-3.72-2.1-.34-3.54 1.36-1.6 2.97-.75 3.69zM17.78 90.72l-1.29 8.37 4.57-3 1.33 2-8.87 5.79-.23-.24 1.3-8.27-4.53 3-1.33-2 8.88-5.8zM14.8 83.95c1 2.63.15 4.63-2.57 5.67l-5.8 2.21-.86-2.27 5.64-2.15c1.39-.53 2-1.44 1.51-2.73s-1.55-1.55-2.94-1l-5.64 2.13-.86-2.27 5.8-2.21c2.72-1.03 4.72-.01 5.72 2.62zM12.39 76.57L2.13 78.64l-.48-2.38 10.25-2.07zM2.88 66.62l8.22-.41.12 2.42L3 69l.15 3.13-2.22.11-.43-8.65 2.22-.11zM11.7 57.85a7 7 0 0 1-1.53 3.35l-2.09-1a5.21 5.21 0 0 0 1.39-2.76c.11-.85-.24-1.23-.75-1.29s-.94.15-1.79 1.65c-1 1.72-2.12 2.22-3.37 2.05-1.51-.2-2.82-1.63-2.5-4a5.73 5.73 0 0 1 1.19-2.79l2.09.94a4.7 4.7 0 0 0-1.15 2.18c-.12.88.25 1.28.67 1.34.68.09 1-.4 1.7-1.63C6.63 54 7.64 53.56 9 53.74c1.63.26 3 1.63 2.7 4.11zM15 44.83a30.9 30.9 0 0 1-1.4 2.87l-9.45-4a27 27 0 0 1 1-2.91c1.69-4 4.56-5 7.27-3.82s4.24 3.87 2.58 7.86zm-7.71-3.51a7.3 7.3 0 0 0-.34.94l5.67 2.41a9.53 9.53 0 0 0 .5-1 2.93 2.93 0 0 0-1.69-4.29c-1.75-.79-3.26-.13-4.14 1.94zM12 34.33h-.34A2.82 2.82 0 0 0 11 33a1 1 0 0 1-1.38.38A1 1 0 0 1 9.31 32a1.08 1.08 0 0 1 1.57-.34A2.72 2.72 0 0 1 12 34.33zM20.18 34.52l-8.32-6.32 4-5.27 1.77 1.35-2.54 3.34 1.49 1.13 2.31-3L20.57 27l-2.31 3 1.63 1.23 2.54-3.34 1.76 1.34zM28.49 25.19a7 7 0 0 1-3.31 1.6l-1-2.07A5.22 5.22 0 0 0 27 23.49c.63-.58.6-1.1.25-1.47s-.82-.49-2.43.12c-1.86.7-3.05.35-3.9-.57-1-1.12-1.13-3.05.66-4.71a5.75 5.75 0 0 1 2.7-1.39l1 2a4.7 4.7 0 0 0-2.28.94c-.65.6-.63 1.14-.34 1.46.47.5 1 .31 2.35-.17 2-.72 3.06-.42 4 .56 1.14 1.25 1.32 3.23-.52 4.93zM35.76 19.52a7.05 7.05 0 0 1-3.54 1l-.63-2.21a5.21 5.21 0 0 0 3-.73c.72-.46.78-1 .5-1.41s-.72-.62-2.41-.29c-1.95.37-3.07-.18-3.75-1.23-.83-1.28-.59-3.2 1.46-4.53a5.73 5.73 0 0 1 2.9-.9l.71 2.16a4.71 4.71 0 0 0-2.41.53c-.74.48-.82 1-.59 1.38.37.58.94.48 2.34.24 2.09-.36 3.09.11 3.82 1.24.84 1.4.71 3.39-1.4 4.75zM47 13.69l-1.45-1.45-3.33 1.37v2.05l-2.28.94.54-11.6.3-.13 8.55 7.87zm-4.77-4.8v2.72l1.91-.79zM51.58 12.33L49.16 2.16l2.36-.56 2.42 10.16zM81.45 13l-.81-3.76-.4-.1c-.34-.1-.53-.16-.86-.27l-.91 3.3-2.34-.65 2.77-10a26.52 26.52 0 0 1 3 .66c3.13.87 4 2.71 3.45 4.55a3.51 3.51 0 0 1-2.54 2.43l1.29 4.55zm.16-8.63a5 5 0 0 0-.93-.18L79.91 7a7.2 7.2 0 0 0 .73.25c1.11.31 2 0 2.26-1 .23-.88-.29-1.56-1.29-1.84zM86.23 14.72l4.6-9.38 5.94 2.91-1 2L92 8.4l-.82 1.68 3.43 1.68-.93 1.89L90.27 12l-.9 1.83 3.76 1.84-1 2zM103.37 15.34L98.47 22l-1.95-1.44 4.9-6.62L98.9 12l1.32-1.79 7 5.18-1.32 1.79zM105.13 28.37a5.11 5.11 0 0 1 .42-7.55 5.2 5.2 0 0 1 7.63.37 5.12 5.12 0 0 1-.43 7.56 5.2 5.2 0 0 1-7.62-.38zm6.41-5.77c-1.11-1.22-2.86-1.14-4.25.13s-1.65 3-.54 4.22 2.87 1.13 4.25-.13 1.65-3 .54-4.22zM111.82 37.47c-1.42-2.43-.9-4.55 1.61-6l5.36-3.13 1.22 2.1-5.21 3c-1.28.75-1.74 1.74-1 2.94s1.78 1.27 3.07.52l5.21-3 1.22 2.1-5.36 3.13c-2.56 1.45-4.71.77-6.12-1.66zM117 48.86l2.64-2.8c-.06-.13-.1-.25-.15-.39-.12-.34-.17-.53-.27-.86L116 45.93l-.79-2.29 9.79-3.39a26.65 26.65 0 0 1 1.17 2.86c1.06 3.07 0 4.8-1.79 5.42a3.51 3.51 0 0 1-3.45-.71l-3 3.64zm7.2-4.77a4.94 4.94 0 0 0-.38-.87l-2.72.94a7 7 0 0 0 .21.74c.38 1.09 1.15 1.61 2.14 1.27.86-.28 1.12-1.1.78-2.08zM118.6 56.62a7 7 0 0 1 .54-3.64l2.27.34a5.23 5.23 0 0 0-.57 3c.13.85.57 1.11 1.08 1s.86-.4 1.26-2.08c.46-1.93 1.43-2.72 2.67-2.91 1.51-.23 3.16.78 3.52 3.2a5.72 5.72 0 0 1-.37 3l-2.24-.29a4.72 4.72 0 0 0 .51-2.41c-.13-.88-.59-1.17-1-1.1-.68.1-.83.66-1.18 2-.53 2.06-1.38 2.77-2.7 3-1.67.34-3.39-.63-3.79-3.11zM124.28 76.56l-5-.6a7.53 7.53 0 0 1-.57-4.06 5.29 5.29 0 0 1 6-4.81 5.34 5.34 0 0 1 4.7 6.22 7.31 7.31 0 0 1-1.31 3.38l-1.82-1.24a5.05 5.05 0 0 0 .86-2.25 2.93 2.93 0 0 0-2.73-3.55 3 3 0 0 0-3.58 2.64 3 3 0 0 0 .1 1.56l1.53.18.25-2.08 2.05.25zM115.85 84.05l3.8-.58a3.73 3.73 0 0 1 .12-.4c.12-.34.19-.52.32-.84l-3.24-1.11.78-2.29 9.79 3.36a26.66 26.66 0 0 1-.84 3c-1.05 3.08-2.94 3.79-4.75 3.17a3.51 3.51 0 0 1-2.28-2.68l-4.61 1zm8.6.67a5.3 5.3 0 0 0 .24-.91l-2.69-.94a7.27 7.27 0 0 0-.29.71c-.38 1.09-.09 2 .91 2.32.79.29 1.5-.19 1.84-1.18zM110.43 94.69l2 .3 1.85-3.1-1.23-1.65 1.26-2.12 6.54 9.62-.17.28-11.58-1.16zm6.7 1l-1.63-2.18-1.06 1.78zM111.53 106.57l-6.2-5.4 1.59-1.83 6.2 5.4 2.06-2.37 1.68 1.46-5.7 6.56-1.68-1.46zM98.48 107.27c2.22-1.73 4.38-1.5 6.17.8l3.82 4.89-1.91 1.49-3.71-4.76c-.91-1.17-2-1.49-3.05-.64s-1 1.94-.11 3.11l3.71 4.76-1.91 1.49-3.82-4.89c-1.8-2.31-1.41-4.52.81-6.25zM92.46 111.56l5 9.15-2.12 1.17-5-9.15zM86.09 123.53l-2.9-7.7 2.27-.85 2.9 7.7 2.94-1.11.78 2.08-8.14 3.07-.78-2.08zM76.13 117.61a7 7 0 0 1 3.67.34l-.22 2.29a5.23 5.23 0 0 0-3.07-.41c-.84.17-1.08.63-1 1.13s.45.84 2.14 1.15c2 .36 2.79 1.28 3 2.51.3 1.49-.61 3.2-3 3.68a5.72 5.72 0 0 1-3-.21l.17-2.25a4.72 4.72 0 0 0 2.43.38c.87-.18 1.13-.65 1-1.07-.14-.67-.7-.79-2.1-1.07-2.08-.42-2.84-1.23-3.11-2.54-.24-1.64.63-3.43 3.09-3.93zM63.8 91.79A27.82 27.82 0 0 1 36 64c0-10.13 4.75-18.16 13.74-23.22a39.58 39.58 0 0 1 13.59-4.57 1.14 1.14 0 0 1 1 1.89 25.52 25.52 0 0 0 19.06 42.46 1.14 1.14 0 0 1 .94 1.78c-.27.39-6.65 9.45-20.53 9.45zM60.68 39a38 38 0 0 0-9.88 3.8C42.5 47.5 38.29 54.63 38.29 64A25.55 25.55 0 0 0 63.8 89.51a24.34 24.34 0 0 0 14.1-4.21 21.89 21.89 0 0 0 3.1-2.57A27.8 27.8 0 0 1 60.68 39z"/><path d="M83.08 64.67a1.14 1.14 0 0 1-1.14-1.14 9 9 0 0 0-9-9 1.14 1.14 0 0 1 0-2.28 9 9 0 0 0 9-9 1.14 1.14 0 0 1 2.28 0 9 9 0 0 0 9 9 1.14 1.14 0 0 1 0 2.28 9 9 0 0 0-9 9 1.14 1.14 0 0 1-1.14 1.14zm-5.21-11.28a11.35 11.35 0 0 1 5.21 5.21 11.35 11.35 0 0 1 5.21-5.21 11.35 11.35 0 0 1-5.21-5.21 11.36 11.36 0 0 1-5.21 5.21zM67.06 2.57A2.46 2.46 0 0 1 69.3 5.3a2.57 2.57 0 0 1-2.63 2.34 2.52 2.52 0 0 1-2.24-2.73 2.57 2.57 0 0 1 2.63-2.34zM58.74 121a2.46 2.46 0 0 1 2.26 2.75 2.57 2.57 0 0 1-2.63 2.34 2.52 2.52 0 0 1-2.24-2.73 2.57 2.57 0 0 1 2.61-2.36z"/></svg>
