<?xml version="1.0" encoding="utf-8"?>
<!-- Generator: Adobe Illustrator 18.1.1, SVG Export Plug-In . SVG Version: 6.00 Build 0)  -->
<svg version="1.1" id="Layer_1" xmlns="http://www.w3.org/2000/svg" xmlns:xlink="http://www.w3.org/1999/xlink" x="0px" y="0px"
	 viewBox="0 0 617.9 612" enable-background="new 0 0 617.9 612" xml:space="preserve">
<title>100 Night Trial, Free Returns seal</title>
<desc>Casper's guarantee and return program</desc>
<g>
	<path d="M270.7,254.6c0-32.7,11.9-64.2,33.6-88.6l-5.1-10c-1.4,0.1-36,4.2-71.1,23.9c-47,26.4-71.8,68.4-71.8,121.4
		c0,80.2,65.3,145.4,145.4,145.4c72.6,0,106-47.4,107.4-49.5l-4.9-9.4C330.5,388,270.7,328.2,270.7,254.6z M301.6,434.8
		c-73.6,0-133.4-59.8-133.4-133.4c0-48.9,22-86.3,65.4-110.8c19.2-10.8,38.5-16.8,51.5-19.7c-17.2,24.4-26.5,53.5-26.5,83.7
		c0,75.9,58.5,138.4,132.7,144.9C378.3,412.4,349.1,434.8,301.6,434.8z"/>
	<path d="M455.4,239.9c-26,0-47-21.1-47-47h-12c0,26-21.1,47-47,47v12c26,0,47,21.1,47,47h12c0-26,21.1-47,47-47V239.9z M402.4,273
		c-5.8-11.7-15.3-21.4-27-27c11.7-5.8,21.4-15.3,27-27c5.8,11.7,15.3,21.4,27,27C417.7,251.7,408.2,261.3,402.4,273z"/>
	<polygon points="364.2,10.8 357,47.4 368.1,49.6 377.8,0.9 373.6,0 353.9,3.2 355.4,12.4 	"/>
	<path d="M402.5,61.3c12.6,4.9,23.8-3.1,28.7-16c5-12.8,2.4-26.3-10.4-31.2c-12.8-4.9-23.8,3.2-28.7,16
		C387.1,42.9,389.7,56.3,402.5,61.3z M403.6,34.6c3.7-9.7,8.8-13.2,13.6-11.4s6.1,7.9,2.3,17.6c-3.7,9.7-8.8,13.2-13.6,11.4
		S399.9,44.3,403.6,34.6z"/>
	<path d="M449.8,85.5c11.3,7.3,23.9,1.9,31.3-9.7c7.6-11.5,7.7-25.2-3.7-32.6c-11.5-7.4-23.9-1.8-31.4,9.7
		C438.4,64.4,438.3,78.1,449.8,85.5z M456.4,59.8c5.7-8.8,11.3-11.2,15.7-8.3c4.4,2.8,4.4,9-1.3,17.7c-5.7,8.8-11.3,11.2-15.7,8.3
		C450.7,74.6,450.8,68.4,456.4,59.8z"/>
	<polygon points="519.4,110 518.4,149.7 519.3,150.5 557,118.2 549.7,109.5 530.4,126 531.4,86.7 530.3,85.7 492.5,118 499.9,126.7
			"/>
	<rect x="527.6" y="150" transform="matrix(0.8556 -0.5176 0.5176 0.8556 -0.8728 308.2118)" width="48.9" height="11.4"/>
	<path d="M564.3,176.2c-13.9,5.6-19.2,19.9-13.9,33.3c2.7,6.9,6.6,11.5,11.5,15.4l21.7-8.8l-7.7-19.1l-9,3.6l3.6,9.1l-6.7,2.7
		c-1.5-1.3-2.6-2.8-3.9-6.2c-3-7.4,0.1-15.4,8.8-18.9c8-3.2,15.5-0.7,19.2,8.4c1.4,3.5,2,7.3,1.5,11.2l10.3,1
		c0.5-5.5,0.2-10.8-2.2-16.9C592,177.5,578.2,170.6,564.3,176.2z"/>
	<polygon points="563.4,250.6 582.8,247.4 585.8,266 566.4,269.2 568.3,280.4 616.6,272.4 614.7,261.2 595.8,264.3 592.7,245.7
		611.7,242.7 609.8,231.4 561.5,239.4 	"/>
	<polygon points="607.4,293.2 606.9,308 568.4,306.6 568,317.9 606.5,319.3 606,334 616.4,334.4 617.9,293.7 	"/>
	<polygon points="595.4,385.1 558.6,373.7 555.2,384.6 592,396 587.7,410 597.7,413 609.7,374.2 599.7,371.1 	"/>
	<path d="M540.7,419.3l14.1,7.6c-0.8,1.4-1.3,2.2-2.1,3.6c-0.3,0.5-0.5,1.1-0.9,1.8l-18.1-0.1l-6,11.4l22.1-1.3
		c0.3,6.1,3.4,11.4,8.5,14.1c7.9,4.2,17.2,2.3,24.3-11.2c2.7-5,4.5-9.2,6-13.1L546,409.2L540.7,419.3z M561.2,434.3
		c0.7-1.2,1.1-1.9,1.9-3.1l11.9,6.4c-0.5,1.5-1,2.5-1.8,4.1c-2.3,4.3-5.9,6-9.5,4.1C559.3,443.4,558.7,439.1,561.2,434.3z"/>
	<rect x="512.6" y="465.9" transform="matrix(0.8033 0.5956 -0.5956 0.8033 386.5378 -227.1149)" width="48.9" height="11.4"/>
	<path d="M500.3,478.1l3.6,8.9l-12,11.9l-8.9-3.7l-8.4,8.3l51.1,18.8l1.1-1.1L508.4,470L500.3,478.1z M500.6,502.5l6.9-6.8l4.8,11.8
		L500.6,502.5z"/>
	<polygon points="441.4,526.4 447.3,534.9 463.5,523.7 485.4,555.6 494.7,549.1 466.9,508.9 	"/>
	<path d="M388.7,561.8c-6.6,2-10.3,9.1-8.2,15.8c2.1,6.8,9.1,10.5,15.7,8.5c6.7-2.1,10.3-9.1,8.2-15.9
		C402.3,563.6,395.4,559.9,388.7,561.8z"/>
	<polygon points="313.4,599.4 312.7,562.1 301.5,562.2 302.2,612 306.5,611.9 325.1,604.7 321.7,596 	"/>
	<path d="M265.4,557.7c-13.4-2.2-22.6,7.9-24.9,21.5c-2.3,13.6,3,26.2,16.4,28.5c13.5,2.3,22.6-7.9,24.9-21.5
		C284.2,572.6,279,560,265.4,557.7z M269.7,584c-1.8,10.3-5.9,14.8-11.1,13.9s-7.6-6.5-5.8-16.8c1.8-10.3,5.9-14.8,11.1-13.9
		C268.9,568.1,271.5,573.7,269.7,584z"/>
	<polygon points="191.8,534.4 183.4,551.8 155.2,571 166.7,576.6 183.7,563.9 184.7,585.3 196.4,590.9 193.7,556.8 202,539.3 	"/>
	<polygon points="142.6,502.5 136.4,510.8 152.3,522.4 146.6,530.2 132.2,519.6 126.4,527.5 140.7,538.1 135.6,545.2 119.8,533.6
		113.6,541.9 138.5,560.3 167.5,520.8 	"/>
	<path d="M127.7,488.8l-9,3.4l-11.6-12.4l3.9-8.8l-8.1-8.7L82.7,513l1.1,1.1l51.8-17L127.7,488.8z M98,500l5.3-11.5l6.6,7.1L98,500z
		"/>
	<path d="M91.9,445.1l-13.6,8.5c-0.8-1.4-1.2-2.2-2.1-3.6c-0.3-0.5-0.7-1.1-1.1-1.6l9.1-15.5l-6.9-11l-9.9,19.8
		C62,438.9,56,439,51,442.2c-7.6,4.7-10.5,13.7-2.4,26.6c3.1,4.8,5.8,8.5,8.3,11.8L98,454.8L91.9,445.1z M59,465.8
		c-1.1-1.2-1.8-2.1-2.6-3.5c-2.6-4.2-2.3-8.1,1.2-10.3c4.2-2.6,8.2-1.1,11.2,3.5c0.7,1.1,1.1,1.9,1.8,3.2L59,465.8z"/>
	<polygon points="62,381.3 29.9,374.2 54.5,352.4 54.1,351 1.5,346.2 4.6,358.6 31.3,359.8 9.4,378.7 9.6,379.9 38.1,385.8
		15.2,399.8 18.4,412.4 62.2,382.7 	"/>
	<path d="M49.7,321.4l-9-3.5l-0.4-16.8l8.8-3.9l-0.3-11.8L0,309.7v1.5L49.9,333L49.7,321.4z M20,310l11.6-5.1l0.2,9.6L20,310z"/>
	<path d="M51.9,265l-15.8-2.7c0.3-1.5,0.5-2.5,0.9-4.2c0.1-0.7,0.2-1.2,0.2-2l17.1-5.6l2.1-12.7L35.8,246
		c-2.2-5.7-6.9-9.6-12.6-10.6c-8.9-1.4-17,3.3-19.5,18.3c-1,5.7-1.3,10.2-1.6,14.3l47.9,8L51.9,265z M27.7,257.2
		c-0.2,1.3-0.4,2.1-0.8,3.5l-13.4-2.2c0-1.6,0.1-2.7,0.4-4.4c0.8-4.8,3.7-7.6,7.8-6.9C26.6,248,28.7,251.9,27.7,257.2z"/>
	<path d="M63.6,217.1l-15-5.6c0.7-1.5,1-2.3,1.6-3.9c0.2-0.7,0.4-1.2,0.7-1.9l17.8-2.2l4.5-12l-21.8,4.1c-1.1-6-4.9-10.8-10.3-12.8
		c-8.4-3.2-17.3,0-22.7,14.2c-2,5.4-3.3,9.7-4.3,13.8l45.4,17L63.6,217.1z M41.3,205c-0.4,1.2-0.8,2-1.4,3.3l-12.6-4.7
		c0.3-1.6,0.7-2.6,1.2-4.3c1.8-4.6,5-6.7,8.9-5.3C41.9,195.7,43.3,199.9,41.3,205z"/>
	<path d="M81,177.4l-5.7-7.8l8.9-14.5l9.5,1.5l6.1-10.1l-54.1-6.1l-0.8,1.3l30,45.4L81,177.4z M69.9,162.1l-7.4-10.3l12.5,2.1
		L69.9,162.1z"/>
	<polygon points="113.4,131.4 94.9,113.8 134.5,110.6 135,109.6 99,75.4 91.1,83.8 109.6,101.2 70.5,104.2 69.6,105.6 105.7,139.6
		"/>
	<polygon points="133.2,61.6 155.3,93.2 164.6,86.6 142.5,55.1 154.5,46.6 148.5,38.1 115.1,61.5 121.1,70.1 	"/>
	<polygon points="198.2,67.6 208.6,63 200.7,45.3 204.4,11.3 192.7,16.4 191.3,37.7 174.4,24.6 162.6,29.9 190.3,49.8 	"/>
	<path d="M282.5,32.5c6.9-0.7,11.9-6.9,11.2-13.8c-0.7-7-6.8-12.2-13.7-11.5c-6.9,0.7-11.9,6.9-11.2,13.9
		C269.6,28,275.6,33.2,282.5,32.5z"/>
</g>
</svg>
