<svg id="Layer_1" data-name="Layer 1" xmlns="http://www.w3.org/2000/svg" viewBox="0 0 143 143">
  <title>100 Night Trial, Free Returns seal</title>
  <desc>Casper's guarantee and return program</desc>
  <path d="M52.89,122.69l-4,10.13H51.5v2.71l-5.82-.13-1.16-.46,5.32-13.48Z"/><path d="M41,116.08c3.27,2.33,3,6.28.72,9.55s-6,4.79-9.27,2.47-3-6.3-.7-9.57S37.84,113.8,41,116.08Zm-6.91,9.71c1.24,0.88,2.9.22,4.67-2.25s1.84-4.27.6-5.15-2.9-.22-4.67,2.25S32.84,124.91,34.11,125.79Z"/><path d="M30.27,105.89c2.5,3.15,1.18,6.88-2,9.38s-7.11,2.93-9.6-.2-1.16-6.9,2-9.4S27.84,102.8,30.27,105.89Zm-9.34,7.41c1,1.19,2.73,1,5.11-.87s3-3.59,2-4.78-2.73-1-5.11.87-2.94,3.58-2,4.78h0Z"/><path d="M18.93,80L13.5,90.22l7.25-1.8,0.8,3.22L7.5,95.16l-0.18-.42,5.4-10.1L5.53,86.43l-0.8-3.22,14.11-3.52Z"/><path d="M2.94,70.16a1.47,1.47,0,1,1-1.36-1.58,1.47,1.47,0,0,1,1.36,1.58h0Zm0.25-3.73a1.47,1.47,0,1,1-1.37-1.56h0a1.47,1.47,0,0,1,1.36,1.57h0Zm15.65-.6-2.66.9-0.34,4.93,2.51,1.24-0.22,3.36L4.21,68.59V68.14L19,62.39Zm-8.77,3,3.33,1.65,0.19-2.82Z"/><path d="M22.52,53.09c-1.58,4.39-5.6,6.29-9.59,4.86S7,52.47,8.62,48.09a8.77,8.77,0,0,1,2.69-3.78l2.3,1.91a7.15,7.15,0,0,0-2.06,2.89,4.29,4.29,0,1,0,8,3.05L19.62,52a7.07,7.07,0,0,0,.22-3.71h3A8.71,8.71,0,0,1,22.52,53.09Z"/><path d="M31.24,38.16L26.7,34.67,23.35,39l4.54,3.5-2.05,2.63L14.51,36.44l2-2.63,4.43,3.41,3.35-4.36-4.43-3.41,2-2.63,11.33,8.71Z"/><path d="M35.73,19.29l6.52,9.17-2.7,1.92L33,21.16l-3.5,2.48-1.76-2.48,9.7-6.89,1.76,2.48Z"/><path d="M49.31,24.33L44.38,10.91l8.49-3.12,1,2.86-5.38,2L49.37,15l4.91-1.8,1,2.71-4.91,1.8,1,2.62,5.38-2,1,2.84Z"/><path d="M74.24,15.36a12.24,12.24,0,0,1-1.23-.1l-0.2,4.27-3.31-.15L70.16,5.24a37.76,37.76,0,0,1,4,0c4.13,0.19,6.25,2.5,6.12,5.38S78,15.53,74.24,15.36Zm0.33-7a9.58,9.58,0,0,0-1.23,0l-0.19,4.07a10,10,0,0,1,1,.09c1.75,0.08,2.67-.64,2.73-2,0-1.16-.68-2.09-2.31-2.17h0Z"/><path d="M91,23l-0.85-5.19a5.24,5.24,0,0,1-.54-0.16c-0.46-.15-0.72-0.26-1.16-0.42l-1.47,4.44-3.15-1L88.23,7.27a36.14,36.14,0,0,1,4.07,1.1c4.22,1.39,5.22,4,4.4,6.44A4.8,4.8,0,0,1,93.07,18l1.45,6.29Zm0.79-11.78a6.83,6.83,0,0,0-1.25-.31l-1.24,3.74a10.18,10.18,0,0,0,1,.39c1.5,0.49,2.7.09,3.15-1.28,0.36-1.13-.31-2.09-1.66-2.53h0Z"/><path d="M102.94,29.86A7,7,0,0,1,101,20.15q0.18-.26.38-0.51a7.11,7.11,0,0,1,9.86-2L111.71,18a7,7,0,0,1,1.92,9.71q-0.18.27-.39,0.53a7.11,7.11,0,0,1-9.86,1.95Zm7-9.51c-1.83-1.33-4.15-.72-5.66,1.36s-1.37,4.48.46,5.8,4.16,0.7,5.66-1.36,1.34-4.48-.49-5.8h0Z"/><path d="M114.38,41a37,37,0,0,1-2.27-3.63l11.29-8.2a32.63,32.63,0,0,1,2.6,3c2.44,3.36,2.18,6.15.57,7.32a3.31,3.31,0,0,1-4-.12c0.67,1.92.29,3.33-1,4.29C119.73,45,116.9,44.45,114.38,41Zm5.18-3.52a11.25,11.25,0,0,0-.78-1l-2.68,2a13.33,13.33,0,0,0,.77,1.15c1,1.36,2,1.63,2.84,1s0.87-1.68-.16-3.1h0Zm4.53-3a8.36,8.36,0,0,0-1-1.14l-2.41,1.75a9.88,9.88,0,0,0,.67,1c0.94,1.29,1.88,1.6,2.72,1s0.84-1.45,0-2.58v0Z"/><path d="M120.24,50.16l13.4-5,3.15,8.48-2.85,1.06-2-5.37-2.39.89,1.82,4.9-2.71,1-1.82-4.86-2.61,1,2,5.38-2.83,1Z"/><path d="M124.44,63.56l14.22-1.45,0.34,3.3-11.21,1.15,0.58,5.7-3,.31Z"/><path d="M125,76.62l14.22,1.46-0.34,3.3-14.22-1.46Z"/><path d="M123.84,85.22l13.59,4.45-2.82,8.6-2.89-1,1.79-5.45-2.43-.8-1.63,5-2.74-.9,1.63-5-2.65-.87-1.79,5.45L121,93.81Z"/><path d="M118.78,112.84L113.15,109A10.3,10.3,0,0,1,115,103.7a7.23,7.23,0,0,1,10-2.23l0.34,0.23c3.62,2.48,4.21,6.94,1.76,10.51a10,10,0,0,1-3.72,3.27L122,112.83a6.93,6.93,0,0,0,2.46-2.19,4,4,0,0,0-1.07-6,4.12,4.12,0,0,0-5.79.66l-0.21.29a4.16,4.16,0,0,0-.87,2l1.74,1.19,1.62-2.37,2.33,1.6Z"/><path d="M108.66,111.62l9,11.15-7.06,5.66-1.9-2.37,4.47-3.59-1.6-2-4.08,3.27-1.81-2.25,4.08-3.27L108,116l-4.47,3.59-1.89-2.36Z"/><path d="M86.31,124.16l10.89,4-2.8-6.92L97.47,120l5.44,13.43-0.38.24-10.76-3.93,2.78,6.87-3.07,1.24L86,124.4Z"/><path d="M70.64,130.52a3,3,0,1,1-3.25,2.74,3,3,0,0,1,3.25-2.74h0Z"/><path d="M70.6,101.67A27.39,27.39,0,0,1,43.24,74.31c0-10,4.68-17.88,13.52-22.86a39,39,0,0,1,13.38-4.5,1.12,1.12,0,0,1,1,1.86,25.12,25.12,0,0,0,18.7,41.81,1.12,1.12,0,0,1,.92,1.76C90.54,92.75,84.26,101.67,70.6,101.67Zm-3.08-52a37.41,37.41,0,0,0-9.72,3.72C49.62,58,45.48,65,45.48,74.26A25.15,25.15,0,0,0,70.6,99.38a24,24,0,0,0,13.88-4.15,21.55,21.55,0,0,0,3-2.53,27.37,27.37,0,0,1-20-43v0Z"/><path d="M89.57,75a1.12,1.12,0,0,1-1.12-1.12A8.87,8.87,0,0,0,79.59,65a1.12,1.12,0,1,1,0-2.24h0a8.87,8.87,0,0,0,8.86-8.86,1.12,1.12,0,0,1,2.24,0,8.87,8.87,0,0,0,8.86,8.86,1.12,1.12,0,1,1,0,2.24h0a8.87,8.87,0,0,0-8.86,8.86A1.12,1.12,0,0,1,89.57,75ZM84.45,63.86A11.18,11.18,0,0,1,89.57,69a11.18,11.18,0,0,1,5.12-5.12,11.18,11.18,0,0,1-5.12-5.12A11.18,11.18,0,0,1,84.45,63.86Z"/>
</svg>
