<?xml version="1.0" encoding="utf-8"?>
<!-- Generator: Adobe Illustrator 19.1.0, SVG Export Plug-In . SVG Version: 6.00 Build 0)  -->
<svg version="1.1" id="Layer_1" xmlns="http://www.w3.org/2000/svg" xmlns:xlink="http://www.w3.org/1999/xlink" x="0px" y="0px"
	 viewBox="0 0 130 130" style="enable-background:new 0 0 130 130;" xml:space="preserve">
<title>100 Night Trial, Free Returns seal</title>
<desc>Casper's guarantee and return program</desc>
<g>
	<g>
		<g>
			<path d="M63.5,95.4c-16.6,0-30.2-13.5-30.2-30.2c0-11,5.2-19.7,14.9-25.2c7.3-4.1,14.4-4.9,14.7-5
				c0.5-0.1,1,0.2,1.2,0.7c0.2,0.5,0.2,1-0.2,1.4c-4.5,5.1-7,11.6-7,18.4c0,15.3,12.4,27.7,27.7,27.7c0.5,0,0.9,0.3,1.1,0.7
				c0.2,0.4,0.2,0.9-0.1,1.3C85.5,85.6,78.5,95.4,63.5,95.4z M60.1,38.2c-2.7,0.6-6.7,1.8-10.7,4.1c-9,5.1-13.6,12.8-13.6,23
				C35.8,80.5,48.2,93,63.5,93c5.7,0,10.9-1.5,15.3-4.6c1.4-1,2.5-2,3.3-2.8c-15.4-1.3-27.6-14.3-27.6-30.1
				C54.6,49.3,56.5,43.2,60.1,38.2z"/>
		</g>
		<g>
			<path d="M84.4,66c-0.7,0-1.2-0.6-1.2-1.2c0-5.4-4.4-9.8-9.8-9.8c-0.7,0-1.2-0.6-1.2-1.2s0.6-1.2,1.2-1.2
				c5.4,0,9.8-4.4,9.8-9.8c0-0.7,0.6-1.2,1.2-1.2s1.2,0.6,1.2,1.2c0,5.4,4.4,9.8,9.8,9.8c0.7,0,1.2,0.6,1.2,1.2S96.1,55,95.4,55
				c-5.4,0-9.8,4.4-9.8,9.8C85.6,65.4,85.1,66,84.4,66z M78.8,53.8c2.5,1.2,4.5,3.2,5.6,5.6c1.2-2.5,3.2-4.5,5.6-5.6
				c-2.5-1.2-4.5-3.2-5.6-5.6C83.2,50.6,81.2,52.6,78.8,53.8z"/>
		</g>
	</g>
	<g>
		<path  d="M75.3,13.2l1.8-8.7L75,4.9l-0.3-2.2L79.3,2l1,0.2l-2.4,11.6L75.3,13.2z"/>
		<path  d="M85.4,16.5c-3-1.3-3.6-4.5-2.3-7.5c1.3-3,3.9-4.9,7-3.6c3,1.3,3.6,4.5,2.3,7.5C91.1,15.9,88.4,17.8,85.4,16.5
			z M89.2,7.5C88,7,86.8,7.9,85.8,10.2c-1,2.3-0.7,3.7,0.5,4.2c1.1,0.5,2.4-0.3,3.3-2.6C90.6,9.4,90.3,8,89.2,7.5z"/>
		<path  d="M96.1,22.5c-2.7-1.9-2.4-5.2-0.5-7.8c1.9-2.7,5-3.9,7.6-1.9c2.6,1.9,2.4,5.2,0.5,7.8
			C101.8,23.3,98.7,24.4,96.1,22.5z M101.9,14.7c-1-0.7-2.4-0.2-3.8,1.8c-1.5,2-1.5,3.5-0.5,4.2c1,0.7,2.4,0.2,3.8-1.8
			C102.8,16.9,102.9,15.4,101.9,14.7z"/>
		<path  d="M111.1,39l1.1-9.4l-5,3.5l-1.6-2.2l9.7-6.8l0.3,0.3l-1.1,9.3l5-3.5l1.6,2.2l-9.7,6.8L111.1,39z"/>
		<path  d="M113,42.3l10.7-4.8l1.1,2.5l-10.7,4.8L113,42.3z"/>
		<path  d="M124.3,56.3l-5.4,1.3c-1-1.1-1.8-2.3-2.2-4c-0.8-3.3,0.9-6.6,4.4-7.4c3.5-0.9,6.5,1.2,7.4,4.7
			c0.4,1.5,0.3,2.8,0,4.1l-2.4-0.6c0.2-0.9,0.2-1.8,0-2.7c-0.6-2.3-2.3-3.1-4.3-2.6c-2.2,0.5-3.2,2.3-2.7,4.2
			c0.2,0.8,0.4,1.2,0.7,1.6l1.7-0.4l-0.6-2.3l2.2-0.6L124.3,56.3z"/>
		<path  d="M118.2,68.2l4.7,0.1l0.1-4.5l-4.7-0.1l0-2.7l11.7,0.2l0,2.7l-4.6-0.1l-0.1,4.5l4.6,0.1l0,2.7l-11.7-0.2
			L118.2,68.2z"/>
		<path  d="M125.4,81.5l-8.9-2.2l0.6-2.6l8.9,2.2l0.8-3.4l2.4,0.6l-2.3,9.5l-2.4-0.6L125.4,81.5z"/>
		<path  d="M117.8,98.8l-7.9-4.7l1.4-2.3l7.9,4.7l1.8-3l2.1,1.3l-5,8.3l-2.1-1.3L117.8,98.8z"/>
		<path  d="M102.4,103.5l4.1,1.2c0.1-0.1,0.2-0.2,0.3-0.3c0.3-0.3,0.4-0.4,0.7-0.7l-2.8-2.6l1.9-2l8.4,7.9
			c-0.6,0.8-1.3,1.6-2.2,2.6c-2.5,2.7-4.7,2.5-6.3,1c-1-0.9-1.4-2.3-1.1-3.8l-5.2-1.1L102.4,103.5z M110.8,108.1
			c0.3-0.3,0.4-0.5,0.7-0.8l-2.4-2.2c-0.3,0.2-0.4,0.4-0.6,0.6c-0.9,0.9-1,2-0.1,2.8C109.1,109.1,110.1,108.9,110.8,108.1z"/>
		<path  d="M98.2,107.2l7.1,9.3l-2.2,1.6l-7.1-9.3L98.2,107.2z"/>
		<path  d="M86.7,114.2l1.7,1.5l3.6-1.8l-0.2-2.3l2.5-1.3l0.5,13l-0.3,0.2l-10.3-8L86.7,114.2z M92.4,119.1l-0.2-3
			l-2.1,1.1L92.4,119.1z"/>
		<path  d="M82,116.1l3.1,11.3l-2.6,0.7l-2.4-8.9l-4.5,1.2l-0.6-2.4L82,116.1z"/>
		<path  d="M60.2,121.3c1.7,0.1,2.9,1.6,2.7,3.3c-0.1,1.7-1.6,2.9-3.2,2.8c-1.6-0.1-2.9-1.6-2.7-3.3
			C57.1,122.4,58.6,121.2,60.2,121.3z"/>
		<path  d="M39,122.3l1.1-2.3l-3.6-1.7l1-2.2l3.6,1.7l1.8-3.8l2.5,1.2l-5,10.6l-6.7-3.1l1.1-2.3L39,122.3z"/>
		<path  d="M31.5,106.9l-0.7,4.2c0.1,0.1,0.3,0.2,0.4,0.3c0.3,0.2,0.5,0.4,0.8,0.6l2.3-3.1l2.2,1.6l-6.9,9.3
			c-0.9-0.5-1.8-1.1-2.9-1.9c-2.9-2.2-3-4.4-1.7-6.1c0.8-1.1,2.2-1.7,3.6-1.5l0.5-5.3L31.5,106.9z M27.8,115.9
			c0.3,0.2,0.5,0.4,0.9,0.6l1.9-2.6c-0.3-0.2-0.4-0.4-0.7-0.6c-1-0.8-2.1-0.8-2.8,0.2C26.6,114.3,26.9,115.2,27.8,115.9z"/>
		<path  d="M27.4,103.4l-8.8,7.7l-4.9-5.6l1.9-1.6l3.1,3.5l1.6-1.4l-2.8-3.2l1.8-1.6l2.8,3.2l1.7-1.5l-3.1-3.5l1.9-1.6
			L27.4,103.4z"/>
		<path  d="M20.6,95.1l-10.1,5.8l-3.7-6.4l2.2-1.2l2.3,4.1l1.8-1l-2.1-3.7l2-1.2l2.1,3.7l2-1.1l-2.3-4.1l2.1-1.2
			L20.6,95.1z"/>
		<path  d="M12.6,75.2l-3.3,2.8c0.1,0.2,0.1,0.3,0.1,0.4c0.1,0.4,0.1,0.6,0.2,1l3.7-0.8l0.6,2.6L2.6,83.7
			c-0.3-0.9-0.6-2-0.9-3.3c-0.8-3.5,0.6-5.3,2.7-5.8c1.4-0.3,2.7,0.2,3.7,1.2l3.8-3.7L12.6,75.2z M4,79.6c0.1,0.4,0.2,0.7,0.3,1
			l3.1-0.7c0-0.3-0.1-0.5-0.1-0.9c-0.3-1.3-1.1-1.9-2.2-1.7C4.1,77.5,3.7,78.4,4,79.6z"/>
		<path  d="M11.8,69.8L0.1,70L0,62.6l2.5,0l0.1,4.7l2.1,0l-0.1-4.3l2.4,0L7,67.2l2.3,0l-0.1-4.7l2.5,0L11.8,69.8z"/>
		<path  d="M4,52.2l9,1.8l-0.5,2.7l-9-1.8l-0.7,3.4l-2.4-0.5l1.9-9.6l2.4,0.5L4,52.2z"/>
		<path  d="M16.5,43.9c-1.3,2.9-3.5,3.8-6.5,2.4l-6.3-2.8L4.8,41l6.2,2.8c1.5,0.7,2.7,0.4,3.4-1c0.6-1.4,0-2.4-1.5-3.1
			l-6.2-2.8l1.1-2.5l6.3,2.8C17,38.6,17.8,41,16.5,43.9z"/>
		<path  d="M24,31.5l-4.2-0.7c-0.1,0.1-0.2,0.3-0.3,0.4c-0.2,0.3-0.4,0.5-0.6,0.8l3,2.3l-1.6,2.2l-9.2-7
			c0.5-0.9,1.1-1.8,1.9-2.9c2.2-2.9,4.5-3,6.2-1.7c1.1,0.8,1.6,2.2,1.5,3.7l5.3,0.6L24,31.5z M15.1,27.7c-0.3,0.3-0.4,0.5-0.6,0.9
			l2.6,2c0.2-0.3,0.4-0.4,0.6-0.7c0.8-1,0.8-2.1-0.1-2.8C16.7,26.5,15.8,26.8,15.1,27.7z"/>
		<path  d="M35.2,21.4L25.7,21l3.9,4.7l-2.1,1.7L20,18.2l0.2-0.3l9.4,0.5l-3.8-4.7l2.1-1.7l7.5,9.2L35.2,21.4z"/>
		<path  d="M41.1,18.1c-1.2,0.6-2.8,0.8-4.1,0.7l-0.4-2.5c1.1,0.2,2.4,0,3.4-0.4c0.9-0.4,1-1,0.7-1.5
			c-0.3-0.5-0.7-0.8-2.6-0.6c-2.2,0.2-3.4-0.6-4-1.8c-0.8-1.5-0.3-3.6,2.2-4.8c1.1-0.6,2.5-0.8,3.3-0.6l0.5,2.5
			c-0.8-0.1-2-0.1-2.7,0.3c-0.9,0.4-1,1-0.8,1.5c0.3,0.7,1,0.6,2.6,0.6c2.4-0.1,3.4,0.5,4.1,1.8C44.1,14.7,43.6,16.8,41.1,18.1z"/>
		<path  d="M58.8,9.8c-1.6,0.2-3.1-1-3.3-2.7c-0.2-1.7,1-3.2,2.6-3.4c1.6-0.2,3.1,1,3.3,2.7C61.6,8.1,60.5,9.6,58.8,9.8z
			"/>
	</g>
</g>
</svg>
