<?xml version="1.0" encoding="utf-8"?>
<!-- Generator: Adobe Illustrator 22.0.1, SVG Export Plug-In . SVG Version: 6.00 Build 0)  -->
<svg version="1.1" id="Layer_2_1_" xmlns="http://www.w3.org/2000/svg" xmlns:xlink="http://www.w3.org/1999/xlink" x="0px" y="0px"
	 viewBox="0 0 135 135" style="enable-background:new 0 0 135 135;" xml:space="preserve">
<g>
	<path style="fill:#A8A8A8;" d="M105.8,16.9l-3.3-2.2l-1,1.6l1.6,1l-0.8,1.2c-0.4,0-0.7-0.2-1.3-0.5c-1.3-0.8-1.7-2.4-0.7-3.9
		c0.9-1.4,2.4-1.8,3.9-0.8c0.6,0.4,1.1,0.9,1.5,1.6l1.7-1c-0.5-0.9-1.2-1.7-2.2-2.4c-2.4-1.6-5.3-1.1-6.9,1.3
		c-1.6,2.4-0.8,5.2,1.5,6.7c1.2,0.8,2.3,1.1,3.5,1.2L105.8,16.9z"/>
	<path style="fill:#A8A8A8;" d="M106.8,24.7l2.1-2.2c0.2,0.2,0.3,0.4,0.6,0.6c0.1,0.1,0.2,0.2,0.3,0.2l-0.9,3.3l1.8,1.7l0.9-4.1
		c1.1,0.3,2.3,0,3-0.9c1.2-1.2,1.3-3-0.8-5.1c-0.8-0.8-1.5-1.3-2.1-1.8l-6.4,6.7L106.8,24.7z M111.9,19.3c0.3,0.2,0.4,0.3,0.7,0.5
		c0.7,0.6,0.8,1.4,0.3,2c-0.7,0.7-1.5,0.6-2.2-0.1c-0.2-0.2-0.3-0.3-0.5-0.5L111.9,19.3z"/>
	<path style="fill:#A8A8A8;" d="M113,31.3l1.8-0.4l1.9,2.6l-1,1.6l1.3,1.8l5-9.1l-0.2-0.2l-10.2,2L113,31.3z M118.9,29.8l-1.3,2.1
		l-1.1-1.5L118.9,29.8z"/>
	<polygon style="fill:#A8A8A8;" points="118.5,39.7 119.5,41.6 126,38.2 127.3,40.7 129.1,39.8 125.5,32.9 123.7,33.8 125,36.3 	"/>
	
		<rect x="121.7" y="44.7" transform="matrix(0.9383 -0.3458 0.3458 0.9383 -8.0332 46.5344)" style="fill:#A8A8A8;" width="9.4" height="2.2"/>
	<path style="fill:#A8A8A8;" d="M130,49.7c-1.1,0.3-1.9,1-2.2,2.8c-0.2,1.5-0.5,1.8-1,2c-0.4,0.1-0.9-0.1-1-0.8
		c-0.2-0.9-0.1-1.9,0.3-2.8l-2.1-0.1c-0.3,0.9-0.5,2.3-0.2,3.3c0.5,2.2,2.2,2.9,3.6,2.6c1.2-0.3,1.9-1,2.2-2.9
		c0.2-1.3,0.3-1.8,0.9-1.9c0.4-0.1,0.8,0.1,1,0.9c0.2,0.6,0,1.6-0.3,2.2l2,0.1c0.2-0.6,0.3-1.7,0.1-2.7
		C132.9,50.2,131.3,49.4,130,49.7z"/>
	<path style="fill:#A8A8A8;" d="M125.6,65.6l3.1,0c0,0.3,0,0.5,0,0.8c0,0.1,0,0.2,0,0.4l-3,1.6l0,2.5l3.6-2.2c0.6,1,1.6,1.6,2.7,1.6
		c1.7,0,3.1-1.2,3.1-4.1c0-1.1-0.1-2-0.2-2.8l-9.3,0.1L125.6,65.6z M130.4,65.5l2.6,0c0.1,0.3,0.1,0.5,0.1,0.8
		c0,0.9-0.4,1.6-1.2,1.6c-0.9,0-1.5-0.6-1.5-1.7C130.4,66,130.4,65.8,130.4,65.5z"/>
	<polygon style="fill:#A8A8A8;" points="124.5,79 126.5,79.3 127,75.5 128.8,75.8 128.3,79.2 130.2,79.5 130.7,76.1 132.3,76.3 
		131.8,80.1 133.8,80.3 134.6,74.5 125.4,73.1 	"/>
	<polygon style="fill:#A8A8A8;" points="130.2,86.1 123.2,83.9 122.6,85.9 129.6,88.2 128.7,90.8 130.6,91.5 133,84 131.1,83.4 	"/>
	<path style="fill:#A8A8A8;" d="M125.2,92.5c-2.4-1.3-5.1-0.6-6.5,2c-1.3,2.6-0.4,5.3,2,6.5c2.4,1.3,5.2,0.6,6.5-1.9
		C128.6,96.5,127.7,93.8,125.2,92.5z M125.6,98.1c-0.7,1.3-2.2,1.6-3.7,0.8c-1.5-0.8-2.1-2.2-1.4-3.6c0.7-1.3,2.2-1.6,3.7-0.8
		C125.6,95.3,126.2,96.8,125.6,98.1z"/>
	<path style="fill:#A8A8A8;" d="M112.5,103.9c-1.6,2-1.5,4,0.5,5.6l4.3,3.5l1.4-1.7l-4.2-3.4c-1-0.8-1.3-1.8-0.5-2.7
		c0.8-1,1.8-0.9,2.8-0.1l4.2,3.4l1.4-1.7l-4.3-3.5C116,101.7,114.1,101.9,112.5,103.9z"/>
	<path style="fill:#A8A8A8;" d="M106.3,110.6l2,2.3c-0.2,0.2-0.4,0.3-0.6,0.5c-0.1,0.1-0.2,0.2-0.3,0.3l-3.2-1.3l-1.9,1.6l4,1.3
		c-0.4,1.1-0.2,2.3,0.5,3.1c1.1,1.3,2.9,1.6,5.1-0.3c0.8-0.7,1.5-1.3,2-1.9l-6.1-7L106.3,110.6z M108.9,114.7
		c0.2-0.2,0.3-0.3,0.5-0.4l1.7,2c-0.2,0.2-0.3,0.4-0.6,0.6c-0.7,0.6-1.5,0.7-2,0.1C107.9,116.2,108.1,115.4,108.9,114.7z"/>
	<path style="fill:#A8A8A8;" d="M88.5,123.9c-1.2,0.5-1.9,1.9-1.4,3.1c0.5,1.3,1.9,1.9,3.1,1.5c1.2-0.5,1.9-1.9,1.4-3.1
		C91.1,124.1,89.8,123.5,88.5,123.9z"/>
	<polygon style="fill:#A8A8A8;" points="67.9,132.6 68,125.4 65.8,125.4 65.8,135 66.6,135 70.2,133.6 69.5,132 	"/>
	<path style="fill:#A8A8A8;" d="M59,124.6c-2.6-0.4-4.3,1.6-4.7,4.2c-0.4,2.6,0.7,5,3.2,5.4c2.6,0.4,4.3-1.6,4.7-4.2
		C62.7,127.4,61.6,125,59,124.6z M59.9,129.7c-0.3,2-1.1,2.9-2.1,2.7c-1-0.1-1.5-1.2-1.2-3.2c0.3-2,1.1-2.9,2.1-2.7
		S60.2,127.7,59.9,129.7z"/>
	<path style="fill:#A8A8A8;" d="M49,122.2c-2.4-0.8-4.5,0.8-5.4,3.3c-0.8,2.5-0.2,5,2.2,5.9c2.5,0.8,4.5-0.8,5.4-3.3
		C52.1,125.6,51.5,123.1,49,122.2z M49,127.3c-0.6,1.9-1.6,2.6-2.5,2.3c-0.9-0.3-1.2-1.5-0.6-3.3s1.6-2.6,2.5-2.3
		C49.4,124.3,49.7,125.4,49,127.3z"/>
	<polygon style="fill:#A8A8A8;" points="35,121.2 33,113.9 32.8,113.8 27.6,121.8 29.4,123 32.1,118.9 34,126.1 34.3,126.3 
		39.5,118.3 37.6,117.1 	"/>
	<path style="fill:#A8A8A8;" d="M29.4,111.1l-1.7,0.7l-2.3-2.2l0.7-1.7l-1.6-1.6l-3.3,9.9l0.2,0.2l9.7-3.8L29.4,111.1z M23.9,113.6
		l0.9-2.3l1.3,1.3L23.9,113.6z"/>
	<path style="fill:#A8A8A8;" d="M20.7,101.3c-0.6-0.9-1.6-1.6-2.5-1.9l-1.1,1.6c0.8,0.3,1.5,0.8,2,1.5c1.1,1.4,0.8,2.9-0.5,4
		c-1.4,1-2.9,0.8-4-0.6c-0.5-0.6-0.7-1.4-0.8-2.2l-1.9,0.6c0.1,1,0.5,2,1.1,2.8c1.8,2.4,4.7,2.9,7,1.2
		C22.2,106.6,22.6,103.8,20.7,101.3z"/>
	<polygon style="fill:#A8A8A8;" points="16.6,94.9 13.2,96.6 11.6,93.4 15,91.7 14,89.8 5.6,93.9 6.6,95.9 9.8,94.3 11.5,97.5 
		8.2,99.1 9.1,101.1 17.5,96.9 	"/>
	<polygon style="fill:#A8A8A8;" points="5.3,87 12.3,84.9 11.7,82.8 4.6,84.9 3.9,82.2 1.9,82.8 4.1,90.3 6.1,89.7 	"/>
	<polygon style="fill:#A8A8A8;" points="9.7,72 7.8,72.2 8.3,75.9 6.5,76.2 6,72.8 4.1,73 4.6,76.4 2.9,76.6 2.4,72.9 0.5,73.2 
		1.2,79.1 10.5,77.8 	"/>
	<polygon style="fill:#A8A8A8;" points="9.6,66.8 4.7,66.6 10,61.2 10,60.9 0.5,60.5 0.4,62.7 5.3,62.9 0,68.3 0,68.6 9.5,69 	"/>
	<path style="fill:#A8A8A8;" d="M11.7,52.2L9,51.4c0.1-0.3,0.2-0.5,0.2-0.8c0.7-2.4-0.3-4-2.1-4.6c-1.8-0.5-3.6,0.5-4.4,3.1
		c-0.2,0.8-0.4,1.6-0.6,2.6l8.9,2.6L11.7,52.2z M7.4,50.3c-0.1,0.2-0.1,0.3-0.2,0.6l-2.6-0.7c0.1-0.3,0.1-0.5,0.2-0.8
		c0.3-1,1-1.3,1.7-1.1C7.4,48.5,7.7,49.2,7.4,50.3z"/>
	<path style="fill:#A8A8A8;" d="M14.8,43.6L12,42.2c0.1-0.3,0.2-0.4,0.4-0.7c0.1-0.1,0.1-0.2,0.1-0.3l3.4-0.1l1.1-2.2l-4.2,0.4
		c-0.1-1.2-0.8-2.1-1.8-2.6c-1.5-0.7-3.3-0.3-4.5,2.3c-0.5,1-0.8,1.8-1,2.6l8.4,4L14.8,43.6z M10.7,40.9c-0.1,0.2-0.2,0.4-0.3,0.6
		l-2.3-1.1c0.1-0.3,0.2-0.5,0.3-0.8c0.4-0.8,1.1-1.2,1.8-0.9C11,39.1,11.2,39.9,10.7,40.9z"/>
	<path style="fill:#A8A8A8;" d="M14.1,34.6c2.2,1.6,5,1.3,6.7-1c1.7-2.3,1.1-5.1-1.1-6.8c-2.2-1.6-5-1.3-6.7,1
		C11.3,30.2,11.8,33,14.1,34.6z M14.5,29c0.9-1.2,2.4-1.3,3.8-0.3c1.4,1,1.8,2.5,0.9,3.7c-0.9,1.2-2.4,1.3-3.8,0.3
		C14.1,31.7,13.6,30.2,14.5,29z"/>
	<path style="fill:#A8A8A8;" d="M27.5,25.7c2-1.9,2.2-3.8,1.2-4.9c-0.7-0.8-1.7-0.9-2.9-0.3c0.5-1,0.4-1.9-0.3-2.6
		c-0.9-0.9-2.7-0.9-4.7,1c-0.6,0.5-1.3,1.4-1.8,1.9l6.3,6.7C26.1,26.9,26.9,26.3,27.5,25.7z M23.1,22.1l-1.3-1.4
		c0.2-0.2,0.4-0.5,0.7-0.7c0.7-0.6,1.3-0.6,1.7-0.2c0.5,0.5,0.3,1.1-0.4,1.9C23.5,21.8,23.3,22,23.1,22.1z M24.8,22.6
		c0.8-0.8,1.5-0.9,2-0.4c0.5,0.5,0.4,1.2-0.4,1.9c-0.3,0.3-0.4,0.4-0.7,0.6l-1.5-1.6C24.3,23.1,24.5,22.9,24.8,22.6z"/>
	<polygon style="fill:#A8A8A8;" points="37.6,17.8 36.5,16.1 33.3,18.2 32.3,16.7 35.2,14.8 34.1,13.2 31.3,15.2 30.3,13.8 
		33.4,11.7 32.3,10 27.4,13.3 32.7,21.1 	"/>
	<path style="fill:#A8A8A8;" d="M42.2,15.3l-1.3-2.8c0.3-0.1,0.5-0.2,0.7-0.3c0.1-0.1,0.2-0.1,0.3-0.2l2.7,2.1l2.2-1l-3.5-2.4
		c0.7-1,0.8-2.1,0.3-3.1c-0.7-1.6-2.4-2.3-5-1.1c-1,0.5-1.8,0.9-2.4,1.3l3.9,8.4L42.2,15.3z M39,8.6c0.3-0.2,0.4-0.3,0.7-0.4
		c0.8-0.4,1.6-0.2,1.9,0.5c0.4,0.9,0,1.6-0.9,2c-0.2,0.1-0.4,0.2-0.6,0.3L39,8.6z"/>
	<polygon style="fill:#A8A8A8;" points="54.8,10.8 54.2,8.9 50.6,9.9 50.1,8.2 53.4,7.2 52.9,5.4 49.6,6.4 49.2,4.7 52.8,3.7 
		52.2,1.8 46.5,3.4 49.1,12.4 	"/>
	<polygon style="fill:#A8A8A8;" points="59.9,9.9 59.4,5.1 65.5,9.5 65.7,9.5 64.7,0 62.6,0.2 63.1,5.1 57,0.6 56.7,0.7 57.7,10.2 	
		"/>
	<path style="fill:#A8A8A8;" d="M82.5,9.1c1.3,0.3,2.6-0.5,2.9-1.8c0.3-1.3-0.4-2.6-1.7-3c-1.3-0.3-2.6,0.5-2.9,1.8
		C80.5,7.4,81.2,8.7,82.5,9.1z"/>
	<path style="fill:#A8A8A8;" d="M88.2,86.4c0-0.7-0.5-1.2-1.2-1.2c-6.6,0-13-2.4-18-6.8c-11.2-10-12.2-27.1-2.3-38.4
		c0.2-0.3,0.3-0.6,0.3-1c-0.1-0.7-0.7-1.1-1.4-1c-5.1,0.7-10,2.4-14.5,4.9c-9.6,5.4-14.6,13.9-14.6,24.7c0,16.3,13.3,29.6,29.6,29.6
		c14.8,0,21.6-9.6,21.9-10.1C88.1,86.9,88.2,86.6,88.2,86.4z M81.1,90.2c-4.4,3-9.7,4.6-15,4.5c-15,0-27.1-12.2-27.2-27.2
		c0-10,4.5-17.6,13.3-22.6c3.3-1.8,6.8-3.2,10.5-4c-3,4.3-4.9,9.3-5.3,14.5c-1.4,16.3,10.7,30.6,26.9,32
		C83.4,88.5,82.3,89.4,81.1,90.2z"/>
	<path style="fill:#A8A8A8;" d="M97.4,55c-5.3,0-9.6-4.3-9.6-9.6c0-0.7-0.5-1.2-1.2-1.2c-0.7,0-1.2,0.5-1.2,1.2
		c0,5.3-4.3,9.6-9.6,9.6c-0.7,0-1.2,0.5-1.2,1.2c0,0.7,0.5,1.2,1.2,1.2c5.3,0,9.6,4.3,9.6,9.6c0,0.7,0.5,1.2,1.2,1.2
		c0.7,0,1.2-0.5,1.2-1.2c0-5.3,4.3-9.6,9.6-9.6c0.7,0,1.2-0.5,1.2-1.2C98.7,55.6,98.1,55,97.4,55z M86.6,61.8
		c-1.2-2.4-3.1-4.4-5.5-5.5c2.4-1.2,4.4-3.1,5.5-5.5c1.2,2.4,3.1,4.4,5.5,5.5C89.8,57.4,87.8,59.4,86.6,61.8z"/>
</g>
</svg>
