<?xml version="1.0" encoding="utf-8"?>
<!-- Generator: Adobe Illustrator 18.1.1, SVG Export Plug-In . SVG Version: 6.00 Build 0)  -->
<svg version="1.1" id="Layer_1" xmlns="http://www.w3.org/2000/svg" xmlns:xlink="http://www.w3.org/1999/xlink" x="0px" y="0px"
	 viewBox="0 0 35.7 19.1" enable-background="new 0 0 35.7 19.1" xml:space="preserve">
<title>Delivery truck</title>
<desc>Image of a delivery truck</desc>
<path d="M13.5,1.4H7.9c-0.2,0-0.4,0.1-0.6,0.3L4.1,7.4L0.5,8.5C0.2,8.6,0,8.8,0,9.1v6.5c0,0.4,0.3,0.6,0.6,0.6h3.5
	c0-0.2,0-0.4,0-0.6c0-0.2,0-0.4,0-0.6H1.3V9.6l3.4-1c0.2,0,0.3-0.2,0.4-0.3l3.2-5.6h5.3c0.4,0,0.6-0.3,0.6-0.6S13.9,1.4,13.5,1.4"/>
<path d="M8.5,13.4c-1.2,0-2.2,1-2.2,2.2c0,1.2,1,2.2,2.2,2.2c1.2,0,2.2-1,2.2-2.2C10.7,14.4,9.7,13.4,8.5,13.4
	 M8.5,19.1c-1.9,0-3.5-1.6-3.5-3.5s1.6-3.5,3.5-3.5s3.5,1.6,3.5,3.5S10.4,19.1,8.5,19.1"/>
<path d="M33.9,13.4c-0.4,0-0.6-0.3-0.6-0.6V1.3H17.1v11.5c0,0.4-0.3,0.6-0.6,0.6c-0.4,0-0.6-0.3-0.6-0.6V0.6
	c0-0.4,0.3-0.6,0.6-0.6h17.4c0.4,0,0.6,0.3,0.6,0.6v12.1C34.5,13.1,34.3,13.4,33.9,13.4"/>
<path d="M35.1,15h-3.3c0,0.2,0,0.4,0,0.6c0,0.2,0,0.4,0,0.6h3.3c0.4,0,0.6-0.3,0.6-0.6S35.4,15,35.1,15"/>
<path d="M27.5,13.4c-1.2,0-2.2,1-2.2,2.2c0,1.2,1,2.2,2.2,2.2c1.2,0,2.2-1,2.2-2.2C29.7,14.4,28.7,13.4,27.5,13.4
	 M27.5,19.1c-1.9,0-3.5-1.6-3.5-3.5s1.6-3.5,3.5-3.5c1.9,0,3.5,1.6,3.5,3.5S29.4,19.1,27.5,19.1"/>
<path d="M31.3,4.6H19.1c-0.4,0-0.6-0.3-0.6-0.6c0-0.4,0.3-0.6,0.6-0.6h12.2c0.4,0,0.6,0.3,0.6,0.6
	C31.9,4.3,31.6,4.6,31.3,4.6"/>
<path d="M23.2,16.2c0-0.2,0-0.4,0-0.6c0-0.2,0-0.4,0-0.6H12.7c0,0.2,0,0.4,0,0.6c0,0.2,0,0.4,0,0.6H23.2z"/>
</svg>
