<?xml version="1.0" encoding="utf-8"?>
<!-- Generator: Adobe Illustrator 18.1.1, SVG Export Plug-In . SVG Version: 6.00 Build 0)  -->
<svg version="1.1" id="Layer_1" xmlns="http://www.w3.org/2000/svg" xmlns:xlink="http://www.w3.org/1999/xlink" x="0px" y="0px"
	 viewBox="0 0 32 32" enable-background="new 0 0 32 32" xml:space="preserve">
<title>Delivery truck</title>
<desc>Image of a delivery truck.</desc>
<g>
	<path fill="none" stroke-linecap="round" stroke-linejoin="round" stroke-miterlimit="10" d="M26.9,21
		c0,1.1-1,2.1-2.2,2.1c-1.3,0-2.2-0.9-2.2-2.1s1-2.1,2.2-2.1C25.9,18.9,26.9,19.8,26.9,21z M9.7,21.2c0,1.1-1,2.1-2.2,2.1
		c-1.3,0-2.2-0.9-2.2-2.1c0-1.1,1-2.1,2.2-2.1S9.7,20.1,9.7,21.2z M28.8,21h2.7 M11.7,21h8.6 M14.6,18.5V8.7h15.5v9.9 M12.1,9.7H7
		l-2.7,4.7l-3.8,1.2V21h2.8 M17,11.4h11"/>
</g>
</svg>
