<svg id="Layer_1" xmlns="http://www.w3.org/2000/svg" viewBox="0 0 16.1 16"><style>.st0{fill:#FFFFFF;} .st1{fill:#00237E;} .st2{fill:#ED5A4D;}</style><title>UK Flag</title><desc>Shop Casper Mattresses in the United Kingdom</desc><g id="XMLID_470_"><g id="XMLID_474_"><path id="XMLID_471_" class="st0" d="M16.1 8v1c0 .3-.1.6-.2.9h-4.6l3.6 2.4c-.1.2-.3.4-.4.6l-4.5-3v5.9c-.3.1-.6.1-.8.2H7.4c-.3 0-.6-.1-.9-.2V9.9l-4.5 3c-.2-.2-.3-.4-.4-.6l3.6-2.4H.6C.5 9.6.5 9.3.4 9V7c0-.3.1-.6.2-.8h4.8L1.6 3.7c.1-.2.3-.4.4-.6L6.4 6V.2c.3-.1.6-.1.9-.2h1.8c.3 0 .6.1.8.2V6l4.4-2.9c.2.2.3.4.4.6l-3.8 2.5h4.8c.1.3.1.6.2.8v.5c.2.2.2.3.2.5z"/></g><g id="XMLID_458_"><path id="XMLID_462_" class="st1" d="M5.2 6.1H.4c.2-.9.6-1.7 1.1-2.5l3.7 2.5z"/><path id="XMLID_463_" class="st1" d="M6.3.2V6L1.9 3.1C3 1.7 4.5.6 6.3.2z"/><path id="XMLID_460_" class="st1" d="M14.4 3.1L10 6V.2c1.8.4 3.4 1.5 4.4 2.9z"/><path id="XMLID_465_" class="st1" d="M15.9 6.1h-4.8l3.8-2.5c.5.8.8 1.6 1 2.5z"/><path id="XMLID_459_" class="st1" d="M15.9 9.9c-.2.9-.5 1.7-1 2.4l-3.6-2.4h4.6z"/><path id="XMLID_467_" class="st1" d="M14.5 12.9c-1.1 1.4-2.7 2.5-4.5 2.9V9.9l4.5 3z"/><path id="XMLID_468_" class="st1" d="M6.3 9.9v5.9c-1.8-.4-3.4-1.5-4.5-2.9l4.5-3z"/><path id="XMLID_469_" class="st1" d="M5 9.9l-3.6 2.4c-.5-.7-.8-1.5-1-2.4H5z"/></g><path id="XMLID_648_" class="st2" d="M16.1 8v-.9H9V0H7.2v7.1H.1c0 .3-.1.6-.1.9 0 .3 0 .6.1.9h7.1V16H9V8.9h7.1V8z"/></g></svg>
