<?xml version="1.0" encoding="utf-8"?>
<!-- Generator: Adobe Illustrator 19.2.0, SVG Export Plug-In . SVG Version: 6.00 Build 0)  -->
<svg version="1.1" id="Layer_1" xmlns="http://www.w3.org/2000/svg" xmlns:xlink="http://www.w3.org/1999/xlink" x="0px" y="0px"
	 viewBox="0 0 16.1 16" style="enable-background:new 0 0 16.1 16;" xml:space="preserve">
<title>UK Flag</title>
<desc>Shop Casper Mattresses in the United Kingdom</desc>
<style type="text/css">
	.st0{fill:#FFFFFF;}
	.st1{fill:#00237E;}
	.st2{fill:#ED5A4D;}
</style>
<g id="XMLID_560_">
	<circle id="XMLID_574_" class="st0" cx="8.1" cy="8" r="8"/>
	<path id="XMLID_573_" class="st1" d="M4.5,6.5H0.2c0.2-0.8,0.5-1.6,0.9-2.3L4.5,6.5z"/>
	<path id="XMLID_572_" class="st2" d="M6.3,6.5H5.4L1.3,3.8c0.1-0.1,0.2-0.3,0.3-0.4L6.3,6.5z"/>
	<path id="XMLID_571_" class="st1" d="M6.6,0.1v6L1.9,2.9C3,1.5,4.7,0.5,6.6,0.1z"/>
	<path id="XMLID_570_" class="st1" d="M15.9,6.4h-4.3l3.5-2.3C15.4,4.8,15.7,5.6,15.9,6.4z"/>
	<path id="XMLID_569_" class="st2" d="M14.8,3.7l-4.1,2.7H9.8l4.7-3.1C14.6,3.5,14.7,3.6,14.8,3.7z"/>
	<path id="XMLID_568_" class="st1" d="M14.2,2.9L9.5,6.1v-6C11.4,0.5,13.1,1.5,14.2,2.9z"/>
	<path id="XMLID_567_" class="st1" d="M4.5,9.6l-3.4,2.3c-0.4-0.7-0.7-1.5-0.9-2.3H4.5z"/>
	<path id="XMLID_566_" class="st2" d="M6.3,9.6l-4.7,3.1c-0.1-0.1-0.2-0.3-0.3-0.4l4.1-2.7H6.3z"/>
	<path id="XMLID_565_" class="st1" d="M6.6,9.9v6c-1.9-0.3-3.6-1.4-4.7-2.8L6.6,9.9z"/>
	<path id="XMLID_564_" class="st1" d="M15.9,9.6c-0.2,0.8-0.5,1.6-0.8,2.3l-3.5-2.3H15.9z"/>
	<path id="XMLID_563_" class="st2" d="M14.8,12.3c-0.1,0.1-0.2,0.3-0.3,0.4L9.8,9.6h0.9L14.8,12.3z"/>
	<path id="XMLID_562_" class="st1" d="M14.2,13.1c-1.2,1.4-2.8,2.4-4.7,2.8v-6L14.2,13.1z"/>
	<path id="XMLID_561_" class="st2" d="M16,8c0,0.3,0,0.7-0.1,1H9v6.9c-0.3,0-0.7,0.1-1,0.1s-0.7,0-1-0.1V9H0.1C0.1,8.7,0,8.3,0,8
		s0-0.7,0.1-1H7V0.1C7.3,0.1,7.7,0,8,0s0.7,0,1,0.1V7h6.9C16,7.3,16,7.7,16,8z"/>
</g>
</svg>
