<?xml version="1.0" encoding="utf-8"?>
<!-- Generator: Adobe Illustrator 19.2.0, SVG Export Plug-In . SVG Version: 6.00 Build 0)  -->
<svg version="1.1" id="Layer_1" xmlns="http://www.w3.org/2000/svg" xmlns:xlink="http://www.w3.org/1999/xlink" x="0px" y="0px"
	 viewBox="0 0 16.1 16" style="enable-background:new 0 0 16.1 16;" xml:space="preserve">
<title>US Flag</title>
<desc>Shop Casper Mattresses in the United States</desc>
<style type="text/css">
	.st0{fill:#ED5A4D;}
	.st1{fill:#FFFFFF;}
	.st2{fill:#00237E;}
</style>
<g id="XMLID_510_">
	<path id="XMLID_548_" class="st0" d="M13.1,1.8h-4V0.1C10.6,0.3,12,0.9,13.1,1.8z"/>
	<path id="XMLID_536_" class="st1" d="M14.8,3.6H9.2V1.8h4C13.8,2.3,14.3,2.9,14.8,3.6z"/>
	<path id="XMLID_535_" class="st0" d="M15.6,5.4H9.1V3.6h5.6C15.1,4.1,15.4,4.8,15.6,5.4z"/>
	<path id="XMLID_534_" class="st1" d="M16,7.2H9.1V5.4h6.5C15.8,6,16,6.6,16,7.2z"/>
	<path id="XMLID_533_" class="st0" d="M16.1,8c0,0.3,0,0.7-0.1,1H0.1C0.1,8.7,0,8.3,0,8s0-0.5,0-0.8h15.9C16.1,7.5,16.1,7.7,16.1,8z
		"/>
	<path id="XMLID_532_" class="st1" d="M16,9c-0.1,0.6-0.2,1.2-0.5,1.8h-15C0.3,10.2,0.1,9.6,0,9H16z"/>
	<path id="XMLID_531_" class="st0" d="M15.6,10.8c-0.2,0.6-0.6,1.2-1,1.8H1.5c-0.4-0.5-0.7-1.2-1-1.8H15.6z"/>
	<path id="XMLID_530_" class="st1" d="M14.6,12.6c-0.5,0.7-1.1,1.3-1.7,1.8H3.3c-0.7-0.5-1.3-1.1-1.7-1.8H14.6z"/>
	<path id="XMLID_529_" class="st0" d="M12.9,14.4c-1.2,0.9-2.7,1.5-4.4,1.6c-0.1,0-0.3,0-0.4,0c-0.2,0-0.3,0-0.5,0
		c-1.6-0.1-3.1-0.7-4.3-1.6H12.9z"/>
	<path id="XMLID_528_" class="st2" d="M9.1,0.1v7.1h-9c0.4-4,3.8-7.2,8-7.2C8.4,0,8.8,0,9.1,0.1z"/>
</g>
</svg>
