<?xml version="1.0" encoding="utf-8"?>
<!-- Generator: Adobe Illustrator 18.1.1, SVG Export Plug-In . SVG Version: 6.00 Build 0)  -->
<!DOCTYPE svg PUBLIC "-//W3C//DTD SVG 1.1//EN" "http://www.w3.org/Graphics/SVG/1.1/DTD/svg11.dtd">
<svg version="1.1" id="Layer_1"
	 xmlns="http://www.w3.org/2000/svg" xmlns:xlink="http://www.w3.org/1999/xlink" x="0px" y="0px" viewBox="-380 292 30 30"
	 enable-background="new -380 292 30 30" xml:space="preserve">
<title>American Flag</title>
<desc>Shop Casper Mattresses in the United States</desc>

<path id="Fill-1" d="M-377.5,315.2h19.6h5.4c0.7-1.1,1.3-2.4,1.8-3.7h-28.6
	C-378.9,312.9-378.3,314.1-377.5,315.2"/>
<path id="Fill-3" d="M-365,322c3.8,0,7.2-1.4,9.8-3.7h-19.7
	C-372.2,320.6-368.8,322-365,322"/>
<g id="Clip-6">
</g>
<polygon points="-362.7,297.8 -362.3,299.1 -363.3,298.3 -364.3,299.1 -363.9,297.8 -365,297.1 -363.7,297.1
	-363.3,295.8 -362.9,297.1 -361.6,297.1 "/>
<polygon points="-362.3,304.6 -363.3,303.9 -364.3,304.6 -363.9,303.4 -365,302.6 -363.7,302.6 -363.3,301.4
	-362.9,302.6 -361.6,302.6 -362.7,303.4 "/>
<polygon points="-366.5,301.1 -367.6,301.8 -367.2,300.6 -368.2,299.8 -366.9,299.8 -366.5,298.6 -366.1,299.8
	-364.9,299.8 -365.9,300.6 -365.5,301.8 "/>
<polygon points="-368.7,304.6 -369.7,303.9 -370.8,304.6 -370.4,303.4 -371.4,302.6 -370.1,302.6 -369.7,301.4
	-369.4,302.6 -368.1,302.6 -369.1,303.4 "/>
<polygon points="-372.9,301.1 -373.9,301.8 -373.6,300.6 -374.6,299.8 -373.3,299.8 -372.9,298.6 -372.5,299.8
	-371.3,299.8 -372.3,300.6 -371.9,301.8 "/>
<polygon points="-375.1,304.6 -376.1,303.9 -377.2,304.6 -376.8,303.4 -377.8,302.6 -376.5,302.6 -376.1,301.4
	-375.8,302.6 -374.5,302.6 -375.5,303.4 "/>
<polygon points="-370.1,297.1 -369.7,295.8 -369.4,297.1 -368.1,297.1 -369.1,297.8 -368.7,299.1 -369.7,298.3
	-370.8,299.1 -370.4,297.8 -371.4,297.1 "/>
<path d="M-350.1,304.9h-9.6v-3.1h8.8c-0.4-1.1-0.9-2.1-1.5-3h-7.3v-3.1h4.7c-2.6-2.3-6.1-3.7-9.9-3.7
	c-8.3,0-15,6.7-15,15c0,0.5,0,1,0.1,1.5h22.7h7.2c0-0.5,0.1-1,0.1-1.5C-350,306.3-350.1,305.6-350.1,304.9L-350.1,304.9z"/>
</svg>
