<svg id="visa" xmlns="http://www.w3.org/2000/svg" viewBox="-428 280.2 63.6 44.8"><title>Visa Card</title><desc>Visa Card</desc><path d="M-381.1 311.9v-2.7l-.6.3-.3-.8 1.5-.6h.3v3.8m1.2 0v-.5c.5-.5.9-.8 1.1-1.1.3-.3.4-.6.4-.8 0-.3-.2-.5-.6-.5-.2 0-.4.1-.7.2l-.3-.7c.4-.2.7-.4 1.1-.4.8 0 1.3.5 1.3 1.2 0 .3-.1.7-.4 1-.2.2-.4.5-.8.7h1.3v.8l-2.4.1zm4.9-2.2c.8.1 1.1.5 1.1 1 0 .6-.6 1.3-1.5 1.3-.4 0-.8-.1-1-.2l.2-.8c.3.1.5.1.8.1s.6-.1.6-.4c0-.2-.2-.4-.6-.4-.2 0-.3 0-.5.1l-.2-.4 1-1h-1.2v-.8h2.4v.6l-1.1.9z"/><path d="M-372 280.1h-48.4c-4.2 0-7.6 3.5-7.6 7.7v29.5c0 4.3 3.4 7.7 7.6 7.7h48.4c4.2 0 7.6-3.4 7.6-7.7v-29.5c0-4.3-3.4-7.7-7.6-7.7zm-48.4 2.5h48.4c2.9 0 5.2 2.3 5.2 5.2v5.4h-58.8v-5.4c0-2.9 2.3-5.2 5.2-5.2zm48.4 39.9h-48.4c-2.9 0-5.2-2.3-5.2-5.2v-15.5h58.8v15.5c0 2.9-2.3 5.2-5.2 5.2z"/></svg>
