<?xml version="1.0" encoding="utf-8"?>
<!-- Generator: Adobe Illustrator 18.1.1, SVG Export Plug-In . SVG Version: 6.00 Build 0)  -->
<svg version="1.1" id="Layer_1" xmlns="http://www.w3.org/2000/svg" xmlns:xlink="http://www.w3.org/1999/xlink" x="0px" y="0px"
	 viewBox="0 0 32 32" enable-background="new 0 0 32 32" xml:space="preserve">
<title>Cool and Bounce icon</title>
<desc>Abstract icon showing mattress layers.</desc>
<ellipse fill="none" stroke="#000000" stroke-linecap="round" stroke-linejoin="round" stroke-miterlimit="10" cx="16" cy="16" rx="15.5" ry="15.1"/>
<line fill="none" stroke="#000000" stroke-linejoin="round" stroke-miterlimit="10" x1="0.5" y1="16" x2="31.5" y2="16"/>
<line fill="none" stroke="#000000" stroke-linecap="round" stroke-linejoin="round" stroke-miterlimit="10" x1="5.3" y1="13.1" x2="5.3" y2="5.1"/>
<line fill="none" stroke="#000000" stroke-linecap="round" stroke-linejoin="round" stroke-miterlimit="10" x1="10.6" y1="13.1" x2="10.6" y2="2.1"/>
<line fill="none" stroke="#000000" stroke-linecap="round" stroke-linejoin="round" stroke-miterlimit="10" x1="21.3" y1="13.1" x2="21.3" y2="2.1"/>
<line fill="none" stroke="#000000" stroke-linecap="round" stroke-linejoin="round" stroke-miterlimit="10" x1="16" y1="13.1" x2="16" y2="1.2"/>
<line fill="none" stroke="#000000" stroke-linecap="round" stroke-linejoin="round" stroke-miterlimit="10" x1="26.6" y1="13.1" x2="26.6" y2="5"/>
<g>
	<g>
		<ellipse cx="4.3" cy="18.8" rx="0.8" ry="0.8"/>
		<ellipse cx="7.2" cy="18.8" rx="0.8" ry="0.8"/>
		<ellipse cx="10.1" cy="18.8" rx="0.8" ry="0.8"/>
		<ellipse cx="13" cy="18.8" rx="0.8" ry="0.8"/>
		<ellipse cx="15.9" cy="18.8" rx="0.8" ry="0.8"/>
		<ellipse cx="18.9" cy="18.8" rx="0.8" ry="0.8"/>
		<ellipse cx="21.8" cy="18.8" rx="0.8" ry="0.8"/>
		<ellipse cx="24.7" cy="18.8" rx="0.8" ry="0.8"/>
		<ellipse cx="27.6" cy="18.8" rx="0.8" ry="0.8"/>
		<ellipse cx="1.3" cy="18.8" rx="0.8" ry="0.8"/>
		<ellipse cx="27.6" cy="18.8" rx="0.8" ry="0.8"/>
		<ellipse cx="30.6" cy="18.8" rx="0.8" ry="0.8"/>
	</g>
	<g>
		<ellipse cx="5.7" cy="22" rx="0.8" ry="0.8"/>
		<ellipse cx="8.6" cy="22" rx="0.8" ry="0.8"/>
		<ellipse cx="11.6" cy="22" rx="0.8" ry="0.8"/>
		<ellipse cx="14.5" cy="22" rx="0.8" ry="0.8"/>
		<ellipse cx="17.4" cy="22" rx="0.8" ry="0.8"/>
		<ellipse cx="20.3" cy="22" rx="0.8" ry="0.8"/>
		<ellipse cx="23.3" cy="22" rx="0.8" ry="0.8"/>
		<ellipse cx="26.2" cy="22" rx="0.8" ry="0.8"/>
		<ellipse cx="2.8" cy="22" rx="0.8" ry="0.8"/>
		<ellipse cx="29.1" cy="22" rx="0.8" ry="0.8"/>
	</g>
	<g>
		<ellipse cx="7.2" cy="25.2" rx="0.8" ry="0.8"/>
		<ellipse cx="4.3" cy="25.2" rx="0.8" ry="0.8"/>
		<ellipse cx="10.1" cy="25.2" rx="0.8" ry="0.8"/>
		<ellipse cx="13" cy="25.2" rx="0.8" ry="0.8"/>
		<ellipse cx="15.9" cy="25.2" rx="0.8" ry="0.8"/>
		<ellipse cx="18.9" cy="25.2" rx="0.8" ry="0.8"/>
		<ellipse cx="21.8" cy="25.2" rx="0.8" ry="0.8"/>
		<ellipse cx="24.7" cy="25.2" rx="0.8" ry="0.8"/>
		<ellipse cx="27.6" cy="25.2" rx="0.8" ry="0.8"/>
	</g>
	<g>
		<ellipse cx="8.6" cy="28.4" rx="0.8" ry="0.8"/>
		<ellipse cx="11.6" cy="28.4" rx="0.8" ry="0.8"/>
		<ellipse cx="14.5" cy="28.4" rx="0.8" ry="0.8"/>
		<ellipse cx="17.4" cy="28.4" rx="0.8" ry="0.8"/>
		<ellipse cx="20.3" cy="28.4" rx="0.8" ry="0.8"/>
		<ellipse cx="23.3" cy="28.4" rx="0.8" ry="0.8"/>
	</g>
</g>
</svg>
