<?xml version="1.0" encoding="utf-8"?>
<!-- Generator: Adobe Illustrator 19.0.0, SVG Export Plug-In . SVG Version: 6.00 Build 0)  -->
<svg version="1.1" id="Layer_19" xmlns="http://www.w3.org/2000/svg" xmlns:xlink="http://www.w3.org/1999/xlink" x="0px" y="0px"
	 width="68.4px" height="27px" viewBox="0 0 68.4 27" style="enable-background:new 0 0 68.4 27;" xml:space="preserve">
<g>
	<path style="fill:#7D7D7D;" d="M63.4,17.5H61c-0.5,0-0.9,0.4-0.9,0.9c0,0.5,0,1.1,0,1.6c0,0.5,0.4,0.9,0.9,0.9c0.4,0,0.8,0,1.2,0
		h1.1c0.5,0,0.9-0.4,0.9-0.9c0-0.5,0-1.1,0-1.6C64.3,17.9,63.9,17.5,63.4,17.5z"/>
	<path style="fill:#7D7D7D;" d="M68.2,6.2c-0.2-1-0.7-1.8-1.5-2.5c-0.9-0.7-2-1.1-3.2-1.1c-1-0.1-2,0-3,0.3c-0.8,0.2-1.6,0.5-2.2,1
		c-0.1,0.1-0.1,0.1-0.1,0.2v2.2c0,0.1,0,0.1,0,0.2c0.3-0.1,0.5-0.1,0.8-0.1c0.6-0.1,1.1-0.1,1.7-0.2c0.8-0.1,1.5-0.1,2.2,0.1
		c0.9,0.2,1.6,0.7,1.6,1.8c0,0.6-0.1,1.2-0.6,1.6c-0.5,0.5-1.1,1-1.7,1.5c-0.4,0.3-0.8,0.7-1.1,1c-0.6,0.7-0.8,1.5-0.8,2.4
		c0,0.6,0,1.2,0,1.8v0.2h3.8v-1.2c0-0.8,0.3-1.5,0.8-2c0.3-0.3,0.7-0.6,1.1-0.9c0.8-0.6,1.4-1.3,1.8-2.2C68.4,8.9,68.5,7.6,68.2,6.2
		z"/>
	<path style="fill:#7D7D7D;" d="M58.8,10.4C58.6,9.4,58,8.6,57,8.3c-0.9-0.3-1.8-0.3-2.6-0.1c-0.9,0.2-1.8,0.4-2.6,1
		c0,0-0.1,0-0.1,0.1V5.8c0-0.2,0-0.3,0-0.5c-0.1-0.5-0.3-0.9-0.8-1c-0.2,0-0.3-0.1-0.4-0.1h-2.5v16.6h3.8v-8.8c0-0.2-0.1-0.4,0-0.5
		c0.1-0.1,0.3-0.1,0.5-0.2c0.7-0.1,1.3-0.2,2-0.2c0.5,0.1,0.8,0.3,0.9,0.8c0,0.1,0,0.3,0,0.4v8.5h3.8v-0.2c0-3.1,0-6.2,0-9.3
		C58.9,11,58.9,10.7,58.8,10.4z"/>
	<path style="fill:#7D7D7D;" d="M43.2,11.3c0.7-0.1,1.3-0.1,2,0c0.6,0.1,1.1,0.2,1.7,0.2c0,0,0-0.1,0-0.1c0-0.7,0-1.5,0-2.2
		c0-0.1-0.1-0.2-0.1-0.2c-0.3-0.3-0.7-0.5-1.1-0.6C44.4,8,43,8,41.7,8.3c-1.7,0.3-3,1.3-3.8,2.8c-0.5,0.9-0.7,1.9-0.8,2.9
		c-0.1,1.1,0,2.3,0.4,3.4c0.6,1.8,1.8,3,3.7,3.6c1.3,0.4,2.6,0.4,4,0.1c0.6-0.1,1.2-0.3,1.7-0.8c0.1-0.1,0.1-0.2,0.1-0.2
		c0-0.7,0-1.4,0-2.1v-0.2c-0.1,0-0.1,0-0.2,0c-1,0.2-2,0.3-3.1,0.3c-1.2,0-2.1-0.7-2.5-1.8c-0.4-1.1-0.4-2.2,0-3.3
		C41.6,12,42.2,11.5,43.2,11.3z"/>
	<path style="fill:#7D7D7D;" d="M32.4,8.7v12.1c0,0.1,0,0.1,0,0.2h3.8V8.4h-3.6C32.4,8.4,32.4,8.4,32.4,8.7z"/>
	<path style="fill:#7D7D7D;" d="M35.5,4.3h-2.4c-0.5,0-0.8,0.4-0.8,0.8c0,0.5,0,0.9,0,1.4c0,0.5,0.3,0.9,0.8,0.9h2.4
		c0.5,0,0.9-0.4,0.9-0.9V5.2C36.4,4.7,36,4.3,35.5,4.3z"/>
	<path style="fill:#7D7D7D;" d="M29.4,8.3c-0.7-0.2-1.5-0.2-2.2-0.1c-1.1,0.1-2.1,0.4-2.9,1.1c0,0,0,0-0.1,0V9.1c0-1.2,0-2.3,0-3.5
		c0-0.6-0.3-1-0.8-1.2c-0.1,0-0.3-0.1-0.4-0.1h-2.5v16.6h3.8v-9.4c0.3-0.1,0.6-0.1,0.9-0.2c0.5-0.1,1.1-0.2,1.6-0.1
		c0.5,0.1,0.8,0.3,0.9,0.8c0,0.2,0,0.3,0,0.5v8.4h3.8v-9.3c0-0.4,0-0.7-0.1-1.1C31.2,9.4,30.5,8.6,29.4,8.3z"/>
	<path style="fill:#7D7D7D;" d="M15.9,4.5c-0.5,2.9-1.1,5.8-1.7,8.7c-0.1,0.3-0.1,0.5-0.2,0.8c0-0.1-0.1-0.1-0.1-0.2
		c-0.6-2.6-1.3-5.3-1.9-7.9c0-0.2-0.1-0.3-0.2-0.5c-0.3-0.8-0.7-1.1-1.6-1.1H8.5c-0.1,0-0.2,0-0.2,0.2c-0.6,2.6-1.2,5.3-1.8,7.9
		C6.3,13,6.2,13.5,6,14.1C6,14,6,14,6,13.9c-0.2-1.2-0.5-2.4-0.7-3.6C4.9,8.4,4.5,6.5,4.1,4.5c0-0.2-0.1-0.2-0.2-0.2H0.3
		c-0.1,0-0.1,0-0.2,0c0,0.1,0,0.1,0,0.2c0.5,2.4,1.1,4.7,1.7,7.1c0.7,3,1.4,6.1,2.1,9.1c0,0.1,0.1,0.2,0.2,0.2c1.1,0,2.1,0,3.2,0
		c0.1,0,0.2-0.1,0.2-0.2c0.7-2.6,1.4-5.3,2.1-7.9c0.1-0.4,0.2-0.9,0.3-1.3h0c0.8,3.1,1.7,6.2,2.5,9.3c0,0,0,0,0.1,0
		c1.1,0,2.2,0,3.3,0c0,0,0.1-0.1,0.1-0.1c0.1-0.4,0.2-0.8,0.3-1.2c1.1-4.7,2.2-9.5,3.4-14.2c0.1-0.3,0.2-0.7,0.2-1.1h-3.6
		C16,4.3,15.9,4.4,15.9,4.5z"/>
</g>
</svg>
