<svg xmlns="http://www.w3.org/2000/svg" viewBox="0 0 58 42">
  <title>Whiteglove Icon</title>
  <desc>A hand catching some ZZZs</desc>
  <g fill="none" fill-rule="evenodd" stroke-linecap="round" stroke-linejoin="round" stroke-width="1.5" transform="translate(1.606 .956)">
    <path d="M2.84217094e-14 25.9652643L6.44915676 25.9652643 6.44915676 25.9652643C7.16802641 25.9652643 7.86299677 25.7071305 8.40756137 25.2378513L15.8788305 18.7994759 15.8788305 18.7994759C16.7864381 18.0173438 17.9447221 17.5871208 19.1428382 17.5871208L35.1229315 17.5871208 35.1229315 17.5871208C35.9050389 17.5871208 36.6026685 18.0788924 36.865524 18.8155056L36.8978463 18.9060838 36.8978463 18.9060838C37.154821 19.6262169 37.0748958 20.4236777 36.6801178 21.0784891L36.6154868 21.1856915 36.6154868 21.1856915C36.2666675 21.7642721 35.649326 22.1276437 34.9741612 22.1517875L25.6914162 22.4837371 39.2518636 22.1421021 39.2518636 22.1421021C40.0097084 22.1230094 40.7532905 21.9318414 41.4263743 21.5830557L49.2103314 17.549483 49.2103314 17.549483C50.7765127 16.7379027 52.6580249 16.8306792 54.1367653 17.7924034L55.2032547 18.4860131 55.2032547 18.4860131C55.6662367 18.7871213 55.7974613 19.4065388 55.496353 19.8695207 55.4154651 19.9938934 55.3079164 20.0987095 55.1815035 20.1763703L42.5688903 27.9248394 42.5688903 27.9248394C41.5256195 28.5657654 40.3735128 29.0096454 39.1698979 29.2343926L16.3344444 33.4983833 16.3344444 33.4983833C15.8819045 33.5828846 15.4240696 33.6360353 14.9642066 33.6574562L8.60998154 33.9534416 8.60998154 33.9534416C8.05829499 33.9791397 7.59023228 33.5527417 7.56453424 33.0010552 7.56381225 32.9855555 7.56345111 32.9700412 7.56345111 32.9545247L7.56345111 25.9652643 7.56345111 37.3836853 7.56345111 37.3836853C7.56345111 38.4882548 6.66802061 39.3836853 5.56345111 39.3836853L2.84217094e-14 39.3836853M4.5 31.5L4.5 34.5"/>
    <polyline points="40.766 7.966 44.51 7.966 40.766 11.815 44.51 11.815"/>
    <polyline points="31.847 4.384 36.143 4.384 31.847 8.8 36.143 8.8"/>
    <polyline points="22.394 .169 27.566 .169 22.394 5.487 27.566 5.487"/>
  </g>
</svg>
