<svg id="Layer_1" data-name="Layer 1" xmlns="http://www.w3.org/2000/svg" viewBox="0 0 45 25"><title>Star</title><desc>White Glove Star</desc><path d="M28.916,21.921a0.574,0.574,0,0,1-.264-0.064l-5.836-3.048-5.837,3.048a0.569,0.569,0,0,1-.825-0.6l1.068-6.552-4.679-4.666a0.57,0.57,0,0,1,.316-0.966l6.5-1,2.949-5.933a0.569,0.569,0,0,1,.51-0.315h0a0.569,0.569,0,0,1,.51.315l2.948,5.933,6.5,1a0.57,0.57,0,0,1,.316.966L28.41,14.708l1.067,6.552A0.569,0.569,0,0,1,28.916,21.921Zm-6.1-4.324a0.571,0.571,0,0,1,.264.064L28.17,20.32,27.239,14.6a0.567,0.567,0,0,1,.159-0.5l4.089-4.077L25.81,9.159a0.568,0.568,0,0,1-.424-0.309L22.816,3.68,20.245,8.851a0.568,0.568,0,0,1-.424.309l-5.676.871,4.089,4.077a0.567,0.567,0,0,1,.159.5L17.46,20.32l5.092-2.659A0.571,0.571,0,0,1,22.816,17.6Z"/></svg>
