<?xml version="1.0" encoding="utf-8"?>
<!-- Generator: Adobe Illustrator 18.1.1, SVG Export Plug-In . SVG Version: 6.00 Build 0)  -->
<svg version="1.1" id="Layer_1" xmlns="http://www.w3.org/2000/svg" xmlns:xlink="http://www.w3.org/1999/xlink" x="0px" y="0px"
	 viewBox="0 0 32 32" enable-background="new 0 0 32 32" xml:space="preserve">
<title>Keeps you cool icon</title>
<desc>Line drawing of wind gust.</desc>
<g>
	
		<line fill="none" stroke-linecap="round" stroke-linejoin="round" stroke-miterlimit="10" x1="6.1" y1="13.1" x2="4.3" y2="13.1"/>
	<path fill="none" stroke-linecap="round" stroke-linejoin="round" stroke-miterlimit="10" d="M16.5,9.7
		c0-1.9,1.6-3.4,3.6-3.4s3.6,1.5,3.6,3.4s-1.6,3.4-3.6,3.4H8.8"/>
	<path fill="none" stroke-linecap="round" stroke-linejoin="round" stroke-miterlimit="10" d="M16.5,22.3
		c0,1.9,1.6,3.4,3.6,3.4s3.6-1.5,3.6-3.4c0-1.9-1.6-3.4-3.6-3.4H4.3"/>
	
		<line fill="none" stroke-linecap="round" stroke-linejoin="round" stroke-miterlimit="10" x1="11.8" y1="16" x2="0.5" y2="16"/>
	<path fill="none" stroke-linecap="round" stroke-linejoin="round" stroke-miterlimit="10" d="M27.1,11.8
		c0.5-0.4,1.1-0.7,1.8-0.7c1.4,0,2.6,1.1,2.6,2.5S30.3,16,28.9,16H14.5"/>
</g>
</svg>
