<svg viewBox="-108 59 134 27">
<title>Wired magazine logo</title>
  <path d="M13,66.4H7.5v12.1h5.8C16,78.5,16,75,16,75v-4.7C16,66.1,13,66.4,13,66.4z"></path>
  <path d="M-2.2,59v27h26.5V59H-2.2z M13.4,81.7c-6.6,0-9.6,0.1-9.6,0.1V63.3h7.9c0,0,8.1-0.9,8.1,6.4v5.1
C19.7,74.9,20,81.7,13.4,81.7L13.4,81.7z M-55,86h26.5V59H-55V86L-55,86z M-48.9,63.3h10.5c0,0,4.5-0.3,4.5,4.7s-2.8,5.2-2.8,5.2
s2.8,0.2,2.8,4v4.2h-3.6v-4c0,0,0-3.1-2.1-3.1s-5.8,0.1-5.8,0.1v7h-3.6L-48.9,63.3L-48.9,63.3z"></path>
  <path d="M-37.5,68.6c0-2.6-2.8-2.2-2.8-2.2h-5.1v5c0,0,2.8-0.1,5-0.1C-38,71.4-37.5,70.9-37.5,68.6L-37.5,68.6z M-108,86h26.5V59
H-108V86L-108,86z M-102.1,63.4l2.5,13.9l3.2-13.9l4,0.1l3.2,14l2.4-14.1h3.5L-87,81.5h-4.5l-2.9-13.2l-3.2,13.3h-4.5l-3.7-18.2
H-102.1z M-74.3,66.3h4.5v12.1h-4.5v3.1h12.8v-3.1h-4.9V66.3h4.9v-3.1h-12.8V66.3z M-23.6,66.3h2.5v12.2h-2.5v3h15.5v-5.9h-3.1v2.9
h-6.6v-5h4.9v-3h-4.9v-4.3h6.3v2.9h3.3v-5.9h-15.5"></path>
</svg>
