<?xml version="1.0" encoding="utf-8"?>
<svg version="1.1" id="Layer_1" xmlns="http://www.w3.org/2000/svg" xmlns:xlink="http://www.w3.org/1999/xlink" x="0px" y="0px"
	 width="30px" height="30px" viewBox="0 0 30 30" style="enable-background:new 0 0 30 30;" xml:space="preserve">
<title>X Circle</title><desc>X inside a circle</desc>
<path d="M15,29.5C7,29.5,0.5,23,0.5,15S7,0.5,15,0.5S29.5,7,29.5,15C29.5,23,23,29.5,15,29.5z M15,1.5
	C7.6,1.5,1.5,7.6,1.5,15c0,7.4,6,13.5,13.5,13.5c7.4,0,13.5-6,13.5-13.5C28.5,7.6,22.4,1.6,15,1.5z"/>
<path class="st0" d="M19.8,20.3c-0.1,0-0.3-0.1-0.4-0.2l-9.6-9.6c-0.2-0.2-0.2-0.6,0-0.8s0.6-0.2,0.8,0l0,0l9.6,9.6
	c0.2,0.2,0.2,0.6,0,0.8C20.1,20.3,19.9,20.3,19.8,20.3z"/>
<path d="M10.2,20.3c-0.3,0-0.5-0.2-0.5-0.5c0-0.1,0.1-0.3,0.2-0.4l9.6-9.6c0.2-0.2,0.6-0.2,0.8,0s0.2,0.6,0,0.8l0,0
	l-9.6,9.6C10.5,20.3,10.4,20.3,10.2,20.3z"/>
</svg>
