<?xml version="1.0" encoding="utf-8"?>
<!-- Generator: Adobe Illustrator 18.1.1, SVG Export Plug-In . SVG Version: 6.00 Build 0)  -->
<svg version="1.1" id="Layer_1" xmlns="http://www.w3.org/2000/svg" xmlns:xlink="http://www.w3.org/1999/xlink" x="0px" y="0px"
	 viewBox="0 0 19.3 17.7" style="enable-background:new 0 0 19.3 17.7;" xml:space="preserve">
<title>Holiday present</title>
<desc>A line drawing of a gift from Casper</desc>

<path d="M18.5,2.8h-3.8C14.7,1.3,13.4,0,11.8,0c-0.9,0-1.6,0.4-2.2,1C9.1,0.4,8.3,0,7.5,0C5.9,0,4.6,1.3,4.5,2.8H0.8
	C0.3,2.8,0,3.2,0,3.6v3.5c0,0.4,0.3,0.8,0.8,0.8h0.6v9.1c0,0.4,0.3,0.8,0.8,0.8h15.1c0.4,0,0.8-0.3,0.8-0.8V7.9h0.6
	c0.4,0,0.8-0.3,0.8-0.8V3.6C19.3,3.2,18.9,2.8,18.5,2.8z M17.8,6.4h-0.6h-6.8v-2h7.4V6.4z M11.8,1.5c0.7,0,1.4,0.6,1.4,1.3h-2.8
	C10.4,2.1,11.1,1.5,11.8,1.5z M7.5,1.5c0.7,0,1.4,0.6,1.4,1.3H6C6.1,2.1,6.7,1.5,7.5,1.5z M1.5,4.3h7.4v2H2.1H1.5V4.3z M2.8,7.9h6.1
	v8.3H2.8V7.9z M16.4,16.2h-6.1V7.9h6.1V16.2z"/>
</svg>
