<svg xmlns="http://www.w3.org/2000/svg" width="202.1" height="27" viewBox="0 0 202.1 27"><g fill="#7D7D7D"><title>Zeitung</title><desc>Zeitung Logo</desc><path d="M5.47 3.93c-1.52.32-2.61.9-3.58 1.88-1.73 1.76-1.64 4.13.22 5.98.78.77 1.95 1.41 3.44 1.85.57.17 1.5.46 2.08.63 2.04.62 3.46 1.49 4.02 2.46.98 1.7-.54 3.31-2.87 3.05-1.63-.19-3.83-1.13-5.57-2.39l-.99-.72-1.1 1.09c-.94.94-1.1 1.14-1.1 1.43 0 .17.05.35.11.39.06.03.36-.18.68-.5l.58-.57.25.21c.42.33 1.96 1.07 2.96 1.41 1.38.47 2.75.7 4.06.7 1.8 0 2.99-.39 3.98-1.34.99-.93 1.47-2.02 1.49-3.37.01-.97-.13-1.49-.57-2.14-.83-1.23-3.28-2.58-7-3.84-1.74-.6-2.56-.98-3.15-1.5-.56-.49-.75-.85-.75-1.39 0-.52.19-.89.66-1.3.84-.75 1.73-.98 3.45-.91 1.86.08 3.41.67 5.53 2.08l.99.66.83-.71c.47-.39 1.01-.86 1.22-1.05l.39-.33-.25-.23-.24-.23-.54.45-.53.45-.68-.45C11.01 4.06 8 3.4 5.47 3.93zM128.31 4.77c-.07 1.11-.08 1.9-.01 1.9.03 0 .22-.11.44-.24.81-.51 2.1-1.09 2.84-1.3.6-.15 1.22-.21 2.83-.25 1.99-.06 2.07-.05 2.01.13-.03.1-1.55 3.56-3.37 7.68-1.82 4.12-3.35 7.59-3.4 7.71l-.09.23h10.08l.32-.78c.18-.43.31-.78.3-.8-.02-.01-.58.09-1.25.22-2.46.49-5.51.72-5.39.42.03-.08 1.52-3.57 3.31-7.77s3.3-7.73 3.35-7.87l.09-.22h-12.01l-.05.94zM17.51 6.75c-.51.5-.6.95-.32 1.57.26.6.63.83 1.29.83 1.35 0 1.92-1.58.91-2.47-.31-.27-.44-.31-.93-.31-.52 0-.59.03-.95.38zM24.22 6.57c-.93.57-.83 2.02.16 2.48 1.26.56 2.5-.77 1.83-1.94-.12-.22-.35-.48-.51-.57-.37-.23-1.07-.22-1.48.03zM152.68 6.57c-.42.24-.64.68-.64 1.21 0 1.38 1.83 1.91 2.58.77.43-.64.22-1.6-.4-1.98-.43-.26-1.12-.26-1.54 0zM35.13 8.44v.46h1.02v2.64l-.58-.39c-.91-.61-1.46-.77-2.51-.76-.76 0-1.02.05-1.62.29-.9.37-2 1.43-2.42 2.31-1.14 2.46-.39 5.87 1.58 7.18 1.45.97 3.29.9 4.89-.16l.66-.45v1.1h2.84V8h-3.84v.44zm-.38 3.23c.88.36 1.39 1.48 1.47 3.19.1 2.53-.79 4.57-2.09 4.74-.59.08-1.08-.04-1.44-.34-1.21-1.01-1.54-4.43-.61-6.37.24-.5.76-1.04 1.16-1.21.41-.18 1.1-.18 1.51-.01zM47.27 8.44v.46h1.02v2.64l-.58-.38c-1.08-.73-2.11-.96-3.22-.73-2.47.51-4.1 2.85-3.86 5.56.13 1.4.48 2.39 1.17 3.31 1.39 1.83 4.13 2.08 6.1.53l.37-.3v1.14h2.94l-.02-6.31-.03-6.3-1.94-.03-1.95-.02v.43zm-.37 3.23c.18.07.47.29.65.5 1.38 1.57 1.02 6.02-.59 7.17-.51.35-1.44.39-1.91.07-1.69-1.14-1.8-5.78-.17-7.35.52-.51 1.35-.67 2.02-.39zM102.89 8.13c-.03.08-.04.27-.02.44.03.26.06.28.57.31l.53.03v11.73h3.14v-7.06l.69-.65c.88-.82 1.42-1.09 2.19-1.09.51 0 .62.04.87.29.6.59.66 1.08.66 4.99v3.52H114.29l.08-2.21c.04-1.2.08-3.11.08-4.22.01-1.9 0-2.05-.22-2.54-.42-.9-1.03-1.34-2.17-1.51-1.05-.16-2.81.53-4.16 1.62-.37.3-.7.56-.73.56-.03 0-.05-.98-.05-2.18V7.98h-2.08c-1.72.01-2.11.04-2.15.15zM80.7 8.5c-.17.12-.77.42-1.32.66-.71.32-.99.5-1.01.64-.03.19-.12.21-1.11.23l-1.08.03-.03.37-.03.38h2.22l-.06 4.91-.06 4.91h3.08l-.07-4.91-.07-4.91H83.31v-.8h-2.12v-.86c0-.48-.03-.86-.07-.86-.06 0-.24.1-.42.21zM160.12 8.61c-.27.16-.86.46-1.32.64-.62.25-.85.39-.87.55-.03.18-.12.21-.96.23l-.93.03-.03.37-.03.38h1.96l-.06 4.91-.07 4.91H160.96l-.05-1.5c-.03-.82-.08-3.03-.11-4.91l-.06-3.41h3.28l-.06.48c-.34 2.82-.42 4.03-.3 5.58.22 3.04.85 4.07 2.48 4.07 1.1 0 2.61-.54 4.41-1.56l.63-.36v1.62h3.04V10.02h-4.66v.79l.79.03.78.03.02 3.44.03 3.44-.72.53c-1.46 1.08-2.64 1.45-3.16.96-.33-.31-.46-.78-.6-2.29-.09-1-.09-1.86 0-3.75.07-1.35.15-2.61.19-2.82l.06-.37h-6.21v-.86c0-.48-.03-.86-.07-.85-.05 0-.29.14-.55.31zM57.79 10.02c-3.05.45-5.21 3.12-4.9 6.04.2 1.92 1.37 3.8 2.84 4.6 1.44.78 3.74.79 5.35.03.62-.29 1.57-1.02 1.57-1.2 0-.06-.18-.29-.4-.52l-.39-.38-.46.42c-.54.5-1.27.88-1.85.98-.88.14-2.02-.45-2.57-1.33-.21-.35-.21-.36-.03-.54.11-.1 1.52-1.33 3.15-2.73s2.98-2.58 3.01-2.63c.03-.04-.14-.31-.38-.6-1.45-1.68-3.13-2.41-4.94-2.14zm1.88 1.04c.19.08.51.27.7.42.43.32 1.03 1.25.91 1.37-.58.54-4.94 4.14-4.98 4.11-.13-.14-.32-1.34-.32-2.1 0-1.09.26-2.02.78-2.69.46-.6.56-.69 1.19-.99.58-.29 1.21-.33 1.72-.12zM86.25 10.06c-1.25.28-2.2.92-2.6 1.75-.29.57-.27 2.15.03 2.7.53.99 1.6 1.64 3.56 2.18 1.53.42 2.06.66 2.49 1.12.45.5.48.94.1 1.4-.64.75-2.24.89-3.87.33-.52-.17-1.21-.46-1.56-.63-.33-.17-.63-.3-.65-.28-.02.02-.14.4-.28.87l-.26.84.27.1c.73.28 2.01.52 3.11.57 2.06.1 3.64-.36 4.67-1.38 1.32-1.29 1.3-3.19-.03-4.36-.65-.57-1.55-.96-3.12-1.37-.75-.19-1.55-.45-1.77-.56-1.05-.54-1.06-1.68-.02-2.16.38-.18.66-.22 1.44-.22 1.12.01 1.89.22 2.98.86.77.46.76.46 1.26-.23l.31-.46-.73-.32c-1.66-.73-3.96-1.06-5.33-.75zM120.6 10.01c-1.77.26-3.55 1.48-4.28 2.91-1.13 2.26-.69 5.03 1.09 6.82 1.17 1.17 2.33 1.58 4.19 1.48 1.47-.08 2.61-.51 3.47-1.31l.44-.4-.36-.45c-.21-.24-.4-.45-.44-.45-.04 0-.26.18-.51.4-1.22 1.13-2.56 1.27-3.77.37-.35-.26-.82-.96-.76-1.12.03-.07 1.45-1.33 3.15-2.8 1.7-1.47 3.1-2.72 3.1-2.78 0-.21-1.21-1.44-1.82-1.85-1.02-.68-2.37-.99-3.5-.82zm2.03 1.16c.64.29 1.47 1.18 1.47 1.55 0 .1-4.74 4.18-4.95 4.26-.11.04-.31-.92-.38-1.8-.1-1.37.31-2.58 1.17-3.44.8-.81 1.77-1.01 2.69-.57z"/><path d="M145 10.01c-1.75.26-3.5 1.45-4.26 2.9-.65 1.21-.8 2.7-.44 4.13.27 1.08.74 1.91 1.52 2.7 1.15 1.17 2.31 1.58 4.18 1.48 1.49-.08 2.77-.58 3.54-1.38l.36-.36-.38-.45-.38-.45-.6.49c-.82.67-1.37.9-2.12.9-.61-.01-1.05-.16-1.56-.56-.3-.24-.81-.91-.82-1.07 0-.07 1.42-1.35 3.14-2.83 1.73-1.49 3.14-2.75 3.14-2.82 0-.21-1.21-1.44-1.82-1.85-1.02-.69-2.37-1-3.5-.83zm2.03 1.16c.64.29 1.47 1.18 1.47 1.55 0 .18-4.89 4.29-4.99 4.19-.05-.05-.16-.51-.25-1.01-.13-.78-.14-1.06-.04-1.73.34-2.39 2.14-3.79 3.81-3zM14.98 10.42v.4h.76c.89 0 .82-.16.61 1.56-.23 1.9-.28 3.36-.16 4.72.19 2.21.58 3.19 1.43 3.62.4.21.56.23 1.32.19 1.14-.07 2.56-.6 4.23-1.58l.53-.31v1.62h3.14l-.02-5.29-.03-5.28-2.35-.03-2.36-.02v.79l.79.03.78.03.02 3.44.02 3.44-.45.35c-1.13.88-2.48 1.5-3.02 1.37-.65-.16-.92-.98-1.04-3.14-.06-1.11.08-4.69.23-5.85l.06-.48h-4.49v.42zM63.37 10.42v.4h1.55l-.07.58c-.38 3.26-.44 4.24-.26 6.02.18 1.85.64 2.92 1.42 3.32 1.03.53 3 .04 5.45-1.36l.63-.36v1.62h3.04V10.02h-4.66v.79l.79.03.78.03v6.87l-.6.49c-.32.26-.93.65-1.36.85-1.26.63-1.94.49-2.24-.45-.26-.85-.35-2.99-.23-5.47.07-1.32.15-2.57.19-2.78l.06-.37h-4.5v.41zM150.32 10.42v.39l.79.03.78.03.03 4.88.02 4.89h3.04V10.02h-4.66v.4zM175.83 10.42v.4h1.12v9.82h3.04v-6.96l.59-.52c1.05-.93 2.08-1.34 2.83-1.13.78.21 1.18 1.02 1.35 2.71.09 1 .05 2.3-.17 5.06l-.07.84h3.09l-.05-3.78c-.03-3.06-.07-3.89-.2-4.4-.34-1.29-.96-2.13-1.76-2.34-1.41-.39-3.11.22-4.94 1.79l-.61.53-.03-1.21-.03-1.21h-4.17v.4zM97.88 10.18c-2.08.34-3.98 2.2-4.36 4.23-.15.81-.05 2.18.21 2.96.45 1.3 1.49 2.55 2.62 3.15 1.52.82 3.8.83 5.36.04.3-.15.57-.32.59-.39.03-.07-.17-.35-.43-.63l-.48-.51-.32.24c-.86.66-2.09.89-2.76.53-.83-.45-1.46-1.4-1.72-2.64-.19-.9-.21-2.77-.04-3.5.29-1.22 1.12-2.3 1.94-2.53.88-.25 2.04.05 2.77.72.23.22.46.39.48.39.03 0 .18-.19.33-.43l.28-.43-.24-.19c-.89-.74-2.92-1.23-4.23-1.01zM193.34 10.26c-2.12.48-3.77 2.06-4.3 4.15-.19.77-.19 2.06 0 2.83.37 1.43 1.58 2.9 2.98 3.63l.75.39-.29.12c-.5.21-.87.7-.92 1.18-.09 1.01.39 1.3 2.43 1.37 1.78.06 2.15.14 2.35.54.22.43.19.69-.13 1.01-.3.3-.87.51-1.4.51-.62 0-1.64-.39-2.3-.9l-.64-.48-.53.39c-.28.22-.51.44-.48.48.13.21 1.49 1.03 2.01 1.22.78.26 2.09.35 2.92.2 1.43-.28 2.55-1.17 2.61-2.09.05-.66-.01-.87-.32-1.22-.6-.68-1.01-.79-2.87-.8-1.74 0-1.96-.06-1.96-.51 0-.47.61-.7 2.45-.95 1.02-.14 1.9-.51 2.73-1.13.72-.54 1.51-1.49 1.81-2.19.47-1.08.51-2.78.09-4.09-.11-.35-.2-.68-.2-.73 0-.04.21-.07.47-.07.89 0 1.46-.49 1.53-1.31.1-1.11-1.13-1.9-2.08-1.33-.39.24-.73.76-.73 1.13 0 .36-.09.35-.47-.03-.44-.46-1.31-.95-2.12-1.2-.92-.25-2.48-.32-3.39-.12zm2.53 1.25c.58.35 1.23 1.32 1.53 2.23.63 2.01.16 4.68-1.02 5.87-.54.54-.97.73-1.65.73-.46 0-.64-.06-1.04-.33-.6-.39-1.16-1.18-1.47-2.02-.3-.88-.38-2.9-.15-3.82.42-1.62 1.17-2.6 2.29-2.95.39-.13 1.01 0 1.51.29z"/></g></svg>