<?xml version="1.0" encoding="utf-8"?>
<!DOCTYPE svg PUBLIC "-//W3C//DTD SVG 1.1//EN" "http://www.w3.org/Graphics/SVG/1.1/DTD/svg11.dtd">
<svg version="1.1" id="Layer_1" xmlns="http://www.w3.org/2000/svg" xmlns:xlink="http://www.w3.org/1999/xlink" x="0px" y="0px"
	 viewBox="0 0 179.4 56" enable-background="new 0 0 179.4 56" xml:space="preserve">
<title>Airbnb Logo</title>
<desc>Airbnb logomark with text</desc>

<path fill-rule="evenodd" clip-rule="evenodd" d="M94.5,14.1c0,2-1.6,3.6-3.6,3.6c-2,0-3.6-1.6-3.6-3.6
	c0-2,1.6-3.6,3.6-3.6C93,10.5,94.5,12.1,94.5,14.1L94.5,14.1z M79.5,21.4c0,0.3,0,0.9,0,0.9s-1.7-2.2-5.4-2.2
	c-6.1,0-10.9,4.7-10.9,11.1c0,6.4,4.7,11.1,10.9,11.1c3.8,0,5.4-2.3,5.4-2.3v1c0,0.4,0.3,0.8,0.8,0.8h4.5V20.6c0,0-4.1,0-4.5,0
	C79.9,20.6,79.5,21,79.5,21.4L79.5,21.4z M79.5,34.9c-0.8,1.2-2.5,2.3-4.5,2.3c-3.6,0-6.3-2.2-6.3-6.1c0-3.8,2.7-6.1,6.3-6.1
	c2,0,3.8,1.1,4.5,2.3V34.9L79.5,34.9z M88.2,20.6h5.4v21.1h-5.4V20.6L88.2,20.6z M168.6,20.1c-3.7,0-5.4,2.2-5.4,2.2V10.5h-5.4v31.2
	c0,0,4.1,0,4.5,0c0.4,0,0.8-0.4,0.8-0.8v-1l0,0c0,0,1.7,2.3,5.4,2.3c6.1,0,10.9-4.7,10.9-11.1S174.6,20.1,168.6,20.1L168.6,20.1z
	 M167.7,37.2c-2.1,0-3.7-1.1-4.5-2.3v-7.5c0.8-1.1,2.6-2.3,4.5-2.3c3.6,0,6.3,2.2,6.3,6.1C174,34.9,171.3,37.2,167.7,37.2
	L167.7,37.2z M155,29.2v12.6h-5.4V29.8c0-3.5-1.1-4.9-4.1-4.9c-1.6,0-3.3,0.8-4.4,2.1v14.7h-5.4V20.6h4.3c0.4,0,0.8,0.4,0.8,0.8v0.9
	c1.6-1.6,3.6-2.2,5.7-2.2c2.4,0,4.3,0.7,5.9,2C154.2,23.6,155,25.7,155,29.2L155,29.2z M122.6,20.1c-3.7,0-5.4,2.2-5.4,2.2V10.5
	h-5.4v31.2c0,0,4.1,0,4.5,0c0.4,0,0.8-0.4,0.8-0.8v-1l0,0c0,0,1.7,2.3,5.4,2.3c6.1,0,10.9-4.7,10.9-11.1
	C133.5,24.8,128.7,20.1,122.6,20.1L122.6,20.1z M121.7,37.2c-2.1,0-3.7-1.1-4.5-2.3v-7.5c0.8-1.1,2.6-2.3,4.5-2.3
	c3.6,0,6.3,2.2,6.3,6.1C128.1,34.9,125.3,37.2,121.7,37.2L121.7,37.2z M107.2,20.1c1.6,0,2.5,0.3,2.5,0.3v5c0,0-4.5-1.5-7.3,1.7
	v14.7H97V20.6c0,0,4.1,0,4.5,0c0.4,0,0.8,0.4,0.8,0.8v0.9C103.3,21.1,105.5,20.1,107.2,20.1L107.2,20.1z M51.3,39.8
	c-0.3-0.7-0.6-1.4-0.8-2c-0.4-1-0.9-2-1.3-2.9l-0.1-0.1c-3.9-8.4-8-16.9-12.4-25.3l-0.2-0.3c-0.4-0.8-0.9-1.7-1.3-2.6
	c-0.6-1-1.1-2.1-2-3.1C31.4,1.2,28.8,0,26.1,0c-2.8,0-5.3,1.2-7.2,3.4c-0.8,1-1.5,2.1-2,3.1c-0.4,0.9-0.9,1.8-1.3,2.6l-0.2,0.3
	C11,17.8,6.8,26.3,3,34.7l-0.1,0.1c-0.4,0.9-0.8,1.8-1.3,2.9c-0.3,0.6-0.6,1.3-0.8,2c-0.7,2.1-1,4-0.7,6.1c0.6,4.2,3.4,7.7,7.3,9.3
	c1.5,0.6,3,0.9,4.5,0.9c0.4,0,1-0.1,1.5-0.1c1.8-0.2,3.8-0.8,5.6-1.9c2.3-1.3,4.5-3.1,6.9-5.8c2.5,2.7,4.7,4.5,6.9,5.8
	c1.8,1.1,3.8,1.7,5.6,1.9c0.4,0.1,1,0.1,1.5,0.1c1.6,0,3.1-0.3,4.5-0.9c3.9-1.6,6.7-5.2,7.3-9.3C52.2,43.8,52,41.9,51.3,39.8
	L51.3,39.8z M26,42.7c-3-3.8-5-7.4-5.7-10.4c-0.3-1.3-0.3-2.4-0.2-3.4c0.1-0.9,0.4-1.7,0.9-2.4C22.1,25,23.9,24,26,24
	c2.1,0,3.9,0.9,4.9,2.5c0.4,0.7,0.8,1.5,0.9,2.4c0.2,1,0.1,2.2-0.2,3.4C31,35.2,29,38.8,26,42.7L26,42.7z M48.4,45.3
	c-0.4,2.9-2.4,5.4-5.1,6.6c-1.3,0.6-2.8,0.7-4.3,0.6c-1.4-0.2-2.8-0.6-4.3-1.5c-2-1.1-4-2.9-6.4-5.4c3.7-4.5,5.9-8.7,6.8-12.4
	c0.4-1.7,0.4-3.3,0.3-4.8c-0.2-1.4-0.7-2.7-1.5-3.8c-1.7-2.5-4.7-4-7.9-4c-3.3,0-6.2,1.5-7.9,4c-0.8,1.1-1.3,2.4-1.5,3.8
	c-0.2,1.5-0.2,3.1,0.3,4.8c0.8,3.7,3.1,7.9,6.8,12.4c-2.3,2.6-4.4,4.3-6.4,5.4c-1.5,0.8-2.9,1.3-4.3,1.5c-1.5,0.2-3-0.1-4.3-0.6
	C6,50.8,4,48.3,3.6,45.4C3.5,44,3.6,42.6,4.2,41c0.2-0.6,0.4-1.1,0.7-1.8c0.4-0.9,0.8-1.8,1.3-2.8l0.1-0.1c3.9-8.3,8-16.9,12.3-25.2
	l0.2-0.3c0.4-0.8,0.9-1.7,1.3-2.6c0.4-0.9,1-1.7,1.6-2.5c1.2-1.3,2.7-2.1,4.5-2.1c1.7,0,3.3,0.7,4.5,2.1c0.6,0.7,1.1,1.6,1.6,2.5
	c0.4,0.8,0.9,1.7,1.3,2.6l0.2,0.3C37.9,19.5,42.1,28,46,36.4v0.1c0.4,0.9,0.8,1.9,1.3,2.8c0.3,0.7,0.6,1.2,0.7,1.8
	C48.4,42.5,48.6,43.9,48.4,45.3L48.4,45.3z"/>
</svg>
