<svg xmlns="http://www.w3.org/2000/svg" viewBox="0 126 792 360"><path d="M457.3 286.8c0 .4-.4.8-.8 1.3-1.3 2.5-3.3 2.9-5.8 2.5-1.3-.4-2.5-.8-3.3-2.1-1.3-2.5-2.5-4.6-3.8-7.1l-6.3-13.8c-1.7-3.3-3.8-6.7-6.3-9.2-2.5-2.5-5.4-4.2-9.2-4.6-3.8-.4-7.1.4-10.4 2.1-2.9 1.7-5 3.8-6.7 6.3-.8 2.1-1.7 4.2-1.7 6.3-.4 4.6.4 9.2 1.3 13.8s2.1 9.2 2.9 14.2c.4 2.5.4 5 .8 7.5s0 4.6-.4 7.1c-.8 3.8-2.9 6.7-6.7 8.3-2.1 1.3-4.2 2.1-6.7 2.5-1.7 0-3.3.4-4.2-.8-1.3-1.3-1.7-2.9-2.1-4.6-.4-2.9 0-5.8.4-8.8.4-3.3 1.3-6.7 1.3-10.4.4-2.9.4-5.4.4-8.3 0-3.8-.4-7.5-2.1-10.8-2.1-5-5.8-8.3-10.8-10-3.3-1.3-6.7-2.1-11.3-2.1-5 0-10 2.9-13.3 7.9-2.5 3.3-4.2 7.5-5.4 11.3-1.3 4.6-2.5 9.2-3.8 13.3-.8 3.8-2.1 7.5-3.8 10.8-.4 1.3-1.3 2.5-2.1 3.3-1.3 1.7-2.9 2.1-4.6 2.1-2.9.4-5.4.4-7.9-.8-2.9-1.3-4.2-3.3-4.6-6.3-.8-4.6.8-8.8 3.8-12.5 1.7-2.5 3.8-4.6 5.4-7.1 2.9-4.2 5-8.8 5.8-13.8.8-4.6.8-9.6-1.3-14.2-1.3-3.8-3.8-6.7-6.3-9.6-3.3-3.8-7.1-6.7-10.8-10s-7.9-6.3-11.3-10c-2.5-2.5-4.6-5-5.8-8.3-.8-2.1-1.3-4.6-.8-7.1 0-1.3.4-2.5.8-4.2.8-2.9 2.5-4.6 5.4-5.4 2.5-.4 4.6-.8 7.1 0s4.6 2.5 6.3 4.6c2.1 2.5 3.3 5.8 4.6 8.8 1.7 4.6 3.8 8.8 5.4 13.3 1.3 3.3 3.3 6.3 5.8 8.8 2.9 2.9 5.8 4.2 10 4.6s7.9-.8 11.3-3.3c2.5-2.1 4.2-4.2 5.4-7.1 1.7-3.8 2.9-7.5 4.2-11.7 1.3-3.8 2.1-7.5 3.3-11.3.4-.8.8-2.1 1.3-2.9.8-1.3 1.7-1.7 2.9-1.3 1.7.4 2.9 1.7 3.8 2.9 1.7 2.5 3.8 5.4 5.4 7.9 2.1 2.9 4.2 5.8 7.1 7.9 3.3 2.5 6.7 3.3 10.8 3.3 4.6-.4 8.3-2.1 11.3-5 2.9-2.5 5.4-5.8 7.5-9.2 1.3-2.1 2.9-4.2 4.2-5.8l1.3-1.3c.4-.4 1.3-.8 2.1-.4 1.3.4 2.5 1.3 3.3 1.7 1.3.8 1.7 1.7 1.3 2.9-.8 2.5-1.7 4.6-2.1 7.1-.8 2.9-1.7 5.4-2.1 8.3-.8 5.8 1.3 10.4 5.4 14.2 2.9 2.5 6.3 4.6 9.6 6.7s6.3 4.2 9.2 6.7c4.2 3.8 7.1 8.3 7.9 14.2.6 7.1.1 12.1-1.5 16.7m16.2-5c.4-3.8.4-7.9 0-11.7-.8-5.4-2.5-10-5.4-14.6-3.3-5-7.5-9.6-12.5-12.9-3.3-2.5-7.1-4.6-10.8-7.1-1.3-.8-2.1-1.7-2.9-2.5-.4 0-.4-.4-.4-.8s0-1.3.4-1.7c.8-2.1 1.3-4.6 2.1-6.7 1.3-3.8 2.5-7.5 2.1-11.7-.4-3.3-1.7-6.3-3.8-8.8-2.9-3.3-6.3-5.4-10.4-6.7-3.8-1.7-7.9-1.7-12.1 0-3.3 1.3-5.8 3.3-7.9 5.8s-4.2 5.4-5.8 8.3c-1.7 2.1-2.9 4.2-5 5.8-2.1 1.7-3.3 1.7-5-.4-1.7-2.1-3.3-4.6-5-7.1-2.1-2.9-4.2-5.8-6.7-8.3-4.6-4.2-9.6-5.8-15.8-5.4-4.6.4-8.3 2.5-11.3 6.3-2.5 2.9-3.8 6.7-5 10.4-1.3 3.8-2.1 7.5-3.3 11.3-.8 2.5-1.7 4.6-2.5 7.1-.4.8-.8 1.3-1.3 1.7-.4.4-.8.4-1.3 0l-.4-.4c-.8-1.7-2.1-3.8-2.9-5.4-2.1-4.6-3.8-8.8-5.4-13.3-2.1-4.6-4.6-8.8-7.9-12.5-4.6-5-10.4-7.5-17.1-7.9-2.5 0-5 0-7.9.4-4.2.8-7.9 2.5-10.8 5.4-5 4.2-7.1 10-7.9 16.3 0 .8 0 1.7-.4 2.5v3.7c0 3.3 1.3 6.7 2.5 9.6 2.5 5 5.8 9.6 10 13.3 4.6 4.2 9.2 7.9 13.8 11.7 2.5 2.1 5.4 4.6 7.5 7.1 2.9 3.3 3.8 6.7 2.9 10.8-.8 2.9-2.1 5.4-3.8 7.9-2.1 2.5-3.8 5-5.8 7.5-3.3 4.6-5.4 9.6-5.8 15-.4 2.9 0 5.8.4 8.8.8 4.6 2.9 8.3 6.3 11.7 4.6 4.2 10 6.3 15.8 6.7 2.5 0 5 0 7.5-.4 3.3-.8 7.1-1.7 10-3.8 3.3-2.5 5.8-5.8 7.5-9.6 2.1-4.6 3.8-9.2 5-14.2 1.3-4.6 2.5-9.6 3.8-14.2.8-2.1 1.7-4.2 2.9-6.3.8-.8 1.7-1.7 2.9-1.7 1.3 0 2.9.4 4.2.8 1.3.4 2.5 1.7 2.9 2.9s.8 2.5.8 4.2c0 3.3-.4 6.7-.8 10-.4 4.2-1.3 8.3-1.7 12.5-.4 2.9-.4 5.8.4 8.8 1.3 5.4 3.3 9.6 7.9 12.9 4.6 3.8 10 4.2 15.8 3.3 3.8-.8 7.5-2.1 10.8-4.2s6.7-4.2 8.8-7.5c3.8-5 5.8-10.8 6.3-17.1 0-2.9 0-5.4-.4-8.3-.4-3.3-.8-6.7-1.7-10-.8-5.4-2.5-10.4-3.3-16.3V269c0-.8 2.1-1.7 2.5-.8s1.3 1.3 1.7 2.1c2.1 3.8 3.8 7.5 5.8 11.3 1.7 4.2 3.8 8.3 6.3 12.5 1.7 2.5 3.8 5 6.3 7.1 2.9 2.1 5.8 2.9 9.2 3.3 3.3.4 6.7 0 9.6-1.3 5-2.1 8.3-5.4 10.8-10 3.5-2.6 4.3-6.8 4.7-11.4m-28.7 116.3c-.4 0-.8 0-.8.4-1.7 4.6-3.3 9.2-5 13.3 0 0 0 .4-.4.8 0-.4 0-.4-.4-.4-2.1-4.6-3.8-9.2-5.8-13.8 0-.4-.4-.8-.8-.8H426c0 .4.4.4.4.8 2.9 6.7 6.3 13.3 9.2 20 0 .4.4.4 0 .8-.8 1.3-1.3 2.9-2.1 4.2-.8 1.3-2.1 1.3-3.3.8-.4 0-.4-.4-.8-.8-.8 1.3-1.7 2.5-2.5 3.8.8.4 1.3.8 1.7.8.8.4 1.3.4 2.1.8h2.5c2.5-.4 4.2-2.1 5-4.2.4-.8.8-1.3.8-2.1 3.3-8.3 6.7-16.7 10.4-25v-.4c-.9 1-2.5 1-4.6 1m-13.4-16.2h5.4v-15.4c-.4-2.5-1.7-4.6-4.2-5.8-3.3-1.7-7.1-1.3-10 .8-.4.4-.8.8-1.7 1.3-1.7-2.1-3.8-2.9-6.3-2.9s-4.6.8-6.7 2.9v-2.5h-5V382h5.4v-12.3c0-1.7.4-3.3 2.1-4.6 2.5-2.1 6.3-.8 6.7 2.1v14.2h5.4v-11.6c0-1.7.4-2.9 1.7-4.2 1.3-1.3 2.9-1.7 4.6-1.3 1.7.4 2.1 1.7 2.5 2.9v13.4l.1 1.3z"/><path d="M419.3 412.7c-1.3 2.5-3.8 3.3-6.7 2.9-.8 0-2.1-.4-2.9-.8 0 0-.4-.4-.4-.8v-5.8c0-3.8 3.8-7.1 8.3-5 .8.4 1.7 1.3 2.1 2.1.5 2.4.9 4.9-.4 7.4M411 399c-.8.4-1.3.8-2.1 1.7v-2.1h-5.4v30.8h5.4v-10c.4 0 .4 0 .8.4 1.3.4 2.5.8 3.8.8 5 .4 9.6-2.1 11.7-6.7 1.3-2.9 1.3-5.4.4-8.3-2.5-8.3-10-9.1-14.6-6.6m-80-22.1c-1.7.8-3.3 1.3-5.4.8-.8 0-1.7-.4-2.5-.8-.4 0-.4-.4-.4-.8v-2.9c0-1.3 0-2.5.4-4.2 1.3-4.6 6.3-5.4 8.8-3.3 1.3 1.3 1.7 2.5 2.1 4.2-.1 2.8-.9 5.3-3 7m7.1-10.9c-2.5-6.7-10-8.3-15.4-3.8l-.4.4v-2.1s0-.4-.4-.4h-5V388h5.4v-6.3c1.7.4 2.9.8 4.2.8 4.2.4 7.9-1.3 10.4-4.6 2.8-4 2.8-7.7 1.2-11.9m-4.2 38.8c-.4-2.5-1.3-4.6-3.3-5.8-2.9-1.7-6.3-1.7-9.2 0-.8.4-1.3.8-2.1 1.3V391h-5.4v28.8h5.4v-11.6c0-2.5 1.3-4.6 3.8-5.4s5 .4 5.4 2.5v14.6h5.4v-15.1m9.6 1.7c-.4-2.1 2.1-4.2 4.6-4.6 3.3-.4 5.8 1.7 5.8 4.6h-10.4zm15.4.4c-.4-2.5-1.3-4.6-2.9-6.3-2.1-2.1-4.2-2.9-7.1-2.9-3.8 0-7.1 1.3-9.2 4.6-2.1 2.5-2.5 5.4-2.1 8.8.4 4.6 2.9 7.9 7.5 9.6 3.8 1.3 7.5.8 10.8-1.3.8-.4 2.1-1.3 2.5-2.1-.8-1.3-2.1-2.1-2.9-3.3-1.3 1.3-2.5 1.7-3.8 2.1-2.5.4-4.6.8-6.7-.8-1.3-.8-2.1-2.1-2.1-4.2h16.3c.1-1.7.1-3-.3-4.2m87.5-38.4c0-1.7.8-2.5 1.7-3.3 2.1-1.3 4.2-1.7 6.3-.4 1.7.8 2.5 2.1 2.5 4.2h-10.4v-.5h-.1zm16.3 4.2c0-1.7 0-2.9-.4-4.2-.8-5.4-4.6-8.8-9.6-9.2-4.6-.4-8.8 2.1-10.8 6.7-1.3 2.9-1.3 5.8-.4 8.8.8 2.9 2.5 5.4 5.4 6.7 3.3 1.7 6.3 1.3 9.6.4 2.1-.4 4.2-1.7 5.4-3.3-.8-1.3-2.1-2.1-2.9-3.3-1.7 1.7-3.8 2.5-5.8 2.5-2.5 0-4.6-.4-6.3-2.5-.4-.8-.8-1.7-.8-2.5h16.6v-.1zM356 374.8c-.4 1.7-1.7 2.5-3.3 2.9-1.3.4-2.1.4-3.3 0-1.3-.4-2.1-1.3-2.1-2.5s.8-2.5 2.1-3.3c.8-.4 1.7-.4 2.5-.4h4.2c.3 1.6.3 2.4-.1 3.3m5.4-7.5c0-3.8-2.1-6.7-5.8-7.5-2.5-.8-5.4-.4-8.3 0-1.7.4-3.3 1.3-4.6 2.1.8 1.3 1.7 2.5 2.5 3.8 0 0 .4 0 .4-.4 1.7-1.3 3.3-1.7 5.4-1.7 1.3 0 2.5 0 3.3.8 1.3.8 1.7 2.1 1.3 2.9h-5c-2.1 0-3.8.4-5.4 1.7-4.2 2.5-4.6 9.6 0 12.1 2.9 1.7 7.5 1.3 10-1.3l.4-.4v2.1h5v-.8c.8-4.3.8-8.8.8-13.4m-55.9 9.1c-1.7 1.7-4.2 2.1-6.3 1.3-1.3-.4-1.7-1.3-1.7-2.5s.8-2.5 2.1-2.9c.8-.4 1.7-.4 2.1-.4h4.6c.5 1.6.5 3.3-.8 4.5m.9-16.6c-2.9-.8-6.3-.4-9.2.4-1.3.4-2.5.8-3.3 1.7.8 1.3 1.7 2.5 2.5 3.8.4 0 .8-.4.8-.4 2.1-1.3 4.2-1.7 6.3-1.3 2.1.4 3.8 1.7 3.3 3.8h-7.5c-3.8.8-5.8 2.9-6.7 6.3-.4 3.3 1.3 6.7 4.6 7.9 2.5.8 4.6.8 7.1-.4.8-.4 1.7-.8 2.5-1.7v1.7h5v-14.1c0-4-2.1-6.5-5.4-7.7m86.7 52.5c0 1.3-.8 2.1-2.1 2.9-1.7.8-3.3 1.3-5 .8-1.3-.4-2.1-1.3-2.1-2.5s.8-2.5 2.1-2.9c.8-.4 1.7-.4 2.5-.4h4.2c.4.8.4 1.3.4 2.1m.4-14.2c-2.9-1.3-5.8-.8-8.8 0-1.7.4-3.3 1.3-4.6 2.1.8 1.3 1.7 2.5 2.5 3.8 1.7-.8 3.3-1.7 5-2.1 1.3 0 2.9 0 4.2.8s1.7 1.7 1.7 3.3H386c-3.8.8-5.8 2.9-6.3 6.7-.4 3.3 1.3 6.3 4.2 7.1 2.1.8 3.8.8 5.8.4 1.7-.4 2.9-1.3 3.8-2.1v2.1h5v-14.6c0-3.7-2.1-6.2-5-7.5m90.9-36.7c-2.5-2.1-5.4-2.1-8.3-1.3-1.7.4-2.5 1.3-3.8 2.5v-.4c0-.4 0-1.3-.4-1.7s-1.3 0-1.7 0h-3.3v21.3h5.4v-11.2c0-2.1.8-4.2 2.9-5.4 2.1-1.3 4.6-.8 5.8 1.3.4.8.8 1.7.8 2.5v12.9h5.4v-14.2c-.3-2.5-1.2-4.6-2.8-6.3m-177.2 53.8c-.8.4-1.7.4-2.9.4-.8 0-1.3-.4-1.7-1.3-.4-.8-.4-1.7-.4-2.5v-9.2h6.3V398h-5.8v-7h-5.4v7.1h-3.8v4.6h3.8v9.6c0 .8 0 2.1.4 2.9.4 2.9 2.1 4.6 5 5 1.3 0 2.1.4 3.3 0 2.1 0 4.2-1.3 5.4-2.5-.8-1.3-1.7-2.1-2.5-3.3-.9.4-1.3.8-1.7.8m90.5-38.8c-.4.4-.8.4-.8.4-.8.4-1.7.8-2.1.8-1.7 0-2.9-.8-2.9-2.5v-10.4h5.8v-4.6h-5.8V353h-5.4v7.1h-3.8v4.6h3.8v9.2c0 .8 0 2.1.4 2.9.4 2.9 2.1 4.6 5 5h3.3c2.1 0 3.8-1.3 5.4-2.5-1.3-.4-2.1-1.6-2.9-2.9 0 .5 0 .5 0 0m107.9 0c-1.3.8-2.1 1.3-3.8 1.3-1.3 0-1.7-.4-2.1-1.7-.4-.8-.4-1.3-.4-2.1v-9.2h5.8v-4.6h-5.8V353H494v7.1h-3.8v4.6h3.8v9.6c0 .8 0 2.1.4 2.9.4 2.5 1.7 4.2 4.2 5 2.1.4 4.2.4 6.3-.4 1.3-.4 2.1-1.3 2.9-1.7-.9-1.2-1.3-2.4-2.2-3.7m-132.9 21.7c-1.7.4-2.9 1.3-4.2 2.9v-2.5h-5v21.7h5.4v-11.6c0-2.9 2.1-5 4.6-5.4h3.3c.4-1.7.8-3.3 1.3-5-2.1-.5-3.8-.5-5.4-.1m2-32.5c1.7-.8 3.3-.8 5.4-.4.4-1.7.8-3.3 1.3-5-1.7-.4-3.3-.4-5 0s-2.9 1.3-4.2 2.9v-2.5h-5.4v21.3h5.4v-11.7c0-2.1.9-3.8 2.5-4.6"/></svg>
