<svg xmlns="http://www.w3.org/2000/svg" viewBox="0 126 792 360"><path d="M396.6 346h-11.3c-.4 3.8 1.7 7.5 5.4 9.6 7.1 3.8 14.6 3.8 22.1.4 4.2-2.1 5.8-5.8 5.4-10.4s-2.5-7.9-6.7-9.6c-2.1-.8-4.2-1.3-6.3-1.7-2.1-.4-4.2-.8-6.3-1.3-1.7-.4-1.7-2.5-.4-3.3 2.1-1.3 5-.4 6.3 1.7 0 .4.4.8.8.8h10.8c0-3.3-1.3-6.3-4.2-7.9-2.5-1.3-5-2.1-7.9-2.5-5-.8-10-.4-14.2 2.9-3.3 2.1-4.6 5.4-4.2 9.6s2.5 6.7 5.8 8.3c2.1.8 3.8 1.3 5.8 1.7 2.1.4 4.2.8 6.3 1.3.8.4 1.7 1.7 2.1 2.5 0 1.7-1.3 2.1-2.5 2.5-3.4 0-5.1-.8-6.8-4.6m-35-10.4c0-3.3 2.1-5.8 5-5.8s5.4 2.1 5.8 5.8h-10.8zm-12.1 2.1c-.8 10.8 6.3 19.2 16.3 20 9.2.4 17.9-4.6 18.3-11.3h-10.8c-.4 0-.8.4-1.3.4-1.7 2.1-4.2 2.5-6.3 1.7-2.5-.8-3.8-2.9-4.2-5.8h23c.8-11.7-5.8-20.8-15.4-21.7-10.8-.8-19.1 5.8-19.6 16.7m-23.3-15.5h-11.7v34.6h12.1v-18.3c0-1.7.4-3.3 1.3-5s2.5-2.1 4.6-2.1c1.7.4 2.9 1.3 3.3 3.3.4 1.3.4 2.5.4 3.8v17.9h11.3c.4 0 .8-.8.8-1.3 0-7.9.4-15.4 0-23.3-.4-8.3-6.3-12.5-14.2-10.8-3.3.8-5.8 2.5-7.9 5.4v-4.2m-12.9.9h-11.7v33.8h11.7v-33.8zm0-13.8h-11.7v9.2h11.7v-9.2zm-35.5 36.3h-11.7c0 4.6 2.5 7.9 5.8 10 3.3 1.7 6.7 2.5 10.4 2.5s7.9-.4 11.3-2.5c3.8-2.1 5.4-5.4 5.4-10s-2.1-7.9-6.3-9.6c-2.1-.8-4.2-1.3-6.3-1.7s-4.2-.8-6.3-1.3c-.4 0-1.3-1.3-1.3-1.7s.4-1.3.8-1.7c1.7-1.3 5-.4 6.3 1.7.4.4.8.8 1.3.8H298c0-2.5-.8-4.6-2.5-6.3-2.5-2.9-5.8-3.8-9.6-4.2-5-.4-10-.4-14.6 2.9-3.3 2.5-4.6 5.8-4.2 9.6s2.5 6.7 5.8 7.9c2.1.8 3.8 1.3 5.8 1.7s4.2.8 6.3 1.3c1.3.4 2.5 1.3 2.1 2.9-.4.8-1.7 2.1-2.5 2.5-3.4.6-5.5-1.1-6.8-4.8m-62.1-58c0 2.1-1.7 4.2-3.8 4.2h-10.4v-9.2c3.8 0 7.5-.4 11.3 0 1.7.5 2.9 2.5 2.9 5m-2-18.3c0 2.1-.8 3.8-3.3 3.8-2.9.4-5.8 0-9.2 0v-7.5h8.8c2.4.4 3.7 1.6 3.7 3.7m7.5 7.5c2.9-2.5 4.2-3.8 5-6.7 1.7-6.3-1.7-12.5-7.5-14.6-1.3-.4-2.5-.8-3.8-1.3h-27.1V303h23.3c2.1 0 3.8 0 5.8-.4 6.3-.8 10.8-5.4 11.7-11.7.9-6.2-1.6-11.6-7.4-14.1m-5.5 63.8c0 2.5-1.3 4.6-3.8 4.6-3.3.4-7.1 0-10.4 0V336h10c2.2.4 3.8 2.5 4.2 4.6m-2-17.1c0 2.1-1.3 3.3-2.9 3.3h-9.6v-7.5h9.6c2 .4 3.3 2.1 2.9 4.2m11.6 28.8c6.3-6.7 4.2-17.1-4.2-22.1 5-2.1 6.3-6.3 5.4-11.3-.8-5-3.8-7.9-7.9-9.6-1.7-.4-3.3-.8-4.6-.8h-25.8v48.8h25.4c4.2-.5 8.4-1.3 11.7-5m16.7-49.2v-48.8h-12.5v48.8H242zm.8 37.9v-18.8h-12.1v25c0 4.6 2.1 8.3 6.7 10 5 2.1 10 1.3 14.2-2.9l1.3-1.3c0 1.7.4 2.9.4 4.2h11.3v-34.6h-12.5v18.8c0 3.8-2.1 5.8-5 5.8-2.6.1-4.3-2-4.3-6.2m24.2-55c-.4 2.5-.8 4.6-1.7 7.1-.8 1.7-2.1 2.9-4.2 2.9s-3.3-.8-4.2-2.9c-2.1-4.6-2.1-9.2 0-13.8.8-1.7 2.1-2.9 4.2-2.9s3.8.8 4.2 2.9c.9 2.1 1.3 4.2 1.7 6.7m12.5 0c0-10.8-7.1-18.3-17.5-18.8-11.3 0-18.8 7.1-18.8 18.3 0 10.8 7.1 18.3 17.9 18.8 10.9 0 18-7.1 18.4-18.3m23.4 6.6c-.8 2.1-2.5 3.3-4.6 2.9-2.1 0-3.8-1.3-4.6-3.3-.4-2.1-.8-4.2-1.3-6.3.4-2.1.8-4.2 1.3-6.3.8-2.1 2.1-3.3 4.6-3.3 2.1 0 3.8 1.3 4.6 3.3 1.6 4.3 1.6 8.5 0 13m9.5 5.5c5.8-7.5 5-19.2-1.3-25.4-6.7-6.3-18.8-6.7-25.4 0-5.4 5-7.1 13.3-4.2 20.8 2.5 7.1 8.8 11.3 17.1 11.3 5.1-.5 10.1-2.2 13.8-6.7m59.2 4.5v-14.2c0-3.8 0-7.1-.4-10.8-.4-4.6-2.9-8.3-7.5-10-5.4-1.7-10.8 0-14.2 4.6 0 .4-.4.4-.8.8-2.1-4.2-5.4-5.8-9.6-5.8s-7.5 2.1-10.4 5.4v-4.2H317V303h12.1v-19.2c0-1.7.4-3.3 1.3-4.6.8-1.7 2.5-2.1 4.2-1.7s2.5 1.7 2.9 3.3c0 .8.4 2.1.4 2.9v18.8H350v-18.3c0-.8 0-1.7.4-2.5.4-3.3 2.5-4.6 5-4.6 2.1.4 3.3 2.1 3.3 5v20h12.1c.8 1 .8.5.8.5m25-17c-.4 2.1-.8 3.8-1.3 5.8-1.7 3.8-5.8 4.6-8.8 1.3-2.9-3.3-2.9-10.4 0-13.8 2.5-2.9 6.7-2.5 8.3 1.3 1 1.2 1.4 3.3 1.8 5.4m11.3 7.9c1.3-5.4 1.3-10.4-.4-15.8-2.1-6.3-6.7-10-12.1-10.4-4.2-.4-7.5 1.3-10.8 4.6v-17.5h-12.1v48.8h11.7v-3.8c5.8 7.8 20.4 7 23.7-5.9m24.6-11.3h-10.8c.4-4.2 2.5-6.3 5.8-6.3 2.9.1 5 2.6 5 6.3m12.5 6.7c.8-10.4-4.2-20-14.6-21.7-10.8-1.7-19.2 5-20.4 16.7-1.3 10 5.4 19.2 15.4 20 9.2.8 18.8-4.6 19.2-11.3h-10.8c-.4 0-.8.4-1.3.4-1.7 2.1-4.2 2.5-6.7 1.7s-3.3-2.9-3.8-5.8h23zm.4 34.6c-7.1-3.8-14.6-3.8-21.3.4-3.8 2.1-5 5.8-4.6 10s2.9 6.7 6.3 7.9c1.7.8 3.8.8 5.4 1.3 2.1.4 4.6.8 6.3 1.7 2.1.8 2.1 3.3.4 4.6-2.5 1.7-6.7.4-7.9-2.5 0-.4-.8-1.3-.8-1.3h-10.8c0 4.6 1.7 7.5 5 9.6 7.5 4.2 15.4 4.2 22.9 0 3.8-2.1 5-5.8 4.6-10.4-.4-4.2-2.1-7.1-5.8-8.8-2.1-.8-4.6-1.3-6.7-1.7-2.1-.4-4.2-.8-6.3-1.3-1.7-.4-2.1-2.5-.4-3.3 1.7-1.3 5-.8 6.3 1.3l.8.8h10.8c.4-3.7-1.3-6.6-4.2-8.3m24.6-44.6v-9.6c0-1.3-.8-1.7-1.7-1.7-3.8 0-7.1 1.3-9.2 4.2-.4.4-.8.8-1.3 1.7v-5h-11.7v34.6h12.1v-14.6c0-6.7 3.3-10 9.6-9.6h2.2m.4 44.6c-1.3 5.4-2.5 10.4-3.8 15.8 0 .4-.4.8-.4 1.7-1.7-5.8-2.9-11.7-4.2-17.1 0-.8-.8-1.7-1.3-1.7H449v.4c3.3 11.3 6.7 22.1 10 33.3 0 .4.8.8 1.3.8h10.8c1.7-6.7 2.9-13.3 4.6-20 .4.4.4.8.4 1.3 1.3 5.8 2.5 11.7 3.8 17.1.4 1.3.8 2.1 2.1 1.7h8.3c1.7 0 2.1-.4 2.5-2.1 2.9-10.4 6.3-20.4 9.2-30.8 0-.4.4-1.3.4-2.1h-11.3c-.4 0-1.3.8-1.3 1.7-.8 2.5-1.3 5.4-2.1 8.3-.8 2.9-1.7 5.8-2.1 9.2h-.4c-1.3-5.8-2.5-11.3-3.8-17.1-.4-1.3-.8-2.1-2.1-1.7h-7.1c-.9 0-1.8 0-1.8 1.3m22.1-33.8c-1.7 3.3-6.3 3.8-8.3.4-.8-1.7-1.3-3.8-2.1-5.4.4-2.1.8-3.8 1.7-5 2.1-3.8 7.1-3.8 8.8 0 1.6 3.4 1.6 6.7-.1 10m12.9 9.2v-30h-11.7c0 1.3 0 2.1-.4 3.3-5-7.1-16.3-6.3-20.4 2.5-2.5 5.4-2.9 10.8-1.7 16.3 2.1 7.5 8.8 12.1 15.8 10.4 2.1-.4 3.8-2.1 5.8-2.9v3.3c0 2.5-.8 4.2-3.3 5s-5 0-6.3-1.7c-.4-.4-.8-.8-1.3-.8h-10.8c.8 5 3.3 7.9 7.5 10 4.2 1.7 8.3 2.1 12.9 1.7 8.9-2.1 13.9-7.5 13.9-17.1m17.6 36.7h-10.8c.4-3.8 2.5-6.3 5.8-5.8 2.9-.1 4.5 2.4 5 5.8m12 7.1c.8-10-4.2-20-14.6-21.7-10-1.7-19.2 5-20.4 15-1.7 11.3 5 20.4 15.4 21.7 9.2 1.3 18.3-4.2 19.2-11.3h-10.8c-.4 0-.8.4-1.3.8-1.7 2.1-4.2 2.5-6.7 1.3-2.5-.8-3.3-2.9-4.2-5.8H535zm24.6-7.1h-10.8c.4-3.8 2.5-5.8 5.8-5.8 2.5-.1 4.6 2 5 5.8m12.1 7.1c.8-9.2-3.8-20-14.6-21.7-10-1.7-19.2 5-20.4 15-1.7 11.3 4.6 20.4 15 21.7 9.2 1.3 18.3-4.2 19.2-11.3h-10.8c-.4 0-.8.4-1.3.8-1.7 2.1-4.2 2.5-6.3 1.7-2.5-.8-3.3-2.9-4.2-5.8h23.3l.1-.4zm26.3-3.8c-2.1-3.8-2.1-3.8.8-7.1 2.5-2.9 5-6.3 8.3-9.6h-11.3c-2.1 0-3.3.4-4.2 2.1-1.7 2.5-3.8 5-5.8 7.5h-.4v-23.3h-12.5v48.4h11.7c1.3-4.2-1.7-8.8 2.9-12.1 2.1 3.8 3.8 7.1 5.8 10.8.4.4.8 1.3 1.3 1.3h13.3c-.4-.8-.8-1.7-1.3-2.1-2.8-5.5-5.7-10.5-8.6-15.9"/></svg>
