<svg xmlns="http://www.w3.org/2000/svg" viewBox="0 126 792 360"><path d="M269.3 337.1c21.7-.8 37.9-10.8 48.8-30 .4-.8.4-2.5-.4-3.8-10.8-18.3-26.3-28.8-47.9-28.8-21.7-.4-37.9 10-49.2 28.8-.8 1.7-.8 2.9 0 4.6 11.2 18.3 27 28.3 48.7 29.2m52.9-31.3c0 29.6-23.3 53.4-52.5 53.4s-52.9-23.8-52.9-53.4 23.3-53.4 52.9-53.4c29.2 0 52.5 23.8 52.5 53.4m126.7-50.4c0 .4 0 .4-.4.8v42.9c0 1.7.8 1.7 2.1 1.7h12.5c7.1 0 11.7-3.3 12.5-10.4.8-6.3 1.3-12.9.8-19.6-.4-6.7-2.9-12.5-10-13.8-5.8-.8-11.6-1.2-17.5-1.6m-.8 100c5.8 0 11.7.4 17.1 0 7.9-.4 12.1-5.4 13.3-12.5 1.7-8.3 2.1-17.1 0-25.8-1.7-8.8-6.3-12.9-15-13.3-4.2-.4-8.3 0-12.5-.4-2.5 0-2.9.8-2.9 2.9v49.1zm-20.8-99.6h-13.8c-.8 0-1.3-.4-2.1-.8.8-.4 1.7-1.3 2.1-1.3 16.3 0 32.5-.4 48.8 0 8.8 0 17.1 2.5 24.2 7.9 12.9 9.6 11.7 27.9-2.5 35.8-2.9 1.7-5.8 2.5-9.6 4.2 1.7.4 2.9.8 4.2 1.7 4.2 2.1 8.8 3.8 12.1 6.7 11.3 8.3 9.6 25 2.5 34.2-6.3 7.9-14.6 11.3-24.2 12.5-3.3.4-6.7.4-10.4.8h-48.3c0-.4-.4-.4-.4-.8.4-.4 1.3-1.3 1.7-1.3h14.6v-99.6h1.1zM509 357.1v-40h.4c0 .4.4.8.4 1.3 2.5 11.3 6.7 21.3 14.2 30 6.7 7.5 15.4 11.3 25.4 7.9 7.5-2.1 11.7-7.1 12.9-14.6 1.3-7.5-.8-13.8-7.5-17.5-5.4-2.9-11.3-5.4-17.1-7.5-3.8-1.7-7.9-2.9-11.7-4.6-14.6-6.7-19.2-17.9-15.8-33.3.8-5 3.3-9.6 6.3-13.8 6.7-10.4 17.9-13.8 30-10.4 2.5.8 5 1.7 7.5 2.5 5 1.7 8.8.8 12.5-2.9v37.9h-.4c-.4-.8-.4-2.1-.8-2.9-2.1-10.8-6.3-20.8-14.2-28.8-5-4.6-10.8-7.1-17.5-5.4-7.1 1.3-11.7 6.3-12.5 13.3-1.7 10.8 1.7 17.1 11.7 21.7 5.8 2.5 12.1 4.6 18.3 6.7 2.5.8 5 2.1 7.5 2.9 13.3 6.3 18.8 16.7 15.8 31.3-2.5 13.8-13.8 25.4-27.1 27.9-6.3 1.3-12.1 0-17.9-2.1-4.2-1.3-8.3-2.5-12.5-3.3-2.9-.8-5.4.8-7.5 2.9.4.4 0 .4-.4.8m-102.6-103V292h-.8c-.4-.8-.4-1.7-.8-2.9-2.9-9.6-6.3-19.2-12.9-27.1-5.4-6.3-12.5-9.6-20.8-7.5-6.3 1.3-10 5.4-12.9 10.8-3.8 6.7-5.4 14.2-5.8 21.7-.8 11.7-1.3 23.3-.8 35 0 6.7 1.3 13.8 3.3 20.4 5 18.3 23.8 17.9 33.3 9.6 7.9-6.7 12.5-15.8 15.4-25.4.8-3.3 1.7-6.3 2.5-9.6 1.3 1.7 1.7 33.8.8 40.4-2.5-1.3-5-3.8-7.5-4.2-2.9-.4-6.3.4-9.2 1.7-5.4 2.1-10.4 4.2-16.7 4.6-10 .4-18.3-3.8-25.8-10-12.1-10.8-17.9-24.6-17.5-40.9.4-15.4 5.4-29.2 15.8-40.9 6.7-7.5 14.6-12.9 24.6-14.6 5.4-1.3 10.8 0 15.8 2.1 2.1.8 4.6 1.7 6.7 2.5 4.6 1 9.6 1 13.3-3.6"/><path d="M269.7 332.9c15 0 27.1-12.1 27.1-27.1s-12.1-27.1-27.1-27.1-27.1 12.1-27.1 27.1 12.1 27.1 27.1 27.1"/></svg>
