<svg xmlns="http://www.w3.org/2000/svg" viewBox="0 126 792 360"><path d="M301 366.9c4.2.4 8.3 1.7 9.2 6.3h20c0-10-13.8-14.6-27.5-15-25.4-.4-37.9 8.8-38.3 22.5-.8 18.8 15.4 22.5 34.6 22.5 9.2 0 30.4-2.9 31.3-15.4h-19.6c0 4.2-7.1 6.7-9.6 6.7-13.8 0-15.8-6.3-15.8-13.8-.6-4.7 1.9-15.1 15.7-13.8m197.5 27.5c-13.8 0-15.8-6.3-15.8-13.8 0-4.6 2.5-15 16.7-13.8 4.2.4 8.3 1.7 9.2 6.3h20c0-10-13.8-14.6-27.5-15-25.4-.4-37.9 8.8-38.3 22.5-.8 18.8 15.4 22.5 34.6 22.5 9.2 0 30.4-2.9 31.3-15.4H509c-.9 3.8-8 6.7-10.5 6.7m-117.1-35.5v30.9h-.4l-21.7-30.9h-25.8v43h16.6V371l23 30.9h24.6v-43m28.3 33.8h-5v-9.2h6.7c7.1 0 11.7 1.3 11.7 4.6 0 3.8-3.8 4.6-13.4 4.6m-5-25.8h6.7c7.1 0 10.8 1.3 10.8 4.6s-4.2 3.8-12.1 3.8H421v-8.4zm25 12.5c8.3-1.7 12.1-6.3 12.1-10 0-6.3-8.8-10.4-23.8-10.4H403v42.9h31.3c16.7 0 25.4-4.2 25.4-11.7-.3-3.7-3.7-10-13.7-10.8m-10-95.5l-24.6 58.8 73.4-49.2c3.8-2.5 7.1-5.8 9.6-9.6 5.4-8.3 5-21.3-.4-29.6-5.4-7.9-13.8-12.5-22.9-12.5-9.6 0-18.8 5.8-23.3 14.6L436 283.9zm-24.2 49.2l36.3-85.9c1.7-3.3 2.1-7.5 2.1-11.3 0-10.4-7.1-20.8-16.7-24.6-7.5-3.3-17.5-2.5-24.2 2.1-8.8 5.4-12.9 14.6-12.5 25h10.4c.8.4 2.1.8 2.1 1.7l-5.4 2.9c-3.3 2.5-5 5.8-4.6 10.4l10.8 70.4 1.7 9.3zm-33.3.4l15.4-93.4c0-3.8.4-7.5-.8-10.8-2.1-8.8-10.4-17.1-18.8-19.2-10.4-2.5-20 .8-27.1 8.3-6.7 7.5-8.3 19.6-4.2 28.8l35.5 86.3zm-76.7-42.9l76.7 52.5-34.6-83.8c-1.7-3.3-3.3-6.7-6.3-9.6-7.1-7.1-17.5-9.6-27.1-6.7-9.2 2.9-17.1 12.9-18.3 22.5-.8 10.1 2.5 18.8 9.6 25.1m-7.9 60.8H386l-74.2-49.6c-2.9-2.1-6.3-3.8-10.4-4.2-9.6-2.1-19.2 2.1-25.8 10-6.3 7.9-7.5 20.4-2.9 29.2 4.5 8.4 11.6 13.8 21.2 14.6m194.6-54.2c-3.8.8-7.1 2.5-10.4 4.2l-74.2 50H496c9.6-1.3 17.1-6.3 21.3-15 4.6-8.8 3.3-21.3-2.9-29.2-6.3-7.9-16.3-12-25.9-10"/></svg>
