<svg xmlns="http://www.w3.org/2000/svg" viewBox="0 126 792 360"><path d="M341.8 238.1h-25.4c-37.5 0-67.9 30.4-67.9 67.9s30.4 67.9 67.9 67.9h47.9c12.1 0 21.7-9.6 21.7-21.7v-41.7l32.9 52.1c4.6 6.7 12.1 11.3 20.8 11.3 13.8 0 25-11.3 25-25v-38.3l32.9 52.1c4.6 6.7 12.1 11.3 20.8 11.3 13.8 0 25-11.3 25-25V237.6h-17.1v111.3c0 4.6-3.8 7.9-7.9 7.9-2.9 0-5-1.3-6.7-3.3L453.1 261c-.4-.8-1.3-1.3-2.5-1.3-1.7 0-2.9 1.3-2.9 2.9v86.3c0 4.6-3.8 7.9-7.9 7.9-2.9 0-5-1.3-6.7-3.3L374.3 261c-.4-.8-1.3-1.3-2.5-1.3-1.7 0-2.9 1.3-2.9 2.9v89.6c0 2.5-2.1 4.6-4.6 4.6h-47.9c-28.3 0-51.3-22.9-51.3-51.3 0-28.3 22.9-51.3 51.3-51.3h25.4v-16.1z"/><path d="M344.7 335.2c1.3 0 2.5-1.3 2.5-2.5v-70c0-13.8 11.3-25 25-25 8.8 0 16.3 4.6 20.8 11.3l32.9 51.7v-37.9c0-13.8 11.3-25 25-25 8.8 0 16.3 4.6 20.8 11.3l32.9 51.7v-62.5h17.1v111.3c0 1.7-1.3 2.9-2.9 2.9-.8 0-1.7-.4-2.5-1.3l-58.8-92.5c-1.3-2.1-3.8-3.3-6.7-3.3-4.6 0-7.9 3.8-7.9 7.9v86.3c0 1.7-1.3 2.9-2.9 2.9-.8 0-1.7-.4-2.5-1.3l-59.2-92.5c-1.3-2.1-3.8-3.3-6.7-3.3-4.6 0-7.9 3.8-7.9 7.9v87.1c0 1.3-1.3 2.5-2.5 2.5h-45c-25.4 0-46.3-20.8-46.3-46.3s20.8-46.3 46.3-46.3h25.4V277h-25.4c-16.3 0-29.2 12.9-29.2 29.2 0 16.3 12.9 29.2 29.2 29.2h28.5v-.2z"/></svg>
