<svg xmlns="http://www.w3.org/2000/svg" viewBox="0 126 792 360"><path d="M163.4 331v-33.3c0-2.5-.4-3.8-2.5-3.8-1.3 0-3.8 1.3-3.8 1.3V331h-19.6v-53.8h18.3v5.4c2.5-3.8 8.3-7.1 12.9-7.1 12.5 0 13.8 8.8 13.8 19.6V331h-19.1zm41.3 1.3c-4.6 0-13.3-.8-17.9-2.1v-15.8l1.7.4s9.2 2.1 13.8 2.1c1.3 0 3.8 0 3.8-2.1 0-3.8-19.6-2.9-19.6-20.4 0-12.1 8.3-18.3 20-18.3 5.4 0 12.5.8 17.1 3.3v14.2l-2.5-.4s-7.5-1.7-12.9-1.7c-1.3 0-2.5 0-2.5 1.7 0 4.6 19.6 2.1 19.6 20.4-.2 12-9 18.7-20.6 18.7m43.3-55.1v33.3c0 2.5.4 3.8 2.5 3.8 1.3 0 3.8-1.3 3.8-1.3v-35.4h19.2V331h-18.3v-5.4c-2.5 3.8-8.3 7.1-12.9 7.1-12.5 0-13.8-8.8-13.8-19.6v-35.8H248v-.1zm82.1 53.8v-33.3c0-2.5-.4-3.8-2.5-3.8-1.3 0-3.8 1.3-3.8 1.3V331h-19.6v-33.3c0-2.5-.4-3.8-2.5-3.8-1.3 0-3.8 1.3-3.8 1.3V331h-19.2v-53.8H297v5.4c2.5-3.8 8.3-7.1 12.9-7.1 7.1 0 10.8 2.9 12.5 7.5 2.1-2.5 7.1-7.5 13.3-7.5 12.5 0 13.8 8.8 13.8 19.6V331h-19.4zm66.7-27.9c0-15-3.8-27.5-21.3-27.5-18.3 0-22.9 12.9-22.9 28.8 0 17.5 5.8 27.9 24.6 27.9 5.8 0 13.8-.8 19.2-2.9v-15.8l-2.1.4c-4.6.8-9.6 1.7-14.2 1.7-4.2 0-8.8-1.3-8.8-6.3h25v-6.3h.5zm-18.3-4.2h-6.7v-.4c0-2.1 0-8.3 3.3-8.3 3.4.4 3.4 6.2 3.4 8.7zm94.2 2.5s6.3-6.3 6.3-15.8c0-15.8-8.8-24.2-26.3-24.2h-19.6V331h19.6v-22.5h2.1l5.8 22.5h22.1l-10-29.6zm-20-7.1V278c4.6 0 6.7 3.3 6.7 7.5-.5 4.7-2.1 8.8-6.7 8.8"/><path d="M524 303.1c0-15-3.8-27.5-21.3-27.5-18.3 0-22.9 12.9-22.9 28.8 0 17.5 5.8 27.9 24.6 27.9 5.8 0 13.8-.8 19.2-2.9v-15.8l-2.1.4c-4.6.8-9.6 1.7-14.2 1.7-4.2 0-8.8-1.3-8.8-6.3h25v-6.3h.5zm-18.4-4.2H499v-.4c0-2.1 0-8.3 3.3-8.3 3.3.4 3.3 6.2 3.3 8.7zm51.7-23.3c-6.7 0-10.4 6.7-10.4 6.7h-.4v-5h-18.3v75h19.2v-20.4h.8c17.9 0 25-8.3 25-29.2 0-18-5-27.1-15.9-27.1m-7.9 41.2c-.8 0-1.3 0-2.1-.4v-23.8c.8-.4 1.7-.4 2.5-.4 3.8 0 4.2 8.8 4.2 11.3 0 6.7-.4 13.3-4.6 13.3m50-41.2c-17.5 0-23.3 12.1-23.3 28.8s5 27.9 22.9 27.9c17.5 0 23.3-12.1 23.3-28.8 0-16.3-5-27.9-22.9-27.9m-.4 40.8c-3.3 0-3.8-3.3-3.8-12.1 0-9.2.8-12.1 3.8-12.1 3.3 0 3.8 3.3 3.8 12.1.4 8.8-.5 12.1-3.8 12.1m-456.4-12.5c0 15.8-12.5 28.3-28.3 28.3-15.4 0-28.3-12.5-28.3-28.3 0-15.4 12.9-28.3 28.3-28.3 15.8 0 28.3 12.9 28.3 28.3m-34.6 0c0 3.3 2.9 6.3 6.3 6.3 3.3 0 6.3-2.9 6.3-6.3 0-3.3-2.9-6.3-6.3-6.3-3.4.5-6.3 3-6.3 6.3"/><path d="M77.5 332.3c-22.1 0-27.1-13.8-27.1-35.8 0-20.8 6.3-36.7 27.1-36.7 8.3 0 13.3 1.7 15.4 3.3v17.1l-3.3-1.3c-2.9-1.3-6.3-1.7-9.6-1.7-7.1 0-9.6 6.7-9.6 18.3 0 12.1 2.9 18.8 10.4 18.8 3.3 0 7.1-.4 9.6-1.7l2.9-.8v17.1c-3.3 1.7-8.3 3.4-15.8 3.4m629.9-39.2c0-1.7 1.7-1.7 2.5-1.7 5.4 0 12.9 1.7 12.9 1.7l2.5.4v-14.6c-5-2.1-12.1-3.3-17.1-3.3-11.3 0-20 6.7-20 18.3 0 17.1 19.6 16.3 19.6 20 0 2.1-2.1 2.1-3.8 2.1h-16.3v16.3H706c11.7 0 20.4-6.7 20.4-18.8 1-18.3-19-15.8-19-20.4m-25 23.3c-3.3 0-5.4-2.1-5.4-5.4v-17.9h8.3V276H677v-9.6h-15.8l-3.3 9.2v36.7c0 16.3 7.5 20 20 20h7.5V316h-2.9l-.1.4zm-40.5-31.7l-.4-7.5h-16.3V331h19.2v-35c2.5-1.7 5-2.5 9.6-2.9V276c-6.6.8-10.8 3.7-12.1 8.7m-224.6 0l-.4-7.5h-16.3V331h19.2v-35c2.5-1.7 5-2.5 9.6-2.9V276c-7.1.8-11.3 3.7-12.1 8.7m318.4-15c.8 0 2.1.4 2.9.8s1.7 1.3 2.1 2.1c.4.8.8 2.1.8 2.9s-.4 2.1-.8 2.9c-.4.8-1.3 1.7-2.1 2.1s-1.7.8-2.9.8c-.8 0-2.1-.4-2.9-.8-.8-.4-1.7-1.3-2.1-2.1s-.8-2.1-.8-2.9.4-2.1.8-2.9c.4-.8 1.3-1.7 2.1-2.1.8-.8 2.1-.8 2.9-.8m0 .9c-.8 0-1.7 0-2.5.4s-1.3.8-1.7 1.7c-.4.8-.8 1.7-.8 2.5s.4 1.7.8 2.5.8 1.3 1.7 1.7c.8.4 1.7.8 2.5.8s1.7 0 2.5-.8c.8-.4 1.3-.8 1.7-1.7.4-.8.8-1.7.8-2.5s-.4-1.7-.8-2.5-.8-1.3-1.7-1.7c-.8-.4-1.6-.4-2.5-.4m-2.5 7.9v-6.3h3.8c.4 0 .4.4.8.4 0 .4.4.4.4.8s0 .8-.4 1.3-.8.4-1.3.4c.4 0 .4 0 .4.4.4.4.4.8.8 1.3l.8 1.3h-1.3l-.4-.8c-.4-.8-.8-1.3-1.3-1.3 0 0-.4-.4-.8-.4h-.4v2.5H733v.4h.2zm.9-3.3h1.3c.4 0 .8 0 1.3-.4.4 0 .4-.4.4-.8v-.4l-.4-.4h-2.1v2.1h-.5v-.1z"/></svg>
