<svg xmlns="http://www.w3.org/2000/svg" viewBox="0 126 792 360"><path d="M293 340.6c0 .8 0 1.3-.4 1.7-3.3 4.6-7.5 7.9-13.3 8.8-5 .8-9.6 0-13.3-3.3-3.3-2.5-5.8-5.8-7.1-10-1.7-4.2-2.5-7.9-2.5-12.5-.4-5 0-9.6 1.7-14.6 1.3-4.6 3.3-8.8 7.1-11.7 4.6-4.2 10-5.8 16.3-3.8 5 1.7 9.2 4.6 12.1 9.2.4.4.4.8.4 1.7v17.1c-1 5.7-1 11.6-1 17.4m20.5-96.7H293v42.5c-1.3-1.3-2.5-2.1-4.2-3.3-3.8-2.9-7.9-4.6-12.5-5-5-.4-9.6 0-14.6 1.7s-9.2 4.2-12.9 7.9c-4.6 4.6-8.3 10-10.4 15.8-1.7 4.6-2.9 8.8-3.3 13.8 0 .8-.4 2.1-.4 2.9v7.9c0 1.3.4 2.9.4 4.2.4 4.2 1.7 8.8 3.3 12.5 2.9 6.7 6.7 12.5 12.5 16.7 3.8 2.9 7.9 4.6 12.5 5.4 1.7.4 2.9.4 4.6.8h5.8c7.1-.8 12.9-3.8 17.9-8.3l2.1-2.1c0 .4.4.4.4.4 2.1 2.5 4.2 5.4 6.3 7.9.4.4.8.4 1.3.4H313V245.1c.5-.4.5-.8.5-1.2M446 313.1c0-2.9.8-5.4 1.7-7.9 1.3-3.8 3.8-6.7 7.1-9.2 2.1-1.3 4.2-2.1 6.3-2.5 3.8-.4 7.5 0 10.8 2.1s5.4 5.4 6.7 9.2c.8 2.5 1.3 5 1.3 7.9H446v.4zm51.7-2.1c-.8-6.7-2.9-12.5-6.3-18.3-2.9-4.6-6.7-7.9-11.3-10.8-4.6-2.5-9.6-3.8-15-4.2-5.4-.4-10.4.4-15.4 2.1-4.2 1.7-7.9 4.2-11.3 7.5-4.2 4.2-7.5 9.2-9.6 14.6-2.1 5-3.3 10.4-3.3 15.8-.4 5-.4 9.6.8 14.6 1.3 6.3 3.3 12.5 7.1 17.9 2.5 3.8 5.8 7.1 9.6 9.6 4.6 3.3 10 5.4 15.4 6.7 2.1.4 3.8.4 5.8.8h6.7c1.3 0 2.5-.4 4.2-.4 5.8-.8 11.3-3.3 16.3-6.7 2.9-2.1 5.4-4.2 7.5-7.1-3.8-3.8-7.5-7.1-11.3-10.4-2.1 1.3-3.8 2.9-5.4 3.8-5.8 3.3-12.1 4.6-18.8 3.3s-11.3-5.4-14.2-11.3c-1.3-2.9-2.1-6.3-2.5-9.2v-3.8h51.7c-.3-3.7.1-8.2-.7-14.5m7.5-65.4v110.8s0 .8.4.8l8.8 8.8c.4.4.8.4 1.3.4h10V244.2h-20.4c-.1.5-.1.9-.1 1.4m51.7-.5v-1.3h-20v111.7c0 .4 0 1.3.4 1.7l8.3 8.3c.4.4.8.4 1.3.4h10V245.1m-129.2 34.6h-19.6c-4.2 20-8.8 40-12.9 60-.4-.8-.4-1.7-.8-2.5-1.7-7.1-3.3-14.2-5-21.3-1.7-6.3-2.9-12.9-4.2-19.2-1.3-5.4-2.5-10.8-3.8-16.3 0-.8-.4-.8-1.3-.8h-18.7v.4c1.3 4.6 2.5 9.2 3.8 14.2v1.3c-.8 2.9-1.7 5.8-2.5 8.8-.8 2.9-1.7 5.8-2.5 8.8-1.3 5-2.9 10-4.2 15-.8 3.3-1.7 6.3-2.5 9.6 0 .8-.4 1.7-.8 2.1-4.6-20-9.2-40.4-13.8-60.4h-19.6c7.9 28.8 16.3 57.5 24.2 86.3h16.2c.8 0 .8-.4.8-.8.4-1.7.8-3.3 1.3-4.6 1.7-5 2.9-10 4.6-15 1.7-6.3 3.8-12.5 5.4-18.8.4-1.3.8-2.5 1.3-3.8 0 .4.4.4.4.4.8 3.3 2.1 6.7 2.9 10.4 1.3 4.2 2.1 7.9 3.3 12.1 1.7 6.7 3.8 12.9 5.4 19.6 0 .8.4.8 1.3.8h16.3c.8 0 1.3-.4 1.7-1.3.8-3.8 2.1-7.1 2.9-10.8 1.7-6.7 3.8-12.9 5.4-19.6 1.7-5.4 2.9-10.8 4.6-16.7 2.1-7.1 3.8-13.8 5.8-20.8 1.3-4.6 2.5-9.2 3.8-14.2-.1-.4.4-1.6.8-2.9"/></svg>
