<svg xmlns="http://www.w3.org/2000/svg" viewBox="0 126 792 360"><path d="M185.9 311.4c-.4 4.2-.8 7.9-1.3 11.7h-13.3V296h5.8c.4 2.1.8 3.8 1.7 5.8h5.8v-17.5h-5.8c-.4 2.1-.8 3.8-1.3 5.4h-5.8v-25.4H185c0 3.8.4 7.1.4 10.8 2.9 0 5.8 0 8.8.4.4-5.8.8-11.7.8-17.5h-43.8v6.3c2.1.4 4.6.4 6.7.8v57.1c-2.1.4-4.2.8-6.3 1.3v6.3h44.2c-.4-5.8-.4-12.1-.8-17.9-3.3-.5-6.2-.5-9.1-.5m194.7 3.8c-.4 2.1-.8 3.8-1.3 5.8 0 .8-.4 1.3-1.3 1.3-3.8 1.3-7.5 1.3-11.3-.4v-30.5c0-2.5 1.7-4.6 4.2-5h.8c4.2-.8 7.1.8 8.3 5 .4 2.1.8 3.8 1.3 5.8.1 6.3.1 12.1-.7 18m10.4-25.5c-1.7-5.8-5.4-10-12.1-10.8-5.4-.4-10 .8-13.3 5l-.4.4c-.4-1.7-.8-3.8-1.7-5.4-5 .8-10 1.3-14.6 2.1v5c2.1.4 3.8.4 5.4.8v60.9c-1.7.4-2.9.8-4.6.8 0 1.7-.4 3.3-.4 5H371c0-1.7.4-3.3.4-5-1.7-.4-3.3-.8-5-.8v-19.2h.8c2.9 1.3 6.3 1.7 9.6 1.3 6.3-.4 10.8-3.8 13.3-9.6.8-2.1 1.3-4.2 1.7-6.3 1.3-5.4.8-11.3.4-17.1.5-1.6-.4-4.6-1.2-7.1m120.5 31.7v-28.3c0-1.3 0-2.5-.4-3.8-.8-4.6-2.9-7.9-7.5-9.6-5-1.7-10-1.3-15 1.7-1.3.8-2.5 1.7-3.3 2.5-.4-1.7-.8-2.9-1.3-4.6-5 .8-9.6 1.3-14.2 2.1v5.4c2.1.4 3.8.4 5.4.8v35.8c-1.7.4-3.3.8-4.6.8v5h21.7c0-1.7.4-3.3.4-5-1.7-.4-3.3-.8-5-.8v-31.7c0-1.7 1.3-2.9 2.5-3.3 1.7-.8 3.3-.8 5-.4s3.3 1.3 3.8 2.9c.4 1.3.8 2.9.8 4.6v34.6h16.7c0-1.7 0-3.3.4-5-1.7-.4-3.3-.8-5-.8v-2.9h-.4zm-271 0v-28.8c0-1.3 0-2.5-.4-3.8-.8-5-3.8-8.3-8.8-9.6-5.8-1.3-10.8-.4-15.4 3.8l-1.3 1.3c-.4-1.7-.8-3.3-1.3-4.6-5 .8-9.6 1.3-14.2 2.1v5.4c2.1 0 3.8.4 5.4.4.4 1.7.4 35 0 35.8-1.7.4-2.9.8-4.6.8 0 1.7 0 3.3-.4 5h21.7c0-1.7 0-3.3.4-5-1.7-.4-3.3-.8-5-.8v-31.3c0-.8.4-1.7.8-2.5 1.7-2.1 3.8-2.1 5.8-1.7 2.9.4 4.6 2.1 5 5 0 1.3.4 2.5.4 3.8v33.4h16.7v-5c-1.7-.4-3.3-.8-5-.8l.2-2.9zm359.8 0v-36.7c0-2.1-.8-3.8-1.3-5.8-5.4.4-10.8 1.3-16.3 1.7v4.6c2.1 0 3.8.4 5.4.4v32.1c0 1.3-1.7 3.8-2.9 3.8-1.3.4-2.5.4-3.8.4-3.3 0-5.8-2.1-6.3-5.8 0-1.3-.4-2.5-.4-3.8v-28.8c0-2.1-.8-3.8-1.3-5.4-5.4.8-10.8 1.3-16.3 1.7v4.6c1.7 0 3.8.4 5.4.4v29.6c0 1.3 0 2.9.4 4.2.8 4.2 2.9 7.1 6.7 9.2 5 2.5 12.5 2.9 18.3-2.5.4-.4.8-.4 1.3-.8.4 1.7.8 2.9 1.3 4.2h13.8c0-1.7.4-3.3.4-5-1.7-.4-3.3-.8-5-.8v-1.3h.6v-.2zm-277.7-19.6v-.8c0-4.2.8-8.3 2.5-12.5.4-1.3 1.3-2.1 2.5-2.5 2.9-.8 5.4 0 7.1 2.9 1.7 2.5 2.1 5.4 2.5 8.3 0 1.3.4 2.5.4 4.2-5.4 0-10 .4-15 .4m19.2-18.7c-4.6-4.6-10-5-15.8-3.8-6.3 1.3-10.4 5.4-12.9 10.8-1.7 3.3-2.5 7.1-2.9 10.8-.4 6.3 0 12.1 2.9 17.9 2.5 5 6.3 9.2 11.7 10.8 6.7 2.1 12.9.8 19.2-2.5.8-.4 1.7-1.3 2.5-1.7-.8-1.7-1.3-3.3-2.1-4.6-.4.4-.8.4-1.3.4-2.9 1.3-6.3 2.1-9.2 1.7-3.3 0-6.3-1.7-8.3-4.6-2.1-3.3-2.9-6.7-2.9-10.8 8.3 0 16.3 0 24.6-.4.4-1.3 1.3-2.5 1.3-3.8 0-3.8-.4-7.5-1.3-11.3-1.3-3.1-3-6.4-5.5-8.9m189.3 18.7c-.4-1.7 0-3.3 0-5 .4-2.9 1.3-5.4 2.1-8.3.8-3.3 7.1-3.8 8.8-1.3.8 1.3 1.7 2.5 2.1 4.2.8 2.9 1.3 6.3 1.7 9.6-5.2.4-9.7.8-14.7.8m17-20.4c-4.2-2.9-9.2-3.3-14.2-2.1-6.3 1.3-10.4 5.4-12.9 11.3-3.8 9.2-3.8 18.3-.4 27.5 2.9 7.1 7.9 11.7 15.8 12.5 6.3.8 12.1-.8 17.5-4.6.4 0 .4-.4.8-.4-.8-1.7-1.3-3.3-2.1-4.6-.8.4-1.3.4-2.1.8-2.9 1.3-5.8 1.7-9.2 1.7-2.9 0-5.4-1.3-7.1-3.3-1.7-2.1-2.5-4.2-2.9-6.7-.4-1.7-.4-3.3-.4-5 8.3 0 16.3 0 24.6-.4.4-1.3.8-2.5.8-3.8 0-4.6-.4-9.2-2.1-13.8-1.1-3.7-2.7-7-6.1-9.1m-105 20.4c0-1.3 0-2.5.4-3.8.4-3.3 1.3-6.7 2.5-10 .4-.8.8-1.3 1.7-1.7 3.3-1.3 5.8-.4 7.9 2.5 1.3 2.5 2.1 5 2.1 7.9 0 1.3.4 2.9.4 4.6-5 .1-9.6.5-15 .5m16.3-20.8c-5.4-2.9-10.8-2.5-16.3-.4-4.6 1.7-7.5 5.4-9.6 9.6-1.7 3.8-2.5 7.9-2.9 11.7-.4 6.3.4 12.1 3.3 17.5s7.1 9.2 12.9 10.4c6.7 1.3 12.5 0 18.3-3.3.4-.4 1.3-.8 1.7-1.3-.8-1.7-1.3-2.9-2.1-4.6-.8.4-1.3.4-2.1.8-2.9 1.3-6.3 1.7-9.2 1.7-2.9 0-5-1.3-7.1-3.3-2.9-3.3-3.3-7.5-3.8-11.7 8.3 0 16.3 0 24.6-.4.4-1.3 1.3-2.5 1.3-3.8 0-5-.8-9.6-2.5-14.2-.7-4.1-2.8-7-6.5-8.7m-155.1-1.7c-3.8.4-7.5 1.3-11.3 3.3-.4.4-1.3.8-1.7 1.3-.4-1.7-.8-2.9-1.3-4.6-5 .8-9.6 1.3-14.6 2.1v5.4c1.7 0 3.3.4 5 .4v36.3c-1.7.4-2.9.8-4.6 1.3v5h21.3c0-1.7 0-3.3.4-5-1.7-.4-3.3-.8-5-1.3v-34.2c1.7-.8 3.3-1.7 5-1.7.4 2.5.4 4.6.8 7.1 2.5 0 5.4.4 7.9.4.4-4.6.8-9.2 1.7-13.3-.3-2.1-1.9-2.5-3.6-2.5m331.8 0c-2.1.4-4.6.8-6.7 1.3-2.1.8-4.2 1.7-6.3 2.9-.4-1.3-.8-2.5-1.3-4.2-5 .8-9.6 1.3-14.6 2.1v5c2.1.4 3.8.4 5.4.8v36.3c-1.7.4-2.9.8-4.6 1.3 0 1.7 0 3.3-.4 5h21.7c0-1.7.4-3.3.4-5-1.7-.4-3.3-.8-5-1.3v-34.6c1.7-.4 3.3-1.3 5-1.7.4 2.5.8 5 .8 7.5 2.9 0 5.4 0 7.9.4.4-4.6.8-9.2 1.7-13.3-.7-2.1-1.9-2.9-4-2.5m-211.3 0c-2.9.4-5.8.8-8.3 2.1-1.3.8-2.9 1.3-4.2 2.1-.4-1.3-.8-2.9-1.3-4.2-5 .8-9.6 1.3-14.6 2.1v5.4c1.7 0 3.3.4 5.4.4v36.3c-1.7.4-2.9.8-4.6 1.3v5h21.3c0-1.7.4-3.3.4-5-1.7-.4-3.3-.8-5-1.3v-34.6c1.7-.4 3.3-1.3 5-1.7.4 2.5.4 5 .8 7.5 2.9 0 5.4 0 7.9.4.4-4.6.8-9.2 1.7-13.3-1.2-2.1-2.5-2.5-4.5-2.5m-158 43.8c-2.1 0-3.3-1.3-3.8-3.3v-32.6c2.5-.4 5.4-.4 7.9-.8 0-2.1.4-4.2.4-6.3h-8.8v-10c-2.9 0-5.4.4-8.3.4-.8 3.3-2.1 6.3-2.9 9.6-2.1 0-4.2 0-6.3.4 0 2.1 0 4.2-.4 6.3 2.1.4 3.8.4 5.8.8v34.2c.4 4.6 3.8 7.9 8.3 8.8 2.9.4 6.3.4 9.2-.4 1.3-.4 2.9-.4 4.2-1.3 0-1.7-.4-3.3-.4-5.4-1.6-.4-3.3 0-4.9-.4"/></svg>
