<svg xmlns="http://www.w3.org/2000/svg" viewBox="0 126 792 360"><path d="M383.1 288.1c0 10.4-1.3 43.4-1.3 43.4 0 6.3 2.1 9.2 7.9 9.2v2.9H366v-2.9c5.8 0 9.2-2.9 9.2-9.2l2.1-53.4c-1.7-4.2-3.3-5.4-7.9-5.8v-2.5h18.3l19.2 50 19.2-50h16.3v2.5c-4.6 0-7.1 2.1-7.1 7.1l2.1 51.7c0 7.9 1.3 10 7.9 10v2.9h-27.1v-3c5.4 0 7.9-1.7 7.5-10 0 0-1.3-36.3-1.3-42.5l-12.9 35.8c-1.7 4.6-3.3 10-5 15.4l-4.2.4c-1.3-3.8-3.8-10.8-3.8-10.8s-11.7-31.2-15.4-41.2"/><path d="M361 344.6c-1.3-.4-2.9-.4-4.2-.4-2.9 0-7.9 1.3-13.8 1.3-22.9 0-39.6-13.8-39.6-39.2 0-21.3 15.8-37.9 40-37.9 5.4 0 12.1 1.3 17.1 3.3 1.3-1.3 1.3-1.7 2.5-2.9h2.1c-.4 3.8-1.7 16.7-1.7 16.7h-2.1c-1.3-7.5-5.4-12.5-17.5-12.5-14.6 0-27.9 11.7-27.9 32.9 0 24.2 13.8 35 28.8 35 10 0 15.8-5.4 19.6-12.5l2.5 1.3-5.8 14.9zm-66.7-61.5h-2.5c-.4-6.7-2.5-8.8-7.9-8.8h-10v55c0 9.2 1.7 10.8 7.9 10.8v2.9h-26.3v-2.9c5.8 0 7.9-1.7 7.9-11.3v-54.6h-10c-6.7 0-7.9 1.7-9.6 8.8h-2.5l1.7-15.8 1.7.4c.8 1.7 2.1 1.7 6.3 1.7h34.2c6.3 0 7.9 0 9.2-2.1h1.7l-1.8 15.9zm-74.6 62.1c-5 0-8.8-.8-11.7-1.7-2.9-.8-5-1.7-5.8-2.5-1.3 1.3-2.5 3.3-2.5 3.3l-2.1-.8 1.7-16.7 2.5.4c1.3 7.9 6.7 13.3 17.5 13.3 8.3 0 14.2-7.1 14.2-14.6 0-6.3-2.5-9.6-10.8-15.8-2.9-1.7-5.4-3.3-7.5-5-7.9-5-12.5-10.4-12.5-19.6 0-10.4 8.8-17.5 20.4-17.5 6.7 0 10.8 2.1 12.5 2.9l2.5-2.9 1.7.4-2.1 14.6-2.5-.4c0-7.1-4.2-10-11.3-10-6.7 0-11.7 3.3-11.7 10 0 5.8 4.6 10 10 13.3 2.9 1.7 5 3.3 7.1 4.6 12.5 8.8 15 14.6 15 22.9 0 12.6-9.2 21.8-24.6 21.8m-40-62.1h-2.9c0-6.3-2.9-8.8-8.3-8.8h-15.8v27.9h10c5.4 0 6.3-2.9 7.1-7.5h2.5v19.6h-2.5c-.8-5.4-1.7-7.5-7.5-7.5h-10v23.8c0 8.8 2.1 10 7.9 10v2.9h-26.7v-2.9c6.7 0 7.9-1.7 7.9-10v-51.7c0-5-2.1-7.1-7.9-7.1v-2.5h36.7c6.3 0 7.9-.4 8.8-2.5h2.5l-1.8 16.3zm335.5.8l-10 32.1h20.4l-10.4-32.1zm43.8 3.3v42.1c0 9.2 2.1 10.8 7.9 10.8v2.9h-41.7v-2.9c3.3 0 5.8-1.3 5.8-3.3 0-1.3-.4-3.8-1.3-6.3l-3.3-10h-23.3c-.4 1.3-4.6 12.9-4.6 16.3 0 2.9 3.3 3.3 5.4 3.3v2.9h-19.2v-2.9c3.3 0 6.3-.4 8.8-7.9l17.9-57.5c-1.3-2.5-2.5-3.3-5-3.3v-2.5h15.8l19.2 60c1.7 6.3 3.3 9.6 6.3 10.8 4.2-1.3 5.4-2.9 5.4-10.8v-50c-3.3-4.2-3.3-7.1-9.6-7.1v-2.5h17.9l29.6 50.4v-38.3c0-7.9-1.7-9.6-7.9-9.6v-2.5h39.2v2.5c-2.5 0-4.6 1.3-4.6 3.3 0 1.7.8 3.3 1.3 5.4l11.3 24.2 10.8-23.8c1.7-3.3 2.1-5 2.1-6.7 0-2.1-1.3-3.3-4.6-3.3v-2.5h18.8v2.5c-4.6 0-7.5 4.2-9.6 9.2l-14.6 29.6v19.2c0 8.3 2.1 10.4 7.9 10.4v2.9h-26.7v-2.9c5.8 0 7.9-2.1 7.9-10.4v-16.7l-15.4-32.5c-2.9-6.3-3.8-7.9-5.4-8.8-3.3 1.3-4.6 3.8-4.6 9.6v54.2s.4 4.2.8 9.2l-4.6.4-34.1-57.1z"/><path d="M468.1 274.3h-1.7v36.3h3.3c11.7 0 17.5-5.4 17.5-18.8.1-13.3-5.3-17.5-19.1-17.5m3.3 41.7H466v15c0 7.9 2.1 9.6 7.9 9.6v2.9h-27.1v-2.9c5.4 0 7.9-2.1 7.9-10V281c0-7.9-2.1-9.2-7.9-9.2v-2.5h20.4c19.6 0 31.3 5.8 31.3 22.1.5 17.1-13.7 24.6-27.1 24.6m-122.5-29.2c-9.2 0-12.5 8.8-12.5 19.2 0 9.6 2.9 19.2 12.5 19.2 9.2 0 12.1-9.6 12.1-19.2 0-10-3.8-19.2-12.1-19.2m0 42.5c-13.3 0-22.5-9.6-22.5-23.3 0-12.9 9.6-23.3 22.5-23.3 12.5 0 22.1 10 22.1 23.3 0 12.9-10 23.3-22.1 23.3M189.2 291l-5.4 17.1h10.8l-5.4-17.1zm5 34.2v-2.5c3.3 0 4.2-1.3 4.2-2.1 0-1.3-.4-2.5-.8-3.3 0 0-.8-2.9-1.3-5h-13.8l-1.3 4.6c-.4 1.3-.8 2.1-.8 3.3 0 1.3 1.3 2.5 3.3 2.5v2.5h-13.8v-2.5c3.3 0 5-1.3 6.3-5l10.4-31.7c-.4-1.3-1.3-2.5-3.3-2.5V281h11.3c9.2 26.7 11.7 33.8 11.7 33.8 1.7 5.8 3.3 7.9 6.3 7.9v2.5h-18.4z"/></svg>
