<svg xmlns="http://www.w3.org/2000/svg" viewBox="0 126 792 360"><path d="M427.3 348.5c-1.7 0-3.8 0-5.4-.4-.4-6.3-.8-31.7-.4-54.2 2.5-.8 4.2-1.3 6.7-1.3 9.6 0 14.6 11.3 14.6 25.4.3 17.2-6.4 30.5-15.5 30.5m10-62.9c-6.3 0-10.8 1.3-15.8 3.8 0-13.8 0-26.7.4-30.8l-29.2 5.4v2.5l2.9.4c3.8.8 5.4 2.9 6.3 8.3.8 10.4.4 66.3 0 75 7.9 1.7 16.3 2.9 24.2 2.9 22.9 0 37.1-14.2 37.1-37.1.3-17.5-10.9-30.4-25.9-30.4m-153.8-25.5h-76.7v4.2l4.2.4c5.8.8 7.9 4.2 8.8 12.5 1.3 15.8.8 43.8 0 57.5-.8 8.3-2.9 12.1-8.8 12.5l-4.2.8v3.8H256v-3.3l-5.4-.8c-5.8-.4-7.9-4.2-8.8-12.5-.4-5.8-.8-14.6-.8-26.3l10.4.4c6.7 0 9.6 5.4 10.8 12.5h3.8V291h-3.3c-1.3 7.5-4.2 12.5-10.8 12.5l-10.4.4c0-14.6.4-28.8.8-37.1h15.4c11.7 0 17.9 7.5 22.1 20.4l4.2-1.3-.5-25.8z"/><path d="M306.8 288.9c-9.6 0-12.1 12.9-12.1 30 0 16.7 4.2 30 12.9 30 10 0 12.5-12.9 12.5-30 0-16.2-4.1-30-13.3-30m1.2-4.2c21.7 0 32.5 14.6 32.5 34.2 0 18.8-12.1 34.2-33.8 34.2s-32.5-14.6-32.5-34.2c.1-18.7 12.2-34.2 33.8-34.2m181 26.7l20.4-.4c0-8.8-1.3-21.7-8.8-21.7-7.1-.4-11.2 12.1-11.6 22.1m-20.1 7.9c0-17.9 11.3-34.6 33.3-34.6 18.3 0 27.1 13.3 27.1 31.3H489c-.4 16.3 7.5 27.9 22.9 27.9 7.1 0 10.4-1.7 14.6-4.6l1.7 2.1c-4.2 6.3-13.8 12.1-26.3 12.1-18.8 0-33-14.2-33-34.2m112.2-31.2c-5.4-2.1-12.1-3.3-20-3.3-16.3 0-26.3 9.6-26.3 20.8 0 11.3 7.5 16.3 17.9 19.6 10.8 3.8 13.8 7.1 13.8 12.1 0 5.4-3.8 10-10.8 10-8.3 0-14.2-4.6-19.2-17.9l-2.9.8.4 19.2c5.4 2.1 14.6 3.8 22.9 3.8 17.1 0 27.9-8.8 27.9-22.1 0-9.2-4.6-14.2-16.3-18.8-12.1-4.6-16.7-7.9-16.7-13.3 0-5.8 3.8-9.6 9.2-9.6 7.9 0 12.9 4.6 17.1 16.7l2.9-.8.1-17.2zm-183.8-1.7c-7.5-4.2-20.4-2.1-27.5 13.3l.4-15.4-29.2 5.8v2.5l2.9.4c3.8.4 5.8 2.5 6.3 8.3.8 10.4.4 28.8 0 37.9-.4 5.4-2.1 7.9-6.3 8.3l-2.9.4v3.8h40.4v-3.3l-5-.8c-4.2-.4-5.8-2.9-6.3-8.3-.8-8.3-.8-24.6-.4-35 2.1-2.9 11.7-5.8 20.4 0l7.2-17.9z"/></svg>
