<svg xmlns="http://www.w3.org/2000/svg" viewBox="0 126 792 360"><path d="M225.9 268.1c-2.1 0-4.2.8-5.4 2.1-1.3 1.7-2.1 3.8-2.1 6.7v57.5c0 2.9.8 5.4 2.1 6.7 1.3 1.7 3.3 2.1 5.4 2.1s4.2-.8 5.4-2.1c1.3-1.7 2.1-3.8 2.1-6.7v-57.1c0-2.9-.8-5.4-2.1-6.7-1.2-1.7-2.9-2.5-5.4-2.5m308.5 0h-19.2c-3.3 0-5.8.8-7.1 2.1-1.3 1.7-2.1 3.8-2.1 7.1v57c0 3.3.8 5.8 2.1 7.1 1.3 1.7 3.8 2.1 7.1 2.1h20.5c12.1-.4 22.5-6.3 29.2-15.4 4.6-6.3 7.1-14.2 7.1-22.5s-2.5-16.3-7.1-22.5c-6.7-9.2-17.1-15-29.2-15.4-.9.4-1.3.4-1.3.4m-13.3 60.4v-45.4h10c2.1 0 4.2.4 5.8.4 6.7.8 12.1 4.6 15.8 9.6 2.5 3.8 3.8 7.9 3.8 12.9 0 4.6-1.3 9.2-3.8 12.9-3.8 5-9.2 8.8-15.8 9.6h-15.8zM391 268.1c-2.1 0-4.2 1.3-5.4 2.9l-22.9 35-22.9-34.6c-1.3-2.1-3.3-2.9-5.4-2.9-.8 0-1.3 0-2.1.4-2.9.8-4.6 3.3-4.6 6.3v61.7c0 3.8 2.9 6.7 6.7 6.7s6.7-2.9 6.7-6.7v-39.6l16.3 24.6s0 .4.4.4c0 0 0 .4.4.4l.4.4s.4 0 .4.4c0 0 .4 0 .4.4h.4c.8.4 1.3.4 2.1.4h1.6c.8 0 1.3-.4 2.1-.4h.4s.4 0 .4-.4c0 0 .4 0 .4-.4l.4-.4.4-.4.4-.4 16.3-24.6v39.6c0 3.8 2.5 6.7 6.3 6.7s6.3-2.9 6.3-6.7v-62.1c0-2.9-1.7-5.4-4.6-6.3-.1 0-.9-.4-1.3-.4m-88.4.8H258c-3.8 0-6.7 2.5-6.7 6.3s2.9 7.1 6.7 7.1h33.3l-40 46.7c-2.1 2.9-2.1 6.3-.8 8.8s3.8 4.2 6.7 4.2h49.2c3.8 0 6.3-3.3 6.3-7.1s-2.5-7.1-6.3-7.1H271l38.8-45.4c2.5-2.9 2.5-7.9.4-10.4-2.2-2.7-5.1-3.1-7.6-3.1m-132.1-.8c-14.6 0-37.9 10.4-37.9 38.8 0 8.8 3.8 17.9 9.6 25 7.1 7.9 17.1 12.1 27.9 12.1 13.8 0 24.2-5.4 28.8-10 1.3-1.3 2.1-3.3 2.1-5v-21.3c0-4.2-2.9-7.1-6.7-7.1h-17.9c-3.8 0-7.1 3.3-7.1 7.1 0 4.2 3.3 7.1 7.1 7.1h11.3v10.8c-3.8 2.1-9.2 4.2-17.1 4.2-14.2 0-21.7-12.1-21.7-22.5 0-17.9 12.5-24.2 22.1-24.2 10 0 17.5 5 17.5 5 1.3.8 2.5 1.3 3.8 1.3 2.1 0 4.6-1.3 5.8-3.3 2.1-3.3 1.3-7.9-2.1-10-.5-.9-11.3-8-25.5-8m281.8 0c-20.8 0-37.9 17.1-37.9 37.9s17.1 37.9 37.9 37.9 37.9-17.1 37.9-37.9c0-5.8-1.3-11.3-3.8-16.3-.4-.4-.4-.8-.8-1.3v-.4c-.4-.4-.4-.8-.8-1.3v-.4c-.4-.4-.4-.8-.8-1.3-7.1-9.8-18.8-16.9-31.7-16.9m0 60.4c-4.6 0-9.2-1.3-12.5-3.8-2.5-1.7-4.6-3.8-6.3-6.3-2.5-3.8-3.8-7.9-3.8-12.5 0-12.5 10-22.5 22.5-22.5s22.5 10 22.5 22.5c.1 12.6-10.3 22.6-22.4 22.6m169.6-60.4c-20.8 0-37.9 17.1-37.9 37.9s17.1 37.9 37.9 37.9 37.9-17.1 37.9-37.9c0-10.4-4.2-19.6-10.8-26.3-7.1-7-16.7-11.6-27.1-11.6m0 60.4c-3.3 0-6.7-.8-9.6-2.1-5.8-2.9-10-7.9-12.1-13.8-.4-2.1-.8-4.2-.8-6.7 0-12.5 10-22.5 22.5-22.5s22.5 10 22.5 22.5c0 12.6-10 22.6-22.5 22.6"/></svg>
