<svg xmlns="http://www.w3.org/2000/svg" viewBox="0 126 792 360"><path d="M213 357.7h-10v-52.9h8.3c11.3 0 18.3 9.2 17.9 27.5.1 15.8-5.8 25.4-16.2 25.4m-10-102.1h5.8c10.8 0 18.3 6.7 18.3 23.8 0 15-6.7 23.8-15 23.8h-9.6v-47.5h.5zm12.5 48.3c8.3 0 26.3-3.8 25.8-25.4-.4-21.7-17.1-24.2-30.4-24.2h-31.3v1.3H190v102.1h-10.4c-.4 0-.4.8 0 .8h36.3c17.1 0 28.8-13.3 28.8-27.1 0-17.5-16.3-27.5-29.2-27.5m42.5 22.9l14.2-52.5 12.5 52.5H258zm19.2-75.8l-26.3 98.4c-1.3 5.8-2.1 8.3-2.1 8.3h-10.4v.8h22.5v-.8h-10.8s.4-2.9 2.1-8.3l5.8-21.7h27.5l8.3 30h-11.3v.8h35.8v-.8H308L277.2 251zm49.6 2.9v51.7h.8c0-4.2.4-7.5.4-10.4.4-20.4 4.6-40 20.4-40h21.7l-44.6 103.4h57.9v-53.4h-.8c-.8 37.9-4.6 51.7-23.3 52.5h-19.6l43.8-104.2h-56.7v.4zm235.5 49.6v-48.8h7.5c10 0 19.6 6.7 18.8 25-.8 16.7-5.8 23.3-16.7 23.3h-9.6v.5zM481 326.8l14.2-52.5 12.9 52.5H481zm-73.7 0l14.2-52.5 12.5 52.5h-26.7zm205 18v-9.6h-.8v18.7c0 1.3-.8 2.9-1.7 3.8-.8.8-2.1 1.3-3.8 1.3-4.2 0-5.4-5.4-5.4-12.9l.4-13.3c2.1-21.3-7.9-28.3-24.6-28.3 11.3 0 25.8-6.7 25.8-25 0-21.3-13.3-25.8-30-25.8h-33.8v1.3H549v103h-18.7l-30-106.7-26.3 98.4c-1.3 5.8-2.1 8.3-2.1 8.3h-15.5l-30-106.7-26.3 98.4c-1.3 5.8-2.1 8.3-2.1 8.3h-10.4v.8h22.5v-.8h-11.3s.4-2.9 2.1-8.3l5.8-21.7h27.5l8.3 30h-11.3v.8H484v-.8h-11.3s.4-2.9 2.1-8.3l5.8-21.7h27.5l8.3 30h-11.3v.8h69.6v-.4h-12.5v-52.5h9.6c10 0 16.3 4.6 16.3 17.5v9.6c-.4 20.8 3.3 28.8 13.8 28.8 2.5 0 4.6-.4 6.7-1.3 1.7-.8 2.9-2.5 3.3-3.8.9-2.3.9-3.6.4-11.9"/><path d="M443.5 253.5v.4h1.3v4.6h-4.2v-4.6h1.7v-.4h-5v.4h1.2v10.4h-1.2v.4h5v-.4h-1.7v-5.4h4.2v5.4h-1.3v.4h5v-.4h-1.6v-10.4h1.6v-.4m4.6 7.9v1.6s-.4.8-1.3.8c-.8 0-.8-.4-.8-1.3 0-1.1 1.3-1.1 2.1-1.1m-2.1 3.3c.8 0 1.7-.4 2.5-1.3 0 .8.4 1.3 1.3 1.3.8 0 1.3-.4 1.7-.8v-.4l-.4.4s-.4 0-.4-.4v-4.6c0-.4 0-.8-.4-.8-.4-.4-1.3-.4-2.1-.4s-2.5.4-2.5 1.7c0 .4.4.8.8.8s.8-.4.8-.8 0-.8-.4-.8c-.4-.4.4-.8 1.3-.8.4 0 1.3 0 1.3.4v2.1c-1.3 0-4.2.4-4.2 2.5-.9 1.5-.1 1.9.7 1.9m6.7-.4h-.8v.4h4.2v-.4h-1.3v-1.7c0-2.1.4-2.9.8-3.8 0-.4.4-.4.8-.4v.8s.4.8.8.8.8-.4.8-.8c0-.8-.8-1.3-1.3-1.3-1.3 0-1.7.8-2.1 2.1v-1.7h-2.9v.4h1.3v5.4h-.3z"/><path d="M465.6 260.1c0-.8.8-2.1 1.7-2.1.8 0 1.3.4 1.3 1.7v3.8c0 .8-.4 1.3-1.3 1.3-1.3 0-1.7-1.3-1.7-2.1v-2.6zm-1.7 8h-1.3v.4h4.2v-.4h-1.3v-4.6c.4.8 1.3 1.3 2.1 1.3 1.7 0 2.9-1.7 2.9-3.3s-1.3-3.3-2.9-3.3c-.8 0-1.7.4-2.1 1.3v-1.3h-2.9v.4h1.3v9.5zm10.5-10c1.3 0 1.3 1.3 1.3 2.1h-2.5c.3-.9-.1-2.1 1.2-2.1m0 6.6c1.7 0 2.5-.8 2.9-2.5h-.4c0 1.3-.9 2.1-2.5 2.5-.8-.4-1.3-1.3-1.3-2.5V261h3.8c.4 0 .4 0 .4-.4 0-1.7-1.3-2.9-2.9-2.9-1.7 0-3.3 1.7-3.3 3.3.3 2.1 1.6 3.7 3.3 3.7m4.6-.4h-.8v.4h4.2v-.4H481v-1.7c0-2.1.4-2.9.8-3.8 0-.4.4-.4.8-.4v.8s.4.8.8.8.8-.4.8-.8c0-.8-.8-1.3-1.3-1.3-1.3 0-1.7.8-2.1 2.1v-1.7h-2.9v.4h1.3v5.4h-.2zm6.2-7.5c.4 0 .8-.4.8-.4s0-.4.4-.4c0 0 .4.4.4.8 0 .8-.4 1.7-1.3 2.1l-.4.4s0 .4.4 0c.8-.4 1.7-1.7 1.7-2.9 0-.8-.4-1.7-1.7-1.7-.8 0-1.3.4-1.3 1.3.2.4.6.8 1 .8m2.9 7.5c.4.4 1.3.8 1.7.8 1.3 0 2.1-.8 2.1-2.5s-.8-2.1-2.1-2.1c-1.3-.4-1.7-.4-1.7-.8 0-.8.8-1.3 1.3-1.3.8 0 1.7.8 1.7 1.7h.4V258h-.5l-.4.4c-.4-.4-.8-.4-1.7-.4-1.3 0-2.1.8-2.1 2.1s.4 2.1 2.1 2.1c.8 0 1.7 0 1.7.8s-.8 1.3-1.3 1.3c-1.3 0-1.7-1.3-2.1-2.5h-.4v2.5h1.3z"/></svg>
