<svg xmlns="http://www.w3.org/2000/svg" viewBox="0 126 792 360"><path d="M346.4 223.5L234.7 296h223.4m-168.4 5.8v30H263v-30h-28.3v84.7H263V356h26.7v30.5h28.4v-84.7m3.3 42.5c0-25.4 20-44.6 46.7-44.6 14.6 0 27.1 5 36.3 12.9l-15.8 19.2c-5.4-4.6-11.7-6.7-18.8-6.7-10.8 0-18.3 7.5-18.3 19.2v.4c0 12.1 8.8 19.6 19.6 19.6 5 0 7.5-1.3 9.6-2.5V356H366v-19.6h40.9v39.2c-9.2 7.5-22.9 12.5-38.3 12.5-26 .4-47.2-17.5-47.2-43.8m204.7-42.5l-16.3 47.6-16.7-47.6h-85.8v23.8h22.5v60.9h28.3v-60.9h13.3l24.6 60.9h27.1l34.2-84.7"/></svg>
