<svg viewBox="-168 42 460 27">
  <g id="g3909" transform="matrix(2.1040423,0,0,2.1040423,81.032405,141.77576)">
    <path id="path3321" d="M-111.9-38.1c0,1.7,0,2,1,2l0.5,0c0.1,0.1,0.1,0.4,0,0.4c-0.9,0-1.5,0-2.1,0c-0.7,0-1.2,0-2.3,0
      c-0.1,0-0.1-0.3,0-0.4l0.6,0c0.9-0.1,1-0.3,1-2v-7.3c0-0.5,0-0.5-0.5-0.5h-0.9c-0.7,0-1.6,0-2,0.4c-0.4,0.4-0.6,0.7-0.7,1.1
      c-0.1,0.1-0.4,0-0.4-0.1c0.3-0.7,0.5-1.8,0.6-2.4c0,0,0.3,0,0.3,0c0.1,0.5,0.6,0.5,1.4,0.5h6.6c0.9,0,1,0,1.3-0.5
      c0.1,0,0.3,0,0.3,0c-0.2,0.7-0.3,2-0.2,2.5c-0.1,0.1-0.3,0.1-0.4,0c0-0.4-0.2-1-0.4-1.2c-0.4-0.3-1-0.4-1.9-0.4h-1.2
      c-0.5,0-0.5,0-0.5,0.6L-111.9-38.1L-111.9-38.1z"></path>
    <path id="path3325" d="M-101.5-40.9c-0.8,0-0.8,0-0.8,0.5v2.3c0,1.7,0.1,1.9,1,2l0.5,0c0.1,0.1,0.1,0.4,0,0.4c-0.9,0-1.4,0-2.1,0
      c-0.7,0-1.3,0-1.9,0c-0.1,0-0.1-0.3,0-0.4l0.3,0c0.9-0.2,0.9-0.3,0.9-2V-44c0-1.7-0.1-2-1-2.1l-0.4,0c-0.1-0.1-0.1-0.4,0-0.4
      c0.8,0,1.4,0,2.1,0c0.6,0,1.2,0,1.9,0c0.1,0,0.1,0.3,0,0.4l-0.3,0c-0.9,0.1-1,0.3-1,2.1v1.9c0,0.5,0,0.5,0.8,0.5h4.7
      c0.8,0,0.8,0,0.8-0.5V-44c0-1.7,0-2-1-2.1l-0.3,0c-0.1-0.1-0.1-0.4,0-0.4c0.8,0,1.3,0,2,0c0.6,0,1.2,0,1.9,0c0.1,0,0.1,0.3,0,0.4
      l-0.3,0c-0.9,0.1-1,0.3-1,2.1v5.9c0,1.7,0,1.9,1,2l0.4,0c0.1,0.1,0.1,0.4,0,0.4c-0.8,0-1.3,0-2,0c-0.7,0-1.3,0-2,0
      c-0.1,0-0.1-0.3,0-0.4l0.3,0c1-0.2,1-0.3,1-2v-2.3c0-0.5,0-0.5-0.8-0.5H-101.5L-101.5-40.9z"></path>
    <path id="path3329" d="M-89.2-44c0-1.7,0-1.9-1-2.1l-0.3,0c-0.1-0.1-0.1-0.4,0-0.4c0.7,0,1.3,0,1.9,0h3.1c1,0,2,0,2.2,0
      c0.1,0.3,0.2,1.5,0.3,2.2c-0.1,0.1-0.3,0.1-0.4,0c-0.2-0.8-0.4-1.3-1.2-1.6c-0.3-0.1-0.9-0.1-1.6-0.1h-1.2c-0.5,0-0.5,0-0.5,0.7
      v3.3c0,0.5,0,0.5,0.5,0.5h0.9c0.7,0,1.2,0,1.4-0.1c0.2-0.1,0.3-0.2,0.4-0.6l0.1-0.7c0.1-0.1,0.4-0.1,0.4,0c0,0.4-0.1,1-0.1,1.7
      c0,0.6,0.1,1.2,0.1,1.6c-0.1,0.1-0.3,0.1-0.4,0l-0.1-0.6c-0.1-0.3-0.2-0.5-0.5-0.6c-0.2-0.1-0.6-0.1-1.3-0.1h-0.9
      c-0.5,0-0.5,0-0.5,0.4v2.3c0,0.9,0,1.4,0.3,1.7c0.2,0.2,0.5,0.4,2,0.4c1.3,0,1.7-0.1,2.1-0.2c0.3-0.2,0.7-0.7,1.2-1.6
      c0.1-0.1,0.3,0,0.4,0.1c-0.1,0.6-0.5,1.8-0.7,2.3c-1.5,0-2.9,0-4.4,0h-1.5c-0.7,0-1.3,0-2.2,0c-0.1,0-0.1-0.3,0-0.4l0.5,0
      c0.9-0.1,1-0.3,1-2L-89.2-44L-89.2-44z"></path>
    <path id="path3333" d="M-67.7-40.6c-0.8,0-0.8,0-0.8,0.5v2.3c0,1.7,0.1,1.9,1,2l0.5,0c0.1,0.1,0.1,0.4,0,0.4c-0.9,0-1.4,0-2.1,0
      c-0.7,0-1.3,0-1.9,0c-0.1,0-0.1-0.3,0-0.4l0.3,0c0.9-0.2,0.9-0.3,0.9-2v-5.9c0-1.7-0.1-2-1-2.1l-0.4,0c-0.1-0.1-0.1-0.4,0-0.4
      c0.8,0,1.4,0,2.1,0c0.6,0,1.2,0,1.9,0c0.1,0,0.1,0.3,0,0.4l-0.3,0c-0.9,0.1-1,0.3-1,2.1v1.9c0,0.5,0,0.5,0.8,0.5h4.7
      c0.8,0,0.8,0,0.8-0.5v-1.9c0-1.7,0-2-1-2.1l-0.3,0c-0.1-0.1-0.1-0.4,0-0.4c0.8,0,1.3,0,2,0c0.6,0,1.2,0,1.9,0c0.1,0,0.1,0.3,0,0.4
      l-0.3,0c-0.9,0.1-1,0.3-1,2.1v5.9c0,1.7,0,1.9,1,2l0.4,0c0.1,0.1,0.1,0.4,0,0.4c-0.8,0-1.3,0-2,0c-0.7,0-1.3,0-2,0
      c-0.1,0-0.1-0.3,0-0.4l0.3,0c1-0.2,1-0.3,1-2v-2.3c0-0.5,0-0.5-0.8-0.5H-67.7z"></path>
    <path id="path3337" d="M-47.7-42c0-1,0-2.9-0.3-3.4c-0.1-0.2-0.4-0.3-0.8-0.3l-0.4,0c-0.1-0.1-0.1-0.3,0-0.4c0.6,0,1.2,0,1.9,0
      c0.7,0,1.1,0,1.7,0c0.1,0.1,0.1,0.3,0,0.4l-0.4,0c-0.4,0-0.7,0.2-0.8,0.4C-47-44.8-47-42.9-47-42v1.8c0,1.4-0.2,2.9-1.1,3.9
      c-0.7,0.8-1.9,1.2-3.1,1.2c-1.1,0-2.3-0.2-3.1-0.9c-0.9-0.7-1.3-1.9-1.3-3.9v-3.9c0-1.7,0-2-1-2.1l-0.4,0c-0.1-0.1-0.1-0.3,0-0.4
      c0.8,0,1.4,0,2,0c0.7,0,1.2,0,2,0c0.1,0,0.1,0.3,0,0.4l-0.4,0c-0.9,0.1-1,0.4-1,2.1v3.5c0,2.6,0.8,4.4,3.3,4.4
      c2.4,0,3.3-1.9,3.3-4.4L-47.7-42L-47.7-42z"></path>
    <path id="path3341" d="M-40.5-41.5c0,0.4,0,0.4,0.5,0.4h1.1c0.7,0,1.2,0,1.4-0.1c0.2-0.1,0.3-0.1,0.4-0.6l0.1-0.7
      c0.1-0.1,0.4-0.1,0.4,0c0,0.4-0.1,1-0.1,1.7c0,0.6,0.1,1.2,0.1,1.6c-0.1,0.1-0.3,0.1-0.4,0l-0.2-0.6c-0.1-0.3-0.2-0.5-0.5-0.6
      c-0.2-0.1-0.6-0.1-1.3-0.1H-40c-0.5,0-0.5,0-0.5,0.4v2.3c0,1.7,0,2,1,2l0.6,0c0.1,0.1,0.1,0.4,0,0.4c-1,0-1.5,0-2.2,0
      c-0.7,0-1.3,0-2,0c-0.1,0-0.1-0.3,0-0.4l0.4,0c0.9-0.1,1-0.3,1-2v-5.9c0-1.7,0-1.9-1-2.1l-0.3,0c-0.1-0.1-0.1-0.4,0-0.4
      c0.7,0,1.2,0,1.9,0h3c1,0,2,0,2.2,0c0,0.8,0,1.5,0,2.2c0,0.1-0.3,0.1-0.4,0c-0.1-0.7-0.3-1.3-1.1-1.6c-0.4-0.1-0.9-0.1-1.6-0.1h-1
      c-0.5,0-0.5,0-0.5,0.7L-40.5-41.5L-40.5-41.5z"></path>
    <path id="path3345" d="M-30.7-41.5c0,0.4,0,0.4,0.5,0.4h1.1c0.7,0,1.2,0,1.4-0.1c0.2-0.1,0.3-0.1,0.4-0.6l0.1-0.7
      c0.1-0.1,0.4-0.1,0.4,0c0,0.4-0.1,1-0.1,1.7c0,0.6,0.1,1.2,0.1,1.6c-0.1,0.1-0.3,0.1-0.4,0l-0.2-0.6c-0.1-0.3-0.2-0.5-0.5-0.6
      c-0.2-0.1-0.6-0.1-1.3-0.1h-1.1c-0.5,0-0.5,0-0.5,0.4v2.3c0,1.7,0,2,1,2l0.6,0c0.1,0.1,0.1,0.4,0,0.4c-1,0-1.5,0-2.2,0
      c-0.7,0-1.3,0-2,0c-0.1,0-0.1-0.3,0-0.4l0.4,0c0.9-0.1,1-0.3,1-2v-5.9c0-1.7,0-1.9-1-2.1l-0.3,0c-0.1-0.1-0.1-0.4,0-0.4
      c0.7,0,1.2,0,1.9,0h3c1,0,2,0,2.2,0c0,0.8,0,1.5,0,2.2c0,0.1-0.3,0.1-0.4,0c-0.1-0.7-0.3-1.3-1.1-1.6c-0.4-0.1-0.9-0.1-1.6-0.1h-1
      c-0.5,0-0.5,0-0.5,0.7L-30.7-41.5L-30.7-41.5z"></path>
    <path id="path3349" d="M-22.1-43.6c0-1.7,0-2-1-2.1l-0.4,0c-0.1-0.1-0.1-0.4,0-0.4c0.8,0,1.4,0,2.1,0c0.7,0,1.2,0,2,0
      c0.1,0,0.1,0.3,0,0.4l-0.4,0c-1,0.1-1,0.4-1,2.1v5.8c0,1.7,0,2,1,2.1l0.4,0c0.1,0.1,0.1,0.4,0,0.4c-0.8,0-1.4,0-2,0
      c-0.7,0-1.2,0-2.1,0c-0.1,0-0.1-0.3,0-0.4l0.4,0c1-0.1,1-0.3,1-2.1V-43.6z"></path>
    <path id="path3353" d="M-6.4-38.1c0,0.5,0,2.4,0,2.9c0,0.1-0.1,0.2-0.3,0.2c-0.2-0.3-0.7-0.9-2.1-2.5l-3.8-4.3
      c-0.4-0.5-1.6-1.8-1.9-2.2h0c-0.1,0.2-0.1,0.6-0.1,1.1v3.6c0,0.8,0,2.9,0.3,3.4c0.1,0.2,0.4,0.3,0.8,0.3l0.5,0
      c0.1,0.1,0.1,0.3,0,0.4c-0.7,0-1.3,0-1.9,0c-0.7,0-1.1,0-1.7,0c-0.1-0.1-0.1-0.3,0-0.4l0.4,0c0.4,0,0.6-0.1,0.7-0.3
      c0.2-0.6,0.2-2.6,0.2-3.4v-4.7c0-0.5,0-0.8-0.4-1.2c-0.2-0.2-0.6-0.3-1-0.4l-0.3,0c-0.1-0.1-0.1-0.3,0-0.4c0.7,0,1.6,0,1.8,0
      c0.3,0,0.5,0,0.8,0c0.3,0.8,2.3,3,2.8,3.6l1.6,1.8c1.1,1.3,1.9,2.2,2.7,3h0c0.1-0.1,0.1-0.3,0.1-0.7V-42c0-0.8,0-2.9-0.3-3.4
      c-0.1-0.1-0.4-0.2-1-0.3l-0.3,0c-0.1-0.1-0.1-0.4,0-0.4c0.8,0,1.3,0,1.9,0c0.7,0,1.1,0,1.7,0c0.1,0.1,0.1,0.3,0,0.4l-0.2,0
      c-0.5,0.1-0.9,0.2-0.9,0.3c-0.3,0.6-0.2,2.6-0.2,3.4L-6.4-38.1L-6.4-38.1z"></path>
    <path id="path3357" d="M6.8-37c0,0.7,0.1,1,0.4,1.2c0,0,0,0.1,0,0.2c-0.2,0-0.5,0.1-0.8,0.1c-0.9,0.2-2,0.4-2.9,0.4
      c-1.9,0-3.7-0.5-5-1.8c-1-1-1.5-2.3-1.5-3.7c0-1.4,0.5-2.8,1.5-3.9c1.1-1.1,2.7-1.9,5.2-1.9c0.9,0,1.8,0.2,2.1,0.2
      C6-46.1,6.5-46,6.7-46c0,0.5,0.1,1.4,0.2,2.4c0,0.1-0.3,0.1-0.4,0c-0.5-1.8-1.7-2.3-3.4-2.3c-3.2,0-4.6,2.3-4.6,4.7
      c0,3.1,1.6,5.6,4.9,5.6c1,0,1.6-0.2,1.8-0.5c0.1-0.1,0.2-0.4,0.2-0.9v-0.7c0-1.4,0-1.5-1.1-1.6l-0.7-0.1c-0.1-0.1-0.1-0.4,0-0.4
      c0.5,0,1.4,0,2.3,0c0.6,0,1.2,0,1.7,0c0.1,0.1,0.1,0.3,0,0.4l-0.3,0c-0.7,0.1-0.7,0.5-0.7,1.4L6.8-37L6.8-37z"></path>
    <path id="path3361" d="M15.5-37.8c0,1.7,0,2,1,2l0.5,0c0.1,0.1,0.1,0.4,0,0.4c-0.9,0-1.5,0-2.1,0c-0.7,0-1.2,0-2.3,0
      c-0.1,0-0.1-0.3,0-0.4l0.6,0c0.9-0.1,1-0.3,1-2v-7.3c0-0.5,0-0.5-0.5-0.5h-0.9c-0.7,0-1.6,0-2,0.4c-0.4,0.4-0.6,0.7-0.7,1.1
      c-0.1,0.1-0.4,0-0.4-0.1c0.3-0.7,0.5-1.8,0.6-2.4c0,0,0.3,0,0.3,0c0.1,0.5,0.6,0.5,1.4,0.5h6.6c0.9,0,1,0,1.3-0.5
      c0.1,0,0.3,0,0.3,0c-0.2,0.7-0.3,2-0.2,2.5c-0.1,0.1-0.3,0.1-0.4,0c0-0.4-0.2-1-0.4-1.2c-0.4-0.3-1-0.4-1.9-0.4h-1.2
      c-0.5,0-0.5,0-0.5,0.6L15.5-37.8L15.5-37.8z"></path>
    <path id="path3365" d="M21.8-40.6c0-3.3,2.5-5.8,5.8-5.8c3.8,0,5.7,2.7,5.7,5.6c0,3.3-2.5,5.7-5.7,5.7C24-35.1,21.8-37.7,21.8-40.6
       M31.6-40.3c0-2.7-1.2-5.6-4.3-5.6c-1.7,0-3.9,1.2-3.9,4.7c0,2.4,1.2,5.6,4.4,5.6C29.8-35.6,31.6-37,31.6-40.3"></path>
    <path id="path3369" d="M45.7-38.1c0,0.5,0,2.4,0,2.9c0,0.1-0.1,0.2-0.3,0.2c-0.2-0.3-0.7-0.9-2.1-2.5l-3.8-4.3
      c-0.4-0.5-1.6-1.8-1.9-2.2h0c-0.1,0.2-0.1,0.6-0.1,1.1v3.6c0,0.8,0,2.9,0.3,3.4c0.1,0.2,0.4,0.3,0.8,0.3l0.5,0
      c0.1,0.1,0.1,0.3,0,0.4c-0.7,0-1.3,0-1.9,0c-0.7,0-1.1,0-1.7,0c-0.1-0.1-0.1-0.3,0-0.4l0.4,0c0.4,0,0.6-0.1,0.7-0.3
      c0.2-0.6,0.2-2.6,0.2-3.4v-4.7c0-0.5,0-0.8-0.4-1.2c-0.2-0.2-0.6-0.3-1-0.4l-0.3,0c-0.1-0.1-0.1-0.3,0-0.4c0.7,0,1.6,0,1.8,0
      c0.3,0,0.5,0,0.8,0c0.3,0.8,2.3,3,2.8,3.6l1.6,1.8c1.1,1.3,1.9,2.2,2.7,3h0c0.1-0.1,0.1-0.3,0.1-0.7V-42c0-0.8,0-2.9-0.3-3.4
      c-0.1-0.1-0.4-0.2-1-0.3l-0.3,0c-0.1-0.1-0.1-0.4,0-0.4c0.8,0,1.3,0,1.9,0c0.7,0,1.1,0,1.7,0c0.1,0.1,0.1,0.3,0,0.4l-0.2,0
      c-0.5,0.1-0.9,0.2-0.9,0.3c-0.3,0.6-0.2,2.6-0.2,3.4L45.7-38.1L45.7-38.1z"></path>
    <path id="path3373" d="M59.3-37.9c0,1.7,0,1.9,1.1,2l0.4,0c0.1,0.1,0.1,0.4,0,0.4c-0.9,0-1.5,0-2.1,0c-0.7,0-1.3,0-2,0
      c-0.1,0-0.1-0.3,0-0.4l0.3,0c0.9-0.1,1-0.3,1-2v-6c0-1.4,0-1.7-0.8-1.7l-0.6-0.1c-0.1-0.1-0.1-0.3,0-0.4c0.9-0.1,1.9-0.1,3.2-0.1
      c1.4,0,2.4,0.2,3.1,0.7c0.8,0.5,1.3,1.3,1.3,2.5c0,1.5-0.9,2.3-1.6,2.6c-0.7,0.3-1.6,0.5-2.3,0.5c-0.1,0-0.1-0.3,0-0.3
      c1.8-0.3,2.4-1.3,2.4-2.7c0-1.6-0.9-2.6-2.6-2.6c-0.9,0-0.9,0.1-0.9,0.6L59.3-37.9L59.3-37.9z"></path>
    <path id="path3377" d="M66.7-40.8c0-3.3,2.5-5.8,5.8-5.8c3.8,0,5.7,2.7,5.7,5.6c0,3.3-2.5,5.7-5.7,5.7
      C68.9-35.2,66.7-37.8,66.7-40.8 M76.5-40.4c0-2.7-1.2-5.6-4.3-5.6c-1.7,0-3.9,1.2-3.9,4.7c0,2.4,1.2,5.6,4.4,5.6
      C74.7-35.7,76.5-37.2,76.5-40.4"></path>
    <path id="path3381" d="M83.6-35.2c-1.4,0-2.2-0.4-2.6-0.6c-0.2-0.4-0.4-1.5-0.4-2.3c0.1-0.1,0.3-0.1,0.4,0c0.2,0.8,0.9,2.4,2.8,2.4
      c1.4,0,2-0.9,2-1.9c0-0.7-0.1-1.5-1.3-2.3l-1.6-1c-0.8-0.5-1.8-1.5-1.8-2.8c0-1.6,1.2-2.8,3.3-2.8c0.5,0,1.1,0.1,1.5,0.2
      c0.2,0.1,0.4,0.1,0.6,0.1c0.1,0.4,0.3,1.3,0.3,2c-0.1,0.1-0.3,0.1-0.4,0C86.3-45,85.8-46,84.2-46c-1.6,0-1.9,1.1-1.9,1.8
      c0,0.9,0.8,1.6,1.4,2l1.3,0.8c1,0.6,2,1.6,2,3.1C87-36.4,85.7-35.2,83.6-35.2"></path>
    <path id="path3385" d="M95.2-37.9c0,1.7,0,2,1,2l0.5,0c0.1,0.1,0.1,0.4,0,0.4c-0.9,0-1.5,0-2.1,0c-0.7,0-1.2,0-2.3,0
      c-0.1,0-0.1-0.3,0-0.4l0.6,0c0.9-0.1,1-0.3,1-2v-7.3c0-0.5,0-0.5-0.5-0.5h-0.9c-0.7,0-1.6,0-2,0.4c-0.4,0.4-0.6,0.7-0.7,1.1
      c-0.1,0.1-0.4,0-0.4-0.1c0.3-0.7,0.5-1.8,0.6-2.4c0,0,0.3,0,0.3,0c0.1,0.5,0.6,0.5,1.4,0.5h6.6c0.9,0,1,0,1.3-0.5
      c0.1,0,0.3,0,0.3,0c-0.2,0.7-0.3,2-0.2,2.5c-0.1,0.1-0.3,0.1-0.4,0c0-0.4-0.2-1-0.4-1.2c-0.4-0.3-1-0.4-1.9-0.4h-1.2
      c-0.5,0-0.5,0-0.5,0.6V-37.9L95.2-37.9z"></path>
  </g>
</svg>
