<?xml version="1.0" encoding="utf-8"?>
<!-- Generator: Adobe Illustrator 18.1.1, SVG Export Plug-In . SVG Version: 6.00 Build 0)  -->
<svg version="1.1"
	 id="svg3956" xmlns:rdf="http://www.w3.org/1999/02/22-rdf-syntax-ns#" xmlns:dc="http://purl.org/dc/elements/1.1/" xmlns:cc="http://creativecommons.org/ns#" xmlns:svg="http://www.w3.org/2000/svg"
	 xmlns="http://www.w3.org/2000/svg" xmlns:xlink="http://www.w3.org/1999/xlink" x="0px" y="0px" viewBox="-594 482.7 300 116.3"
	 enable-background="new -594 482.7 300 116.3" xml:space="preserve">
<g id="layer1" transform="translate(-175.71429,-742.75959)">
	<g id="g3909" transform="matrix(2.1040423,0,0,2.1040423,81.032405,141.77576)">
		<path id="path3321" d="M-180.7,525.7c0,2.1,0,2.4,1.2,2.5l0.6,0.1c0.1,0.1,0.1,0.4,0,0.5c-1.1,0-1.8-0.1-2.6-0.1
			c-0.8,0-1.5,0-2.7,0.1c-0.1-0.1-0.2-0.4,0-0.5l0.7-0.1c1.1-0.1,1.2-0.4,1.2-2.5v-8.8c0-0.6,0-0.6-0.6-0.6h-1.1
			c-0.8,0-1.9,0-2.4,0.5c-0.5,0.4-0.7,0.9-0.9,1.4c-0.2,0.1-0.4,0-0.5-0.1c0.3-0.9,0.6-2.1,0.7-2.9c0.1,0,0.3-0.1,0.4,0
			c0.1,0.6,0.8,0.6,1.7,0.6h8c1.1,0,1.2,0,1.5-0.6c0.1,0,0.3,0,0.4,0.1c-0.2,0.8-0.4,2.4-0.3,3c-0.1,0.2-0.4,0.2-0.5,0
			c-0.1-0.5-0.2-1.2-0.5-1.4c-0.5-0.3-1.2-0.5-2.3-0.5h-1.4c-0.6,0-0.6,0-0.6,0.7L-180.7,525.7L-180.7,525.7z"/>
		<path id="path3325" d="M-168.1,522.3c-0.9,0-1,0-1,0.6v2.8c0,2.1,0.1,2.3,1.2,2.5l0.6,0.1c0.1,0.1,0.1,0.4,0,0.5
			c-1.1,0-1.7-0.1-2.5-0.1c-0.8,0-1.5,0-2.3,0.1c-0.1-0.1-0.2-0.4,0-0.5l0.3-0.1c1.1-0.2,1.1-0.4,1.1-2.5v-7.1
			c0-2.1-0.1-2.4-1.2-2.5l-0.5,0c-0.1-0.1-0.1-0.4,0-0.5c1,0,1.6,0.1,2.5,0.1c0.8,0,1.4,0,2.3-0.1c0.1,0.1,0.2,0.4,0,0.5l-0.4,0
			c-1.1,0.1-1.2,0.4-1.2,2.5v2.3c0,0.6,0,0.6,1,0.6h5.6c0.9,0,1,0,1-0.6v-2.3c0-2.1,0-2.4-1.2-2.5l-0.4,0c-0.1-0.1-0.1-0.4,0-0.5
			c0.9,0,1.6,0.1,2.4,0.1c0.8,0,1.4,0,2.3-0.1c0.1,0.1,0.2,0.4,0,0.5l-0.4,0c-1.1,0.1-1.2,0.4-1.2,2.5v7.1c0,2.1,0,2.3,1.2,2.5
			l0.5,0.1c0.1,0.1,0.1,0.4,0,0.5c-0.9,0-1.6-0.1-2.4-0.1c-0.8,0-1.5,0-2.4,0.1c-0.1-0.1-0.2-0.4,0-0.5l0.4-0.1
			c1.2-0.2,1.2-0.4,1.2-2.5v-2.8c0-0.6,0-0.6-1-0.6H-168.1L-168.1,522.3z"/>
		<path id="path3329" d="M-153.3,518.6c0-2,0-2.3-1.2-2.5l-0.3,0c-0.1-0.1-0.1-0.4,0-0.5c0.8,0,1.5,0.1,2.3,0.1h3.7
			c1.3,0,2.4,0,2.7-0.1c0.1,0.3,0.2,1.8,0.3,2.6c-0.1,0.1-0.4,0.2-0.5,0c-0.3-0.9-0.5-1.6-1.5-1.9c-0.4-0.1-1-0.1-1.9-0.1h-1.4
			c-0.6,0-0.6,0-0.6,0.8v3.9c0,0.6,0.1,0.6,0.6,0.6h1.1c0.8,0,1.4,0,1.7-0.1c0.2-0.1,0.4-0.2,0.5-0.7l0.2-0.8c0.1-0.1,0.4-0.1,0.5,0
			c0,0.5-0.1,1.2-0.1,2c0,0.7,0.1,1.5,0.1,1.9c-0.1,0.1-0.4,0.1-0.5,0l-0.2-0.8c-0.1-0.4-0.2-0.6-0.6-0.7c-0.3-0.1-0.7-0.1-1.5-0.1
			h-1.1c-0.6,0-0.6,0-0.6,0.5v2.8c0,1,0.1,1.7,0.4,2c0.2,0.2,0.6,0.5,2.4,0.5c1.5,0,2.1-0.1,2.5-0.3c0.4-0.2,0.9-0.9,1.4-1.9
			c0.1-0.1,0.4,0,0.5,0.1c-0.1,0.7-0.6,2.2-0.9,2.7c-1.8,0-3.5-0.1-5.3-0.1h-1.8c-0.8,0-1.5,0-2.7,0.1c-0.1-0.1-0.2-0.4,0-0.5
			l0.6-0.1c1.1-0.1,1.2-0.4,1.2-2.5L-153.3,518.6L-153.3,518.6z"/>
		<path id="path3333" d="M-233,543c-0.9,0-1,0-1,0.6v2.8c0,2.1,0.1,2.3,1.2,2.5l0.6,0.1c0.1,0.1,0.1,0.4,0,0.5
			c-1.1,0-1.7-0.1-2.5-0.1c-0.8,0-1.5,0-2.3,0.1c-0.1-0.1-0.2-0.4,0-0.5l0.3-0.1c1.1-0.2,1.1-0.4,1.1-2.5v-7.1
			c0-2.1-0.1-2.4-1.2-2.5l-0.5,0c-0.1-0.1-0.1-0.4,0-0.5c1,0,1.6,0.1,2.5,0.1c0.8,0,1.4,0,2.3-0.1c0.1,0.1,0.2,0.4,0,0.5l-0.4,0
			c-1.1,0.1-1.2,0.4-1.2,2.5v2.3c0,0.6,0,0.6,1,0.6h5.6c0.9,0,1,0,1-0.6v-2.3c0-2.1,0-2.4-1.2-2.5l-0.4,0c-0.1-0.1-0.1-0.4,0-0.5
			c0.9,0,1.6,0.1,2.4,0.1c0.8,0,1.4,0,2.3-0.1c0.1,0.1,0.2,0.4,0,0.5l-0.4,0c-1.1,0.1-1.2,0.4-1.2,2.5v7.1c0,2.1,0,2.3,1.2,2.5
			l0.5,0.1c0.1,0.1,0.1,0.4,0,0.5c-0.9,0-1.6-0.1-2.4-0.1c-0.8,0-1.5,0-2.4,0.1c-0.1-0.1-0.2-0.4,0-0.5l0.4-0.1
			c1.2-0.2,1.2-0.4,1.2-2.5v-2.8c0-0.6,0-0.6-1-0.6H-233z"/>
		<path id="path3337" d="M-208.8,541.3c0-1.2,0-3.5-0.4-4.1c-0.1-0.2-0.5-0.4-1-0.4l-0.5,0c-0.1-0.1-0.1-0.4,0-0.5
			c0.7,0,1.5,0.1,2.2,0.1c0.8,0,1.4,0,2.1-0.1c0.2,0.1,0.1,0.4,0,0.5l-0.5,0c-0.5,0-0.9,0.2-1,0.5c-0.3,0.6-0.3,2.9-0.3,4v2.2
			c0,1.7-0.3,3.5-1.4,4.7c-0.8,0.9-2.3,1.4-3.8,1.4c-1.4,0-2.7-0.3-3.7-1.1c-1-0.9-1.5-2.3-1.5-4.6v-4.6c0-2,0-2.4-1.2-2.5l-0.5,0
			c-0.1-0.1-0.1-0.4,0-0.5c1,0,1.7,0.1,2.4,0.1c0.8,0,1.5,0,2.4-0.1c0.1,0.1,0.2,0.4,0,0.5l-0.5,0c-1.1,0.1-1.2,0.4-1.2,2.5v4.3
			c0,3.2,1,5.3,4,5.3c2.9,0,3.9-2.2,3.9-5.2L-208.8,541.3L-208.8,541.3z"/>
		<path id="path3341" d="M-200.2,541.9c0,0.5,0.1,0.5,0.6,0.5h1.3c0.8,0,1.4,0,1.7-0.1c0.2-0.1,0.4-0.2,0.5-0.7l0.2-0.8
			c0.1-0.1,0.4-0.1,0.5,0c0,0.5-0.1,1.3-0.1,2c0,0.7,0.1,1.5,0.1,1.9c-0.1,0.1-0.4,0.1-0.5,0l-0.2-0.8c-0.1-0.4-0.3-0.6-0.6-0.7
			c-0.3-0.1-0.8-0.1-1.5-0.1h-1.3c-0.6,0-0.7,0-0.7,0.5v2.7c0,2.1,0,2.4,1.2,2.5l0.7,0.1c0.1,0.1,0.1,0.4,0,0.5
			c-1.2,0-1.8-0.1-2.6-0.1c-0.9,0-1.5,0-2.5,0.1c-0.1-0.1-0.2-0.4,0-0.5l0.5-0.1c1.1-0.1,1.2-0.4,1.2-2.5v-7.1c0-2.1,0-2.3-1.2-2.5
			l-0.3,0c-0.1-0.1-0.1-0.4,0-0.5c0.8,0,1.5,0.1,2.3,0.1h3.6c1.3,0,2.4,0,2.7-0.1c0,0.9,0,1.9,0.1,2.6c-0.1,0.1-0.3,0.2-0.5,0.1
			c-0.2-0.9-0.4-1.6-1.4-1.9c-0.4-0.1-1.1-0.1-1.9-0.1h-1.2c-0.6,0-0.6,0-0.6,0.8L-200.2,541.9L-200.2,541.9z"/>
		<path id="path3345" d="M-188.4,541.9c0,0.5,0.1,0.5,0.6,0.5h1.3c0.8,0,1.4,0,1.7-0.1c0.2-0.1,0.4-0.2,0.5-0.7l0.2-0.8
			c0.1-0.1,0.4-0.1,0.5,0c0,0.5-0.1,1.3-0.1,2c0,0.7,0.1,1.5,0.1,1.9c-0.1,0.1-0.4,0.1-0.5,0l-0.2-0.8c-0.1-0.4-0.3-0.6-0.6-0.7
			c-0.3-0.1-0.8-0.1-1.5-0.1h-1.3c-0.6,0-0.6,0-0.6,0.5v2.7c0,2.1,0,2.4,1.2,2.5l0.7,0.1c0.1,0.1,0.1,0.4,0,0.5
			c-1.2,0-1.8-0.1-2.6-0.1c-0.9,0-1.5,0-2.5,0.1c-0.1-0.1-0.2-0.4,0-0.5l0.5-0.1c1.1-0.1,1.2-0.4,1.2-2.5v-7.1c0-2.1,0-2.3-1.2-2.5
			l-0.3,0c-0.1-0.1-0.1-0.4,0-0.5c0.8,0,1.5,0.1,2.3,0.1h3.6c1.3,0,2.4,0,2.7-0.1c0,0.9,0,1.9,0.1,2.6c-0.1,0.1-0.3,0.2-0.5,0.1
			c-0.2-0.9-0.4-1.6-1.4-1.9c-0.4-0.1-1.1-0.1-1.9-0.1h-1.2c-0.6,0-0.6,0-0.6,0.8L-188.4,541.9L-188.4,541.9z"/>
		<path id="path3349" d="M-178.1,539.3c0-2.1,0-2.4-1.2-2.5l-0.5,0c-0.1-0.1-0.1-0.4,0-0.5c1,0,1.7,0.1,2.5,0.1c0.8,0,1.5,0,2.4-0.1
			c0.1,0.1,0.2,0.4,0,0.5l-0.5,0c-1.2,0.1-1.2,0.4-1.2,2.5v7c0,2.1,0,2.4,1.2,2.5l0.5,0.1c0.1,0.1,0.1,0.4,0,0.5
			c-1,0-1.7-0.1-2.4-0.1c-0.8,0-1.5,0-2.5,0.1c-0.1-0.1-0.2-0.4,0-0.5l0.5-0.1c1.2-0.1,1.2-0.4,1.2-2.5V539.3z"/>
		<path id="path3353" d="M-159.2,546c0,0.6,0,2.9,0.1,3.4c0,0.1-0.2,0.2-0.4,0.2c-0.2-0.3-0.8-1-2.5-3l-4.6-5.2
			c-0.5-0.6-1.9-2.2-2.3-2.7h0c-0.1,0.2-0.1,0.7-0.1,1.3v4.3c0,0.9,0,3.5,0.4,4.1c0.1,0.2,0.5,0.3,1,0.4l0.6,0.1
			c0.1,0.2,0.1,0.4,0,0.5c-0.9,0-1.6-0.1-2.3-0.1c-0.8,0-1.4,0-2,0.1c-0.1-0.1-0.2-0.4,0-0.5l0.5-0.1c0.5-0.1,0.8-0.2,0.9-0.4
			c0.3-0.7,0.3-3.1,0.3-4.1v-5.7c0-0.5,0-1-0.4-1.4c-0.3-0.3-0.7-0.4-1.2-0.5l-0.3,0c-0.1-0.1-0.1-0.4,0-0.5
			c0.8,0.1,1.9,0.1,2.2,0.1c0.3,0,0.7,0,0.9-0.1c0.4,1,2.7,3.6,3.4,4.3l1.9,2.1c1.4,1.5,2.3,2.6,3.2,3.6h0c0.1-0.1,0.1-0.4,0.1-0.8
			v-4.2c0-0.9,0-3.5-0.4-4.1c-0.1-0.2-0.4-0.3-1.2-0.4l-0.3,0c-0.1-0.1-0.1-0.4,0-0.5c0.9,0,1.6,0.1,2.3,0.1c0.8,0,1.4,0,2-0.1
			c0.2,0.1,0.2,0.4,0,0.5l-0.3,0c-0.6,0.1-1,0.3-1.1,0.4c-0.3,0.7-0.3,3.1-0.3,4.1L-159.2,546L-159.2,546z"/>
		<path id="path3357" d="M-143.3,547.3c0,0.8,0.1,1.3,0.5,1.4c0.1,0.1,0.1,0.2,0,0.2c-0.2,0-0.6,0.1-1,0.2c-1,0.3-2.5,0.5-3.5,0.5
			c-2.3,0-4.5-0.6-6-2.2c-1.2-1.2-1.8-2.7-1.8-4.5c0-1.7,0.6-3.4,1.8-4.7c1.3-1.4,3.3-2.3,6.2-2.3c1.1,0,2.2,0.2,2.5,0.3
			c0.4,0.1,1,0.2,1.2,0.2c0,0.6,0.1,1.7,0.3,2.9c-0.1,0.2-0.4,0.2-0.5,0.1c-0.6-2.1-2-2.8-4-2.8c-3.8,0-5.5,2.7-5.5,5.7
			c0,3.8,1.9,6.8,5.9,6.8c1.2,0,1.9-0.3,2.2-0.6c0.1-0.1,0.2-0.5,0.2-1.1v-0.8c0-1.7-0.1-1.8-1.3-1.9l-0.9-0.1
			c-0.2-0.1-0.1-0.4,0-0.5c0.6,0,1.7,0.1,2.8,0.1c0.8,0,1.4,0,2.1-0.1c0.1,0.1,0.2,0.4,0,0.5l-0.3,0c-0.8,0.1-0.8,0.6-0.8,1.7
			L-143.3,547.3L-143.3,547.3z"/>
		<path id="path3361" d="M-132.9,546.4c0,2.1,0,2.4,1.2,2.5l0.6,0.1c0.1,0.1,0.1,0.4,0,0.5c-1.1,0-1.8-0.1-2.6-0.1
			c-0.8,0-1.5,0-2.7,0.1c-0.1-0.1-0.2-0.4,0-0.5l0.7-0.1c1.1-0.1,1.2-0.4,1.2-2.5v-8.8c0-0.6,0-0.6-0.6-0.6h-1.1
			c-0.8,0-1.9,0-2.4,0.5c-0.5,0.4-0.7,0.9-0.9,1.4c-0.2,0.1-0.4,0-0.5-0.1c0.3-0.9,0.6-2.1,0.7-2.9c0.1,0,0.3-0.1,0.4,0
			c0.1,0.6,0.8,0.6,1.7,0.6h8c1.1,0,1.2,0,1.5-0.6c0.1,0,0.3,0,0.4,0.1c-0.2,0.8-0.4,2.4-0.3,3c-0.1,0.2-0.4,0.2-0.5,0
			c-0.1-0.5-0.2-1.2-0.5-1.4c-0.5-0.3-1.2-0.5-2.3-0.5h-1.4c-0.6,0-0.6,0-0.6,0.7L-132.9,546.4L-132.9,546.4z"/>
		<path id="path3365" d="M-125.2,543c0-3.9,3-6.9,7-6.9c4.5,0,6.8,3.3,6.8,6.8c0,4-3,6.9-6.8,6.9
			C-122.6,549.7-125.2,546.5-125.2,543 M-113.4,543.4c0-3.2-1.4-6.8-5.2-6.8c-2,0-4.7,1.4-4.7,5.7c0,2.9,1.4,6.7,5.3,6.7
			C-115.6,549-113.4,547.3-113.4,543.4"/>
		<path id="path3369" d="M-96.5,546c0,0.6,0,2.9,0.1,3.4c0,0.1-0.2,0.2-0.4,0.2c-0.2-0.3-0.8-1-2.5-3l-4.6-5.2
			c-0.5-0.6-1.9-2.2-2.3-2.7h0c-0.1,0.2-0.1,0.7-0.1,1.3v4.3c0,0.9,0,3.5,0.4,4.1c0.1,0.2,0.5,0.3,1,0.4l0.6,0.1
			c0.1,0.2,0.1,0.4,0,0.5c-0.9,0-1.6-0.1-2.3-0.1c-0.8,0-1.4,0-2,0.1c-0.1-0.1-0.2-0.4,0-0.5l0.5-0.1c0.5-0.1,0.8-0.2,0.9-0.4
			c0.3-0.7,0.3-3.1,0.3-4.1v-5.7c0-0.5,0-1-0.4-1.4c-0.3-0.3-0.7-0.4-1.2-0.5l-0.3,0c-0.1-0.1-0.1-0.4,0-0.5
			c0.8,0.1,1.9,0.1,2.2,0.1c0.3,0,0.6,0,0.9-0.1c0.4,1,2.7,3.6,3.4,4.3l1.9,2.1c1.4,1.5,2.3,2.6,3.2,3.6h0c0.1-0.1,0.1-0.4,0.1-0.8
			v-4.2c0-0.9,0-3.5-0.4-4.1c-0.1-0.2-0.4-0.3-1.2-0.4l-0.3,0c-0.1-0.1-0.1-0.4,0-0.5c0.9,0,1.6,0.1,2.3,0.1c0.8,0,1.4,0,2-0.1
			c0.2,0.1,0.2,0.4,0,0.5l-0.3,0c-0.6,0.1-1,0.3-1.1,0.4c-0.3,0.7-0.3,3.1-0.3,4.1L-96.5,546L-96.5,546z"/>
		<path id="path3373" d="M-188.5,567.1c0,2.1,0,2.3,1.3,2.5l0.5,0.1c0.1,0.1,0.1,0.4,0,0.5c-1.1,0-1.8-0.1-2.6-0.1
			c-0.8,0-1.5,0-2.4,0.1c-0.1-0.1-0.2-0.4,0-0.5l0.4-0.1c1.1-0.2,1.2-0.4,1.2-2.5v-7.3c0-1.7,0-2-0.9-2.1l-0.7-0.1
			c-0.1-0.1-0.1-0.4,0-0.5c1-0.1,2.3-0.2,3.9-0.2s2.9,0.2,3.8,0.8c0.9,0.6,1.6,1.6,1.6,3c0,1.8-1.1,2.7-2,3.1
			c-0.9,0.4-1.9,0.6-2.7,0.6c-0.1-0.1-0.1-0.4,0-0.4c2.1-0.4,2.9-1.6,2.9-3.3c0-1.9-1.1-3.1-3.2-3.1c-1,0-1.1,0.1-1.1,0.7
			L-188.5,567.1L-188.5,567.1z"/>
		<path id="path3377" d="M-179.7,563.6c0-3.9,3-6.9,7-6.9c4.5,0,6.8,3.3,6.8,6.8c0,4-3,6.9-6.8,6.9
			C-177,570.3-179.7,567.2-179.7,563.6 M-167.8,564.1c0-3.2-1.4-6.8-5.2-6.8c-2,0-4.7,1.4-4.7,5.7c0,2.9,1.4,6.7,5.3,6.7
			C-170,569.7-167.8,567.9-167.8,564.1"/>
		<path id="path3381" d="M-159.3,570.3c-1.7,0-2.7-0.5-3.1-0.7c-0.2-0.4-0.5-1.8-0.5-2.8c0.1-0.1,0.4-0.2,0.5-0.1
			c0.3,1,1.1,2.9,3.4,2.9c1.7,0,2.5-1.1,2.5-2.3c0-0.9-0.2-1.8-1.6-2.8l-1.9-1.2c-1-0.7-2.1-1.8-2.1-3.4c0-1.9,1.5-3.4,4-3.4
			c0.6,0,1.3,0.1,1.8,0.3c0.3,0.1,0.5,0.1,0.7,0.1c0.2,0.5,0.4,1.6,0.4,2.4c-0.1,0.1-0.4,0.2-0.5,0.1c-0.3-0.9-0.8-2.2-2.7-2.2
			c-1.9,0-2.3,1.3-2.3,2.2c0,1.1,0.9,2,1.7,2.4l1.6,1c1.2,0.8,2.5,1.9,2.5,3.8C-155.1,568.8-156.8,570.3-159.3,570.3"/>
		<path id="path3385" d="M-145.4,567.1c0,2.1,0,2.4,1.2,2.5l0.6,0.1c0.1,0.1,0.1,0.4,0,0.5c-1.1,0-1.8-0.1-2.6-0.1
			c-0.8,0-1.5,0-2.7,0.1c-0.1-0.1-0.2-0.4,0-0.5l0.7-0.1c1.1-0.1,1.2-0.4,1.2-2.5v-8.8c0-0.6,0-0.6-0.6-0.6h-1.1
			c-0.8,0-1.9,0-2.4,0.5c-0.5,0.4-0.7,0.9-0.9,1.4c-0.2,0.1-0.4,0-0.5-0.1c0.3-0.9,0.6-2.1,0.7-2.9c0.1,0,0.3-0.1,0.4,0
			c0.1,0.6,0.8,0.6,1.7,0.6h8c1.1,0,1.2,0,1.5-0.6c0.1,0,0.3,0,0.4,0.1c-0.2,0.8-0.4,2.4-0.3,3c-0.1,0.2-0.4,0.2-0.5,0
			c-0.1-0.5-0.2-1.2-0.5-1.4c-0.5-0.3-1.2-0.5-2.3-0.5h-1.4c-0.6,0-0.6,0-0.6,0.7V567.1L-145.4,567.1z"/>
	</g>
</g>
</svg>
