<svg xmlns="http://www.w3.org/2000/svg" viewBox="0 126 792 360"><path d="M516.9 326h-28.3v2.6c-.8 4.2-3.3 6.7-7.1 7.9-2.5.8-5 .8-7.9.4-3.8-.8-6.3-2.5-7.9-6.3-1.3-2.9-1.7-6.3-2.1-9.6v-8.3c0-2.9.4-5.8 1.7-8.3 1.3-3.3 3.3-5.8 7.1-6.7 2.1-.8 4.6-.8 6.7-.4 3.3.4 5.4 2.1 7.1 5 1.3 2.1 1.7 4.6 2.1 7.1 0 1.3.4 2.9.4 4.2 9.6-.8 18.8-2.1 28.3-2.9v-.4c-.4-4.2-1.3-7.9-3.3-11.7-2.1-4.6-5.4-8.3-9.6-11.3-5.4-3.8-11.7-5.8-18.3-7.1-3.3-.4-6.3-.4-9.6-.4-5 0-9.6.4-14.6 1.7-7.5 1.7-14.6 4.6-20.4 10-3.8 3.3-6.7 7.5-8.8 12.1-2.1 5-2.9 10.4-2.5 15.4 0 4.2.8 8.3 2.5 12.1 0 .4 0 .4.4.8h-8.3v-26.3c0-2.1 0-4.2-.4-6.3-.4-2.9-1.3-5.8-2.9-8.3-2.5-4.2-6.7-7.1-11.3-8.8-3.3-1.3-7.1-1.7-10.4-2.1-4.2-.4-8.3 0-12.5.8-7.9 1.7-14.2 5.4-19.2 11.7l-1.3 1.3v-14.2h-41.3V301h9.6v31.7h-9.6V354h52.5v-21.3h-10.8v-18.3c0-.8 0-1.7.4-2.9.8-4.6 3.3-7.9 7.9-9.6 2.9-1.3 5.8-1.3 9.2-.8 4.6.8 7.5 4.2 7.5 9.2v22.1h-9.6v20.8h51.3v-20.4.4c2.5 5 5.8 9.2 10 12.5 3.3 2.5 7.1 4.6 11.3 5.8 5 1.7 10.4 2.9 15.8 3.3 5.4.4 11.3.4 16.7-.4 4.2-.4 8.3-1.7 12.5-3.3 4.6-2.1 8.3-5 11.3-8.8 2.9-4.2 5-8.3 5.8-13.3-.1-.9-.1-1.7-.1-3m-263.5-69.2v22.5h12.5v53h-12.5v21.2h67.2v-21.2H308v-53h12.6v-22.5m205.9 73c-6.7 0-12.1 5.4-12.1 12.1 0 6.7 5.4 11.7 12.1 12.1 6.7 0 12.1-5.4 12.1-12.1 0-6.7-5.5-12.1-12.1-12.1"/></svg>
