<svg xmlns="http://www.w3.org/2000/svg" viewBox="0 126 792 360"><path d="M465.6 269.3l4.2.4c4.6.4 4.2 7.5 4.2 7.5s-.4 61.7-.8 65-5.4 3.3-6.7 3.3c-1.3 0-2.1 0-2.1.8s.8 1.3 1.7 1.3 7.1 0 12.5-.4c5-.4 17.9.4 19.2.4 1.7 0 1.3-1.3 1.3-1.3 0-.8-2.1-.8-2.1-.8l-5.8-.4c-4.2-.8-4.2-8.3-4.2-8.3s-.4-55.4 0-62.1 5.8-5.4 7.1-5.8c1.7-.4 2.1-.4 1.7-1.7-.4-1.3-4.2-.4-4.2-.4-15 1.3-26.3-.4-26.3-.4s-.8 0-.8.8c.3.5-.1 2.1 1.1 2.1m-92.1-1.2c0 1.3 1.7.8 1.7.8 7.1-.4 11.7 5.8 11.7 5.8s18.3 28.8 20.4 31.3c2.1 2.9.4 4.2.4 4.2s-18.3 26.3-21.7 30c-3.3 4.2-7.5 5-8.3 5-1.3 0-1.3 1.3-1.3 1.3 0 .8 1.7.8 1.7.8 2.1-.4 7.5-.4 7.5-.4 2.5-.4 12.9.8 14.6.4 1.7-.4 1.3-.8 1.3-.8 0-.8-2.5-.8-2.5-.8-5.4-.8-3.3-4.6-3.3-4.6s15-23.8 16.3-25.4c1.3-1.7 1.7 0 1.7 0s14.2 22.5 16.7 26.3-2.9 3.3-3.8 3.3c-1.3 0-1.7.8-1.7 1.3s0 1.3 1.3 1.3 9.6-.4 11.7-.4 18.3.8 18.3.8c1.7 0 1.7-.4 1.7-1.3 0-.4-2.9-.8-2.9-.8-7.1-.8-9.6-5.8-9.6-5.8s-22.5-33.3-23.8-35c-1.3-2.1-.4-2.9-.4-2.9s22.1-30 22.5-31.3c.8-1.7 2.5-1.3 2.5-1.3s4.2 0 5.4-.4c1.3-.4.8-.8.8-.8 0-1.3-2.5-1.3-2.5-1.3s-8.3 0-9.6.4c-1.7.4-12.1-.4-12.1-.4-.8 0-1.3.8-1.3.8 0 .8 1.3 1.3 1.3 1.3s1.3-.4 4.2.4c2.5.8 1.7 3.3 1.7 3.3s-15 22.5-15.8 23.8c-.8 1.7-1.7-.4-1.7-.4s-14.6-23.8-15-25.4c-.4-1.7.8-2.1.8-2.1h2.1c1.3 0 .8-1.3.8-1.3 0-.8-1.3-.8-1.3-.8h-29.2c-.5.2-1.3-.2-1.3 1.1m-45.4 19.6l9.6 25.4c.4 1.3-.8 1.3-.8 1.3h-18.8c-1.3 0-.4-1.7-.4-1.7l9.2-25c.7-2.1 1.2 0 1.2 0m-29.2 51.6s-1.3 4.2-6.3 5.4l-2.9.4s-.8 0-1.3.8c0 0-.4 1.3.8 1.3h23.3s1.7 0 1.7-.8c0 0 .4-1.3-1.3-1.3h-3.8s-3.8 0-2.9-3.8c.8-3.8 7.5-21.3 7.5-21.3s.4-1.3 1.7-1.3h22.1s1.7-.4 2.1.8l8.3 21.3s1.7 2.9-1.7 3.3-4.2.8-4.2.8-.8 0-.8.8c0 0-.4 1.3.8 1.3h29s1.3-.4 1.3-1.3c0 0 0-1.3-1.3-.8 0 0-7.1.4-11.3-10.4l-27.9-69.2s-1.3-1.7-2.5 0c-1.7 1.9-30.4 74-30.4 74m214.6 5.5s-2.5 0-3.8.4c-1.3.4-.8 1.3-.8 1.3 0 1.3.8 1.3.8 1.3h23.8c1.3 0 1.7-.4 1.3-1.3 0-.8-2.9-.8-2.9-.8-7.5-.8-6.3-4.6-6.3-4.6s5-44.2 5.4-45.4c.4-1.3 1.3 0 1.3 0s24.6 50 25.4 51.3c.8 1.3 2.1 0 2.1 0s25-51.7 25.8-52.9c.8-1.7.8 0 .8 0s6.7 45 6.7 48.4c0 3.8-3.8 2.9-4.6 2.9-1.3 0-.8 1.3-.8 1.3 0 .8 1.3.8 1.3.8h27.5c1.7-.8-.4-1.7-.4-1.7l-4.2-.8c-4.6-1.3-5.4-6.7-5.4-6.7s-10.4-69.6-10.8-72.1c-.4-2.5-2.9-.8-2.9-.8s-28.3 59.2-29.2 60.9-1.7.4-1.7.4-28.3-59.2-29.6-61.3c-1.3-2.1-2.5 0-2.5 0l-12.9 76.7c-.8 3.1-3.4 2.7-3.4 2.7m-330.5-3l12.9-76.7s1.3-2.1 2.5 0c1.3 2.1 29.6 61.3 29.6 61.3s.8 1.3 1.7-.4c.8-1.7 29.2-60.9 29.2-60.9s2.5-1.7 2.9.8c.4 2.5 10.8 71.7 10.8 71.7s.8 5.8 5.4 6.7l4.2.8s2.1.8.4 1.7h-27.5s-1.3 0-1.3-.8c0 0 0-1.3.8-1.3 1.3 0 4.6.8 4.6-2.9s-6.7-48.4-6.7-48.4-.4-1.3-.8 0c-.8 1.7-25.8 52.9-25.8 52.9s-1.3 1.3-2.1 0-25.4-51.3-25.4-51.3-1.3-1.3-1.3 0c-.4 1.3-5.4 45.4-5.4 45.4s-1.3 3.8 6.3 4.6c0 0 2.5-.4 2.9.8.4 1.3 0 1.3-1.3 1.3h-23.8s-.8-.4-.8-1.3c0 0-.4-.8.8-1.3s3.8-.4 3.8-.4 2.6 1.1 3.4-2.3"/></svg>
