<svg xmlns="http://www.w3.org/2000/svg" viewBox="0 126 792 360"><path d="M208.8 356.4h-14.2v-57.9h-.4c-2.9 7.9-5.8 16.3-9.2 24.2h-2.5c-2.9-7.9-5.8-16.3-9.2-24.2h-.3v57.9h-14.2V255.5h11.7c4.6 11.3 8.8 22.9 13.3 35 4.6-12.1 8.8-23.3 13.3-35h11.7v100.9zm64.2-57.5v-43.4h13.3v100.9h-10.8c-4.6-17.5-8.8-34.6-13.3-52.1h-.4v52.1H248V255.5h12.9c3.8 14.6 7.5 29.2 11.7 43.8l.4-.4zm258.5 4.6v52.9h-13.3V255.5h12.9c3.8 14.6 7.5 28.8 11.7 43.4h.4v-43.4H557v100.9h-10.8c-4.6-17.5-9.2-35.4-13.8-52.9h-.9zm-25.5 7.1c3.3 15 6.3 30.4 9.6 45.9H501c-2.9-15-6.3-29.6-9.2-44.6h-1.7v44.6h-14.2V256h27.5c6.3 0 9.6 3.3 10 9.6.4 8.3.4 16.7.4 24.6 0 3.8 0 7.9-.4 11.7-.4 4.2-2.5 7.1-6.7 8.3.2 0-.2 0-.7.4zm-15.4-42.1v30h5c3.3 0 3.8-.8 4.2-4.2v-23c0-1.7-.4-3.3-2.5-3.3-2.5.5-4.6.5-6.7.5zM430.2 306v40.5c-1.3 6.7-4.6 10-11.7 10-5.8 0-11.7.4-17.1-.4-5-.8-7.9-4.2-8.8-9.6 0-1.7-.4-3.3-.4-5v-71.3c0-2.1 0-4.2.4-6.3.8-4.6 3.8-7.9 8.3-8.3 6.7-.4 12.9-.8 19.6 0 6.3.4 9.2 4.6 9.2 10.8.5 13.3.5 26.3.5 39.6zm-14.2 0v-32.5c0-5.4 0-5.4-5.4-5.4-2.9 0-3.8.8-3.8 3.8v68.4c.4 2.9.8 3.3 3.8 3.3h1.3c3.8 0 4.2-.4 4.2-4.2-.1-11.3-.1-22.1-.1-33.4zm18.3-50.4h14.2V339c0 1.7-.4 3.8 1.3 4.2 2.1.4 4.6 0 6.7 0 .4 0 .8-1.3 1.3-2.1v-85.9H472v87.1c0 1.7 0 2.9-.4 4.6-.8 5.8-4.2 8.8-10 9.2h-16.3c-6.7-.4-10.4-4.2-10.8-10.8v-87.5c-.2-.2-.2-1-.2-2.2zm135.9 0h19.2c3.8 33.3 7.5 67.1 10.8 100.9h-13.8c-.4-6.3-.8-12.1-1.7-18.3H573c-.4 6.3-1.3 12.1-1.7 18.3H558c4.3-33.8 8.5-67.2 12.2-100.9zm13.8 69.2c-1.3-15.8-2.9-31.7-4.2-47.5h-.4c-1.3 15.8-2.9 31.7-4.2 47.5h8.8zm-286.8 3.3h14.2v11.3c0 3.3.4 3.8 3.8 3.8 5.4 0 5.4 0 5.4-5.4v-11.7c0-2.1-.8-4.2-2.1-5.4-5.4-6.7-10.8-12.9-16.7-19.2-2.9-3.3-4.6-7.1-4.6-11.7.4-7.9 0-15.8 0-23.3 0-4.6 2.1-8.3 6.7-10.4.8-.4 2.1-.8 2.9-.8 6.3 0 12.9-.4 19.2 0 5 .4 7.9 3.8 8.3 8.8.4 6.3 0 12.9 0 19.2h-14.2v-13c0-1.7-.8-2.5-2.5-2.5-5.8 0-6.7-.4-6.3 5.8V284c0 3.3 1.3 5.8 3.3 8.3 5.8 6.7 11.3 12.9 17.1 19.6 2.1 2.5 2.9 5 2.9 7.9V344c0 7.1-4.6 11.3-11.7 11.3h-15c-6.7-.4-10.8-4.6-10.8-11.3.1-4.2.1-10.1.1-15.9zm-69.6 15.4h16.3v12.9h-30.8V255.5h30.4v12.9h-16.3v30h12.5v12.9h-12.5c.4 11 .4 21.4.4 32.2zm146.3-87.9h14.2v88c0 1.7 0 3.3-.4 5-1.3 4.6-4.2 7.5-8.8 7.9-6.3.4-12.5.4-19.2 0-5.8-.4-8.8-4.2-9.2-10-.4-5.8 0-11.7 0-17.9h14.2v10.8c0 1.3.8 3.8 1.3 3.8 2.1.4 4.6 0 6.7 0 .4 0 .8-1.3.8-2.1v-82.5c.4-1 .4-1.8.4-3zm242.6 87.9h16.3v12.9h-30.4V255.5h14.2c-.1 29.2-.1 58.4-.1 88zm-323.9-65.4h-3.3v-22.5h7.5c-1.3 7.5-2.5 15-4.2 22.5z"/></svg>
