<?xml version="1.0" encoding="utf-8"?>
<!-- Generator: Adobe Illustrator 18.1.1, SVG Export Plug-In . SVG Version: 6.00 Build 0)  -->
<!DOCTYPE svg PUBLIC "-//W3C//DTD SVG 1.1//EN" "http://www.w3.org/Graphics/SVG/1.1/DTD/svg11.dtd">
<svg version="1.1" id="Layer_1" xmlns="http://www.w3.org/2000/svg" xmlns:xlink="http://www.w3.org/1999/xlink" x="0px" y="0px"
	 viewBox="0 250.3 792 111.5" enable-background="new 0 250.3 792 111.5" xml:space="preserve">
<path d="M18,314.1c-2.6-2.6-5.8-9.7-6.4-15.5c-0.6-7.7,1.9-12.9,1.9-12.9l9-3.9v29.6L18,314.1z M59.9,264.4
	c0.6-3.9,0-7.7-2.6-10.3c-2.6-2.6-6.4-3.9-8.4-3.9c-1.9,0-2.6,0-4.5,0.6c2.6,0.6,5.8,0.6,7.7,3.2c1.3,2.6-0.6,3.9-1.3,5.2
	c-1.9,1.3-4.5,1.3-7.7,0c-7.7-1.9-16.8-5.8-23.2-6.4c-4.5-0.6-8.4,0.6-11.6,2.6c-3.9,3.2-5.8,7.7-5.8,12.2c0,3.9,1.9,6.4,4.5,7.7
	C8.4,276,9,276,9,276c0,0-1.3-0.6-1.3-1.9c-0.6-1.9,0-4.5,1.9-5.8c1.3-1.3,3.9-1.3,6.4-1.3c1.9,0,15.5,3.9,19.3,5.2
	c2.6,0.6,7.1,1.9,11,2.6v14.2l-7.1,5.2l7.1,5.8v20c0,0-5.2,3.9-14.2,3.2c-5.2-0.6-11.6-5.2-13.5-7.7l18-9v-31.6l-22.6,10.3
	c1.3-3.9,4.5-8.4,8.4-11c0.6-0.6,1.9-1.9,3.2-2.6c-1.9,0-2.6,0.6-3.9,1.3C10.3,277.3,0,288.3,0,301.8c0,6.4,1.3,12.9,4.5,18.7
	c5.2,7.1,12.2,11.6,20,13.5c6.4,1.3,12.9,0.6,21.3-3.9c4.5-2.6,8.4-7.1,10.3-11.6c2.6-6.4,3.2-11,2.6-13.5c0,0.6-0.6,1.3-0.6,1.3
	c-4.5,9-11.6,12.9-11.6,12.9v-19.3l7.1-5.8l-6.4-5.8v-14.2c0,0,3.9,0,7.7-1.9C58,269.6,58.6,267.7,59.9,264.4 M102.5,291.5l4.5-3.2
	l-0.6-0.6l-4.5,3.2l-9.7-11l-12.2,11v-36.7l-16.1,12.2c0.6,0.6,3.2,0.6,3.2,3.9v50.9l-6.4,5.2l0.6,0.6l3.2-2.6l9,8.4l14.2-11
	l-1.3-0.6l-3.2,2.6l-3.2-3.2v-28.4l3.9-3.9l5.8,7.7c0,0,0,18.7,0,24.5c0,6.4,0,14.8-3.2,18.7c-3.2,3.9-4.5,4.5-8.4,5.2
	c2.6,0.6,7.7,1.3,14.2-1.9c6.4-3.2,10.3-10.3,10.3-18v-10.3V291.5z M125,311.5V287l10.3,16.8L125,311.5z M125.7,333.4l21.9-17.4
	l-0.6-0.6l-12.2,9.7l-9.7-9v-3.2l20-14.8l-10.3-17.4c0,0-7.1,3.9-11.6,7.1c-4.5,2.6-11,5.8-11,5.8v28.4l-3.9,3.2l0.6,0.6l3.9-3.2
	L125.7,333.4z M222.3,268.3c6.4-6.4,3.9-14.2,3.2-14.8c-0.6,3.2-2.6,6.4-7.1,6.4c-5.2,0-8.4-3.9-8.4-3.9l-12.9,14.8l0.6,0.6l3.9-4.5
	c4.5,3.9,7.7,4.5,11,4.5V307l-25.1-45.1c-1.9-3.9-5.8-7.1-11-7.1c-6.4,0-10.3,5.2-11,10.3c-0.6,5.2,0,6.4,0,6.4s0.6-5.8,4.5-5.8
	c3.2,0,5.2,3.2,6.4,5.2v12.9c-3.2,0-12.2,0.6-12.9,9.7c0,3.2,1.9,7.1,3.9,8.4c2.6,1.3,4.5,1.3,4.5,1.3s-2.6-1.3-1.9-4.5
	c0.6-2.6,6.4-3.2,6.4-1.9v18.7c-2.6,0-11.6,0-15.5,7.7c-2.6,4.5-1.9,9.7,0,12.9c1.9,2.6,6.4,6.4,13.5,5.2c-5.8-0.6-7.7-3.9-7.7-6.4
	c0-1.9,1.3-5.2,5.2-5.8c3.2-0.6,7.1,1.3,9.7,4.5l12.9-14.2l-0.6-0.6l-3.2,3.9c-3.2-3.9-8.4-6.4-13.5-7.1v-43.2l33.5,61.2
	c0,0,0,0.6,1.9,0.6c1.3,0,0.6-0.6,0.6-0.6v-61.2C215.9,271.5,220.4,270.2,222.3,268.3 M246.2,303.7l-10.3,7.1V287L246.2,303.7z
	 M235.9,312.8l20-14.8l-10.3-17.4c0,0-7.1,3.9-11.6,7.1c-4.5,2.6-11,5.8-11,5.8v28.4l-3.9,3.2l0.6,0.6l3.9-3.2l12.2,11l21.9-17.4
	l0,0l-12.2,9.7l-9.7-9V312.8z M322.2,293.4l9-7.7l-0.6-0.6l-3.9,3.2l-9.7-8.4l-10.3,9.7l3.9,3.9v32.2l-1.3,1.3l-9-7.7v-26.4l2.6-3.9
	l-9.7-8.4l-10.3,9.7l3.9,3.9v30.3l-1.9,1.3l-7.7-6.4v-27.7c0-7.7-10.3-8.4-12.2-14.8c-1.3-3.9,3.2-6.4,3.2-6.4s-2.6,0-5.2,1.3
	s-7.1,4.5-7.1,9.7c-0.6,11,9,8.4,9,18.7v24.5l-4.5,3.2l0.6,0.6l4.5-3.2l10.3,9l11.6-9l11.6,9l22.6-14.2v-26.4H322.2z M385.4,330.2
	c-2.6,2.6-6.4,1.3-6.4,1.3v-30.3c0,0,1.9-2.6,4.5-2.6c2.6,0,4.5,2.6,4.5,2.6v23.2C387.9,324.4,388.6,327.6,385.4,330.2 M387.9,299.9
	c0,0-1.9-1.9-4.5-1.9c-2.6,0-4.5,1.9-4.5,1.9v-9c0,0,1.9,1.9,4.5,1.9c2.6,0,4.5-1.9,4.5-1.9V299.9z M387.9,289.6
	c0,0-1.9,2.6-4.5,2.6c-2.6,0-4.5-2.6-4.5-2.6v-21.3l3.2-2.6l6.4,5.8v18H387.9z M402.1,266.4l4.5-3.9l-0.6-1.3l-4.5,3.9l-9.7-8.4
	l-13.5,11v-10.3h-0.6v74.1c0,0-1.9-0.6-3.9-0.6c-1.9-0.6-3.9-0.6-3.9-0.6v-61.9c0-4.5-1.9-9.7-8.4-11c-6.4-1.3-10.3,1.9-12.2,3.9
	c-3.9,3.9-3.2,9-3.2,9s1.3-5.8,5.2-5.8c3.2,0,4.5,2.6,4.5,7.1v17.4c-3.9,0-7.7,0.6-10.3,4.5c-3.2,4.5-0.6,9.7,0.6,11
	c2.6,3.2,5.8,2.6,5.8,2.6s-3.9-1.3-2.6-4.5c1.3-1.9,5.8-2.6,6.4-1.3v29.6c0,0-9,3.2-9.7,11c0,5.8,2.6,11,7.1,12.9
	c9,3.9,21.9-1.3,32.9-2.6c5.2-0.6,6.4,0,7.1,2.6c1.3,4.5-3.2,7.1-3.2,7.1s9.7-1.3,11.6-9c1.3-3.9,1.3-9.7-6.4-13.5
	c-9-3.9-34.2,6.4-40,2.6c-2.6-1.9-2.6-4.5-1.9-6.4c2.6-5.8,12.2-4.5,18.7-3.9c8.4,1.3,18,6.4,25.8,1.9c3.2-1.9,3.9-5.8,4.5-9.7
	V266.4L402.1,266.4z M435.6,326.9l-11-9.7v-30.9l11,10.3V326.9z M447.9,292.8l3.9-3.2l-0.6-0.6l-3.9,3.2l-13.5-12.2
	c0,0-5.2,3.2-9.7,5.8c-5.8,3.2-11.6,5.8-11.6,5.8l0,0v30.3l-3.9,3.2l0.6,0.6l3.2-3.2l12.9,11c0,0,5.2-3.2,10.3-5.8
	c5.2-2.6,12.2-6.4,12.2-6.4V292.8z M491.1,280.5c-1.3,1.3-1.3,1.9-2.6,2.6c-2.6,1.3-5.2,0-5.2-0.6c-1.3-0.6-1.9-1.3-1.9-1.3
	l-8.4,8.4l-7.1-9l-13.5,11.6l0.6,0.6l3.9-3.2l3.9,5.8v26.4l-5.8,5.2l0.6,0.6l3.9-3.2l10.3,9.7l13.5-11.6l-0.6-1.3l-4.5,3.9l-5.2-4.5
	v-30.3c5.2,5.8,9.7,4.5,11,3.9C488.5,292.1,491.7,287,491.1,280.5 M511,323.7l-4.5-4.5v-65.7l-16.8,11.6c2.6,0,4.5,2.6,4.5,7.7v49.6
	l-6.4,5.8l0.6,0.6l3.9-3.2l9,8.4l13.5-11.6v-1.3L511,323.7z M527.1,333.4l14.8-12.9l-0.6-0.6l-4.5,3.9l-21.3-32.2l1.3-1.3
	c0,0,5.2,4.5,10.3,3.2c6.4-1.3,9-7.7,10.3-13.5c0,0-3.9,4.5-9,3.2c-3.2-0.6-5.8-3.2-5.8-3.2l-15.5,21.9L527.1,333.4z M572.9,314.1
	c-2.6-2.6-5.8-9.7-5.8-15.5c-0.6-7.7,1.9-12.9,1.9-12.9l9-3.9v29.6L572.9,314.1z M614.8,264.4c0.6-3.9,0-7.7-2.6-10.3
	c-2.6-2.6-5.8-3.9-8.4-3.9c-1.9,0-1.9,0-4.5,0.6c2.6,0.6,5.8,0.6,7.7,3.2c1.3,2.6-0.6,3.9-1.3,5.2c-1.9,1.3-4.5,1.3-7.7,0
	c-7.7-1.9-16.8-5.8-23.2-6.4c-4.5-0.6-8.4,0.6-11.6,3.2c-3.9,2.6-5.8,7.1-5.8,11.6c0,3.9,1.9,6.4,4.5,7.7c1.3,0.6,1.9,0.6,1.9,0.6
	c-0.6-0.6-1.3-1.3-1.9-2.6c-0.6-1.9,0-4.5,1.9-5.8c1.3-1.3,3.9-1.3,6.4-1.3c1.9,0,15.5,3.9,19.3,5.2c2.6,0.6,7.1,1.9,11,2.6v14.2
	l-7.1,5.8l7.1,5.8v20c0,0-5.2,3.9-14.2,3.2c-5.2-0.6-11.6-5.2-13.5-7.7l18-9v-31.6l-21.9,9.7c1.3-3.9,4.5-8.4,8.4-11
	c1.3-0.6,2.6-1.9,3.2-2.6c-1.9,0-2.6,0.6-3.9,1.3c-11.6,4.5-21.3,15.5-21.3,29c0,6.4,1.3,12.9,4.5,18.7c5.2,7.7,12.2,12.2,20,13.5
	c6.4,1.3,12.9,0.6,21.3-3.9c4.5-2.6,8.4-7.1,10.3-11.6c2.6-6.4,3.2-11,2.6-13.5c-0.6,0.6-0.6,1.3-0.6,1.3
	c-4.5,9-11.6,12.9-11.6,12.9v-19.3l7.1-5.8l-7.1-5.8v-13.5c0,0,3.9,0,7.7-1.9C612.8,269.6,614.1,267.7,614.8,264.4 M624.4,278
	l9.7-8.4l-7.7-8.4l-9.7,8.4L624.4,278z M634.8,292.1l4.5-3.9l-0.6-0.6l-3.9,3.9l-9-11l-12.2,11l0.6,0.6l3.2-3.2l5.2,6.4v27.1
	l-3.9,3.9l0.6,0.6l3.9-3.2l8.4,10.3l12.9-11l-0.6-1.9l-3.9,3.2l-5.2-5.8V292.1z M701.1,333.4l12.9-12.2l-0.6-0.6l-3.2,3.2l-5.2-5.2
	v-27.1l4.5-3.9l-0.6-0.6l-4.5,3.9l-8.4-10.3l-12.9,10.3l-9-9.7l-12.2,9.7l-9-9.7l-12.9,11.6l0.6,0.6l3.9-3.2l5.8,7.1v23.8l-3.2,2.6
	l9.7,11l9.7-9.7l-3.9-3.9v-30.3l2.6-1.9l6.4,7.7v23.2l-2.6,2.6l9,10.3l9.7-9.7l-3.2-3.9v-28.4l2.6-1.9l7.1,7.7v23.2l-2.6,2.6
	L701.1,333.4z M732.1,311.5V287l10.3,17.4L732.1,311.5z M732.7,333.4l21.9-17.4l-0.6-0.6l-12.2,9.7l-9.7-9v-3.2l20-14.8l-10.3-17.4
	c0,0-7.1,3.9-11.6,7.1c-4.5,2.6-11,5.8-11,5.8v28.4l-3.9,3.2l0.6,0.6l3.9-3.2L732.7,333.4z M774.6,304.4l-4.5-3.9v-14.2
	c0,0,2.6,5.2,7.7,7.1c6.4,1.9,11-4.5,11-4.5C784.9,296,774.6,304.4,774.6,304.4 M775.2,304.4l5.2,4.5v18c0,0-2.6-7.7-9.7-9
	c-7.7-1.3-12.2,5.8-12.2,5.8C759.8,318.6,769.4,310.2,775.2,304.4 M792,303.7l-8.4-7.1c10.3-12.2,7.7-17.4,6.4-19.3
	c0,1.3,0.6,5.8-5.8,6.4c-3.9,0.6-7.1-3.9-7.1-3.9s-4.5,3.2-9,5.8c-4.5,2.6-10.3,5.8-10.3,5.8V305l7.7,7.1c-6.4,6.4-11,11-9.7,17.4
	c1.3,6.4,7.7,7.7,9,7.7c-4.5-1.3-5.8-5.2-2.6-7.1c4.5-3.2,9.7,3.2,9.7,3.2c9-7.1,19.3-12.2,19.3-12.2v-17.4H792z"/>
</svg>
