<svg xmlns="http://www.w3.org/2000/svg" viewBox="0 126 792 360"><path d="M168 256.4c-2.1 1.3-3.3 2.1-4.2 2.9-.8 1.3-1.7 2.9-1.7 4.2 0 1.7.4 2.9 1.7 4.2l1.3 1.3s.8.4 1.3.8c1.7.4 3.3.4 4.6.4 1.7-.4 2.9-.8 3.8-2.1l.4-.4c.4-.4.8-.4 1.7-.4.4 0 .8.4 1.3.8v1.7c0 2.1-.4 3.8-1.7 5.4-.4.8-1.3 1.3-1.7 1.7-1.3.8-2.1 1.3-3.8 1.3-6.7.4-11.3-2.9-12.9-10-.8-2.1-.4-4.6.4-7.5 1.3-2.9 3.3-5.8 5.8-8.8 2.1-1.7 5-2.9 8.8-4.2 2.1-.4 3.8-.8 5-.8l29.6.4c.4 0 .8.4.8 1.3 1.3 8.8 5.8 22.1 13.3 40 3.8 9.2 7.5 17.1 11.3 24.6.4.4.8.8 1.3.4l.4-1.3c.8-4.6 2.9-11.3 5.8-20.4 1.3-3.8 2.1-7.1 3.3-10.4.4-1.3.8-2.1 1.3-3.3 1.7-5 3.8-9.6 6.3-14.6 2.9-5.8 7.1-10.8 12.1-14.6.8-.4 1.7-1.3 2.5-1.7 3.3-2.1 6.7-2.5 9.6-2.1.8 0 1.3.4 2.1.4 2.5.8 4.6 2.1 5.8 4.6.4.8.8 1.7.8 2.5s0 1.7-.4 2.1c-.4 1.7-1.7 2.9-3.8 4.2-1.7.8-3.3 1.7-5 1.7-.4 0-.8 0-.8-.4 0 0 .4-.4.8-1.3.4-.8 0-2.1-.4-3.3-.4-1.3-2.1-1.7-4.6-1.7-1.3 0-2.5.8-4.2 1.7-3.8 2.9-7.1 6.3-9.6 10.4-2.9 5-5.4 10-7.9 15.4-1.3 2.9-2.1 6.3-3.3 9.6-1.7 6.3-4.2 15-7.5 26.3-.4 1.3-.4 2.5 0 3.3l8.8 11.3h5.8c.8-.4 1.7-1.3 2.5-2.1l.8-1.7c7.1-28.3 11.3-44.2 11.7-47.5.4-2.1-.4-3.8-2.9-4.6l-1.7-.8v-1.7h42.1l.4 15.4h-1.7c-.4 0-.4-.4-.4-.8s0-1.3-.4-1.7c-.8-2.5-2.1-5-4.6-7.5l-3.3-2.1h-13.3c-.8.4-1.3.8-1.7 1.7 0 .4-.4.8-.4 1.3l-5.4 21.7h11.3l1.3-.8c.4-.4 1.7-2.1 3.3-4.2l2.1-2.9s.4-.4.4-.8c.4-.4.4-.4.8-.4s.4.8 0 1.7l-5 24.6c0 .4-.4.8-.8.8s-.4 0-.8-.4l-.4-.4c0-2.5-.4-5-.4-6.7 0-.8-.4-2.1-.8-2.9-.8-1.3-1.7-2.5-2.9-3.3H273s-1.3 3.8-2.9 11.7c-1.7 7.1-2.5 11.7-2.5 13.3 0 .8.8 1.3 1.7 1.3h20c1.3-.4 2.1-.8 2.9-1.7.4 0 .4-.4.8-.4 0 0 0-.4.4-.4 1.3-1.3 2.9-2.9 4.6-5.4 3.3-4.2 5-6.7 5.4-7.9.4 0 1.3 0 1.7.4s.8.8.8 1.3-.8 2.9-2.5 8.3c-.8 2.5-1.7 5-2.5 7.5 0 .8-.4 1.3-1.3 1.3-.8 0-17.1 0-49.2.4.4.4 2.1 2.1 4.6 5 3.8 3.3 7.1 6.7 10.4 9.6 3.3 2.9 7.9 5.4 13.3 7.9 4.2 1.7 7.9 2.9 11.7 3.8 1.3.4 3.3.4 5.4.4 3.3.4 7.1 0 10.4-1.3 3.8-1.3 6.7-3.3 8.8-6.7.4-.8.8-1.7 1.3-2.1 0-.8-.4-1.7-1.3-2.5-.4-.4-.8-.4-.8-.4h-1.7l-.8-.4c-.4-.4-.8-.8-.4-1.7 0-.8.4-1.3 1.3-2.1.4-.4.4-.4.8-.4 2.5-1.3 5-1.7 7.5-1.3.4 0 .4.4.8.4.8.4 1.7.8 2.5 1.7.8.8 1.3 2.1 1.3 3.3v3.3c0 1.3-.4 2.1-.8 2.9-.4.8-.8 1.3-1.7 2.1l-.8.8c-.4.4-.8.8-1.7 1.3-2.1 1.7-3.8 2.9-5.8 3.8-2.5 1.3-6.3 2.1-11.3 2.9-5.4.4-10.8.4-15.4 0-1.3 0-2.1-.4-3.8-.8-8.8-1.7-17.1-5-25-10-7.5-5-14.2-10.8-20-17.9-5.8-7.1-11.3-15-15.8-22.9-4.6-7.9-8.3-16.3-11.7-24.6-1.7-4.2-3.3-7.9-4.6-12.1l-2.9-7.5c-.4-1.3-.8-1.7-.8-1.7h-.4s-.4.4-.4.8-.4 2.1-.8 4.6c-1.7 7.1-3.3 14.2-5.4 21.3-2.1 7.1-5 14.2-8.3 20.8-2.9 6.3-7.1 11.3-12.1 16.3l-1.7 1.7c-4.2 3.8-8.8 6.7-13.8 8.3-2.9.8-5.4.8-8.3.8-7.9-.4-12.9-3.8-15.4-9.6-.8-2.1-1.3-4.2-.8-6.3 1.3-5.8 4.6-8.3 10.4-7.1h.8c.8 0 1.3.4 2.1.4.4.4 1.3.4 1.3.8s.4.8.4 1.3 0 .8-.4.8c-.4.4-.8.4-1.7.8-.4 0-.8.4-1.3.4-1.3.8-2.1 2.1-2.5 3.3-.8 2.9 0 5.4 2.5 7.1 4.6 3.3 10 3.3 15.4 0 10.8-5.8 20-19.6 27.1-41.3 2.5-7.5 4.6-15.4 6.3-23.8.4-2.9 1.3-5.4 1.7-7.5 0-.8.4-1.3.4-2.1.4-1.3.4-2.9 0-4.2 0-.4-.4-.4-.8-.4h-.4c-4.6 0-9.2 0-14.2.4-9.7.4-14.3.4-15.1.4m366.8 45.8h9.6c5-1.3 8.8-3.8 11.3-8.3.8-1.3 1.3-2.9 1.3-4.2.4-4.6-.8-8.8-3.8-12.1-.4-.4-1.3-.8-1.7-.8h-10.4l-6.3 25.4zm-32.1 8.8c2.1-5 3.3-10.4 3.3-16.3 0-3.3-.4-6.7-.8-10-.8-4.2-2.9-6.7-6.7-8.3-4.2-1.3-7.9 0-11.7 3.8l-2.5 2.5s-1.7 2.1-2.5 2.9c-5 6.3-7.5 14.2-8.8 22.9 0 1.3-.4 2.5-.4 3.8-.4 2.5-.4 5-.4 7.1 0 1.7.4 2.9.4 4.6 1.7 6.7 5.8 10 12.5 9.2.4 0 1.3-.4 1.7-.4 1.7-.8 3.3-1.7 5-3.3 3.8-3.3 7.1-7.5 9.6-12.9.5-2.3.9-3.9 1.3-5.6m129.6-35.4H631c-2.9.4-5.4.8-7.5 2.1-1.3.4-2.1.8-2.9 1.7-.8.4-8.3 6.7-22.9 18.3v2.1c5.8 14.2 12.5 25.8 20.4 34.6.8.8 1.3 1.7 2.1 2.1l2.5 2.5c.8.8 2.1 1.7 2.9 2.5.8.8 1.7 1.3 2.9 2.1.8.4 1.7.8 2.5 1.7.8.4 1.7.8 2.9.8.8.4 1.7.4 2.9.8h1.3c1.7.4 3.8.4 5.8 0 1.7 0 3.3-.8 4.6-2.1.8-.8 1.7-2.1 2.1-2.9v-1.7s0-.8-.4-.8c0 0-.8-.4-1.7-.8-.8-.4-1.7-.8-2.1-1.7-.4-.4-.4-1.3-.4-2.1 0-.4 0-.8.4-1.3.4-.8.8-1.3 1.7-1.7s1.7-.4 2.9-.4c1.7 0 3.3.4 4.2 1.7.8.8 1.3 2.1 1.3 3.8v3.3c-1.7 5-4.2 8.3-8.3 10-3.3.8-6.7 1.7-10 1.3h-2.1s-1.3 0-2.1-.4c-.8 0-1.3-.4-2.1-.4s-1.3-.4-2.1-.8c-1.3-.4-2.1-.4-3.3-.8-1.3-.4-2.1-.8-3.3-1.3-.8 0-1.3-.4-2.1-.8-.4-.4-1.3-.4-1.7-.8-.4-.4-1.3-.8-1.7-1.3-.8-.8-1.7-1.3-2.5-2.1s-2.1-1.7-2.9-2.5c-.8-.4-1.3-1.3-2.1-2.1-.4-.8-1.3-1.3-1.7-2.1-.8-.8-1.3-1.7-2.1-2.1-2.1-2.5-3.8-5-5.8-8.3-1.3-1.7-2.1-3.8-3.3-5.4l-6.3-12.5-.4-1.7-.4-.4c-.8-1.3-1.7-2.1-2.1-1.7-.8 0-1.7.4-2.1.8-.4.4-.8.8-1.7 2.1-.4 1.7-1.3 5-2.5 11.3-1.7 6.7-2.1 10.4-2.1 10.8 0 .8 0 1.3.4 1.3 0 0 .8.4 1.7.8.8.8 2.9 1.3 6.3 1.7v2.5l-35.8-.4-14.6-29.2c-.4-.4-.8-.4-1.3-.4-.8 0-1.3 0-1.7.4-2.9 9.2-4.6 15.8-5 20 0 1.7-.4 3.3-.4 5.4 1.3 1.3 2.9 2.1 5 2.5 1.3.4 2.1.4 2.9.4v1.3h-29.6l.4-1.3c.8 0 2.5-.4 4.6-.8 2.5-.8 4.2-1.3 4.6-1.7.8-.8 1.3-1.7 1.7-2.9l11.3-48.4c-.4-2.5-1.7-3.8-3.8-4.2h-3.3v-2.1h27.5l3.8.4c2.9.4 5.4 1.7 7.9 3.3 2.5 2.1 4.2 4.6 4.2 7.9.4 2.9-.4 6.3-2.1 10-.8 1.3-2.1 2.5-3.3 3.8-.4.4-1.3.8-1.7 1.3l-.4.4c-.4.4-1.7 1.3-3.8 2.1-2.1 1.3-4.6 2.1-7.9 2.1v.4s.4.4.4.8l15.4 25.8.8.8 1.3 1.3c.8.4 1.3 0 2.1-.8s1.3-1.7 1.3-1.7l1.3-4.2c1.7-7.5 3.8-14.6 5.4-22.1 3.8-15 5.4-22.5 5.4-22.9 0-2.9-.4-4.2-.8-4.6-.4-.4-1.3-.4-3.3-.8l-2.5-.4-.4-2.1h27.1v2.1h-3.5c-.8 0-1.7 0-2.5.4-1.7.4-2.5 1.7-3.3 2.9 0 0 0 .4-.4.8l-5.8 22.5c.4 0 .8-.4 1.3-.4 16.7-13.8 25-20.8 25.4-21.7.4-2.5-.4-4.2-2.5-4.6h-3.3v-2.1H632v.8h.3zM388.5 251l.4-.4c1.7-.8 3.3-1.7 5-2.5 1.7-.8 3.8-1.3 5.8-1.3 2.9 0 5.8.8 8.8 1.7 2.5.8 4.6 2.1 6.7 3.8 1.3.8 2.1 2.1 2.9 3.3 2.1 2.5 4.6 7.5 7.5 15.4 2.1 6.3 3.3 17.5 4.2 34.6.4 8.3.4 16.3.4 23.8 8.3-10 14.2-17.5 17.9-22.5 2.5-3.3 5-8.3 7.5-14.2 2.1-5.4 4.2-10.8 5.8-16.7 1.7-7.9 1.3-13.3-1.7-16.3-1.7-2.1-3.8-2.9-5.4-2.5H453c-.4 0-.8 0-1.7-.4 0-3.3.8-5.4 2.5-6.7.8-.4 2.9-1.3 5.8-2.1 2.5.4 5 1.7 7.1 3.8 1.7 2.1 2.9 4.2 3.3 7.1.8 5.8 0 12.5-2.5 20-1.7 4.6-4.2 10-7.5 16.3-2.5 5.8-8.8 14.6-18.3 27.1-7.1 9.2-12.1 15.4-15 18.8-7.1 8.8-15.4 15-24.6 20-2.1 1.3-4.2 2.1-6.3 2.9-.8.4-1.7.4-2.5.8-3.8 1.3-7.9 1.7-12.1 2.1-4.2 0-8.3-.8-12.1-2.9-.4-.4-1.3-.4-1.7-.8-5-2.9-8.3-7.5-9.6-13.3-.8-7.1.8-12.9 5-17.5 4.2-4.2 10-6.7 17.5-7.5 5.4-.4 10.4 1.3 15 5 1.7 1.7 2.9 2.9 3.8 4.6.8 1.3 1.3 2.1.8 2.5-.4.8-.8.8-1.3.8l-1.7-1.3c-8.3-5.8-15.8-6.7-22.5-2.5-.8.4-1.3.8-2.1 1.3-1.3.8-2.1 1.7-3.3 2.9s-2.5 2.9-3.3 4.6c-.4.8-.8 1.7-.8 2.5-.4 1.3-.4 2.5-.4 3.8 0 1.3.4 2.5.8 3.8.8 1.7 2.1 3.8 3.3 5.8 7.5 6.3 17.1 6.3 28.8 0 3.8-2.1 7.9-5 11.7-8.3 2.9-2.5 5-4.2 5.8-5.8 1.3-1.7 2.5-3.8 3.3-5.8.8-2.1 1.3-4.2 1.3-5.8.8-29.2-1.3-50.4-6.7-63.4-.8-2.1-1.7-4.2-2.9-5.8-.8-1.3-1.7-2.1-2.1-2.9-1.7-1.7-3.3-2.9-5-3.8-2.1-.8-3.8-1.7-5.8-1.7-2.9.4-5.8 1.3-8.3 2.1-1.7 1.3-2.9 2.5-3.8 4.6-1.3 2.1-2.1 4.6-2.5 6.7h-2.1c.4-2.5.8-5 1.3-7.1.4-1.3.8-2.5 1.7-3.8 1.4-3.6 3.1-5.7 5.2-6.9m-15.4 24.2h-2.5l-.4-1.3h29.2v2.1c-1.3 0-2.5.4-3.8.4-1.3.4-2.9.8-4.2 1.3-2.1.8-3.8 1.7-5 3.3-1.7 1.7-2.9 2.9-4.2 4.6l-35.4 52.5h-2.9l-.8-33.8-23.8 33.8h-2.1l-3.3-59.2c0-.4 0-.4-.4-.8s-.8-.4-1.3-.8c-1.7-.8-3.3-1.7-5-2.1h-.4v-1.7H331v2.1c-2.1 0-4.2.8-5.4 1.7-.8.4-1.3.8-1.7 1.7l2.1 43.8 17.1-23.8c-.4-11.3-.8-17.5-.8-20 0-1.3-1.3-2.5-3.3-2.9l-2.9-.4V274h24.6v1.7h-.8s-.8 0-1.3.4c-.4 0-.8 0-2.1.4s-2.1.8-2.5 1.3l-.8.8.8 43.4c3.8-5 7.9-10.4 11.7-16.3 7.9-11.7 12.9-19.2 13.8-23.3.4-.8.4-1.7 0-2.9-.4-1.3-1.3-2.1-2.1-2.9-1.4-.6-2.7-1-4.3-1.4m88.8 37.5c0-5.8 1.3-11.3 2.9-16.7 2.1-5.8 5-10.4 9.6-14.6 2.9-2.5 5.8-4.6 9.2-6.3.8-.4 2.1-.8 2.9-1.3 5-1.7 10.4-2.1 15.8-.8.8 0 1.7.4 2.5.4 3.8 2.1 6.7 5.4 8.3 9.6 1.3 3.3 2.1 6.7 2.1 10.4 0 6.3-.8 11.7-2.5 16.3-.8 2.5-2.1 5.8-4.2 9.6-4.2 7.1-9.6 12.1-16.3 15-2.5.8-4.6 1.7-6.7 2.1-3.3.4-7.1.4-10.4-.8-6.3-2.1-10.4-6.3-12.1-12.5-.7-2.9-1.1-6.7-1.1-10.4"/></svg>
