<svg xmlns="http://www.w3.org/2000/svg" viewBox="0 126 792 360"><path d="M308.9 309.3c-3.8 3.8-7.9 5-12.1 6.7-1.7.8-3.3 1.3-5 2.5-3.3 2.1-5.8 5-6.7 8.8-1.3 4.6-1.3 9.6-.4 14.6 1.3 5.4 4.6 8.3 10 8.3 2.9 0 5.4-1.3 7.5-2.9 3.8-3.3 6.3-7.9 6.7-12.9.4-7.1.4-14.2.4-21.7-.4-1.3-.4-2.1-.4-3.4m-31.3-20.8c6.7 0 10.4 2.5 11.7 7.5 1.3 4.6 0 8.3-3.3 11.3-3.8 2.9-8.3 2.9-12.5.8-4.2-2.1-5.8-5.4-5.4-10 .4-5 2.9-8.8 7.1-11.3 5.4-3.3 11.3-4.6 17.5-4.6 6.7-.4 13.3.4 19.6 2.5 9.2 3.8 14.2 10.8 14.2 20.8v32.1c0 2.9.4 5.4.8 7.9.4 2.9 2.5 5 5.4 5h6.7c2.5-.4 4.2-2.1 4.6-4.6.4-2.5.8-5 .8-7.9v-41.7c0-1.7-.4-3.3-.8-5-.4-2.5-2.1-3.8-4.6-4.2-2.1-.4-3.8-.4-5.8-.4V285c3.8-.4 7.5-.4 11.3-.8 5-.4 10-1.3 15-2.1 2.1-.4 2.9 0 2.9 2.5v14.2c.8-1.7 1.7-3.3 2.1-4.6 4.2-7.5 10.4-12.1 19.2-12.5 6.7-.4 12.1 3.3 12.9 9.6 1.3 5.8-2.5 11.7-7.9 12.9-5.8 1.3-11.7-2.1-12.9-7.9-.8-4.2 0-8.3 4.2-11.3-5.4 1.3-9.2 4.2-12.1 8.3-3.3 4.6-5 10-5.4 15.8-.4 11.3 0 22.5 0 33.8 0 .8.4 2.1.4 2.9.8 3.3 2.5 4.6 5.8 5 .8 0 2.1 0 2.9.4v1.7h-53.8c-7.1 0-10-2.5-10-9.6v-1.7c-.4 0-.4 0-.4.4-3.3 6.7-9.2 10.4-16.7 11.7-5.4.8-11.3.8-16.7-1.3-6.7-2.5-10-7.1-10.4-13.8-.8-9.6 2.9-15.8 12.1-19.2 5.4-2.1 11.3-3.3 17.1-5.4 3.3-.8 6.3-2.1 9.2-3.3 4.2-2.1 6.3-5.4 6.3-10 0-2.1 0-4.2-.4-5.8-1.3-5.8-5-9.6-10.8-10.4-6.3-1.3-12.1 0-17.9 2.9-.3.3-1.1.7-2 1.1m219.3 32.1c.4 2.9.4 7.9 1.3 12.5.4 4.2 1.7 8.8 4.2 12.1 4.2 6.3 11.7 6.3 15.8.4 1.7-2.1 2.9-4.6 3.8-7.1 4.2-11.7 4.2-23.8 2.1-35.8-.8-4.6-2.5-9.2-5.4-12.9-4.2-5-10.8-5.4-15 0-1.7 2.1-2.9 4.6-3.8 7.5-2.6 6.6-2.6 14.1-3 23.3m55.8 30.4v1.7h-19.2c-5.8 0-8.3-2.5-9.2-8.3 0-2.1 0-3.8-.4-5.8-.8 1.7-1.3 3.3-2.1 4.6-4.6 8.8-11.3 12.1-20.8 10.4-10.4-1.7-17.5-7.5-20.4-17.5-3.8-12.5-3.8-24.6.8-36.7 3.3-9.2 10-15.4 19.6-17.1 11.3-2.1 19.2 2.5 22.9 13.3.4.8.4 1.3.8 2.5v-25c0-1.7-.4-3.3-.4-5-.4-2.9-2.5-4.6-5.4-5-2.5-.4-5-.4-7.5-.4V261c2.5 0 4.6 0 7.1-.4 7.1-.8 13.8-1.7 20.8-2.9 3.3-.4 3.8-.4 3.8 2.9V334c0 2.9 0 6.3.4 9.2.8 5.4 2.1 7.1 7.9 7.5.1.3.5.3 1.3.3m-348.4-35.4c5-.4 9.6-.4 14.6-.8 10.4-1.3 17.5-7.5 20-17.5 1.3-4.6 1.3-8.8.8-13.3-.8-11.3-7.1-17.9-17.9-19.6-5.4-.8-11.3-.8-16.7-.8l-.4.4v51.7h-.4zm0 1.7v.8c0 7.9 0 15.4.4 23.3.4 5.8 2.9 8.8 9.2 9.6 2.5.4 4.6.4 7.1.8v1.7h-52.1c-.4-1.3-.4-1.7 1.3-1.7 2.1 0 4.2 0 6.3-.4 6.3-.8 8.3-3.3 9.2-9.6v-65.4c0-1.7 0-3.3-.4-5-.8-4.2-2.9-6.3-7.1-7.1-1.3-.4-2.9-.4-4.2-.4-1.3 0-2.9 0-4.6-.4v-1.7h48.4c8.8 0 17.1 1.3 25 4.6 8.8 3.8 14.6 9.6 15.8 19.2 1.7 14.2-4.6 24.2-18.3 28.8-7.9 2.9-16.7 3.3-25 3.8-3.5-.9-7.3-.9-11-.9m241.3-7.1c-2.9 1.7-6.3 2.9-9.2 4.6-1.7.8-3.3 1.3-5 2.1-4.6 2.1-8.3 5.4-9.6 10.4-.8 3.8-.8 7.9-.8 11.7 0 2.9.8 5.4 2.9 7.9 3.8 4.2 10.4 3.8 15-.4 3.3-3.3 5.4-7.1 5.8-11.7.4-3.3.4-7.1.4-10.8.5-5.1.5-9.7.5-13.8m27.9 40.8v1.7h-18.3c-6.7 0-9.6-2.9-9.6-9.2v-2.1c-.4.8-.8.8-.8 1.3-3.3 5.8-8.3 9.6-15 10.8-5 1.3-10 1.3-15 0-9.2-2.1-14.2-9.2-13.3-18.8.8-7.1 4.2-12.1 10.4-14.6 5.4-2.1 10.8-3.8 16.3-5.4 3.8-1.3 7.5-2.1 10.8-3.3 5-2.1 7.5-5.4 7.1-10.8 0-1.7 0-3.3-.4-5-.8-5.8-4.6-10-10.4-11.3-7.1-1.3-13.8 0-20 3.8 4.2-.4 7.5.4 10 3.8 2.9 4.2 2.9 10-.4 13.8-3.3 3.8-9.6 4.6-14.2 2.1-4.2-2.5-6.3-7.9-4.2-12.9 1.7-4.6 5-7.5 9.2-9.2 4.2-2.1 8.3-2.9 12.9-3.3 7.5-.4 14.6 0 21.7 2.5 9.2 3.3 14.2 10.4 14.2 20v30.8c0 2.9 0 5.4.4 8.3.8 5 2.5 6.3 7.1 6.7-.1.3.7.3 1.5.3m130.9-40.4c0-2.5 0-5-.4-7.1-.4-5-1.3-9.6-3.3-13.8-1.7-2.9-3.8-5-7.1-5.8-4.6-.8-8.8 1.3-11.7 5.4-2.5 3.8-3.8 7.9-4.6 12.5-.4 2.9-.8 5.8-1.3 8.8h28.4zm11.3 31.7c-2.5 0-4.2.4-6.3 0-5.8-1.3-9.6-6.7-8.3-12.5s6.7-9.2 12.5-8.3c6.3 1.3 9.6 6.3 8.8 12.1-.8 6.7-4.6 11.3-10 14.6-5 3.3-10 5-15.8 5.4-6.7.4-13.3 0-20-2.5-9.2-3.3-15-9.6-17.9-18.8-3.3-11.3-2.9-22.1 2.9-32.5 6.7-12.1 17.5-17.9 31.3-17.9 7.1 0 13.8 2.1 19.2 6.3 7.1 5.4 10 12.9 10.8 21.3.4 2.5 0 2.9-2.5 2.9h-42.1c-2.5 0-2.5 0-2.5 2.5 0 7.1 0 14.2 2.9 20.8.8 1.7 1.7 3.3 2.5 5 6.3 10.4 19.2 12.9 29.2 6.3 1.9-1 3.6-2.7 5.3-4.7"/></svg>
