<svg xmlns="http://www.w3.org/2000/svg" viewBox="0 126 792 360"><path d="M557.3 320.2v1.3c0 4.2-2.1 9.2-5 9.2s-5-5-5-9.2c0-1.3-.4-4.2-.4-5.4h44.2c.4-7.1 2.1-25.8-5.8-41.7-6.3-12.5-17.1-20.8-33.3-20.8-14.6 0-25 7.5-30.8 16.7v-45.4H477v25c6.3 0 10 .4 10 6.7v13.8c-4.2-9.2-13.8-17.5-25-17.1-5 .4-8.3 2.5-12.5 5V255h-38.8v7.9c-6.7-6.7-14.6-10-25-10-16.7 0-27.5 10.4-32.9 22.5-2.9-8.8-12.9-22.5-32.1-22.5-7.9 0-15.4 2.9-20.4 6.3-.8-10-5.4-20.8-12.5-26.7-5.8-4.6-14.6-7.9-26.3-7.9h-60.9v27.9c7.9 0 10.4 1.7 10.4 9.6v57.1c0 7.5-2.1 9.6-10.4 9.6v28.8H261v-28.8c-8.3 0-10.4-2.1-10-9.6v-11.3h9.6c12.5.4 16.7-1.7 20.4-4.6-.8 5-.4 14.2 0 17.5 2.1 17.9 7.5 22.5 12.5 27.9 7.1 7.1 16.7 10.4 25.8 10.4 25 0 31.3-19.2 32.9-22.5 8.3 19.6 25 22.5 34.2 22.5 18.8 0 26.3-9.2 30.8-16.7v9.6c0 6.7-1.7 10-9.6 10v24.6h52.1V362c-7.9 0-9.6-5.8-9.6-9.6 5 6.3 13.8 6.7 15 6.7 3.8.4 12.1-.8 16.3-8.3v6.7h45.9v-8.8c6.7 7.1 16.3 10.4 25.4 10.4 15 0 36.7-8.3 38.3-39.2h-33.8v.3zm-5 14.1c5 0 7.5-4.6 8.3-10.4h26.3c-3.3 40-58.8 40.4-63.8 8.8v20.8h-38.3v-20.8c-3.3 20.4-15 23.3-20 23.3-4.2 0-15-3.8-18.8-14.2l.4 11.7c0 7.5 4.6 12.1 9.6 12.5v17.1h-44.6V366c3.8 0 9.6-3.8 10-12.1v-31.3c-1.3 7.9-7.1 32.9-34.6 32.9-27.1 0-33.3-26.3-34.6-30.4-5 28.8-24.2 30.4-32.5 30.4-15 0-24.2-10.4-24.2-10.8-9.2-9.2-10.8-23.3-10.4-38.3 0-2.9.8-8.8 1.3-11.7-9.6 10.4-18.8 9.2-29.6 9.6h-9.2v17.1c0 7.1 2.5 11.3 10.4 11.3v20.8h-53.8v-20.4c7.9 0 10.4-4.6 10.4-11.7v-61.3c0-1.7-.4-10.8-10.4-10.8v-20.4h57.1c10.8 0 18.3 3.3 23.8 7.5 9.6 7.5 11.3 20.4 12.1 30 14.6-12.5 49.2-15.4 55 22.5 6.3-28.8 27.5-31.3 32.5-31.3 9.2 0 24.2 5.4 29.2 20v-17.9h31.3v11.7c2.5-8.8 10-13.3 17.9-13.8 7.5 0 22.9 8.3 27.1 40.4v-42.9c0-6.3-3.8-9.2-10-9.2v-17.1h36.7v68.8c3.3-30.4 20.4-40.4 34.6-40.4 14.6 0 25 7.9 30 18.3 6.7 13.3 6.3 27.5 5.8 36.3h-44.6v7.5c1.3 8 3.8 15 9.6 15m-205.5-17.9c0 2.1 0 2.1.4 4.2h-22.1v1.3c0 4.2-2.1 9.2-5 9.2s-5-5-5-9.2c0-1.3-.4-4.2-.4-5.4h32.1zm-26.7 17.9c5 0 7.5-4.6 8.3-10.4h23.3c-1.3-5.8-1.3-7.1-1.3-11.7h-39.2v7.5c.6 7.6 3.1 14.6 8.9 14.6m56.7-27.5c0 15.4 2.9 27.5 9.6 27.9 7.1 0 9.6-12.5 9.6-27.9 0-15.4-2.9-27.5-9.6-27.9-6.7 0-9.6 12.5-9.6 27.9m9.6-23.7c3.3 0 6.3 10.4 6.3 23.3s-2.9 23.3-6.3 23.3-6.3-10.4-6.3-23.3 3-23.3 6.3-23.3m-71.7 8.3v2.5h10v-2.5c0-4.2-2.1-8.8-5-8.8-3.3.1-5 5.1-5 8.8m5.4-12.9c5.8 0 8.3 7.1 8.8 14.6v4.6h-17.5v-4.6c0-7.5 2.5-14.6 8.7-14.6m226.8 13.3v2.5h10v-2.5c0-4.2-2.1-9.2-5-9.2-2.9.1-4.6 5.1-5 9.2m5-12.9c5.8 0 8.3 6.7 8.8 14.2v4.6h-17.5v-4.6c.4-7.5 2.9-14.2 8.7-14.2M451 295.2c0-6.7.8-12.5 3.8-12.5 4.2 0 5.4 9.6 5.4 24.2 0 13.3-1.7 22.9-5.8 22.9-2.9 0-3.3-6.7-3.3-12.1v-22.5zm-3.7 25.4c0 7.5 2.1 13.8 7.5 13.8 5.8 0 9.6-8.3 9.6-27.5 0-21.3-3.3-28.3-8.8-28.8-5.4-.4-8.3 4.6-7.9 14.2v28.3h-.4zm-196.8-43.4h3.8c4.2 0 5-4.6 5-10.4 0-.8.4-10.8-5-10.8h-3.8v21.2zm-3.7-25h7.5c5.8 0 9.2 5 9.2 14.2 0 10.4-2.5 14.2-9.2 14.6h-7.5v-28.8z"/></svg>
