<svg xmlns="http://www.w3.org/2000/svg" viewBox="0 126 792 360"><path d="M393.9 287.7h2.6c.4 0 .4.4.4.8v1.2l-5 8.3h-.4l-4.2-5.8c-.8-.8-.8-1.7-1.3-2.1-.4-.4-.4-.8-.4-1.3 0-.4 0-.8.4-.8h2.6v-12.5h-30.1V288h.8c1.7 0 2.5.4 3.3.8.8.4 1.3 1.3 2.1 2.5v.4s0 .4.4.4l5.8 9.2 8.3 12.9v7.9c0 1.3-.4 2.1-.8 2.5s-.8.4-1.7.4h-4.2v12.1h31.7V325H400c-.4 0-.8 0-1.3-.4-.4 0-.4-.8-.4-2.1v-8.3l10-18.8c.4-.8.4-1.7.8-2.5s.4-1.3.8-2.1.8-1.7 1.7-2.1c.4-.4 1.7-.4 2.5-.4h2.5V276h-22.9l.2 11.7zm60.9 34.1c-.8.8-1.7 1.3-2.5 1.7H446v-11.7h4.6c1.7 0 2.9.4 4.2 1.7.8.8 1.7 2.5 1.7 4.6-.5 1.7-.9 2.9-1.7 3.7m-9.2-33.3h2.1c2.1 0 3.8.4 5.4.8 1.7.4 2.1 2.1 2.1 4.6 0 1.3-.4 2.5-1.3 3.8-.8 1.3-2.5 1.7-4.6 1.7h-4.2v-10.8h.5zm17.5 16.7h-1.3v-.8h.4c3.3 0 6.3-1.3 8.8-3.8 2.5-2.5 4.2-5.4 4.2-10 0-6.3-2.5-12.1-6.7-14.2-4.2-2.1-8.8-1.3-13.8-1.3h-33.8v12.5h2.5c.8 0 1.7 0 2.1.4s.8 1.3.8 2.9v30c0 1.7-.4 2.9-.8 3.3s-1.3.4-2.1.4H421v12.1h23.8s15.8 0 22.1-.4c6.7-.8 10-7.9 10-16.3 0-3.8-1.3-7.5-3.3-10.4-2.2-3.2-5.5-4.4-10.5-4.4m53.4 3.7c0 4.2-.4 7.9-1.3 10.8s-2.9 4.2-5.8 4.2-5-1.3-5.8-4.2c-.8-2.9-1.3-6.3-1.3-10.8v-5.8c0-6.3.4-10 1.7-11.7 1.3-1.7 2.1-2.9 3.8-3.3h3.2c1.3.4 2.5 1.3 3.8 3.3 1.3 1.7 1.7 5.8 1.7 11.7v5.8zm20.8-14.2c-.4-1.7-1.3-3.3-2.1-5-.8-1.7-1.7-3.3-2.9-4.6-1.3-2.1-2.9-3.8-4.6-5s-3.3-2.5-5-3.3c-2.5-1.3-5-2.1-7.5-2.5-2.5-.4-4.6-.4-6.3-.4-1.7 0-3.8 0-6.3.4s-5 1.3-7.9 2.5c-1.7.8-3.3 2.1-4.6 3.3-1.7 1.3-2.9 2.9-4.6 4.6-1.3 1.7-2.1 2.9-2.9 4.6-.8 1.7-1.7 3.3-2.1 5-.4 2.1-1.3 3.8-1.3 5.8-.4 2.1-.4 3.8-.4 5.4s0 3.8.4 6.3.8 5.4 2.1 7.9c.4 1.3.8 2.5 1.7 3.8.4 1.3 1.3 2.5 2.1 3.8 2.5 3.3 5.8 6.3 9.6 7.9 3.8 1.7 7.9 2.5 12.1 2.9h3.3c4.2 0 8.3-1.3 12.1-2.9 3.8-1.7 7.1-4.2 9.6-7.9.8-1.3 1.7-2.5 2.1-3.8.4-1.3 1.3-2.5 1.7-3.8.8-2.9 1.7-5.4 2.1-7.9.4-2.5.4-4.6.4-6.3 0-1.7 0-3.8-.4-5.4.9-1.6.4-3.3-.4-5.4m36.3-19.5v12.5h2.6s.4.4.4.8v1.2l-4.6 7.5h-.8l-4.6-5.4c-.8-.8-.8-1.7-1.3-2.1s-.4-.8-.4-1.3 0-.8.4-.8h3v-12.5h-30v12.5h.8c1.7 0 2.5.4 3.3.8s1.3 1.3 1.7 2.5v.4s0 .4.4.4l14.6 22.1v7.9c0 1.3-.4 2.1-.8 2.5-.4.4-.8.4-1.7.4h-3.8v12.1h30.8v-12.1h-3.8c-.4 0-.8 0-1.3-.4-.4 0-.4-.8-.4-2.1v-8.8l10-18.3c.4-.8.8-1.7.8-2.5.4-.8.4-1.3.8-2.1s.8-1.7 1.7-2.1c.4-.4 1.7-.4 2.5-.4h2.5v-12.5h-22.9v-.2zm-239.3 32.1h-5.4l5-16.3h.4l4.6 16.3h-4.6zm29.2 16.2c-.4-.4-1.3-1.7-1.7-3.3v-.8l-12.5-44.2h-23.8l-5 16.3-8.3 25.8c0 .4 0 .4-.4.8 0 .4 0 .4-.4.8-.4.8-.8 1.7-1.7 2.5 0 .4-.4.4-.4.8-.8 1.3-2.1 1.7-3.8 1.7h-1.3V336h22.9v-12.1h-2.5s-.4 0-.8-.4c0 0-.4-.4-.4-.8v-1.3l.4-1.3h18.8l.4 2.1c0 .4 0 .8-.4.8h-3.8v12.1h28.8V323h-1.3c-1.1 1.8-2 1.3-2.8.5m-135.9-24.2c-.8.8-1.7 1.7-2.9 2.1-.4 0-1.3.4-2.1.4h-3v-13.3h1.7c2.5 0 4.2.4 5.4 2.1 1.3 1.3 1.7 2.5 1.7 4.6.4 1.6 0 3.3-.8 4.1m14.2-20c-5.4-2.5-11.3-3.8-17.9-4.2h-28.3v12.5h2.5c1.3 0 2.1 0 2.5.4.4.4.8 1.3.8 2.9v30c0 1.7-.4 2.5-.8 2.9-.4.4-1.3.8-2.5.8h-2.5v12.5h31.3V325h-3.3c-1.3 0-2.1-.4-2.5-.8-.4-.4-.4-1.3-.4-2.5V316h6.7c7.1 0 12.1-1.3 15.4-3.8 3.3-2.5 5.4-5.4 6.7-8.3.4-1.3.8-2.5.8-3.8 0-1.3.4-2.5.4-3.3-1-9.1-3.5-15-8.9-17.5m50.4 36.7c0 .4 0 1.3-.4 1.7-.4 2.5-1.3 3.8-2.1 4.2-.8.4-2.1.8-4.6.8h-8.8v-31.3c0-1.7 0-2.5.4-2.9s1.3-.4 2.1-.4h3.3v-12.5h-30.4v12.5h2.5c1.7 0 2.5.4 2.9.8.4.8.4 1.7.4 2.5v30c0 .8 0 1.7-.4 2.5-.4.4-1.3.8-2.5.8h-2.5v12.5h49.2l.4-22.5h-9.2c.1.1.1.9-.3 1.3"/></svg>
