<svg xmlns="http://www.w3.org/2000/svg" viewBox="0 126 792 360"><path d="M228 317.3c5.8-8.3 5-22.1-5-30.4-9.6-7.5-23.8-6.3-31.7 2.9-8.3 10-7.5 23.8 2.1 32.5 8.8 7.9 21.3 7.1 27.1 2.1l-12.1-12.1 7.5-7.5c4.2 4.1 7.9 8.3 12.1 12.5m-15.4-45.9c2.1.4 4.6.8 6.7 1.7 14.2 4.6 23.8 18.3 22.9 33.3-.4 6.3-2.1 11.7-5.4 17.1-.4.4-.4.8-.8 1.7 2.9 2.9 5.4 5.4 8.3 7.9-2.5 2.5-5 5-7.1 7.5l-7.9-7.9c-4.2 1.7-7.9 3.8-12.1 5-18.8 5-37.9-7.1-41.7-26.3 0-.8-.4-2.1-.4-2.9v-6.7c0-.4.4-.4.4-.8 2.1-12.9 8.8-21.7 20.8-27.1 2.5-1.3 5.8-1.7 8.8-2.5h7.5zm227.2 12.9v23.3h13c5.8-.4 10.4-5 10.4-10.8.4-6.3-3.3-11.3-9.2-12.1-4.6-1.2-9.2-.4-14.2-.4m21.6 31.3c5.8 5.8 11.7 11.3 17.5 17.1-2.5 2.9-5 5.4-7.1 7.5-5.8-5.8-11.7-11.3-17.5-17.1-1.7-1.7-2.9-3.8-5-4.6-2.1-.8-4.6-.4-7.1-.4h-2.5v18.8h-10.4v-63.4h.4c8.3 0 16.3-.4 24.6 0 9.6.4 17.9 8.8 19.6 17.9 1.7 9.6-2.5 18.3-10.8 23.3-.8.5-.8.5-1.7.9m-88.3-30c-3.8 9.6-7.5 19.2-11.3 28.3h22.1c-3.3-9.2-7.1-18.3-10.8-28.3m-31.3 51.2c2.1-5.8 4.2-11.3 6.7-16.7 5.8-15 11.7-30.4 17.5-45.4.4-1.3 1.3-1.7 2.5-1.7h10c.8 0 1.3 0 1.7 1.3 7.9 20.4 15.8 41.3 23.8 61.7v.8h-10.8c-.4 0-.8-.8-.8-1.3-1.3-3.3-2.5-6.3-3.8-9.6-.4-.8-.8-1.3-2.1-1.3h-27.9c-.8 0-1.7.4-1.7 1.3-1.3 3.3-2.5 6.3-3.8 9.6 0 .4-.8 1.3-1.3 1.3h-10m261.8-52.9h-33.8v-10.4h47.1v10.4c0 .4-.4.8-.8 1.3-10.8 13.3-21.7 26.7-32.5 40-.4.4-.4.4-.8 1.3H617v10.4h-47.5v-10.4c0-.4.4-.8.8-1.3 10.8-12.9 21.3-26.3 32.1-39.2-.1-.8.4-1.3 1.2-2.1m-294.3-10.4h10.4v40c0 11.7-7.9 21.7-19.6 24.6-14.2 3.3-28.8-7.1-30.4-21.7 0-1.7-.4-2.9-.4-4.6v-38.4h10.4v40c0 7.9 5.4 14.2 13.3 14.6 6.7.8 13.3-4.6 15-11.7.4-1.3.4-2.5.4-3.3v-39.6h.9zm188.4 0v10.4h19.6v52.5h10.8v-52.5h18.4v-10.4"/></svg>
