<svg xmlns="http://www.w3.org/2000/svg" viewBox="0 126 792 360"><path d="M199.7 357.3c-.4-4.2 7.9-34.2 9.2-40 1.7-5.8 5.4-22.1 5.8-24.6.4-2.5 2.5-2.9 2.5-5.8 0-.8 2.9-4.6 10.4-1.7 4.2 1.7 4.2 1.3 4.6 5 0 0 9.6-5 13.8-6.3 4.2-.8 9.2-.8 12.5 1.7 3.3 2.5 10.4 4.6 7.9 9.6-2.1 3.8-5.8 9.6-10.4 5.4-9.2-9.2-14.6-1.3-22.5 7.1-2.1 2.1-4.6 3.8-13.3 28.8-2.5 7.1-4.6 14.2-4.6 15.4-.4 2.9-.4 7.9-5.4 9.2-.9.8-10.5-.1-10.5-3.8m391-29.6c-2.1-2.1-7.1-1.7-7.1 4.2 0 8.8-5.4 12.9-11.3 16.7-5 2.9-12.9 2.1-17.1-2.9-5.4-7.1 2.5-30.4 3.3-31.7 2.1-3.8 20.4-32.1 22.1-35.4 7.9-15.8 8.8-24.2 6.7-27.5-1.7-2.9-5.8-3.3-10.8-.8-5.4 2.5-20.8 22.9-24.2 30.8-1.7 4.2-7.1 15-10 25-10.4-15.4-24.6-8.3-27.1-5.4-5.8 1.7-13.8 18.3-17.1 27.5-3.3 9.2-16.3 20.8-25.4 20.8-7.9 0-10-3.8-11.3-5.4 2.5-2.5 18.3-16.3 24.6-22.9 5.8-7.1 5.4-14.6 4.6-16.7-.8-3.3-3.8-6.7-13.3-6.7-12.9 0-18.3 4.2-27.9 15.8-8.8 10.4-5.4 28.8-5.4 31.3s-6.7 3.8-8.8 3.8c-12.9 0-18.3-12.1-20.4-17.5-1.7-5 .8-9.2 2.5-10.8 3.8-3.3 15-14.2 17.1-16.3 4.2-3.8 7.1-8.8 10-11.7 5.4-5-3.8-11.7-7.5-7.9-4.2 4.2-25 25-28.8 29.2.4-7.9 11.3-27.1 12.1-30 2.9-8.8 11.7-16.7 10.4-25.8-.8-9.2-12.5-10-14.2-7.1-12.1 22.1-20.8 42.9-22.5 46.7-1.7 3.8-9.2 22.9-9.2 25.8-.4 8.8-11.7 14.6-22.1 21.3-1.3.8-8.8 4.2-13.3 4.2-7.9 0-10-4.6-10-17.9 0-10.4 10-21.3 15.4-21.3 2.5 0 3.8 1.7 5 3.8.4 1.7 2.1 3.8 3.8 3.8 2.1 0 6.3-5 6.3-6.7 0-5-9.6-12.1-15-12.1-11.7 0-18.3 9.6-22.5 17.1-3.3 6.3-4.2 10.4-7.1 13.8-2.5 3.3-11.3 20.8-16.3 20.8-3.8 0-4.2-6.3-4.2-8.8 2.5-13.3 7.1-21.3 11.3-34.2 1.7-5 2.5-9.2-4.6-11.3-5.8-2.1-7.5 3.8-9.2 8.3-2.1-5-5.4-7.5-10.4-7.5-5.4 0-12.9 3.3-15 5-1.7.8-7.1 5-11.3 11.7-1.7 2.9-10.8 16.3-10.8 29.6 0 10 9.2 17.9 20 17.9 5.8 0 12.9-4.6 15.8-9.2 2.1 5 6.3 9.2 13.3 9.2 7.9 0 10-3.3 12.5-5.4 3.3-2.9 7.5-9.2 10-14.6.8 4.2 2.5 19.2 19.6 19.2 5.4 0 10.4-2.1 15-4.2 8.3-3.8 15-9.6 17.1-9.6 0 0-3.3 10-2.1 14.6.8 2.5 2.1 5 4.2 5.4 2.5.4 13.3.8 13.3-3.8s2.9-11.7 5.4-16.7c2.1-4.6 3.8-10.8 4.6-13.3 2.1 7.1 10.8 20.8 20 26.3 1.3.8 4.6 2.1 12.1 2.1 5.8 0 11.7-5 13.8-7.1 0 0 2.5 2.1 4.6 3.3 2.9 2.1 11.3 4.2 16.3 4.2 11.3 0 24.6-12.9 26.3-15.8.4 2.1 2.5 8.3 7.5 12.5 5.4 4.2 13.8 4.6 18.3 1.7 5.8-3.3 13.3-13.3 15-16.7 2.5 7.5 13.3 17.1 29.6 17.1 15.8 0 24.2-18.3 24.2-22.5 1.2-6 .4-8.5-.4-9.3zm-299.3 8.7c-1.3 2.5-9.2 12.9-13.8 12.9-5 0-6.7-7.9-3.8-16.7 4.6-14.2 14.2-27.5 20.4-27.5 6.3.5-1.6 28.4-2.8 31.3zm169.2-18.3c2.9-5.4 10-12.1 13.8-13.3 4.2-1.3 10 1.7 5 8.3-5.4 7.5-17.5 19.6-20.8 20.8-1.7-6.2-.1-12.5 2-15.8zm56.7 28.8c-4.6 0-6.3-5.4-6.3-9.6 0-12.5 13.3-31.7 18.3-31.7 6.7 0 7.9 3.8 7.9 14.2.1 9.5-14.9 27.1-19.9 27.1"/></svg>
