<svg xmlns="http://www.w3.org/2000/svg" viewBox="0 126 792 360"><path d="M331.8 265.6c0 36.3 29.2 63.4 62.9 64.2 35 .8 65.4-27.1 65.4-63.8.4-35.8-28.8-64.6-64.2-64.6-35.3 0-64.1 28.7-64.1 64.2m62.9-72.6c40.9-.4 72.9 32.1 73.8 71.3.8 41.3-32.5 73.8-72.1 74.2-39.2.4-72.9-30.8-73.8-71.3-.4-41.2 32.5-73.7 72.1-74.2m-46.2 184.7h4.6c.8 0 1.3.4 1.7 1.3 7.1 7.9 13.8 15.8 20.4 24.2l1.7 1.7v-26.7h7.9v41.3h-5c-.4 0-.8-.4-1.3-1.3-7.1-8.3-14.2-16.3-20.8-24.6l-1.3-1.3V419h-7.9v-41.3zm92.9 7.1v8c0 .4.8.8.8.8h7.1c2.5-.4 4.2-2.1 3.8-4.6 0-2.5-1.7-4.2-4.2-4.2h-7.5m0 16.2v18h-7.9v-41.3h16.6c5.8 0 10 3.8 11.3 9.2 1.3 5.8-1.3 10.4-6.7 13.3 0 0-.4 0-.4.4 5 6.3 10 12.5 15.4 18.8h-9.6c-.4 0-.8-.4-1.3-.8-4.2-5.4-8.3-10.4-12.5-15.8-1.9-1.8-3.2-2.2-4.9-1.8m-214.6-7.5h8.3c2.1 0 3.3-2.1 3.3-3.8 0-2.1-1.3-4.2-2.9-4.2-2.9-.4-5.8-.4-8.8-.4v8.4zm-8-16.2c6.3 0 12.5 0 18.8.8 5 .4 8.3 4.6 9.2 9.2.4 5.4-1.7 10-6.7 12.1-.4 0-.4.4-.8.4 5 6.3 10 12.5 15.4 18.8h-9.6c-.4 0-.8-.4-1.3-.8-4.2-5-8.3-10.4-12.5-15.4-1.3-1.3-2.1-2.1-4.2-1.7v17.9h-7.9v-41.3h-.4zm178.9.4V419h25v-7.1h-17.1v-11.7h12.5v-7.1h-12.5v-8.3h16.7v-7.1m-162.6 0V419h25.4v-7.1h-17.5v-11.3h12.5v-7.1h-12.5v-8.7h17.1v-7.1m273.5 20.8c4.2 0 7.5-3.3 7.5-7.5s-3.3-7.5-7.5-7.5-7.5 3.3-7.5 7.5c-.1 4.2 3.3 7.5 7.5 7.5m0 7.1c-3.3 0-6.3-.8-9.2-2.9-4.6-3.3-7.1-9.6-5.4-15.4 1.3-5.8 6.3-10.4 12.1-11.3 8.3-1.3 16.3 3.8 17.5 12.1.4 3.3 0 6.7-1.7 9.6-3.8 6.7-7.5 13.3-11.7 20 0 .4-.8.8-.8.8h-8.3c2.4-4.1 5-8.3 7.5-12.9m-35.5 6.3h14.6v7.1h-30.4c.4-.4.8-.8.8-1.3 5.4-6.7 10.8-12.9 15.8-19.6 1.7-2.1 3.3-4.6 3.8-7.5.4-3.8-1.3-6.7-4.6-7.1-2.9-.8-5.8 1.7-6.7 5v.4h-7.5c0-5.8 4.6-11.7 10.8-12.5 5.8-.8 10.4.8 13.8 5.4 3.3 5 3.3 10.4.4 15.4-2.1 4.2-5.4 7.5-8.3 10.8-.4 1.4-1.2 2.2-2.5 3.9m-227.2-34.2V419h8.4v-18.4h12.5v-7.5h-12.5v-8.3h16.7v-7.1m165 14.6c2.9-4.6 5.4-8.8 8.3-13.3.4-.8 1.3-1.3 2.5-1.3h7.5c-2.1 2.9-3.8 5.8-5.4 8.8-2.5 4.2-5.4 8.8-7.9 12.9-.4.8-.8 1.7-.8 2.5v17.5h-7.9v-15.8c0-1.7-.4-3.3-1.3-5-3.8-6.3-7.9-12.1-11.7-18.3-.4-.4-.8-1.3-1.3-2.1h8.3c.4 0 .8.8 1.3 1.3 2.6 3.6 5.5 8.2 8.4 12.8m-156.7-14.6h7.9V419h-7.9z"/><path d="M425.2 246c-5.8 0-10 4.2-9.6 10 0 5.8 4.2 10 9.6 10 5.4 0 9.6-4.2 9.6-10.4 0-5.5-4.2-9.6-9.6-9.6m-27.5 30c4.6 6.3 9.2 12.1 14.2 17.9 4.6-6.3 9.2-12.5 13.8-19.2-6.3 0-11.3-2.1-15.4-7.1-3.5 4.6-7.6 6.7-12.6 8.4m28.7 37.5H416c-.8 0-1.7-.8-2.1-1.3-8.3-10.8-16.7-21.7-25-32.9-.8-1.3-1.7-1.7-2.9-1.7h-5c-.4 0-1.3.4-1.7.8-3.3 4.6-6.3 9.2-9.6 13.8v.4h22.5v8.8h-38.8c5.4-7.9 10.8-15.4 16.3-23.8h-9.2v-8.8h13.3c1.3 0 1.7-.4 2.5-1.3 2.1-3.3 4.2-6.3 6.3-9.6 1.3-2.1 1.7-5 .8-7.5-.8-3.8-3.8-5.4-8.3-5-3.8.4-6.3 2.5-6.7 6.3v1.3h-9.2c0-2.9.8-5.8 2.5-8.3 6.3-10 20-9.6 26.3-4.6 5 4.2 7.1 11.7 4.2 17.9-1.3 2.9-3.3 5.8-5 8.3-.4.4-.8.8-1.3 2.1 2.5-.4 4.6-.4 6.7-.8 9.6-2.1 15-9.2 14.2-19.2 0-2.5-.4-5-1.3-7.5-2.5-6.7-7.9-10-14.6-11.3-2.1-.4-4.2-.4-6.3-.4H361v-8.8h25.9c7.1 0 13.3 1.3 19.2 5.4 4.2 2.9 6.7 6.7 8.3 11.3 0 .4.4.8.4 1.3 2.5-.8 5-1.7 7.5-2.1 7.1-1.3 13.8.8 18.3 6.7 5 6.3 5.4 12.9 2.1 20-1.3 3.3-3.3 6.3-5.4 9.2-6.3 9.2-12.5 17.9-18.8 27.1-.8.8-.4 1.3 0 2.1 2.5 3.3 5 6.7 7.5 9.6 0 1.7 0 2.1.4 2.5"/></svg>
