<svg xmlns="http://www.w3.org/2000/svg" viewBox="0 126 792 360"><path d="M233.4 344.3c5-4.6 9.6-8.8 14.6-13.3 2.1 2.5 3.8 5 5.8 7.1 10 10.4 30.8 13.8 43.8 6.7 2.9-1.7 5.8-4.6 7.9-7.5 3.3-5.4 1.7-12.1-3.8-15.4-3.8-2.1-7.5-3.8-11.7-5-10.8-2.9-21.7-5-32.1-8.8-12.9-4.6-20-15.4-19.6-27.5.4-10 5-18.3 13.3-24.6 12.1-8.8 25.4-10 39.6-7.5 10.8 1.7 20.4 6.3 28.8 13.8 1.7 1.3 3.3 2.5 5.4 3.8-5.4 5-10 9.2-14.2 12.9-2.1-2.1-3.8-4.6-5.8-6.3-10.4-9.2-22.1-12.1-34.6-8.3-2.9.8-6.3 2.9-8.8 5-7.1 6.3-6.3 15.4 2.1 19.6 4.6 2.5 10 3.8 15 5 7.1 2.1 14.6 3.3 21.7 5 3.8.8 7.1 2.5 10.4 3.8 21.3 10.4 19.2 43.4 0 54.6-7.1 4.2-14.6 6.3-22.5 7.1-2.1.4-4.2.4-6.3.8h-3.8c-5.8-.8-11.3-1.3-17.1-2.5-11.3-2.5-20.8-8.8-28.3-17.5l.2-1zm177.2-22c-2.5.4-4.6 1.3-6.7 1.7-6.7 1.7-13.3 2.9-19.6 5-4.6 1.7-7.1 5.8-6.7 10 .4 4.2 3.3 7.5 8.3 8.8 15.9 4.5 28.9-8.9 24.7-25.5m-49.2-18.4c0-10.8 6.3-19.6 17.1-22.9 11.7-3.8 23.8-3.3 35.4 0 10.8 2.9 15.8 10.4 16.3 22.1 0 14.6 0 29.2.4 43.8 0 5 1.3 10.4 2.1 15.8h-17.9c-.8 0-1.7-1.3-2.1-2.1-.4-1.3-.4-2.9-.8-5-.4.4-1.3.4-1.3.4-10.4 9.2-22.5 10.4-35 7.5-10.4-2.5-16.7-11.3-17.1-22.5-.4-12.5 4.6-20.8 15.8-24.2 7.9-2.5 16.3-3.3 24.6-5.4 3.8-.8 7.1-1.7 10.8-2.9 1.3-.4 2.1-2.1 2.1-3.3 0-6.7-3.3-10.8-10.8-11.7-4.2-.4-8.8 0-13.3.4-4.2.8-7.1 3.3-8.3 7.5-.4.8-1.3 2.1-2.1 2.5h-15.9m177.2 5.9c0-8.8-7.1-15.4-17.1-15.4-10.4-.4-20 7.1-20 15.4h37.1zm18.7 26.6c-1.3 7.9-4.6 14.2-10.4 19.2-11.3 10-30 11.7-44.2 4.2-25.4-13.3-30-52.9-8.8-72.1 11.7-10.4 25.8-12.1 40-7.1s20.8 16.3 22.9 30.8c.4 3.8.8 7.5.8 12.1H503c-3.3 0-4.2.8-3.8 4.2 2.1 14.6 14.2 23.3 27.9 20 5-1.3 8.8-4.2 10.8-9.2.8-2.1 1.7-2.5 3.8-2.5 5.6.4 10.6.4 15.6.4m-92.9-80v25h17.9v11.3c0 .8-1.7 1.7-2.9 1.7h-15v43.8c0 6.7 1.7 8.8 8.3 9.2 2.5.4 3.8.8 3.3 3.8-.4 3.8 0 7.5 0 11.3 0 .8-1.3 2.5-2.1 2.5-6.3 0-12.1 0-17.9-2.5-5.8-2.9-9.2-7.5-9.2-13.8-.4-15 0-29.6-.4-44.6 0-9.2 0-9.2-8.8-9.2-2.5 0-3.3-.4-3.3-3.3-.4-9.2-.4-9.6 8.8-9.6 2.9 0 3.8-.8 3.3-3.8-.4-3.3.8-5.4 3.3-7.9 5.1-4.3 9.7-8.9 14.7-13.9m-130.9 0h15.8c.4 0 1.3.8 1.7 1.7s0 1.7 0 2.5v101.3h-17.5V256.4z"/></svg>
