<svg xmlns="http://www.w3.org/2000/svg" viewBox="0 126 792 360"><path d="M161.7 318.1h-7.9c5 28.3 27.1 50.9 55.4 55.9v-8c-24.1-4.6-42.9-23.7-47.5-47.9m47.6-72.5v-7.9c-27.9 5.4-50 27.1-55.4 55h7.9c4.9-23.4 23.7-42.1 47.5-47.1m25.4 120.8v7.9c17.5-3.3 32.5-12.9 42.9-26.7h-10c-8.7 9.3-20 16.3-32.9 18.8M268 265.1h9.6c-10.4-13.8-25.4-23.8-43.4-27.1v7.9c13.4 2.6 25.1 9.2 33.8 19.2m-18.3 10.1h-55.5v14.1h19.2v50h16.7v-50h19.6m44.2 9.2h-22.1v-23.3h-17.1v64.1h17.1v-26.2h22.1v26.2h16.6v-64.1h-16.6m56.7 27.9h-14.2v-14.6h13.3c4.6 0 8.3 2.1 8.3 7.1.5 4.6-2.4 7.5-7.4 7.5m14.6 6.2c6.7-2.9 10-9.6 10-16.3 0-12.9-11.3-18.3-22.5-18.3h-32.9v64.6h16.7V316h12.9c7.9 0 8.8 6.7 9.6 13.3 0 1.7.4 7.9 2.1 10.4h16.7c-2.1-2.5-2.5-11.7-2.5-14.6-1.4-6.2-3.5-14.1-10.1-15.8m19.1-34.1H401v64.6h-16.7zm44.6 0h-17.1v64.1h47.1v-14.1h-30m52.6-50h-16.7v64.1h46.7v-14.1h-30m35.8-50H534v64.6h-16.7zm60 25.4c-9.6-2.5-18.8-3.3-18.8-8.3 0-4.2 4.6-5.4 7.9-5.4 5 0 10.8 2.1 10.4 7.9h16.7c0-14.6-12.9-20.8-25.8-20.8-12.1 0-26.3 5.4-26.3 19.6 0 11.7 9.6 15.8 18.8 18.8 9.2 2.5 18.3 3.8 18.3 9.6 0 4.6-5.4 6.7-10.4 6.7-7.1 0-11.7-2.5-12.1-10h-16.7c0 16.7 13.3 22.9 27.9 22.9 14.2 0 27.9-5.4 27.9-21.7 1-12.2-8.6-16.8-17.8-19.3m21.3-25.4v14.1h19.2v50h16.6v-50h19.2v-14.1M218 223h7.5v35.4H218zm-79.6 78.8h35.4v7.5h-35.4zm79.6 51.7h7.5v35.4H218z"/></svg>
