<svg xmlns="http://www.w3.org/2000/svg" viewBox="0 126 792 360"><path d="M475.6 346.4c-2.5 1.7-4.6 3.3-7.1 5.4h11.3c-1.7-2-2.9-3.7-4.2-5.4m-18.7-6.2c.8 2.1 3.3 4.2 5 4.6 5 1.3 10-1.7 11.7-7.1.8-2.9.8-6.3 1.3-9.6-5.4 2.1-10.4 3.8-15 5.4-2.6 1.3-4.3 4.2-3 6.7m-163-17.9c-.4 6.3-.4 12.5 0 18.8 0 1.3 2.1 2.5 3.3 3.3.8.4 2.1.4 3.8.4v7.1h5.8c0-2.5.4-4.6.4-7.5 5.8 1.3 6.7-2.1 6.7-5.8 0-5.8 0-11.7-.4-17.5-.4-7.1-5-10.4-12.1-8.3-4.6 1.1-7.1 4.9-7.5 9.5m-53.8 24.1c-2.5 2.1-4.6 3.3-7.5 5.4h7.5v-5.4m358.1-39.6l-.4-.4v-.8.8l.4.4m-.9-2.1c-.4 0-.8-.4-1.3-.4.5 0 .9 0 1.3.4m-1.2-.4c-.8 0-.8.4-.8 2.5 0-2.1 0-2.5.8-2.5m13.3 47.6v-92.1H182.6v92.5h28.8c-7.1-4.2-7.9-10.8-7.9-17.9v-16.7c0-5.8 0-5.8-5.8-5.8h-2.1V304h23.8v30c0 6.7 2.5 10 6.7 10.4 6.3.8 12.1-2.9 12.9-8.8.8-6.7.4-13.3.4-20 0-2.5-1.3-3.3-3.8-2.9h-5v-7.9h25v35c0 4.2 1.3 6.3 5.8 5.8h2.5v6.3h3.8c0-2.5.4-4.6.4-7.1.4-.4.4-.4.8-.4 7.5-.4 8.3 1.3 8.3-8.8v-18.3c0-4.2-.8-6.3-5.4-5.8-1.3 0-2.1 0-3.3-.4v-7.9c1.7 0 2.9-.4 4.2-.4h20.4c.4 2.1.4 3.8.8 5.8 7.1-6.7 15-7.9 23.3-6.7 8.3 1.3 12.5 6.3 12.9 14.6v19.6c0 7.5 0 7.5 7.9 7.9v7.9h13.3c-6.7-3.8-11.7-8.3-13.8-15.8-2.9-11.7.8-23.8 10-30 9.6-6.3 25.4-6.3 33.8.4 2.5 2.1 4.6 5 5.8 7.9 2.9 7.9-2.9 14.6-10.8 12.5-2.5-.4-5-3.3-6.3-5.4-1.3-2.9.4-5.8 3.3-7.5.8-.4 1.3-.8 2.1-1.3-6.7-5.4-16.7-3.3-20 4.6-2.9 6.7-2.9 13.8 0 20.4 2.5 5.8 6.7 8.3 13.3 7.9 5.4-.4 7.9-2.5 9.6-9.2.4-.8.8-1.7.8-2.9h8.3c.4 7.9-3.8 13.3-9.6 18.3h11.3v-6.7c.8-.4.8-.8 1.3-.8 8.3-.4 8.3-.4 8.3-9.2V318c0-6.3 0-6.7-6.7-6.7h-2.5V303c1.3 0 2.5-.4 3.8-.4h20.8c0 2.1.4 3.3.4 5l1.3 1.3c.4-.8.8-2.1 1.3-2.9 4.2-5 10-6.3 15.8-4.2 4.6 2.1 7.1 7.1 5.8 12.1-1.3 4.6-4.6 6.7-9.6 5.8-5-.4-6.7-3.8-5.4-11.7-5 1.7-7.9 5-8.3 9.6-.8 7.5-.8 15-.8 22.9 0 1.3 2.1 2.5 3.3 2.9 2.1.4 4.2.4 6.7.4 0 2.5.4 4.6.4 7.5h20c-1.3-1.7-2.9-2.9-4.2-4.6-4.2-7.1-1.3-16.3 7.1-18.8 5-1.7 10.4-2.5 15.4-3.8 2.1-.4 5-.8 6.3-2.1 1.7-1.7 3.8-4.2 3.8-6.3 0-2.1-1.7-5.4-3.8-6.3-5-2.5-10.8-2.1-16.7 0 3.8 3.3 4.6 6.7 2.1 10s-5.8 3.3-9.2 2.1c-4.6-1.7-6.3-8.3-2.5-12.1 2.5-2.5 5.4-4.6 8.8-5.8 8.8-2.9 17.5-2.9 26.3-.8 7.9 1.7 11.3 6.7 11.3 15v20c0 1.3 0 2.5.4 3.8.4.8 1.7 1.7 2.5 2.5.8-.8 2.1-1.7 2.1-2.9.4-2.5.4-5 .8-7.5h5.4c1.7 6.7.8 10.8-3.3 17.9h13.8c-5.8-5-6.7-11.3-6.7-17.9.4-7.5 0-15 0-22.5-2.9 0-5.4-.4-7.9-.4-1.7-7.1-1.3-7.5 5-9.2 5.8-1.7 8.3-6.3 9.6-11.7.4-1.7.4-3.3.8-5.4h8.8v17.9h15.8v8.3h-15.4v28.8c0 1.7 2.5 4.2 3.3 4.2 1.7 0 4.2-1.7 5-3.3 1.3-2.9 1.3-6.3 1.7-9.6h7.1c.4 7.9 1.3 15.4-7.1 20.8h25c-15-9.6-19.6-22.1-13.3-35.4 5.4-11.7 19.2-17.9 33.3-14.2 12.1 2.9 19.2 13.3 17.9 27.1H558c-1.7 5.8 1.7 12.9 6.7 15 5.8 2.5 12.9.8 16.3-4.2 4.6-6.3 4.6-6.3 12.9-5.4-.8 7.9-5.8 12.1-12.1 16.7h27.5v.7zm-39.6-42.1c-6.7 0-10 3.8-10.8 11.7h20.8c-.8-8.4-3.7-11.7-10-11.7"/></svg>
