<svg xmlns="http://www.w3.org/2000/svg" viewBox="0 126 792 360"><path d="M337.6 306c0 44.6-35.8 80.5-79.6 80.5-44.2 0-79.6-36.3-79.6-80.5s35.8-80.5 79.6-80.5 79.6 35.9 79.6 80.5m20.9-25v-34.2h15.4v30c0 5.8.4 11.7 8.3 11.7s8.3-5.8 8.3-11.7v-30H406V281c0 13.3-8.3 20.4-23.3 20.4-16.3 0-24.2-7.1-24.2-20.4m51.3 12.9l7.5-10.4c2.9 3.3 7.1 6.3 12.5 6.3 3.8 0 6.3-1.7 6.3-5 0-3.8-3.3-5-9.2-6.7-7.9-2.5-14.6-6.3-14.6-15.8 0-10 8.3-17.1 20-17.1 7.9 0 14.2 2.5 17.9 6.3l-7.1 10.4c-2.1-2.5-5.8-4.6-10.4-4.6-3.8 0-5.4 1.7-5.4 3.8 0 3.3 4.2 4.2 8.3 5.8 8.8 2.9 15.4 6.7 15.4 16.7 0 10.4-7.5 17.9-20.4 17.9-10-.1-17.5-4.3-20.8-7.6m75.8-13.3l-4.2-12.9c-.8-2.5-1.7-5.8-1.7-7.9h-.4c-.4 2.5-.8 5.4-1.7 7.9l-4.2 12.9h12.2zm-14.2-33.8h16.7l19.6 53.8h-15.8l-2.5-7.9h-20l-2.5 7.9h-15.4l19.9-53.8zm-99.6 76.7h-12.9V311h41.3v12.5h-13v41.7h-15.4m72.1-27.1c0-9.6-6.3-14.6-13.8-14.6-7.1 0-13.3 5-13.3 14.6s6.3 14.6 13.3 14.6c7.6 0 13.8-5 13.8-14.6m-42.5 0c0-13.3 9.6-27.9 29.2-27.9 20 0 29.2 14.6 29.2 27.9 0 13.3-9.6 27.9-29.2 27.9-20 0-29.2-14.6-29.2-27.9m79.2 14.6h3.3c9.6 0 15-4.6 15-14.6 0-9.6-5.4-14.6-15-14.6h-3.3v29.2zM465.2 311h19.6c18.8 0 29.6 10 29.6 27.1 0 16.7-11.3 27.1-29.6 27.1h-19.6V311zm81.3 34.2l-4.2-12.9c-.8-2.5-1.7-5.8-1.7-7.9h-.4c-.4 2.5-.8 5.4-1.7 7.9l-4.2 12.9h12.2zM531.9 311h16.7l19.6 53.8h-15.8l-2.5-7.9h-20l-2.5 7.9H512l19.9-53.8zm46.3 35l-20-34.6h16.7l7.1 13.3c1.7 2.9 3.8 7.1 4.2 10h.4c.4-2.9 2.5-7.1 4.2-10l7.1-13.3H614L594 346v19.2h-16.3V346h.5z"/></svg>
