<svg xmlns="http://www.w3.org/2000/svg" viewBox="0 126 792 360"><path d="M614.8 270.6c-.4.4-1.7 0-2.5 0-2.1 0-2.1 0-2.1 2.1v8.8c0 .4 0 .8-.8.8h-3.3c-.4 0-.8 0-.8-.8v-9.6c0-.8 0-.8-.8-.8h-3.3c-.4 0-.8 0-.4-.4 0-.8-.4-2.1 0-2.9.4-.4 1.7 0 2.9 0h10.5c.4 0 .8 0 .8.8-.2.3.3 1.6-.2 2m-19.1 11.6c-.4 0-.4-.4-.8-.4-.8-1.3-1.3-2.5-2.1-3.8-.4-.4-.4-.8-.8-.4h-1.7c-.4 0-.8 0-.8.8v3.8c0 .4 0 .8-.8.8h-3.3c-.4 0-.8 0-.8-.8v-13.8c0-.4 0-.4.4-.4 3.3 0 7.1-.4 10.4 0 2.1.4 3.3 1.7 3.8 4.2 0 1.3 0 2.5-.8 3.3-.4.4-.4.8-1.3 1.3s-.4.4-.4.8c.8 1.7 2.1 3.3 2.9 5.4-.6-.8-2.3-.8-3.9-.8m-12.5-4.5c-.4 2.5-2.1 3.8-4.2 4.6-2.5.8-4.6.8-7.1 0-2.1-.8-3.8-2.1-4.2-4.2-.4-1.7-.4-3.8 0-5.4.8-2.9 2.9-5 6.3-5h1.7c1.3 0 2.1 0 3.3.4 2.5.8 3.8 2.1 4.6 4.6 0 1.2 0 2.9-.4 5m-16.7-3.8c-.4 2.1-1.7 3.3-3.8 3.8-1.7.4-3.3 0-5 0-.8 0-1.3.4-1.3 1.3v2.9c0 .4 0 .8-.8.8h-3.3c-.4 0-.8 0-.8-.8v-13.3c0-.8 0-.8.8-.8h9.6c2.1.4 3.8 1.7 3.8 4.2.8.2.8 1.1.8 1.9m-16.3 7.5c0 .4 0 .8-.8.8h-11.3c-.4 0-.8 0-.8-.8V268c0-.4 0-.8.8-.8h11.3c.8 0 .8 0 .8.8v2.1s-.4.8-.8.8h-6.3c-.8 0-.8.4-.8.8v.4c0 .8.4.8.8.8h6.3c.4 0 .8 0 .8.8v2.1c0 .4 0 .8-.8.8h-6.7c-.4 0-.8 0-.8.8 0 1.3 0 1.3 1.3 1.3h6.3c.4 0 .8 0 .8.8-.1.7-.1 1.5-.1 1.9m-18.7.8c-.4 0-.4-.4-.8-.4-.8-1.3-1.3-2.5-2.1-3.8 0-.4-.4-.4-.8-.4-.8 0-1.7-.4-2.5 0-.4.4 0 1.7 0 2.5v1.7s0 .8-.8.8h-2.9c-.4 0-.8 0-.8-.8V268c0-.4 0-.8.8-.8h8.8c.8 0 1.3 0 2.1.4 1.7.4 2.9 1.7 2.9 3.3.4 1.3 0 2.9-.4 4.2l-1.3 1.3c-.8.4-.4.8-.4 1.3.8 1.7 2.1 3.3 2.9 5-1.8-.5-3.1-.5-4.7-.5m-18.4-4.5c-.4 2.5-2.1 4.2-4.6 4.6-2.9.4-6.3 0-9.2 0-.4 0-.4-.4-.4-.8v-13.8c0-.4 0-.8.4-.4h9.2c2.9.4 4.6 1.7 4.6 5 .4 1.6.4 3.7 0 5.4m-15.8 4.1c0 .4 0 .4-.4.4h-10.8c-.4 0-.4-.4-.4-.8V268c0-.4 0-.8.8-.8h3.3c.8 0 .8.4.8.8v9.6c0 .8 0 .8.8.8h5.4c.8 0 .8 0 .8.8-.3 1-.3 1.8-.3 2.6m-17.9.4c-.4 0-.4-.4-.8-.4-.8-1.3-1.3-2.5-2.1-3.8-.4-.4-.4-.8-.8-.4-.8 0-1.7-.4-2.1 0-.4.4 0 1.3 0 2.1v2.1c0 .4 0 .4-.4.4h-3.3c-.4 0-.8 0-.8-.8v-13.8c0-.4 0-.4.4-.4 3.3 0 7.1-.4 10.4 0 2.1.4 3.3 1.3 3.3 3.3.4 1.7 0 2.9-.8 4.2-.4.4-.4.8-.8.8-.8.4-.4.4-.4 1.3.8 1.7 2.1 3.3 2.9 5.4h-4.7m-12.5-4.5c-.4 2.1-2.1 3.3-4.2 4.2-2.5.8-4.6.8-7.1 0-2.1-.8-3.3-2.1-4.2-4.2-.4-2.1-.4-3.8 0-5.8.8-2.9 2.9-4.6 6.3-5h1.7c.8 0 2.1 0 2.9.4 2.9.8 4.6 2.5 5 5.4 0 1.6 0 3.3-.4 5m-20 4.5c-.8.4-1.7 0-2.5 0-2.5 0-2.5 0-2.9-2.1-.4-2.1-1.3-4.2-1.7-6.7-.8 2.9-1.3 5.4-2.1 7.9 0 .4-.4.8-1.3.8h-3.8c-.4 0-.8 0-.8-.4-1.3-4.6-2.5-9.2-4.2-14.2v-.4h4.6c.4 0 .4.4.4.4.4 2.5 1.3 5.4 2.1 7.9 0 .4 0 .4.4.8.8-2.9 1.3-5.8 2.1-8.3 0-.8.4-.8.8-.8h3.3c.4 0 .8 0 .8.8.8 2.9 1.3 5.4 2.1 8.3.4-1.7.8-3.3 1.3-4.6.4-1.3.4-2.5.8-3.8 0-.4 0-.4.4-.4h3.3c.4 0 .4.4.4.8-1.3 3.8-2.1 7.9-3.3 11.7.6.7.6 1.5-.2 2.3m-28 0c-.8 0-1.7 0-2.1-.4h-.8c-2.5.8-5.4.8-7.9 0-1.3-.4-2.1-1.3-2.1-2.5-.4-1.3 0-2.5 1.3-3.3.4-.4.8-.8 1.7-.8.4 0 .4-.4.4-.8-.4-.8-.8-1.7-.8-2.9 0-1.7.8-2.9 2.1-3.8 1.7-.8 3.3-.8 5-.4 2.5.8 3.3 3.3 1.7 5.8-.4.8-1.3 1.7-2.5 2.1.8.4 1.3 1.3 2.1 1.7.4.4.4.4.8 0v-.4c.4-.4 0-1.3.4-1.3.4-.4 1.3 0 1.7 0h1.3c1.7 0 1.3-.4 1.3 1.3 0 .8-.8 2.1-1.3 2.9-.4.4-.4.4 0 .8.8.4 1.7 1.3 2.5 2.1-2.3-.1-3.5-.1-4.8-.1M629.8 251c-.4-.4-1.7 0-2.1 0H163.3c-.8 0-1.3 0-1.3 1.3v90.5c0 .8.4.8.8.8h32.6c-.4-.4-.4-.4-.8-.4-4.2-1.3-7.9-2.9-11.3-6.3-4.6-4.2-6.3-9.6-6.3-15.8v-51.7c0-.8 0-.8.8-.8h14.6c.8 0 1.3.4 1.3 1.3v49.6c0 5 2.5 8.3 6.7 10.4 5.4 2.5 11.3 2.5 17.1.8 5.4-1.7 9.2-5.8 9.2-12.5v-48.4c0-.8 0-.8.8-.8h14.6c.8 0 .8 0 .8.8v51.7c0 2.1-.4 4.6-.8 6.7 0 .8 0 .8.4.8h10c.8 0 .8 0 .8.8v12.9c0 .4 0 .8.8.8h16.6c-1.3-.4-2.5-.8-3.8-1.3-4.2-1.7-7.5-4.2-10.4-7.5-2.5-3.8-3.8-8.3-3.8-12.9 0-.8.4-.4.8-.4h15.4c.4 0 .8 0 .8.8.4 4.6 2.5 7.5 7.1 8.8 2.5.8 5.4 1.3 7.9 1.3 4.2 0 8.3 0 12.5-.8 1.3-.4 2.1-.8 2.9-1.3 2.9-2.1 3.3-4.6 2.9-7.9-.4-2.5-1.7-4.2-3.8-5.4-1.7-.8-3.3-1.7-5.4-2.1-5-1.3-10.4-2.1-15.8-3.3-4.6-.8-9.6-2.1-13.8-4.2-6.7-3.3-11.3-8.8-11.7-16.7-.4-6.7 1.7-12.5 7.5-16.7 2.9-2.1 6.3-3.8 10-4.6 5.8-1.7 12.1-2.1 18.3-1.7 5 0 9.6.8 14.2 2.5 9.2 3.3 14.6 10.4 16.3 20 0 .8 0 .8-.8.8h-15.4c-.4 0-.8 0-.8-.8-.8-4.6-3.3-7.1-7.9-8.3-2.1-.4-4.6-.8-6.7-.8-3.8 0-7.5 0-11.3.8-1.7.4-3.8 1.3-5 2.5-2.1 2.5-1.3 7.1 1.7 9.2 1.7 1.3 3.3 1.7 5 2.5 5.8 2.1 11.7 2.9 17.5 4.2 4.6.8 8.8 1.7 12.9 3.8 5.4 2.5 9.6 6.3 11.3 12.1 1.3 4.2 1.3 7.9 0 12.1 0 .8 0 .8.8.8h10c.8 0 .8 0 .8.8v12.1c0 2.1 0 2.1 2.1 2.1.8 0 .8 0 .8-.8v-73.4s0-.8.8-.8h17.9c.4 0 .8 0 .8.4 1.3 2.1 2.5 4.2 3.8 6.3 8.3 13.8 16.3 27.5 24.6 40.9 0 0 0 .4.4.4v-47.6c0-.8 0-.8.8-.8h14.2c.8 0 .8 0 .8.8v72.9c0 .8 0 .8.8.8h20.4c-.4 0-1.3-.4-1.7-.4-7.5-2.9-12.9-7.5-15.4-15.4-1.7-5.4-2.1-10.8-1.3-16.7 1.3-9.2 6.3-16.3 15-20.4 9.6-4.6 19.6-4.6 29.6-1.7 7.5 2.1 12.9 7.1 15.8 14.2 2.5 5.4 2.9 11.3 2.5 17.1 0 1.3 0 1.3-1.3 1.3h-45.4c-.4 0-.4 0-.4.4 0 .8.4 1.7.4 2.1 1.3 3.3 3.8 5.4 7.1 6.7 3.3 1.3 6.7 1.3 10 1.3 2.9 0 6.3-.8 8.8-2.1 1.7-.8 3.3-1.7 4.2-3.8.4-.4.4-.4.8-.4h14.6c.8 0 .8.4.4.8-2.1 7.1-6.7 11.7-12.9 15-1.3.8-2.9 1.3-4.6 1.7h32.5c.4 0 .4 0 .4-.4-.4-.8-.4-1.7-.8-2.5-5.8-16.3-11.7-32.5-17.5-48.4-.4-1.3-.8-2.5-1.3-3.8h16.3c.4 0 .8.4.8.8 3.8 12.1 7.9 24.2 11.7 36.3.4 1.3.8 2.5 1.3 4.2 0-.4.4-.8.4-.8.8-2.5 1.3-5 2.1-7.5 3.3-10.8 6.3-21.3 9.6-32.1 0-.8.4-.8 1.3-.8h16.7c.4 0 .8 0 .8.8 3.8 12.1 7.1 24.2 10.8 35.8.4 1.7.8 2.9 1.3 4.6 0-.4.4-.4.4-.8 4.2-13.3 8.3-26.3 12.5-39.6.4-.8.4-.8 1.3-.8h15v.8c-6.3 17.9-12.9 35.4-19.2 53.4-.4 1.3-.4 1.3.8 1.3h28.8c-.4-.4-.8-.4-1.3-.4-2.9-.8-5.4-2.1-7.5-4.6-2.9-3.3-3.8-7.1-4.2-11.3 0-.8.4-.4.8-.4h14.6c.4 0 .8 0 .8.8 0 2.5 1.3 3.8 3.8 4.6.4 0 .8.4 1.3.4 5 .8 10.4.8 15.4.4 1.7 0 2.9-.4 4.6-1.3 1.3-.8 1.7-1.7 1.7-3.3 0-1.3-.8-2.1-2.1-2.9-1.3-.4-2.1-.8-3.3-1.3-5-.8-10.4-1.7-15.4-2.5-3.3-.4-6.7-.8-10-2.1s-6.3-2.9-8.3-5.8c-2.1-2.9-2.5-5.8-2.9-9.2-.4-6.3 2.5-10.8 7.5-13.8 3.3-2.1 7.1-2.9 10.8-3.3 4.6-.8 9.6-.8 14.2-.4 4.2.4 7.9.8 11.7 2.5 7.5 2.9 10.8 7.5 11.3 15.4 0 .4 0 .8-.8.8h-14.2c-.4 0-.8 0-.8-.8 0-2.5-1.7-3.8-3.8-4.2-.8 0-1.3-.4-2.1-.4-4.2-.8-7.9-.8-12.1-.4-1.7 0-3.3.4-5 1.3-.8.4-1.7 1.7-1.7 2.5 0 1.3.4 2.1 1.7 2.5.8.4 2.1.8 3.3 1.3 5.4 1.3 10.8 1.7 16.7 2.5 3.8.4 7.5 1.3 10.8 2.5 3.8 1.7 6.7 3.8 8.3 7.5 1.3 2.9 1.7 5.8 1.3 8.8-.4 5.8-2.9 10-7.9 12.9-1.7.8-2.9 1.3-4.6 2.1.4.4.4 0 .8 0h22.9c.8 0 .8-.4.8-.8v-89.2c1.4-1.5 1.9-2.3 1.4-2.7m-1.2 94.6H163.4c-.8 0-1.3.4-1.3 1.3v13.8c0 1.7 0 1.3 1.3 1.3H629c.8 0 .8-.4.8-1.3v-13.8c0-1.3 0-1.3-1.2-1.3"/><path d="M379.7 343.1h1.3c-10-16.7-20-33.3-29.6-50v49.2c0 .8.4.8.8.8h27.5m142.2 0c.8 0 .8 0 .8-.8-3.8-12.1-8.3-23.8-11.3-35.8-.4 1.7-.4 3.3-.8 5-2.9 10.4-6.7 20.4-10 30.8-.4.8-.4.8.8.8h20.5m-88.4-32.5h14.6c.8 0 1.3-.4.8-.8v-.4c-.8-3.8-2.9-5.8-6.3-7.5-6.3-2.5-12.5-2.5-18.3.4-3.3 1.3-5.4 4.2-6.3 7.5 0 .8 0 .8.8.8h14.7m-194.6 23.7c-3.8 4.6-8.8 7.1-14.2 8.8h14.2c.4 0 .4-.4.4-.8 0-2.1 0-5-.4-8 .4.5.4 0 0 0m78.7 0c-3.8 4.6-8.3 7.1-13.8 8.8h11.3c.8 0 2.1.4 2.5 0s0-1.7 0-2.5v-6.3M477.3 271h-3.4s-.4 0-.4.4v2.1c0 .4 0 .4.4.4h3.8c.8 0 1.3-.4 1.3-1.7-.5-.8-.5-1.2-1.7-1.2m116.7 0h-2.1c-.4 0-1.3-.4-1.7 0-.4.4 0 1.3 0 2.1v.4c0 .4 0 .4.4.4h3.8c.8 0 1.3-.4 1.3-1.7-.4-.8-.9-1.2-1.7-1.2m-64.6 0h-1.7c-.4 0-1.7-.4-2.1 0-.4.4 0 1.7 0 2.1 0 .4 0 .4.4.4h3.8c.8 0 1.3-.4 1.3-1.7-.5-.4-.9-.8-1.7-.8m-22.9 0H504c-.4 0-.8 0-.4.8v6.6c0 .4 0 .8.4.4h3.3c.8 0 1.7-.8 1.7-1.7 0-1.3.4-2.5 0-4.2-.5-1.5-.9-1.9-2.5-1.9m-95.5 6.2c-.4.4-.8.4-.8 1.3 0 .4.4.4.4.8.8.4 1.7.4 2.9 0-.8-.4-1.3-1.3-1.7-1.7s-.8-.4-.8-.4m1.7-6.6c-.8 0-.8.4-.8 1.3 0 .4 0 1.3.8 1.3.4 0 1.3-.8 1.3-1.7-.5-.9-.5-.9-1.3-.9m47.9.4c-.8-.4-1.7-.4-2.5 0s-1.7.8-1.7 1.7c-.4 1.7-.4 2.9 0 4.6.4.8.8 1.7 2.1 1.7 2.5.4 4.2-.8 4.2-3.3v-2.1c-.4-1.4-.8-2.2-2.1-2.6m115.5-.4c-2.5 0-3.3.8-3.8 3.3v.8c0 .8 0 1.3.4 2.1.4 1.3 1.7 2.1 3.3 2.1 1.7 0 2.5-.8 2.9-2.1.4-1.3.4-2.5 0-3.8-.3-1.6-1.2-2.4-2.8-2.4m-15.4.4H559c-.4 0-1.7-.4-2.1 0s0 1.3 0 2.1v.8c0 .4 0 .4.4.4h3.8c.8 0 1.3-.8 1.3-1.7-.5-1.2-.9-1.6-1.7-1.6"/></svg>
