<svg xmlns="http://www.w3.org/2000/svg" viewBox="0 126 792 360"><path d="M215.5 338.5h10.8v-66.6h-32.6v19.2l6.3-.4 6.3-.4-.4 22.5c0 12.5-.4 23.3-.8 23.8-.4 1.9 0 1.9 10.4 1.9m57.5 0h11.3v-66.6h-20.8v25.8h-11.6v-7.6l3.8.4 3.8.4v-19.2h-28.4v66.6h10.8c10.4 0 11.3 0 10.8-1.3-.4-.8-.8-6.3-.8-12.1l-.4-10.8h11.6v10.4c0 5.8-.4 11.3-.8 12.1l-.8 1.7H273zm33.4 0h20.4v-20l-1.7.8c-.8.4-5 .8-9.6.8l-7.9.4.4-3.8.4-3.8 2.5-.4c1.7 0 4.2 0 5.8.4l2.9.8v-16.6l-5.8.4-5.8.4.4-4.2.4-4.2h5.4c3.3 0 7.1.4 9.2.8l3.8.8v-19.2h-40l.8 2.9c1.3 4.2 1.3 60.9-.4 62.5-1.2 1.2 0 1.2 18.8 1.2m115.9 0h20.4v-10c0-5.4 0-10-.4-10 0 0-1.7.4-3.3 1.3-1.7.8-5.4 1.3-9.2 1.3h-6.3l.4-4.2v-4.2l2.5-.4c1.7 0 4.2 0 5.8.4l2.9.8v-16.6l-5.8.4-5.8.4v-7.6l8.3.4c4.6 0 8.8.4 9.6.8 1.3.4 1.3 0 1.3-9.6v-10.4h-54.2l-6.7 18.8c-3.8 10.4-7.1 18.3-7.5 17.9-.4-.4-7.1-17.9-7.1-18.8 0 0 2.5-.4 5.4-.4h5.4l2.9-7.9c1.7-4.6 2.9-8.3 2.9-8.8s-10.4-.4-23.3-.4h-23.3l1.7 2.1c1.3 1.7 17.9 39.2 27.5 62.1l.8 2.1h14.2l10.8-25c5.8-13.8 10.8-25 11.3-25 .8 0 0 48.4-.8 49.6-.4.9 2.9.9 19.6.9m52.1-38.3c-1.3 1.3-2.9 2.1-4.2 2.1h-2.1V296c0-5 0-6.3 1.7-6.3.8 0 1.7.4 2.9.8 4.2 1.7 5 6.3 1.7 9.7m17.5 10.8l-2.9-2.5 1.7-2.5c5.8-7.9 4.6-20.8-2.1-27.5-5.4-5.4-11.7-6.7-30.4-6.7h-12.9l.4 1.7c.8 2.1.8 62.1 0 63.8-.4 1.3 0 1.3 11.3 1.3 11.7 0 12.1 0 11.3-1.3-.4-.8-.8-5-.8-10 0-8.3 0-8.3 1.7-7.9 2.9.8 6.7 3.8 8.8 6.7 2.1 3.3 2.9 8.8 1.7 11.3l-.8 1.7H491c7.1 0 11.7-.4 11.7-.8-.4-.4-.8-4.2-1.7-8.3-1.6-9.8-4.5-15.7-9.1-19m64.2 17.5c-.4-1.3-.8-7.9-.8-16.3V298h-29.2v15.8h10.8l.4 2.9c.4 3.3-.4 3.8-5 3.8s-8.3-2.1-11.3-6.3c-1.7-2.5-2.1-3.8-2.1-7.5 0-5.8 2.1-9.6 6.7-12.5 2.9-2.1 3.8-2.1 8.3-1.7 3.3 0 6.7.8 9.6 2.1l4.2 1.7v-24.2l-11.3.4c-12.5.4-17.5 1.7-23.3 5.4-6.7 4.6-12.1 12.1-14.2 20.4-1.3 5.8-.4 15.4 1.7 21.3 4.6 10.8 14.2 18.8 25.8 20.8 7.1 1.3 17.1-.4 24.2-4.2 5.5-3.5 6.3-4.8 5.5-7.7m42.5-36.7v-19.2h-40l.4 1.7c.8 2.1.8 62.1 0 63.8-.4 1.3.4 1.3 19.6 1.3H599v-20.8l-1.7.4c-2.1.8-15.4 1.3-16.7.8-.8-.4-.8-1.7-.8-4.2l.4-3.8 4.6.4c2.5.4 5 .4 5.8.8 1.3.4 1.3-.4 1.3-7.9v-8.3l-5.8.4-5.8.4v-8.4h5.4c5 0 7.9.4 12.1 1.7l.8.9z"/></svg>
