<svg xmlns="http://www.w3.org/2000/svg" viewBox="0 126 792 360"><path d="M378.9 363.9c-1.3 0-2.1-.4-3.3-.4-14.2-1.7-24.2-11.7-26.7-25-1.3-7.5-.4-14.6 2.5-21.7 6.3-15.4 17.1-26.3 33.3-30.8 5.4-1.7 11.3-2.1 16.7-1.3 10.8 1.7 18.3 7.5 22.5 17.1v.4c-.8.8-1.7 2.1-2.9 2.9-4.2 4.2-8.8 8.3-13.8 11.7-2.5 1.7-5 3.3-7.9 4.6-.4 0-.4 0-.8.4.4-1.3.4-2.1.4-2.9 1.3-5.8 2.1-12.1 2.9-17.9.4-2.9.4-5.4.4-8.3 0-.8-.4-1.7-.4-2.9-.8-2.1-2.1-3.3-4.6-3.3H393c-2.1.4-3.3 1.7-4.6 3.3-1.3 2.1-2.5 4.6-2.9 7.1-1.3 3.8-2.1 7.9-3.3 11.7v2.1c0 3.3.4 6.7 2.1 9.6.8 2.1 2.1 4.2 4.6 5 1.7.8 3.3.8 5.4.8 4.6-.4 8.8-2.5 12.5-5 3.8-2.5 7.1-5.4 10.4-8.3 5-4.6 10-9.6 15.4-14.2 4.2-3.8 8.3-7.5 13.3-10.4 2.9-1.7 5.8-2.9 9.2-3.8 5.4-.8 10.4.8 14.2 5 2.9 2.9 4.6 6.7 5.8 10.4.8 2.9 1.7 5.8 2.5 8.8v.4c0-.4.4-.4.4-.8 2.5-4.2 5-8.8 7.9-12.9 2.1-3.3 4.6-6.3 7.5-8.8 3.8-2.9 7.9-4.2 12.5-4.2 5.4.4 10 4.6 10 10 .4 4.6-1.3 8.8-4.6 12.1-2.9 2.9-6.7 3.8-10.4 2.9-5.8-.8-9.6-4.2-12.5-9.2-.4-.4-.4-.8-.8-1.3-.8.8-1.3 1.7-1.7 2.5-1.7 2.9-2.9 5.4-4.6 8.3-.8 1.7-1.7 3.3-2.9 5 .4 2.1.8 4.6 1.7 6.7 1.3 6.3 2.9 12.1 5.4 17.9 1.3 3.3 2.9 6.7 5 9.6 1.7 1.7 3.3 3.3 5.8 3.3 1.7 0 3.3-.4 5-1.3 2.5-1.3 4.6-2.9 6.3-4.6 0 0 .4-.4.4-.8.4.8.8 1.3 1.3 2.1-2.1 2.1-3.8 4.2-5.8 6.3-3.8 3.8-7.9 7.1-12.9 9.2-3.3 1.7-6.3 2.5-10 2.9h-2.9c-.8-.4-2.1-.4-2.9-.8-3.3-1.3-6.3-3.3-8.3-6.3-2.9-3.8-4.6-8.3-5.8-12.9-.4-1.3-.8-2.9-1.3-4.6 0 .4-.4.4-.4.4-2.1 3.3-4.2 6.7-6.3 10-2.1 2.9-3.8 5.8-6.3 8.8-2.5 2.5-5.4 4.6-9.2 5.4-.8 0-1.7.4-2.5.4h-2.9c-5.8-.8-10-5-10-11.3 0-4.2 1.3-7.5 4.2-10.8 4.2-4.6 10.8-5.4 15.8-2.5 3.3 2.1 5.4 5 6.3 8.8 0 .8.4 1.7.4 2.1 3.8-5 6.3-10.4 10.4-15-1.3-5.4-2.5-10.8-3.8-16.7-1.3-4.6-2.5-9.6-4.6-14.2-.8-2.1-2.1-3.8-3.3-5.4-1.3-1.3-2.5-2.1-4.2-1.7-1.3.4-2.5.4-3.8 1.3-3.3 1.3-5.8 3.3-8.3 5.8l-3.8 3.8v1.7c.4 3.8.4 7.9 0 11.7-1.3 7.9-3.8 15.4-8.3 22.5-7.9 11.7-18.8 17.9-32.5 19.2-.8 0-1.7 0-2.5.4-2.4-.1-3.6-.1-4.9-.1zm2.1-47.5v.4c-2.1 9.2-3.8 17.9-5 27.1-.4 3.8-.8 7.5-.8 11.3 0 1.3.4 2.5.4 3.8.4 1.3 1.3 2.5 2.9 2.9 4.6.8 7.9 0 10-3.8 1.3-2.1 2.1-4.2 2.9-6.7 2.5-7.1 4.2-14.6 5.8-22.1v-.4h-1.3c-1.7.4-3.8.4-5.4 0-3.3-.8-5.4-2.9-7.1-5.4-1.2-2.1-2-4.6-2.4-7.1zm-43.8-68.3c0 .4-.4.8-.4 1.7h-.8c-2.1 0-4.2 0-6.7.4-.8 0-1.7.4-2.5.8-2.5.8-3.8 2.9-3.8 5.4v5c.4 3.8.4 7.1.8 10.8s.4 7.1.8 10.8c.4 3.3.4 7.1.8 10.4.4 3.8.4 7.1.8 10.8.4 3.3.4 7.1.8 10.4.4 3.8.4 7.1.8 10.8.4 3.3.4 7.1.8 10.4 0 1.3 0 2.1.4 3.3 0 0 0-.4.4-.4 9.2-20.4 18.3-40.4 27.5-60.9 1.7-3.8 3.3-7.5 4.2-11.3.8-2.9 1.3-6.3 0-9.2-1.3-4.6-4.6-7.1-9.2-7.1h-6.3c0-.4.4-.8.4-1.7h42.9c0 .4-.4.8-.4 1.7h-1.3c-4.6-.4-7.9 1.7-10.8 4.6-2.9 2.9-5.4 6.7-7.9 10.4-3.3 5.4-5.8 11.3-8.3 16.7-12.5 26.7-25 53.4-37.5 80 0 .4-.4.4-.4.8h-25.4c0-.8 0-1.7-.4-2.5-.4-5.8-1.3-11.3-1.7-17.1-.4-5-1.3-10.4-1.7-15.4-.4-5.8-1.3-12.1-2.1-17.9-.4-5.4-1.3-11.3-1.7-16.7-.4-5.4-1.3-11.3-1.7-16.7-.4-5.8-1.3-12.1-1.7-17.9 0-1.3-.4-2.5-.8-4.2-.8-2.5-2.9-3.8-5.4-3.8h-4.2c0-.4.4-.8.4-1.7 20.9-.7 40.9-.7 61.3-.7z"/></svg>
