<?xml version="1.0" encoding="utf-8"?>
<!-- Generator: Adobe Illustrator 19.0.0, SVG Export Plug-In . SVG Version: 6.00 Build 0)  -->
<svg version="1.1" id="Layer_1" xmlns="http://www.w3.org/2000/svg" xmlns:xlink="http://www.w3.org/1999/xlink" x="0px" y="0px"
	 viewBox="90 217 792 360" style="enable-background:new 90 217 792 360;" xml:space="preserve">
<g>
	<path d="M703,372.8h-21.8v48.1c0,0,11.9,0,22.8,0c10.9,0,11.2-14.1,11.2-14.1s0-2.2,0-18.6C715.2,371.8,703,372.8,703,372.8z"/>
	<path d="M642.9,343.6v106.9h104.9V343.6H642.9z M704.6,433.4c-26.3,0-38.2,0.3-38.2,0.3v-72.9h31.1c0,0,32.1-3.5,32.1,25.4v20.2
		C729.6,406.5,730.9,433.4,704.6,433.4z"/>
	<path d="M434,450.4H539V343.6H434V450.4z M458.1,360.6h41.7c0,0,18-1,18,18.6c0,19.6-10.9,20.5-10.9,20.5s10.9,0.6,10.9,15.7
		s0,16.7,0,16.7h-14.4v-15.7c0,0,0-12.2-8.3-12.2s-22.8,0.3-22.8,0.3v27.9h-14.1V360.6z"/>
	<path d="M503.3,381.8c0-10.3-10.9-8.7-10.9-8.7h-20.2V393c0,0,10.9-0.3,19.9-0.3S503.3,390.7,503.3,381.8z"/>
	<path d="M224.1,450.4h104.9V343.6H224.1V450.4z M247.5,360.9l9.9,54.9l12.8-54.9l15.7,0.3l12.8,55.5l9.6-55.8h13.8l-14.8,71.9h-18
		L278,380.5l-12.5,52.6h-17.7l-14.8-72.2H247.5z"/>
	<path d="M357.5,372.6c0,0,16.7,0,17.7,0v48.1c-0.9,0-17.7,0-17.7,0v12.2h50.7v-12.2c0,0-18.3,0-19.3,0v-48.1c0.9,0,19.3,0,19.3,0
		v-12.2h-50.7V372.6z"/>
	<polygon points="558.2,372.4 568.2,372.4 568.2,420.9 558.2,420.9 558.2,432.8 619.5,432.8 619.5,409.4 607.3,409.4 607.3,420.9 
		581.3,420.9 581.3,401.3 600.6,401.3 600.6,389.5 581.3,389.5 581.3,372.4 606.4,372.4 606.4,384 619.5,384 619.5,360.6 
		558.2,360.6 	"/>
</g>
</svg>
