<svg xmlns="http://www.w3.org/2000/svg" viewBox="0 126 792 360"><path d="M386 242.6h1.7v-5.4h-32.5v5.4h1.7c6.3-.4 8.8 1.7 8.8 7.9v3.3l-15 81.3h-1.3l-16.7-86.3c0-5 2.9-7.1 8.8-6.7h.4v-5.4h-37.5v5.4h.4c5-.4 7.9 2.1 8.8 9.6L319 280l-10 55.9-16.7-85V248c0-4.6 2.1-6.3 6.7-5.4h1.3v-5.4h-38.8v5.4h1.3l7.1 1.3 3.8 8.3 25 125.9h8.3l16.7-80.5 15.8 80.5h7.9l25.8-123 5-10.8 7.8-1.7zm20.8 33c-3.8-5.4-5.4-11.7-5.4-17.5-.4-12.1 5-17.5 15.4-17.1 15.4 0 23.3 13.8 23.3 41.3v1.7h5v-48.8h-3.3l-3.8 7.1c-7.1-6.3-14.2-8.8-22.5-8.8s-15 2.9-20 8.8c-5.8 5.4-9.2 13.3-8.8 23.3 0 15.8 8.8 30 25.8 42.5 16.7 12.5 25 25.8 25 39.6 0 15-6.7 22.1-19.2 22.1-6.3 0-11.7-2.9-16.7-8.3-6.3-7.9-9.6-18.8-9.6-33.8V326h-4.6v49.2h3.8l3.3-8.3c8.3 6.3 16.7 8.8 25 8.8 21.7 0 32.5-11.7 32.5-34.6 0-11.7-2.9-22.1-8.3-30.4l-20.4-20.4-16.5-14.7zm123-33v-5.4h-42.5v5.4h3.8c5 0 7.1 2.9 7.9 8.3v100.9l-2.9 15.4-10 4.6c-4.6 0-8.3-1.7-11.3-5l-3.8-10.4c8.3-.4 12.1-5 12.1-13.3-.4-6.7-4.6-10-10.4-10l-7.1 3.8-4.6 10.8c0 9.6 2.9 16.7 8.8 22.5 3.8 5 10 7.1 17.1 7.9 20.4-.4 30.8-10.4 31.7-30.4V251c-.4-5.4 2.1-8.3 7.1-8.3h4.1z"/></svg>
