<svg xmlns="http://www.w3.org/2000/svg" xmlns:xlink="http://www.w3.org/1999/xlink"><symbol viewBox="0 0 32 32" id="anchor"><title>Anchor</title><desc>Boat anchor</desc><g fill="none"><path d="M5.1 25.7c2.3 3.5 6.3 5.8 10.9 5.8s8.6-2.3 10.9-5.8M2.1 20.7l.3 6.2 5.3-3.4-5.6-2.8.3 6.2 5.3-3.4zM29.9 21.1l-.3 6.2-5.3-3.3 5.6-2.9-.3 6.2-5.3-3.3zM16 31.5V5.6"/><ellipse cx="16" cy="3" rx="2.6" ry="2.5"/><path d="M26.8 10.8H5.2"/></g></symbol><symbol viewBox="0 0 32 32" id="apple"><title>Apple</title><desc>Apple with stem on top.</desc><g fill="none"><path d="M16 7.1c-2.3 0-3.6-1.5-5.9-1.5s-7.5 1.1-7.5 8.9c0 6.2 3.9 15.4 7.1 16.6 3.3 1.3 4.8-1.3 6.3-1.3s3 2.6 6.3 1.3c3.2-1.3 7.1-10.3 7.1-16.6 0-7.8-5.2-8.9-7.5-8.9S18.3 7.1 16 7.1zM16 7.1C16 3.6 17.5.5 20.9.5"/></g></symbol><symbol viewBox="0 0 57.3 81.1" id="arrow"><path d="M9.7 81.1L0 69.7l34.2-29.1L0 11.4 9.7 0l47.6 40.6z"/></symbol><symbol viewBox="0 0 32 32" id="bagel"><title>Bagel</title><desc>Half of a bagel from birds eye view.</desc><g fill="none"><ellipse cx="16" cy="16" rx="15.5" ry="15.1"/><ellipse cx="16" cy="16" rx="3.6" ry="3.5"/><path d="M10.2 6.6L13 9.3M6.3 10.5L9 13.1M25.6 21.6L22.9 19M21.7 25.5l-2.8-2.7M17.1 5.6l9.5 9.3M5.3 17.2l9.5 9.3"/></g></symbol><symbol viewBox="0 0 32 32" id="bell"><title>Bell</title><desc>Line drawing of an old fashion bell.</desc><g fill="none"><path d="M16 .5v3.8c2.9 0 5.7 1.3 7.4 3.5 2 2.5 2 5.2 1.9 8.2-.1 2.5-.2 5.1.3 7.5.4 2.1 1.6 4.5 4 4.8h.2H2.1h.2c2.4-.3 3.6-2.7 4-4.8.5-2.5.4-5 .3-7.5-.1-2.9-.1-5.7 1.9-8.2 1.7-2.2 4.5-3.5 7.4-3.5M19 28.5c0 1.6-1.3 3-3 3s-3-1.3-3-3M6.7 21.3h18.6"/></g></symbol><symbol viewBox="0 0 32 32" id="bike"><title>Courier bike</title><desc>Bike delivering a Casper mattrress.</desc><ellipse transform="rotate(-.2 3.827 19.464)" fill="none" cx="3.8" cy="19.5" rx="3.3" ry="3.1"/><ellipse transform="matrix(1 -.0035 .0035 1 -.068 .1)" fill="none" cx="28.2" cy="19.4" rx="3.3" ry="3.1"/><path fill="none" d="M9.4 19.4l5-4.6H7.3l-3.5 4.7 5.6-.1-3.3-7.3M14.9 12.4h-1.2l2 6.8.8.2h11.7M5.3 11.9l2.5.6M17.1 17.7h6.3M17.1 16.1h6.3M17.1 12.8h6.3M17.1 11.1h6.3"/><path d="M23.4 19.9h-6.3c-.3 0-.5-.2-.5-.5v-10c0-.3.2-.5.5-.5h6.3c.3 0 .5.2.5.5v10c0 .3-.3.5-.5.5zm-5.8-1h5.3v-9h-5.3v9z"/></symbol><symbol viewBox="0 0 32 32" id="bird"><title>Bird</title><desc>Seagull from profile view.</desc><path fill="none" d="M31.6 13.4c0 .9-.1 1.7-.2 2.5-1.2 6.4-6.9 11.2-13.7 11.2C10 27.1 3.8 21 3.8 13.4v.2-7.4C3.8 3.1 6.4.5 9.5.5c3.2 0 5.7 2.5 5.7 5.7v7.2h16.4zM23.4 25.9s-8.1-2.6-8.1-12.6M3.5 8.1h-3"/><circle cx="7.1" cy="8.1" r=".8"/><path fill="none" d="M21.3 26.8v4.7M13.1 26.7v4.8"/></symbol><symbol viewBox="0 0 32 32" id="boat-steering-wheel"><title>Steering Wheel</title><desc>An eight-spoke boat steering wheel.</desc><g fill="none"><circle cx="16" cy="16" r="11.9"/><path d="M16 19.4v12.1M31.5 16H19.4M27 5l-8.6 8.6M27 27l-8.6-8.6"/><circle cx="16" cy="16" r="3.4"/><path d="M16 .5v12.1M12.6 16H.5M13.4 18.6L5 27M13.5 13.5L5 5"/></g></symbol><symbol viewBox="0 0 32 32" id="book-closed"><title>Closed book</title><desc>Book on side with bookmark hanging out.</desc><path fill="none" d="M9.2 21.4l-7.5-7.3C.9 13.3.4 12.3.4 11.2.4 8.9 2.3 7 4.7 7H24l7.5 7.3H12.3c-2.4 0-4.3 1.9-4.3 4.2s1.9 4.2 4.3 4.2h2.6M19 19.9h10.6M19 17.1h10.6M10.4 14.8L2.9 7.5M31.5 14.3c-1.3 1-2.1 2.5-2.1 4.2 0 1.7.8 3.2 2.1 4.2"/><path fill="none" d="M19 24.9l-2.1-1.6-2 1.6v-7.8H19zM8.2 17.1h6.7M14.9 19.9H8.2M19 22.7h12.5"/></symbol><symbol viewBox="0 0 32 32" id="cal-ten"><title>Calendar on the 10th</title><desc>10th day of the calendar month</desc><path fill="none" d="M22.5 3.6h4.2v25H2.5v-25h4.6M7.1 10h15.2"/><path d="M9.7 7.3H7.1c-.3 0-.5-.3-.5-.5V.5c0-.3.2-.5.5-.5h2.6c.3 0 .5.2.5.5v6.3c0 .2-.2.5-.5.5zm-2.1-1h1.6V1H7.6v5.3zM22.3 7.3h-2.6c-.3 0-.5-.2-.5-.5V.5c0-.3.2-.5.5-.5h2.6c.3 0 .5.2.5.5v6.3c0 .2-.3.5-.5.5zm-2.2-1h1.6V1h-1.6v5.3zM8.3 15.8l.6 1.5 1.4-.5v6.4h1.8v-8.5h-.7zM17.7 14.7c-2.3 0-3.5 2-3.5 4.3 0 2.4 1.2 4.3 3.5 4.3 2.2 0 3.5-2 3.5-4.3-.1-2.4-1.3-4.3-3.5-4.3zm0 6.9c-.9 0-1.4-.9-1.4-2.7 0-1.8.6-2.7 1.4-2.7.9 0 1.4.9 1.4 2.7 0 1.9-.6 2.7-1.4 2.7z"/><path fill="none" d="M26.7 6.5h2.8v25H5.3v-2.9M9.7 3.6h9.9"/></symbol><symbol viewBox="0 0 612 561" id="calendar"><title>Calendar icon</title><desc>Monthly calendar icon</desc><path d="M535.5 51h-51V25.5C484.5 10.2 474.3 0 459 0s-25.5 10.2-25.5 25.5V51h-255V25.5C178.5 10.2 168.3 0 153 0s-25.5 10.2-25.5 25.5V51h-51C33.1 51 0 84.1 0 127.5v357C0 527.9 33.1 561 76.5 561h459c43.4 0 76.5-33.1 76.5-76.5v-357c0-43.4-33.1-76.5-76.5-76.5zm-459 51h51v25.5c0 15.3 10.2 25.5 25.5 25.5s25.5-10.2 25.5-25.5V102h255v25.5c0 15.3 10.2 25.5 25.5 25.5s25.5-10.2 25.5-25.5V102h51c15.3 0 25.5 10.2 25.5 25.5V204H51v-76.5c0-15.3 10.2-25.5 25.5-25.5zm459 408h-459C61.2 510 51 499.8 51 484.5V255h510v229.5c0 15.3-10.2 25.5-25.5 25.5z"/><circle cx="153" cy="331.5" r="20.4"/><path d="M153 359.6c-15.3 0-28.1-12.8-28.1-28.1s12.8-28.1 28.1-28.1 28.1 12.8 28.1 28.1-12.8 28.1-28.1 28.1zm0-38.3c-5.1 0-10.2 2.6-10.2 10.2s2.6 10.2 10.2 10.2 10.2-2.6 10.2-10.2-5.1-10.2-10.2-10.2z"/><circle cx="153" cy="433.5" r="20.4"/><path d="M153 461.6c-15.3 0-28.1-12.8-28.1-28.1s12.8-28.1 28.1-28.1 28.1 12.8 28.1 28.1-12.8 28.1-28.1 28.1zm0-38.3c-5.1 0-10.2 2.6-10.2 10.2s2.6 10.2 10.2 10.2 10.2-2.6 10.2-10.2-5.1-10.2-10.2-10.2z"/><circle cx="255" cy="433.5" r="20.4"/><path d="M255 461.6c-15.3 0-28.1-12.8-28.1-28.1s12.8-28.1 28.1-28.1 28.1 12.8 28.1 28.1-12.8 28.1-28.1 28.1zm0-38.3c-5.1 0-10.2 2.6-10.2 10.2s2.6 10.2 10.2 10.2 10.2-2.6 10.2-10.2-5.1-10.2-10.2-10.2z"/><circle cx="255" cy="331.5" r="20.4"/><path d="M255 359.6c-15.3 0-28.1-12.8-28.1-28.1s12.8-28.1 28.1-28.1 28.1 12.8 28.1 28.1-12.8 28.1-28.1 28.1zm0-38.3c-5.1 0-10.2 2.6-10.2 10.2s2.6 10.2 10.2 10.2 10.2-2.6 10.2-10.2-5.1-10.2-10.2-10.2z"/><circle cx="357" cy="331.5" r="20.4"/><path d="M357 359.6c-15.3 0-28.1-12.8-28.1-28.1s12.8-28.1 28.1-28.1 28.1 12.8 28.1 28.1-12.8 28.1-28.1 28.1zm0-38.3c-5.1 0-10.2 2.6-10.2 10.2s2.6 10.2 10.2 10.2 10.2-2.6 10.2-10.2-5.1-10.2-10.2-10.2z"/><circle cx="357" cy="433.5" r="20.4"/><path d="M357 461.6c-15.3 0-28.1-12.8-28.1-28.1s12.8-28.1 28.1-28.1 28.1 12.8 28.1 28.1-12.8 28.1-28.1 28.1zm0-38.3c-5.1 0-10.2 2.6-10.2 10.2s2.6 10.2 10.2 10.2 10.2-2.6 10.2-10.2-5.1-10.2-10.2-10.2z"/><circle cx="459" cy="433.5" r="20.4"/><path d="M459 461.6c-15.3 0-28.1-12.8-28.1-28.1s12.8-28.1 28.1-28.1 28.1 12.8 28.1 28.1-12.8 28.1-28.1 28.1zm0-38.3c-5.1 0-10.2 2.6-10.2 10.2s2.6 10.2 10.2 10.2 10.2-2.6 10.2-10.2-5.1-10.2-10.2-10.2z"/><circle cx="459" cy="331.5" r="20.4"/><path d="M459 359.6c-15.3 0-28.1-12.8-28.1-28.1s12.8-28.1 28.1-28.1 28.1 12.8 28.1 28.1-12.8 28.1-28.1 28.1zm0-38.3c-5.1 0-10.2 2.6-10.2 10.2s2.6 10.2 10.2 10.2 10.2-2.6 10.2-10.2-5.1-10.2-10.2-10.2z"/></symbol><symbol viewBox="0 0 32 32" id="calsix"><title>Calendar on the 6th</title><desc>6th day of the calendar month</desc><path fill="none" d="M22.5 3.6h4.2v25H2.5v-25h4.6"/><path d="M9.7 7.3H7.1c-.3 0-.5-.3-.5-.5V.5c0-.3.2-.5.5-.5h2.6c.3 0 .5.2.5.5v6.3c0 .2-.2.5-.5.5zm-2.1-1h1.6V1H7.6v5.3zM22.3 7.3h-2.6c-.3 0-.5-.2-.5-.5V.5c0-.3.2-.5.5-.5h2.6c.3 0 .5.2.5.5v6.3c0 .2-.3.5-.5.5zm-2.2-1h1.6V1h-1.6v5.3z"/><path fill="none" d="M26.7 6.5h2.8v25H5.3v-2.9M9.7 3.6h9.9"/><path d="M14.7 23.4c-2 0-3.2-1.4-3.2-3.1 0-2.2 1.2-4.3 4.9-6l.9 1.7c-1.3.5-2.6 1.2-3.3 2.1.3-.2.8-.3 1.2-.3 1.8 0 2.7 1.2 2.7 2.7-.1 1.4-1.2 2.9-3.2 2.9zm0-4.2c-.7 0-1.1.4-1.1 1.2 0 .8.4 1.3 1.1 1.3.8 0 1.1-.6 1.1-1.3-.1-.7-.5-1.2-1.1-1.2z"/><path fill="none" d="M7.1 10h15.2"/></symbol><symbol viewBox="-380 292 30 30" id="canada"><title>Canadian Flag</title><desc>Shop Casper Mattress in Canada</desc><path d="M-359.8 312l.4 1.4c-1.7-.2-3.3-.5-5-.7-.2 0-.4.2-.4.4l.1 5.1h-.8l.2-5.1c0-.2-.3-.4-.4-.4-1.7.2-3.3.5-5 .7l.4-1.4c.1-.2 0-.5-.2-.7l-5-3.9 1-.5c.5-.2.3-.4.2-1l-.8-2.7 2.9.6c.3 0 .5-.1.5-.3l.4-1.3 2.3 2.5c.3.4 1 .4.8-.5l-1-5 1.3.7c.4.2.7.2 1-.1l1.8-3.3 1.8 3.3c.2.4.6.3 1 .1l1.3-.7-1 5c-.2.9.5.9.8.5l2.3-2.5.4 1.3c0 .2.2.3.5.3l2.9-.6-.8 2.7c-.2.6-.3.8.2 1l1 .5-5 3.9c-.1.2-.2.5-.1.7m-5.2-20c-8.3 0-15 6.7-15 15s6.7 15 15 15 15-6.7 15-15-6.7-15-15-15"/></symbol><symbol viewBox="0 0 28.9 20.7" id="cart-closed"><title>Shopping Cart</title><desc>There are no items in your cart</desc><path d="M25.3 14.7H9.5c-.5 0-.9-.3-1-.7l-3-12H1c-.6 0-1-.4-1-1s.4-1 1-1h5.2c.5 0 .9.3 1 .7l.5 2h20.1c.3 0 .6.1.8.4.2.2.3.6.2.9l-2.6 10c-.1.4-.5.7-.9.7zm-15-2h14.2l2.1-8H8.2l2.1 8z"/><circle cx="22.7" cy="18.9" r="1.8"/><circle cx="10.3" cy="18.9" r="1.8"/></symbol><symbol viewBox="0 0 28.9 20.7" id="cart-open"><title>Shopping cart</title><desc>There are items in your shopping cart</desc><path d="M25.3 14.7H9.5c-.5 0-.9-.3-1-.7l-3-12H1c-.6 0-1-.4-1-1s.4-1 1-1h5.2c.5 0 .9.3 1 .7l3.1 12h14.2l2.4-9.3c.1-.5.7-.9 1.2-.7.5.2.9.7.7 1.3l-2.6 10c-.1.4-.5.7-.9.7z"/><circle cx="22.7" cy="18.9" r="1.8"/><circle cx="10.3" cy="18.9" r="1.8"/></symbol><symbol viewBox="0 0 32 32" id="cat"><title>Cat</title><desc>Line drawing of a cat sitting up.</desc><g fill="none"><path d="M16.9 26.1v5.4M21.4 26.1v5.4M23.2 13.1c5 1.4 7.2 6.7 3.5 18.4h3.4M14.8 13.2C10 14.7 7.9 20 11.6 31.5H8.2"/><path d="M9.7 25.2c-3.9-.1-5.8-3.6-4.5-7.5 1.3-4.1.3-7.1-3.3-7.2M19 14.4c-3.7 0-6.8-3-6.8-6.7 0-.6.1-1.3.1-1.3L9.1.5l6.5 1.4c.9-.6 2.2-1 3.4-1s2.5.3 3.4 1L28.9.5l-3.2 5.9s.1.6.1 1.3c0 3.7-3 6.7-6.8 6.7zM25.8 8.1l3.1-.4M25.2 10.4l3.7.7M12 8.1l-3.1-.4M12.6 10.4l-3.7.7"/></g></symbol><symbol viewBox="0 0 16 16" id="checkmark"><path d="M8 1c3.86 0 7 3.14 7 7s-3.14 7-7 7-7-3.14-7-7 3.14-7 7-7m0-1a8 8 0 1 0 0 16A8 8 0 0 0 8 0z"/><path fill-rule="evenodd" clip-rule="evenodd" d="M10.828 4.464L6.586 8.707 8 10.12l4.243-4.242-1.415-1.414zm-7.07 4.243l2.828 2.83L8 10.12 5.172 7.294 3.757 8.707z"/></symbol><symbol viewBox="0 0 76.7 90.9" id="clock"><path fill="none" d="M76.7 45.7c0-7.5-2.4-14.6-6.1-20.7 1.9-2.4 2.8-5.6 2.8-8.9 0-8.9-7.1-16-16-16-5.6 0-10.8 2.8-13.2 7.5-1.9-.5-3.8-.5-6.1-.5-2.4 0-4.2 0-6.1.5C29.2 2.8 24.5 0 18.8 0c-8.9.5-16 7.5-16 16 0 3.3.9 6.6 2.8 8.9C1.9 31.1 0 38.1 0 45.7c0 14.1 7.5 26.4 18.8 33l-4.7 7.5c-.9 1.4-.5 3.3.9 4.2.5.5.9.5 1.4.5.9 0 1.9-.5 2.8-1.4l4.7-8c4.2 1.9 8.9 2.8 13.7 2.8s9.4-.9 13.7-2.8l4.7 8c.5.9 1.4 1.4 2.8 1.4.5 0 .9 0 1.4-.5 1.4-.9 1.9-2.8.9-4.2l-4.7-7.5c12.3-6.7 20.3-18.9 20.3-33zM57.4 6.1c5.2 0 9.9 4.2 9.9 9.9 0 1.4-.5 2.8-.9 3.8-4.2-4.7-9.9-8.5-16-10.4 1.9-1.9 4.2-3.3 7-3.3zM8.9 16c0-5.2 4.2-9.9 9.9-9.9 2.8 0 5.2 1.4 7.1 2.8-6.6 2.4-11.8 6.1-16 10.8-.5-.9-1-2.3-1-3.7zm29.2 62.1c-17.9 0-32.5-14.6-32.5-32.5s14.6-32.5 32.5-32.5 32 14.6 32 32.5-14.1 32.5-32 32.5z"/><path d="M52.3 42.4H41V22.1c0-1.9-1.4-2.8-2.8-2.8s-2.8.9-2.8 2.8v23.5c0 1.9 1.4 2.8 2.8 2.8h14.1c1.9 0 3.3-1.4 3.3-2.8s-1.5-3.2-3.3-3.2z"/></symbol><symbol viewBox="0 0 51.6 51.6" id="close"><path fill="none" d="M1.1 1.1l49.5 49.5m0-49.5L1.1 50.6"/></symbol><symbol viewBox="0 0 11.6 11.6" id="close-fat"><path d="M11.6 1.4L10.2 0 5.8 4.4 1.4 0 0 1.4l4.4 4.4L0 10.2l1.4 1.4 4.4-4.4 4.4 4.4 1.4-1.4-4.4-4.4z"/></symbol><symbol viewBox="0 0 32 32" id="delivery"><title>Delivery box</title><desc>Casper mattress coming out of box</desc><g fill="none"><path d="M8.1 13.3V8.8c0-3.6 2.5-2.7 3.7-2.6 4.8.6 8.1.5 8.1-1.4 0-2.1-7.7-1.9-5.5 1.6"/><path d="M10.8 5.9C9.6 3.2 12.4.5 17.5.5c4.8 0 6.4 2.2 6.4 4 0 3.8-4.2 5.8-10.8 4.8-1.9-.3-1.9.6-1.9 1.8v3.2"/><path d="M6.3 12.7L16 16l9.7-3.3M6.3 12.7l1.8-.6M25.7 12.7l-1.8-.6"/><path d="M12.5 21.7l-9.7-3.3 3.5-5.7L16 16zM19.5 21.7l9.7-3.3-3.5-5.7L16 16zM16 16v15.5M23.9 4.8V13"/><path d="M25.7 19.6v8.6L16 31.5l-9.7-3.3v-8.6"/></g></symbol><symbol viewBox="0 0 32 32" id="diamond"><title>Firmness Icon</title><desc>Line drawing of a diamond.</desc><g fill="none"><path d="M.5 15.9h27l-3.9-5.8H4.4zM27.5 15.9L14 29.7.5 15.9M23.6 10.1L14 29.7M4.4 10.1L14 29.7"/><path d="M20.8 15.9L14 10.1 7.3 16M31.5 8.2l-2.7 1.6M24.7 6.8L27 4.3M20.2 5.3l1.2-3"/></g></symbol><symbol viewBox="0 0 32 32" id="dog"><title>Dog</title><desc>Line drawing of a dog sitting up.</desc><g fill="none"><path d="M15.7 26.3v5.1M20.1 26.3v5.1M21.8 13.8c4.8 1.3 6.9 6.4 3.4 17.7h3.2M14 13.8c-4.8 1.3-6.9 6.4-3.4 17.7H7.4M9.1 19.3c-4.3-.8-6.1-6.1-5.4-9.9M17 12.9h1.6"/><path d="M23.2 5c5.1 2.8 4.9-1.2 3.3-3.3-1.6-2-4.2-1.5-5.1.8-3.9-1.4-7.1 0-7.1 0-.9-2.2-3.5-2.8-5.1-.8s-1.8 6 3.3 3.3c0 0 .8 7.5 1.7 9.1 1.2 2.1 5.6 2.5 7.3 0 1-1.5 1.7-9.1 1.7-9.1z"/></g></symbol><symbol viewBox="0 0 57.1 54" id="ear"><path d="M55.6 40.8c-.8 0-1.5.7-1.5 1.5 0 3.1-1.5 5.7-4.3 7.2-3.4 1.9-8 1.9-11.3-.1-2.1-1.3-4.6-3.9-4.4-9.3.2-5.4-2.1-8.5-4.3-11.5-2.1-2.8-4-5.4-4-10 0-4.9 1.6-9 4.8-11.8C33.3 4.4 37 3 40.9 3c6 0 12.4 3.5 12.4 11.1 0 .8.7 1.5 1.5 1.5s1.5-.7 1.5-1.5C56.2 4.9 48.5 0 40.9 0c-4.6 0-9 1.7-12.3 4.6-3.8 3.4-5.8 8.2-5.8 14 0 5.6 2.4 8.9 4.6 11.8 2.1 2.8 3.9 5.3 3.8 9.6-.2 5.3 1.9 9.6 5.8 12 2.1 1.3 4.7 2 7.3 2 2.4 0 4.9-.6 7-1.8 3.7-2.1 5.8-5.7 5.8-9.9 0-.8-.6-1.5-1.5-1.5z"/><path d="M50.3 25.9c.4-.1 1.2-.1 1.8 1 .4.7 1.3 1 2 .5.7-.4 1-1.3.5-2-1.1-2-3.2-2.9-5.2-2.4S46 25.3 46 27.3c0 1.5.8 2.8 1.6 4.1 1.2 1.9 1.6 2.9.9 4.1-.6 1-2.3 1.5-3.8 1.1-1.3-.3-4.3-1.7-4.5-7.3-.3-7.2 4.7-9.8 6.9-10.6.1.4.2.9.2 1.3.1.8.8 1.4 1.7 1.3.8-.1 1.4-.8 1.3-1.7-.6-5.8-3.2-9.9-7.1-11.3-3-1.1-6.3-.3-8.7 2.1-3.3 3.2-4.2 8.6-2.3 14.4.2.6.8 1 1.4 1 .2 0 .3 0 .5-.1.8-.3 1.2-1.1 1-1.9-1.5-4.6-1-8.9 1.5-11.3 1.6-1.5 3.7-2.1 5.6-1.4 1.8.6 3.2 2.3 4.1 4.6-4.6 1.5-9.4 5.9-9.1 13.6.2 5.3 2.8 9.1 6.8 10.1.6.1 1.2.2 1.8.2 2.3 0 4.3-1 5.3-2.7 1.7-2.9.1-5.4-1-7.2-.6-.9-1.1-1.8-1.1-2.5.1-.7.7-1.2 1.3-1.3zM1 5.3l14.2 4.9c.2.1.3.1.5.1.6 0 1.2-.4 1.4-1 .3-.8-.1-1.6-.9-1.9L2 2.5c-.8-.3-1.6.1-1.9.9-.3.8.1 1.6.9 1.9zM17.7 25.7c-.2-.8-1-1.3-1.8-1.1L1.2 27.7c-.8.2-1.3 1-1.1 1.8.2.7.8 1.2 1.5 1.2h.3l14.7-3.2c.7-.2 1.2-1 1.1-1.8zM23.1 39.5l-11.9 9.1c-.7.5-.8 1.4-.3 2.1.3.4.7.6 1.2.6.3 0 .6-.1.9-.3l12-9.1c.7-.5.8-1.4.3-2.1-.6-.6-1.5-.8-2.2-.3z"/></symbol><symbol viewBox="0 0 24 24" id="edit"><path d="M18.2 24H3.8C1.7 24 0 22.3 0 20.2V5.8C0 3.7 1.7 2 3.8 2H11c.6 0 1 .4 1 1s-.4 1-1 1H3.8C2.8 4 2 4.8 2 5.8v14.3c0 1 .8 1.8 1.8 1.8h14.3c1 0 1.8-.8 1.8-1.8V13c0-.6.4-1 1-1s1 .4 1 1v7.2c.1 2.1-1.6 3.8-3.7 3.8z"/><path d="M6 19c-.3 0-.5-.1-.7-.3-.2-.2-.3-.6-.3-.9l1-5c0-.2.1-.4.3-.5l12-12c.4-.4 1-.4 1.4 0l4 4c.4.4.4 1 0 1.4l-12 12c-.1.1-.3.2-.5.3l-5 1H6zm1.9-5.5l-.6 3.2 3.2-.6L21.6 5 19 2.4 7.9 13.5z"/></symbol><symbol viewBox="0 0 32 32" id="egg"><title>Egg</title><desc>Soft boiled egg on stand.</desc><path d="M16 22.8c-4.3 0-7.7-3.8-7.7-8.4v-2.2c0-.3.2-.5.5-.5h14.5c.3 0 .5.2.5.5v2.2c-.1 4.7-3.5 8.4-7.8 8.4zM9.3 12.7v1.7c0 4.1 3 7.4 6.7 7.4s6.7-3.3 6.7-7.4v-1.7H9.3z"/><path fill="none" d="M11.3 31.5h9.4M10.2 12.2v-.8C10.1 8 11.9.5 16 .5s5.9 7.5 5.9 10.9v.8M16 22.3v9.2"/></symbol><symbol viewBox="0 0 32 32" id="email"><title>Email icon</title><desc>Line drawing of an envelope.</desc><path d="M31.5 26.2H.5c-.3 0-.5-.2-.5-.5V6.3c0-.3.2-.5.5-.5h31c.3 0 .5.2.5.5v19.4c0 .3-.2.5-.5.5zM1 25.2h30V6.8H1v18.4z"/><path fill="none" d="M.5 6.3h31L16 20 .5 6.3"/></symbol><symbol viewBox="0 0 69 47" id="envelope"><g transform="translate(0 1)" stroke-width="5" stroke-linecap="round" stroke-linejoin="round" fill="none" fill-rule="evenodd"><path d="M66.267 43.5H2.5V2.17h63.767V43.5z"/><path d="M2.5 2.17h63.77L34.384 31.405 2.5 2.17h63.77"/></g></symbol><symbol viewBox="0 0 32 32" id="facebook"><title>Facebook Icon</title><desc>Casper on Facebook</desc><path d="M17.996 32H12V16H8v-5.514l4-.002-.007-3.248c0-4.498 1.22-7.236 6.52-7.236h4.41v5.515h-2.756c-2.064 0-2.163.77-2.163 2.21l-.008 2.76h4.96l-.585 5.513L18 16l-.003 16z"/></symbol><symbol viewBox="0 0 32 32" id="financing"><title>Financing Icon</title><desc>Coin with 0% in middle.</desc><g fill="none"><path d="M20.1 26.7v4.1M16 27.3v4.2M24.2 24.1v4.2M11.9 26.6v4.2M7.8 24v4.3M28.8 13.8v3.8c0 7.7-5.7 13.9-12.8 13.9S3.2 25.3 3.2 17.6v-3.8"/><ellipse cx="16" cy="13.8" rx="12.8" ry="13.3"/></g><text transform="matrix(.9664 0 0 1 8.493 17.417)" font-family="'Verlag-Black'" font-size="11.62">0%</text></symbol><symbol viewBox="0 0 612 792" id="firmness"><title>Firm mattress</title><path d="M553.1 602H58.9c-24.4 0-38.3-10.1-41.4-30-.1-.5-8.5-54.5-10.2-82.6-.5-8.5 6-15.8 14.5-16.4 8.5-.5 15.9 6 16.4 14.5 1.4 23.2 8.1 68.8 9.9 79.7.3 1.8.6 2.4.7 2.5.1 0 2.3 1.4 10.2 1.4h494.2c7.7 0 10-1.3 10.3-1.5 0 0 .3-.7.5-2.3 1.7-11 8.5-56.5 9.9-79.7.5-8.5 7.9-15 16.4-14.5 8.5.5 15 7.8 14.5 16.4-1.7 28.2-10.1 82.1-10.2 82.7-3.2 19.7-17.1 29.8-41.5 29.8z"/><path d="M589.5 503.9h-567c-8.9 0-16.4-4.2-20.2-11.2-3.8-7.2-2.9-15.8 2.4-23.5.4-.6.9-1.2 1.4-1.7l141.6-153.3c5.5-7 15.3-11.3 26.2-11.3h264.2c10.8 0 20.7 4.3 26.2 11.3l141.6 153.3c.5.6 1 1.1 1.4 1.7 5.3 7.7 6.2 16.3 2.4 23.5-3.7 7-11.3 11.2-20.2 11.2zM43.1 473H569L441 334.5c-.1-.2-.3-.3-.4-.5-.5-.2-1.3-.3-2.5-.3H173.9c-1.2 0-2 .2-2.5.3-.1.2-.3.3-.4.4L43.1 473z"/></symbol><symbol viewBox="0 0 32 32" id="french-press"><title>French Press</title><desc>French press from profile view.</desc><g fill="none"><path d="M21.2 12.5v19H10.9v-19c0-3 2.3-5.4 5.2-5.4s5.1 2.4 5.1 5.4zM16.1 6.9V3.7"/><ellipse cx="16.1" cy="2.1" rx="1.5" ry="1.6"/><path d="M21.2 12.5H7.4l3.5 3.5M21.2 15.6h3.4M21.2 26.2h3.4M24.6 13v15.8"/></g></symbol><symbol viewBox="0 0 47.6 62" id="globe"><title>Globe icon</title><desc>Image of a table top globe</desc><path d="M47.1 43.5l-8.3-8.4c3.1-3.3 5-7.6 5-12.5s-1.9-9.5-5.3-12.9-8-5.4-13-5.4c-4.8 0-9.2 1.9-12.4 4.9L4.3.4c-.6-.6-1.5-.6-2.1 0-.6.6-.6 1.6 0 2.2L6 6.4c-3.9 4.5-6 10.2-6 16.2 0 6.8 2.6 13.2 7.4 18.1 4.5 4.5 10.3 7.1 16.6 7.5V59h-6.3c-.8 0-1.5.7-1.5 1.5s.7 1.5 1.5 1.5h15.7c.8 0 1.5-.7 1.5-1.5s-.7-1.5-1.5-1.5H27V48.1a25 25 0 0 0 14.7-5.8l3.3 3.3c.3.3.7.4 1.1.4.4 0 .8-.1 1.1-.4.5-.6.5-1.5-.1-2.1zM25.6 7.3c4.1 0 7.9 1.6 10.8 4.5 2.9 2.9 4.5 6.7 4.4 10.8 0 8.4-6.9 15.2-15.3 15.2s-15.3-6.9-15.2-15.3c0-8.3 6.8-15.2 15.3-15.2zm-.1 37.9c-6.1 0-11.7-2.4-16-6.6S3 28.6 3 22.6c0-5.2 1.8-10.1 5-14.1l3 3c-2.4 3.1-3.8 6.9-3.8 11.1 0 10.1 8.2 18.3 18.2 18.3 4.2 0 8-1.4 11.1-3.8l3 3c-3.9 3.3-8.8 5.1-14 5.1z"/></symbol><symbol viewBox="0 0 41 41" id="gmap-arrow"><title>Slice 1</title><path d="M37.98 2.34C36.51.872 34.743.137 32.675.137H7.645C5.58.137 3.81.872 2.34 2.34.872 3.81.137 5.578.137 7.646v25.028c0 2.068.735 3.837 2.203 5.306 1.47 1.47 3.238 2.203 5.306 2.203h25.028c2.068 0 3.837-.734 5.305-2.203 1.468-1.47 2.202-3.238 2.202-5.306V7.646c0-2.068-.734-3.837-2.202-5.306zm-4.472 18.654c0 .73-.34 1.243-1.016 1.538a1.82 1.82 0 0 1-.652.13c-.47 0-.86-.165-1.173-.495l-3.754-3.754L12.99 32.335c-.33.33-.72.496-1.172.496-.453 0-.844-.164-1.174-.495l-2.66-2.66a1.603 1.603 0 0 1-.494-1.172c0-.452.165-.843.495-1.173l13.922-13.923-3.754-3.754c-.54-.504-.66-1.112-.365-1.825.295-.678.808-1.017 1.538-1.017H31.84c.452 0 .843.167 1.173.497.33.33.495.72.495 1.173v12.514z" fill="#444" fill-rule="evenodd"/></symbol><symbol viewBox="0 0 56.693 56.693" id="instagram"><title>Instagram Icon</title><desc>Casper on Instagram</desc><path d="M43.414 4.83H13c-5.283 0-9.58 4.298-9.58 9.58V44.827c0 5.283 4.297 9.58 9.58 9.58h30.415c5.283 0 9.58-4.297 9.58-9.58V14.41c0-5.283-4.298-9.58-9.58-9.58zm2.748 5.714l1.096-.004v8.403l-8.375.027-.03-8.402 7.31-.024zM21.132 24.53c1.587-2.197 4.163-3.638 7.075-3.638s5.488 1.44 7.074 3.638a8.677 8.677 0 0 1 1.653 5.088c0 4.81-3.918 8.725-8.727 8.725-4.812 0-8.726-3.914-8.726-8.725 0-1.9.618-3.654 1.65-5.088zm27.032 20.295c0 2.62-2.13 4.75-4.75 4.75H13c-2.62 0-4.75-2.13-4.75-4.75V24.53h7.4a13.483 13.483 0 0 0-1 5.088c0 7.473 6.08 13.557 13.557 13.557 7.475 0 13.555-6.084 13.555-13.557 0-1.8-.36-3.516-1-5.088h7.402v20.295z"/></symbol><symbol viewBox="0 0 32 32" id="life-jacket"><title>Life Jacket</title><desc>Life jacket with middle stripe.</desc><g fill="none"><path d="M16 31.5H2.2V11.4c5.1 0 5-3.7 5-3.7V.5h4.2C11.4 6 16 5.6 16 5.6s4.6.3 4.6-5.1h4.2v7.2s0 3.7 5 3.7v20.1H16zM16 5.6v25.9M29.7 17.9H2.6M29.7 24.3H2.6M13.5 21.2h5"/></g></symbol><symbol viewBox="0 0 32 32" id="life-saver"><title>Life Saver</title><desc>Life Saver with 4 quadrants.</desc><g fill="none"><ellipse cx="16" cy="16.2" rx="15.5" ry="15.7"/><ellipse cx="16" cy="16.2" rx="8.1" ry="8.1"/><path d="M8.9 11.6l-6-3.8M29.1 24.6l-6-3.8M8.9 20.8l-6 3.8M29.1 7.8l-6 3.8"/></g></symbol><symbol viewBox="0 0 100 100" id="lock"><title>Closed Lock</title><desc>This form is secure</desc><path d="M79.244 100H20.757a3.773 3.773 0 0 1-3.774-3.775V58.113a3.773 3.773 0 0 1 3.774-3.773h3.773V38.19c0-14.065 11.403-25.47 25.47-25.47 14.066 0 25.47 11.404 25.47 25.47v16.15h3.774a3.773 3.773 0 0 1 3.773 3.773v38.11A3.773 3.773 0 0 1 79.244 100zM63.482 38.945c0-7.445-6.037-13.48-13.48-13.48-7.447 0-13.482 6.035-13.482 13.48V54.34h26.963V38.945z"/></symbol><symbol viewBox="121.5 337.6 368.8 116.8" id="logo"><title>Casper Logo</title><path d="M236.8 362.2c-17.6 0-31 12.8-31 30.8s13.3 30.8 31 30.8c8.3 0 15.1-3.7 17.6-7v6.3h13.8V363h-13.8v6.3c-2.6-3.4-9.4-7.1-17.6-7.1m.5 48.7c-10.2 0-18.2-8.2-18.2-18s7.9-18 18.2-18c10 0 17.6 8.2 17.6 18s-7.6 18-17.6 18M356 362.2c-8.1 0-14.2 3.2-18.2 7v-6.3h-13.5v91.6l13.5-1.5v-36.3c3.9 4.1 10.5 7 18.2 7 18.4 0 30.6-12.1 30.6-30.8 0-18.8-12.2-30.7-30.6-30.7m-.6 48.7c-10.7 0-17.8-7.7-17.8-18 0-10.4 7-18 17.8-18s17.9 7.6 17.9 18-7.2 18-17.9 18m135-48.7c-8.7 0-13 3.1-15.9 7v-6.3h-13.6V423h13.6v-33.1c0-8.9 6-14.9 14.7-14.9h1.2v-12.8zm-67.8 0c-17.5 0-31.3 13.7-31.3 30.8s13.8 30.8 31.7 30.8c14.7 0 26.6-8 30.3-18.9h-16c-2 3.9-7.1 6.5-14.3 6.5-8.9 0-15.9-6.1-17.4-13.7h48c.2-1.5.4-3 .4-4.6-.1-17.3-13.9-30.9-31.4-30.9m-16.4 23.4c2-6.3 8.7-11.3 16.4-11.3 7.8 0 14.5 5 16.4 11.3h-32.8zM297 374c-2.8 0-5.6 1.3-5.6 4.6 0 3.8 3.9 5.1 11.2 7.7 10.1 3.6 14.9 8.6 14.9 17.8 0 9.5-8.1 19.5-21.8 19.5-14 0-21.2-10.3-21.7-18.9h13.1c.8 3.8 3.6 6.9 8.6 6.9s8-3.4 8-7.5c0-2.8-1-5.8-9.5-8-9.2-2.5-15.8-7.5-15.8-17.4 0-9 8-16.5 18.5-16.5 9.2 0 15.1 6.3 17.6 10.7l-11 5.2c-1.6-2.7-3.8-4.1-6.5-4.1"/><path d="M165.1 337.6c-24.6 0-43.6 19.2-43.6 43s19 43 43.6 43c15.5 0 30.2-8.4 36.9-20.5l-12.8-7c-4.9 8.8-13.6 13.8-24.1 13.8-7.9 0-15.3-3.1-20.3-8.5-5.4-5.7-8.3-13.2-8.3-20.9s2.9-15.1 8.3-20.9c5-5.4 12.4-8.5 20.3-8.5 8.3 0 13.3 2.9 16.8 5.4 3.6 2.7 7.7 5.3 14.1 5.3 12.1 0 17.3-9.7 18.4-14.8l-13.3-2.8c-.1.5-1 4.2-5.1 4.2-1.8 0-2.9-.7-5.8-2.9-4.7-3.1-11.2-7.9-25.1-7.9"/></symbol><symbol viewBox="0 0 49 32" id="mail"><title>Envelope</title><desc>Contact the Casper support team.</desc><path d="M1.723 2.954c1.23.738 19.692 10.83 20.43 11.077.74.493 1.478.74 2.463.74.985 0 1.723-.247 2.462-.493.738-.492 19.2-10.338 20.43-11.077 1.478-.985 2.71-3.2.247-3.2H1.478c-2.462 0-1.23 2.215.246 2.954zm46.523 5.66c-1.477.74-20.185 10.586-21.17 11.078-.984.492-1.476.492-2.46.492-.986 0-1.478 0-2.463-.492S2.46 9.354.983 8.615C0 7.877 0 8.615 0 9.107v20.185C0 30.522 1.475 32 2.706 32h43.815c1.23 0 2.708-1.477 2.708-2.708V9.107c0-.492 0-1.23-.985-.492z" fill="#fff"/></symbol><symbol viewBox="0 0 32 32" id="mattress"><title>Mattress</title><desc>Icon line drawing of the Casper Mattress</desc><g fill="none"><path d="M31.1 17.8c-.1 1.2-.5 3.6-.5 4.1-.1.6-.4.8-1.4.8H2.8c-1 0-1.3-.3-1.4-.8-.1-.5-.4-2.9-.5-4.1"/><path d="M16 17.8h15.1c.3 0 .5-.2.3-.5l-7.6-7.7c-.1-.2-.4-.3-.8-.3H9c-.4 0-.6.1-.8.3L.6 17.3c-.2.3-.1.5.3.5H16z"/></g></symbol><symbol viewBox="0 0 32 32" id="mattress-layers"><title>Mattress Layers icon</title><desc>Line drawing showing 3 layers of the mattress.</desc><path fill="none" d="M-375.5-128.6l-7.5-7.3c-.8-.8-1.3-1.8-1.3-2.9 0-2.3 1.9-4.2 4.3-4.2h19.2l7.5 7.3h-19.2c-2.4 0-4.3 1.9-4.3 4.2s1.9 4.2 4.3 4.2h2.6M-365.7-130.2h10.6M-365.7-132.9h10.6M-374.4-135.3l-7.4-7.2M-353.2-135.7c-1.3 1-2.1 2.5-2.1 4.2s.8 3.2 2.1 4.2"/><path fill="none" d="M-365.7-125.1l-2.1-1.7-2.1 1.7v-7.8h4.2zM-376.5-132.9h6.6M-369.9-130.2h-6.6M-365.7-127.4h12.5"/><ellipse transform="matrix(1 -.0035 .0035 1 .454 -1.6)" fill="none" cx="-456.7" cy="-130.6" rx="3.3" ry="3.1"/><ellipse transform="matrix(1 -.0035 .0035 1 .455 -1.514)" fill="none" cx="-432.3" cy="-130.7" rx="3.3" ry="3.1"/><path fill="none" d="M-451.1-130.6l5-4.7h-7.1l-3.5 4.7h5.6l-3.3-7.4"/><path fill="none" d="M-445.6-137.6h-1.2l2 6.7.8.3h11.7M-455.2-138.1l2.5.5M-443.4-132.3h6.3M-443.4-134h6.3M-443.4-137.2h6.3M-443.4-138.9h6.3"/><path d="M-437.2-130.1h-6.3c-.3 0-.5-.2-.5-.5v-10c0-.3.2-.5.5-.5h6.3c.3 0 .5.2.5.5v10c0 .3-.2.5-.5.5zm-5.7-1h5.3v-9h-5.3v9z"/><g fill="none"><path d="M-149.7-136.7v-4.5c0-3.6 2.5-2.7 3.7-2.6 4.8.6 8.1.5 8.1-1.4 0-2.1-7.7-1.9-5.5 1.6"/><path d="M-147-144.1c-1.2-2.7 1.6-5.4 6.7-5.4 4.8 0 6.4 2.2 6.4 4 0 3.8-4.2 5.8-10.8 4.8-1.9-.3-1.9.6-1.9 1.8v3.2"/><path d="M-151.5-137.3l9.7 3.3 9.8-3.3M-151.5-137.3l1.8-.6M-132-137.3l-1.9-.6"/><path d="M-145.2-128.3l-9.8-3.3 3.5-5.7 9.7 3.3z"/><path d="M-138.3-128.3l9.7-3.3-3.4-5.7-9.8 3.3zM-141.8-134v15.5M-133.9-145.2v8.1"/><path d="M-132-130.4v8.6l-9.8 3.3-9.7-3.3v-8.6"/></g><path d="M-379.2-55.7v-3.5l-.9.3-.4-1 2.1-.8h.4v5h-1.2zM-374.5-55.6c-1.5 0-2.2-1.2-2.2-2.5s.7-2.5 2.2-2.5c1.5 0 2.2 1.2 2.2 2.5s-.8 2.5-2.2 2.5zm0-4c-.6 0-.9.6-.9 1.5s.3 1.5.9 1.5c.6 0 .9-.6.9-1.5s-.3-1.5-.9-1.5zM-369.4-55.6c-1.5 0-2.2-1.2-2.2-2.5s.7-2.5 2.2-2.5c1.5 0 2.2 1.2 2.2 2.5s-.7 2.5-2.2 2.5zm0-4c-.6 0-.9.6-.9 1.5s.3 1.5.9 1.5c.6 0 .9-.6.9-1.5s-.3-1.5-.9-1.5z"/><path fill="none" d="M-354.3-52.1c.3-1.4.4-3.7.4-6.2s-.2-4.8-.4-6.2c.9-.9 1.2-2 .8-2.5-.4-.4-1.4-.1-2.3.7-2.1-.5-7.1-.9-13-.9s-10.9.4-13 1c-.8-.8-1.8-1.2-2.3-.7-.4.5-.1 1.6.8 2.5-.3 1.4-.4 3.7-.4 6.2s.2 4.8.4 6.2c-.9.9-1.2 2-.8 2.5.4.4 1.4.1 2.3-.7 2.1.5 7.1.9 13 .9s10.9-.4 13-1c.8.8 1.8 1.2 2.3.7.5-.4.1-1.6-.8-2.5.1 0 0 0 0 0z"/><g fill="none"><path d="M-362.8-57.8c-.5-.9-.3-2.1.3-2.8-.4 0-.7.1-1.1.3-1.3.6-1.9 2.2-1.2 3.5.7 1.3 2.3 1.8 3.7 1.1.3-.2.6-.4.9-.7-1.1.1-2.1-.5-2.6-1.4z"/><path d="M-362.5-60.6c-.7.8-.8 1.9-.3 2.8.5.9 1.5 1.5 2.6 1.4"/></g><path fill="none" d="M-358.9-61.8c0 .7-1.2 1.9-2 1.9.8 0 2 1.1 2 1.9 0-.7 1.2-1.9 2-1.9-.8-.1-2-1.2-2-1.9z"/><path fill="#010101" d="M-286.9-54.7l9.9-7.6h-12l-4-12-4 12h-12l9.9 7.6-3.9 12.4 10-7.7 10 7.7-3.9-12.4z"/><path fill="none" d="M-217.1-72.6l4.8 9.4 10.7 1.5-7.8 7.4 1.9 10.3-9.6-4.9-9.6 4.9 1.8-10.3-7.7-7.4 10.7-1.5z"/><g fill="none"><path d="M-220.7-131.8l-10-3.3 3.6-5.7 10 3.3zM-213.6-131.8l10-3.3-3.5-5.7-10 3.3zM-217.1-137.5v15.6"/><path d="M-207.1-133.9v8.7l-10 3.3-10-3.3v-8.7M-211.6-146.2l10 3.4-5.5 2-10-3.4zM-222.6-146.2l-10 3.4 5.5 2 10-3.4zM-217.1-137.5v15.6"/><path d="M-207.1-133.3v8.1l-10 3.3-10-3.3v-8.2"/></g><path fill="none" d="M-282.5-132.9h-6.7c-1 0-1.9-.8-1.9-1.9v-.5c0-1.3 1.1-2.4 2.4-2.4h6.7c1 0 1.8.8 1.8 1.8v.6c.1 1.3-.9 2.4-2.3 2.4zM-281.6-123.3h-7.5c-1 0-1.9-.8-1.9-1.9v-.5c0-1.3 1.1-2.4 2.4-2.4h7c1 0 1.8.8 1.8 1.8v1.1c0 1-.8 1.9-1.8 1.9z"/><path fill="none" d="M-283.3-118.5h-4.5c-1 0-1.9-.8-1.9-1.9v-.5c0-1.3 1.1-2.4 2.4-2.4h3.4c1.3 0 2.4 1.1 2.4 2.4v.6c0 .9-.8 1.8-1.8 1.8zM-280.2-128.1h-10c-1 0-1.9-.8-1.9-1.9v-.5c0-1.3 1.1-2.4 2.4-2.4h9.4c1 0 1.8.8 1.8 1.8v1.1c.2 1-.6 1.9-1.7 1.9zM-296.8-128.4s2.9-.2 4.7-2.7"/><path fill="none" d="M-285.5-118.5h-8.9s-5.6.3-7.1-4.5h-6.1v-13.4h6.6c1.1-.9 4.5-4.2 5.3-4.8.6-.5 1.4-1.1 2.2-1.5.7-.4 1.2-.7 1.9-1 .3-.2.7-.3 1-.6.3-.2.5-.5.8-.8.6-.8 1.2-1.7 1.7-2.5l.6-1.2c.5-.7 1.4-.7 2.1-.4.8.4 1.2 1.2 1.5 2 0 0 .8 2.4-.9 5 0 0-2.2 3.3-3.5 4.4"/><g><path fill="none" d="M-54.3-129.7c-3.9 0-7.1-3.2-7.1-7.1 0-1.8.7-3.4 1.8-4.7 0 0-7 .8-7 7.1 0 3.9 3.2 7.1 7.1 7.1 3.6 0 5.2-2.4 5.2-2.4zM-76.3-141.6c0 2.6-2.1 4.8-4.8 4.8 2.6 0 4.8 2.1 4.8 4.8 0-2.6 2.1-4.8 4.8-4.8-2.7 0-4.8-2.2-4.8-4.8zM-71.1-132.2c0 1.2-1.6 2.8-2.8 2.8 1.2 0 2.8 1.6 2.8 2.8 0-1.2 1.6-2.8 2.8-2.8-1.1.1-2.8-1.5-2.8-2.8zM-52.9-140.7c0 1.2-1.6 2.8-2.8 2.8 1.2 0 2.8 1.6 2.8 2.8 0-1.2 1.6-2.8 2.8-2.8-1.2 0-2.8-1.6-2.8-2.8z"/></g><g fill="none"><ellipse cx="16" cy="-134" rx="8.4" ry="8.2"/><path d="M16-149.5v3.3M6.6-146.6l2 2.7M.9-138.8l3.2 1M.9-129.3l3.2-1M6.6-121.5l2-2.7M16-118.5v-3.4M25.4-121.5l-2-2.7M31.1-129.3l-3.2-1M31.1-138.8l-3.2 1M25.4-146.6l-2 2.7"/></g><g><path fill="none" d="M-433.7-53.3c0 1.1-1 2.1-2.2 2.1-1.3 0-2.2-.9-2.2-2.1s1-2.1 2.2-2.1c1.3 0 2.2 1 2.2 2.1zm-17.2.2c0 1.1-1 2.1-2.2 2.1-1.3 0-2.2-.9-2.2-2.1s1-2.1 2.2-2.1 2.2 1 2.2 2.1zm19.2-.2h2.7m-19.8 0h8.6m-5.7-2.5v-9.8h15.5v9.9m-18-8.8h-5.1l-2.7 4.7-3.8 1.2v5.3h2.8m13.6-9.6h11"/></g><g><path fill="none" d="M-126.3-66.9h-17.9M-126.3-62.6h-17.9M-126.3-58.3h-17.9M-126.3-54h-31M-126.3-49.7h-31"/><path d="M-148.3-57.8h-9c-.3 0-.5-.2-.5-.5v-8.6c0-.3.2-.5.5-.5h9c.3 0 .5.2.5.5v8.6c0 .3-.2.5-.5.5zm-8.5-1h8v-7.6h-8v7.6z"/></g><g fill="none"><path d="M-61.5-47.6v4.1M-65.6-47v4.2M-57.4-50.2v4.2M-69.7-47.7v4.2M-73.8-50.3v4.3M-52.8-60.5v3.8c0 7.7-5.7 13.9-12.8 13.9S-78.4-49-78.4-56.7v-3.8"/><ellipse cx="-65.6" cy="-60.5" rx="12.8" ry="13.3"/></g><text transform="matrix(.9664 0 0 1 -73.11 -56.877)" font-family="'Verlag-Black'" font-size="11.62">0%</text><g fill="none"><path d="M6.1-61.2H4.3M16.5-64.6c0-1.9 1.6-3.4 3.6-3.4s3.6 1.5 3.6 3.4-1.6 3.4-3.6 3.4H8.8M16.5-52c0 1.9 1.6 3.4 3.6 3.4s3.6-1.5 3.6-3.4-1.6-3.4-3.6-3.4H4.3M11.8-58.3H.5M27.1-62.5c.5-.4 1.1-.7 1.8-.7 1.4 0 2.6 1.1 2.6 2.5s-1.2 2.5-2.6 2.5H14.5"/></g><g fill="none"><path d="M-452.2 6.4v3.2"/><ellipse cx="-452.2" cy="12.5" rx="3" ry="2.9"/><path d="M-443.9 14.6c0 3.4-2.9 6.2-6.4 6.2h-4.2M-453.1 15.4l-4.2 15.5M-451.4 15.4l4.3 15.7M-431.7.5H-447l15.3 31z"/><path d="M-435.4 5h-4.7l4.7 9.4z"/></g><g fill="none"><path d="M-384.2 15.9h27l-4-5.8h-19.1zM-357.2 15.9l-13.5 13.8-13.5-13.8M-361.2 10.1l-9.5 19.6M-380.3 10.1l9.6 19.6"/><path d="M-364 15.9l-6.7-5.8-6.8 5.9M-353.2 8.2l-2.8 1.6M-360 6.8l2.2-2.5M-364.6 5.3l1.3-3"/></g><g fill="none"><path d="M-277.9 17.8c-.1 1.2-.5 3.6-.5 4.1-.1.6-.4.8-1.4.8h-26.4c-1 0-1.3-.3-1.4-.8-.1-.4-.5-2.8-.5-4.1"/><path d="M-293 17.8h15.1c.3 0 .5-.2.3-.5l-7.6-7.7c-.1-.2-.4-.3-.8-.3h-14.1c-.4 0-.6.1-.8.3l-7.6 7.7c-.2.3-.1.5.3.5h15.2z"/></g><g fill="none"><path d="M-202 17.8c-.1 1.2-.5 3.6-.5 4.1-.1.6-.4.8-1.4.8H-230.2c-1 0-1.3-.3-1.4-.8-.1-.4-.5-2.8-.5-4.1"/><path d="M-217.1 17.8h15.1c.3 0 .5-.2.3-.5l-7.6-7.7c-.1-.2-.4-.3-.8-.3h-14.1c-.4 0-.6.1-.8.3l-7.6 7.7c-.2.3-.1.5.3.5h15.2z"/></g><path fill="none" d="M-230.1 3h29v7.7h-29z"/><text transform="matrix(.9664 0 0 1 -230.122 5.58)" font-family="'Calibre-Thin'" font-size="4">*add check mark</text><g><path d="M-126.6 32h-30.3c-.3 0-.5-.2-.5-.5V.5c0-.3.2-.5.5-.5h30.3c.3 0 .5.2.5.5v31c0 .3-.3.5-.5.5zm-29.8-1h29.3V1h-29.3v30z"/><path fill="none" d="M-141.7 11.4V.5M-146.7 7.5V1.3M-151.7 7.5V.8M-136.7 7.5V1.3M-131.7 7.5V.8M-140.8 26.2v-9.7l-5.3 6.4h7.7"/></g><g><ellipse fill="#FFF" stroke="#2E52A4" stroke-linecap="round" stroke-linejoin="round" stroke-miterlimit="10" cx="-65.6" cy="16" rx="15.5" ry="15.1"/><path fill="#FFF" stroke="#2E52A4" stroke-linecap="round" stroke-linejoin="round" stroke-miterlimit="10" d="M-81.1 16h31M-76.3 13.1V5.5M-71 13.1V2.5M-60.3 13.1V2.5M-65.6 13.1V1.7M-55 13.1V5.3"/><g fill="#2E52A4"><ellipse cx="-78.4" cy="18.9" rx=".9" ry=".9"/><ellipse cx="-75.2" cy="18.9" rx=".9" ry=".9"/><ellipse cx="-72" cy="18.9" rx=".9" ry=".9"/><ellipse cx="-68.8" cy="18.9" rx=".9" ry=".9"/><ellipse cx="-65.7" cy="18.9" rx=".9" ry=".9"/><ellipse cx="-62.5" cy="18.9" rx=".9" ry=".9"/><ellipse cx="-59.3" cy="18.9" rx=".9" ry=".9"/><ellipse cx="-56.1" cy="18.9" rx=".9" ry=".9"/><ellipse cx="-52.9" cy="18.9" rx=".9" ry=".9"/><ellipse cx="-76.8" cy="22" rx=".9" ry=".9"/><ellipse cx="-73.6" cy="22" rx=".9" ry=".9"/><ellipse cx="-70.4" cy="22" rx=".9" ry=".9"/><ellipse cx="-67.2" cy="22" rx=".9" ry=".9"/><ellipse cx="-64.1" cy="22" rx=".9" ry=".9"/><ellipse cx="-60.9" cy="22" rx=".9" ry=".9"/><ellipse cx="-57.7" cy="22" rx=".9" ry=".9"/><ellipse cx="-54.5" cy="22" rx=".9" ry=".9"/><ellipse cx="-75.2" cy="25.1" rx=".9" ry=".9"/><ellipse cx="-72" cy="25.1" rx=".9" ry=".9"/><ellipse cx="-68.8" cy="25.1" rx=".9" ry=".9"/><ellipse cx="-65.7" cy="25.1" rx=".9" ry=".9"/><ellipse cx="-62.5" cy="25.1" rx=".9" ry=".9"/><ellipse cx="-59.3" cy="25.1" rx=".9" ry=".9"/><ellipse cx="-56.1" cy="25.1" rx=".9" ry=".9"/><ellipse cx="-73.6" cy="28.2" rx=".9" ry=".9"/><ellipse cx="-70.4" cy="28.2" rx=".9" ry=".9"/><ellipse cx="-67.2" cy="28.2" rx=".9" ry=".9"/><ellipse cx="-64.1" cy="28.2" rx=".9" ry=".9"/><ellipse cx="-60.9" cy="28.2" rx=".9" ry=".9"/><ellipse cx="-57.7" cy="28.2" rx=".9" ry=".9"/></g></g><g><path d="M31.5 23.5H.5c-.3 0-.5-.2-.5-.5v-5.6c0-.2.2-.4.5-.4h31c.3 0 .5.2.5.5V23c0 .3-.2.5-.5.5zM1 22.5h30V18H1v4.5zM31.5 15.2H.5c-.3 0-.5-.2-.5-.5v-3c0-.3.2-.5.5-.5h31c.3 0 .5.2.5.5v3c0 .3-.2.5-.5.5zM1 14.2h30v-2H1v2z"/><path fill="none" d="M31.5 9H.5"/></g></symbol><symbol viewBox="0 0 32 32" id="measure"><title>Measure icon</title><desc>Protractor and compass.</desc><g fill="none"><path d="M8.3 6.4v3.2"/><ellipse cx="8.3" cy="12.5" rx="3" ry="2.9"/><path d="M16.6 14.6c0 3.4-2.9 6.2-6.4 6.2H6M7.4 15.4L3.2 30.9M9.1 15.4l4.3 15.7M28.8.5H13.6l15.2 31z"/><path d="M25.1 5h-4.6l4.6 9.4z"/></g></symbol><symbol viewBox="0 0 32 32" id="moon-stars"><title>Crescent moon with stars</title><desc>A crescent moon flanked by twinkling stars.</desc><path fill="none" d="M27.3 20.4c-3.9 0-7.1-3.2-7.1-7.1 0-1.8.7-3.4 1.8-4.7 0 0-7 .8-7 7.1 0 3.9 3.2 7.1 7.1 7.1 3.6-.1 5.2-2.4 5.2-2.4zM5.3 8.4c0 2.6-2.1 4.8-4.8 4.8 2.6 0 4.8 2.1 4.8 4.8 0-2.6 2.1-4.8 4.8-4.8-2.7 0-4.8-2.1-4.8-4.8zM10.6 17.9c0 1.2-1.6 2.8-2.8 2.8 1.2 0 2.8 1.6 2.8 2.8 0-1.2 1.6-2.8 2.8-2.8-1.2 0-2.8-1.6-2.8-2.8zM28.7 9.3c0 1.2-1.6 2.8-2.8 2.8 1.2 0 2.8 1.6 2.8 2.8 0-1.2 1.6-2.8 2.8-2.8-1.2.1-2.8-1.5-2.8-2.8z"/></symbol><symbol viewBox="0 0 18.5 14.7" id="offsite"><path d="M18.4 6L12.2.1c-.2-.1-.4-.1-.6-.1-.2.1-.3.2-.3.4v3.9C1.3 4.6 0 14.1 0 14.2c0 .2.1.4.3.5h.1c.2 0 .3-.1.4-.2 2.9-5 7.8-6 9.8-6h.6v3.9c0 .2.1.3.3.4.2.1.4 0 .5-.1l6.3-6.1c.1-.1.1-.2.1-.3.1-.1.1-.2 0-.3z"/></symbol><symbol viewBox="0 0 30.8 28.1" id="oncall-active"><title>We're available</title><desc>Pictorial representation of an ear listening.</desc><path d="M23 28.1c-1.3 0-2.7-.3-3.8-1-2.1-1.3-3.2-3.5-3.1-6.3.1-2.2-.8-3.5-1.9-4.9-1.1-1.5-2.4-3.2-2.4-6.2s1-5.6 3-7.3C16.5.9 18.8 0 21.2 0c4 0 8.1 2.6 8.1 7.4 0 .5-.4.9-.9.9s-.9-.4-.9-.9c0-3.9-3.3-5.7-6.3-5.7-2 0-3.9.7-5.2 1.9-1.6 1.4-2.4 3.5-2.4 6 0 2.4 1 3.7 2 5.1 1.1 1.5 2.4 3.2 2.3 6-.1 2.7 1.2 4 2.2 4.7 1.6 1 4 1 5.7.1 1.4-.8 2.2-2.1 2.2-3.6 0-.5.4-.9.9-.9s.9.4.9.9c0 2.2-1.1 4.1-3.1 5.2-1.1.7-2.4 1-3.7 1z"/><path d="M17.6 13.5c-.4 0-.7-.2-.8-.6-1-3-.5-5.8 1.2-7.5 1.3-1.2 3-1.6 4.6-1.1 2 .7 3.4 2.9 3.7 5.9.1.5-.3.9-.8 1-.5.1-.9-.3-1-.8-.3-2.3-1.2-4-2.6-4.5-.9-.3-2-.1-2.8.7-1.3 1.2-1.5 3.4-.8 5.7.2.5-.1 1-.6 1.1 0 .1 0 .1-.1.1z"/><path d="M23.9 20.7c-.3 0-.7 0-1-.1-2.1-.5-3.5-2.5-3.6-5.3C19.1 11 22 8.7 24.5 8c.5-.1 1 .2 1.1.6.1.5-.2 1-.6 1.1-.7.2-4.1 1.3-3.9 5.5.1 2.8 1.6 3.5 2.2 3.7.9.2 1.6-.1 1.9-.5.3-.6.1-1.1-.5-2-.4-.7-.8-1.3-.8-2.2 0-1.1.7-2.1 1.8-2.4 1.1-.3 2.2.2 2.8 1.3.2.4.1 1-.3 1.2-.4.2-1 .1-1.2-.3-.2-.4-.5-.5-.8-.4-.2.1-.5.3-.5.6s.3.8.6 1.2c.6 1 1.4 2.3.5 3.8-.6 1-1.7 1.5-2.9 1.5zM8.2 5.5h-.3L.6 2.9c-.5-.1-.7-.6-.6-1.1s.7-.7 1.1-.5l7.3 2.5c.6.2.8.7.7 1.1-.2.4-.5.6-.9.6zM.9 16.1c-.4 0-.8-.3-.9-.7-.1-.5.2-1 .7-1.1l7.6-1.6c.5-.1 1 .2 1.1.7.1.5-.2 1-.7 1.1L1.1 16c-.1.1-.2.1-.2.1zM6.4 26.8c-.3 0-.5-.1-.7-.3-.3-.4-.2-.9.2-1.2l6.2-4.7c.4-.3.9-.2 1.2.2.3.4.2.9-.2 1.2l-6.2 4.7c-.1 0-.3.1-.5.1z"/></symbol><symbol viewBox="0 0 32 32" id="open-box"><title>Open Box</title><desc>Empty box with 4 open flaps.</desc><g fill="none"><path d="M12.5 18.3L2.5 15 6 9.2l10 3.3zM19.5 18.3l10-3.3L26 9.2l-10 3.3zM16 12.5v15.6"/><path d="M26 16.1v8.7l-10 3.3-10-3.3v-8.7M21.5 3.9l10 3.3-5.5 2-10-3.3zM10.5 3.9L.5 7.2l5.5 2 10-3.3zM16 12.5v15.6"/><path d="M26 16.7v8.1l-10 3.3-10-3.3v-8.2"/></g></symbol><symbol viewBox="0 0 32 32" id="partner"><title>Couple icon</title><desc>Icon representation of a couple.</desc><g fill="none"><path d="M1 19.7c-1.9-5.4 1.6-9.8 6.5-9.8s8.4 4.4 6.5 9.8M12.2 11.7l-1.5 17.7M2.8 11.7l1.5 17.7M6.4 29.4l-.3-8.6h2.8l-.3 8.6"/><circle cx="7.5" cy="6.2" r="3.6"/><g><path d="M18 19.7c-1.9-5.4 1.6-9.8 6.5-9.8s8.4 4.4 6.5 9.8M29.2 11.7l-1.5 17.7M19.8 11.7l1.5 17.7M23.4 29.4l-.3-8.6h2.7l-.2 8.6"/><circle cx="24.5" cy="6.2" r="3.6"/></g></g></symbol><symbol viewBox="0 0 32 32" id="phone"><title>Phone</title><desc>Call Casper.</desc><path d="M31.6 26.8c-1.8 4.4-6 5.2-7.4 5.2-.4 0-6.8.4-15.9-8.3C1 16.7.2 9.3 0 7.7 0 6.3.4 3 5.2.4 5.8 0 7 0 7.2.2s4 6.6 4.2 7c.2.4.2.4.2.6 0 .4-.1.7-.6 1.2-.4.4-.8.8-1.4 1.2s-1 .8-1.4 1.2c-.4.4-.6.8-.6 1 0 .8.6 3.2 5 7.2 4.4 3.8 6.6 4.9 6.8 5 .3.1.4.2.6.2.2 0 .6-.2 1-.6.4-.4 1.8-2.4 2.2-2.8.4-.4.8-.6 1.2-.6.2 0 .4 0 .6.2.3.2 6.6 3.9 7 4.2.2 0 0 1-.4 1.6"/></symbol><symbol viewBox="0 0 32 32" id="pig"><title>Pig</title><desc>A drawing of a pig with a tail.</desc><g fill="none"><path d="M17.7 26.3l1.3 4.5M24.3 26.3L23 30.8M31.3 30.8h-3.2c5.9-6.4 3.2-15.2-1.1-16.1l-.7-.2M10.8 30.8H14c-6-6.4-3.3-15.2 1-16l.6-.2"/><path d="M10.3 23.8c-1.8 1-7-.4-5.5-4.6.9-2.3 4.6-1.1 2.5 1.8-1.4 1.9-6 1.4-6.8-.6M29.8 1.2s-3.2-.5-5 1.5c-.1.1-.2.2-.2.4-1.1-.6-2.3-.9-3.6-.9-1.3 0-2.5.3-3.6.9-.1-.1-.1-.2-.2-.4-1.8-2-5-1.5-5-1.5s-.8 3 1.1 5.1c.2.3.5.5.9.6-.3.8-.5 1.7-.5 2.6 0 4.1 3.3 7.3 7.3 7.3s7.3-3.3 7.3-7.3c0-.9-.2-1.8-.5-2.6.3-.1.6-.3.9-.6 1.9-2.1 1.1-5.1 1.1-5.1z"/><ellipse cx="21" cy="10.7" rx="3.2" ry="2.6"/></g><circle cx="20" cy="10.7" r=".6"/><circle cx="21.9" cy="10.7" r=".6"/></symbol><symbol viewBox="0 0 32 32" id="piggy-bank"><title>Piggy Bank</title><desc>Piggy bank with zigzag tail from profile view.</desc><path fill="none" d="M6.7 9.5v-5l3.2 2.4"/><path fill="none" d="M18.4 8.6h-2l-6.5-5v5c-4.1 0-6.8 3.9-6.8 6.8-2 0-2.7.7-2.7 1.6v3.5c0 .9.7 1.6 2.7 1.6 0 0 3.1 2.7 4.7 3.6l.5 2.8H12l.5-2.8h3.7l.5 2.8h3.6l.5-2.8c2.7 0 5.1-1.9 5.1-5.5v-4.1c-.2-4.2-3.2-7.5-7.5-7.5zM25.9 18.5l3.1-3.1v3.3l2.5-2.4"/><ellipse cx="7.9" cy="16.1" rx=".8" ry=".8"/></symbol><symbol viewBox="0 0 32 32" id="pillow"><title>100 night trial icon</title><desc>Pillow with number 100, moon, and star in middle.</desc><path d="M5.6 18.6v-3.5l-.9.3-.4-1 2.1-.8h.4v5H5.6zM10.2 18.7c-1.5 0-2.2-1.2-2.2-2.5s.7-2.5 2.2-2.5c1.5 0 2.2 1.2 2.2 2.5s-.7 2.5-2.2 2.5zm0-4c-.6 0-.9.6-.9 1.5s.3 1.5.9 1.5c.6 0 .9-.6.9-1.5s-.3-1.5-.9-1.5zM15.3 18.7c-1.5 0-2.2-1.2-2.2-2.5s.7-2.5 2.2-2.5c1.5 0 2.2 1.2 2.2 2.5s-.7 2.5-2.2 2.5zm.1-4c-.6 0-.9.6-.9 1.5s.3 1.5.9 1.5c.6 0 .9-.6.9-1.5-.1-.9-.3-1.5-.9-1.5z"/><path fill="none" d="M30.5 22.2c.3-1.4.4-3.7.4-6.2s-.2-4.8-.4-6.2c.9-.9 1.2-2 .8-2.5-.4-.5-1.4-.2-2.3.7-2.1-.6-7.1-1-13-.9-5.9 0-10.9.4-13 1-.9-.9-1.9-1.3-2.3-.8-.4.4-.1 1.6.8 2.5-.3 1.4-.4 3.7-.4 6.2s.2 4.8.4 6.2c-.9.9-1.2 2-.8 2.5.4.5 1.4.2 2.3-.7 2.1.5 7.1.9 13 .9s10.9-.4 13-1c.8.8 1.8 1.2 2.3.7.4-.3.1-1.5-.8-2.4z"/><g fill="none"><path d="M21.9 16.5c-.5-.9-.3-2.1.3-2.8-.4 0-.7.1-1.1.3-1.3.6-1.9 2.2-1.2 3.5.7 1.3 2.3 1.8 3.7 1.1.3-.2.6-.4.9-.7-1 .1-2.1-.5-2.6-1.4z"/><path d="M22.3 13.7c-.7.8-.8 1.9-.3 2.8.5.9 1.5 1.5 2.6 1.4"/></g><path fill="none" d="M25.9 12.4c0 .7-1.2 1.9-2 1.9.8 0 2 1.1 2 1.9 0-.7 1.2-1.9 2-1.9-.8 0-2-1.1-2-1.9z"/></symbol><symbol viewBox="0 0 14 16" id="pinterest"><title>Pinterest Icon</title><desc>Visit Casper on Pinterest</desc><path d="M13.148 4.45C12.712 1.286 9.56-.324 6.198.053 3.54.352.89 2.5.78 5.574c-.067 1.876.465 3.284 2.25 3.68.773-1.37-.25-1.668-.41-2.66-.654-4.05 4.673-6.815 7.463-3.985 1.93 1.96.66 7.985-2.453 7.358-2.98-.598 1.46-5.395-.92-6.336-1.933-.766-2.96 2.34-2.043 3.884C4.13 10.17 2.97 12.67 3.44 16c1.52-1.103 2.033-3.215 2.453-5.418.764.465 1.173.947 2.147 1.022 3.593.278 5.6-3.587 5.108-7.155z"/></symbol><symbol viewBox="0 0 39.8 39.7" id="pointer"><title>Pointer arrow icon</title><desc>Close arrow icon used that points to Naptour content.</desc><path d="M34.2 30.6L39.7 2c.1-.5 0-1.1-.4-1.6-.4-.4-1-.6-1.6-.4L9.2 5.6c-.4.1-.7.2-.9.4-.6.6-.6 1.7 0 2.3l.3.3 8.8 5.5L0 30.1l9.9 9.5L25.7 22l5.5 9.1.3.3c.6.6 1.7.6 2.3 0 .2-.2.3-.5.4-.8z"/></symbol><symbol viewBox="0 0 36 26" id="quote"><title>Quote</title><desc>Open and close quote icon</desc><path d="M.4 17.8C.4 10.5 5 4.9 15.3.5l1.6 2.6c-7.5 3.3-11.4 7.6-12 12l.6.3c.8-.5 1.8-1 2.9-1 2.7 0 4.7 2.2 4.7 5 0 3.3-2.4 6-5.7 6-4.3.1-7-3.1-7-7.6zm18.7 0C19.1 10.5 23.6 5 34 .5l1.6 2.6c-7.5 3.4-11.5 7.6-12.1 12.1l.6.3c.8-.5 1.8-1 2.9-1 2.7 0 4.7 2.2 4.7 5 0 3.3-2.4 6-5.7 6-4.2 0-6.9-3.2-6.9-7.7z"/></symbol><symbol viewBox="0 0 32 32" id="review-clock"><title>Analog clock</title><desc>Icon of an analog alarm clock.</desc><path fill="none" d="M23.8 31.5l-2.2-3.8M8.2 31.5l2.2-3.8"/><ellipse fill="none" cx="16" cy="16" rx="13.1" ry="12.9"/><path fill="none" d="M16 7.3v8.6M16 15.9h5.2M5.3 8.2c-.7-.8-1.1-1.9-1.1-3C4.2 2.6 6.3.6 8.9.6c1.8 0 3.4 1.1 4.2 2.6M18.8 3.4c.7-1.7 2.4-2.9 4.3-2.9 2.6 0 4.7 2.1 4.7 4.6 0 1.2-.5 2.4-1.3 3.2"/></symbol><symbol viewBox="0 0 32 32" id="ruler"><title>Measurement icon</title><desc>Square ruler with 4 in middle.</desc><path d="M31.1 32H.9c-.3 0-.5-.2-.5-.5V.5C.4.2.6 0 .9 0h30.3c.3 0 .5.2.5.5v31c-.1.3-.3.5-.6.5zM1.4 31h29.3V1H1.4v30z"/><path fill="none" d="M16.1 11.4V.5M11.1 7.5V1.3M6.1 7.5V.8M21.1 7.5V1.3M26.1 7.5V.8M17 26.2v-9.7l-5.3 6.4h7.6"/></symbol><symbol viewBox="0 0 32 32" id="sad"><title>Sad face</title><desc>Circle face with a sad expression</desc><ellipse cx="10.7" cy="11.9" rx="1.6" ry="1.6"/><ellipse cx="21.3" cy="11.9" rx="1.6" ry="1.6"/><ellipse fill="none" cx="16" cy="16" rx="15.5" ry="15.4"/><path fill="none" d="M9.8 22.1c1.7-1.3 3.9-2.1 6.2-2.1 2.3 0 4.5.8 6.2 2.1"/></symbol><symbol viewBox="0 0 32 32" id="sailboat"><title>Sailbot</title><desc>Sailboat with full sail up.</desc><g fill="none"><path d="M16 .5v26.3M24 31.5H7.7c-2 0-3.7-1.7-3.7-3.7v-1h23.7v1c0 2-1.7 3.7-3.7 3.7zM16 7.4L27.7 18c.6.6.2 1.6-.7 1.6H4.9c-.8 0-1.2-.8-.8-1.5L16 3h3.9"/></g></symbol><symbol viewBox="0 0 32 32" id="sms"><title>Cell phone icon</title><desc>Line drawing of a smartphone.</desc><path fill="none" d="M22.5 31.5h-13c-1.4 0-2.6-1.2-2.6-2.6V3.1C6.9 1.7 8.1.5 9.5.5h13c1.4 0 2.6 1.2 2.6 2.6v25.8c0 1.4-1.2 2.6-2.6 2.6zM6.9 6.7h18.2M6.9 25.3h18.2"/><ellipse cx="16" cy="28.3" rx="1.4" ry="1.4"/></symbol><symbol viewBox="0 0 32 32" id="sms-2"><title>Cell phone texting</title><desc>Smartphone receiving a text message.</desc><ellipse cx="11.8" cy="28.1" rx="1.1" ry="1.1"/><path fill="none" d="M2.7 6.6h8.8M2.7 24.8h18.2M27.8 4.3H13c-.8 0-1.5.7-1.5 1.5v9.4c0 .8.7 1.5 1.5 1.5h2.1s.1 0 .1.1v2.8c0 .2.2.3.4.2l3.2-2.9c.1-.1.2-.1.3-.1h8.8c.8 0 1.5-.7 1.5-1.5V5.8c0-.8-.7-1.5-1.6-1.5z"/><path fill="none" d="M21 3C21 1.6 19.9.5 18.5.5H5.1C3.7.5 2.6 1.6 2.6 3v26c0 1.4 1.1 2.5 2.5 2.5h13.4c1.4 0 2.5-1.1 2.5-2.5V17M21 3v1.3"/><ellipse cx="24.5" cy="10.5" rx="1.1" ry="1.1"/><ellipse cx="20.4" cy="10.5" rx="1.1" ry="1.1"/><ellipse cx="16.4" cy="10.5" rx="1.1" ry="1.1"/></symbol><symbol viewBox="0 0 32 32" id="solo"><title>Person icon</title><desc>Icon representation of a person</desc><g fill="none"><path d="M8.6 20.3C6.4 14 10.4 8.9 16 8.9s9.6 5.1 7.4 11.4M21.4 11.1l-1.7 20.4M10.6 11.1l1.7 20.4M14.7 31.5l-.3-9.9h3.1l-.2 9.9"/><ellipse cx="16" cy="4.6" rx="4.1" ry="4.1"/></g></symbol><symbol viewBox="0 0 32 32" id="speechbubble"><title>Speech bubble icons</title><desc>Image of two speech message bubbles.</desc><g fill="none"><path d="M13.8 10.7h16c.9 0 1.6.7 1.6 1.6v9.8c0 .9-.7 1.6-1.6 1.6h-2.3s-.1 0-.1.1v2.9c0 .2-.2.3-.4.2l-3.4-3c-.1-.1-.2-.1-.3-.1h-9.5c-.9 0-1.6-.7-1.6-1.6v-9.8c0-1 .7-1.7 1.6-1.7z"/><path d="M19.8 10.7v-4c0-.9-.7-1.6-1.6-1.6h-16c-.9 0-1.6.7-1.6 1.6v9.8c0 .9.7 1.6 1.6 1.6h2.3s.1 0 .1.1v2.9c0 .2.2.3.4.2l3.4-3c.1-.1.2-.1.3-.1h3.5"/></g></symbol><symbol viewBox="0 0 32 32" id="star"><title>Solid Star</title><desc>Five pointed solid star</desc><path d="M22.1 19.6L32 12H20L16 0l-4 12H0l9.9 7.6L6 32l10-7.7L26 32l-3.9-12.4z"/></symbol><symbol viewBox="0 0 32 32" id="star-outline"><title>Outlined Star</title><desc>Five pointed outlined star.</desc><path fill="none" d="M16 1.7l4.8 9.4 10.7 1.5-7.7 7.4 1.8 10.3-9.6-4.9-9.6 4.9L8.2 20 .5 12.6l10.7-1.5z"/></symbol><symbol viewBox="0 0 32 32" id="sun"><title>Sun icon</title><desc>Line drawing of sun.</desc><g fill="none"><ellipse cx="16" cy="16" rx="8.4" ry="8.2"/><path d="M16 .5v3.3M6.6 3.5l2 2.6M.9 11.2l3.2 1M.9 20.8l3.2-1M6.6 28.5l2-2.6M16 31.5v-3.3M25.4 28.5l-2-2.6M31.1 20.8l-3.2-1M31.1 11.2l-3.2 1M25.4 3.5l-2 2.6"/></g></symbol><symbol viewBox="0 0 32 32" id="tea"><title>Cup of tea</title><desc>Cup with tea bag hanging outside of cup.</desc><path fill="none" d="M22.5 18.7V1.5H.5v18c0 6.4 3.6 11 6.7 11h8.6c2.8 0 6.7-4.6 6.7-11.8z"/><path fill="none" d="M22.5 7.1h3.4c1.7 0 5.6.5 5.6 5.3 0 7.7-6.5 11.1-9.6 11.1M8.9 1.5v6.6M5.6 8.1h6.5v8.8H5.6z"/></symbol><symbol viewBox="0 0 32 32" id="thumbsup"><title>Thumbs up</title><desc>Hand giving a thumbs up signal</desc><path fill="none" d="M26.5 17.1h-6.7c-1 0-1.9-.8-1.9-1.9v-.5c0-1.3 1.1-2.4 2.4-2.4H27c1 0 1.8.8 1.8 1.8v.6c.1 1.3-.9 2.4-2.3 2.4zM27.4 26.7h-7.5c-1 0-1.9-.8-1.9-1.9v-.5c0-1.3 1.1-2.4 2.4-2.4h7c1 0 1.8.8 1.8 1.8v1.1c0 1.1-.8 1.9-1.8 1.9zM25.7 31.5h-4.5c-1 0-1.9-.8-1.9-1.9v-.5c0-1.3 1.1-2.4 2.4-2.4h3.4c1.3 0 2.4 1.1 2.4 2.4v.6c0 1-.8 1.8-1.8 1.8zM28.8 21.9h-10c-1 0-1.9-.8-1.9-1.9v-.5c0-1.3 1.1-2.4 2.4-2.4h9.4c1 0 1.8.8 1.8 1.8V20c.2 1.1-.6 1.9-1.7 1.9zM12.2 21.6s2.9-.2 4.7-2.7"/><path fill="none" d="M23.5 31.5h-8.9S9 31.8 7.5 27H1.3V13.6h6.6c1.1-.9 4.5-4.2 5.3-4.8.6-.5 1.4-1.1 2.2-1.5.7-.4 1.2-.7 1.9-1 .3-.2.7-.3 1-.6.3-.2.5-.5.8-.8.6-.8 1.2-1.7 1.7-2.5l.6-1.2c.5-.7 1.4-.7 2.1-.4.8.4 1.2 1.2 1.5 2 0 0 .8 2.4-.9 5 0 0-2.2 3.3-3.5 4.4"/></symbol><symbol viewBox="0 0 130 130" id="trial-seal-hundrednight"><title>100 Night Trial, Free Returns seal</title><desc>Casper's guarantee and return program</desc><path d="M63.5 95.4c-16.6 0-30.2-13.5-30.2-30.2 0-11 5.2-19.7 14.9-25.2 7.3-4.1 14.4-4.9 14.7-5 .5-.1 1 .2 1.2.7.2.5.2 1-.2 1.4-4.5 5.1-7 11.6-7 18.4 0 15.3 12.4 27.7 27.7 27.7.5 0 .9.3 1.1.7.2.4.2.9-.1 1.3-.1.4-7.1 10.2-22.1 10.2zm-3.4-57.2c-2.7.6-6.7 1.8-10.7 4.1-9 5.1-13.6 12.8-13.6 23C35.8 80.5 48.2 93 63.5 93c5.7 0 10.9-1.5 15.3-4.6 1.4-1 2.5-2 3.3-2.8-15.4-1.3-27.6-14.3-27.6-30.1.1-6.2 2-12.3 5.6-17.3z"/><path d="M84.4 66c-.7 0-1.2-.6-1.2-1.2 0-5.4-4.4-9.8-9.8-9.8-.7 0-1.2-.6-1.2-1.2s.6-1.2 1.2-1.2c5.4 0 9.8-4.4 9.8-9.8 0-.7.6-1.2 1.2-1.2s1.2.6 1.2 1.2c0 5.4 4.4 9.8 9.8 9.8.7 0 1.2.6 1.2 1.2s-.5 1.2-1.2 1.2c-5.4 0-9.8 4.4-9.8 9.8 0 .6-.5 1.2-1.2 1.2zm-5.6-12.2c2.5 1.2 4.5 3.2 5.6 5.6 1.2-2.5 3.2-4.5 5.6-5.6-2.5-1.2-4.5-3.2-5.6-5.6-1.2 2.4-3.2 4.4-5.6 5.6z"/><g><path d="M75.3 13.2l1.8-8.7-2.1.4-.3-2.2 4.6-.7 1 .2-2.4 11.6-2.6-.6zM85.4 16.5c-3-1.3-3.6-4.5-2.3-7.5 1.3-3 3.9-4.9 7-3.6 3 1.3 3.6 4.5 2.3 7.5-1.3 3-4 4.9-7 3.6zm3.8-9c-1.2-.5-2.4.4-3.4 2.7-1 2.3-.7 3.7.5 4.2 1.1.5 2.4-.3 3.3-2.6 1-2.4.7-3.8-.4-4.3zM96.1 22.5c-2.7-1.9-2.4-5.2-.5-7.8 1.9-2.7 5-3.9 7.6-1.9 2.6 1.9 2.4 5.2.5 7.8-1.9 2.7-5 3.8-7.6 1.9zm5.8-7.8c-1-.7-2.4-.2-3.8 1.8-1.5 2-1.5 3.5-.5 4.2 1 .7 2.4.2 3.8-1.8s1.5-3.5.5-4.2zM111.1 39l1.1-9.4-5 3.5-1.6-2.2 9.7-6.8.3.3-1.1 9.3 5-3.5 1.6 2.2-9.7 6.8-.3-.2zM113 42.3l10.7-4.8 1.1 2.5-10.7 4.8-1.1-2.5zM124.3 56.3l-5.4 1.3c-1-1.1-1.8-2.3-2.2-4-.8-3.3.9-6.6 4.4-7.4 3.5-.9 6.5 1.2 7.4 4.7.4 1.5.3 2.8 0 4.1l-2.4-.6c.2-.9.2-1.8 0-2.7-.6-2.3-2.3-3.1-4.3-2.6-2.2.5-3.2 2.3-2.7 4.2.2.8.4 1.2.7 1.6l1.7-.4-.6-2.3 2.2-.6 1.2 4.7zM118.2 68.2l4.7.1.1-4.5-4.7-.1V61l11.7.2v2.7l-4.6-.1-.1 4.5 4.6.1v2.7l-11.7-.2v-2.7zM125.4 81.5l-8.9-2.2.6-2.6 8.9 2.2.8-3.4 2.4.6-2.3 9.5-2.4-.6.9-3.5zM117.8 98.8l-7.9-4.7 1.4-2.3 7.9 4.7 1.8-3 2.1 1.3-5 8.3-2.1-1.3 1.8-3zM102.4 103.5l4.1 1.2.3-.3.7-.7-2.8-2.6 1.9-2 8.4 7.9c-.6.8-1.3 1.6-2.2 2.6-2.5 2.7-4.7 2.5-6.3 1-1-.9-1.4-2.3-1.1-3.8l-5.2-1.1 2.2-2.2zm8.4 4.6c.3-.3.4-.5.7-.8l-2.4-2.2c-.3.2-.4.4-.6.6-.9.9-1 2-.1 2.8.7.6 1.7.4 2.4-.4zM98.2 107.2l7.1 9.3-2.2 1.6-7.1-9.3 2.2-1.6zM86.7 114.2l1.7 1.5 3.6-1.8-.2-2.3 2.5-1.3.5 13-.3.2-10.3-8 2.5-1.3zm5.7 4.9l-.2-3-2.1 1.1 2.3 1.9zM82 116.1l3.1 11.3-2.6.7-2.4-8.9-4.5 1.2-.6-2.4 7-1.9zM60.2 121.3c1.7.1 2.9 1.6 2.7 3.3-.1 1.7-1.6 2.9-3.2 2.8-1.6-.1-2.9-1.6-2.7-3.3.1-1.7 1.6-2.9 3.2-2.8zM39 122.3l1.1-2.3-3.6-1.7 1-2.2 3.6 1.7 1.8-3.8 2.5 1.2-5 10.6-6.7-3.1 1.1-2.3 4.2 1.9zM31.5 106.9l-.7 4.2c.1.1.3.2.4.3.3.2.5.4.8.6l2.3-3.1 2.2 1.6-6.9 9.3c-.9-.5-1.8-1.1-2.9-1.9-2.9-2.2-3-4.4-1.7-6.1.8-1.1 2.2-1.7 3.6-1.5l.5-5.3 2.4 1.9zm-3.7 9c.3.2.5.4.9.6l1.9-2.6c-.3-.2-.4-.4-.7-.6-1-.8-2.1-.8-2.8.2-.5.8-.2 1.7.7 2.4zM27.4 103.4l-8.8 7.7-4.9-5.6 1.9-1.6 3.1 3.5 1.6-1.4-2.8-3.2 1.8-1.6 2.8 3.2 1.7-1.5-3.1-3.5 1.9-1.6 4.8 5.6zM20.6 95.1l-10.1 5.8-3.7-6.4L9 93.3l2.3 4.1 1.8-1-2.1-3.7 2-1.2 2.1 3.7 2-1.1-2.3-4.1 2.1-1.2 3.7 6.3zM12.6 75.2L9.3 78c.1.2.1.3.1.4.1.4.1.6.2 1l3.7-.8.6 2.6-11.3 2.5c-.3-.9-.6-2-.9-3.3-.8-3.5.6-5.3 2.7-5.8 1.4-.3 2.7.2 3.7 1.2l3.8-3.7.7 3.1zM4 79.6c.1.4.2.7.3 1l3.1-.7c0-.3-.1-.5-.1-.9-.3-1.3-1.1-1.9-2.2-1.7-1 .2-1.4 1.1-1.1 2.3zM11.8 69.8L.1 70 0 62.6h2.5l.1 4.7h2.1L4.6 63H7v4.2h2.3l-.1-4.7h2.5l.1 7.3zM4 52.2l9 1.8-.5 2.7-9-1.8-.7 3.4-2.4-.5 1.9-9.6 2.4.5-.7 3.5zM16.5 43.9c-1.3 2.9-3.5 3.8-6.5 2.4l-6.3-2.8L4.8 41l6.2 2.8c1.5.7 2.7.4 3.4-1 .6-1.4 0-2.4-1.5-3.1l-6.2-2.8 1.1-2.5 6.3 2.8c2.9 1.4 3.7 3.8 2.4 6.7zM24 31.5l-4.2-.7c-.1.1-.2.3-.3.4-.2.3-.4.5-.6.8l3 2.3-1.6 2.2-9.2-7c.5-.9 1.1-1.8 1.9-2.9 2.2-2.9 4.5-3 6.2-1.7 1.1.8 1.6 2.2 1.5 3.7l5.3.6-2 2.3zm-8.9-3.8c-.3.3-.4.5-.6.9l2.6 2c.2-.3.4-.4.6-.7.8-1 .8-2.1-.1-2.8-.9-.6-1.8-.3-2.5.6zM35.2 21.4l-9.5-.4 3.9 4.7-2.1 1.7-7.5-9.2.2-.3 9.4.5-3.8-4.7 2.1-1.7 7.5 9.2-.2.2zM41.1 18.1c-1.2.6-2.8.8-4.1.7l-.4-2.5c1.1.2 2.4 0 3.4-.4.9-.4 1-1 .7-1.5-.3-.5-.7-.8-2.6-.6-2.2.2-3.4-.6-4-1.8-.8-1.5-.3-3.6 2.2-4.8 1.1-.6 2.5-.8 3.3-.6l.5 2.5c-.8-.1-2-.1-2.7.3-.9.4-1 1-.8 1.5.3.7 1 .6 2.6.6 2.4-.1 3.4.5 4.1 1.8.8 1.4.3 3.5-2.2 4.8zM58.8 9.8c-1.6.2-3.1-1-3.3-2.7-.2-1.7 1-3.2 2.6-3.4 1.6-.2 3.1 1 3.3 2.7.2 1.7-.9 3.2-2.6 3.4z"/></g></symbol><symbol viewBox="0 0 617.9 612" id="trial-warranty"><title>100 Night Trial, Free Returns seal</title><desc>Casper's guarantee and return program</desc><path d="M270.7 254.6c0-32.7 11.9-64.2 33.6-88.6l-5.1-10c-1.4.1-36 4.2-71.1 23.9-47 26.4-71.8 68.4-71.8 121.4 0 80.2 65.3 145.4 145.4 145.4 72.6 0 106-47.4 107.4-49.5l-4.9-9.4c-73.7.2-133.5-59.6-133.5-133.2zm30.9 180.2c-73.6 0-133.4-59.8-133.4-133.4 0-48.9 22-86.3 65.4-110.8 19.2-10.8 38.5-16.8 51.5-19.7-17.2 24.4-26.5 53.5-26.5 83.7 0 75.9 58.5 138.4 132.7 144.9-13 12.9-42.2 35.3-89.7 35.3zM455.4 239.9c-26 0-47-21.1-47-47h-12c0 26-21.1 47-47 47v12c26 0 47 21.1 47 47h12c0-26 21.1-47 47-47v-12zm-53 33.1c-5.8-11.7-15.3-21.4-27-27 11.7-5.8 21.4-15.3 27-27 5.8 11.7 15.3 21.4 27 27-11.7 5.7-21.2 15.3-27 27zM364.2 10.8L357 47.4l11.1 2.2L377.8.9l-4.2-.9-19.7 3.2 1.5 9.2zM402.5 61.3c12.6 4.9 23.8-3.1 28.7-16 5-12.8 2.4-26.3-10.4-31.2-12.8-4.9-23.8 3.2-28.7 16-5 12.8-2.4 26.2 10.4 31.2zm1.1-26.7c3.7-9.7 8.8-13.2 13.6-11.4s6.1 7.9 2.3 17.6c-3.7 9.7-8.8 13.2-13.6 11.4s-6-7.9-2.3-17.6zM449.8 85.5c11.3 7.3 23.9 1.9 31.3-9.7 7.6-11.5 7.7-25.2-3.7-32.6-11.5-7.4-23.9-1.8-31.4 9.7-7.6 11.5-7.7 25.2 3.8 32.6zm6.6-25.7c5.7-8.8 11.3-11.2 15.7-8.3 4.4 2.8 4.4 9-1.3 17.7-5.7 8.8-11.3 11.2-15.7 8.3-4.4-2.9-4.3-9.1 1.3-17.7zM519.4 110l-1 39.7.9.8 37.7-32.3-7.3-8.7-19.3 16.5 1-39.3-1.1-1-37.8 32.3 7.4 8.7zM528.182 163.466l41.84-25.31 5.9 9.753-41.84 25.31zM564.3 176.2c-13.9 5.6-19.2 19.9-13.9 33.3 2.7 6.9 6.6 11.5 11.5 15.4l21.7-8.8-7.7-19.1-9 3.6 3.6 9.1-6.7 2.7c-1.5-1.3-2.6-2.8-3.9-6.2-3-7.4.1-15.4 8.8-18.9 8-3.2 15.5-.7 19.2 8.4 1.4 3.5 2 7.3 1.5 11.2l10.3 1c.5-5.5.2-10.8-2.2-16.9-5.5-13.5-19.3-20.4-33.2-14.8zM563.4 250.6l19.4-3.2 3 18.6-19.4 3.2 1.9 11.2 48.3-8-1.9-11.2-18.9 3.1-3.1-18.6 19-3-1.9-11.3-48.3 8zM607.4 293.2l-.5 14.8-38.5-1.4-.4 11.3 38.5 1.4-.5 14.7 10.4.4 1.5-40.7zM595.4 385.1l-36.8-11.4-3.4 10.9L592 396l-4.3 14 10 3 12-38.8-10-3.1zM540.7 419.3l14.1 7.6c-.8 1.4-1.3 2.2-2.1 3.6-.3.5-.5 1.1-.9 1.8l-18.1-.1-6 11.4 22.1-1.3c.3 6.1 3.4 11.4 8.5 14.1 7.9 4.2 17.2 2.3 24.3-11.2 2.7-5 4.5-9.2 6-13.1L546 409.2l-5.3 10.1zm20.5 15c.7-1.2 1.1-1.9 1.9-3.1l11.9 6.4c-.5 1.5-1 2.5-1.8 4.1-2.3 4.3-5.9 6-9.5 4.1-4.4-2.4-5-6.7-2.5-11.5zM520.82 452.447l39.28 29.125-6.79 9.158-39.28-29.125zM500.3 478.1l3.6 8.9-12 11.9-8.9-3.7-8.4 8.3 51.1 18.8 1.1-1.1-18.4-51.2-8.1 8.1zm.3 24.4l6.9-6.8 4.8 11.8-11.7-5zM441.4 526.4l5.9 8.5 16.2-11.2 21.9 31.9 9.3-6.5-27.8-40.2zM388.7 561.8c-6.6 2-10.3 9.1-8.2 15.8 2.1 6.8 9.1 10.5 15.7 8.5 6.7-2.1 10.3-9.1 8.2-15.9-2.1-6.6-9-10.3-15.7-8.4zM313.4 599.4l-.7-37.3-11.2.1.7 49.8 4.3-.1 18.6-7.2-3.4-8.7zM265.4 557.7c-13.4-2.2-22.6 7.9-24.9 21.5-2.3 13.6 3 26.2 16.4 28.5 13.5 2.3 22.6-7.9 24.9-21.5 2.4-13.6-2.8-26.2-16.4-28.5zm4.3 26.3c-1.8 10.3-5.9 14.8-11.1 13.9s-7.6-6.5-5.8-16.8c1.8-10.3 5.9-14.8 11.1-13.9 5 .9 7.6 6.5 5.8 16.8zM191.8 534.4l-8.4 17.4-28.2 19.2 11.5 5.6 17-12.7 1 21.4 11.7 5.6-2.7-34.1 8.3-17.5zM142.6 502.5l-6.2 8.3 15.9 11.6-5.7 7.8-14.4-10.6-5.8 7.9 14.3 10.6-5.1 7.1-15.8-11.6-6.2 8.3 24.9 18.4 29-39.5zM127.7 488.8l-9 3.4-11.6-12.4 3.9-8.8-8.1-8.7L82.7 513l1.1 1.1 51.8-17-7.9-8.3zM98 500l5.3-11.5 6.6 7.1L98 500zM91.9 445.1l-13.6 8.5c-.8-1.4-1.2-2.2-2.1-3.6-.3-.5-.7-1.1-1.1-1.6l9.1-15.5-6.9-11-9.9 19.8c-5.4-2.8-11.4-2.7-16.4.5-7.6 4.7-10.5 13.7-2.4 26.6 3.1 4.8 5.8 8.5 8.3 11.8L98 454.8l-6.1-9.7zM59 465.8c-1.1-1.2-1.8-2.1-2.6-3.5-2.6-4.2-2.3-8.1 1.2-10.3 4.2-2.6 8.2-1.1 11.2 3.5.7 1.1 1.1 1.9 1.8 3.2L59 465.8zM62 381.3l-32.1-7.1 24.6-21.8-.4-1.4-52.6-4.8 3.1 12.4 26.7 1.2-21.9 18.9.2 1.2 28.5 5.9-22.9 14 3.2 12.6 43.8-29.7zM49.7 321.4l-9-3.5-.4-16.8 8.8-3.9-.3-11.8L0 309.7v1.5L49.9 333l-.2-11.6zM20 310l11.6-5.1.2 9.6L20 310zM51.9 265l-15.8-2.7c.3-1.5.5-2.5.9-4.2.1-.7.2-1.2.2-2l17.1-5.6 2.1-12.7-20.6 8.2c-2.2-5.7-6.9-9.6-12.6-10.6-8.9-1.4-17 3.3-19.5 18.3-1 5.7-1.3 10.2-1.6 14.3l47.9 8 1.9-11zm-24.2-7.8c-.2 1.3-.4 2.1-.8 3.5l-13.4-2.2c0-1.6.1-2.7.4-4.4.8-4.8 3.7-7.6 7.8-6.9 4.9.8 7 4.7 6 10zM63.6 217.1l-15-5.6c.7-1.5 1-2.3 1.6-3.9.2-.7.4-1.2.7-1.9l17.8-2.2 4.5-12-21.8 4.1c-1.1-6-4.9-10.8-10.3-12.8-8.4-3.2-17.3 0-22.7 14.2-2 5.4-3.3 9.7-4.3 13.8l45.4 17 4.1-10.7zM41.3 205c-.4 1.2-.8 2-1.4 3.3l-12.6-4.7c.3-1.6.7-2.6 1.2-4.3 1.8-4.6 5-6.7 8.9-5.3 4.5 1.7 5.9 5.9 3.9 11zM81 177.4l-5.7-7.8 8.9-14.5 9.5 1.5 6.1-10.1-54.1-6.1-.8 1.3 30 45.4 6.1-9.7zm-11.1-15.3l-7.4-10.3 12.5 2.1-5.1 8.2zM113.4 131.4l-18.5-17.6 39.6-3.2.5-1-36-34.2-7.9 8.4 18.5 17.4-39.1 3-.9 1.4 36.1 34zM133.2 61.6l22.1 31.6 9.3-6.6-22.1-31.5 12-8.5-6-8.5-33.4 23.4 6 8.6zM198.2 67.6l10.4-4.6-7.9-17.7 3.7-34-11.7 5.1-1.4 21.3-16.9-13.1-11.8 5.3 27.7 19.9zM282.5 32.5c6.9-.7 11.9-6.9 11.2-13.8-.7-7-6.8-12.2-13.7-11.5-6.9.7-11.9 6.9-11.2 13.9.8 6.9 6.8 12.1 13.7 11.4z"/></symbol><symbol viewBox="0 0 32 32" id="truck"><title>Delivery truck</title><desc>Image of a delivery truck.</desc><path fill="none" d="M26.9 21c0 1.1-1 2.1-2.2 2.1-1.3 0-2.2-.9-2.2-2.1s1-2.1 2.2-2.1c1.2 0 2.2.9 2.2 2.1zm-17.2.2c0 1.1-1 2.1-2.2 2.1-1.3 0-2.2-.9-2.2-2.1 0-1.1 1-2.1 2.2-2.1s2.2 1 2.2 2.1zm19.1-.2h2.7m-19.8 0h8.6m-5.7-2.5V8.7h15.5v9.9m-18-8.9H7l-2.7 4.7-3.8 1.2V21h2.8M17 11.4h11"/></symbol><symbol viewBox="0 0 32 32" id="twitter"><title>Twitter Icon</title><desc>Casper on Twitter.</desc><path d="M32 6.076a13.14 13.14 0 0 1-3.77 1.034 6.592 6.592 0 0 0 2.886-3.632 13.15 13.15 0 0 1-4.17 1.593A6.557 6.557 0 0 0 22.157 3a6.565 6.565 0 0 0-6.566 6.565c0 .515.058 1.016.17 1.496A18.64 18.64 0 0 1 2.228 4.2a6.536 6.536 0 0 0-.89 3.3 6.563 6.563 0 0 0 2.922 5.465 6.54 6.54 0 0 1-2.974-.82v.082a6.568 6.568 0 0 0 5.265 6.437 6.578 6.578 0 0 1-2.964.112 6.57 6.57 0 0 0 6.133 4.56 13.172 13.172 0 0 1-8.155 2.81c-.53 0-1.052-.032-1.566-.093a18.58 18.58 0 0 0 10.063 2.95c12.076 0 18.68-10.004 18.68-18.68 0-.285-.007-.568-.02-.85A13.347 13.347 0 0 0 32 6.077z"/></symbol><symbol viewBox="-380 292 30 30" id="usa"><title>American Flag</title><desc>Shop Casper Mattresses in the United States</desc><path d="M-377.5 315.2h25c.7-1.1 1.3-2.4 1.8-3.7h-28.6c.4 1.4 1 2.6 1.8 3.7M-365 322c3.8 0 7.2-1.4 9.8-3.7h-19.7c2.7 2.3 6.1 3.7 9.9 3.7M-362.7 297.8l.4 1.3-1-.8-1 .8.4-1.3-1.1-.7h1.3l.4-1.3.4 1.3h1.3zM-362.3 304.6l-1-.7-1 .7.4-1.2-1.1-.8h1.3l.4-1.2.4 1.2h1.3l-1.1.8zM-366.5 301.1l-1.1.7.4-1.2-1-.8h1.3l.4-1.2.4 1.2h1.2l-1 .8.4 1.2zM-368.7 304.6l-1-.7-1.1.7.4-1.2-1-.8h1.3l.4-1.2.3 1.2h1.3l-1 .8zM-372.9 301.1l-1 .7.3-1.2-1-.8h1.3l.4-1.2.4 1.2h1.2l-1 .8.4 1.2zM-375.1 304.6l-1-.7-1.1.7.4-1.2-1-.8h1.3l.4-1.2.3 1.2h1.3l-1 .8zM-370.1 297.1l.4-1.3.3 1.3h1.3l-1 .7.4 1.3-1-.8-1.1.8.4-1.3-1-.7z"/><path d="M-350.1 304.9h-9.6v-3.1h8.8c-.4-1.1-.9-2.1-1.5-3h-7.3v-3.1h4.7c-2.6-2.3-6.1-3.7-9.9-3.7-8.3 0-15 6.7-15 15 0 .5 0 1 .1 1.5h29.9c0-.5.1-1 .1-1.5-.2-.7-.3-1.4-.3-2.1z"/></symbol><symbol viewBox="0 0 32 32" id="usa-flag"><title>USA flag</title><desc>USA flag with 5 stripes.</desc><path fill="none" d="M31.5 7.4H13.6M31.5 11.7H13.6M31.5 16H13.6M31.5 20.3H.5M31.5 24.6H.5"/><path d="M9.5 16.5h-9c-.3 0-.5-.2-.5-.5V7.4c0-.3.2-.5.5-.5h9c.3 0 .5.2.5.5V16c0 .3-.2.5-.5.5zm-8.5-1h8V7.9H1v7.6z"/></symbol><symbol viewBox="0 0 32 32" id="waffle"><title>Waffle</title><desc>Whole waffle from birds eye view.</desc><g fill="none"><ellipse cx="16" cy="16" rx="15" ry="15.5"/><path d="M12.3 7.5h-2V5.4M17 7.5h-2V5.4M21.7 7.5h-2V5.4M7.6 12.2h-2v-2M12.3 12.2h-2v-2M17 12.2h-2v-2M21.7 12.2h-2v-2M26.4 12.2h-2v-2M7.6 17h-2v-2M12.3 17h-2v-2M17 17h-2v-2M21.7 17h-2v-2M26.4 17h-2v-2M7.6 21.8h-2v-2M12.3 21.8h-2v-2M17 21.8h-2v-2M21.7 21.8h-2v-2M26.4 21.8h-2v-2M12.3 26.6h-2v-2.1M17 26.6h-2v-2.1M21.7 26.6h-2v-2.1"/></g></symbol><symbol viewBox="0 0 32 32" id="wall"><title>Cool and Bounce icon</title><desc>Abstract icon showing mattress layers.</desc><ellipse fill="none" cx="16" cy="16" rx="15.5" ry="15.1"/><path fill="none" d="M.5 16h31M5.3 13.1v-8M10.6 13.1v-11M21.3 13.1v-11M16 13.1V1.2M26.6 13.1V5"/><ellipse cx="4.3" cy="18.8" rx=".8" ry=".8"/><ellipse cx="7.2" cy="18.8" rx=".8" ry=".8"/><ellipse cx="10.1" cy="18.8" rx=".8" ry=".8"/><ellipse cx="13" cy="18.8" rx=".8" ry=".8"/><ellipse cx="15.9" cy="18.8" rx=".8" ry=".8"/><ellipse cx="18.9" cy="18.8" rx=".8" ry=".8"/><ellipse cx="21.8" cy="18.8" rx=".8" ry=".8"/><ellipse cx="24.7" cy="18.8" rx=".8" ry=".8"/><ellipse cx="27.6" cy="18.8" rx=".8" ry=".8"/><ellipse cx="1.3" cy="18.8" rx=".8" ry=".8"/><ellipse cx="27.6" cy="18.8" rx=".8" ry=".8"/><ellipse cx="30.6" cy="18.8" rx=".8" ry=".8"/><g><ellipse cx="5.7" cy="22" rx=".8" ry=".8"/><ellipse cx="8.6" cy="22" rx=".8" ry=".8"/><ellipse cx="11.6" cy="22" rx=".8" ry=".8"/><ellipse cx="14.5" cy="22" rx=".8" ry=".8"/><ellipse cx="17.4" cy="22" rx=".8" ry=".8"/><ellipse cx="20.3" cy="22" rx=".8" ry=".8"/><ellipse cx="23.3" cy="22" rx=".8" ry=".8"/><ellipse cx="26.2" cy="22" rx=".8" ry=".8"/><ellipse cx="2.8" cy="22" rx=".8" ry=".8"/><ellipse cx="29.1" cy="22" rx=".8" ry=".8"/></g><g><ellipse cx="7.2" cy="25.2" rx=".8" ry=".8"/><ellipse cx="4.3" cy="25.2" rx=".8" ry=".8"/><ellipse cx="10.1" cy="25.2" rx=".8" ry=".8"/><ellipse cx="13" cy="25.2" rx=".8" ry=".8"/><ellipse cx="15.9" cy="25.2" rx=".8" ry=".8"/><ellipse cx="18.9" cy="25.2" rx=".8" ry=".8"/><ellipse cx="21.8" cy="25.2" rx=".8" ry=".8"/><ellipse cx="24.7" cy="25.2" rx=".8" ry=".8"/><ellipse cx="27.6" cy="25.2" rx=".8" ry=".8"/></g><g><ellipse cx="8.6" cy="28.4" rx=".8" ry=".8"/><ellipse cx="11.6" cy="28.4" rx=".8" ry=".8"/><ellipse cx="14.5" cy="28.4" rx=".8" ry=".8"/><ellipse cx="17.4" cy="28.4" rx=".8" ry=".8"/><ellipse cx="20.3" cy="28.4" rx=".8" ry=".8"/><ellipse cx="23.3" cy="28.4" rx=".8" ry=".8"/></g></symbol><symbol viewBox="0 0 32 32" id="wind"><title>Keeps you cool icon</title><desc>Line drawing of wind gust.</desc><g fill="none"><path d="M6.1 13.1H4.3M16.5 9.7c0-1.9 1.6-3.4 3.6-3.4s3.6 1.5 3.6 3.4-1.6 3.4-3.6 3.4H8.8M16.5 22.3c0 1.9 1.6 3.4 3.6 3.4s3.6-1.5 3.6-3.4-1.6-3.4-3.6-3.4H4.3M11.8 16H.5M27.1 11.8c.5-.4 1.1-.7 1.8-.7 1.4 0 2.6 1.1 2.6 2.5S30.3 16 28.9 16H14.5"/></g></symbol></svg>