<svg xmlns="http://www.w3.org/2000/svg" xmlns:xlink="http://www.w3.org/1999/xlink"><symbol viewBox="0 0 179.4 56" id="airbnb"><title>Airbnb Logo</title><desc>Airbnb logomark with text</desc><path fill-rule="evenodd" clip-rule="evenodd" d="M94.5 14.1c0 2-1.6 3.6-3.6 3.6s-3.6-1.6-3.6-3.6 1.6-3.6 3.6-3.6c2.1 0 3.6 1.6 3.6 3.6zm-15 7.3v.9s-1.7-2.2-5.4-2.2c-6.1 0-10.9 4.7-10.9 11.1 0 6.4 4.7 11.1 10.9 11.1 3.8 0 5.4-2.3 5.4-2.3v1c0 .4.3.8.8.8h4.5V20.6h-4.5c-.4 0-.8.4-.8.8zm0 13.5c-.8 1.2-2.5 2.3-4.5 2.3-3.6 0-6.3-2.2-6.3-6.1 0-3.8 2.7-6.1 6.3-6.1 2 0 3.8 1.1 4.5 2.3v7.6zm8.7-14.3h5.4v21.1h-5.4V20.6zm80.4-.5c-3.7 0-5.4 2.2-5.4 2.2V10.5h-5.4v31.2h4.5c.4 0 .8-.4.8-.8v-1s1.7 2.3 5.4 2.3c6.1 0 10.9-4.7 10.9-11.1s-4.8-11-10.8-11zm-.9 17.1c-2.1 0-3.7-1.1-4.5-2.3v-7.5c.8-1.1 2.6-2.3 4.5-2.3 3.6 0 6.3 2.2 6.3 6.1 0 3.7-2.7 6-6.3 6zm-12.7-8v12.6h-5.4v-12c0-3.5-1.1-4.9-4.1-4.9-1.6 0-3.3.8-4.4 2.1v14.7h-5.4V20.6h4.3c.4 0 .8.4.8.8v.9c1.6-1.6 3.6-2.2 5.7-2.2 2.4 0 4.3.7 5.9 2 1.8 1.5 2.6 3.6 2.6 7.1zm-32.4-9.1c-3.7 0-5.4 2.2-5.4 2.2V10.5h-5.4v31.2h4.5c.4 0 .8-.4.8-.8v-1s1.7 2.3 5.4 2.3c6.1 0 10.9-4.7 10.9-11.1.1-6.3-4.7-11-10.8-11zm-.9 17.1c-2.1 0-3.7-1.1-4.5-2.3v-7.5c.8-1.1 2.6-2.3 4.5-2.3 3.6 0 6.3 2.2 6.3 6.1.1 3.7-2.7 6-6.3 6zm-14.5-17.1c1.6 0 2.5.3 2.5.3v5s-4.5-1.5-7.3 1.7v14.7H97V20.6h4.5c.4 0 .8.4.8.8v.9c1-1.2 3.2-2.2 4.9-2.2zM51.3 39.8c-.3-.7-.6-1.4-.8-2-.4-1-.9-2-1.3-2.9l-.1-.1c-3.9-8.4-8-16.9-12.4-25.3l-.2-.3c-.4-.8-.9-1.7-1.3-2.6-.6-1-1.1-2.1-2-3.1C31.4 1.2 28.8 0 26.1 0c-2.8 0-5.3 1.2-7.2 3.4-.8 1-1.5 2.1-2 3.1-.4.9-.9 1.8-1.3 2.6l-.2.3C11 17.8 6.8 26.3 3 34.7l-.1.1c-.4.9-.8 1.8-1.3 2.9-.3.6-.6 1.3-.8 2-.7 2.1-1 4-.7 6.1.6 4.2 3.4 7.7 7.3 9.3 1.5.6 3 .9 4.5.9.4 0 1-.1 1.5-.1 1.8-.2 3.8-.8 5.6-1.9 2.3-1.3 4.5-3.1 6.9-5.8 2.5 2.7 4.7 4.5 6.9 5.8 1.8 1.1 3.8 1.7 5.6 1.9.4.1 1 .1 1.5.1 1.6 0 3.1-.3 4.5-.9 3.9-1.6 6.7-5.2 7.3-9.3.5-2 .3-3.9-.4-6zM26 42.7c-3-3.8-5-7.4-5.7-10.4-.3-1.3-.3-2.4-.2-3.4.1-.9.4-1.7.9-2.4 1.1-1.5 2.9-2.5 5-2.5s3.9.9 4.9 2.5c.4.7.8 1.5.9 2.4.2 1 .1 2.2-.2 3.4-.6 2.9-2.6 6.5-5.6 10.4zm22.4 2.6c-.4 2.9-2.4 5.4-5.1 6.6-1.3.6-2.8.7-4.3.6-1.4-.2-2.8-.6-4.3-1.5-2-1.1-4-2.9-6.4-5.4 3.7-4.5 5.9-8.7 6.8-12.4.4-1.7.4-3.3.3-4.8-.2-1.4-.7-2.7-1.5-3.8-1.7-2.5-4.7-4-7.9-4-3.3 0-6.2 1.5-7.9 4-.8 1.1-1.3 2.4-1.5 3.8-.2 1.5-.2 3.1.3 4.8.8 3.7 3.1 7.9 6.8 12.4-2.3 2.6-4.4 4.3-6.4 5.4-1.5.8-2.9 1.3-4.3 1.5-1.5.2-3-.1-4.3-.6C6 50.8 4 48.3 3.6 45.4c-.1-1.4 0-2.8.6-4.4.2-.6.4-1.1.7-1.8.4-.9.8-1.8 1.3-2.8l.1-.1c3.9-8.3 8-16.9 12.3-25.2l.2-.3c.4-.8.9-1.7 1.3-2.6.4-.9 1-1.7 1.6-2.5 1.2-1.3 2.7-2.1 4.5-2.1 1.7 0 3.3.7 4.5 2.1.6.7 1.1 1.6 1.6 2.5.4.8.9 1.7 1.3 2.6l.2.3C37.9 19.5 42.1 28 46 36.4v.1c.4.9.8 1.9 1.3 2.8.3.7.6 1.2.7 1.8.4 1.4.6 2.8.4 4.2z"/></symbol><symbol viewBox="0 0 29.1 33.3" id="anchor"><title>Anchor</title><desc>Boat anchor</desc><path d="M29.1 21.8c0-.1-.1-.3-.1-.4l-.3-.3c-.2-.1-.4-.1-.5-.1h-.4c-.1 0-.2.1-.3.1l-5.4 2.8c-.1 0-.2.1-.2.2-.1.1-.2.2-.2.3-.1.1-.1.3-.1.4v.1c0 .1 0 .3.1.4 0 .1.1.2.2.3.1.1.2.1.2.2l1.6 1c-2 2.5-4.8 4-7.9 4.3V13h9.4c.6 0 1.1-.5 1.1-1.1 0-.6-.5-1.1-1.1-1.1h-9.4V8.4c1.8-.5 3.2-2.1 3.2-4.1C19 2 17.1.1 14.8.1c-2.3 0-4.2 1.9-4.2 4.2 0 2 1.3 3.6 3.2 4.1v2.5H4c-.6 0-1.1.5-1.1 1.1 0 .5.5 1 1.1 1h9.4v18.1c-3.3-.3-6.2-2-8.2-4.6L7 25.3c.1-.1.2-.1.2-.2.1-.1.2-.2.2-.3.1-.1.1-.3.1-.4v-.1c0-.2 0-.3-.1-.4-.1-.1-.1-.2-.2-.3-.1-.1-.2-.1-.3-.2l-5.4-2.8c-.1 0-.2-.1-.3-.1H.8c-.2 0-.3.1-.4.2l-.3.3c-.1.1-.1.2-.2.4V21.7l.3 6.1c0 .1 0 .2.1.3 0 .1.1.2.2.4.1.1.2.2.4.3.1.1.3.1.4.1h.1c.1 0 .2 0 .3-.1.1 0 .2-.1.3-.1l1.4-.9c2.6 3.6 6.7 5.7 11.1 5.7 4.3 0 8.3-2 10.9-5.4l1.7 1.1c.1.1.2.1.3.1.1 0 .2.1.3.1h.1c.2 0 .3 0 .4-.1.1-.1.3-.2.4-.3.1-.1.1-.2.2-.3 0-.1.1-.2.1-.3l.3-6.1v-.1c-.1-.2-.1-.3-.1-.4zM12.5 4.2c0-1.1.9-2.1 2.1-2.1 1.1 0 2.1.9 2.1 2.1s-.9 2.1-2.1 2.1c-1.2 0-2.1-.9-2.1-2.1zM2.3 23.4l2.1 1-1.9 1.3-.2-2.3zm24.4 2.8l-1.9-1.3 2.1-1-.2 2.3z"/></symbol><symbol viewBox="0 0 57.3 81.1" id="arrow"><title>Arrow</title><desc>Right pointing arrow</desc><path d="M9.7 81.1L0 69.7l34.2-29.1L0 11.4 9.7 0l47.6 40.6z"/></symbol><symbol viewBox="0 0 15 15" id="arrow-circle"><g fill="none" stroke="#000" stroke-miterlimit="10"><path stroke-width=".75" d="M14.6 7.5c0 3.9-3.2 7.1-7.1 7.1S.4 11.4.4 7.5 3.6.4 7.5.4s7.1 3.2 7.1 7.1"/><path d="M6.2 5.1l2.5 2.5-2.5 2.5"/></g></symbol><symbol viewBox="0 0 23.2 12.6" id="arrow-wide"><title>Arrow</title><desc>Down pointing wide arrow</desc><path d="M22 1L11 11 1 1"/></symbol><symbol viewBox="0 0 90 70.9" id="award-biginnovation"><title>BigInnovation</title><desc>BigInnovation Award Icon</desc><path d="M51.41 55.89a5 5 0 0 0-.65 3.24 3 3 0 0 1-.76 2.73 1.12 1.12 0 0 0-.2.63 15.24 15.24 0 0 0 0 2.46 14.06 14.06 0 0 0 0 1.8 1.77 1.77 0 0 1-1.8 1.92h-.58c0 1.35-.39 1.91-1.72 2.09a10.2 10.2 0 0 1-2.46 0 1.49 1.49 0 0 1-1.46-1.68v-.43c-.33 0-.64-.06-.94-.12a1.82 1.82 0 0 1-1.45-2.4 2.22 2.22 0 0 0 0-.72 1.86 1.86 0 0 1-.08-.34 9.59 9.59 0 0 0 0-2.7 1 1 0 0 0-.15-.55 2.58 2.58 0 0 1-.76-2.48 5.29 5.29 0 0 0-.72-3.52l-.31-.57c-1-1.67-2-3.33-3-5a13.39 13.39 0 0 1-2-7.78l.09-.59a12.55 12.55 0 0 1 5.86-8.45c7-4.44 16.81 0 18.22 8.2a2.06 2.06 0 0 0 .09.28v.58c.29 3.29-1 6.13-2.55 8.87-.76 1.33-1.61 2.61-2.42 3.91zm-6.8 5.22h3.37c1.12 0 1.21-.18 1.25-1.25a19.75 19.75 0 0 1 .16-2.53 13.14 13.14 0 0 1 2.2-4.6c1-1.57 1.9-3.18 2.7-4.84a9.33 9.33 0 0 0 .88-6A10.77 10.77 0 0 0 42 33.52c-6.33 1.48-10.2 8.39-7.16 14.43C35.88 50 37 52 38.22 54a9.72 9.72 0 0 1 1.56 4.22c.06.71.11 1.42.14 2.13a.64.64 0 0 0 .68.72c.29 0 .59.07.88.08h3.14zm-3.93 3.65v.19a3.41 3.41 0 0 0 .81.21h6a3.2 3.2 0 0 0 .91-.31 3.25 3.25 0 0 0-1-.34h-5.26a5.66 5.66 0 0 0-1 .1 2.07 2.07 0 0 0-.45.15zm0-2.12v.26a2.88 2.88 0 0 0 .75.22h6.44a1.28 1.28 0 0 0 .5-.3 1.21 1.21 0 0 0-.47-.29q-3.25-.07-6.5-.09a2.69 2.69 0 0 0-.7.2zm0 4.06v.3a8.35 8.35 0 0 0 1.33.23h4.85a7.26 7.26 0 0 0 1.25-.23.76.76 0 0 0 .26-.25 1.69 1.69 0 0 0-.29-.24.67.67 0 0 0-.29 0h-6a5.34 5.34 0 0 0-1.08.19zm3.91 1.88a7.24 7.24 0 0 0-1.06 0 .52.52 0 0 0-.35.36.49.49 0 0 0 .3.37 18.23 18.23 0 0 0 2 0 .57.57 0 0 0 .29-.43.51.51 0 0 0-.35-.3 5.43 5.43 0 0 0-.79 0zM39.28 5.74l.67.26a2.5 2.5 0 0 1 1.64 2.32A2.63 2.63 0 0 1 40.15 11a6.12 6.12 0 0 1-2.35.68c-2.3.09-4.61 0-7 0V.24h2.31c1.77 0 3.56 0 5.32.12a2.65 2.65 0 0 1 2.64 3.26 3.56 3.56 0 0 1-.82 1.44 4.18 4.18 0 0 1-.97.68zm-4.72 3h2.24a.82.82 0 1 0 0-1.63h-2.25v1.66zm0-4.06h2.11a.73.73 0 0 0 .75-.68.72.72 0 0 0-.75-.75h-2.12v1.47zM55.21 7.39h-1.87V5h5.48a2.88 2.88 0 0 1 0 .38v4.44a.94.94 0 0 1-.33.67 7.69 7.69 0 0 1-8 .74 5.71 5.71 0 0 1-3.14-6.3 6 6 0 0 1 5-4.81 7.32 7.32 0 0 1 6.08 1.63l-2 2.46a14.16 14.16 0 0 0-2.12-.81 2.52 2.52 0 0 0-3.09 2.37 2.63 2.63 0 0 0 2.54 3h.3c1.19-.01 1.25-.08 1.15-1.38zM71.53 21.25L72.86 29 71 28.75 69 16.4a14.28 14.28 0 0 1 1.54 0 .77.77 0 0 1 .39.44c.84 1.75 1.66 3.51 2.62 5.24l-1-5.66h1.72l2.43 13.29c-.58-.1-1.12-.19-1.64-.3a.39.39 0 0 1-.25-.27c-.15-2.49-1.55-4.51-2.53-6.68-.19-.42-.41-.83-.62-1.25zM20.73 28.48a7.46 7.46 0 0 1 .17-1.12c.41-1.3-.1-2.53-.29-3.78A22 22 0 0 0 20 21c-.15.89-.31 1.78-.46 2.67-.25 1.53-.52 3.07-.74 4.61a.6.6 0 0 1-.63.6c-.41 0-.82.11-1.31.19.16-1 .31-1.89.46-2.81.58-3.11 1.13-6.26 1.68-9.36a.5.5 0 0 1 .6-.51c1.23 0 1.23 0 1.41 1.21.2 1.38.42 2.76.63 4.14h.16l.85-5.31h1.71c-.18 1.24-.36 2.46-.54 3.68-.38 2.53-.77 5.06-1.13 7.6a.55.55 0 0 1-.61.6 12.6 12.6 0 0 0-1.35.17zM28.88 21.41l.61-5h1.72L30 27.4l-1.85.18a8.11 8.11 0 0 0 0-3.44c-.38-1.09-.6-2.24-1-3.37l-.93 7-1.92.23c.18-1.3.35-2.55.52-3.79.34-2.42.7-4.84 1-7.26a.53.53 0 0 1 .66-.57c1.15 0 1.14 0 1.38 1.14s.56 2.5.84 3.75a.67.67 0 0 0 .18.14zM64.62 16.41h1a2.11 2.11 0 0 1 2.15 2q.66 4 1.29 8.06c.21 1.33-.33 1.9-1.68 1.77a21 21 0 0 1-2.69-.39 2.19 2.19 0 0 1-1.77-2c-.3-2.35-.61-4.69-.91-7a6 6 0 0 1-.01-1 1.31 1.31 0 0 1 1.24-1.39c.47-.06.94-.06 1.42-.09zm.15 1.41c-1 0-1.14.1-1 1.12V19c.31 2.21.63 4.41.91 6.62a1 1 0 0 0 1 1l.59.05c.91.11 1 0 .9-.94q-.52-3.33-1-6.67c-.17-1.14-.27-1.21-1.4-1.24zM46.24 11.7h-3.76V.28h3.76V11.7zM33.7 27.12a5 5 0 0 1-.7-.05 1.28 1.28 0 0 1-1.16-1.51c.22-2.42.45-4.83.71-7.24a1.84 1.84 0 0 1 2-1.89 18.79 18.79 0 0 1 2.37 0 1.45 1.45 0 0 1 1.48 1.69q-.16 3.37-.37 6.74a2 2 0 0 1-2.1 2.14c-.69 0-1.38.07-2.23.12zm1.15-1.34h.65a.64.64 0 0 0 .65-.64c.16-2.24.32-4.48.46-6.72a.69.69 0 0 0-.2-.5 15 15 0 0 0-1.89 0 .59.59 0 0 0-.24.43c-.21 2.27-.4 4.55-.6 6.82a.54.54 0 0 0 .59.64c.19-.02.39-.03.58-.03zM52.2 26.83h-1.85L50.18 23h-2v3.69h-1.8v-.45l-.1-7.81c0-1.42.49-2 1.92-2a14.55 14.55 0 0 1 1.89 0 1.59 1.59 0 0 1 1.64 1.61c.14 1.71.22 3.43.32 5.14.03 1.21.09 2.41.15 3.65zM50 21.7v-3.12a1 1 0 0 0-.39-.8 4.3 4.3 0 0 0-1.42.07.55.55 0 0 0-.17.4v3.45h2zM44.5 14.28H16c-.31 0-.86.2-.86-.32s.55-.32.86-.32h57.14c.31 0 .86-.2.86.32s-.55.32-.86.32H44.5zM43.36 26.74h-2.29l-1.75-10.35a14 14 0 0 1 1.51 0 .65.65 0 0 1 .29.46c.37 2.37.73 4.74 1.2 7.12.19-.92.39-1.83.58-2.75.29-1.47.58-2.94.84-4.41a.43.43 0 0 1 .53-.46h1.3zM56 17.72l.83 9.42L55 27l-.75-9.3h-1.64l-.11-1.27h5l.13 1.29H56zM17.48 16.39l-2.31 13-1.85.34 1.33-7.31c.34-1.84.69-3.68 1-5.52a.48.48 0 0 1 .6-.51c.37.03.75 0 1.23 0zM59.66 27.37l-1.17-10.95h1.72l1.32 11.13zM24.08 48.41c0-1.77.85-3 2.28-3.18 2.28-.35 3.77 1.09 3.58 3.48s-1.67 3.44-3.79 2.93A2.77 2.77 0 0 1 24.08 49c-.01-.2 0-.39 0-.59zm1.11 0a10.81 10.81 0 0 0 .23 1.26 1.65 1.65 0 0 0 3.14 0 4 4 0 0 0 0-2.55A1.52 1.52 0 0 0 27 46.06a1.49 1.49 0 0 0-1.58 1.07 10.2 10.2 0 0 0-.23 1.29zM20.11 50.6h3.15v1h-4.52a.46.46 0 0 1-.33-.3.87.87 0 0 1 .12-.65c.48-.4 1.05-.7 1.54-1.1a10 10 0 0 0 1.4-1.34 1.35 1.35 0 0 0 .23-1.69 1.48 1.48 0 0 0-1.62-.41 2.64 2.64 0 0 0-.47.15.93.93 0 0 0 0 .22.59.59 0 0 1-.47.76.91.91 0 0 1-.77-.24 1.17 1.17 0 0 1 .12-1 3 3 0 0 1 2.43-.84 3 3 0 0 1 .47.05 1.75 1.75 0 0 1 1.51 2.54 5.93 5.93 0 0 1-1.24 1.68 11.91 11.91 0 0 1-1.55 1.17z"/><path d="M37.32 55.31l.31.57c-.23 0-.47.05-.7.05H15.87a1.32 1.32 0 0 1-.75-.27c0-.52.49-.32.78-.32zM51.41 55.89l.29-.59h21.37a1.76 1.76 0 0 1 .53 0 1.32 1.32 0 0 1 .37.3 2.44 2.44 0 0 1-.36.29.69.69 0 0 1-.29 0H51.88c-.15.04-.31.01-.47 0zM59.17 51.57v-.87h1.32v-4.3a3 3 0 0 1-.88.3.93.93 0 0 1-.7-.33c-.22-.37.17-.44.42-.53a3.45 3.45 0 0 1 2.32-.45v5.3h1.14v.88h-3.62zM32.47 41.91l-.09.59H15.64a1.49 1.49 0 0 1-.55-.28 1.59 1.59 0 0 1 .59-.3q8.39-.03 16.79-.01zM56.68 42.51v-.58h16.46a1.46 1.46 0 0 1 .47 0 1.4 1.4 0 0 1 .36.29 1.49 1.49 0 0 1-.37.29 1.44 1.44 0 0 1-.47 0H56.68zM47.27 49.39c-.89-.08-1.64-.41-2.43 0a.85.85 0 0 1-.69 0 1.7 1.7 0 0 0-1.57-.05 3.91 3.91 0 0 1-.92.1c.52 1.56 1.05 3.03 1.54 4.56a15.55 15.55 0 0 1 .43 1.89.5.5 0 0 1-.16.44.51.51 0 0 1-.47-.15 3.37 3.37 0 0 1-.57-.94c-.69-2-1.35-4.07-2-6.11a4.41 4.41 0 0 1-.22-1c0-.48.18-.59.62-.38a9.44 9.44 0 0 0 1.17.55c.52.17.67 0 .66-.51v-.24a1 1 0 1 1 1.9.2 2.87 2.87 0 0 0-.1.46.91.91 0 0 0 .31.22c-.12-.79-.33-1.56.45-2a1 1 0 0 1 .91.12 1.38 1.38 0 0 1 .31 1.8 4.46 4.46 0 0 0 .66-.16c.23-.1.44-.28.68-.36a7.63 7.63 0 0 1 .95-.19 4.19 4.19 0 0 1-.08.88C48 50.7 47.29 52.88 46.58 55a4.24 4.24 0 0 1-.58 1.16 1.14 1.14 0 0 1-.52.19 1.26 1.26 0 0 1-.15-.52c.15-.69.31-1.38.52-2.06.42-1.43.91-2.86 1.42-4.38z"/><path class="afcls-1" d="M66.34 46.74a2.47 2.47 0 0 0-2 .75c0-2.32 1.24-2.87 2-2.87a1.39 1.39 0 0 1 .87.25.53.53 0 0 0 .45.85.61.61 0 0 0 .67-.63c0-.5-.68-1.23-2.21-1.23s-2.82 1.24-2.82 4.08c0 3.32 1.95 3.76 2.76 3.76a2.44 2.44 0 0 0 2.62-2.51 2.21 2.21 0 0 0-2.34-2.45zM66 50.88a1.76 1.76 0 0 1-1.6-1.7 1.6 1.6 0 1 1 1.6 1.7z"/></symbol><symbol viewBox="0 0 90 70.6" id="award-fastcompany"><title>Fastcompany</title><desc>Fastcompany Award Icon</desc><path d="M44.6 35.2c.6.4 1 .7 1.5 1.1 1 .9 1.6 1.9 1.6 3.2v21.6c0 .3-.3.7-.5.9-2.1 1.3-2.1 1.3-4.2.1-3.6-2.1-7.2-4.2-10.7-6.2-.6-.3-.7-.7-.7-1.3V16.3c0-.9.3-1.3 1-1.7 4.1-2.3 8.1-4.6 12.1-6.9.3-.2.7-.1 1.1 0 1.7.5 2.2 1.7 2.1 3.5-.1 6.1-.1 12.2 0 18.3-.2 2.5-.8 4.5-3.3 5.7zm-2.3-20c-1.7 1-3.1 1.8-4.6 2.7-.6.3-.9.7-.9 1.5 0 10.4.1 20.7 0 31.1 0 1.4.3 2.2 1.6 2.8 1.3.6 2.5 1.4 3.9 2.2v-1.1-14.3c0-1.8-.7-3.1-2.1-4.1-.3-.2-.6-.4-1-.7 2.4-1.3 3.2-3.1 3.1-5.6-.1-4.4 0-8.9 0-13.3v-1.2zM53.1 12c2.9 1.6 5.6 3.2 8.4 4.8 2.4 1.4 4.8 2.7 7.2 4.1.5.3.7.6.7 1.2v26.6c0 .4-.2.9-.5 1-5.1 3-10.2 5.9-15.3 8.8-.1 0-.2.1-.4.1-.1-15.6-.1-31-.1-46.6zm5.4 9.4v27.8c1.7-1 3.3-1.9 4.9-2.9.2-.1.4-.5.4-.8V25c0-.2-.1-.6-.3-.7-1.6-1-3.3-1.9-5-2.9zM26 18.3v34c-1.8-1-3.4-1.9-5.1-2.9-.2-.1-.3-.5-.3-.7V21.9c0-.2.1-.6.3-.7 1.7-1 3.3-1.9 5.1-2.9z"/></symbol><symbol viewBox="0 0 89.9 70.6" id="award-time25"><title>Time25</title><desc>Time25 Award Icon</desc><g fill-rule="evenodd" clip-rule="evenodd"><path d="M28.6 48.5c.7 0 3.9.1 4.5.1v-.7c-.8 0-2.1-.1-2.5-.2V22.9c.4-.1 1.8-.2 2.5-.2V22c-.6 0-3.8.1-4.5.1-.7 0-3.9-.1-4.5-.1v.7c.8 0 2.1.1 2.5.2v24.7c-.4.1-1.8.2-2.5.2v.7c.6.1 3.8 0 4.5 0zM13.4 23.6h9c.1.7.1 3.4.1 3.4h.4v-5.1c-.6 0-10.8.1-11.4.1S.6 22 0 21.9V27h.4s0-2.7.1-3.4h9v24c-.4.1-1.8.2-2.5.2v.7c.6 0 3.8-.1 4.5-.1s3.9.1 4.5.1v-.7c-.8 0-2.1-.1-2.5-.2v-24h-.1zM36.6 47.7c.4-1.3 4.2-21.1 4.8-25.8h1.5c.5 2.9 7.3 18.2 8.7 20.8.8-1.7 7.2-16.9 8.5-20.8h1.4c.5 4.4 4.7 25.7 4.7 25.7.4.1 1.6.2 2.4.2v.7c-.6 0-3.8-.1-4.5-.1-.7 0-3.9.1-4.5.1v-.7c.8 0 2.1-.1 2.5-.2 0 0-2.7-14.7-3.1-16.7-.6 1.2-8 17.7-8 17.7h-1.3c-.8-1.8-7.5-16.9-7.7-17.9-.6 2.5-2.7 13.9-3.2 17 .4.1 1.9.2 2.5.2v.7c-.5 0-2.6-.1-3.1-.1s-3.4.1-3.9.1v-.7c.6 0 2-.1 2.3-.2zM89.5 43.5s0 2.7-.1 3.4H75.9V36c.1 0 10.2-.1 11.1 0 .1.3.3 1.8.4 2.2h.5c0-.3-.1-2.5-.1-3s0-2.8.1-3h-.5c0 .4-.3 1.9-.4 2.2-.9.1-11 0-11.1 0V23.6H89c.1.7.1 3.4.1 3.4h.4v-5.1c-.6 0-12.8.1-13.5.1-.7 0-6-.1-6.6-.1v.7c.8 0 2.1.1 2.5.2v24.7c-.4.1-1.8.2-2.5.2v.7c.6 0 5.9-.1 6.6-.1.7 0 13.3.1 13.9.1v-5.1h-.4z"/></g></symbol><symbol viewBox="0 0 40 30" id="bike"><title>Courier bike</title><desc>Bike delivering a Casper mattrress.</desc><path d="M35 15.3c-2.4 0-4.3 1.8-4.6 4.1h-.8V6.8c0-.3-.2-.5-.5-.5h-7.8c-.3 0-.5.2-.5.5v12.6h-.1l-.6-.2-2.2-7.9h.7c.3 0 .5-.2.5-.5s-.2-.5-.5-.5h-1.4c-.2 0-.3.1-.4.2-.1.1-.1.3-.1.5l.7 2.4H9.7l-1-2.3 1.2.3h.1c.2 0 .4-.2.5-.4.1-.3-.1-.6-.4-.6L7 9.5c-.3 0-.6.1-.7.4-.1.3.1.6.4.6l.7.2 1.3 3.1-1.5 2.1c-.7-.4-1.4-.6-2.2-.6-1.2 0-2.4.5-3.3 1.4-.9.9-1.3 2-1.3 3.3 0 2.5 2.1 4.6 4.6 4.6 2.4 0 4.3-1.8 4.6-4.1h2.3c.1 0 .3 0 .4-.2l5.5-5.5 1.4 4.9c0 .2.2.3.3.4l1 .3h10c.3 2.3 2.2 4.1 4.6 4.1 2.5 0 4.6-2.1 4.6-4.6-.1-2.6-2.2-4.6-4.7-4.6zm-6.4 4.1h-6.7v-1.2h6.7v1.2zm0-2.2h-6.7V16h6.7v1.2zM21.8 15v-3.3h6.7V15h-6.7zm6.7-4.3h-6.7V9.5h6.7v1.2zm0-3.4v1.2h-6.7V7.3h6.7zM5.1 23.6c-2 0-3.6-1.6-3.6-3.6 0-1 .4-1.8 1-2.5.7-.7 1.6-1.1 2.5-1.1.6 0 1.1.1 1.6.4l-2 2.9c-.1.2-.1.4 0 .5.1.2.3.3.5.3h3.5c-.3 1.7-1.8 3-3.5 3.1zm3.5-4.1H6.1l1.4-2.1c.6.5.9 1.3 1.1 2.1zm1-.1c-.1-1.2-.7-2.2-1.5-2.9l1.1-1.6 1.9 4.5H9.6zm2.5-.4l-2-4.7h6.7L12.1 19zM35 23.4c-1.8 0-3.3-1.3-3.5-3H35c.3 0 .5-.2.5-.5s-.2-.5-.5-.5h-3.5c.2-1.7 1.7-3 3.5-3.1 2 0 3.6 1.6 3.6 3.6-.1 1.9-1.7 3.5-3.6 3.5z"/></symbol><symbol viewBox="0 0 50 27" id="book"><path d="M46.4 23.5l.1-.1v-.2-.1-.2-.1s0-.1-.1-.1l-.1-.1c-1.6-1.3-2.5-3.1-2.5-5.2 0-2 .9-3.9 2.5-5.2.1 0 .1-.1.1-.2v-.1-.2-.3-.1c0-.1-.1-.1-.1-.2l-10-10c-.1-.1-.3-.2-.5-.2H10C6.4.9 3.5 3.8 3.5 7.4c0 1.7.7 3.4 1.9 4.6l10 10 .1.1c1.2 1.1 2.8 1.8 4.5 1.8h2.7v2.4c0 .3.2.6.4.7.1 0 .2.1.3.1.2 0 .3-.1.5-.2l2.3-1.9 2.3 1.9c.2.2.5.2.8.1.3-.1.4-.4.4-.7v-2.4h16c.1 0 .2 0 .3-.1h.1c.1 0 .1-.1.2-.1 0-.1 0-.1.1-.2-.1 0-.1 0 0 0zm-23.7-5h-7.5c-.1-.4-.2-.8-.2-1.2s.1-.8.2-1.2h7.5v2.4zm-6.9-3.8c.9-1.4 2.4-2.3 4.2-2.3h23.9c-.5.7-1 1.5-1.3 2.3H15.8zm14 1.5h12.6c-.1.4-.1.8-.1 1.2s0 .8.1 1.2H29.8v-2.4zm5.6-13.8l8.5 8.5H20c-.8 0-1.6.2-2.4.4L8.9 2.5c.3-.1.7-.1 1.1-.1h25.4zM5 7.4C5 5.6 6 4 7.4 3.1l8.9 8.9c-1.1.8-1.9 1.8-2.4 3.1v.1c-.2.7-.4 1.4-.4 2.2v.6l-7.1-7.1C5.5 9.9 5 8.7 5 7.4zm15 15c-1.8 0-3.3-.9-4.2-2.3h6.9v2.3H20zm8.3 2.2l-1.5-1.3c-.1-.1-.3-.2-.5-.2s-.3.1-.5.2l-1.5 1.3v-8.4h4v8.4zm1.5-4.6h12.9c.3.8.7 1.6 1.3 2.3H29.8V20z"/></symbol><symbol viewBox="0 0 362.6 220.1" id="book-closed"><title>Closed book</title><path d="M362.5 187.3v-.2c0-.1 0-.2-.1-.3 0-.2-.1-.4-.1-.7v-.1c0-.1-.1-.2-.1-.3 0-.1-.1-.2-.1-.2 0-.1-.1-.2-.1-.2 0-.1-.1-.2-.1-.3l-.1-.1c-.3-.4-.6-.9-.9-1.2l-.2-.2c-.1-.1-.2-.2-.3-.2-13.3-10.8-21-26.8-21-43.9 0-17.1 7.6-33.1 21-43.9.1 0 .1-.1.2-.1s.1-.1.1-.1c.4-.4.7-.8 1-1.2 0 0 0-.1.1-.1.3-.5.5-1 .6-1.5v-.2c.1-.3.1-.5.1-.8v-.1-.7-.2c0-.3 0-.5-.1-.8v-.1c0-.2-.1-.5-.2-.7v-.1c-.1-.2-.2-.5-.3-.7V88c-.1-.2-.2-.4-.4-.6 0-.1-.1-.1-.1-.2l-.1-.1c-.1-.2-.3-.3-.4-.5L276.1 1.8C275 .6 273.5 0 271.9 0H54.5C24.5 0 0 24.5 0 54.5c0 14.6 5.7 28.3 16 38.6l84.7 84.7.4.4c9.8 9.6 23.3 15.6 38.1 15.6h23.2v20.4c0 2.3 1.3 4.4 3.4 5.4 2.1 1 4.6.7 6.4-.8l19.6-16 19.6 16c1.1.9 2.4 1.4 3.8 1.4.9 0 1.7-.2 2.6-.6 2.1-1 3.4-3.1 3.4-5.4v-20.4h136.1c.2 0 .4 0 .5-.1h.2c.2 0 .3-.1.5-.1.1 0 .1 0 .2-.1.1 0 .3-.1.4-.2.1 0 .2-.1.2-.1.1-.1.2-.1.3-.2.1 0 .2-.1.2-.1.1-.1.2-.1.3-.2.1-.1.2-.1.2-.2l.3-.3.2-.2c.1-.1.3-.3.4-.5 0-.1.1-.1.1-.2.1-.1.1-.2.2-.3 0-.1.1-.2.1-.2.1-.1.1-.2.2-.3 0-.1.1-.2.1-.3 0-.1.1-.2.1-.3 0-.1.1-.2.1-.3 0-.1.1-.2.1-.3 0-.1.1-.2.1-.3 0-.1 0-.2.1-.3 0-.1 0-.2.1-.3v-.2-.4-.2c.1 0 .1-.2 0-.3zm-200.1-37.9H97.9c-.8-3.3-1.2-6.7-1.2-10.2 0-3.5.4-6.9 1.2-10.2h64.5v20.4zM102.9 117c7.5-12.2 20.9-20.3 36.3-20.3h203c-4.9 6.1-8.6 13-11.2 20.3H102.9zm118.3 12h106.9c-.5 3.3-.8 6.7-.8 10.2 0 3.4.3 6.8.8 10.2H221.2V129zm48.2-117l72.7 72.7H139.2c-7.1 0-13.8 1.4-20 3.8L44 13.3c3.4-.9 6.9-1.3 10.5-1.3h214.9zM24.5 84.6c-8-8-12.5-18.7-12.5-30.1 0-15.2 8.1-28.6 20.1-36.1l76 76a54.75 54.75 0 0 0-20.2 26.2c-.1.3-.2.5-.3.8-1.9 5.6-3 11.5-3 17.7 0 2 .1 4 .3 5.9L24.5 84.6zm114.7 97.1c-15.3 0-28.8-8.2-36.3-20.4h59.5v20.4h-23.2zm70 19.7l-13.6-11.1c-1.1-.9-2.5-1.4-3.8-1.4s-2.7.5-3.8 1.4l-13.6 11.1V129h34.8v72.4zm12-40h109.9c2.5 7.4 6.3 14.2 11.2 20.4h-121v-20.4z"/></symbol><symbol viewBox="0 0 612 561" id="calendar"><title>Calendar icon</title><desc>Monthly calendar icon</desc><path d="M535.5 51h-51V25.5C484.5 10.2 474.3 0 459 0s-25.5 10.2-25.5 25.5V51h-255V25.5C178.5 10.2 168.3 0 153 0s-25.5 10.2-25.5 25.5V51h-51C33.1 51 0 84.1 0 127.5v357C0 527.9 33.1 561 76.5 561h459c43.4 0 76.5-33.1 76.5-76.5v-357c0-43.4-33.1-76.5-76.5-76.5zm-459 51h51v25.5c0 15.3 10.2 25.5 25.5 25.5s25.5-10.2 25.5-25.5V102h255v25.5c0 15.3 10.2 25.5 25.5 25.5s25.5-10.2 25.5-25.5V102h51c15.3 0 25.5 10.2 25.5 25.5V204H51v-76.5c0-15.3 10.2-25.5 25.5-25.5zm459 408h-459C61.2 510 51 499.8 51 484.5V255h510v229.5c0 15.3-10.2 25.5-25.5 25.5z"/><circle cx="153" cy="331.5" r="20.4"/><path d="M153 359.6c-15.3 0-28.1-12.8-28.1-28.1s12.8-28.1 28.1-28.1 28.1 12.8 28.1 28.1-12.8 28.1-28.1 28.1zm0-38.3c-5.1 0-10.2 2.6-10.2 10.2s2.6 10.2 10.2 10.2 10.2-2.6 10.2-10.2-5.1-10.2-10.2-10.2z"/><circle cx="153" cy="433.5" r="20.4"/><path d="M153 461.6c-15.3 0-28.1-12.8-28.1-28.1s12.8-28.1 28.1-28.1 28.1 12.8 28.1 28.1-12.8 28.1-28.1 28.1zm0-38.3c-5.1 0-10.2 2.6-10.2 10.2s2.6 10.2 10.2 10.2 10.2-2.6 10.2-10.2-5.1-10.2-10.2-10.2z"/><circle cx="255" cy="433.5" r="20.4"/><path d="M255 461.6c-15.3 0-28.1-12.8-28.1-28.1s12.8-28.1 28.1-28.1 28.1 12.8 28.1 28.1-12.8 28.1-28.1 28.1zm0-38.3c-5.1 0-10.2 2.6-10.2 10.2s2.6 10.2 10.2 10.2 10.2-2.6 10.2-10.2-5.1-10.2-10.2-10.2z"/><circle cx="255" cy="331.5" r="20.4"/><path d="M255 359.6c-15.3 0-28.1-12.8-28.1-28.1s12.8-28.1 28.1-28.1 28.1 12.8 28.1 28.1-12.8 28.1-28.1 28.1zm0-38.3c-5.1 0-10.2 2.6-10.2 10.2s2.6 10.2 10.2 10.2 10.2-2.6 10.2-10.2-5.1-10.2-10.2-10.2z"/><circle cx="357" cy="331.5" r="20.4"/><path d="M357 359.6c-15.3 0-28.1-12.8-28.1-28.1s12.8-28.1 28.1-28.1 28.1 12.8 28.1 28.1-12.8 28.1-28.1 28.1zm0-38.3c-5.1 0-10.2 2.6-10.2 10.2s2.6 10.2 10.2 10.2 10.2-2.6 10.2-10.2-5.1-10.2-10.2-10.2z"/><circle cx="357" cy="433.5" r="20.4"/><path d="M357 461.6c-15.3 0-28.1-12.8-28.1-28.1s12.8-28.1 28.1-28.1 28.1 12.8 28.1 28.1-12.8 28.1-28.1 28.1zm0-38.3c-5.1 0-10.2 2.6-10.2 10.2s2.6 10.2 10.2 10.2 10.2-2.6 10.2-10.2-5.1-10.2-10.2-10.2z"/><circle cx="459" cy="433.5" r="20.4"/><path d="M459 461.6c-15.3 0-28.1-12.8-28.1-28.1s12.8-28.1 28.1-28.1 28.1 12.8 28.1 28.1-12.8 28.1-28.1 28.1zm0-38.3c-5.1 0-10.2 2.6-10.2 10.2s2.6 10.2 10.2 10.2 10.2-2.6 10.2-10.2-5.1-10.2-10.2-10.2z"/><circle cx="459" cy="331.5" r="20.4"/><path d="M459 359.6c-15.3 0-28.1-12.8-28.1-28.1s12.8-28.1 28.1-28.1 28.1 12.8 28.1 28.1-12.8 28.1-28.1 28.1zm0-38.3c-5.1 0-10.2 2.6-10.2 10.2s2.6 10.2 10.2 10.2 10.2-2.6 10.2-10.2-5.1-10.2-10.2-10.2z"/></symbol><symbol viewBox="0 0 55 60.8" id="calsix"><title>Calendar icon</title><desc>6th day of the calendar month</desc><path d="M53.5 11.2h-3.9V7.4c0-.8-.7-1.5-1.5-1.5h-7V1.5C41 .7 40.4 0 39.5 0h-5.1c-.8 0-1.5.7-1.5 1.5v4.3h-16V1.5c0-.8-.7-1.5-1.5-1.5h-5.1c-.8 0-1.5.7-1.5 1.5v4.3H1.5C.7 5.8 0 6.5 0 7.4v46.5c0 .8.7 1.5 1.5 1.5h3.9v3.8c0 .8.7 1.5 1.5 1.5h46.5c.8 0 1.5-.7 1.5-1.5V12.7c.1-.8-.6-1.5-1.4-1.5zM36 3h2v8.6h-2V3zM11.8 3h2v8.6h-2V3zM3 8.9h5.7v4.3c0 .8.7 1.5 1.5 1.5h5.1c.8 0 1.5-.7 1.5-1.5V8.9h16v4.3c0 .8.7 1.5 1.5 1.5h5.1c.8 0 1.5-.7 1.5-1.5V8.9h5.5v43.5H3V8.9zm49 48.8H8.5v-2.3h39.6c.8 0 1.5-.7 1.5-1.5V14.2H52v43.5z"/><path d="M39.5 17.7H10.3c-.8 0-1.5.7-1.5 1.5s.7 1.5 1.5 1.5h29.2c.8 0 1.5-.7 1.5-1.5s-.6-1.5-1.5-1.5zM25.3 34.3c-.9 0-1.8.3-2.5.7 1.4-1.7 4.2-3.3 6.8-4.2l-1.7-3.5c-7.5 3.5-10.1 7.8-10.1 12.2 0 3.6 2.5 6.4 6.5 6.4 4.2 0 6.5-3.1 6.5-6 0-3.1-1.7-5.6-5.5-5.6zm-.9 8.2c-1.4 0-2.3-1.1-2.3-2.7 0-1.7.9-2.5 2.3-2.5 1.3 0 2.2 1 2.2 2.6 0 1.5-.7 2.6-2.2 2.6z"/></symbol><symbol viewBox="-380 292 30 30" id="canada"><title>Canadian Flag</title><desc>Shop Casper Mattress in Canada</desc><path d="M-359.8 312l.4 1.4c-1.7-.2-3.3-.5-5-.7-.2 0-.4.2-.4.4l.1 5.1h-.8l.2-5.1c0-.2-.3-.4-.4-.4-1.7.2-3.3.5-5 .7l.4-1.4c.1-.2 0-.5-.2-.7l-5-3.9 1-.5c.5-.2.3-.4.2-1l-.8-2.7 2.9.6c.3 0 .5-.1.5-.3l.4-1.3 2.3 2.5c.3.4 1 .4.8-.5l-1-5 1.3.7c.4.2.7.2 1-.1l1.8-3.3 1.8 3.3c.2.4.6.3 1 .1l1.3-.7-1 5c-.2.9.5.9.8.5l2.3-2.5.4 1.3c0 .2.2.3.5.3l2.9-.6-.8 2.7c-.2.6-.3.8.2 1l1 .5-5 3.9c-.1.2-.2.5-.1.7m-5.2-20c-8.3 0-15 6.7-15 15s6.7 15 15 15 15-6.7 15-15-6.7-15-15-15"/></symbol><symbol viewBox="0 0 28.9 20.7" id="cart-closed"><title>Shopping Cart</title><desc>There are no items in your cart</desc><path d="M25.3 14.7H9.5c-.5 0-.9-.3-1-.7l-3-12H1c-.6 0-1-.4-1-1s.4-1 1-1h5.2c.5 0 .9.3 1 .7l.5 2h20.1c.3 0 .6.1.8.4.2.2.3.6.2.9l-2.6 10c-.1.4-.5.7-.9.7zm-15-2h14.2l2.1-8H8.2l2.1 8z"/><circle cx="22.7" cy="18.9" r="1.8"/><circle cx="10.3" cy="18.9" r="1.8"/></symbol><symbol viewBox="0 0 28.9 20.7" id="cart-open"><title>Shopping cart</title><desc>There are items in your shopping cart</desc><path d="M25.3 14.7H9.5c-.5 0-.9-.3-1-.7l-3-12H1c-.6 0-1-.4-1-1s.4-1 1-1h5.2c.5 0 .9.3 1 .7l3.1 12h14.2l2.4-9.3c.1-.5.7-.9 1.2-.7.5.2.9.7.7 1.3l-2.6 10c-.1.4-.5.7-.9.7z"/><circle cx="22.7" cy="18.9" r="1.8"/><circle cx="10.3" cy="18.9" r="1.8"/></symbol><symbol viewBox="0 0 105.859 100.993" id="casper-logo-mark"><title>Casper Logo Mark</title><path d="M77.636 68.913c-5.61 10.42-15.72 16.384-27.83 16.384-9.05 0-17.552-3.58-23.464-10.07-5.836-6.402-9.627-15.187-9.627-24.73 0-9.55 3.79-18.324 9.627-24.73 5.912-6.49 14.414-10.063 23.463-10.063 9.047 0 14.864 3.018 19.322 6.386 3.812 2.885 8.555 6.177 15.986 6.177 13.528 0 19.475-11.055 20.746-17.02L90.94 8.083c-.11.51-1.182 4.938-5.827 4.938-2.05 0-3.295-.815-6.62-3.328C73.083 5.604 65.668 0 49.805 0 21.715 0 0 22.556 0 50.496s21.715 50.497 49.805 50.497c17.792 0 34.526-9.833 42.175-24.058l-14.344-8.022z"/></symbol><symbol viewBox="0 0 28.9 38.3" id="cat"><title>Cat</title><desc>Line drawing of a cat sitting</desc><path d="M12.7 38.3c-.4 0-.8-.4-.8-.8v-4.3c0-.4.4-.8.8-.8s.8.4.8.8v4.3c0 .5-.4.8-.8.8zm3.6 0c-.4 0-.8-.4-.8-.8v-4.3c0-.4.4-.8.8-.8s.8.4.8.8v4.3c0 .5-.4.8-.8.8zm6.8 0h-2.7c-.3 0-.5-.1-.6-.3s-.2-.5-.1-.7c1.7-5.3 1.9-9.1.6-11.4-.6-1.1-1.5-1.8-2.9-2.2-.4-.1-.7-.6-.6-1 .1-.4.6-.7 1-.6 1.7.5 3 1.5 3.8 3 1.4 2.5 1.3 6.4-.2 11.6H23c.4 0 .8.4.8.8s-.2.8-.7.8zm-14.6 0H5.8c-.5 0-.8-.3-.8-.8s.4-.8.8-.8h1.6c-1.5-5.2-1.6-9.1-.2-11.6.8-1.5 2.1-2.5 3.8-3 .4-.1.9.1 1 .6s-.1.9-.6 1c-1.3.4-2.3 1.1-2.9 2.2-1.2 2.3-1 6.2.6 11.4.1.2 0 .5-.1.7 0 .2-.3.3-.5.3z"/><path d="M7 33.3c-1.6 0-2.9-.7-3.7-1.9-1-1.4-1.2-3.2-.6-5.2.5-1.7.5-3.1 0-3.9-.4-.5-1-.8-1.8-.8-.4 0-.8-.4-.8-.8-.1-.4.3-.7.7-.7 1.7 0 2.6.8 3.1 1.4.9 1.2 1 3.1.3 5.3-.4 1.4-.3 2.8.4 3.8.5.8 1.4 1.2 2.4 1.2.4 0 .8.4.8.8s-.4.8-.8.8zm7.4-8.6c-3.4 0-6.2-2.8-6.2-6.2v-.8l-2.4-4.5c-.1-.3-.1-.6.1-.9.2-.2.5-.3.8-.3l4.8 1.1c1.6-.9 4.1-.9 5.7 0L22 12c.3-.1.6 0 .8.3.2.2.2.6.1.9l-2.4 4.5v.8c0 3.4-2.7 6.2-6.1 6.2zM8.1 14l1.7 3.2c.1.1.1.3.1.5 0 0-.1.5-.1.9 0 2.5 2.1 4.6 4.6 4.6 2.5 0 4.6-2 4.6-4.6 0-.4-.1-.9-.1-.9 0-.2 0-.3.1-.5l1.7-3.2-3.4.7c-.2 0-.4 0-.6-.1-1.2-.8-3.3-.8-4.5 0-.2.1-.4.2-.6.1L8.1 14z"/><path d="M19.7 19.7c-.4 0-.7-.3-.8-.7-.1-.4.2-.8.7-.9l2.5-.4c.4-.1.8.2.9.7s-.2.8-.7.9l-2.5.4h-.1zm2.5 2.4h-.1l-3-.5c-.4-.1-.7-.5-.6-.9.1-.4.5-.7.9-.6l3 .5c.4.1.7.5.6.9-.1.3-.4.6-.8.6zM8.8 19.7h-.1l-2.5-.4c-.4-.1-.7-.5-.7-.9.1-.4.5-.7 1-.7l2.5.4c.4.1.7.5.7.9-.1.4-.5.7-.9.7zM6.3 22.1c-.4 0-.7-.3-.8-.7-.1-.4.2-.9.6-.9l3-.5c.4-.1.8.2.9.6.1.4-.2.9-.6.9l-3 .5c0 .1 0 .1-.1.1z"/></symbol><symbol viewBox="0 0 16 16" id="checkmark"><title>Checkmark</title><path d="M8 1c3.86 0 7 3.14 7 7s-3.14 7-7 7-7-3.14-7-7 3.14-7 7-7m0-1a8 8 0 1 0 0 16A8 8 0 0 0 8 0z"/><path fill-rule="evenodd" clip-rule="evenodd" d="M10.828 4.464L6.586 8.707 8 10.12l4.243-4.242-1.415-1.414zm-7.07 4.243l2.828 2.83L8 10.12 5.172 7.294 3.757 8.707z"/></symbol><symbol viewBox="0 0 76.7 90.9" id="clock"><title>Clock</title><path fill="none" d="M76.7 45.7c0-7.5-2.4-14.6-6.1-20.7 1.9-2.4 2.8-5.6 2.8-8.9 0-8.9-7.1-16-16-16-5.6 0-10.8 2.8-13.2 7.5-1.9-.5-3.8-.5-6.1-.5-2.4 0-4.2 0-6.1.5C29.2 2.8 24.5 0 18.8 0c-8.9.5-16 7.5-16 16 0 3.3.9 6.6 2.8 8.9C1.9 31.1 0 38.1 0 45.7c0 14.1 7.5 26.4 18.8 33l-4.7 7.5c-.9 1.4-.5 3.3.9 4.2.5.5.9.5 1.4.5.9 0 1.9-.5 2.8-1.4l4.7-8c4.2 1.9 8.9 2.8 13.7 2.8s9.4-.9 13.7-2.8l4.7 8c.5.9 1.4 1.4 2.8 1.4.5 0 .9 0 1.4-.5 1.4-.9 1.9-2.8.9-4.2l-4.7-7.5c12.3-6.7 20.3-18.9 20.3-33zM57.4 6.1c5.2 0 9.9 4.2 9.9 9.9 0 1.4-.5 2.8-.9 3.8-4.2-4.7-9.9-8.5-16-10.4 1.9-1.9 4.2-3.3 7-3.3zM8.9 16c0-5.2 4.2-9.9 9.9-9.9 2.8 0 5.2 1.4 7.1 2.8-6.6 2.4-11.8 6.1-16 10.8-.5-.9-1-2.3-1-3.7zm29.2 62.1c-17.9 0-32.5-14.6-32.5-32.5s14.6-32.5 32.5-32.5 32 14.6 32 32.5-14.1 32.5-32 32.5z"/><path d="M52.3 42.4H41V22.1c0-1.9-1.4-2.8-2.8-2.8s-2.8.9-2.8 2.8v23.5c0 1.9 1.4 2.8 2.8 2.8h14.1c1.9 0 3.3-1.4 3.3-2.8s-1.5-3.2-3.3-3.2z"/></symbol><symbol viewBox="0 0 11.6 11.6" id="close"><title>Close</title><path d="M11.6 1.4L10.2 0 5.8 4.4 1.4 0 0 1.4l4.4 4.4L0 10.2l1.4 1.4 4.4-4.4 4.4 4.4 1.4-1.4-4.4-4.4z"/></symbol><symbol viewBox="0 0 190 27" id="cnbc-small"><title>CNBC Logo</title><path d="M83.9 13.5c-.3-1.7-1.7-2.1-3.2-2.3-4.9-.5-5.8 3.2-5.8 4.8 0 2.7.8 4.9 5.6 4.9.9 0 3.4-.9 3.4-2.4h7c-.3 4.4-7.7 5.5-11 5.5-6.7 0-12.5-1.3-12.2-7.9.2-4.7 4.7-8.1 13.6-7.9 5 .1 9.7 1.7 9.7 5.3h-7.1zM153.7 13.5c-.3-1.7-1.7-2.1-3.2-2.3-4.9-.5-5.8 3.2-5.8 4.8 0 2.7.8 4.9 5.6 4.9.9 0 3.4-.9 3.4-2.4h7c-.3 4.4-7.7 5.5-11 5.5-6.7 0-12.5-1.3-12.2-7.9.2-4.7 4.7-8.1 13.6-7.9 5 .1 9.7 1.7 9.7 5.3h-7.1zM92.2 8.5h9l7.7 10.9h.1V8.5h5.8v15.1h-8.7L98 12.8v10.8h-5.8V8.5zM116.6 8.5h11c5.3 0 8.4 1.5 8.4 3.7 0 1.3-1.3 2.9-4.2 3.4 3.5.2 4.8 2.4 4.8 3.7 0 2.7-3 4.1-8.9 4.1h-11V8.5h-.1zm6.3 5.9h1.8c2.8 0 4.3-.2 4.3-1.4 0-1.3-1.2-1.7-3.8-1.7h-2.4v3.1h.1zm0 6h1.8c3.4 0 4.6-.4 4.6-1.5 0-1.3-1.6-1.7-4.1-1.7h-2.4v3.2h.1z"/><g><path d="M59.6 14.9l-10.4 6.9 3.5-8.3 1.7-3.9c.7-1.2 1.9-2 3.3-2.1 1.3 0 2.5.6 3.2 1.8.8 1.1.8 3 0 4.2-.3.6-.8 1.1-1.3 1.4zM54.5 8.4l-5.1 12.1-.2-1.3-1.5-9.9c-.1-.6.2-1.1.7-1.5l.6-.4c0-.2-.2-.2-.3-.3h-1.4c-.1-1.4.5-2.7 1.7-3.5.9-.6 2.4-.8 3.4-.3 1.4.6 2.3 2 2.3 3.5.1.5 0 1.1-.2 1.6zM44.6 20.6l-5-12.2c-.5-1.3-.3-3 .6-4.1 1-1.1 2.4-1.6 3.8-1.2 1.2.3 2.4 1.5 2.7 2.7.1.5.1 1 .1 1.5l-2.2 13.3zM33.8 14.5c-1-.9-1.5-2.1-1.4-3.5.1-1.4 1.3-2.8 2.6-3.2 1.4-.4 2.8-.1 3.8.9.4.4.7.9.9 1.3l4.9 11.8-10.8-7.3zM32.7 23.1c-1.3-.2-2.4-.9-3-2.1-.6-1.2-.5-3 .4-4.1.9-1.1 2.3-1.7 3.7-1.4.6.1 1 .3 1.5.6l10.5 7.1-13.1-.1zM61.2 23.1c1.4-.2 2.4-.9 3-2.1.6-1.2.5-3-.4-4.1-.9-1.1-2.3-1.7-3.7-1.4-.6.1-1 .3-1.5.6l-10.5 7.1 13.1-.1z"/></g></symbol><symbol viewBox="0 0 28 26" id="contacts"><title>Contact Icon</title><desc>Icon for Contacts</desc><path d="M20 12.7c.9-1.3 1.5-2.8 1.5-4.5 0-4.1-3.4-7.5-7.5-7.5S6.5 4.1 6.5 8.2c0 1.7.6 3.2 1.5 4.5-4.2 2.2-7 6.5-7 11.5 0 .6.4 1 1 1h24c.6 0 1-.4 1-1 0-5-2.8-9.3-7-11.5zm-6-9.9c3 0 5.5 2.5 5.5 5.5 0 1.6-.7 3.1-1.9 4.1-1 .9-2.2 1.4-3.6 1.4-1.2 0-2.4-.4-3.3-1.1-1.3-1-2.2-2.6-2.2-4.4 0-3.1 2.5-5.5 5.5-5.5zM3 23.2c.4-4 2.9-7.4 6.4-9 1.3 1 2.8 1.5 4.5 1.5 1.7 0 3.3-.6 4.5-1.5 3.5 1.6 6.1 5 6.4 9H3z"/></symbol><symbol viewBox="0 0 40 30" id="delivery"><title>Delivery</title><desc>Casper mattress emerging from a box</desc><path d="M32.2 16.9l-3.1-5.2-1.3-.4V4.9v-.3c0-1.9-1.6-4.2-6.3-4.2-2.9 0-5.2 1-6.2 2.6-.5.8-.7 1.6-.5 2.5-.5 0-.9.2-1.3.5-.6.5-.9 1.3-.9 2.6v2.6l-1.3.4-3.1 5.2c-.1.1-.1.3 0 .5s.2.3.3.3l2.7.9v7.4c0 .2.1.4.4.5l8.6 3H20.5l8.7-3c.2-.1.4-.3.4-.5v-7.4l2.7-.9c.2-.1.3-.2.3-.3-.3-.1-.3-.2-.4-.4zm-5.5-4.8L20 14.4l-3.8-1.3v-2.6c0-.4 0-.9.2-1.1 0 0 .2-.2.9 0 1.1.2 2.1.3 3.1.3 2.4 0 4.4-.6 5.6-1.7.2-.1.3-.3.5-.5l.2-.3v4.9zM14 6.7c.4-.4 1.2-.2 1.8-.1.2 0 .3 0 .4.1 4.2.5 6.3.3 7.3-.5.3-.4.5-.8.5-1.3 0-.9-.8-1.3-1.3-1.5-1.3-.5-3.7-.4-4.6.8-.2.3-.5.8-.4 1.6-.6-.1-1.1-.1-1.4-.2-.1 0-.2 0-.4-.1h-.1c-.3-.7-.2-1.3.2-2 .8-1.3 2.9-2.1 5.3-2.1s5.2.8 5.2 3.1c0 1.1-.4 2-1.2 2.6-1.5 1.3-4.4 1.7-7.8 1.1-.8-.1-1.4 0-1.8.3-.5.5-.5 1.2-.5 1.9v2.2l-1.6-.6V8.3c-.1-.4 0-1.2.4-1.6zm5-1.8c.6-.7 2.4-.8 3.4-.5.4.1.6.3.6.5s-.1.4-.2.5c-.6.5-2.2.6-3.8.5-.3-.7-.1-.9 0-1zm-7.4 7.8l7.6 2.6-2.5 4.2-7.6-2.6 2.5-4.2zm.3 6.3l4.9 1.7h.2c.2 0 .4-.1.5-.3l2.1-3.5v11.3L12 25.6V19zm16.5 6.6l-7.8 2.7V17l2.1 3.5c.1.2.3.3.5.3h.2l5.1-1.8v6.6zm-5.1-6.1l-2.5-4.2 7.6-2.6 2.5 4.2-7.6 2.6z"/></symbol><symbol viewBox="0 0 28.8 38.3" id="dog"><title>Dog</title><desc>Line drawing of a dog sitting</desc><path d="M11.7 38.2c-.4 0-.8-.4-.8-.8v-4.6c0-.4.4-.8.8-.8s.8.4.8.8v4.6c0 .5-.4.8-.8.8zm3.9 0c-.4 0-.8-.4-.8-.8v-4.6c0-.4.4-.8.8-.8s.8.4.8.8v4.6c0 .5-.4.8-.8.8zm7.4.1h-2.9c-.3 0-.5-.1-.6-.3-.2-.2-.2-.5-.1-.7 1.8-5.7 2-9.9.7-12.4-.7-1.2-1.7-2-3.1-2.4-.4-.1-.7-.6-.6-1 .1-.4.6-.7 1-.6 1.9.5 3.2 1.6 4.1 3.2 1.5 2.7 1.4 7-.3 12.6H23c.4 0 .8.4.8.8s-.4.8-.8.8zm-15.9 0H4.2c-.4 0-.8-.4-.8-.8s.4-.8.8-.8H6c-1.7-5.6-1.7-9.9-.3-12.6.9-1.6 2.3-2.7 4.1-3.2.4-.1.9.1 1 .6.1.4-.1.9-.6 1-1.4.4-2.5 1.2-3.1 2.4-1.4 2.5-1.1 6.7.7 12.4.1.2 0 .5-.1.7-.1.2-.3.3-.6.3z"/><path d="M5.7 27.4h-.2C1 26.5-.6 21.2 0 17.6c.1-.4.5-.7.9-.6.4.1.7.5.6.9-.5 2.8.7 7.2 4.2 7.9.4.1.7.5.6.9.2.5-.2.7-.6.7zM14.3 21.6h-1.5c-.4 0-.8-.4-.8-.8s.4-.8.8-.8h1.5c.4 0 .8.4.8.8s-.4.8-.8.8z"/><path d="M13.5 24.3c-1.7 0-3.3-.8-3.9-2-.7-1.2-1.3-5.3-1.5-7.3-1.9.8-3.2.5-3.8-.7-.6-1.2 0-2.9.9-4 .7-.9 1.7-1.4 2.8-1.4 1.1 0 2.2.6 2.8 1.6.6-.2 1.6-.4 2.8-.4 1 0 1.9.1 2.8.4.6-1 1.7-1.6 2.8-1.6 1 0 2 .5 2.8 1.4.9 1.1 1.4 2.8.9 4-.2.4-.7 1.1-1.9 1.1-.5 0-1.1-.1-1.8-.4-.2 2.1-.7 6.2-1.5 7.4-1.1 1.2-2.5 1.9-4.2 1.9zM8.7 13c.1 0 .3 0 .4.1.2.1.4.4.4.6.3 2.5.9 6.9 1.4 7.9.4.7 1.4 1.1 2.5 1.1s2.1-.4 2.6-1.2c.6-.8 1.2-5.1 1.4-7.8 0-.3.2-.5.4-.6.2-.1.5-.1.8 0 2.3 1.2 2.5.7 2.6.6.2-.4 0-1.5-.7-2.3-.4-.5-1-.8-1.5-.8-.7 0-1.4.5-1.7 1.3-.2.4-.6.6-1 .5-.9-.3-1.9-.5-2.9-.5-1.7 0-2.9.5-2.9.5-.2.1-.4.1-.6 0-.2-.1-.4-.2-.4-.4-.3-.8-.9-1.3-1.7-1.3-.5 0-1.1.3-1.5.8-.6.8-.9 1.9-.7 2.3 0 .1.1.2.5.2s1-.1 2.2-.7c.2-.3.3-.3.4-.3z"/></symbol><symbol viewBox="0 0 57.1 54" id="ear"><title>Ear</title><desc>Line drawing of an ear</desc><path d="M55.6 40.8c-.8 0-1.5.7-1.5 1.5 0 3.1-1.5 5.7-4.3 7.2-3.4 1.9-8 1.9-11.3-.1-2.1-1.3-4.6-3.9-4.4-9.3.2-5.4-2.1-8.5-4.3-11.5-2.1-2.8-4-5.4-4-10 0-4.9 1.6-9 4.8-11.8C33.3 4.4 37 3 40.9 3c6 0 12.4 3.5 12.4 11.1 0 .8.7 1.5 1.5 1.5s1.5-.7 1.5-1.5C56.2 4.9 48.5 0 40.9 0c-4.6 0-9 1.7-12.3 4.6-3.8 3.4-5.8 8.2-5.8 14 0 5.6 2.4 8.9 4.6 11.8 2.1 2.8 3.9 5.3 3.8 9.6-.2 5.3 1.9 9.6 5.8 12 2.1 1.3 4.7 2 7.3 2 2.4 0 4.9-.6 7-1.8 3.7-2.1 5.8-5.7 5.8-9.9 0-.8-.6-1.5-1.5-1.5z"/><path d="M50.3 25.9c.4-.1 1.2-.1 1.8 1 .4.7 1.3 1 2 .5.7-.4 1-1.3.5-2-1.1-2-3.2-2.9-5.2-2.4S46 25.3 46 27.3c0 1.5.8 2.8 1.6 4.1 1.2 1.9 1.6 2.9.9 4.1-.6 1-2.3 1.5-3.8 1.1-1.3-.3-4.3-1.7-4.5-7.3-.3-7.2 4.7-9.8 6.9-10.6.1.4.2.9.2 1.3.1.8.8 1.4 1.7 1.3.8-.1 1.4-.8 1.3-1.7-.6-5.8-3.2-9.9-7.1-11.3-3-1.1-6.3-.3-8.7 2.1-3.3 3.2-4.2 8.6-2.3 14.4.2.6.8 1 1.4 1 .2 0 .3 0 .5-.1.8-.3 1.2-1.1 1-1.9-1.5-4.6-1-8.9 1.5-11.3 1.6-1.5 3.7-2.1 5.6-1.4 1.8.6 3.2 2.3 4.1 4.6-4.6 1.5-9.4 5.9-9.1 13.6.2 5.3 2.8 9.1 6.8 10.1.6.1 1.2.2 1.8.2 2.3 0 4.3-1 5.3-2.7 1.7-2.9.1-5.4-1-7.2-.6-.9-1.1-1.8-1.1-2.5.1-.7.7-1.2 1.3-1.3zM1 5.3l14.2 4.9c.2.1.3.1.5.1.6 0 1.2-.4 1.4-1 .3-.8-.1-1.6-.9-1.9L2 2.5c-.8-.3-1.6.1-1.9.9-.3.8.1 1.6.9 1.9zM17.7 25.7c-.2-.8-1-1.3-1.8-1.1L1.2 27.7c-.8.2-1.3 1-1.1 1.8.2.7.8 1.2 1.5 1.2h.3l14.7-3.2c.7-.2 1.2-1 1.1-1.8zM23.1 39.5l-11.9 9.1c-.7.5-.8 1.4-.3 2.1.3.4.7.6 1.2.6.3 0 .6-.1.9-.3l12-9.1c.7-.5.8-1.4.3-2.1-.6-.6-1.5-.8-2.2-.3z"/></symbol><symbol viewBox="0 0 24 24" id="edit"><title>Edit</title><desc>Pencil writing on paper</desc><path d="M18.2 24H3.8C1.7 24 0 22.3 0 20.2V5.8C0 3.7 1.7 2 3.8 2H11c.6 0 1 .4 1 1s-.4 1-1 1H3.8C2.8 4 2 4.8 2 5.8v14.3c0 1 .8 1.8 1.8 1.8h14.3c1 0 1.8-.8 1.8-1.8V13c0-.6.4-1 1-1s1 .4 1 1v7.2c.1 2.1-1.6 3.8-3.7 3.8z"/><path d="M6 19c-.3 0-.5-.1-.7-.3-.2-.2-.3-.6-.3-.9l1-5c0-.2.1-.4.3-.5l12-12c.4-.4 1-.4 1.4 0l4 4c.4.4.4 1 0 1.4l-12 12c-.1.1-.3.2-.5.3l-5 1H6zm1.9-5.5l-.6 3.2 3.2-.6L21.6 5 19 2.4 7.9 13.5z"/></symbol><symbol viewBox="0 0 21 14.1" id="email"><title>Email</title><path d="M20.2 14.1H.8c-.4 0-.8-.3-.8-.8V.8C0 .3.3 0 .8 0h19.5c.4 0 .7.3.7.8v12.6c0 .4-.3.7-.8.7zM1.5 12.6h17.9V1.5H1.5v11.1z"/><path d="M10.5 10.5c-.2 0-.4-.1-.5-.2l-9.7-9-.1-.1C.1 1.1 0 1 0 .8V.7C0 .5.1.4.2.3L.3.2C.4.1.6 0 .8 0h19.5c.2 0 .4.1.5.2l.1.1c0 .1.1.3.1.4v.1c0 .2-.1.3-.2.4 0 0 0 .1-.1.1l-9.7 9c-.1.1-.3.2-.5.2zm-7.8-9l7.8 7.1 7.8-7.1H2.7z"/></symbol><symbol viewBox="0 0 69 47" id="envelope"><title>Envelope</title><desc>Line drawing of an envelope</desc><g transform="translate(0 1)" stroke="#6677A2" stroke-width="5" stroke-linecap="round" stroke-linejoin="round" fill="none" fill-rule="evenodd"><path d="M66.267 43.5H2.5V2.17h63.767V43.5z"/><path d="M2.5 2.17h63.77L34.384 31.405 2.5 2.17h63.77"/></g></symbol><symbol viewBox="0 0 32 32" id="facebook"><title>Facebook Icon</title><desc>Casper on Facebook</desc><path d="M17.996 32H12V16H8v-5.514l4-.002-.007-3.248c0-4.498 1.22-7.236 6.52-7.236h4.41v5.515h-2.756c-2.064 0-2.163.77-2.163 2.21l-.008 2.76h4.96l-.585 5.513L18 16l-.003 16z"/></symbol><symbol viewBox="0 0 190 27" id="fastcompany-small"><title>FastCompany logo</title><path d="M91.6 8.8c0 2.7-.3 11.2-.3 11.2 0 1.6.5 2.4 2.1 2.4v.7h-6.1v-.7c1.6 0 2.4-.7 2.4-2.4l.5-13.9c-.5-1.1-.9-1.5-2.1-1.6V4h4.7l4.9 13 5-13h4.2v.6c-1.2 0-1.8.5-1.8 1.8l.5 13.4c0 2 .4 2.6 2 2.6v.7h-7v-.7c1.4 0 2-.5 1.9-2.6 0 0-.3-9.4-.4-11.1L98.7 18c-.5 1.2-.9 2.6-1.3 4l-1.1.1c-.3-1-1-2.8-1-2.8s-2.7-7.8-3.7-10.5zM85.9 23.3c-.4-.1-.7-.1-1.1-.1-.7 0-2 .4-3.6.4-5.9 0-10.3-3.6-10.3-10.1 0-5.6 4.1-9.9 10.4-9.9 1.5 0 3.1.3 4.5.8.3-.3.4-.5.6-.7h.6c-.1 1-.5 4.3-.5 4.3H86c-.4-1.9-1.4-3.2-4.6-3.2-3.8 0-7.3 3-7.3 8.6 0 6.3 3.6 9.1 7.5 9.1 2.6 0 4.1-1.5 5.1-3.3l.6.3-1.4 3.8zM68.6 7.6H68c-.1-1.7-.6-2.3-2-2.3h-2.7v14.4c0 2.4.5 2.8 2 2.8v.7h-6.9v-.7c1.6 0 2-.5 2-2.9V5.3h-2.7c-1.7 0-2 .5-2.5 2.3h-.6l.5-4.1.5.1c.2.4.5.4 1.6.4h8.9c1.6 0 2 0 2.4-.5h.5l-.4 4.1z"/><path d="M49.2 23.6c-1.3 0-2.3-.2-3-.5-.7-.2-1.3-.5-1.6-.6-.4.4-.6.8-.6.8l-.5-.2.5-4.3.6.1c.4 2 1.7 3.5 4.6 3.5 2.2 0 3.7-1.8 3.7-3.8 0-1.6-.6-2.5-2.8-4.1-.7-.5-1.4-.8-1.9-1.3-2-1.3-3.3-2.7-3.3-5.1 0-2.7 2.3-4.6 5.3-4.6 1.7 0 2.8.5 3.2.7l.6-.7.5.1-.5 3.9-.6-.1c0-1.8-1.1-2.7-2.9-2.7-1.7 0-3 .9-3 2.7 0 1.6 1.2 2.6 2.6 3.5.7.5 1.3.8 1.8 1.2 3.2 2.3 3.9 3.7 3.9 5.9-.2 3.3-2.7 5.6-6.6 5.6zM38.8 7.6H38c0-1.6-.7-2.3-2.2-2.3h-4.1v7.2h2.7c1.4 0 1.6-.7 1.8-1.9h.6v5.1h-.6c-.2-1.4-.5-1.9-1.9-1.9h-2.6v6.1c0 2.3.5 2.6 2 2.6v.7h-6.9v-.7c1.7 0 2-.5 2-2.6V6.5c0-1.3-.5-1.8-2-1.8V4h9.5c1.6 0 2-.1 2.3-.6h.6l-.4 4.2zM137.4 8.7v11c0 2.4.5 2.8 2 2.8v.7h-10.8v-.7c.8 0 1.6-.3 1.6-.8 0-.4-.1-1-.3-1.6l-.8-2.7h-6c-.1.4-1.2 3.4-1.2 4.2 0 .7.8.9 1.4.9v.7h-5v-.7c.9 0 1.6-.1 2.3-2l4.7-14.9c-.3-.6-.6-.8-1.3-.9V4h4.1l4.9 15.6c.5 1.6.9 2.5 1.6 2.8 1.1-.4 1.4-.7 1.4-2.8V6.5c-.8-1.1-.9-1.8-2.5-1.8V4h4.7l7.7 13.1v-10c0-2-.5-2.5-2-2.5V4h10.2v.6c-.6 0-1.2.3-1.2.9 0 .5.2.9.4 1.5l2.9 6.3 2.8-6.1c.5-.8.5-1.3.5-1.7 0-.5-.4-.8-1.2-.8V4h4.8v.6c-1.2 0-1.9 1.1-2.5 2.4l-3.7 7.7v5c0 2.2.5 2.7 2 2.7v.7H152v-.7c1.5 0 2-.5 2-2.7v-4.3l-4-8.5c-.7-1.6-1-2-1.5-2.3-.9.4-1.2 1-1.2 2.5v14.1s.1 1.1.2 2.4l-1.2.1-8.9-15zm-11.4-1l-2.6 8.3h5.3L126 7.7z"/><path d="M114.7 16.1h-1.4V20c0 2 .5 2.5 2.1 2.5v.7h-7v-.7c1.5 0 2-.5 2-2.6V7c0-2-.5-2.4-2-2.4V4h5.3c5.1 0 8.1 1.6 8.1 5.8 0 4.3-3.7 6.3-7.1 6.3zm-1-10.8h-.5v9.4h.8c3 0 4.6-1.4 4.6-4.8.1-3.5-1.3-4.6-4.9-4.6zM82.8 19.5c-3.5 0-5.9-2.5-5.9-6 0-3.4 2.5-6 5.9-6 3.3 0 5.8 2.6 5.8 6-.1 3.4-2.7 6-5.8 6zm0-10.9c-2.4 0-3.2 2.3-3.2 4.9 0 2.5.7 4.9 3.2 4.9 2.4 0 3.1-2.5 3.1-5s-1-4.8-3.1-4.8zM42.5 18.4v-.6c.9 0 1.1-.3 1.1-.5 0-.4-.1-.6-.2-.9 0 0-.2-.7-.4-1.3h-3.6l-.4 1.2c-.1.3-.2.5-.2.9s.4.6.9.6v.6h-3.6v-.6c.9 0 1.3-.3 1.6-1.3l2.7-8.2c-.1-.4-.4-.6-.9-.6V7h2.9c2.4 6.9 3 8.8 3 8.8.5 1.6.9 2 1.6 2v.6h-4.5zm-1.3-8.8L39.9 14h2.8l-1.5-4.4z"/></symbol><symbol viewBox="0 0 612 792" id="firmness"><title>Firm mattress</title><path d="M553.1 602H58.9c-24.4 0-38.3-10.1-41.4-30-.1-.5-8.5-54.5-10.2-82.6-.5-8.5 6-15.8 14.5-16.4 8.5-.5 15.9 6 16.4 14.5 1.4 23.2 8.1 68.8 9.9 79.7.3 1.8.6 2.4.7 2.5.1 0 2.3 1.4 10.2 1.4h494.2c7.7 0 10-1.3 10.3-1.5 0 0 .3-.7.5-2.3 1.7-11 8.5-56.5 9.9-79.7.5-8.5 7.9-15 16.4-14.5 8.5.5 15 7.8 14.5 16.4-1.7 28.2-10.1 82.1-10.2 82.7-3.2 19.7-17.1 29.8-41.5 29.8z"/><path d="M589.5 503.9h-567c-8.9 0-16.4-4.2-20.2-11.2-3.8-7.2-2.9-15.8 2.4-23.5.4-.6.9-1.2 1.4-1.7l141.6-153.3c5.5-7 15.3-11.3 26.2-11.3h264.2c10.8 0 20.7 4.3 26.2 11.3l141.6 153.3c.5.6 1 1.1 1.4 1.7 5.3 7.7 6.2 16.3 2.4 23.5-3.7 7-11.3 11.2-20.2 11.2zM43.1 473H569L441 334.5c-.1-.2-.3-.3-.4-.5-.5-.2-1.3-.3-2.5-.3H173.9c-1.2 0-2 .2-2.5.3-.1.2-.3.3-.4.4L43.1 473z"/></symbol><symbol viewBox="0 0 47.6 62" id="globe"><title>Globe icon</title><desc>Image of a table top globe</desc><path d="M47.1 43.5l-8.3-8.4c3.1-3.3 5-7.6 5-12.5s-1.9-9.5-5.3-12.9-8-5.4-13-5.4c-4.8 0-9.2 1.9-12.4 4.9L4.3.4c-.6-.6-1.5-.6-2.1 0-.6.6-.6 1.6 0 2.2L6 6.4c-3.9 4.5-6 10.2-6 16.2 0 6.8 2.6 13.2 7.4 18.1 4.5 4.5 10.3 7.1 16.6 7.5V59h-6.3c-.8 0-1.5.7-1.5 1.5s.7 1.5 1.5 1.5h15.7c.8 0 1.5-.7 1.5-1.5s-.7-1.5-1.5-1.5H27V48.1a25 25 0 0 0 14.7-5.8l3.3 3.3c.3.3.7.4 1.1.4.4 0 .8-.1 1.1-.4.5-.6.5-1.5-.1-2.1zM25.6 7.3c4.1 0 7.9 1.6 10.8 4.5 2.9 2.9 4.5 6.7 4.4 10.8 0 8.4-6.9 15.2-15.3 15.2s-15.3-6.9-15.2-15.3c0-8.3 6.8-15.2 15.3-15.2zm-.1 37.9c-6.1 0-11.7-2.4-16-6.6S3 28.6 3 22.6c0-5.2 1.8-10.1 5-14.1l3 3c-2.4 3.1-3.8 6.9-3.8 11.1 0 10.1 8.2 18.3 18.2 18.3 4.2 0 8-1.4 11.1-3.8l3 3c-3.9 3.3-8.8 5.1-14 5.1z"/></symbol><symbol viewBox="0 0 41 41" id="gmap-arrow"><title>Arrow</title><path d="M37.98 2.34C36.51.872 34.743.137 32.675.137H7.645C5.58.137 3.81.872 2.34 2.34.872 3.81.137 5.578.137 7.646v25.028c0 2.068.735 3.837 2.203 5.306 1.47 1.47 3.238 2.203 5.306 2.203h25.028c2.068 0 3.837-.734 5.305-2.203 1.468-1.47 2.202-3.238 2.202-5.306V7.646c0-2.068-.734-3.837-2.202-5.306zm-4.472 18.654c0 .73-.34 1.243-1.016 1.538a1.82 1.82 0 0 1-.652.13c-.47 0-.86-.165-1.173-.495l-3.754-3.754L12.99 32.335c-.33.33-.72.496-1.172.496-.453 0-.844-.164-1.174-.495l-2.66-2.66a1.603 1.603 0 0 1-.494-1.172c0-.452.165-.843.495-1.173l13.922-13.923-3.754-3.754c-.54-.504-.66-1.112-.365-1.825.295-.678.808-1.017 1.538-1.017H31.84c.452 0 .843.167 1.173.497.33.33.495.72.495 1.173v12.514z" fill="#444" fill-rule="evenodd"/></symbol><symbol viewBox="0 0 32 32" id="google_plus"><title>Google Plus Icon</title><desc>Casper on Google Plus</desc><g fill-rule="evenodd" clip-rule="evenodd"><path d="M10.2 14.5V18H16c-.2 1.5-1.7 4.4-5.8 4.4-3.5 0-6.3-2.9-6.3-6.4 0-3.5 2.8-6.4 6.3-6.4 2 0 3.3.8 4.1 1.6L17 8.5c-1.8-1.7-4.1-2.7-6.8-2.7C4.6 5.8 0 10.4 0 16s4.6 10.2 10.2 10.2c5.9 0 9.8-4.1 9.8-9.9 0-.7-.1-1.2-.2-1.7h-9.6v-.1zM32 14.5h-2.9v-2.9h-2.9v2.9h-2.9v3h2.9v2.9h2.9v-2.9H32z"/></g></symbol><symbol viewBox="-168 42 460 27" id="huffpo-small"><title>Huffington Post logo</title><g transform="translate(81.032 141.776) scale(2.10404)"><path d="M-111.9-38.1c0 1.7 0 2 1 2h.5c.1.1.1.4 0 .4h-4.4c-.1 0-.1-.3 0-.4h.6c.9-.1 1-.3 1-2v-7.3c0-.5 0-.5-.5-.5h-.9c-.7 0-1.6 0-2 .4-.4.4-.6.7-.7 1.1-.1.1-.4 0-.4-.1.3-.7.5-1.8.6-2.4h.3c.1.5.6.5 1.4.5h6.6c.9 0 1 0 1.3-.5h.3c-.2.7-.3 2-.2 2.5-.1.1-.3.1-.4 0 0-.4-.2-1-.4-1.2-.4-.3-1-.4-1.9-.4h-1.2c-.5 0-.5 0-.5.6l-.1 7.3zM-101.5-40.9c-.8 0-.8 0-.8.5v2.3c0 1.7.1 1.9 1 2h.5c.1.1.1.4 0 .4h-4c-.1 0-.1-.3 0-.4h.3c.9-.2.9-.3.9-2V-44c0-1.7-.1-2-1-2.1h-.4c-.1-.1-.1-.4 0-.4h4c.1 0 .1.3 0 .4h-.3c-.9.1-1 .3-1 2.1v1.9c0 .5 0 .5.8.5h4.7c.8 0 .8 0 .8-.5V-44c0-1.7 0-2-1-2.1h-.3c-.1-.1-.1-.4 0-.4h3.9c.1 0 .1.3 0 .4h-.3c-.9.1-1 .3-1 2.1v5.9c0 1.7 0 1.9 1 2h.4c.1.1.1.4 0 .4h-4c-.1 0-.1-.3 0-.4h.3c1-.2 1-.3 1-2v-2.3c0-.5 0-.5-.8-.5h-4.7zM-89.2-44c0-1.7 0-1.9-1-2.1h-.3c-.1-.1-.1-.4 0-.4h7.2c.1.3.2 1.5.3 2.2-.1.1-.3.1-.4 0-.2-.8-.4-1.3-1.2-1.6-.3-.1-.9-.1-1.6-.1h-1.2c-.5 0-.5 0-.5.7v3.3c0 .5 0 .5.5.5h.9c.7 0 1.2 0 1.4-.1.2-.1.3-.2.4-.6l.1-.7c.1-.1.4-.1.4 0 0 .4-.1 1-.1 1.7 0 .6.1 1.2.1 1.6-.1.1-.3.1-.4 0l-.1-.6c-.1-.3-.2-.5-.5-.6-.2-.1-.6-.1-1.3-.1h-.9c-.5 0-.5 0-.5.4v2.3c0 .9 0 1.4.3 1.7.2.2.5.4 2 .4 1.3 0 1.7-.1 2.1-.2.3-.2.7-.7 1.2-1.6.1-.1.3 0 .4.1-.1.6-.5 1.8-.7 2.3H-90.7c-.1 0-.1-.3 0-.4h.5c.9-.1 1-.3 1-2V-44zM-67.7-40.6c-.8 0-.8 0-.8.5v2.3c0 1.7.1 1.9 1 2h.5c.1.1.1.4 0 .4h-4c-.1 0-.1-.3 0-.4h.3c.9-.2.9-.3.9-2v-5.9c0-1.7-.1-2-1-2.1h-.4c-.1-.1-.1-.4 0-.4h4c.1 0 .1.3 0 .4h-.3c-.9.1-1 .3-1 2.1v1.9c0 .5 0 .5.8.5h4.7c.8 0 .8 0 .8-.5v-1.9c0-1.7 0-2-1-2.1h-.3c-.1-.1-.1-.4 0-.4h3.9c.1 0 .1.3 0 .4h-.3c-.9.1-1 .3-1 2.1v5.9c0 1.7 0 1.9 1 2h.4c.1.1.1.4 0 .4h-4c-.1 0-.1-.3 0-.4h.3c1-.2 1-.3 1-2v-2.3c0-.5 0-.5-.8-.5h-4.7zM-47.7-42c0-1 0-2.9-.3-3.4-.1-.2-.4-.3-.8-.3h-.4c-.1-.1-.1-.3 0-.4H-45.6c.1.1.1.3 0 .4h-.4c-.4 0-.7.2-.8.4-.2.5-.2 2.4-.2 3.3v1.8c0 1.4-.2 2.9-1.1 3.9-.7.8-1.9 1.2-3.1 1.2-1.1 0-2.3-.2-3.1-.9-.9-.7-1.3-1.9-1.3-3.9v-3.9c0-1.7 0-2-1-2.1h-.4c-.1-.1-.1-.3 0-.4h4c.1 0 .1.3 0 .4h-.4c-.9.1-1 .4-1 2.1v3.5c0 2.6.8 4.4 3.3 4.4 2.4 0 3.3-1.9 3.3-4.4l.1-1.7zM-40.5-41.5c0 .4 0 .4.5.4h1.1c.7 0 1.2 0 1.4-.1.2-.1.3-.1.4-.6l.1-.7c.1-.1.4-.1.4 0 0 .4-.1 1-.1 1.7 0 .6.1 1.2.1 1.6-.1.1-.3.1-.4 0l-.2-.6c-.1-.3-.2-.5-.5-.6-.2-.1-.6-.1-1.3-.1h-1c-.5 0-.5 0-.5.4v2.3c0 1.7 0 2 1 2h.6c.1.1.1.4 0 .4h-4.2c-.1 0-.1-.3 0-.4h.4c.9-.1 1-.3 1-2v-5.9c0-1.7 0-1.9-1-2.1h-.3c-.1-.1-.1-.4 0-.4H-35.9v2.2c0 .1-.3.1-.4 0-.1-.7-.3-1.3-1.1-1.6-.4-.1-.9-.1-1.6-.1h-1c-.5 0-.5 0-.5.7v3.5zM-30.7-41.5c0 .4 0 .4.5.4h1.1c.7 0 1.2 0 1.4-.1.2-.1.3-.1.4-.6l.1-.7c.1-.1.4-.1.4 0 0 .4-.1 1-.1 1.7 0 .6.1 1.2.1 1.6-.1.1-.3.1-.4 0l-.2-.6c-.1-.3-.2-.5-.5-.6-.2-.1-.6-.1-1.3-.1h-1.1c-.5 0-.5 0-.5.4v2.3c0 1.7 0 2 1 2h.6c.1.1.1.4 0 .4h-4.2c-.1 0-.1-.3 0-.4h.4c.9-.1 1-.3 1-2v-5.9c0-1.7 0-1.9-1-2.1h-.3c-.1-.1-.1-.4 0-.4H-26.2v2.2c0 .1-.3.1-.4 0-.1-.7-.3-1.3-1.1-1.6-.4-.1-.9-.1-1.6-.1h-1c-.5 0-.5 0-.5.7l.1 3.5zM-22.1-43.6c0-1.7 0-2-1-2.1h-.4c-.1-.1-.1-.4 0-.4h4.1c.1 0 .1.3 0 .4h-.4c-1 .1-1 .4-1 2.1v5.8c0 1.7 0 2 1 2.1h.4c.1.1.1.4 0 .4h-4.1c-.1 0-.1-.3 0-.4h.4c1-.1 1-.3 1-2.1v-5.8zM-6.4-38.1v2.9c0 .1-.1.2-.3.2-.2-.3-.7-.9-2.1-2.5l-3.8-4.3c-.4-.5-1.6-1.8-1.9-2.2-.1.2-.1.6-.1 1.1v3.6c0 .8 0 2.9.3 3.4.1.2.4.3.8.3h.5c.1.1.1.3 0 .4H-16.6c-.1-.1-.1-.3 0-.4h.4c.4 0 .6-.1.7-.3.2-.6.2-2.6.2-3.4V-44c0-.5 0-.8-.4-1.2-.2-.2-.6-.3-1-.4h-.3c-.1-.1-.1-.3 0-.4h2.6c.3.8 2.3 3 2.8 3.6l1.6 1.8c1.1 1.3 1.9 2.2 2.7 3 .1-.1.1-.3.1-.7V-42c0-.8 0-2.9-.3-3.4-.1-.1-.4-.2-1-.3h-.3c-.1-.1-.1-.4 0-.4H-5.2c.1.1.1.3 0 .4h-.2c-.5.1-.9.2-.9.3-.3.6-.2 2.6-.2 3.4l.1 3.9zM6.8-37c0 .7.1 1 .4 1.2v.2c-.2 0-.5.1-.8.1-.9.2-2 .4-2.9.4-1.9 0-3.7-.5-5-1.8-1-1-1.5-2.3-1.5-3.7 0-1.4.5-2.8 1.5-3.9 1.1-1.1 2.7-1.9 5.2-1.9.9 0 1.8.2 2.1.2.2.1.7.2.9.2 0 .5.1 1.4.2 2.4 0 .1-.3.1-.4 0-.5-1.8-1.7-2.3-3.4-2.3-3.2 0-4.6 2.3-4.6 4.7 0 3.1 1.6 5.6 4.9 5.6 1 0 1.6-.2 1.8-.5.1-.1.2-.4.2-.9v-.7c0-1.4 0-1.5-1.1-1.6l-.7-.1c-.1-.1-.1-.4 0-.4h4c.1.1.1.3 0 .4h-.3c-.7.1-.7.5-.7 1.4l.2 1zM15.5-37.8c0 1.7 0 2 1 2h.5c.1.1.1.4 0 .4h-4.4c-.1 0-.1-.3 0-.4h.6c.9-.1 1-.3 1-2v-7.3c0-.5 0-.5-.5-.5h-.9c-.7 0-1.6 0-2 .4-.4.4-.6.7-.7 1.1-.1.1-.4 0-.4-.1.3-.7.5-1.8.6-2.4h.3c.1.5.6.5 1.4.5h6.6c.9 0 1 0 1.3-.5h.3c-.2.7-.3 2-.2 2.5-.1.1-.3.1-.4 0 0-.4-.2-1-.4-1.2-.4-.3-1-.4-1.9-.4h-1.2c-.5 0-.5 0-.5.6l-.1 7.3zM21.8-40.6c0-3.3 2.5-5.8 5.8-5.8 3.8 0 5.7 2.7 5.7 5.6 0 3.3-2.5 5.7-5.7 5.7-3.6 0-5.8-2.6-5.8-5.5m9.8.3c0-2.7-1.2-5.6-4.3-5.6-1.7 0-3.9 1.2-3.9 4.7 0 2.4 1.2 5.6 4.4 5.6 2 0 3.8-1.4 3.8-4.7M45.7-38.1v2.9c0 .1-.1.2-.3.2-.2-.3-.7-.9-2.1-2.5l-3.8-4.3c-.4-.5-1.6-1.8-1.9-2.2-.1.2-.1.6-.1 1.1v3.6c0 .8 0 2.9.3 3.4.1.2.4.3.8.3h.5c.1.1.1.3 0 .4H35.5c-.1-.1-.1-.3 0-.4h.4c.4 0 .6-.1.7-.3.2-.6.2-2.6.2-3.4V-44c0-.5 0-.8-.4-1.2-.2-.2-.6-.3-1-.4h-.3c-.1-.1-.1-.3 0-.4h2.6c.3.8 2.3 3 2.8 3.6l1.6 1.8c1.1 1.3 1.9 2.2 2.7 3 .1-.1.1-.3.1-.7V-42c0-.8 0-2.9-.3-3.4-.1-.1-.4-.2-1-.3h-.3c-.1-.1-.1-.4 0-.4H46.9c.1.1.1.3 0 .4h-.2c-.5.1-.9.2-.9.3-.3.6-.2 2.6-.2 3.4l.1 3.9zM59.3-37.9c0 1.7 0 1.9 1.1 2h.4c.1.1.1.4 0 .4h-4.1c-.1 0-.1-.3 0-.4h.3c.9-.1 1-.3 1-2v-6c0-1.4 0-1.7-.8-1.7l-.6-.1c-.1-.1-.1-.3 0-.4.9-.1 1.9-.1 3.2-.1 1.4 0 2.4.2 3.1.7.8.5 1.3 1.3 1.3 2.5 0 1.5-.9 2.3-1.6 2.6-.7.3-1.6.5-2.3.5-.1 0-.1-.3 0-.3 1.8-.3 2.4-1.3 2.4-2.7 0-1.6-.9-2.6-2.6-2.6-.9 0-.9.1-.9.6l.1 7zM66.7-40.8c0-3.3 2.5-5.8 5.8-5.8 3.8 0 5.7 2.7 5.7 5.6 0 3.3-2.5 5.7-5.7 5.7-3.6.1-5.8-2.5-5.8-5.5m9.8.4c0-2.7-1.2-5.6-4.3-5.6-1.7 0-3.9 1.2-3.9 4.7 0 2.4 1.2 5.6 4.4 5.6 2 0 3.8-1.5 3.8-4.7M83.6-35.2c-1.4 0-2.2-.4-2.6-.6-.2-.4-.4-1.5-.4-2.3.1-.1.3-.1.4 0 .2.8.9 2.4 2.8 2.4 1.4 0 2-.9 2-1.9 0-.7-.1-1.5-1.3-2.3l-1.6-1c-.8-.5-1.8-1.5-1.8-2.8 0-1.6 1.2-2.8 3.3-2.8.5 0 1.1.1 1.5.2.2.1.4.1.6.1.1.4.3 1.3.3 2-.1.1-.3.1-.4 0-.1-.8-.6-1.8-2.2-1.8s-1.9 1.1-1.9 1.8c0 .9.8 1.6 1.4 2l1.3.8c1 .6 2 1.6 2 3.1 0 1.9-1.3 3.1-3.4 3.1M95.2-37.9c0 1.7 0 2 1 2h.5c.1.1.1.4 0 .4h-4.4c-.1 0-.1-.3 0-.4h.6c.9-.1 1-.3 1-2v-7.3c0-.5 0-.5-.5-.5h-.9c-.7 0-1.6 0-2 .4-.4.4-.6.7-.7 1.1-.1.1-.4 0-.4-.1.3-.7.5-1.8.6-2.4h.3c.1.5.6.5 1.4.5h6.6c.9 0 1 0 1.3-.5h.3c-.2.7-.3 2-.2 2.5-.1.1-.3.1-.4 0 0-.4-.2-1-.4-1.2-.4-.3-1-.4-1.9-.4h-1.2c-.5 0-.5 0-.5.6v7.3h-.1z"/></g></symbol><symbol viewBox="0 0 100 100" id="hundred-night-trial"><title>100 Night Trial</title><desc>Casper's guarantee and return program</desc><path d="M18.1 58.5V47.2l-2.7 1.1-1.2-3.3 6.6-2.5H22v15.9h-3.9zM32.3 58.7c-4.5 0-6.6-3.8-6.6-8.1s2.2-8.1 6.7-8.1 6.6 3.8 6.6 8.1c.1 4.3-2.2 8.1-6.7 8.1zm.1-12.9c-1.8 0-2.7 1.9-2.7 4.9 0 3 .8 4.9 2.7 4.9 1.8 0 2.7-1.9 2.7-4.9 0-3-.9-4.9-2.7-4.9zM48 58.7c-4.5 0-6.6-3.8-6.6-8.1s2.2-8.1 6.7-8.1 6.6 3.8 6.6 8.1-2.2 8.1-6.7 8.1zm0-12.9c-1.8 0-2.7 1.9-2.7 4.9 0 3 .8 4.9 2.7 4.9 1.8 0 2.7-1.9 2.7-4.9 0-3-.8-4.9-2.7-4.9z"/><path d="M4.8 80.4c-1.2 0-2.1-.4-2.8-1.2-1.8-2-1-6.2 2-9.7-.8-4.8-1.2-11.8-1.2-19.5 0-7.6.4-14.6 1.2-19.5-3-3.6-3.9-7.7-2-9.7.7-.7 1.6-1.1 2.7-1.2 1.8 0 3.9 1 5.9 2.8 7.2-1.7 22.4-2.9 39.4-2.9s32.2 1 39.4 2.7c1.9-1.8 4.1-2.8 5.9-2.8 1.1 0 2 .4 2.7 1.2 1.8 2 1 6.2-2 9.7.8 4.8 1.2 11.8 1.2 19.5 0 7.6-.4 14.7-1.2 19.5 3 3.6 3.9 7.7 2 9.7-.7.7-1.6 1.1-2.7 1.2-1.8 0-3.9-1-5.9-2.8-7.2 1.7-22.4 2.9-39.4 2.9s-32.2-1-39.4-2.7c-1.9 1.8-4 2.8-5.8 2.8zm1.9-51.5l.1.1c.4.4.5.9.4 1.4C6.5 35 6 42.3 6 50.1c0 7.7.5 15.1 1.3 19.7.1.5-.1 1-.4 1.3l-.1.1C4.3 74 4 76.6 4.4 77.1c.1.1.2.1.4.1.9 0 2.5-.8 4.2-2.5.4-.4 1-.6 1.6-.4 6.4 1.7 22.3 2.9 39.5 2.9s33-1.2 39.5-3c.6-.2 1.2 0 1.6.4 1.6 1.7 3.3 2.5 4.2 2.5.1 0 .3 0 .4-.1.4-.5.1-3.1-2.4-5.9l-.1-.1c-.3-.4-.5-.9-.4-1.4.6-4.6 1.1-11.9 1.1-19.7 0-7.7-.5-15.1-1.3-19.7-.1-.5 0-1 .4-1.3l.1-.1c2.5-2.8 2.8-5.4 2.4-5.9-.1-.1-.2-.1-.4-.1-.9 0-2.5.8-4.2 2.5-.4.4-1 .6-1.6.4-6.4-1.7-22.3-2.9-39.5-2.9s-33.1 1.2-39.5 3c-.6.2-1.2 0-1.6-.4-1.6-1.7-3.3-2.5-4.2-2.5-.1 0-.3 0-.4.1-.3.5 0 3.1 2.5 5.9zm87.6 41z"/><path d="M69.6 60.7c-3.6 0-7.1-2-8.9-5.4-2.5-4.9-.5-10.9 4.4-13.3 1.2-.6 2.5-1 3.9-1 .6 0 1.2.3 1.5.9.3.6.2 1.3-.2 1.8-1.7 2.1-2 4.9-.8 7.3 1.2 2.4 3.7 3.8 6.4 3.7.6 0 1.2.3 1.5.9.3.6.2 1.3-.2 1.8-.9 1.1-1.9 1.9-3.2 2.5-1.3.5-2.9.8-4.4.8zM66 45.2c-2.8 1.8-3.9 5.6-2.3 8.7 1.6 3.1 5.2 4.4 8.4 3.3-2.3-.9-4.2-2.5-5.3-4.8a9.17 9.17 0 0 1-.8-7.2z"/><path d="M75.5 57.7c-3.7 0-7.2-2.1-8.9-5.4-1.8-3.5-1.3-7.8 1.2-10.8.6-.7 1.6-.8 2.3-.2.7.6.8 1.6.2 2.3-1.7 2.1-2 4.9-.8 7.3 1.2 2.4 3.7 3.8 6.4 3.7.9-.1 1.6.6 1.7 1.5.1.9-.6 1.6-1.5 1.7-.2-.1-.4-.1-.6-.1zM80.2 52.2c-.9 0-1.6-.7-1.6-1.6 0-1.5-2.9-4.4-4.4-4.4-.9 0-1.6-.7-1.6-1.6s.7-1.6 1.6-1.6c1.5 0 4.4-2.9 4.4-4.4 0-.9.7-1.6 1.6-1.6.9 0 1.6.7 1.6 1.6 0 1.5 2.9 4.4 4.4 4.4.9 0 1.6.7 1.6 1.6s-.7 1.6-1.6 1.6c-1.5 0-4.4 2.9-4.4 4.4 0 .9-.8 1.6-1.6 1.6zm-2.1-7.6c.8.6 1.5 1.3 2.1 2.1.6-.8 1.3-1.5 2.1-2.1-.8-.6-1.5-1.3-2.1-2.1-.6.8-1.4 1.5-2.1 2.1z"/></symbol><symbol viewBox="0 0 56.693 56.693" id="instagram"><title>Instagram Icon</title><desc>Casper on Instagram</desc><path d="M43.414 4.83H13c-5.283 0-9.58 4.298-9.58 9.58V44.827c0 5.283 4.297 9.58 9.58 9.58h30.415c5.283 0 9.58-4.297 9.58-9.58V14.41c0-5.283-4.298-9.58-9.58-9.58zm2.748 5.714l1.096-.004v8.403l-8.375.027-.03-8.402 7.31-.024zM21.132 24.53c1.587-2.197 4.163-3.638 7.075-3.638s5.488 1.44 7.074 3.638a8.677 8.677 0 0 1 1.653 5.088c0 4.81-3.918 8.725-8.727 8.725-4.812 0-8.726-3.914-8.726-8.725 0-1.9.618-3.654 1.65-5.088zm27.032 20.295c0 2.62-2.13 4.75-4.75 4.75H13c-2.62 0-4.75-2.13-4.75-4.75V24.53h7.4a13.483 13.483 0 0 0-1 5.088c0 7.473 6.08 13.557 13.557 13.557 7.475 0 13.555-6.084 13.555-13.557 0-1.8-.36-3.516-1-5.088h7.402v20.295z"/></symbol><symbol viewBox="0 0 32 32" id="linkedin"><title>Linkedin Icon</title><desc>Casper on Linkedin</desc><path d="M29.6 0H2.4C1.1 0 0 1 0 2.3v27.4C0 31 1.1 32 2.4 32h27.3c1.3 0 2.4-1 2.4-2.3V2.3C32 1 30.9 0 29.6 0zM9.5 27.3H4.7V12h4.7v15.3zM7.1 9.9c-1.5 0-2.8-1.2-2.8-2.8 0-1.5 1.2-2.8 2.8-2.8 1.5 0 2.8 1.2 2.8 2.8 0 1.6-1.3 2.8-2.8 2.8zm20.2 17.4h-4.7v-7.4c0-1.8 0-4-2.5-4s-2.8 1.9-2.8 3.9v7.6h-4.7V12H17v2.1h.1c.6-1.2 2.2-2.5 4.5-2.5 4.8 0 5.7 3.2 5.7 7.3v8.4z"/></symbol><symbol viewBox="0 0 100 100" id="lock"><title>Closed Lock</title><desc>Indicates security</desc><path d="M79.244 100H20.757a3.773 3.773 0 0 1-3.774-3.775V58.113a3.773 3.773 0 0 1 3.774-3.773h3.773V38.19c0-14.065 11.403-25.47 25.47-25.47 14.066 0 25.47 11.404 25.47 25.47v16.15h3.774a3.773 3.773 0 0 1 3.773 3.773v38.11A3.773 3.773 0 0 1 79.244 100zM63.482 38.945c0-7.445-6.037-13.48-13.48-13.48-7.447 0-13.482 6.035-13.482 13.48V54.34h26.963V38.945z"/></symbol><symbol viewBox="121.5 337.6 368.8 116.8" id="logo"><title>Casper Logo</title><path d="M236.8 362.2c-17.6 0-31 12.8-31 30.8s13.3 30.8 31 30.8c8.3 0 15.1-3.7 17.6-7v6.3h13.8V363h-13.8v6.3c-2.6-3.4-9.4-7.1-17.6-7.1m.5 48.7c-10.2 0-18.2-8.2-18.2-18s7.9-18 18.2-18c10 0 17.6 8.2 17.6 18s-7.6 18-17.6 18M356 362.2c-8.1 0-14.2 3.2-18.2 7v-6.3h-13.5v91.6l13.5-1.5v-36.3c3.9 4.1 10.5 7 18.2 7 18.4 0 30.6-12.1 30.6-30.8 0-18.8-12.2-30.7-30.6-30.7m-.6 48.7c-10.7 0-17.8-7.7-17.8-18 0-10.4 7-18 17.8-18s17.9 7.6 17.9 18-7.2 18-17.9 18m135-48.7c-8.7 0-13 3.1-15.9 7v-6.3h-13.6V423h13.6v-33.1c0-8.9 6-14.9 14.7-14.9h1.2v-12.8zm-67.8 0c-17.5 0-31.3 13.7-31.3 30.8s13.8 30.8 31.7 30.8c14.7 0 26.6-8 30.3-18.9h-16c-2 3.9-7.1 6.5-14.3 6.5-8.9 0-15.9-6.1-17.4-13.7h48c.2-1.5.4-3 .4-4.6-.1-17.3-13.9-30.9-31.4-30.9m-16.4 23.4c2-6.3 8.7-11.3 16.4-11.3 7.8 0 14.5 5 16.4 11.3h-32.8zM297 374c-2.8 0-5.6 1.3-5.6 4.6 0 3.8 3.9 5.1 11.2 7.7 10.1 3.6 14.9 8.6 14.9 17.8 0 9.5-8.1 19.5-21.8 19.5-14 0-21.2-10.3-21.7-18.9h13.1c.8 3.8 3.6 6.9 8.6 6.9s8-3.4 8-7.5c0-2.8-1-5.8-9.5-8-9.2-2.5-15.8-7.5-15.8-17.4 0-9 8-16.5 18.5-16.5 9.2 0 15.1 6.3 17.6 10.7l-11 5.2c-1.6-2.7-3.8-4.1-6.5-4.1"/><path d="M165.1 337.6c-24.6 0-43.6 19.2-43.6 43s19 43 43.6 43c15.5 0 30.2-8.4 36.9-20.5l-12.8-7c-4.9 8.8-13.6 13.8-24.1 13.8-7.9 0-15.3-3.1-20.3-8.5-5.4-5.7-8.3-13.2-8.3-20.9s2.9-15.1 8.3-20.9c5-5.4 12.4-8.5 20.3-8.5 8.3 0 13.3 2.9 16.8 5.4 3.6 2.7 7.7 5.3 14.1 5.3 12.1 0 17.3-9.7 18.4-14.8l-13.3-2.8c-.1.5-1 4.2-5.1 4.2-1.8 0-2.9-.7-5.8-2.9-4.7-3.1-11.2-7.9-25.1-7.9"/></symbol><symbol viewBox="0 0 49 32" id="mail"><title>Envelope</title><desc>Contact the Casper support team</desc><path d="M1.723 2.954c1.23.738 19.692 10.83 20.43 11.077.74.493 1.478.74 2.463.74.985 0 1.723-.247 2.462-.493.738-.492 19.2-10.338 20.43-11.077 1.478-.985 2.71-3.2.247-3.2H1.478c-2.462 0-1.23 2.215.246 2.954zm46.523 5.66c-1.477.74-20.185 10.586-21.17 11.078-.984.492-1.476.492-2.46.492-.986 0-1.478 0-2.463-.492S2.46 9.354.983 8.615C0 7.877 0 8.615 0 9.107v20.185C0 30.522 1.475 32 2.706 32h43.815c1.23 0 2.708-1.477 2.708-2.708V9.107c0-.492 0-1.23-.985-.492z" fill="#fff"/></symbol><symbol viewBox="0 0 50 27" id="mattress"><title>Mattress</title><desc>Line drawing of the Casper Mattress</desc><path d="M49.3 14s0-.1 0 0L37.6 1.4c-.4-.5-1.1-.8-1.8-.8H14.2c-.8 0-1.5.3-1.8.8L.8 13.9l-.1.1c-.3.5-.4 1.1-.2 1.5.1.2.3.4.5.5.2 2.1.7 5.3.8 6.1.3 2.1 2.3 2.1 3 2.1h40.4c.7 0 2.7 0 3-2.1 0 0 .6-3.7.8-6.1.2-.1.4-.3.5-.5.2-.4.2-1-.2-1.5zM13.7 2.4s.2-.1.5-.1h21.6c.3 0 .4.1.4.1l.1.1 11.1 12H2.6L13.7 2.4zm31.5 20.1H4.8c-1.2 0-1.2-.3-1.3-.6-.1-.8-.5-3.6-.7-5.6h44.4c-.2 1.9-.6 4.6-.7 5.6-.1.3-.1.6-1.3.6z"/></symbol><symbol viewBox="0 0 580 294" id="moon-stars"><title>Crescent moon with stars</title><desc>A crescent moon flanked by twinkling stars.</desc><path d="M400.8 279.1c-76.3 0-138.3-62-138.3-138.3 0-50.5 23.7-90.6 68.4-115.7 33-18.6 65.6-22.4 67-22.5 4.5-.5 8.9 1.8 11 5.9 2.1 4 1.5 9-1.5 12.4C388.5 42.2 378 69.6 378 98.1c0 64.1 52.2 116.3 116.3 116.3 4.1 0 7.8 2.3 9.7 5.9 1.9 3.6 1.6 8-.7 11.4-1.2 1.8-33.3 47.4-102.5 47.4zM373.6 30.6c-9.7 3.1-21.1 7.5-32.4 13.9-37.6 21.4-56.7 53.7-56.7 96.2 0 64.1 52.2 116.3 116.3 116.3 33 0 55.8-12.3 69.3-22.9-64.7-11.4-114-68.1-114-136.1 0-23.8 6.1-46.9 17.5-67.4zM97 194c-6.1 0-11-4.9-11-11 0-41.4-33.6-75-75-75-6.1 0-11-4.9-11-11s4.9-11 11-11c41.4 0 75-33.6 75-75 0-6.1 4.9-11 11-11s11 4.9 11 11c0 41.4 33.6 75 75 75 6.1 0 11 4.9 11 11s-4.9 11-11 11c-41.4 0-75 33.6-75 75 0 6.1-4.9 11-11 11zM55.8 97c17.6 9.2 32 23.6 41.2 41.2 9.2-17.6 23.6-32 41.2-41.2-17.6-9.2-32-23.6-41.2-41.2-9.2 17.6-23.6 32-41.2 41.2zM192 294c-6.1 0-11-4.9-11-11 0-15.7-24.3-40-40-40-6.1 0-11-4.9-11-11s4.9-11 11-11c15.7 0 40-24.3 40-40 0-6.1 4.9-11 11-11s11 4.9 11 11c0 7.2 5.5 17.4 14 25.9s18.7 14 25.9 14c6.1 0 11 4.9 11 11s-4.9 11-11 11c-15.7 0-40 24.3-40 40 .1 6.2-4.8 11.1-10.9 11.1zm-20.7-62c3.8 2.7 7.6 5.9 11.2 9.5 3.6 3.6 6.8 7.4 9.5 11.2 2.7-3.8 5.9-7.6 9.5-11.2 3.6-3.6 7.4-6.8 11.2-9.5-3.8-2.7-7.6-5.9-11.2-9.5s-6.8-7.4-9.5-11.2c-2.7 3.8-5.9 7.6-9.5 11.2-3.6 3.6-7.4 6.8-11.2 9.5zM518 140c-6.1 0-11-4.9-11-11 0-15.7-24.3-40-40-40-6.1 0-11-4.9-11-11s4.9-11 11-11c15.7 0 40-24.3 40-40 0-6.1 4.9-11 11-11s11 4.9 11 11c0 15.7 24.3 40 40 40 6.1 0 11 4.9 11 11s-4.9 11-11 11c-15.7 0-40 24.3-40 40 0 6.1-4.9 11-11 11zm-20.7-62c3.8 2.7 7.6 5.9 11.2 9.5 3.6 3.6 6.8 7.4 9.5 11.2 2.7-3.8 5.9-7.6 9.5-11.2 3.6-3.6 7.4-6.8 11.2-9.5-3.8-2.7-7.6-5.9-11.2-9.5-3.6-3.6-6.8-7.4-9.5-11.2-2.7 3.8-5.9 7.6-9.5 11.2-3.6 3.6-7.4 6.8-11.2 9.5z"/></symbol><symbol viewBox="0 0 12 37" id="naptour-arrow"><title>Arrow</title><path d="M1.7 37L0 36l9.7-17.5L0 1l1.7-1L12 18.5z"/></symbol><symbol viewBox="0 0 190 27" id="newyorktimes-small"><title>New York Times logo</title><path d="M5.4 14.9V7.8l-2.2 1s-.6 1.2-.5 3c.1 1.4.9 3.1 1.5 3.8l1.2-.7M11.7.2c.5 0 1.4.3 2 .9.7.6.8 1.6.6 2.5-.2.8-.4 1.2-1.3 1.8-.8.6-1.8.5-1.8.5v3.5l1.7 1.4-1.6 1.2v4.7s1.7-1 2.7-3.1c0 0 0-.1.1-.3.1.6 0 1.7-.6 3.3-.5 1.1-1.4 2.2-2.5 2.8-2 1.1-3.5 1.2-5.1.9-1.9-.4-3.6-1.4-4.7-3.3C.3 15.7 0 14.1 0 12.5c.1-3.2 2.4-5.9 5.2-7 .3-.1.5-.2.9-.3-.2.3-.5.5-.8.7-.9.6-1.6 1.7-2 2.6l5.3-2.4v7.4l-4.3 2.1c.5.7 2 1.7 3.2 1.8 2.2.2 3.4-.7 3.4-.7V12l-1.7-1.4 1.7-1.4V5.8c-.9-.1-2-.4-2.7-.6-.8-.2-3.9-1.1-4.4-1.1-.5-.1-1.1-.1-1.5.3-.4.3-.6.9-.5 1.4.1.3.3.5.5.6 0 0-.2 0-.5-.2-.6-.3-1.1-1-1.1-1.9-.1-1.1.4-2.1 1.3-2.8C2.8 1 3.7.6 4.8.8c1.6.2 3.7 1.1 5.5 1.5.7.2 1.3.2 1.8-.1.2-.2.7-.6.3-1.2-.4-.7-1.2-.7-1.8-.8.6-.1.7-.1 1.1 0zM32.4 13.1L30 14.8V9l2.4 4.1m-.1-5.7s-1.6 1-2.7 1.6c-1.1.6-2.6 1.4-2.6 1.4v6.8l-1 .8.1.2 1-.8 3 2.7 5.2-4.1-.1-.2-2.9 2.3-2.3-2.2v-.8l4.7-3.5-2.4-4.2zM18.7 22.7c.7.2 1.9.3 3.3-.5 1.6-.8 2.4-2.5 2.4-4.3l.1-2.5V10l1-.8-.1-.2-1 .8-2.3-2.6-3 2.6V1.1L15.3 4c.2.1.7.2.8 1v12.2l-1.6 1.2.1.2.8-.6 2.1 2 3.4-2.7-.1-.2-.8.6-.8-.8v-6.8l1-.8 1.5 1.8V17c0 1.6 0 3.5-.8 4.5-1 .9-1.4 1-2.2 1.2M42 22.1c-1.3-.2-1.9-1-1.9-1.6 0-.4.4-1.2 1.2-1.3.8-.1 1.6.3 2.3 1.1l3.1-3.4-.1-.1-.8.9c-.8-1-2-1.6-3.2-1.7V5.5l8 14.6s.1.2.4.2c.3 0 .2-.2.2-.2V5.4c.7 0 1.7-.4 2.1-.9 1.5-1.6.9-3.3.7-3.5-.1.8-.7 1.5-1.6 1.5-1.3 0-2.1-.9-2.1-.9l-3 3.4.1.1.9-1c1.1 1 1.9 1.1 2.7 1.1v8.5L45 3c-.5-.9-1.4-1.7-2.6-1.7-1.5 0-2.5 1.3-2.7 2.4-.1 1.3 0 1.6 0 1.6s.2-1.4 1.1-1.4c.8 0 1.2.7 1.5 1.3v3.1c-.8.1-2.9.1-3 2.3 0 .8.5 1.7.9 2 .6.4 1 .4 1 .4s-.7-.4-.5-1.1c.2-.6 1.5-.7 1.6-.5v4.4c-.6 0-2.7.1-3.6 1.8-.6 1.1-.5 2.3.1 3.1.4.8 1.4 1.7 3.2 1.4M59 13.1l-2.4 1.8V9l2.4 4.1m0-5.7s-1.6 1-2.7 1.6c-1.1.6-2.6 1.4-2.6 1.4v6.8l-1 .8.1.2 1-.8 3 2.7L62 16l-.1-.2-2.9 2.3-2.4-2.2v-.8l4.7-3.5L59 7.4zM66.2 20.2l-2.5-2.1-1.1.8-.1-.2 1.1-.8V12c.1-2.4-2.2-1.8-2.1-4.4.1-1.1 1.2-2 1.7-2.3.6-.3 1.2-.3 1.2-.3s-1 .7-.8 1.6c.4 1.4 2.9 1.6 2.9 3.5v6.7l1.8 1.5.5-.4v-7.3l-1-1 2.5-2.2 2.3 2.1-.9 1v6.4l2.2 1.8.4-.2v-7.8l-1-.9 2.5-2.3 2.4 2 .9-.8.1.1-2.1 1.9V17l-5.5 3.4L69 18l-2.8 2.2M178 13.1l-2.4 1.8V9l2.4 4.1m-.1-5.7s-1.6 1-2.7 1.6c-1.1.6-2.6 1.4-2.6 1.4v6.8l-1 .8.1.2 1-.8 3 2.7 5.2-4.1-.1-.2-2.9 2.3-2.4-2.2v-.8l4.7-3.5-2.3-4.2zM153.5 10.3l.1.1 1-.8 1.5 1.6v5.7l-.7.6 2.2 2.6 2.3-2.3-.9-1V10l.6-.5 1.6 1.9V17l-.6.6 2.1 2.4 2.3-2.3-.9-.8V10l.6-.5 1.7 1.8v5.6l-.5.6 2.3 2.6 3.2-3-.2-.1-.7.7-1.2-1.3V10l1.1-.9-.1-.1-1.1.9-2.2-2.5-3 2.5-2.2-2.4-3 2.4-2.1-2.4-3.2 2.8"/><path d="M147.1 10.1l.1.2.8-.8 1.3 1.6v6.4l-.9.8.1.2 1-.8 2.1 2.4 3-2.7-.1-.2-.9.8-1.3-1.4v-6.3l1.1-1-.1-.1-1 .9-2.2-2.6-3 2.6M147.9 4.8l2.3-2.1 1.9 2-2.3 2.1-1.9-2"/><path d="M138.6 14.9V7.8l-2.2 1s-.6 1.2-.5 3c.1 1.4.9 3.1 1.5 3.8l1.2-.7M144.9.2c.5 0 1.4.3 2 .9.7.6.8 1.6.6 2.5-.2.8-.4 1.2-1.3 1.8-.8.6-1.8.5-1.8.5v3.5l1.7 1.4-1.7 1.4v4.7s1.7-1 2.7-3.1c0 0 0-.1.1-.3.1.6 0 1.7-.6 3.3-.5 1.1-1.4 2.2-2.5 2.8-2 1.1-3.5 1.2-5.1.9-1.9-.4-3.6-1.4-4.7-3.3-.8-1.3-1.2-2.8-1.2-4.4.1-3.2 2.4-5.9 5.2-7 .3-.1.5-.2.9-.3-.2.1-.5.3-.8.5-.9.6-1.6 1.7-2 2.6l5.3-2.4v7.4l-4.3 2.1c.5.7 2 1.7 3.2 1.8 2.2.2 3.4-.7 3.4-.7V12l-1.7-1.4 1.7-1.4V5.8c-.9-.1-2-.4-2.7-.6-1-.2-4.1-1.1-4.6-1.2-.5-.1-1.1-.1-1.5.3-.4.3-.6.9-.4 1.5.1.3.3.5.5.6 0 0-.2 0-.5-.2-.6-.4-1.1-1.1-1.1-1.9-.1-1.1.4-2.2 1.3-2.9.8-.5 1.7-.9 2.8-.7 1.6.2 3.7 1.1 5.5 1.6.7.2 1.3.2 1.8-.1.2-.2.7-.6.3-1.2-.4-.7-1.2-.7-1.8-.8.7-.1.9-.1 1.3 0zM184.7 8.7v3.4l1.1 1s2.5-2 3.3-3.8c0 0-1.1 1.5-2.6 1-1.2-.3-1.8-1.6-1.8-1.6m-2.8 9s1.1-1.8 2.9-1.4c1.8.4 2.4 2.2 2.4 2.2v-4.3l-1.2-1.1c-1.4 1.5-3.8 3.4-4.1 4.6zm1.8 3.3c-.3.1-1.8-.3-2.2-1.8-.4-1.5.7-2.5 2.3-4.1l-1.9-1.7v-3.3s1.4-.7 2.5-1.4l2.2-1.4s.8 1 1.7.9c1.4-.1 1.4-1.2 1.3-1.5.2.4.9 1.7-1.6 4.6l2 1.6v4.2s-2.4 1.2-4.6 2.9c0 0-1.2-1.6-2.3-.8-.8.6-.4 1.4.6 1.8zM101.8 16.2l2.6 2.4v-7.3l-2.6-2.4v7.3m5.5-6l.9-.8.1.1-.9.8V17s-1.7.9-2.9 1.6c-1.2.7-2.4 1.5-2.4 1.5L99 17.5l-.8.7-.2-.1.9-.8V10s1.5-.7 2.7-1.4c1.1-.6 2.3-1.3 2.3-1.3l3.4 2.9zM113.4 9.6l2-2s.3.2.5.4c.1.1.7.4 1.3.1.3-.2.3-.2.7-.5.1 1.6-.7 2.7-1.6 3.1-.4.2-1.5.5-2.7-.9V17l1.3 1.1 1-.9.1.2-3.3 2.7-2.5-2.3-.9.8-.1-.2 1.4-1.2v-6.3l-1-1.4-.9.8-.1-.1 3.2-2.8 1.6 2.2M121.7 12.6l3.7-5.3s.5.6 1.3.8c1.1.3 2.1-.8 2.1-.8-.2 1.4-.9 3-2.4 3.3-1.3.2-2.5-.8-2.5-.8l-.2.4 5.1 7.7 1-.9.1.1-3.5 3-4.7-7.5"/><path d="M118.7 5.5c0-1.1-.5-1.9-1.1-1.8l4-2.8v15.9l1.1 1.1.8-.7.1.1-3.2 2.8-2.2-2-.9.8-.1-.2 1.5-1.3V5.5M93.1 9.9s-.4.5-1.1.5c-.7 0-1.1-.5-1.1-.5v2.2s.5-.5 1.1-.5c.7 0 1.1.5 1.1.5V9.9m0-4.6L91.6 4l-.7.6v5.1s.5.6 1.2.6 1.1-.6 1.1-.6V5.3zm-2.3 14.4s.9.2 1.6-.3c.8-.6.7-1.5.7-1.5v-5.5s-.4-.6-1.1-.6c-.7 0-1.2.6-1.2.6v7.3zM85.4 5.2c0-1.1-.4-1.7-1.1-1.7-1 0-1.3 1.4-1.3 1.4s-.2-1.1.7-2.1c.5-.6 1.5-1.3 3-1 1.6.4 2 1.6 2 2.7v14.7s.6.1 1 .2c.5.1.9.2.9.2V1.9h.2v2.4L94 1.7l2.3 2.1 1.1-.9.2.1-1.1 1v13.7c-.1.9-.2 1.8-1 2.3-1.9 1.1-4.2-.2-6.2-.5-1.5-.2-3.9-.5-4.5.9-.2.5-.2 1.2.5 1.6 1.4.9 7.5-1.5 9.6-.6 1.9.9 1.9 2.3 1.6 3.3-.5 1.8-2.8 2.1-2.8 2.1s1.1-.7.8-1.7c-.2-.5-.5-.7-1.7-.6-2.6.3-5.7 1.6-7.8.7-1.1-.5-1.8-1.8-1.8-3.1.1-1.9 2.3-2.7 2.3-2.7v-7.1c-.1-.3-1.2-.2-1.5.3-.4.8.5 1.1.5 1.1s-.7.1-1.3-.6c-.3-.3-.9-1.5-.1-2.7.7-.9 1.5-1.1 2.5-1.2v-4z"/></symbol><symbol viewBox="0 0 18.5 14.7" id="offsite"><title>Leave site arrow</title><desc>Indicates this link leaves the Casper site</desc><path fill="#9A9B9C" d="M18.4 6L12.2.1c-.2-.1-.4-.1-.6-.1-.2.1-.3.2-.3.4v3.9C1.3 4.6 0 14.1 0 14.2c0 .2.1.4.3.5h.1c.2 0 .3-.1.4-.2 2.9-5 7.8-6 9.8-6h.6v3.9c0 .2.1.3.3.4.2.1.4 0 .5-.1l6.3-6.1c.1-.1.1-.2.1-.3.1-.1.1-.2 0-.3z"/></symbol><symbol viewBox="0 0 30.8 28.1" id="oncall-active"><title>We're available</title><desc>Pictorial representation of an ear listening.</desc><path d="M23 28.1c-1.3 0-2.7-.3-3.8-1-2.1-1.3-3.2-3.5-3.1-6.3.1-2.2-.8-3.5-1.9-4.9-1.1-1.5-2.4-3.2-2.4-6.2s1-5.6 3-7.3C16.5.9 18.8 0 21.2 0c4 0 8.1 2.6 8.1 7.4 0 .5-.4.9-.9.9s-.9-.4-.9-.9c0-3.9-3.3-5.7-6.3-5.7-2 0-3.9.7-5.2 1.9-1.6 1.4-2.4 3.5-2.4 6 0 2.4 1 3.7 2 5.1 1.1 1.5 2.4 3.2 2.3 6-.1 2.7 1.2 4 2.2 4.7 1.6 1 4 1 5.7.1 1.4-.8 2.2-2.1 2.2-3.6 0-.5.4-.9.9-.9s.9.4.9.9c0 2.2-1.1 4.1-3.1 5.2-1.1.7-2.4 1-3.7 1z"/><path d="M17.6 13.5c-.4 0-.7-.2-.8-.6-1-3-.5-5.8 1.2-7.5 1.3-1.2 3-1.6 4.6-1.1 2 .7 3.4 2.9 3.7 5.9.1.5-.3.9-.8 1-.5.1-.9-.3-1-.8-.3-2.3-1.2-4-2.6-4.5-.9-.3-2-.1-2.8.7-1.3 1.2-1.5 3.4-.8 5.7.2.5-.1 1-.6 1.1 0 .1 0 .1-.1.1z"/><path d="M23.9 20.7c-.3 0-.7 0-1-.1-2.1-.5-3.5-2.5-3.6-5.3C19.1 11 22 8.7 24.5 8c.5-.1 1 .2 1.1.6.1.5-.2 1-.6 1.1-.7.2-4.1 1.3-3.9 5.5.1 2.8 1.6 3.5 2.2 3.7.9.2 1.6-.1 1.9-.5.3-.6.1-1.1-.5-2-.4-.7-.8-1.3-.8-2.2 0-1.1.7-2.1 1.8-2.4 1.1-.3 2.2.2 2.8 1.3.2.4.1 1-.3 1.2-.4.2-1 .1-1.2-.3-.2-.4-.5-.5-.8-.4-.2.1-.5.3-.5.6s.3.8.6 1.2c.6 1 1.4 2.3.5 3.8-.6 1-1.7 1.5-2.9 1.5zM8.2 5.5h-.3L.6 2.9c-.5-.1-.7-.6-.6-1.1s.7-.7 1.1-.5l7.3 2.5c.6.2.8.7.7 1.1-.2.4-.5.6-.9.6zM.9 16.1c-.4 0-.8-.3-.9-.7-.1-.5.2-1 .7-1.1l7.6-1.6c.5-.1 1 .2 1.1.7.1.5-.2 1-.7 1.1L1.1 16c-.1.1-.2.1-.2.1zM6.4 26.8c-.3 0-.5-.1-.7-.3-.3-.4-.2-.9.2-1.2l6.2-4.7c.4-.3.9-.2 1.2.2.3.4.2.9-.2 1.2l-6.2 4.7c-.1 0-.3.1-.5.1z"/></symbol><symbol viewBox="-738.8 284.7 16 16" id="phone"><title>Phone</title><desc>Call Casper</desc><path d="M-723 298.2c-.9 2.2-3 2.6-3.7 2.6-.2 0-3.4.2-8-4.2-3.7-3.5-4.1-7.2-4.2-8 0-.7.2-2.4 2.6-3.7.3-.2.9-.2 1-.1.1.1 2.1 3.4 2.1 3.5.1.1.1.2.1.3 0 .2-.1.3-.3.6-.2.2-.4.4-.7.6-.3.2-.5.4-.7.6-.2.2-.3.4-.3.5 0 .4.3 1.6 2.5 3.6 2.2 1.9 3.3 2.5 3.4 2.5.1 0 .2.1.3.1.1 0 .3-.1.5-.3.2-.2.9-1.2 1.1-1.4.2-.2.4-.3.6-.3.1 0 .2 0 .3.1.1.1 3.4 2 3.5 2.1.2 0 .1.6-.1.9"/></symbol><symbol viewBox="0 0 36.3 38.3" id="pig"><title>Pig</title><desc>A drawing of a pig with a tail.</desc><path d="M16.5 38.3c-.3 0-.7-.2-.8-.6l-1.1-3.8c-.1-.4.1-.9.5-1 .4-.1.9.1 1 .5l1.1 3.8c.1.4-.1.9-.5 1-.1.1-.2.1-.2.1zm3.3 0h-.2c-.4-.1-.7-.6-.5-1l1.1-3.8c.1-.4.6-.7 1-.5.4.1.7.6.5 1l-1.1 3.8c-.1.3-.4.5-.8.5zm7 0h-2.7c-.3 0-.6-.2-.7-.5-.1-.3-.1-.6.1-.9 2.8-3.1 3-6.7 2.3-9.1-.5-1.7-1.6-2.9-2.8-3.1-.4-.1-.7-.5-.6-.9s.5-.7.9-.6c1.8.4 3.2 1.9 4 4.2.8 2.5.7 6-1.5 9.3h1c.4 0 .8.4.8.8s-.3.8-.8.8zm-14.6 0H9.5c-.4 0-.8-.4-.8-.8s.4-.8.8-.8h1c-2.3-3.3-2.3-6.8-1.5-9.3.7-2.3 2.2-3.9 4-4.2.4-.1.9.2.9.6s-.2.9-.6.9c-1.2.2-2.2 1.4-2.8 3.1-.8 2.4-.6 6 2.3 9.1.2.2.3.6.1.9-.1.4-.4.5-.7.5z"/><path d="M7.9 32.6c-1 0-2.1-.3-3-.9-.3-.2-.5-.4-.7-.7-.3 0-.7 0-1-.1-1.6-.2-2.7-1-3.1-2-.2-.4 0-.9.5-1 .4-.2.9 0 1 .5.2.5.9.9 1.8 1h.1c-.1-.6 0-1.3.3-1.9.3-.9 1.1-1.5 2-1.6.8-.1 1.6.3 2 1 .3.5.5 1.4-.5 2.8-.3.4-.7.7-1.1.9 1 .6 2.4.5 2.7.3.3-.3.8-.2 1.1.1.3.3.2.8-.1 1.1-.5.4-1.2.5-2 .5zm-2-5.1c-.2 0-.5.1-.7.5-.2.5-.2.9-.2 1.3.4-.1.7-.3.9-.5.4-.5.4-.9.4-1.1-.1-.2-.2-.2-.4-.2zM18.2 26.5c-3.8 0-7-3.1-7-7 0-.6.1-1.2.2-1.8-.1-.1-.2-.2-.4-.3-1.9-2-1.2-4.9-1.1-5 .1-.3.3-.5.7-.6 0 0 .3-.1.9-.1 1 0 2.7.2 3.9 1.4 1.8-.8 3.8-.8 5.6 0 1.2-1.2 3-1.4 3.9-1.4.5 0 .9.1.9.1.3 0 .6.3.7.6 0 .1.8 3-1.1 5-.1.1-.2.2-.4.3.2.6.2 1.2.2 1.8-.1 3.9-3.2 7-7 7zm-6.8-13.1c-.1.7 0 2 .8 3 .1.1.3.2.5.3.4.2.6.6.4 1-.2.6-.3 1.2-.3 1.9 0 3 2.4 5.4 5.4 5.4s5.4-2.4 5.4-5.4c0-.6-.1-1.3-.3-1.9-.1-.4 0-.8.4-1 .2-.1.4-.2.5-.3.9-1 .9-2.3.8-3-.7 0-2.1.1-3 1 0 0 0 .1-.1.1l-.1.1c-.2.4-.7.5-1.1.3-1.6-.9-3.6-.9-5.2 0-.4.2-.8.1-1.1-.3l-.1-.1s0-.1-.1-.1c-.7-.9-2.1-1-2.8-1z"/><path d="M18.2 23.6c-1.9 0-3.5-1.3-3.5-3s1.6-3 3.5-3 3.5 1.3 3.5 3-1.6 3-3.5 3zm0-4.3c-1 0-1.9.6-1.9 1.4s.9 1.4 1.9 1.4 1.9-.6 1.9-1.4-.9-1.4-1.9-1.4z"/><circle cx="17.3" cy="20.6" r=".5"/><circle cx="18.9" cy="20.6" r=".5"/></symbol><symbol viewBox="0 0 14 16" id="pinterest"><title>Pinterest Icon</title><desc>Visit Casper on Pinterest</desc><path d="M13.148 4.45C12.712 1.286 9.56-.324 6.198.053 3.54.352.89 2.5.78 5.574c-.067 1.876.465 3.284 2.25 3.68.773-1.37-.25-1.668-.41-2.66-.654-4.05 4.673-6.815 7.463-3.985 1.93 1.96.66 7.985-2.453 7.358-2.98-.598 1.46-5.395-.92-6.336-1.933-.766-2.96 2.34-2.043 3.884C4.13 10.17 2.97 12.67 3.44 16c1.52-1.103 2.033-3.215 2.453-5.418.764.465 1.173.947 2.147 1.022 3.593.278 5.6-3.587 5.108-7.155z"/></symbol><symbol viewBox="0 0 75 75" id="play-button"><title>Play button</title><path fill-rule="evenodd" clip-rule="evenodd" d="M5.7 72.6V2.4c0-1.8 2-3 3.6-2l58.9 35.1c1.5.9 1.5 3.2 0 4.1L9.3 74.7c-1.6.9-3.6-.2-3.6-2.1z"/></symbol><symbol viewBox="0 0 39.8 39.7" id="pointer"><title>Pointer arrow icon</title><desc>Close arrow icon used that points to Naptour content.</desc><path d="M34.2 30.6L39.7 2c.1-.5 0-1.1-.4-1.6-.4-.4-1-.6-1.6-.4L9.2 5.6c-.4.1-.7.2-.9.4-.6.6-.6 1.7 0 2.3l.3.3 8.8 5.5L0 30.1l9.9 9.5L25.7 22l5.5 9.1.3.3c.6.6 1.7.6 2.3 0 .2-.2.3-.5.4-.8z"/></symbol><symbol viewBox="0 250.3 792 111.5" id="press-nyt"><title>New York Times logo</title><desc>Text logo of The New York Times</desc><path fill="#616161" d="M18 314.1c-2.6-2.6-5.8-9.7-6.4-15.5-.6-7.7 1.9-12.9 1.9-12.9l9-3.9v29.6l-4.5 2.7zm41.9-49.7c.6-3.9 0-7.7-2.6-10.3-2.6-2.6-6.4-3.9-8.4-3.9-1.9 0-2.6 0-4.5.6 2.6.6 5.8.6 7.7 3.2 1.3 2.6-.6 3.9-1.3 5.2-1.9 1.3-4.5 1.3-7.7 0-7.7-1.9-16.8-5.8-23.2-6.4-4.5-.6-8.4.6-11.6 2.6-3.9 3.2-5.8 7.7-5.8 12.2 0 3.9 1.9 6.4 4.5 7.7 1.4.7 2 .7 2 .7s-1.3-.6-1.3-1.9c-.6-1.9 0-4.5 1.9-5.8 1.3-1.3 3.9-1.3 6.4-1.3 1.9 0 15.5 3.9 19.3 5.2 2.6.6 7.1 1.9 11 2.6V289l-7.1 5.2 7.1 5.8v20s-5.2 3.9-14.2 3.2c-5.2-.6-11.6-5.2-13.5-7.7l18-9v-31.6L14 285.2c1.3-3.9 4.5-8.4 8.4-11 .6-.6 1.9-1.9 3.2-2.6-1.9 0-2.6.6-3.9 1.3C10.3 277.3 0 288.3 0 301.8c0 6.4 1.3 12.9 4.5 18.7 5.2 7.1 12.2 11.6 20 13.5 6.4 1.3 12.9.6 21.3-3.9 4.5-2.6 8.4-7.1 10.3-11.6 2.6-6.4 3.2-11 2.6-13.5 0 .6-.6 1.3-.6 1.3-4.5 9-11.6 12.9-11.6 12.9v-19.3l7.1-5.8-6.4-5.8v-14.2s3.9 0 7.7-1.9c3.1-2.6 3.7-4.5 5-7.8m42.6 27.1l4.5-3.2-.6-.6-4.5 3.2-9.7-11-12.2 11v-36.7l-16.1 12.2c.6.6 3.2.6 3.2 3.9v50.9l-6.4 5.2.6.6 3.2-2.6 9 8.4 14.2-11-1.3-.6-3.2 2.6-3.2-3.2v-28.4l3.9-3.9 5.8 7.7v24.5c0 6.4 0 14.8-3.2 18.7-3.2 3.9-4.5 4.5-8.4 5.2 2.6.6 7.7 1.3 14.2-1.9 6.4-3.2 10.3-10.3 10.3-18v-33zm22.5 20V287l10.3 16.8-10.3 7.7zm.7 21.9l21.9-17.4-.6-.6-12.2 9.7-9.7-9v-3.2l20-14.8-10.3-17.4s-7.1 3.9-11.6 7.1c-4.5 2.6-11 5.8-11 5.8V322l-3.9 3.2.6.6 3.9-3.2 12.9 10.8zm96.6-65.1c6.4-6.4 3.9-14.2 3.2-14.8-.6 3.2-2.6 6.4-7.1 6.4-5.2 0-8.4-3.9-8.4-3.9l-12.9 14.8.6.6 3.9-4.5c4.5 3.9 7.7 4.5 11 4.5V307l-25.1-45.1c-1.9-3.9-5.8-7.1-11-7.1-6.4 0-10.3 5.2-11 10.3-.6 5.2 0 6.4 0 6.4s.6-5.8 4.5-5.8c3.2 0 5.2 3.2 6.4 5.2v12.9c-3.2 0-12.2.6-12.9 9.7 0 3.2 1.9 7.1 3.9 8.4 2.6 1.3 4.5 1.3 4.5 1.3s-2.6-1.3-1.9-4.5c.6-2.6 6.4-3.2 6.4-1.9v18.7c-2.6 0-11.6 0-15.5 7.7-2.6 4.5-1.9 9.7 0 12.9 1.9 2.6 6.4 6.4 13.5 5.2-5.8-.6-7.7-3.9-7.7-6.4 0-1.9 1.3-5.2 5.2-5.8 3.2-.6 7.1 1.3 9.7 4.5l12.9-14.2-.6-.6-3.2 3.9c-3.2-3.9-8.4-6.4-13.5-7.1v-43.2l33.5 61.2s0 .6 1.9.6c1.3 0 .6-.6.6-.6v-61.2c2.7-.9 7.2-2.2 9.1-4.1m23.9 35.4l-10.3 7.1V287l10.3 16.7zm-10.3 9.1l20-14.8-10.3-17.4s-7.1 3.9-11.6 7.1c-4.5 2.6-11 5.8-11 5.8v28.4l-3.9 3.2.6.6 3.9-3.2 12.2 11 21.9-17.4-12.2 9.7-9.7-9v-4zm86.3-19.4l9-7.7-.6-.6-3.9 3.2-9.7-8.4-10.3 9.7 3.9 3.9v32.2l-1.3 1.3-9-7.7v-26.4l2.6-3.9-9.7-8.4-10.3 9.7 3.9 3.9v30.3l-1.9 1.3-7.7-6.4v-27.7c0-7.7-10.3-8.4-12.2-14.8-1.3-3.9 3.2-6.4 3.2-6.4s-2.6 0-5.2 1.3-7.1 4.5-7.1 9.7c-.6 11 9 8.4 9 18.7v24.5l-4.5 3.2.6.6 4.5-3.2 10.3 9 11.6-9 11.6 9 22.6-14.2v-26.4h.6zm63.2 36.8c-2.6 2.6-6.4 1.3-6.4 1.3v-30.3s1.9-2.6 4.5-2.6 4.5 2.6 4.5 2.6v23.2c-.1 0 .6 3.2-2.6 5.8m2.5-30.3s-1.9-1.9-4.5-1.9-4.5 1.9-4.5 1.9v-9s1.9 1.9 4.5 1.9 4.5-1.9 4.5-1.9v9zm0-10.3s-1.9 2.6-4.5 2.6-4.5-2.6-4.5-2.6v-21.3l3.2-2.6 6.4 5.8v18h-.6zm14.2-23.2l4.5-3.9-.6-1.3-4.5 3.9-9.7-8.4-13.5 11v-10.3h-.6v74.1s-1.9-.6-3.9-.6c-1.9-.6-3.9-.6-3.9-.6v-61.9c0-4.5-1.9-9.7-8.4-11-6.4-1.3-10.3 1.9-12.2 3.9-3.9 3.9-3.2 9-3.2 9s1.3-5.8 5.2-5.8c3.2 0 4.5 2.6 4.5 7.1V289c-3.9 0-7.7.6-10.3 4.5-3.2 4.5-.6 9.7.6 11 2.6 3.2 5.8 2.6 5.8 2.6s-3.9-1.3-2.6-4.5c1.3-1.9 5.8-2.6 6.4-1.3v29.6s-9 3.2-9.7 11c0 5.8 2.6 11 7.1 12.9 9 3.9 21.9-1.3 32.9-2.6 5.2-.6 6.4 0 7.1 2.6 1.3 4.5-3.2 7.1-3.2 7.1s9.7-1.3 11.6-9c1.3-3.9 1.3-9.7-6.4-13.5-9-3.9-34.2 6.4-40 2.6-2.6-1.9-2.6-4.5-1.9-6.4 2.6-5.8 12.2-4.5 18.7-3.9 8.4 1.3 18 6.4 25.8 1.9 3.2-1.9 3.9-5.8 4.5-9.7v-57.5h-.1zm33.5 60.5l-11-9.7v-30.9l11 10.3v30.3zm12.3-34.1l3.9-3.2-.6-.6-3.9 3.2-13.5-12.2s-5.2 3.2-9.7 5.8c-5.8 3.2-11.6 5.8-11.6 5.8v30.3l-3.9 3.2.6.6 3.2-3.2 12.9 11s5.2-3.2 10.3-5.8c5.2-2.6 12.2-6.4 12.2-6.4v-28.5zm43.2-12.3c-1.3 1.3-1.3 1.9-2.6 2.6-2.6 1.3-5.2 0-5.2-.6-1.3-.6-1.9-1.3-1.9-1.3l-8.4 8.4-7.1-9-13.5 11.6.6.6 3.9-3.2 3.9 5.8v26.4L455 327l.6.6 3.9-3.2 10.3 9.7 13.5-11.6-.6-1.3-4.5 3.9-5.2-4.5v-30.3c5.2 5.8 9.7 4.5 11 3.9 4.5-2.1 7.7-7.2 7.1-13.7m19.9 43.2l-4.5-4.5v-65.7l-16.8 11.6c2.6 0 4.5 2.6 4.5 7.7v49.6l-6.4 5.8.6.6 3.9-3.2 9 8.4 13.5-11.6v-1.3l-3.8 2.6zm16.1 9.7l14.8-12.9-.6-.6-4.5 3.9-21.3-32.2 1.3-1.3s5.2 4.5 10.3 3.2c6.4-1.3 9-7.7 10.3-13.5 0 0-3.9 4.5-9 3.2-3.2-.6-5.8-3.2-5.8-3.2l-15.5 21.9 20 31.5zm45.8-19.3c-2.6-2.6-5.8-9.7-5.8-15.5-.6-7.7 1.9-12.9 1.9-12.9l9-3.9v29.6l-5.1 2.7zm41.9-49.7c.6-3.9 0-7.7-2.6-10.3-2.6-2.6-5.8-3.9-8.4-3.9-1.9 0-1.9 0-4.5.6 2.6.6 5.8.6 7.7 3.2 1.3 2.6-.6 3.9-1.3 5.2-1.9 1.3-4.5 1.3-7.7 0-7.7-1.9-16.8-5.8-23.2-6.4-4.5-.6-8.4.6-11.6 3.2-3.9 2.6-5.8 7.1-5.8 11.6 0 3.9 1.9 6.4 4.5 7.7 1.3.6 1.9.6 1.9.6-.6-.6-1.3-1.3-1.9-2.6-.6-1.9 0-4.5 1.9-5.8 1.3-1.3 3.9-1.3 6.4-1.3 1.9 0 15.5 3.9 19.3 5.2 2.6.6 7.1 1.9 11 2.6v14.2l-7.1 5.8 7.1 5.8v20s-5.2 3.9-14.2 3.2c-5.2-.6-11.6-5.2-13.5-7.7l18-9v-31.6l-21.9 9.7c1.3-3.9 4.5-8.4 8.4-11 1.3-.6 2.6-1.9 3.2-2.6-1.9 0-2.6.6-3.9 1.3-11.6 4.5-21.3 15.5-21.3 29 0 6.4 1.3 12.9 4.5 18.7 5.2 7.7 12.2 12.2 20 13.5 6.4 1.3 12.9.6 21.3-3.9 4.5-2.6 8.4-7.1 10.3-11.6 2.6-6.4 3.2-11 2.6-13.5-.6.6-.6 1.3-.6 1.3-4.5 9-11.6 12.9-11.6 12.9v-19.3l7.1-5.8-7.1-5.8v-13.5s3.9 0 7.7-1.9c3.3-2.6 4.6-4.5 5.3-7.8m9.6 13.6l9.7-8.4-7.7-8.4-9.7 8.4 7.7 8.4zm10.4 14.1l4.5-3.9-.6-.6-3.9 3.9-9-11-12.2 11 .6.6 3.2-3.2 5.2 6.4v27.1l-3.9 3.9.6.6 3.9-3.2 8.4 10.3 12.9-11-.6-1.9-3.9 3.2-5.2-5.8v-26.4zm66.3 41.3l12.9-12.2-.6-.6-3.2 3.2-5.2-5.2v-27.1l4.5-3.9-.6-.6-4.5 3.9-8.4-10.3-12.9 10.3-9-9.7-12.2 9.7-9-9.7-12.9 11.6.6.6 3.9-3.2 5.8 7.1v23.8l-3.2 2.6 9.7 11 9.7-9.7-3.9-3.9v-30.3l2.6-1.9 6.4 7.7v23.2l-2.6 2.6 9 10.3 9.7-9.7-3.2-3.9v-28.4l2.6-1.9 7.1 7.7v23.2l-2.6 2.6 9.5 11.1zm31-21.9V287l10.3 17.4-10.3 7.1zm.6 21.9l21.9-17.4-.6-.6-12.2 9.7-9.7-9v-3.2l20-14.8-10.3-17.4s-7.1 3.9-11.6 7.1c-4.5 2.6-11 5.8-11 5.8V322l-3.9 3.2.6.6 3.9-3.2 12.9 10.8zm41.9-29l-4.5-3.9v-14.2s2.6 5.2 7.7 7.1c6.4 1.9 11-4.5 11-4.5-3.9 7.1-14.2 15.5-14.2 15.5m.6 0l5.2 4.5v18s-2.6-7.7-9.7-9c-7.7-1.3-12.2 5.8-12.2 5.8 1.3-5.1 10.9-13.5 16.7-19.3m16.8-.7l-8.4-7.1c10.3-12.2 7.7-17.4 6.4-19.3 0 1.3.6 5.8-5.8 6.4-3.9.6-7.1-3.9-7.1-3.9s-4.5 3.2-9 5.8c-4.5 2.6-10.3 5.8-10.3 5.8V305l7.7 7.1c-6.4 6.4-11 11-9.7 17.4 1.3 6.4 7.7 7.7 9 7.7-4.5-1.3-5.8-5.2-2.6-7.1 4.5-3.2 9.7 3.2 9.7 3.2 9-7.1 19.3-12.2 19.3-12.2v-17.4h.8z"/></symbol><symbol viewBox="0 0 36 26" id="quote"><title>Quote</title><desc>Open and close quote icon</desc><path d="M.4 17.8C.4 10.5 5 4.9 15.3.5l1.6 2.6c-7.5 3.3-11.4 7.6-12 12l.6.3c.8-.5 1.8-1 2.9-1 2.7 0 4.7 2.2 4.7 5 0 3.3-2.4 6-5.7 6-4.3.1-7-3.1-7-7.6zm18.7 0C19.1 10.5 23.6 5 34 .5l1.6 2.6c-7.5 3.4-11.5 7.6-12.1 12.1l.6.3c.8-.5 1.8-1 2.9-1 2.7 0 4.7 2.2 4.7 5 0 3.3-2.4 6-5.7 6-4.2 0-6.9-3.2-6.9-7.7z"/></symbol><symbol viewBox="0 0 21.7 39.5" id="review-clock"><title>Analog clock</title><desc>Icon of an analog alarm clock.</desc><path d="M16.9 39.5c-.3 0-.5-.1-.7-.4l-1.7-3c-.2-.4-.1-.9.3-1.1.4-.2.9-.1 1.1.3l1.7 3c.2.4.1.9-.3 1.1-.2.1-.3.1-.4.1zm-12.1 0c-.1 0-.3 0-.4-.1-.4-.2-.5-.7-.3-1.1l1.7-3c.3-.3.7-.5 1.1-.3.4.2.5.7.3 1.1l-1.7 3c-.1.3-.4.4-.7.4z"/><path d="M10.8 37.5C4.9 37.5 0 32.7 0 26.7c0-6 4.9-10.8 10.8-10.8s10.8 4.9 10.8 10.8c.1 6-4.8 10.8-10.8 10.8zm0-20.1c-5.1 0-9.2 4.1-9.2 9.2s4.1 9.2 9.2 9.2 9.2-4.1 9.2-9.2-4.1-9.2-9.2-9.2z"/><path d="M10.8 27.4c-.4 0-.8-.4-.8-.8v-6.7c0-.4.4-.8.8-.8s.8.4.8.8v6.7c0 .5-.3.8-.8.8z"/><path d="M14.8 27.4h-4c-.4 0-.8-.4-.8-.8s.4-.8.8-.8h4c.4 0 .8.4.8.8s-.3.8-.8.8zM2.7 21.6c-.2 0-.4-.1-.6-.2-.8-.8-1.2-1.9-1.2-3.1 0-2.4 2-4.4 4.4-4.4 1.8 0 3.4 1.1 4.1 2.7.2.4 0 .9-.4 1-.4.2-.9 0-1-.4-.4-1.1-1.5-1.7-2.6-1.7-1.5 0-2.8 1.3-2.8 2.8 0 .7.3 1.4.8 1.9.3.3.3.8 0 1.1-.3.2-.5.3-.7.3zm16.2 0c-.2 0-.4-.1-.6-.2-.3-.3-.3-.8 0-1.1.5-.5.8-1.2.8-1.9 0-1.5-1.3-2.8-2.8-2.8-1.1 0-2.2.7-2.6 1.7-.2.4-.6.6-1 .4-.4-.2-.6-.6-.4-1C13 15 14.6 14 16.4 14c2.4 0 4.4 2 4.4 4.4 0 1.1-.4 2.2-1.2 3.1-.3 0-.5.1-.7.1z"/></symbol><symbol viewBox="0 0 25.8 39.1" id="sad"><title>Sad face</title><desc>Circle face with a sad expression</desc><circle cx="8.7" cy="23" r="1.6"/><circle cx="17" cy="23" r="1.6"/><path d="M12.9 39.1C5.8 39.1 0 33.3 0 26.2c0-7.1 5.8-12.9 12.9-12.9 7.1 0 12.9 5.8 12.9 12.9 0 7.1-5.8 12.9-12.9 12.9zm0-24.2C6.7 14.9 1.6 20 1.6 26.2s5.1 11.3 11.3 11.3 11.3-5.1 11.3-11.3-5.1-11.3-11.3-11.3z"/><path d="M17.7 31.8c-.2 0-.3-.1-.5-.2-1.2-1-2.8-1.5-4.4-1.5s-3.1.5-4.4 1.5c-.3.3-.8.2-1.1-.1-.3-.3-.2-.8.1-1.1 1.5-1.2 3.4-1.9 5.3-1.9 2 0 3.8.6 5.3 1.9.3.3.4.8.1 1.1.1.2-.1.3-.4.3z"/></symbol><symbol viewBox="0 0 18.1 18.3" id="search"><g fill="none" stroke="#000" stroke-width="2" stroke-miterlimit="10"><circle cx="7.3" cy="7.3" r="6.3"/><path clip-rule="evenodd" stroke-linecap="round" stroke-linejoin="round" d="M11.7 11.8l5.3 5.4"/></g></symbol><symbol viewBox="0 0 61.4 53.2" id="sms"><title>Cell phone icon</title><desc>Line drawing of a smartphone.</desc><path d="M41.8.2H19.6c-2.9 0-5.3 2.4-5.3 5.3v42.1c0 2.9 2.4 5.3 5.3 5.3h22.2c2.9 0 5.3-2.4 5.3-5.3V5.5c0-3-2.4-5.3-5.3-5.3zm-24.5 13h26.8V40H17.3V13.2zm2.3-10h22.2c1.3 0 2.3 1 2.3 2.3v4.7H17.3V5.5c0-1.3 1-2.3 2.3-2.3zm22.2 46.7H19.6c-1.3 0-2.3-1-2.3-2.3v-4.7h26.8v4.7c0 1.3-1 2.3-2.3 2.3z"/><circle cx="30.7" cy="46.3" r="2.2"/></symbol><symbol viewBox="0 0 20.8 38.3" id="solo"><title>Person icon</title><desc>Icon representation of a person</desc><path d="M19.3 25.1H19c-.4-.1-.6-.6-.5-1 1.1-3.3.8-6.4-.9-8.8-1.6-2.3-4.3-3.6-7.3-3.6S4.6 13 3 15.3c-1.7 2.4-2 5.5-.9 8.8.1.4-.1.9-.5 1-.4.1-.9-.1-1-.5-1.3-3.7-.9-7.5 1.1-10.3 1.9-2.7 5-4.2 8.6-4.2 3.5 0 6.7 1.5 8.6 4.2 2 2.8 2.4 6.6 1.1 10.3 0 .3-.3.5-.7.5z"/><path d="M14.8 38.3c-.5 0-.8-.4-.8-.9l2.1-24.2c0-.4.4-.8.9-.7.4 0 .8.4.7.9l-2.1 24.2c0 .4-.4.7-.8.7zm-8.8 0c-.4 0-.8-.3-.8-.7L3.1 13.4c0-.4.3-.8.7-.9.4 0 .8.3.9.7l2.1 24.2c.1.5-.3.9-.8.9.1 0 .1 0 0 0zm2.8 0c-.4 0-.8-.3-.8-.8l-.3-11.7c0-.2.1-.4.2-.6.2-.1.4-.2.6-.2h3.8c.2 0 .4.1.6.2.2.2.2.4.2.6l-.3 11.7c0 .4-.4.8-.8.8s-.8-.4-.8-.8l.3-10.9H9.3l.3 10.9c.1.5-.3.8-.8.8.1 0 .1 0 0 0zm1.6-26.9c-3.1 0-5.7-2.6-5.7-5.7S7.3 0 10.4 0s5.7 2.6 5.7 5.7-2.5 5.7-5.7 5.7zm0-9.8c-2.3 0-4.1 1.8-4.1 4.1s1.8 4.1 4.1 4.1 4.1-1.8 4.1-4.1-1.8-4.1-4.1-4.1z"/></symbol><symbol viewBox="0 0 74 53.2" id="speechbubble"><title>Speech bubble icons</title><path d="M68.6 12.2H47.2V5.3c0-2.9-2.4-5.3-5.3-5.3H5.3C2.4 0 0 2.4 0 5.3v23c0 2.9 2.4 5.3 5.3 5.3h3.9V39c0 .8.5 1.6 1.2 1.9.3.1.6.2.9.2.5 0 1-.2 1.4-.5l7.6-6.9h6.4v6.9c0 2.9 2.4 5.3 5.3 5.3h21.6l7.6 7c.4.3.9.5 1.4.5 1.2 0 2.1-.9 2.1-2.1v-5.4h3.9c2.9 0 5.3-2.4 5.3-5.3v-23c0-3-2.3-5.4-5.3-5.4zm-41.9 5.3v12.9h-6.5c-.3 0-1.1-.1-1.8.6l-6.1 5.6v-4.4c0-1-.8-1.8-1.8-1.8H5.3c-1.2 0-2.2-1-2.2-2.2v-23C3.1 4 4.1 3 5.3 3h36.6c1.2 0 2.2 1 2.2 2.2v6.9H32c-2.9.1-5.3 2.5-5.3 5.4zm44.1 23c0 1.2-1 2.2-2.2 2.2h-5.3c-1 0-1.8.8-1.8 1.8v4.4l-6-5.5c-.3-.3-.8-.7-1.6-.7H32c-1.2 0-2.2-1-2.2-2.2v-23c0-1.2 1-2.2 2.2-2.2h36.6c1.2 0 2.2 1 2.2 2.2v23z"/></symbol><symbol viewBox="0 0 100 100" id="star"><title>Star</title><desc>Five pointed star</desc><path d="M69.2 61.3L100 37.5H62.5L50 0 37.5 37.5H0l30.9 23.7L18.8 100 50 76l31.3 24z"/></symbol><symbol viewBox="0 0 50 27" id="team"><path d="M41.6 12.5c.9-1.2 1.4-2.6 1.5-4.1.1-2-.6-3.8-1.9-5.2-1.3-1.5-3.1-2.2-5-2.2-4 0-7.4 3.3-7.7 7.3-.1 1.5.3 3 1.1 4.2-1.6.8-3 1.8-4.2 3.1-1-1.3-2.3-2.3-3.8-3.1.9-1.2 1.4-2.6 1.5-4.1.1-2-.6-3.8-1.9-5.2-1.3-1.5-3.1-2.2-5-2.2-4 0-7.4 3.3-7.7 7.3-.1 1.5.3 3 1.1 4.2-4.5 2.2-7.6 6.7-7.8 11.7 0 .3.1.5.3.7.2.2.4.3.7.3H47.4c.5 0 .9-.4.9-.9.2-5-2.4-9.5-6.7-11.8zm-5.4-9.6c1.4 0 2.8.6 3.7 1.6 1 1 1.4 2.4 1.4 3.8-.2 3-2.7 5.5-5.8 5.5-1.4 0-2.8-.6-3.7-1.6-1-1-1.4-2.4-1.4-3.8.2-3.1 2.7-5.5 5.8-5.5zm-20 0c1.4 0 2.8.6 3.7 1.6 1 1 1.4 2.4 1.4 3.8-.2 3-2.7 5.5-5.8 5.5-1.4 0-2.8-.6-3.7-1.6-1-1-1.4-2.4-1.4-3.8.2-3.1 2.7-5.5 5.8-5.5zm9.2 20.4H3.8c.6-4.1 3.3-7.6 7.1-9.4 1.3 1.1 2.9 1.7 4.6 1.7 1.8 0 3.5-.6 4.8-1.7 3.6 1.7 5.9 5.3 6 9.4h-.9zm2.8 0c-.1-2.2-.7-4.3-1.7-6.1 1.2-1.4 2.7-2.5 4.4-3.3 1.3 1.1 2.9 1.7 4.6 1.7 1.8 0 3.5-.6 4.8-1.7 3.6 1.7 5.9 5.3 6 9.4H28.2z"/></symbol><symbol viewBox="0 0 57.1 54" id="thumbsup"><title>Thumbs up</title><desc>Hand giving a thumbs up signal</desc><path d="M50.6 27.5c.2-.5.3-1.1.3-1.6V24c0-2.4-2-4.4-4.4-4.4h-7.4c1.5-1.8 3-4 3.8-5.2 3-4.8 1.6-9.2 1.6-9.3-.6-2.1-1.7-3.5-3.2-4.2C39.6.1 37.3.3 36 2c-.4.5-.7 1.1-.9 1.6 0 .1-.1.2-.2.4-.7 1.3-1.7 2.7-2.6 3.9l-.1.2c-.3.4-.5.7-.8.9-.3.2-.6.4-1 .6-.2.1-.3.2-.5.3-.4.2-.8.5-1.2.7-.6.3-1.2.6-1.9 1-1.5.9-2.8 1.8-3.7 2.6-.6.5-2.1 2-3.8 3.5-1.6 1.5-3.4 3.1-4.4 4h-10c-.8 0-1.5.7-1.5 1.5V45c0 .8.7 1.5 1.5 1.5h8.8c2.4 5.8 8.5 7.3 12 7.3h18.7c2.4 0 4.4-2 4.4-4.4v-1.9c0-.6-.1-1.2-.3-1.7 1.7-.6 3-2.2 3-4.2v-1.9c0-.6-.1-1.2-.4-1.8 1.6-.7 2.8-2.2 2.8-4.1v-1.9c-.2-2.2-1.5-3.9-3.3-4.4zm-3.7 7.6H33.2c-.8 0-1.4-.6-1.4-1.4v-1.9c0-.8.6-1.4 1.4-1.4h16.1c.8 0 1.4.6 1.4 1.4v1.9c0 .8-.6 1.4-1.4 1.4h-2.4zm1.4 4.4v1.9c0 .8-.6 1.4-1.4 1.4H34.6c-.8 0-1.4-.6-1.4-1.4v-1.9c0-.8.6-1.4 1.4-1.4h12.2c.9 0 1.5.6 1.5 1.4zm-.4-15.6v1.9c0 .8-.6 1.4-1.4 1.4H34.7c-.8 0-1.4-.6-1.4-1.4v-1.9c0-.8.6-1.4 1.4-1.4h11.7c.9 0 1.5.6 1.5 1.4zM26.2 50.6c-.1 0-7.9.4-10-6.2-.2-.6-.8-1.1-1.4-1.1H6.4V24.6h9.1c.4 0 .7-.1 1-.4.9-.8 2.9-2.7 4.9-4.5 1.6-1.5 3.1-2.9 3.7-3.4.8-.7 1.9-1.5 3.3-2.3.6-.4 1.2-.7 1.7-1 .4-.2.9-.5 1.3-.7l.4-.2c.4-.2.9-.5 1.3-.8.7-.5 1.1-1 1.5-1.6l.1-.1c1-1.3 2.1-2.8 2.8-4.3l.3-.6.6-1.2c.3-.4 1-.4 1.6-.1.8.4 1.3 1.4 1.5 2.3 0 0 1 3.3-1.2 6.9-1.8 2.8-4.3 6.1-5.3 6.8h-.4c-2.4 0-4.4 2-4.4 4.4v1.9c0 .8.2 1.5.6 2.1-.9.6-1.6 1.5-1.9 2.6-2.4 3.7-6.5 4-6.7 4-.8 0-1.5.8-1.4 1.6 0 .8.7 1.4 1.5 1.4h.1c.2 0 3.5-.2 6.5-2.6.3 1 1 1.9 1.9 2.5-.3.6-.6 1.3-.6 2.1v1.9c0 1.8 1.1 3.4 2.7 4.1-.2.6-.4 1.2-.4 1.8v1.9c0 .5.1 1 .3 1.4l-6.6.1zm19.5-1.4c0 .8-.6 1.4-1.4 1.4H37c-.8 0-1.4-.6-1.4-1.4v-1.9c0-.8.6-1.4 1.4-1.4h7.3c.8 0 1.4.6 1.4 1.4v1.9z"/></symbol><symbol viewBox="0 0 130 130" id="trial-seal-hundrednight"><title>100 Night Trial, Free Returns seal</title><desc>Casper's guarantee and return program</desc><path d="M63.5 95.4c-16.6 0-30.2-13.5-30.2-30.2 0-11 5.2-19.7 14.9-25.2 7.3-4.1 14.4-4.9 14.7-5 .5-.1 1 .2 1.2.7.2.5.2 1-.2 1.4-4.5 5.1-7 11.6-7 18.4 0 15.3 12.4 27.7 27.7 27.7.5 0 .9.3 1.1.7.2.4.2.9-.1 1.3-.1.4-7.1 10.2-22.1 10.2zm-3.4-57.2c-2.7.6-6.7 1.8-10.7 4.1-9 5.1-13.6 12.8-13.6 23C35.8 80.5 48.2 93 63.5 93c5.7 0 10.9-1.5 15.3-4.6 1.4-1 2.5-2 3.3-2.8-15.4-1.3-27.6-14.3-27.6-30.1.1-6.2 2-12.3 5.6-17.3z"/><path d="M84.4 66c-.7 0-1.2-.6-1.2-1.2 0-5.4-4.4-9.8-9.8-9.8-.7 0-1.2-.6-1.2-1.2s.6-1.2 1.2-1.2c5.4 0 9.8-4.4 9.8-9.8 0-.7.6-1.2 1.2-1.2s1.2.6 1.2 1.2c0 5.4 4.4 9.8 9.8 9.8.7 0 1.2.6 1.2 1.2s-.5 1.2-1.2 1.2c-5.4 0-9.8 4.4-9.8 9.8 0 .6-.5 1.2-1.2 1.2zm-5.6-12.2c2.5 1.2 4.5 3.2 5.6 5.6 1.2-2.5 3.2-4.5 5.6-5.6-2.5-1.2-4.5-3.2-5.6-5.6-1.2 2.4-3.2 4.4-5.6 5.6z"/><g><path d="M75.3 13.2l1.8-8.7-2.1.4-.3-2.2 4.6-.7 1 .2-2.4 11.6-2.6-.6zM85.4 16.5c-3-1.3-3.6-4.5-2.3-7.5 1.3-3 3.9-4.9 7-3.6 3 1.3 3.6 4.5 2.3 7.5-1.3 3-4 4.9-7 3.6zm3.8-9c-1.2-.5-2.4.4-3.4 2.7-1 2.3-.7 3.7.5 4.2 1.1.5 2.4-.3 3.3-2.6 1-2.4.7-3.8-.4-4.3zM96.1 22.5c-2.7-1.9-2.4-5.2-.5-7.8 1.9-2.7 5-3.9 7.6-1.9 2.6 1.9 2.4 5.2.5 7.8-1.9 2.7-5 3.8-7.6 1.9zm5.8-7.8c-1-.7-2.4-.2-3.8 1.8-1.5 2-1.5 3.5-.5 4.2 1 .7 2.4.2 3.8-1.8s1.5-3.5.5-4.2zM111.1 39l1.1-9.4-5 3.5-1.6-2.2 9.7-6.8.3.3-1.1 9.3 5-3.5 1.6 2.2-9.7 6.8-.3-.2zM113 42.3l10.7-4.8 1.1 2.5-10.7 4.8-1.1-2.5zM124.3 56.3l-5.4 1.3c-1-1.1-1.8-2.3-2.2-4-.8-3.3.9-6.6 4.4-7.4 3.5-.9 6.5 1.2 7.4 4.7.4 1.5.3 2.8 0 4.1l-2.4-.6c.2-.9.2-1.8 0-2.7-.6-2.3-2.3-3.1-4.3-2.6-2.2.5-3.2 2.3-2.7 4.2.2.8.4 1.2.7 1.6l1.7-.4-.6-2.3 2.2-.6 1.2 4.7zM118.2 68.2l4.7.1.1-4.5-4.7-.1V61l11.7.2v2.7l-4.6-.1-.1 4.5 4.6.1v2.7l-11.7-.2v-2.7zM125.4 81.5l-8.9-2.2.6-2.6 8.9 2.2.8-3.4 2.4.6-2.3 9.5-2.4-.6.9-3.5zM117.8 98.8l-7.9-4.7 1.4-2.3 7.9 4.7 1.8-3 2.1 1.3-5 8.3-2.1-1.3 1.8-3zM102.4 103.5l4.1 1.2.3-.3.7-.7-2.8-2.6 1.9-2 8.4 7.9c-.6.8-1.3 1.6-2.2 2.6-2.5 2.7-4.7 2.5-6.3 1-1-.9-1.4-2.3-1.1-3.8l-5.2-1.1 2.2-2.2zm8.4 4.6c.3-.3.4-.5.7-.8l-2.4-2.2c-.3.2-.4.4-.6.6-.9.9-1 2-.1 2.8.7.6 1.7.4 2.4-.4zM98.2 107.2l7.1 9.3-2.2 1.6-7.1-9.3 2.2-1.6zM86.7 114.2l1.7 1.5 3.6-1.8-.2-2.3 2.5-1.3.5 13-.3.2-10.3-8 2.5-1.3zm5.7 4.9l-.2-3-2.1 1.1 2.3 1.9zM82 116.1l3.1 11.3-2.6.7-2.4-8.9-4.5 1.2-.6-2.4 7-1.9zM60.2 121.3c1.7.1 2.9 1.6 2.7 3.3-.1 1.7-1.6 2.9-3.2 2.8-1.6-.1-2.9-1.6-2.7-3.3.1-1.7 1.6-2.9 3.2-2.8zM39 122.3l1.1-2.3-3.6-1.7 1-2.2 3.6 1.7 1.8-3.8 2.5 1.2-5 10.6-6.7-3.1 1.1-2.3 4.2 1.9zM31.5 106.9l-.7 4.2c.1.1.3.2.4.3.3.2.5.4.8.6l2.3-3.1 2.2 1.6-6.9 9.3c-.9-.5-1.8-1.1-2.9-1.9-2.9-2.2-3-4.4-1.7-6.1.8-1.1 2.2-1.7 3.6-1.5l.5-5.3 2.4 1.9zm-3.7 9c.3.2.5.4.9.6l1.9-2.6c-.3-.2-.4-.4-.7-.6-1-.8-2.1-.8-2.8.2-.5.8-.2 1.7.7 2.4zM27.4 103.4l-8.8 7.7-4.9-5.6 1.9-1.6 3.1 3.5 1.6-1.4-2.8-3.2 1.8-1.6 2.8 3.2 1.7-1.5-3.1-3.5 1.9-1.6 4.8 5.6zM20.6 95.1l-10.1 5.8-3.7-6.4L9 93.3l2.3 4.1 1.8-1-2.1-3.7 2-1.2 2.1 3.7 2-1.1-2.3-4.1 2.1-1.2 3.7 6.3zM12.6 75.2L9.3 78c.1.2.1.3.1.4.1.4.1.6.2 1l3.7-.8.6 2.6-11.3 2.5c-.3-.9-.6-2-.9-3.3-.8-3.5.6-5.3 2.7-5.8 1.4-.3 2.7.2 3.7 1.2l3.8-3.7.7 3.1zM4 79.6c.1.4.2.7.3 1l3.1-.7c0-.3-.1-.5-.1-.9-.3-1.3-1.1-1.9-2.2-1.7-1 .2-1.4 1.1-1.1 2.3zM11.8 69.8L.1 70 0 62.6h2.5l.1 4.7h2.1L4.6 63H7v4.2h2.3l-.1-4.7h2.5l.1 7.3zM4 52.2l9 1.8-.5 2.7-9-1.8-.7 3.4-2.4-.5 1.9-9.6 2.4.5-.7 3.5zM16.5 43.9c-1.3 2.9-3.5 3.8-6.5 2.4l-6.3-2.8L4.8 41l6.2 2.8c1.5.7 2.7.4 3.4-1 .6-1.4 0-2.4-1.5-3.1l-6.2-2.8 1.1-2.5 6.3 2.8c2.9 1.4 3.7 3.8 2.4 6.7zM24 31.5l-4.2-.7c-.1.1-.2.3-.3.4-.2.3-.4.5-.6.8l3 2.3-1.6 2.2-9.2-7c.5-.9 1.1-1.8 1.9-2.9 2.2-2.9 4.5-3 6.2-1.7 1.1.8 1.6 2.2 1.5 3.7l5.3.6-2 2.3zm-8.9-3.8c-.3.3-.4.5-.6.9l2.6 2c.2-.3.4-.4.6-.7.8-1 .8-2.1-.1-2.8-.9-.6-1.8-.3-2.5.6zM35.2 21.4l-9.5-.4 3.9 4.7-2.1 1.7-7.5-9.2.2-.3 9.4.5-3.8-4.7 2.1-1.7 7.5 9.2-.2.2zM41.1 18.1c-1.2.6-2.8.8-4.1.7l-.4-2.5c1.1.2 2.4 0 3.4-.4.9-.4 1-1 .7-1.5-.3-.5-.7-.8-2.6-.6-2.2.2-3.4-.6-4-1.8-.8-1.5-.3-3.6 2.2-4.8 1.1-.6 2.5-.8 3.3-.6l.5 2.5c-.8-.1-2-.1-2.7.3-.9.4-1 1-.8 1.5.3.7 1 .6 2.6.6 2.4-.1 3.4.5 4.1 1.8.8 1.4.3 3.5-2.2 4.8zM58.8 9.8c-1.6.2-3.1-1-3.3-2.7-.2-1.7 1-3.2 2.6-3.4 1.6-.2 3.1 1 3.3 2.7.2 1.7-.9 3.2-2.6 3.4z"/></g></symbol><symbol viewBox="0 0 617.9 612" id="trial-warranty"><title>100 Night Trial, Free Returns seal</title><desc>Casper's guarantee and return program</desc><path d="M270.7 254.6c0-32.7 11.9-64.2 33.6-88.6l-5.1-10c-1.4.1-36 4.2-71.1 23.9-47 26.4-71.8 68.4-71.8 121.4 0 80.2 65.3 145.4 145.4 145.4 72.6 0 106-47.4 107.4-49.5l-4.9-9.4c-73.7.2-133.5-59.6-133.5-133.2zm30.9 180.2c-73.6 0-133.4-59.8-133.4-133.4 0-48.9 22-86.3 65.4-110.8 19.2-10.8 38.5-16.8 51.5-19.7-17.2 24.4-26.5 53.5-26.5 83.7 0 75.9 58.5 138.4 132.7 144.9-13 12.9-42.2 35.3-89.7 35.3zM455.4 239.9c-26 0-47-21.1-47-47h-12c0 26-21.1 47-47 47v12c26 0 47 21.1 47 47h12c0-26 21.1-47 47-47v-12zm-53 33.1c-5.8-11.7-15.3-21.4-27-27 11.7-5.8 21.4-15.3 27-27 5.8 11.7 15.3 21.4 27 27-11.7 5.7-21.2 15.3-27 27zM364.2 10.8L357 47.4l11.1 2.2L377.8.9l-4.2-.9-19.7 3.2 1.5 9.2zM402.5 61.3c12.6 4.9 23.8-3.1 28.7-16 5-12.8 2.4-26.3-10.4-31.2-12.8-4.9-23.8 3.2-28.7 16-5 12.8-2.4 26.2 10.4 31.2zm1.1-26.7c3.7-9.7 8.8-13.2 13.6-11.4s6.1 7.9 2.3 17.6c-3.7 9.7-8.8 13.2-13.6 11.4s-6-7.9-2.3-17.6zM449.8 85.5c11.3 7.3 23.9 1.9 31.3-9.7 7.6-11.5 7.7-25.2-3.7-32.6-11.5-7.4-23.9-1.8-31.4 9.7-7.6 11.5-7.7 25.2 3.8 32.6zm6.6-25.7c5.7-8.8 11.3-11.2 15.7-8.3 4.4 2.8 4.4 9-1.3 17.7-5.7 8.8-11.3 11.2-15.7 8.3-4.4-2.9-4.3-9.1 1.3-17.7zM519.4 110l-1 39.7.9.8 37.7-32.3-7.3-8.7-19.3 16.5 1-39.3-1.1-1-37.8 32.3 7.4 8.7zM528.182 163.466l41.84-25.31 5.9 9.753-41.84 25.31zM564.3 176.2c-13.9 5.6-19.2 19.9-13.9 33.3 2.7 6.9 6.6 11.5 11.5 15.4l21.7-8.8-7.7-19.1-9 3.6 3.6 9.1-6.7 2.7c-1.5-1.3-2.6-2.8-3.9-6.2-3-7.4.1-15.4 8.8-18.9 8-3.2 15.5-.7 19.2 8.4 1.4 3.5 2 7.3 1.5 11.2l10.3 1c.5-5.5.2-10.8-2.2-16.9-5.5-13.5-19.3-20.4-33.2-14.8zM563.4 250.6l19.4-3.2 3 18.6-19.4 3.2 1.9 11.2 48.3-8-1.9-11.2-18.9 3.1-3.1-18.6 19-3-1.9-11.3-48.3 8zM607.4 293.2l-.5 14.8-38.5-1.4-.4 11.3 38.5 1.4-.5 14.7 10.4.4 1.5-40.7zM595.4 385.1l-36.8-11.4-3.4 10.9L592 396l-4.3 14 10 3 12-38.8-10-3.1zM540.7 419.3l14.1 7.6c-.8 1.4-1.3 2.2-2.1 3.6-.3.5-.5 1.1-.9 1.8l-18.1-.1-6 11.4 22.1-1.3c.3 6.1 3.4 11.4 8.5 14.1 7.9 4.2 17.2 2.3 24.3-11.2 2.7-5 4.5-9.2 6-13.1L546 409.2l-5.3 10.1zm20.5 15c.7-1.2 1.1-1.9 1.9-3.1l11.9 6.4c-.5 1.5-1 2.5-1.8 4.1-2.3 4.3-5.9 6-9.5 4.1-4.4-2.4-5-6.7-2.5-11.5zM520.82 452.447l39.28 29.125-6.79 9.158-39.28-29.125zM500.3 478.1l3.6 8.9-12 11.9-8.9-3.7-8.4 8.3 51.1 18.8 1.1-1.1-18.4-51.2-8.1 8.1zm.3 24.4l6.9-6.8 4.8 11.8-11.7-5zM441.4 526.4l5.9 8.5 16.2-11.2 21.9 31.9 9.3-6.5-27.8-40.2zM388.7 561.8c-6.6 2-10.3 9.1-8.2 15.8 2.1 6.8 9.1 10.5 15.7 8.5 6.7-2.1 10.3-9.1 8.2-15.9-2.1-6.6-9-10.3-15.7-8.4zM313.4 599.4l-.7-37.3-11.2.1.7 49.8 4.3-.1 18.6-7.2-3.4-8.7zM265.4 557.7c-13.4-2.2-22.6 7.9-24.9 21.5-2.3 13.6 3 26.2 16.4 28.5 13.5 2.3 22.6-7.9 24.9-21.5 2.4-13.6-2.8-26.2-16.4-28.5zm4.3 26.3c-1.8 10.3-5.9 14.8-11.1 13.9s-7.6-6.5-5.8-16.8c1.8-10.3 5.9-14.8 11.1-13.9 5 .9 7.6 6.5 5.8 16.8zM191.8 534.4l-8.4 17.4-28.2 19.2 11.5 5.6 17-12.7 1 21.4 11.7 5.6-2.7-34.1 8.3-17.5zM142.6 502.5l-6.2 8.3 15.9 11.6-5.7 7.8-14.4-10.6-5.8 7.9 14.3 10.6-5.1 7.1-15.8-11.6-6.2 8.3 24.9 18.4 29-39.5zM127.7 488.8l-9 3.4-11.6-12.4 3.9-8.8-8.1-8.7L82.7 513l1.1 1.1 51.8-17-7.9-8.3zM98 500l5.3-11.5 6.6 7.1L98 500zM91.9 445.1l-13.6 8.5c-.8-1.4-1.2-2.2-2.1-3.6-.3-.5-.7-1.1-1.1-1.6l9.1-15.5-6.9-11-9.9 19.8c-5.4-2.8-11.4-2.7-16.4.5-7.6 4.7-10.5 13.7-2.4 26.6 3.1 4.8 5.8 8.5 8.3 11.8L98 454.8l-6.1-9.7zM59 465.8c-1.1-1.2-1.8-2.1-2.6-3.5-2.6-4.2-2.3-8.1 1.2-10.3 4.2-2.6 8.2-1.1 11.2 3.5.7 1.1 1.1 1.9 1.8 3.2L59 465.8zM62 381.3l-32.1-7.1 24.6-21.8-.4-1.4-52.6-4.8 3.1 12.4 26.7 1.2-21.9 18.9.2 1.2 28.5 5.9-22.9 14 3.2 12.6 43.8-29.7zM49.7 321.4l-9-3.5-.4-16.8 8.8-3.9-.3-11.8L0 309.7v1.5L49.9 333l-.2-11.6zM20 310l11.6-5.1.2 9.6L20 310zM51.9 265l-15.8-2.7c.3-1.5.5-2.5.9-4.2.1-.7.2-1.2.2-2l17.1-5.6 2.1-12.7-20.6 8.2c-2.2-5.7-6.9-9.6-12.6-10.6-8.9-1.4-17 3.3-19.5 18.3-1 5.7-1.3 10.2-1.6 14.3l47.9 8 1.9-11zm-24.2-7.8c-.2 1.3-.4 2.1-.8 3.5l-13.4-2.2c0-1.6.1-2.7.4-4.4.8-4.8 3.7-7.6 7.8-6.9 4.9.8 7 4.7 6 10zM63.6 217.1l-15-5.6c.7-1.5 1-2.3 1.6-3.9.2-.7.4-1.2.7-1.9l17.8-2.2 4.5-12-21.8 4.1c-1.1-6-4.9-10.8-10.3-12.8-8.4-3.2-17.3 0-22.7 14.2-2 5.4-3.3 9.7-4.3 13.8l45.4 17 4.1-10.7zM41.3 205c-.4 1.2-.8 2-1.4 3.3l-12.6-4.7c.3-1.6.7-2.6 1.2-4.3 1.8-4.6 5-6.7 8.9-5.3 4.5 1.7 5.9 5.9 3.9 11zM81 177.4l-5.7-7.8 8.9-14.5 9.5 1.5 6.1-10.1-54.1-6.1-.8 1.3 30 45.4 6.1-9.7zm-11.1-15.3l-7.4-10.3 12.5 2.1-5.1 8.2zM113.4 131.4l-18.5-17.6 39.6-3.2.5-1-36-34.2-7.9 8.4 18.5 17.4-39.1 3-.9 1.4 36.1 34zM133.2 61.6l22.1 31.6 9.3-6.6-22.1-31.5 12-8.5-6-8.5-33.4 23.4 6 8.6zM198.2 67.6l10.4-4.6-7.9-17.7 3.7-34-11.7 5.1-1.4 21.3-16.9-13.1-11.8 5.3 27.7 19.9zM282.5 32.5c6.9-.7 11.9-6.9 11.2-13.8-.7-7-6.8-12.2-13.7-11.5-6.9.7-11.9 6.9-11.2 13.9.8 6.9 6.8 12.1 13.7 11.4z"/></symbol><symbol viewBox="0 0 35.7 19.1" id="truck"><title>Delivery truck</title><desc>Image of a delivery truck</desc><path d="M13.5 1.4H7.9c-.2 0-.4.1-.6.3L4.1 7.4.5 8.5c-.3.1-.5.3-.5.6v6.5c0 .4.3.6.6.6h3.5v-.6-.6H1.3V9.6l3.4-1c.2 0 .3-.2.4-.3l3.2-5.6h5.3c.4 0 .6-.3.6-.6s-.3-.7-.7-.7"/><path d="M8.5 13.4c-1.2 0-2.2 1-2.2 2.2 0 1.2 1 2.2 2.2 2.2 1.2 0 2.2-1 2.2-2.2 0-1.2-1-2.2-2.2-2.2m0 5.7c-1.9 0-3.5-1.6-3.5-3.5s1.6-3.5 3.5-3.5 3.5 1.6 3.5 3.5-1.6 3.5-3.5 3.5M33.9 13.4c-.4 0-.6-.3-.6-.6V1.3H17.1v11.5c0 .4-.3.6-.6.6-.4 0-.6-.3-.6-.6V.6c0-.4.3-.6.6-.6h17.4c.4 0 .6.3.6.6v12.1c0 .4-.2.7-.6.7M35.1 15h-3.3v1.2h3.3c.4 0 .6-.3.6-.6s-.3-.6-.6-.6"/><path d="M27.5 13.4c-1.2 0-2.2 1-2.2 2.2 0 1.2 1 2.2 2.2 2.2 1.2 0 2.2-1 2.2-2.2 0-1.2-1-2.2-2.2-2.2m0 5.7c-1.9 0-3.5-1.6-3.5-3.5s1.6-3.5 3.5-3.5 3.5 1.6 3.5 3.5-1.6 3.5-3.5 3.5M31.3 4.6H19.1c-.4 0-.6-.3-.6-.6 0-.4.3-.6.6-.6h12.2c.4 0 .6.3.6.6s-.3.6-.6.6M23.2 16.2v-.6-.6H12.7v1.2h10.5z"/></symbol><symbol viewBox="0 0 32 32" id="twitter"><title>Twitter Icon</title><desc>Casper on Twitter</desc><path d="M32 6.076a13.14 13.14 0 0 1-3.77 1.034 6.592 6.592 0 0 0 2.886-3.632 13.15 13.15 0 0 1-4.17 1.593A6.557 6.557 0 0 0 22.157 3a6.565 6.565 0 0 0-6.566 6.565c0 .515.058 1.016.17 1.496A18.64 18.64 0 0 1 2.228 4.2a6.536 6.536 0 0 0-.89 3.3 6.563 6.563 0 0 0 2.922 5.465 6.54 6.54 0 0 1-2.974-.82v.082a6.568 6.568 0 0 0 5.265 6.437 6.578 6.578 0 0 1-2.964.112 6.57 6.57 0 0 0 6.133 4.56 13.172 13.172 0 0 1-8.155 2.81c-.53 0-1.052-.032-1.566-.093a18.58 18.58 0 0 0 10.063 2.95c12.076 0 18.68-10.004 18.68-18.68 0-.285-.007-.568-.02-.85A13.347 13.347 0 0 0 32 6.077z"/></symbol><symbol viewBox="-380 292 30 30" id="usa"><title>American Flag</title><desc>Shop Casper Mattresses in the United States</desc><path d="M-377.5 315.2h25c.7-1.1 1.3-2.4 1.8-3.7h-28.6c.4 1.4 1 2.6 1.8 3.7M-365 322c3.8 0 7.2-1.4 9.8-3.7h-19.7c2.7 2.3 6.1 3.7 9.9 3.7M-362.7 297.8l.4 1.3-1-.8-1 .8.4-1.3-1.1-.7h1.3l.4-1.3.4 1.3h1.3zM-362.3 304.6l-1-.7-1 .7.4-1.2-1.1-.8h1.3l.4-1.2.4 1.2h1.3l-1.1.8zM-366.5 301.1l-1.1.7.4-1.2-1-.8h1.3l.4-1.2.4 1.2h1.2l-1 .8.4 1.2zM-368.7 304.6l-1-.7-1.1.7.4-1.2-1-.8h1.3l.4-1.2.3 1.2h1.3l-1 .8zM-372.9 301.1l-1 .7.3-1.2-1-.8h1.3l.4-1.2.4 1.2h1.2l-1 .8.4 1.2zM-375.1 304.6l-1-.7-1.1.7.4-1.2-1-.8h1.3l.4-1.2.3 1.2h1.3l-1 .8zM-370.1 297.1l.4-1.3.3 1.3h1.3l-1 .7.4 1.3-1-.8-1.1.8.4-1.3-1-.7z"/><path d="M-350.1 304.9h-9.6v-3.1h8.8c-.4-1.1-.9-2.1-1.5-3h-7.3v-3.1h4.7c-2.6-2.3-6.1-3.7-9.9-3.7-8.3 0-15 6.7-15 15 0 .5 0 1 .1 1.5h29.9c0-.5.1-1 .1-1.5-.2-.7-.3-1.4-.3-2.1z"/></symbol><symbol viewBox="-108 59 134 27" id="wired-small"><title>Wired magazine logo</title><path d="M13 66.4H7.5v12.1h5.8C16 78.5 16 75 16 75v-4.7c0-4.2-3-3.9-3-3.9z"/><path d="M-2.2 59v27h26.5V59H-2.2zm15.6 22.7c-6.6 0-9.6.1-9.6.1V63.3h7.9s8.1-.9 8.1 6.4v5.1c-.1.1.2 6.9-6.4 6.9zM-55 86h26.5V59H-55v27zm6.1-22.7h10.5s4.5-.3 4.5 4.7-2.8 5.2-2.8 5.2 2.8.2 2.8 4v4.2h-3.6v-4s0-3.1-2.1-3.1-5.8.1-5.8.1v7H-49l.1-18.1z"/><path d="M-37.5 68.6c0-2.6-2.8-2.2-2.8-2.2h-5.1v5s2.8-.1 5-.1c2.4.1 2.9-.4 2.9-2.7zM-108 86h26.5V59H-108v27zm5.9-22.6l2.5 13.9 3.2-13.9 4 .1 3.2 14 2.4-14.1h3.5L-87 81.5h-4.5l-2.9-13.2-3.2 13.3h-4.5l-3.7-18.2h3.7zm27.8 2.9h4.5v12.1h-4.5v3.1h12.8v-3.1h-4.9V66.3h4.9v-3.1h-12.8v3.1zm50.7 0h2.5v12.2h-2.5v3h15.5v-5.9h-3.1v2.9h-6.6v-5h4.9v-3h-4.9v-4.3h6.3v2.9h3.3v-5.9h-15.5"/></symbol><symbol viewBox="0 0 19.3 17.7" id="xmas-present"><title>Holiday present</title><desc>A line drawing of a gift from Casper</desc><path d="M18.5 2.8h-3.8c0-1.5-1.3-2.8-2.9-2.8-.9 0-1.6.4-2.2 1-.5-.6-1.3-1-2.1-1-1.6 0-2.9 1.3-3 2.8H.8c-.5 0-.8.4-.8.8v3.5c0 .4.3.8.8.8h.6V17c0 .4.3.8.8.8h15.1c.4 0 .8-.3.8-.8V7.9h.6c.4 0 .8-.3.8-.8V3.6c-.2-.4-.6-.8-1-.8zm-.7 3.6H10.4v-2h7.4v2zm-6-4.9c.7 0 1.4.6 1.4 1.3h-2.8c0-.7.7-1.3 1.4-1.3zm-4.3 0c.7 0 1.4.6 1.4 1.3H6c.1-.7.7-1.3 1.5-1.3zm-6 2.8h7.4v2H1.5v-2zm1.3 3.6h6.1v8.3H2.8V7.9zm13.6 8.3h-6.1V7.9h6.1v8.3z"/></symbol><symbol viewBox="0 0 32 32" id="youtube"><title>Youtube Icon</title><desc>Casper on Youtube</desc><path d="M23.6 4.9H8.4C0 4.9 0 7.3 0 13.1v5.7C0 24.4 1.2 27 8.4 27h15.3c6.5 0 8.4-1.6 8.4-8.2v-5.7c-.1-6.1-.4-8.2-8.5-8.2zm-11.3 16V11l9.5 4.9-9.5 5z"/></symbol></svg>